<?xml version="1.0" encoding="UTF-8" standalone="no"?>
<svg width="18px" height="28px" viewBox="0 0 18 28" version="1.1" xmlns="http://www.w3.org/2000/svg" xmlns:xlink="http://www.w3.org/1999/xlink" xmlns:sketch="http://www.bohemiancoding.com/sketch/ns">
    <!-- Generator: Sketch 3.3.1 (12005) - http://www.bohemiancoding.com/sketch -->
    <title>AngelsList</title>
    <desc>Created with Sketch.</desc>
    <defs></defs>
    <g id="More-Menu" stroke="none" stroke-width="1" fill="none" fill-rule="evenodd" sketch:type="MSPage">
        <g id="About" sketch:type="MSArtboardGroup" transform="translate(-154.000000, -497.000000)" fill="#FFFFFF">
            <path d="M168.35281,508.114163 C168.420025,508.125968 168.489063,508.148535 168.568013,508.108955 C168.59,508.049468 168.614722,507.983732 168.638646,507.917534 C168.796772,507.476709 168.956038,507.036347 169.112456,506.594944 C169.752823,504.789056 170.376101,502.977266 170.925101,501.140246 C171.098038,500.562047 171.264253,499.981996 171.386608,499.38991 C171.447785,499.094445 171.473646,498.799906 171.409734,498.501201 C171.373506,498.332579 171.316886,498.174257 171.221418,498.03017 C170.977392,497.661447 170.472595,497.55613 170.121139,497.756116 C170.01257,497.818033 169.905481,497.892796 169.818443,497.982604 C169.686291,498.118937 169.563937,498.267074 169.452975,498.421577 C169.245861,498.709635 169.085342,499.02651 168.934165,499.347552 C168.664848,499.919038 168.433013,500.506496 168.228063,501.104137 C167.493709,503.245418 166.764937,505.388666 166.034797,507.53145 C166.018962,507.577743 166.009392,507.626235 165.993101,507.687573 C166.158405,507.719863 166.315051,507.752731 166.472494,507.780854 C167.099076,507.892883 167.725772,508.003986 168.35281,508.114163 Z M158.603076,501.020926 C158.952139,502.23681 159.352924,503.435682 159.772392,504.627957 C160.111886,505.592354 160.465278,506.551776 160.815139,507.51247 C160.837468,507.573924 160.84043,507.652275 160.909013,507.689888 C160.924962,507.676926 160.938519,507.670213 160.946494,507.659219 C161.083772,507.469534 161.27357,507.384702 161.498456,507.346857 C161.737013,507.306814 161.973861,507.313758 162.211278,507.331812 C162.616392,507.362481 163.020823,507.40183 163.425595,507.436318 C163.458861,507.439096 163.492924,507.43192 163.540316,507.428333 C163.516506,507.350561 163.497709,507.282973 163.475038,507.216774 C162.955316,505.690958 162.435367,504.165143 161.914848,502.639675 C161.568633,501.624933 161.234835,500.605678 160.851253,499.604477 C160.655532,499.093866 160.453886,498.585801 160.209291,498.096832 C160.09457,497.867913 159.965152,497.648485 159.798823,497.453128 C159.687861,497.322814 159.563456,497.208933 159.414443,497.125143 C159.065722,496.929439 158.611506,496.99911 158.341506,497.313439 C158.238519,497.433338 158.163443,497.568745 158.118101,497.720586 C158.056582,497.927053 158.028443,498.139306 158.047582,498.353642 C158.069797,498.601425 158.09543,498.849787 158.137468,499.094792 C158.249114,499.747291 158.420456,500.385671 158.603076,501.020926 Z M156.925089,512.059479 C157.092671,512.498336 157.315506,512.909881 157.552582,513.313555 C157.905063,513.913628 158.313709,514.473772 158.73238,515.026973 C159.155949,515.586655 159.605152,516.122611 160.120544,516.598271 C160.343835,516.804391 160.577949,516.996506 160.833823,517.160152 C160.976456,517.251349 161.125013,517.330394 161.285759,517.383631 C161.576835,517.480036 161.837949,517.422402 162.069443,517.221837 C162.182342,517.124043 162.278608,517.010857 162.349696,516.878228 C162.449266,516.69213 162.498253,516.494228 162.457924,516.281975 C162.433886,516.156637 162.409278,516.030604 162.373848,515.908275 C162.170266,515.204159 161.904139,514.523653 161.60919,513.854836 C161.201684,512.930944 160.724342,512.045823 160.167367,511.205953 C159.955696,510.886647 159.718962,510.586553 159.445886,510.318286 C159.248684,510.12455 159.036101,509.950951 158.788886,509.826076 C158.605354,509.733259 158.414304,509.668101 158.195342,509.669606 C158.038696,509.662662 157.886835,509.717982 157.74819,509.803971 C157.36381,510.042496 157.060316,510.36238 156.846253,510.766286 C156.721506,511.001685 156.689608,511.25294 156.755684,511.511024 C156.803076,511.696311 156.856962,511.881251 156.925089,512.059479 Z M171.871582,512.457599 C171.834557,512.103342 171.774177,511.754062 171.671987,511.411957 C171.511696,510.875306 171.198063,510.467349 170.716734,510.190286 C170.454139,510.039255 170.183684,509.906626 169.902405,509.79668 C168.939177,509.41974 167.93938,509.179942 166.927392,508.989331 C166.535494,508.915494 166.139949,508.860752 165.744633,508.806705 C165.411861,508.761222 165.077722,508.720485 164.742899,508.693982 C164.344734,508.662503 163.945658,508.64549 163.546696,508.628015 C163.28057,508.616326 163.013987,508.610076 162.747747,508.610192 C162.52343,508.610307 162.300139,508.634958 162.081861,508.69213 C161.716848,508.787725 161.498,509.028911 161.449013,509.404926 C161.353544,510.140405 161.554165,510.771378 162.126861,511.257917 C162.387747,511.479429 162.684177,511.637751 162.998835,511.76332 C163.54943,511.982749 164.124633,512.102185 164.707468,512.18609 C164.991595,512.226944 165.277203,512.256687 165.562924,512.283884 C165.855823,512.311892 166.149063,512.343139 166.442873,512.351125 C167.157519,512.370336 167.872392,512.377049 168.58738,512.388622 C168.664392,512.389779 168.741519,512.390011 168.818532,512.389432 C169.070532,512.387465 169.242671,512.513845 169.354203,512.734893 C169.434633,512.894257 169.484304,513.062995 169.492734,513.245968 C169.392823,513.362279 169.266709,513.441439 169.136835,513.508217 C168.868658,513.646054 168.596949,513.777411 168.321823,513.90055 C168.021063,514.035147 167.712785,514.152036 167.411911,514.286402 C167.071734,514.438474 166.741241,514.611262 166.439911,514.833816 C165.583203,515.466524 164.883709,516.243783 164.362165,517.182604 C164.151519,517.561859 163.97562,517.956622 163.863633,518.378351 C163.747772,518.81443 163.691038,519.255024 163.741962,519.708926 C163.790608,520.142807 163.898835,520.560716 164.026203,520.975617 C164.128278,521.308232 164.223975,521.642698 164.320127,521.977165 C164.359772,522.115928 164.358633,522.258857 164.340633,522.400861 C164.33562,522.440557 164.315342,522.47817 164.304405,522.509534 C164.277405,522.515899 164.263848,522.522958 164.251203,522.521454 C163.84962,522.474698 163.521975,522.28617 163.255506,521.982141 C163.072203,521.772781 162.934468,521.534141 162.821456,521.279646 C162.614911,520.814402 162.510101,520.322423 162.446873,519.819103 C162.404949,519.486257 162.397886,519.152022 162.39538,518.817208 C162.394924,518.763045 162.409051,518.704832 162.367696,518.640022 C162.323608,518.664788 162.28157,518.684232 162.243861,518.71004 C162.087899,518.816745 161.917924,518.866626 161.729038,518.864658 C161.538329,518.862691 161.352405,518.840123 161.169671,518.784919 C161.126266,518.771841 161.075342,518.747769 161.040139,518.795335 C161.067595,518.968586 161.095734,519.136745 161.121025,519.305367 C161.182544,519.717027 161.100519,520.100911 160.879506,520.448224 C160.615544,520.863125 160.247342,521.147826 159.781278,521.295385 C159.368987,521.426047 158.951911,521.412159 158.535861,521.317259 C158.128354,521.224326 157.756165,521.044477 157.407443,520.814054 C156.88043,520.4657 156.421544,520.038532 156.021329,519.547826 C155.887468,519.383834 155.766253,519.20792 155.653468,519.028304 C155.471418,518.738279 155.339494,518.424412 155.273646,518.085317 C155.226025,517.839617 155.204152,517.592065 155.252797,517.342893 C155.280253,517.201816 155.32343,517.068492 155.445443,516.947204 C155.484291,516.99153 155.513797,517.021505 155.539089,517.054488 C155.733443,517.306901 155.926658,517.560123 156.120899,517.81242 C156.328013,518.081613 156.52943,518.355552 156.74543,518.617338 C157.002671,518.929237 157.290557,519.210814 157.620823,519.44413 C157.864392,519.616109 158.124025,519.754872 158.417266,519.814242 C158.843456,519.900463 159.223051,519.815863 159.536,519.490192 C159.709165,519.310112 159.765899,519.101794 159.688544,518.863848 C159.640241,518.715711 159.583051,518.569541 159.516975,518.428694 C159.342329,518.054879 159.126899,517.704557 158.895405,517.364998 C158.419772,516.667595 157.901418,516.004449 157.342165,515.374402 C157.140177,515.146872 156.930101,514.926402 156.689722,514.740072 C156.562241,514.641121 156.427924,514.548767 156.287228,514.470647 C156.130468,514.38327 155.961063,514.364174 155.778785,514.39681 C155.463215,514.453288 155.198911,514.602467 154.968215,514.818423 C154.577911,515.184022 154.306886,515.626582 154.164823,516.147262 C154.039165,516.607646 154.031532,517.075204 154.098519,517.544846 C154.175646,518.083928 154.344937,518.595696 154.561165,519.091957 C154.933013,519.945136 155.442367,520.709548 156.030899,521.421302 C156.493203,521.980752 157.023861,522.464977 157.617861,522.876984 C158.941316,523.795436 160.414241,524.266582 162.005418,524.358821 C162.818152,524.405924 163.628722,524.364029 164.432114,524.203971 C165.546519,523.982112 166.577076,523.559573 167.516266,522.912977 C168.725,522.080745 169.690165,521.01242 170.441608,519.744224 C171.357329,518.198734 171.800494,516.507769 171.908608,514.719125 C171.954291,513.965244 171.950076,513.210322 171.871582,512.457599 Z" id="AngelsList" sketch:type="MSShapeGroup"></path>
        </g>
    </g>
</svg>