<?xml version="1.0" encoding="UTF-8" standalone="no"?>
<svg width="30px" height="21px" viewBox="0 0 30 21" version="1.1" xmlns="http://www.w3.org/2000/svg" xmlns:xlink="http://www.w3.org/1999/xlink" xmlns:sketch="http://www.bohemiancoding.com/sketch/ns">
    <!-- Generator: Sketch 3.3.1 (12005) - http://www.bohemiancoding.com/sketch -->
    <title>Behance</title>
    <desc>Created with Sketch.</desc>
    <defs></defs>
    <g id="More-Menu" stroke="none" stroke-width="1" fill="none" fill-rule="evenodd" sketch:type="MSPage">
        <g id="About" sketch:type="MSArtboardGroup" transform="translate(-289.000000, -308.000000)" fill="#FFFFFF">
            <path d="M293.149223,328.501502 L298.565223,328.501502 C298.565223,328.501502 304.475223,328.281502 304.475223,322.305502 C304.475223,322.305502 304.733223,317.441502 300.990223,317.441502 C300.990223,317.441502 303.828223,317.219502 303.828223,313.716502 C303.828223,310.211502 301.506223,308.501502 298.565223,308.501502 L289.117223,308.501502 L289.117223,328.501502 L293.149223,328.501502 L293.149223,328.501502 Z M293.149223,311.983502 L298.565223,311.983502 C298.565223,311.983502 299.879223,311.983502 299.879223,314.018502 C299.879223,316.056502 299.106223,316.352502 298.229223,316.352502 L293.149223,316.352502 L293.149223,311.983502 L293.149223,311.983502 Z M293.149223,319.371502 L298.565223,319.371502 C298.565223,319.371502 300.524223,319.343502 300.524223,322.061502 C300.524223,324.351502 299.061223,324.587502 298.291223,324.606502 C298.147223,324.608502 298.026223,324.606502 297.944223,324.606502 L293.149223,324.606502 L293.149223,319.371502 Z M312.358223,313.484502 C305.203223,313.484502 305.209223,321.008502 305.209223,321.008502 C305.209223,321.008502 304.717223,328.495502 312.358223,328.495502 C312.358223,328.496502 318.725223,328.878502 318.725223,323.286502 L315.450223,323.286502 C315.450223,323.286502 315.559223,325.393502 312.467223,325.393502 C312.467223,325.393502 309.192223,325.623502 309.192223,321.984502 L318.832223,321.984502 C318.832223,321.984502 319.887223,313.484502 312.358223,313.484502 Z M309.155223,319.371502 C309.155223,319.371502 309.555223,316.352502 312.430223,316.352502 C315.305223,316.352502 315.266223,319.371502 315.266223,319.371502 L309.155223,319.371502 Z M308.354223,309.654502 L316.030223,309.654502 L316.030223,311.501502 L308.354223,311.501502 L308.354223,309.654502 Z" id="Behance" sketch:type="MSShapeGroup"></path>
        </g>
    </g>
</svg>