<?xml version="1.0" encoding="UTF-8" standalone="no"?>
<svg width="30px" height="17px" viewBox="0 0 30 17" version="1.1" xmlns="http://www.w3.org/2000/svg" xmlns:xlink="http://www.w3.org/1999/xlink" xmlns:sketch="http://www.bohemiancoding.com/sketch/ns">
    <!-- Generator: Sketch 3.3.1 (12005) - http://www.bohemiancoding.com/sketch -->
    <title>CrunchBase</title>
    <desc>Created with Sketch.</desc>
    <defs></defs>
    <g id="More-Menu" stroke="none" stroke-width="1" fill="none" fill-rule="evenodd" sketch:type="MSPage">
        <g id="About" sketch:type="MSArtboardGroup" transform="translate(-288.000000, -502.000000)" fill="#FFFFFF">
            <path d="M299.891223,512.453838 L301.964223,512.977838 C301.530223,514.679838 300.748223,515.978838 299.619223,516.871838 C298.490223,517.766838 297.110223,518.212838 295.479223,518.212838 C293.791223,518.212838 292.418223,517.869838 291.360223,517.181838 C290.302223,516.494838 289.497223,515.499838 288.945223,514.195838 C288.393223,512.892838 288.117223,511.492838 288.117223,509.996838 C288.117223,508.365838 288.429223,506.942838 289.052223,505.728838 C289.675223,504.513838 290.562223,503.591838 291.713223,502.960838 C292.863223,502.330838 294.129223,502.015838 295.511223,502.015838 C297.078223,502.015838 298.396223,502.414838 299.464223,503.211838 C300.533223,504.009838 301.277223,505.131838 301.697223,506.577838 L299.656223,507.058838 C299.293223,505.918838 298.766223,505.088838 298.075223,504.568838 C297.384223,504.048838 296.515223,503.788838 295.468223,503.788838 C294.264223,503.788838 293.258223,504.077838 292.450223,504.654838 C291.641223,505.231838 291.073223,506.005838 290.746223,506.978838 C290.418223,507.950838 290.254223,508.953838 290.254223,509.985838 C290.254223,511.317838 290.448223,512.480838 290.837223,513.474838 C291.225223,514.467838 291.828223,515.210838 292.648223,515.702838 C293.467223,516.193838 294.353223,516.439838 295.308223,516.439838 C296.469223,516.439838 297.452223,516.104838 298.257223,515.434838 C299.062223,514.765838 299.606223,513.771838 299.891223,512.453838 Z M304.432223,502.282838 L310.693223,502.282838 C311.933223,502.282838 312.857223,502.334838 313.466223,502.437838 C314.075223,502.540838 314.620223,502.756838 315.101223,503.083838 C315.582223,503.411838 315.982223,503.847838 316.303223,504.392838 C316.623223,504.937838 316.784223,505.548838 316.784223,506.224838 C316.784223,506.958838 316.586223,507.631838 316.191223,508.244838 C315.795223,508.856838 315.259223,509.316838 314.583223,509.622838 C315.537223,509.900838 316.271223,510.374838 316.784223,511.043838 C317.296223,511.713838 317.553223,512.500838 317.553223,513.404838 C317.553223,514.117838 317.387223,514.809838 317.056223,515.482838 C316.725223,516.156838 316.273223,516.693838 315.699223,517.096838 C315.126223,517.498838 314.419223,517.746838 313.578223,517.838838 C313.051223,517.895838 311.780223,517.931838 309.764223,517.945838 L304.432223,517.945838 L304.432223,502.282838 Z M307.595223,504.889838 L307.595223,508.511838 L309.668223,508.511838 C310.900223,508.511838 311.666223,508.493838 311.965223,508.457838 C312.506223,508.393838 312.932223,508.206838 313.242223,507.897838 C313.552223,507.587838 313.706223,507.179838 313.706223,506.673838 C313.706223,506.189838 313.573223,505.795838 313.306223,505.493838 C313.039223,505.190838 312.641223,505.006838 312.115223,504.942838 C311.801223,504.907838 310.900223,504.889838 309.411223,504.889838 L307.595223,504.889838 L307.595223,504.889838 Z M307.595223,511.118838 L307.595223,515.306838 L310.523223,515.306838 C311.662223,515.306838 312.385223,515.274838 312.691223,515.210838 C313.162223,515.125838 313.544223,514.916838 313.840223,514.585838 C314.136223,514.254838 314.284223,513.810838 314.284223,513.255838 C314.284223,512.785838 314.169223,512.386838 313.942223,512.058838 C313.714223,511.731838 313.384223,511.492838 312.953223,511.342838 C312.522223,511.193838 311.587223,511.118838 310.149223,511.118838 L307.595223,511.118838 L307.595223,511.118838 Z" id="CrunchBase" sketch:type="MSShapeGroup"></path>
        </g>
    </g>
</svg>