<?xml version="1.0" encoding="UTF-8" standalone="no"?>
<svg width="30px" height="31px" viewBox="0 0 30 31" version="1.1" xmlns="http://www.w3.org/2000/svg" xmlns:xlink="http://www.w3.org/1999/xlink" xmlns:sketch="http://www.bohemiancoding.com/sketch/ns">
    <!-- Generator: Sketch 3.3.1 (12005) - http://www.bohemiancoding.com/sketch -->
    <title>Dribble</title>
    <desc>Created with Sketch.</desc>
    <defs></defs>
    <g id="More-Menu" stroke="none" stroke-width="1" fill="none" fill-rule="evenodd" sketch:type="MSPage">
        <g id="About" sketch:type="MSArtboardGroup" transform="translate(-149.000000, -398.000000)" fill="#FFFFFF">
            <path d="M177.821435,407.948787 C177.445435,407.058787 176.979435,406.201787 176.437435,405.400787 C175.902435,404.606787 175.286435,403.859787 174.608435,403.181787 C173.929435,402.503787 173.182435,401.886787 172.389435,401.350787 C171.587435,400.807787 170.729435,400.343787 169.840435,399.966787 C168.934435,399.585787 167.985435,399.289787 167.021435,399.092787 C166.034435,398.890787 165.018435,398.786787 164.001435,398.786787 C162.986435,398.786787 161.968435,398.890787 160.980435,399.092787 C160.016435,399.289787 159.068435,399.585787 158.163435,399.966787 C157.273435,400.343787 156.416435,400.807787 155.614435,401.350787 C154.819435,401.886787 154.073435,402.503787 153.394435,403.181787 C152.717435,403.859787 152.101435,404.606787 151.564435,405.400787 C151.022435,406.201787 150.556435,407.058787 150.182435,407.948787 C149.798435,408.854787 149.503435,409.803787 149.305435,410.767787 C149.104435,411.753787 149.001435,412.770787 149.001435,413.786787 C149.001435,414.803787 149.104435,415.820787 149.305435,416.808787 C149.503435,417.772787 149.798435,418.720787 150.182435,419.625787 C150.556435,420.515787 151.022435,421.373787 151.564435,422.175787 C152.101435,422.968787 152.717435,423.714787 153.394435,424.394787 C154.073435,425.072787 154.819435,425.687787 155.614435,426.224787 C156.416435,426.765787 157.273435,427.231787 158.163435,427.607787 C159.068435,427.991787 160.016435,428.284787 160.980435,428.482787 C161.968435,428.685787 162.986435,428.786787 164.001435,428.786787 C165.018435,428.786787 166.034435,428.685787 167.021435,428.482787 C167.985435,428.284787 168.934435,427.991787 169.840435,427.607787 C170.729435,427.231787 171.587435,426.765787 172.389435,426.224787 C173.182435,425.687787 173.929435,425.072787 174.608435,424.394787 C175.286435,423.714787 175.902435,422.968787 176.437435,422.175787 C176.979435,421.373787 177.445435,420.515787 177.821435,419.625787 C178.205435,418.720787 178.499435,417.772787 178.696435,416.808787 C178.898435,415.820787 179.000435,414.803787 179.000435,413.786787 C179.000435,412.770787 178.898435,411.753787 178.696435,410.767787 C178.499435,409.803787 178.205435,408.854787 177.821435,407.948787 L177.821435,407.948787 Z M164.001435,400.977787 C167.245435,400.977787 170.205435,402.186787 172.462435,404.173787 C172.430435,404.223787 170.606435,407.000787 165.770435,408.812787 C163.581435,404.789787 161.175435,401.592787 160.982435,401.338787 C161.951435,401.104787 162.960435,400.977787 164.001435,400.977787 L164.001435,400.977787 Z M160.934435,401.349787 C160.933435,401.350787 160.931435,401.351787 160.931435,401.351787 C160.931435,401.351787 160.917435,401.355787 160.892435,401.360787 C160.906435,401.356787 160.920435,401.354787 160.934435,401.349787 L160.934435,401.349787 Z M158.536435,402.201787 C158.706435,402.430787 161.076435,405.641787 163.292435,409.582787 C157.142435,411.216787 151.804435,411.153787 151.465435,411.147787 C152.298435,407.178787 154.962435,403.888787 158.536435,402.201787 L158.536435,402.201787 Z M154.474435,422.347787 C152.434435,420.078787 151.192435,417.077787 151.192435,413.786787 C151.192435,413.650787 151.197435,413.515787 151.203435,413.381787 C151.428435,413.386787 157.757435,413.530787 164.353435,411.556787 C164.720435,412.275787 165.072435,413.004787 165.392435,413.733787 C165.223435,413.781787 165.055435,413.831787 164.887435,413.886787 C157.975435,416.121787 154.469435,422.340787 154.469435,422.340787 C154.469435,422.340787 154.473435,422.345787 154.474435,422.347787 L154.474435,422.347787 Z M164.001435,426.597787 C161.032435,426.597787 158.304435,425.578787 156.130435,423.881787 L156.129435,423.885787 C156.129435,423.885787 156.010435,423.797787 155.841435,423.662787 C155.935435,423.739787 156.035435,423.806787 156.130435,423.881787 C156.154435,423.832787 158.620435,418.517787 166.181435,415.883787 C166.209435,415.872787 166.238435,415.864787 166.266435,415.856787 C168.069435,420.540787 168.813435,424.462787 169.002435,425.583787 C167.466435,426.235787 165.775435,426.597787 164.001435,426.597787 L164.001435,426.597787 Z M171.160435,424.412787 C171.029435,423.637787 170.346435,419.878787 168.666435,415.261787 C172.801435,414.600787 176.385435,415.734787 176.649435,415.820787 C176.079435,419.390787 174.035435,422.469787 171.160435,424.412787 L171.160435,424.412787 Z M167.885435,413.240787 C167.794435,413.020787 167.704435,412.800787 167.609435,412.578787 C167.342435,411.952787 167.055435,411.330787 166.757435,410.720787 C171.816435,408.656787 173.870435,405.685787 173.895435,405.650787 C175.690435,407.831787 176.777435,410.620787 176.806435,413.659787 C176.622435,413.619787 172.287435,412.686787 167.885435,413.240787 L167.885435,413.240787 Z" id="Dribble" sketch:type="MSShapeGroup"></path>
        </g>
    </g>
</svg>