<?xml version="1.0" encoding="UTF-8" standalone="no"?>
<svg width="25px" height="31px" viewBox="0 0 25 31" version="1.1" xmlns="http://www.w3.org/2000/svg" xmlns:xlink="http://www.w3.org/1999/xlink" xmlns:sketch="http://www.bohemiancoding.com/sketch/ns">
    <!-- Generator: Sketch 3.3.1 (12005) - http://www.bohemiancoding.com/sketch -->
    <title>Github</title>
    <desc>Created with Sketch.</desc>
    <defs></defs>
    <g id="More-Menu" stroke="none" stroke-width="1" fill="none" fill-rule="evenodd" sketch:type="MSPage">
        <g id="About" sketch:type="MSArtboardGroup" transform="translate(-291.000000, -400.000000)" fill="#FFFFFF">
            <path d="M292.482341,414.523913 C292.436341,414.523913 292.996341,415.730913 293.012341,415.730913 C294.235341,417.949913 296.593341,419.330913 300.572341,419.711913 C300.004341,420.142913 299.322341,420.960913 299.227341,421.905913 C298.513341,422.365913 297.078341,422.518913 295.962341,422.166913 C294.398341,421.673913 293.799341,418.578913 291.457341,419.019913 C290.950341,419.114913 291.051341,419.449913 291.489341,419.733913 C292.203341,420.194913 292.875341,420.772913 293.392341,422.002913 C293.791341,422.945913 294.628341,424.632913 297.274341,424.632913 C298.323341,424.632913 299.059341,424.506913 299.059341,424.506913 C299.059341,424.506913 299.079341,426.916913 299.079341,427.853913 C299.079341,428.934913 297.619341,429.238913 297.619341,429.758913 C297.619341,429.963913 298.103341,429.983913 298.491341,429.983913 C299.258341,429.983913 300.854341,429.342913 300.854341,428.219913 C300.854341,427.328913 300.868341,424.327913 300.868341,423.803913 C300.868341,422.656913 301.484341,422.292913 301.484341,422.292913 C301.484341,422.292913 301.560341,428.417913 301.337341,429.238913 C301.075341,430.203913 300.602341,430.066913 300.602341,430.497913 C300.602341,431.138913 302.523341,430.654913 303.160341,429.248913 C303.652341,428.153913 303.437341,422.145913 303.437341,422.145913 L303.962341,422.133913 C303.962341,422.134913 303.991341,424.884913 303.973341,426.142913 C303.955341,427.444913 303.866341,429.091913 304.640341,429.867913 C305.148341,430.377913 306.795341,431.274913 306.795341,430.455913 C306.795341,429.979913 305.893341,429.589913 305.893341,428.301913 L305.893341,422.376913 C306.614341,422.376913 306.505341,424.324913 306.505341,424.324913 L306.558341,427.945913 C306.558341,427.945913 306.399341,429.263913 307.986341,429.815913 C308.546341,430.011913 309.742341,430.063913 309.799341,429.735913 C309.856341,429.406913 308.357341,428.917913 308.343341,427.895913 C308.334341,427.273913 308.371341,426.909913 308.371341,424.202913 C308.371341,421.494913 308.007341,420.494913 306.739341,419.697913 C310.650341,419.295913 313.072341,418.327913 314.251341,415.738913 C314.343341,415.740913 314.732341,414.528913 314.682341,414.528913 C314.946341,413.550913 315.090341,412.393913 315.117341,411.024913 C315.111341,407.309913 313.332341,405.995913 312.991341,405.379913 C313.494341,402.566913 312.906341,401.287913 312.633341,400.848913 C311.625341,400.490913 309.127341,401.770913 307.761341,402.671913 C305.537341,402.021913 300.833341,402.083913 299.069341,402.839913 C295.814341,400.509913 294.092341,400.866913 294.092341,400.866913 C294.092341,400.866913 292.979341,402.859913 293.798341,405.776913 C292.727341,407.141913 291.929341,408.106913 291.929341,410.664913 C291.930341,412.107913 292.100341,413.397913 292.482341,414.523913" id="Github" sketch:type="MSShapeGroup"></path>
        </g>
    </g>
</svg>