<?xml version="1.0" encoding="UTF-8" standalone="no"?>
<svg width="28px" height="29px" viewBox="0 0 28 29" version="1.1" xmlns="http://www.w3.org/2000/svg" xmlns:xlink="http://www.w3.org/1999/xlink" xmlns:sketch="http://www.bohemiancoding.com/sketch/ns">
    <!-- Generator: Sketch 3.3.1 (12005) - http://www.bohemiancoding.com/sketch -->
    <title>Instagram</title>
    <desc>Created with Sketch.</desc>
    <defs></defs>
    <g id="More-Menu" stroke="none" stroke-width="1" fill="none" fill-rule="evenodd" sketch:type="MSPage">
        <g id="About" sketch:type="MSArtboardGroup" transform="translate(-290.000000, -114.000000)" fill="#FFFFFF">
            <path d="M312.5876,114.598 L295.410533,114.598 C292.426667,114.598 290,117.023733 290,120.0076 L290,137.187467 C290,140.171333 292.426667,142.598 295.410533,142.598 L312.5876,142.598 C315.571467,142.598 318,140.171333 318,137.187467 L318,120.0076 C318,117.023733 315.571467,114.598 312.5876,114.598 L312.5876,114.598 Z M314.140667,117.8264 L314.758533,117.822667 L314.758533,122.567733 L310.030267,122.5836 L310.013467,117.838533 L314.140667,117.8264 L314.140667,117.8264 Z M300.0044,125.724267 C300.901333,124.482933 302.355467,123.67 304,123.67 C305.644533,123.67 307.098667,124.482933 307.9956,125.724267 C308.578933,126.5344 308.928933,127.5256 308.928933,128.598 C308.928933,131.314 306.716,133.525067 304,133.525067 C301.282133,133.525067 299.071067,131.314 299.071067,128.598 C299.071067,127.5256 299.421067,126.5344 300.0044,125.724267 L300.0044,125.724267 Z M315.2728,137.187467 C315.2728,138.667733 314.067867,139.8708 312.5876,139.8708 L295.410533,139.8708 C293.930267,139.8708 292.7272,138.667733 292.7272,137.187467 L292.7272,125.724267 L296.906667,125.724267 C296.5464,126.6128 296.343867,127.582533 296.343867,128.598 C296.343867,132.819467 299.778533,136.254133 304,136.254133 C308.221467,136.254133 311.656133,132.819467 311.656133,128.598 C311.656133,127.582533 311.451733,126.6128 311.091467,125.724267 L315.2728,125.724267 L315.2728,137.187467 L315.2728,137.187467 Z" id="Instagram" sketch:type="MSShapeGroup"></path>
        </g>
    </g>
</svg>