<?xml version="1.0" encoding="UTF-8" standalone="no"?>
<svg width="28px" height="29px" viewBox="0 0 28 29" version="1.1" xmlns="http://www.w3.org/2000/svg" xmlns:xlink="http://www.w3.org/1999/xlink" xmlns:sketch="http://www.bohemiancoding.com/sketch/ns">
    <!-- Generator: Sketch 3.3.1 (12005) - http://www.bohemiancoding.com/sketch -->
    <title>Linkedin</title>
    <desc>Created with Sketch.</desc>
    <defs></defs>
    <g id="More-Menu" stroke="none" stroke-width="1" fill="none" fill-rule="evenodd" sketch:type="MSPage">
        <g id="About" sketch:type="MSArtboardGroup" transform="translate(-152.000000, -206.000000)" fill="#FFFFFF">
            <path d="M152.001435,216.118854 L158.534545,216.118854 L158.534545,234.784883 L152.001435,234.784883 L152.001435,216.118854 Z M155.26799,213.31895 C157.070195,213.31895 158.534545,211.8546 158.534545,210.051462 C158.534545,208.248323 157.070195,206.784907 155.26799,206.784907 C153.462051,206.784907 152.001435,208.248323 152.001435,210.051462 C152.001435,211.8546 153.462051,213.31895 155.26799,213.31895 Z M180.000478,224.526034 C180.000478,219.489939 178.914115,216.118854 173.042716,216.118854 C170.220412,216.118854 168.326744,217.166952 167.552103,218.637835 L167.47184,218.637835 L167.47184,216.118854 L162.267751,216.118854 L162.267751,234.78395 L167.707032,234.78395 L167.707032,225.532133 C167.707032,223.093416 168.168082,220.730297 171.186379,220.730297 C174.159878,220.730297 174.40067,223.520868 174.40067,225.689861 L174.40067,234.78395 L180.000478,234.78395 L180.000478,224.526034 Z" id="Linkedin" sketch:type="MSShapeGroup"></path>
        </g>
    </g>
</svg>