<?xml version="1.0" encoding="UTF-8" standalone="no"?>
<svg width="25px" height="30px" viewBox="0 0 25 30" version="1.1" xmlns="http://www.w3.org/2000/svg" xmlns:xlink="http://www.w3.org/1999/xlink" xmlns:sketch="http://www.bohemiancoding.com/sketch/ns">
    <!-- Generator: Sketch 3.3.1 (12005) - http://www.bohemiancoding.com/sketch -->
    <title>Pinterest</title>
    <desc>Created with Sketch.</desc>
    <defs></defs>
    <g id="More-Menu" stroke="none" stroke-width="1" fill="none" fill-rule="evenodd" sketch:type="MSPage">
        <g id="About" sketch:type="MSArtboardGroup" transform="translate(-290.000000, -211.000000)" fill="#FFFFFF">
            <path d="M295.268223,240.809847 C295.296223,241.014847 295.568223,241.063847 295.692223,240.908847 C295.867223,240.688847 298.136223,237.977847 298.907223,235.270847 C299.125223,234.502847 300.158223,230.534847 300.158223,230.534847 C300.778223,231.676847 302.586223,232.680847 304.510223,232.680847 C310.234223,232.680847 314.117223,227.631847 314.117223,220.871847 C314.117223,215.760847 309.642223,211.000847 302.842223,211.000847 C294.384223,211.000847 290.117223,216.869847 290.117223,221.764847 C290.117223,224.727847 291.277223,227.363847 293.762223,228.348847 C294.172223,228.508847 294.537223,228.354847 294.654223,227.916847 C294.737223,227.613847 294.931223,226.852847 295.019223,226.531847 C295.137223,226.100847 295.092223,225.949847 294.763223,225.572847 C294.045223,224.754847 293.586223,223.693847 293.586223,222.193847 C293.586223,217.838847 296.955223,213.940847 302.354223,213.940847 C307.135223,213.940847 309.763223,216.768847 309.763223,220.543847 C309.763223,225.512847 307.491223,229.705847 304.120223,229.705847 C302.255223,229.705847 300.861223,228.215847 301.307223,226.387847 C301.843223,224.203847 302.881223,221.848847 302.881223,220.272847 C302.881223,218.862847 302.098223,217.686847 300.479223,217.686847 C298.574223,217.686847 297.044223,219.592847 297.044223,222.145847 C297.044223,223.772847 297.613223,224.873847 297.613223,224.873847 C297.613223,224.873847 295.663223,232.862847 295.322223,234.262847 C294.642223,237.049847 295.219223,240.465847 295.268223,240.809847" id="Pinterest" sketch:type="MSShapeGroup"></path>
        </g>
    </g>
</svg>