<?xml version="1.0" encoding="UTF-8" standalone="no"?>
<svg width="31px" height="25px" viewBox="0 0 31 25" version="1.1" xmlns="http://www.w3.org/2000/svg" xmlns:xlink="http://www.w3.org/1999/xlink" xmlns:sketch="http://www.bohemiancoding.com/sketch/ns">
    <!-- Generator: Sketch 3.3.1 (12005) - http://www.bohemiancoding.com/sketch -->
    <title>Twitter</title>
    <desc>Created with Sketch.</desc>
    <defs></defs>
    <g id="More-Menu" stroke="none" stroke-width="1" fill="none" fill-rule="evenodd" sketch:type="MSPage">
        <g id="About" sketch:type="MSArtboardGroup" transform="translate(-289.000000, -20.000000)" fill="#FFFFFF">
            <path d="M318.879311,20.6096667 C317.689311,21.3046667 316.371311,21.8096667 314.969311,22.0816667 C313.848311,20.9036667 312.248311,20.1666667 310.476311,20.1666667 C307.078311,20.1666667 304.322311,22.8796667 304.322311,26.2266667 C304.322311,26.7016667 304.377311,27.1626667 304.480311,27.6066667 C299.365311,27.3536667 294.830311,24.9416667 291.794311,21.2766667 C291.265311,22.1706667 290.960311,23.2116667 290.960311,24.3226667 C290.960311,26.4246667 292.049311,28.2786667 293.699311,29.3646667 C292.691311,29.3336667 291.741311,29.0616667 290.911311,28.6076667 L290.911311,28.6836667 C290.911311,31.6186667 293.033311,34.0676667 295.849311,34.6256667 C295.332311,34.7636667 294.789311,34.8376667 294.227311,34.8376667 C293.830311,34.8376667 293.445311,34.7996667 293.068311,34.7296667 C293.854311,37.1356667 296.125311,38.8876667 298.818311,38.9366667 C296.711311,40.5616667 294.058311,41.5306667 291.173311,41.5306667 C290.675311,41.5306667 290.186311,41.5016667 289.704311,41.4456667 C292.430311,43.1646667 295.666311,44.1666667 299.141311,44.1666667 C310.463311,44.1666667 316.652311,34.9356667 316.652311,26.9296667 C316.652311,26.6666667 316.648311,26.4046667 316.637311,26.1446667 C317.838311,25.2906667 318.883311,24.2236667 319.707311,23.0076667 C318.604311,23.4906667 317.418311,23.8156667 316.172311,23.9616667 C317.443311,23.2126667 318.418311,22.0256667 318.879311,20.6096667" id="Twitter" sketch:type="MSShapeGroup"></path>
        </g>
    </g>
</svg>