<?xml version="1.0" encoding="UTF-8" standalone="no"?>
<svg width="53px" height="52px" viewBox="0 0 53 52" version="1.1" xmlns="http://www.w3.org/2000/svg" xmlns:xlink="http://www.w3.org/1999/xlink" xmlns:sketch="http://www.bohemiancoding.com/sketch/ns">
    <!-- Generator: Sketch 3.3.2 (12043) - http://www.bohemiancoding.com/sketch -->
    <title>Group-Copy-3</title>
    <desc>Created with Sketch.</desc>
    <defs></defs>
    <g id="Page-1" stroke="none" stroke-width="1" fill="none" fill-rule="evenodd" sketch:type="MSPage">
        <g id="Group-Copy-3" sketch:type="MSLayerGroup" transform="translate(1.000000, 1.000000)">
            <rect id="Rectangle-64" stroke="#FFFFFF" fill="#60A8FD" sketch:type="MSShapeGroup" x="0" y="0" width="50.7873997" height="50.1278231" rx="8"></rect>
            <circle id="Oval-77" fill="#FFFFFF" sketch:type="MSShapeGroup" cx="37.7607615" cy="10.4313878" r="3.2978831"></circle>
            <path d="M25.558594,37.8038175 C32.6619391,37.8038175 38.4203381,32.0454185 38.4203381,24.9420734 C38.4203381,17.8387283 32.6619391,12.0803293 25.558594,12.0803293 C18.4552489,12.0803293 12.6968499,17.8387283 12.6968499,24.9420734 C12.6968499,32.0454185 18.4552489,37.8038175 25.558594,37.8038175 L25.558594,37.8038175 Z M25.558594,34.5059344 C30.8405686,34.5059344 35.122455,30.224048 35.122455,24.9420734 C35.122455,19.6600988 30.8405686,15.3782124 25.558594,15.3782124 C20.2766194,15.3782124 15.994733,19.6600988 15.994733,24.9420734 C15.994733,30.224048 20.2766194,34.5059344 25.558594,34.5059344 L25.558594,34.5059344 Z" id="Oval-75-Copy" stroke="#3E4649" fill="#DEDCDF" sketch:type="MSShapeGroup"></path>
            <circle id="Oval-74" fill="#FFFFFF" sketch:type="MSShapeGroup" cx="25.558594" cy="24.9420734" r="10.2234376"></circle>
        </g>
    </g>
</svg>