<?xml version="1.0" encoding="UTF-8" standalone="no"?><svg width="190" height="143" viewBox="0 0 190 143" xmlns="http://www.w3.org/2000/svg" xmlns:xlink="http://www.w3.org/1999/xlink"><svg viewBox="0 0 47.5 47.5" enable-background="new 0 0 47.5 47.5" width="47.5" height="47.5" id="emoji-faces-1f600" x="47.5"><defs><clipPath id="aa"><path d="M0 38h38V0H0v38z"/></clipPath></defs><g transform="matrix(1.25 0 0 -1.25 0 47.5)"><g><g clip-path="url(#aa)"><g transform="translate(37 19)"><path d="M0 0c0-9.94-8.06-18-18-18S-36-9.94-36 0s8.06 18 18 18S0 9.94 0 0" fill="#ffcc4d"/></g><g transform="translate(19 16)"><path d="M0 0c-3.623 0-6.027.422-9 1-.68.13-2 0-2-2 0-4 4.595-9 11-9 6.404 0 11 5 11 9 0 2-1.32 2.132-2 2C6.027.422 3.623 0 0 0" fill="#664500"/></g><g transform="translate(11 24)"><path d="M0 0s0 2 2 2 2-2 2-2v-2s0-2-2-2-2 2-2 2v2z" fill="#664500"/></g><g transform="translate(23 24)"><path d="M0 0s0 2 2 2 2-2 2-2v-2s0-2-2-2-2 2-2 2v2z" fill="#664500"/></g><g transform="translate(10 15)"><path d="M0 0s3-1 9-1 9 1 9 1-2-4-9-4-9 4-9 4" fill="#fff"/></g></g></g></g></svg><svg viewBox="0 0 47.5 47.5" enable-background="new 0 0 47.5 47.5" width="47.5" height="47.5" id="emoji-faces-1f602" y="95"><defs><clipPath id="ba"><path d="M0 38h38V0H0v38z"/></clipPath></defs><g transform="matrix(1.25 0 0 -1.25 0 47.5)"><g><g clip-path="url(#ba)"><g transform="translate(36 20)"><path d="M0 0c0-9.39-7.61-17-17-17-9.388 0-17 7.61-17 17 0 9.388 7.612 17 17 17C-7.61 17 0 9.388 0 0" fill="#ffcc4d"/></g><g transform="translate(29.457 20.203)"><path d="M0 0c-.06.135-1.5 3.297-4.457 3.297S-8.854.135-8.914 0c-.092-.207-.032-.45.144-.59.175-.143.426-.148.61-.015.013.01 1.263.902 3.703.902 2.426 0 3.674-.88 3.702-.9.088-.067.193-.1.298-.1.11 0 .22.036.31.11.18.14.24.385.147.593" fill="#664500"/></g><g transform="translate(17.457 20.203)"><path d="M0 0c-.06.135-1.5 3.297-4.457 3.297S-8.854.135-8.914 0c-.092-.207-.032-.45.144-.59.176-.143.427-.148.61-.015.013.01 1.262.902 3.703.902 2.426 0 3.674-.88 3.702-.9.088-.067.193-.1.298-.1.11 0 .22.036.31.11.18.14.24.385.147.593" fill="#664500"/></g><g transform="translate(32 22)"><path d="M0 0c-.396 0-.772.238-.93.63-1.777 4.444-6.22 5.38-6.266 5.39-.54.108-.893.635-.784 1.176.108.542.634.89 1.176.784.226-.044 5.556-1.168 7.733-6.608C1.133.86.883.277.37.072.25.022.125 0 0 0" fill="#664500"/></g><g transform="translate(6 22)"><path d="M0 0c-.124 0-.25.023-.37.072-.514.205-.763.787-.558 1.3C1.248 6.812 6.58 7.936 6.804 7.98c.544.107 1.07-.242 1.177-.784.11-.54-.24-1.066-.78-1.176C7.015 5.982 2.693 5.04.93.63.77.237.396 0 0 0" fill="#664500"/></g><g transform="translate(19 16)"><path d="M0 0c-3.623 0-6.027.422-9 1-.68.13-2 0-2-2 0-4 4.595-9 11-9 6.404 0 11 5 11 9 0 2-1.32 2.132-2 2C6.027.422 3.623 0 0 0" fill="#664500"/></g><g transform="translate(10 15)"><path d="M0 0s3-1 9-1 9 1 9 1-2-4-9-4-9 4-9 4" fill="#fff"/></g><g transform="translate(11.847 9.771)"><path d="M0 0c-.68-2.677-3.4-4.295-6.077-3.615-2.676.678-4.295 3.4-3.615 6.076.68 2.678 6.337 8.71 7.307 8.463C-1.417 10.677.68 2.677 0 0" fill="#5dadec"/></g><g transform="translate(26.133 9.771)"><path d="M0 0c.68-2.677 3.4-4.295 6.077-3.615 2.677.678 4.296 3.4 3.616 6.076-.68 2.678-6.338 8.71-7.307 8.463C1.416 10.677-.68 2.677 0 0" fill="#5dadec"/></g></g></g></g></svg><svg viewBox="0 0 47.5 47.5" enable-background="new 0 0 47.5 47.5" width="47.5" height="47.5" id="emoji-faces-1f603" y="47.5"><defs><clipPath id="ca"><path d="M0 38h38V0H0v38z"/></clipPath></defs><g transform="matrix(1.25 0 0 -1.25 0 47.5)"><g><g clip-path="url(#ca)"><g transform="translate(36 20)"><path d="M0 0c0-9.39-7.61-17-17-17-9.388 0-17 7.61-17 17 0 9.388 7.612 17 17 17C-7.61 17 0 9.388 0 0" fill="#ffcc4d"/></g><g transform="translate(15 25.5)"><path d="M0 0c0-2.486-1.12-5.5-2.5-5.5S-5-2.486-5 0c0 2.485 1.12 5.5 2.5 5.5S0 2.485 0 0" fill="#664500"/></g><g transform="translate(28 25.5)"><path d="M0 0c0-2.486-1.12-5.5-2.5-5.5S-5-2.486-5 0c0 2.485 1.12 5.5 2.5 5.5S0 2.485 0 0" fill="#664500"/></g><g transform="translate(19 16)"><path d="M0 0c-3.623 0-6.027.422-9 1-.68.13-2 0-2-2 0-4 4.595-9 11-9 6.404 0 11 5 11 9 0 2-1.32 2.132-2 2C6.027.422 3.623 0 0 0" fill="#664500"/></g><g transform="translate(10 15)"><path d="M0 0s3-1 9-1 9 1 9 1-2-4-9-4-9 4-9 4" fill="#fff"/></g></g></g></g></svg><svg viewBox="0 0 47.5 47.5" enable-background="new 0 0 47.5 47.5" width="47.5" height="47.5" id="emoji-faces-1f604" x="47.5" y="47.5"><defs><clipPath id="da"><path d="M0 38h38V0H0v38z"/></clipPath></defs><g transform="matrix(1.25 0 0 -1.25 0 47.5)"><g><g clip-path="url(#da)"><g transform="translate(36 20)"><path d="M0 0c0-9.39-7.61-17-17-17-9.388 0-17 7.61-17 17 0 9.388 7.612 17 17 17C-7.61 17 0 9.388 0 0" fill="#ffcc4d"/></g><g transform="translate(29.457 20.203)"><path d="M0 0c-.06.135-1.5 3.297-4.457 3.297S-8.854.135-8.914 0c-.092-.207-.032-.45.144-.59.175-.143.426-.148.61-.015.013.01 1.263.902 3.703.902 2.426 0 3.674-.88 3.702-.9.088-.067.193-.1.298-.1.11 0 .22.036.31.11.18.14.24.385.147.593" fill="#664500"/></g><g transform="translate(17.457 20.203)"><path d="M0 0c-.06.135-1.5 3.297-4.457 3.297S-8.854.135-8.914 0c-.092-.207-.032-.45.144-.59.176-.143.427-.148.61-.015.013.01 1.262.902 3.703.902 2.426 0 3.674-.88 3.702-.9.088-.067.193-.1.298-.1.11 0 .22.036.31.11.18.14.24.385.147.593" fill="#664500"/></g><g transform="translate(19 16)"><path d="M0 0c-3.623 0-6.027.422-9 1-.68.13-2 0-2-2 0-4 4.595-9 11-9 6.404 0 11 5 11 9 0 2-1.32 2.132-2 2C6.027.422 3.623 0 0 0" fill="#664500"/></g><g transform="translate(10 15)"><path d="M0 0s3-1 9-1 9 1 9 1-2-4-9-4-9 4-9 4" fill="#fff"/></g></g></g></g></svg><svg viewBox="0 0 47.5 47.5" enable-background="new 0 0 47.5 47.5" width="47.5" height="47.5" id="emoji-faces-1f606" x="95"><defs><clipPath id="ea"><path d="M0 38h38V0H0v38z"/></clipPath></defs><g transform="matrix(1.25 0 0 -1.25 0 47.5)"><g><g clip-path="url(#ea)"><g transform="translate(36 20)"><path d="M0 0c0-9.39-7.61-17-17-17-9.388 0-17 7.61-17 17 0 9.388 7.612 17 17 17C-7.61 17 0 9.388 0 0" fill="#ffcc4d"/></g><g transform="translate(19 16)"><path d="M0 0c-3.623 0-6.027.422-9 1-.68.13-2 0-2-2 0-4 4.595-9 11-9 6.404 0 11 5 11 9 0 2-1.32 2.132-2 2C6.027.422 3.623 0 0 0" fill="#664500"/></g><g transform="translate(10 15)"><path d="M0 0s3-1 9-1 9 1 9 1-2-4-9-4-9 4-9 4" fill="#fff"/></g><g transform="translate(31.6 19.8)"><path d="M0 0c-.114.085-1.93 1.426-4.646 2.344.027.115.046.233.046.356 0 .37-.138.703-.36.964 1.804.52 3.335.536 3.362.536.55.002.998.45.997 1.002-.002.55-.448.998-1 .998-.22 0-5.45-.037-8.707-3.293-.286-.286-.372-.716-.216-1.09.154-.373.52-.617.923-.617 4.59 0 8.364-2.772 8.402-2.8.18-.134.39-.2.597-.2.304 0 .605.14.8.402C.53-.956.44-.33 0 0" fill="#664500"/></g><g transform="translate(16.707 22.707)"><path d="M0 0c-3.255 3.255-8.486 3.293-8.707 3.293-.552 0-1-.447-1-1 0-.55.447-1 1-1 .025 0 1.557-.016 3.36-.536-.22-.26-.36-.595-.36-.964 0-.123.02-.24.047-.356-2.716-.918-4.533-2.26-4.647-2.344-.442-.33-.53-.958-.2-1.4.196-.262.497-.4.8-.4.21 0 .42.065.6.2.037.028 3.787 2.8 8.4 2.8.404 0 .77.244.924.617C.372-.716.287-.286 0 0" fill="#664500"/></g></g></g></g></svg><svg viewBox="0 0 47.5 47.5" enable-background="new 0 0 47.5 47.5" width="47.5" height="47.5" id="emoji-faces-1f607" x="95" y="47.5"><defs><clipPath id="fa"><path d="M0 38h38V0H0v38z"/></clipPath></defs><g transform="matrix(1.25 0 0 -1.25 0 47.5)"><g><g clip-path="url(#fa)"><g transform="translate(36 18)"><path d="M0 0c0-9.39-7.61-17-17-17-9.388 0-17 7.61-17 17 0 9.388 7.612 17 17 17C-7.61 17 0 9.388 0 0" fill="#ffcc4d"/></g><g transform="translate(28.335 13.371)"><path d="M0 0c-.178.16-.444.17-.635.03-.04-.03-3.922-2.9-8.7-2.9-4.766 0-8.662 2.87-8.7 2.9-.19.14-.457.13-.635-.03-.177-.16-.217-.424-.094-.628.13-.215 3.217-5.243 9.43-5.243 6.21 0 9.3 5.027 9.428 5.242C.217-.423.178-.16 0 0" fill="#664500"/></g><g transform="translate(19 29)"><path d="M0 0c-6.627 0-12 .567-12 2.5S-6.627 5 0 5s12-.567 12-2.5S6.627 0 0 0m0 7c-8.836 0-16-1.687-16-5 0-3.313 7.164-5 16-5s16 1.687 16 5c0 3.313-7.164 5-16 5" fill="#5dadec"/></g><g transform="translate(11.375 29.938)"><path d="M0 0c-3.397 1.324-2.5 1.99-.062 3.23C2.246 4.4 4.858 5.06 7.625 5.06c2.893 0 5.616-.722 8-1.997.696-.372 1.433-.885 2.125-1.346" fill="#ffcc4d"/></g><g transform="translate(27 17)"><path d="M0 0c-.42 0-.81.265-.948.684C-1.15 1.284-1.968 3-3 3-4.062 3-4.89 1.173-5.052.684-5.227.16-5.788-.124-6.316.052c-.524.174-.807.74-.632 1.264C-6.823 1.693-5.645 5-3 5S.823 1.693.948 1.316C1.123.792.84.226.316.052.21.017.104 0 0 0" fill="#664500"/></g><g transform="translate(17 17)"><path d="M0 0c-.42 0-.81.265-.95.684C-1.15 1.284-1.965 3-3 3-4.062 3-4.888 1.173-5.05.684-5.227.16-5.79-.124-6.317.052c-.524.174-.808.74-.633 1.264C-6.822 1.693-5.644 5-3 5-.355 5 .823 1.693.95 1.316 1.123.792.84.226.315.052.21.017.104 0 0 0" fill="#664500"/></g></g></g></g></svg><svg viewBox="0 0 47.5 47.5" enable-background="new 0 0 47.5 47.5" width="47.5" height="47.5" id="emoji-faces-1f608"><defs><clipPath id="ga"><path d="M0 38h38V0H0v38z"/></clipPath></defs><g transform="matrix(1.25 0 0 -1.25 0 47.5)"><g><g clip-path="url(#ga)"><g transform="translate(37 35)"><path d="M0 0c0 .81-.487 1.538-1.234 1.848-.75.31-1.608.14-2.18-.434C-4.3.528-7.41-2-10-2h-.004C-12.388-.727-15.108 0-18 0c-2.892 0-5.612-.727-7.996-2H-26c-2.58 0-5.63 2.466-6.586 3.414-.57.572-1.433.744-2.18.434C-35.512 1.538-36 .808-36 0c0-2.384.795-6.23 3.36-8.39C-34.13-10.92-35-13.855-35-17c0-9.39 7.612-17 17-17 9.39 0 17 7.61 17 17 0 3.146-.87 6.082-2.36 8.61C-.794-6.23 0-2.385 0 0" fill="#aa8ed6"/></g><g transform="translate(28.335 11.371)"><path d="M0 0c-.178.16-.444.17-.635.03-.04-.03-3.922-2.9-8.7-2.9-4.766 0-8.662 2.87-8.7 2.9-.19.14-.457.13-.635-.03-.177-.16-.217-.424-.094-.628.13-.215 3.217-5.243 9.43-5.243 6.21 0 9.3 5.027 9.428 5.242C.217-.423.178-.16 0 0" fill="#553986"/></g><g transform="translate(16.707 18.707)"><path d="M0 0c-3.255 3.255-8.486 3.293-8.707 3.293-.552 0-1-.447-1-1 0-.55.447-1 1-1 .028 0 1.924-.022 3.982-.737-.593-.64-.982-1.634-.982-2.763 0-1.934 1.12-3.5 2.5-3.5s2.5 1.566 2.5 3.5c0 .174-.02.34-.037.507.013 0 .025-.007.037-.007.256 0 .512.098.707.293C.39-1.024.39-.39 0 0" fill="#553986"/></g><g transform="translate(30 22)"><path d="M0 0c-.22 0-5.45-.038-8.707-3.293-.39-.39-.39-1.023 0-1.414C-8.512-4.902-8.257-5-8-5c.013 0 .024.007.036.007C-7.98-5.16-8-5.326-8-5.5-8-7.434-6.88-9-5.5-9S-3-7.434-3-5.5c0 1.13-.39 2.123-.982 2.763C-1.924-2.022-.028-2 .002-2 .552-2 1-1.55 1-1 .997-.446.55 0 0 0" fill="#553986"/></g></g></g></g></svg><svg viewBox="0 0 47.5 47.5" enable-background="new 0 0 47.5 47.5" width="47.5" height="47.5" id="emoji-faces-1f60a" x="47.5" y="95"><defs><clipPath id="ha"><path d="M0 38h38V0H0v38z"/></clipPath></defs><g transform="matrix(1.25 0 0 -1.25 0 47.5)"><g><g clip-path="url(#ha)"><g transform="translate(37 19)"><path d="M0 0c0-9.94-8.06-18-18-18S-36-9.94-36 0s8.06 18 18 18S0 9.94 0 0" fill="#ffcc4d"/></g><g transform="translate(13 19)"><path d="M0 0c0-2.762-2.24-5-5-5s-5 2.238-5 5c0 2.76 2.24 5 5 5s5-2.24 5-5" fill="#ff7892"/></g><g transform="translate(35 19)"><path d="M0 0c0-2.762-2.238-5-5-5s-5 2.238-5 5c0 2.76 2.238 5 5 5s5-2.24 5-5" fill="#ff7892"/></g><g transform="translate(28.335 15.371)"><path d="M0 0c-.178.16-.444.17-.635.03-.04-.03-3.922-2.9-8.7-2.9-4.766 0-8.662 2.87-8.7 2.9-.19.14-.457.13-.635-.03-.177-.16-.217-.424-.094-.628.13-.215 3.217-5.243 9.43-5.243 6.21 0 9.3 5.027 9.428 5.242C.217-.423.178-.16 0 0" fill="#664500"/></g><g transform="translate(8.999 22)"><path d="M0 0c-.15 0-.303.034-.446.105-.494.248-.695.85-.448 1.342C-.84 1.552.426 4 4 4 7.58 4 8.844 1.55 8.897 1.447 9.143.953 8.942.353 8.448.105 7.958-.14 7.363.057 7.112.542 7.07.622 6.282 2 4.002 2 1.683 2 .9.567.895.553.72.203.366 0 0 0" fill="#664500"/></g><g transform="translate(29.001 22)"><path d="M0 0c-.367 0-.72.202-.896.553C-.92.6-1.702 2-4 2-6.3 2-7.08.6-7.114.54c-.26-.48-.86-.67-1.345-.42-.485.252-.682.838-.438 1.327C-8.844 1.55-7.578 4-4 4-.425 4 .84 1.55.893 1.447 1.14.953.94.353.446.105.303.035.15 0 0 0" fill="#664500"/></g></g></g></g></svg><svg viewBox="0 0 47.5 47.5" enable-background="new 0 0 47.5 47.5" width="47.5" height="47.5" id="emoji-faces-1f60b" x="95" y="95"><defs><clipPath id="ia"><path d="M0 38h38V0H0v38z"/></clipPath></defs><g transform="matrix(1.25 0 0 -1.25 0 47.5)"><g><g clip-path="url(#ia)"><g transform="translate(37 19)"><path d="M0 0c0-9.94-8.06-18-18-18S-36-9.94-36 0s8.06 18 18 18S0 9.94 0 0" fill="#ffcc4d"/></g><g transform="translate(22 8)"><path d="M0 0l5-5c1.728-1.728 5-2 7 0s1.903 4.962.175 6.69L8 6C5 1 0 0 0 0" fill="#e75a70"/></g><g transform="translate(19 6)"><path d="M0 0c-6.46 0-8.738 3.305-8.832 3.445-.306.46-.182 1.08.277 1.387.457.305 1.073.184 1.382-.27C-7.088 4.443-5.293 2 0 2c8.08 0 9.955 6.95 10.03 7.245.138.534.68.86 1.215.723.534-.135.86-.676.725-1.21C11.948 8.67 9.67 0 0 0" fill="#664500"/></g><g transform="translate(7.999 20)"><path d="M0 0c-.15 0-.303.034-.446.105-.494.248-.695.85-.448 1.342C-.84 1.552.426 4 4 4c3.58 0 4.843-2.45 4.896-2.553.247-.494.046-1.094-.448-1.342-.49-.246-1.085-.048-1.336.437C7.068.622 6.282 2 4.002 2 1.683 2 .9.567.895.553.72.203.366 0 0 0" fill="#664500"/></g><g transform="translate(23 20)"><path d="M0 0c-.404 0-.786.248-.937.65-.193.517.07 1.093.585 1.287l8 3c.518.19 1.095-.068 1.29-.585.192-.518-.07-1.094-.586-1.288l-8-3C.235.02.117 0 0 0" fill="#664500"/></g></g></g></g></svg><svg viewBox="0 0 47.5 47.5" enable-background="new 0 0 47.5 47.5" width="47.5" height="47.5" id="emoji-faces-1f60c" x="142.5"><defs><clipPath id="ja"><path d="M0 38h38V0H0v38z"/></clipPath></defs><g transform="matrix(1.25 0 0 -1.25 0 47.5)"><g><g clip-path="url(#ja)"><g transform="translate(37 19)"><path d="M0 0c0-9.94-8.06-18-18-18S-36-9.94-36 0s8.06 18 18 18S0 9.94 0 0" fill="#ffcc4d"/></g><g transform="translate(29.313 21.388)"><path d="M0 0c-.175.142-.426.147-.61.014-.012-.01-1.26-.902-3.702-.902-2.44 0-3.69.892-3.7.9-.183.137-.435.133-.612-.01-.178-.14-.238-.385-.146-.593.06-.136 1.5-3.298 4.458-3.298S.085-.726.145-.59C.235-.385.177-.143 0 0" fill="#664500"/></g><g transform="translate(16.702 21.402)"><path d="M0 0c-.012-.01-1.26-.902-3.702-.902-2.44 0-3.69.893-3.7.9-.183.137-.434.133-.612-.01-.178-.14-.237-.385-.145-.593.06-.135 1.5-3.297 4.458-3.297S.695-.74.755-.605c.092.207.032.45-.145.59C.434.13.182.134 0 0" fill="#664500"/></g><g transform="translate(30.001 24)"><path d="M0 0c-.305 0-.604.138-.8.4-2.593 3.456-6.962 2.628-7.005 2.62-.547-.108-1.068.243-1.176.784-.11.54.242 1.068.783 1.176.23.048 5.657 1.072 8.996-3.38.33-.442.24-1.07-.2-1.4C.42.065.21 0 0 0" fill="#664500"/></g><g transform="translate(7.999 24)"><path d="M0 0c-.208 0-.42.065-.6.2-.44.33-.53.958-.2 1.4 3.34 4.454 8.767 3.426 8.997 3.38.542-.108.893-.635.784-1.176-.107-.54-.633-.89-1.172-.785C7.62 3.052 3.37 3.825.8.4.605.138.305 0 0 0" fill="#664500"/></g><g transform="translate(24.254 13.423)"><path d="M0 0c-.187.11-.432.086-.597-.06-.01-.007-1.013-.863-4.657-.863-3.64 0-4.645.854-4.646.854-.16.16-.405.19-.6.083-.196-.112-.293-.34-.24-.557.012-.044 1.146-4.38 5.486-4.38S.22-.587.23-.543C.285-.33.188-.114 0 0" fill="#664500"/></g></g></g></g></svg><svg viewBox="0 0 47.5 47.5" enable-background="new 0 0 47.5 47.5" width="47.5" height="47.5" id="emoji-faces-1f60e" x="142.5" y="47.5"><defs><clipPath id="ka"><path d="M0 38h38V0H0v38z"/></clipPath></defs><g transform="matrix(1.25 0 0 -1.25 0 47.5)"><g><g clip-path="url(#ka)"><g transform="translate(37 19)"><path d="M0 0c0-9.94-8.06-18-18-18S-36-9.94-36 0s8.06 18 18 18S0 9.94 0 0" fill="#ffcc4d"/></g><g transform="translate(2.24 25.982)"><path d="M0 0c.24-.24 1.437-.958 1.677-1.675.24-.717.72-4.784 2.158-5.98 1.484-1.234 7.077-.775 8.15-.24 2.396 1.194 2.69 4.53 3.114 6.22.238.957 1.676.957 1.676.957s1.44 0 1.678-.956c.424-1.69.72-5.027 3.115-6.22 1.072-.536 6.665-.995 8.15.238 1.436 1.197 1.916 5.264 2.156 5.982.238.717 1.437 1.435 1.677 1.674.24.24.24 1.196 0 1.436-.48.478-6.134.904-12.223.24-1.215-.134-1.677-.48-4.554-.48-2.875 0-3.338.346-4.553.478C6.136 2.34.48 1.914 0 1.436-.24 1.196-.24.24 0 0" fill="#292f33" fill-rule="evenodd"/></g><g transform="translate(28.335 13.371)"><path d="M0 0c-.178.16-.444.17-.635.03-.04-.03-3.922-2.9-8.7-2.9-4.766 0-8.662 2.87-8.7 2.9-.19.14-.457.13-.635-.03-.177-.16-.217-.424-.094-.628.13-.215 3.217-5.243 9.43-5.243 6.21 0 9.3 5.027 9.428 5.242C.217-.423.178-.16 0 0" fill="#664500"/></g></g></g></g></svg><svg viewBox="0 0 47.5 47.5" enable-background="new 0 0 47.5 47.5" width="47.5" height="47.5" id="emoji-faces-1f60f" x="142.5" y="95"><defs><clipPath id="la"><path d="M0 38h38V0H0v38z"/></clipPath></defs><g transform="matrix(1.25 0 0 -1.25 0 47.5)"><g><g clip-path="url(#la)"><g transform="translate(37 19)"><path d="M0 0c0-9.94-8.06-18-18-18S-36-9.94-36 0s8.06 18 18 18S0 9.94 0 0" fill="#ffcc4d"/></g><g transform="translate(25.327 13.378)"><path d="M0 0c-.153.132-.368.16-.55.07l-4-2c-1.872-.936-6.728-.948-6.777-.948-.277 0-.5-.224-.5-.5 0-.185.1-.347.25-.433v-.002h.002c.07-.04.153-.064.24-.066h7.008c2.658 0 4.09 2.186 4.474 3.342C.21-.344.153-.133 0 0" fill="#664500"/></g><g transform="translate(32.001 21)"><path d="M0 0c-.305 0-.604.138-.8.4C-3.44 3.92-6.863 4-7.008 4c-.55.006-.994.456-.99 1.005.002.55.446.995.996.995.183 0 4.536-.05 7.8-4.4.33-.442.24-1.07-.2-1.4C.42.065.21 0 0 0" fill="#664500"/></g><g transform="translate(5.999 21)"><path d="M0 0c-.208 0-.42.065-.6.2-.44.33-.53.958-.2 1.4C2.464 5.95 6.818 6 7 6c.553 0 1-.448 1-1 0-.55-.444-.998-.995-1C6.85 3.998 3.437 3.914.8.4.605.138.305 0 0 0" fill="#664500"/></g><g transform="translate(16.897 19.604)"><path d="M0 0c.023.052.06.096.073.154.134.536-.192 1.08-.727 1.213-.18.045-4.468 1.08-7.798-1.138-.46-.308-.583-.93-.277-1.388.194-.29.51-.446.834-.446.19 0 .383.055.554.168 1.092.73 2.362.995 3.468 1.06-.01-.075-.023-.15-.023-.228 0-1.104.896-2 2-2 1.105 0 2 .896 2 2C.103-.392.06-.19 0 0" fill="#664500"/></g><g transform="translate(28.896 19.605)"><path d="M0 0c.023.052.06.095.073.152.135.536-.19 1.08-.727 1.213-.18.045-4.466 1.08-7.797-1.138-.46-.306-.585-.927-.28-1.387.194-.29.51-.445.834-.445.19 0 .383.055.554.168 1.092.73 2.362.994 3.47 1.06-.01-.076-.024-.15-.024-.228 0-1.104.895-2 2-2 1.104 0 2 .896 2 2C.104-.393.062-.192 0 0" fill="#664500"/></g></g></g></g></svg></svg>