<?xml version="1.0" encoding="UTF-8" standalone="no"?>
<svg width="24px" height="26px" viewBox="0 0 24 26" version="1.1" xmlns="http://www.w3.org/2000/svg" xmlns:xlink="http://www.w3.org/1999/xlink" xmlns:sketch="http://www.bohemiancoding.com/sketch/ns">
    <!-- Generator: Sketch 3.3.1 (12005) - http://www.bohemiancoding.com/sketch -->
    <title>Action</title>
    <desc>Created with Sketch.</desc>
    <defs></defs>
    <g id="Kricket" stroke="none" stroke-width="1" fill="none" fill-rule="evenodd" sketch:type="MSPage">
        <g id="(T)-Emoji-1" sketch:type="MSArtboardGroup" transform="translate(-213.000000, -618.000000)" fill="#C6CACF">
            <g id="Action" sketch:type="MSLayerGroup" transform="translate(213.000000, 618.000000)">
                <path d="M16.3478074,13.095364 L23.8369861,13.095364 L23.8369861,10.0141019 L17.8456431,9.80012536 L16.3906027,6.5048867 L15.9626496,6.20531955 C16.3906027,6.4620914 16.9041464,6.59047732 17.4604854,6.59047732 C19.215093,6.59047732 20.6273381,5.17823218 20.6273381,3.42362458 C20.6273381,1.66901698 19.215093,0.256771844 17.4604854,0.256771844 C15.7058778,0.256771844 14.2936326,1.66901698 14.2936326,3.42362458 C14.2936326,4.36512134 14.7215857,5.22102748 15.4063106,5.82016179 L13.7800889,4.7074838 L8.17390369,4.7074838 L4.02275888,9.02980983 L6.24811486,10.3992597 L9.11540044,7.61756469 L10.4848503,7.74595061 L7.57476938,13.0097734 L7.01843039,15.8342637 L0.171181229,15.8342637 L0.171181229,18.8727305 L8.81583329,18.8727305 L11.1695752,16.2194214 L13.7372936,17.5032807 L10.2280784,23.5802143 L13.3093406,25.3348219 L17.8884384,17.1181229 L13.7800889,13.4377265 L15.1495388,11.1267799 L16.3478074,13.095364 L16.3478074,13.095364 Z M17.4604854,1.58342637 C18.4875727,1.58342637 19.3434789,2.43933251 19.3434789,3.46641989 C19.3434789,4.49350726 18.4875727,5.34941341 17.4604854,5.34941341 C16.433398,5.34941341 15.5774918,4.49350726 15.5774918,3.46641989 C15.5774918,2.43933251 16.433398,1.58342637 17.4604854,1.58342637 L17.4604854,1.58342637 Z M12.1538673,13.6944983 L16.2622168,17.3748947 L12.7957969,23.5802143 L11.9398907,23.1094659 L15.4919012,16.9469417 L10.8272127,14.5931998 L8.17390369,17.546076 L1.41224514,17.546076 L1.41224514,17.1181229 L8.04551776,17.1181229 L8.77303799,13.4377265 L12.539025,6.59047732 L8.60185676,6.29091017 L6.03413832,8.77303799 L8.68744737,5.99134302 L13.3521359,5.99134302 L15.32072,7.36079285 L16.9469417,11.0411893 L22.5103316,11.2551658 L22.5103316,11.8115048 L17.0753276,11.8115048 L15.1067435,8.64465206 L12.1538673,13.6944983 L12.1538673,13.6944983 Z" id="Shape" sketch:type="MSShapeGroup"></path>
            </g>
        </g>
    </g>
</svg>