<?xml version="1.0" encoding="UTF-8" standalone="no"?>
<svg width="84px" height="83px" viewBox="0 0 84 83" version="1.1" xmlns="http://www.w3.org/2000/svg" xmlns:xlink="http://www.w3.org/1999/xlink" xmlns:sketch="http://www.bohemiancoding.com/sketch/ns">
    <!-- Generator: Sketch 3.3.1 (12005) - http://www.bohemiancoding.com/sketch -->
    <title>atmoCelebration</title>
    <desc>Created with Sketch.</desc>
    <defs>
        <filter x="-50%" y="-50%" width="200%" height="200%" filterUnits="objectBoundingBox" id="filter-1">
            <feOffset dx="0" dy="2" in="SourceAlpha" result="shadowOffsetOuter1"></feOffset>
            <feGaussianBlur stdDeviation="2" in="shadowOffsetOuter1" result="shadowBlurOuter1"></feGaussianBlur>
            <feColorMatrix values="0 0 0 0 0   0 0 0 0 0   0 0 0 0 0  0 0 0 0.35 0" in="shadowBlurOuter1" type="matrix" result="shadowMatrixOuter1"></feColorMatrix>
            <feMerge>
                <feMergeNode in="shadowMatrixOuter1"></feMergeNode>
                <feMergeNode in="SourceGraphic"></feMergeNode>
            </feMerge>
        </filter>
    </defs>
    <g id="Branding-Board" stroke="none" stroke-width="1" fill="none" fill-rule="evenodd" sketch:type="MSPage">
        <g id="Artboard-1" sketch:type="MSArtboardGroup" transform="translate(-709.000000, -2642.000000)">
            <g id="atmoCelebration" sketch:type="MSLayerGroup" transform="translate(713.500000, 2644.000000)">
                <path d="M37.5,75 C58.2106781,75 75,58.2106781 75,37.5 C75,16.7893219 58.2106781,0 37.5,0 C16.7893219,0 0,16.7893219 0,37.5 C0,58.2106781 16.7893219,75 37.5,75 Z" id="btn_x-copy-5" fill="#FFFFFF" filter="url(#filter-1)" sketch:type="MSShapeGroup"></path>
                <g transform="translate(23.000000, 9.000000)" id="Group" sketch:type="MSShapeGroup">
                    <g>
                        <path d="M28.3125,56.05 C27.65625,56.05 27,55.575 26.8125,54.815 C26.71875,54.625 25.40625,49.4 20.15625,48.07 C12.84375,46.17 12.75,35.91 12.75,35.53 C12.75,34.675 13.40625,33.915 14.34375,33.915 C15.1875,34.01 15.9375,34.58 15.9375,35.53 C15.9375,35.625 16.03125,43.795 21,45.03 C28.03125,46.835 29.8125,53.77 29.90625,54.055 C30.09375,54.91 29.625,55.765 28.78125,55.955 C28.5,56.05 28.40625,56.05 28.3125,56.05" id="path24_24_" fill="#353535"></path>
                        <path d="M12.65625,40.09 C10.96875,40.09 10.125,38.855 10.96875,37.24 L12.84375,33.44 C13.59375,31.92 14.90625,31.92 15.65625,33.44 L17.53125,37.24 C18.28125,38.76 17.53125,40.09 15.84375,40.09 L12.65625,40.09 L12.65625,40.09 Z" id="path28_18_" stroke="#353535" stroke-width="0.4838"></path>
                        <path d="M28.3125,14.82 C28.3125,24.32 17.4375,33.725 14.34375,33.725 C11.25,33.725 0.375,24.225 0.375,14.82 C0.375,5.7 7.5,0.665 14.34375,0.665 C21.1875,0.665 28.3125,5.7 28.3125,14.82" id="path32_12_" stroke="#353535" stroke-width="0.4838"></path>
                        <path d="M15.84375,35.34 L12.75,35.34 C11.90625,35.34 11.15625,34.675 11.15625,33.725 C11.15625,32.87 11.8125,32.11 12.75,32.11 L15.84375,32.11 C16.6875,32.11 17.4375,32.775 17.4375,33.725 C17.34375,34.58 16.6875,35.34 15.84375,35.34" id="path36_8_" fill="#353535"></path>
                    </g>
                </g>
            </g>
        </g>
    </g>
</svg>