<?xml version="1.0" encoding="UTF-8" standalone="no"?>
<svg width="84px" height="83px" viewBox="0 0 84 83" version="1.1" xmlns="http://www.w3.org/2000/svg" xmlns:xlink="http://www.w3.org/1999/xlink" xmlns:sketch="http://www.bohemiancoding.com/sketch/ns">
    <!-- Generator: Sketch 3.3.1 (12005) - http://www.bohemiancoding.com/sketch -->
    <title>atmoFood</title>
    <desc>Created with Sketch.</desc>
    <defs>
        <filter x="-50%" y="-50%" width="200%" height="200%" filterUnits="objectBoundingBox" id="filter-1">
            <feOffset dx="0" dy="2" in="SourceAlpha" result="shadowOffsetOuter1"></feOffset>
            <feGaussianBlur stdDeviation="2" in="shadowOffsetOuter1" result="shadowBlurOuter1"></feGaussianBlur>
            <feColorMatrix values="0 0 0 0 0   0 0 0 0 0   0 0 0 0 0  0 0 0 0.35 0" in="shadowBlurOuter1" type="matrix" result="shadowMatrixOuter1"></feColorMatrix>
            <feMerge>
                <feMergeNode in="shadowMatrixOuter1"></feMergeNode>
                <feMergeNode in="SourceGraphic"></feMergeNode>
            </feMerge>
        </filter>
    </defs>
    <g id="Branding-Board" stroke="none" stroke-width="1" fill="none" fill-rule="evenodd" sketch:type="MSPage">
        <g id="Artboard-1" sketch:type="MSArtboardGroup" transform="translate(-454.000000, -2642.000000)">
            <g id="atmoFood" sketch:type="MSLayerGroup" transform="translate(458.500000, 2644.000000)">
                <path d="M37.5,75 C58.2106781,75 75,58.2106781 75,37.5 C75,16.7893219 58.2106781,0 37.5,0 C16.7893219,0 0,16.7893219 0,37.5 C0,58.2106781 16.7893219,75 37.5,75 Z" id="btn_x-copy-7" fill="#FFFFFF" filter="url(#filter-1)" sketch:type="MSShapeGroup"></path>
                <g transform="translate(19.000000, 15.000000)" id="Group" sketch:type="MSShapeGroup">
                    <g>
                        <path d="M26.522449,8.81016949 C22.722449,8.81016949 22.722449,10.0576271 19,10.0576271 C15.277551,10.0576271 15.2,8.81016949 11.477551,8.81016949 C6.43673469,8.81016949 0.155102041,11.3050847 0.155102041,20.1932203 C0.155102041,34.0711864 7.67755102,45.4542373 12.7183673,45.4542373 C16.5183673,45.4542373 16.5183673,44.2067797 19,44.2067797 C21.4816327,44.2067797 21.4816327,45.4542373 25.2816327,45.4542373 C30.322449,45.4542373 37.844898,34.0711864 37.844898,20.1932203 C37.844898,11.3830508 31.5632653,8.81016949 26.522449,8.81016949" id="path24_26_" stroke="#353535" stroke-width="0.9563"></path>
                        <path d="M20.0857143,11.5389831 C20.0857143,11.5389831 22.877551,5.84745763 29.0040816,4.6779661 C33.9673469,3.74237288 36.9142857,5.76949153 36.9142857,5.76949153 C36.9142857,5.76949153 32.6489796,10.4474576 29.0040816,11.1491525 C25.3591837,11.8508475 20.0857143,11.5389831 20.0857143,11.5389831" id="path28_20_" fill="#353535"></path>
                        <path d="M19,12.6305085 C18.3020408,12.6305085 17.7591837,12.0847458 17.7591837,11.3830508 C17.7591837,7.01694915 19.2326531,3.04067797 21.8693878,0.389830508 C22.3346939,-0.0779661017 23.1877551,-0.0779661017 23.6530612,0.389830508 C24.1183673,0.857627119 24.1183673,1.71525424 23.6530612,2.18305085 C21.4816327,4.36610169 20.2408163,7.71864407 20.2408163,11.3830508 C20.2408163,12.0847458 19.6979592,12.6305085 19,12.6305085" id="path32_14_" fill="#353535"></path>
                    </g>
                </g>
            </g>
        </g>
    </g>
</svg>