<?xml version="1.0" encoding="UTF-8" standalone="no"?>
<svg width="83px" height="83px" viewBox="0 0 83 83" version="1.1" xmlns="http://www.w3.org/2000/svg" xmlns:xlink="http://www.w3.org/1999/xlink" xmlns:sketch="http://www.bohemiancoding.com/sketch/ns">
    <!-- Generator: Sketch 3.3.1 (12005) - http://www.bohemiancoding.com/sketch -->
    <title>atmoTrending</title>
    <desc>Created with Sketch.</desc>
    <defs>
        <filter x="-50%" y="-50%" width="200%" height="200%" filterUnits="objectBoundingBox" id="filter-1">
            <feOffset dx="0" dy="2" in="SourceAlpha" result="shadowOffsetOuter1"></feOffset>
            <feGaussianBlur stdDeviation="2" in="shadowOffsetOuter1" result="shadowBlurOuter1"></feGaussianBlur>
            <feColorMatrix values="0 0 0 0 0   0 0 0 0 0   0 0 0 0 0  0 0 0 0.35 0" in="shadowBlurOuter1" type="matrix" result="shadowMatrixOuter1"></feColorMatrix>
            <feMerge>
                <feMergeNode in="shadowMatrixOuter1"></feMergeNode>
                <feMergeNode in="SourceGraphic"></feMergeNode>
            </feMerge>
        </filter>
    </defs>
    <g id="Branding-Board" stroke="none" stroke-width="1" fill="none" fill-rule="evenodd" sketch:type="MSPage">
        <g id="Artboard-1" sketch:type="MSArtboardGroup" transform="translate(-892.000000, -2642.000000)">
            <g id="atmoTrending" sketch:type="MSLayerGroup" transform="translate(896.000000, 2644.000000)">
                <g transform="translate(0.009264, 0.000000)" id="atmoActivity" filter="url(#filter-1)" fill="#FFFFFF" sketch:type="MSShapeGroup">
                    <g>
                        <path d="M37.5,75 C58.2106781,75 75,58.2106781 75,37.5 C75,16.7893219 58.2106781,0 37.5,0 C16.7893219,0 0,16.7893219 0,37.5 C0,58.2106781 16.7893219,75 37.5,75 Z" id="btn_x-copy-3"></path>
                    </g>
                </g>
                <path d="M56.5975741,33.7277183 L47.9288981,33.7277183 L46.3788699,40.2722817 L53.78456,40.2722817 L53.78456,47.1038873 L44.7140248,47.1038873 L42.2454614,57.38 L34.8971798,57.38 L37.4231516,47.1038873 L32.1415741,47.1038873 L29.6730107,57.38 L22.3247291,57.38 L24.8507009,47.1038873 L18.4209544,47.1038873 L18.4209544,40.2722817 L26.515546,40.2722817 L28.0655741,33.7277183 L21.2339685,33.7277183 L21.2339685,27.4127887 L29.6156023,27.4127887 L32.256391,16.62 L39.6046727,16.62 L36.9064755,27.4127887 L42.188053,27.4127887 L44.8288417,16.62 L52.1771234,16.62 L49.4789262,27.4127887 L56.5975741,27.4127887 L56.5975741,33.7277183 Z M39.0879967,40.2722817 L40.5806164,33.7277183 L35.3564474,33.7277183 L33.8064192,40.2722817 L39.0879967,40.2722817 Z" id="#" fill="#353535" sketch:type="MSShapeGroup"></path>
            </g>
        </g>
    </g>
</svg>