<?xml version="1.0" encoding="UTF-8" standalone="no"?>
<svg width="83px" height="83px" viewBox="0 0 83 83" version="1.1" xmlns="http://www.w3.org/2000/svg" xmlns:xlink="http://www.w3.org/1999/xlink" xmlns:sketch="http://www.bohemiancoding.com/sketch/ns">
    <!-- Generator: Sketch 3.3.2 (12043) - http://www.bohemiancoding.com/sketch -->
    <title>atmoNature</title>
    <desc>Created with Sketch.</desc>
    <defs>
        <filter x="-50%" y="-50%" width="200%" height="200%" filterUnits="objectBoundingBox" id="filter-1">
            <feOffset dx="0" dy="2" in="SourceAlpha" result="shadowOffsetOuter1"></feOffset>
            <feGaussianBlur stdDeviation="2" in="shadowOffsetOuter1" result="shadowBlurOuter1"></feGaussianBlur>
            <feColorMatrix values="0 0 0 0 0   0 0 0 0 0   0 0 0 0 0  0 0 0 0.35 0" in="shadowBlurOuter1" type="matrix" result="shadowMatrixOuter1"></feColorMatrix>
            <feMerge>
                <feMergeNode in="shadowMatrixOuter1"></feMergeNode>
                <feMergeNode in="SourceGraphic"></feMergeNode>
            </feMerge>
        </filter>
    </defs>
    <g id="Branding-Board" stroke="none" stroke-width="1" fill="none" fill-rule="evenodd" sketch:type="MSPage">
        <g id="atmoNature" sketch:type="MSLayerGroup" transform="translate(4.000000, 2.000000)">
            <circle id="btn_x-copy-4" fill="#FFFFFF" filter="url(#filter-1)" sketch:type="MSShapeGroup" cx="37.5" cy="37.5" r="37.5"></circle>
            <g id="path24_25_-+-path28_19_-+-path32_13_" transform="translate(13.000000, 12.000000)" sketch:type="MSShapeGroup">
                <path d="M47.3684211,20.1830508 C46.2280702,8.72542373 39.5614035,3.8779661 28.4210526,3.8779661 C27.8947368,3.8779661 27.3684211,3.8779661 26.8421053,3.96610169 C26.8421053,3.96610169 26.8421053,3.96610169 26.754386,3.8779661 C20.4385965,-1.58644068 6.05263158,0.176271186 2.80701754,5.72881356 C-1.66666667,13.3084746 1.22807018,40.4542373 2.80701754,44.1559322 C4.38596491,47.8576271 9.21052632,49.620339 10.7894737,47.8576271 C12.3684211,46.0067797 10.7894737,46.0067797 9.21052632,42.3932203 C8.07017544,39.7491525 8.59649123,33.2271186 9.56140351,29.1728814 C9.56140351,29.4372881 9.64912281,29.7016949 9.73684211,29.9661017 C10.2631579,34.4610169 12.4561404,41.5118644 12.4561404,45.1254237 C12.4561404,50.6779661 15.3508772,51.559322 18.8596491,51.559322 C22.3684211,51.559322 25.2631579,50.6779661 25.2631579,45.1254237 L25.2631579,44.0677966 C26.3157895,44.1559322 27.3684211,44.2440678 28.5087719,44.2440678 C29.2105263,44.2440678 29.8245614,44.2440678 30.4385965,44.1559322 L30.4385965,45.1254237 C30.4385965,50.6779661 33.3333333,51.559322 36.8421053,51.559322 C40.3508772,51.559322 43.245614,50.6779661 43.245614,45.1254237 C43.245614,42.3050847 44.9122807,37.8983051 46.0526316,34.2847458 C46.2280702,33.7559322 46.4912281,33.1389831 46.6666667,32.5220339 C46.8421053,34.5491525 46.9298246,36.7525424 46.9298246,39.0440678 C46.9298246,39.9254237 47.5438596,40.6305085 48.3333333,40.6305085 C49.122807,40.6305085 49.7368421,39.9254237 49.7368421,39.0440678 C49.4736842,30.9355932 48.4210526,24.5016949 47.3684211,20.1830508" id="path24_25_" stroke="#353535" stroke-width="0.9766"></path>
                <path d="M26.8421053,3.8779661 C26.8421053,3.8779661 31.8421053,12.4271186 27.7192982,20.2711864 C23.5964912,28.1152542 17.0175439,28.0271186 12.7192982,28.0271186 C10,28.0271186 11.3157895,31.1118644 12.7192982,31.1118644 C14.6491228,31.1118644 24.122807,32.9627119 29.0350877,21.7694915 C33.1578947,12.4271186 26.8421053,3.8779661 26.8421053,3.8779661" id="path28_19_" fill="#353535"></path>
                <path d="M11.4035088,17.8915254 C11.4035088,19.2135593 10.5263158,20.2711864 9.38596491,20.2711864 C8.24561404,20.2711864 7.36842105,19.2135593 7.36842105,17.8915254 C7.36842105,16.5694915 8.24561404,15.5118644 9.38596491,15.5118644 C10.5263158,15.5118644 11.4035088,16.6576271 11.4035088,17.8915254" id="path32_13_" fill="#353535"></path>
            </g>
        </g>
    </g>
</svg>