<?xml version="1.0" encoding="utf-8"?>
<!-- Generator: Adobe Illustrator 18.1.1, SVG Export Plug-In . SVG Version: 6.00 Build 0)  -->
<!DOCTYPE svg PUBLIC "-//W3C//DTD SVG 1.1//EN" "http://www.w3.org/Graphics/SVG/1.1/DTD/svg11.dtd">
<svg version="1.1" id="Layer_1" xmlns="http://www.w3.org/2000/svg" xmlns:xlink="http://www.w3.org/1999/xlink" x="0px" y="0px"
	 viewBox="0 0 59 59" enable-background="new 0 0 59 59" xml:space="preserve">
<g>
	<rect x="12.4" y="0.5" fill="none" stroke="#DEDCDF" stroke-width="0.5176" stroke-miterlimit="10" width="35.7" height="58.2"/>
	<rect x="20.5" y="9.7" fill="#DEDCDF" width="3.8" height="3.8"/>
	<rect x="27.7" y="9.7" fill="#DEDCDF" width="4" height="3.9"/>
	<rect x="20.6" y="16.4" fill="#DEDCDF" width="3.8" height="3.8"/>
	<rect x="27.8" y="16.4" fill="#DEDCDF" width="4" height="3.9"/>
	<rect x="20.6" y="23.4" fill="#DEDCDF" width="3.8" height="3.8"/>
	<rect x="27.8" y="23.4" fill="#DEDCDF" width="4" height="3.9"/>
	<rect x="35" y="9.4" fill="#DEDCDF" width="4" height="3.9"/>
	<rect x="35.2" y="16.1" fill="#DEDCDF" width="4" height="3.9"/>
	<rect x="35.2" y="23.1" fill="#DEDCDF" width="4" height="3.9"/>
	<rect x="20.5" y="30.5" fill="#DEDCDF" width="3.8" height="3.8"/>
	<rect x="27.7" y="30.5" fill="#DEDCDF" width="4" height="3.9"/>
	<rect x="20.7" y="37.3" fill="#DEDCDF" width="3.8" height="3.8"/>
	<rect x="27.9" y="37.3" fill="#DEDCDF" width="4" height="3.9"/>
	<rect x="25.9" y="49.8" fill="#DEDCDF" width="7.9" height="9.2"/>
	<rect x="35" y="30.3" fill="#DEDCDF" width="4" height="3.9"/>
	<rect x="35.2" y="37" fill="#DEDCDF" width="4" height="3.9"/>
</g>
</svg>
