<?xml version="1.0" encoding="UTF-8" standalone="no"?>
<svg width="83px" height="83px" viewBox="0 0 83 83" version="1.1" xmlns="http://www.w3.org/2000/svg" xmlns:xlink="http://www.w3.org/1999/xlink" xmlns:sketch="http://www.bohemiancoding.com/sketch/ns">
    <!-- Generator: Sketch 3.3.2 (12043) - http://www.bohemiancoding.com/sketch -->
    <title>atmoActivity</title>
    <desc>Created with Sketch.</desc>
    <defs>
        <filter x="-50%" y="-50%" width="200%" height="200%" filterUnits="objectBoundingBox" id="filter-1">
            <feOffset dx="0" dy="2" in="SourceAlpha" result="shadowOffsetOuter1"></feOffset>
            <feGaussianBlur stdDeviation="2" in="shadowOffsetOuter1" result="shadowBlurOuter1"></feGaussianBlur>
            <feColorMatrix values="0 0 0 0 0   0 0 0 0 0   0 0 0 0 0  0 0 0 0.35 0" in="shadowBlurOuter1" type="matrix" result="shadowMatrixOuter1"></feColorMatrix>
            <feMerge>
                <feMergeNode in="shadowMatrixOuter1"></feMergeNode>
                <feMergeNode in="SourceGraphic"></feMergeNode>
            </feMerge>
        </filter>
    </defs>
    <g id="Branding-Board" stroke="none" stroke-width="1" fill="none" fill-rule="evenodd" sketch:type="MSPage">
        <g id="atmoActivity" sketch:type="MSLayerGroup" transform="translate(4.000000, 2.000000)">
            <circle id="btn_x-copy-3" fill="#FFFFFF" filter="url(#filter-1)" sketch:type="MSShapeGroup" cx="37.5" cy="37.5" r="37.5"></circle>
            <g id="Group" transform="translate(17.000000, 8.000000)" fill="#353535" sketch:type="MSShapeGroup">
                <path d="M15.2,5.90779513 C13.1,6.40779513 15.2,9.60779513 14.6,11.7077951 C14.2,13.1077951 17.1,13.3077951 17.1,13.3077951 C17.1,13.3077951 19.2,12.8077951 18.8,16.2077951 C18.4,19.6077951 23.1,20.7077951 23.4,17.4077951 C23.8,14.0077951 21,12.2077951 22.5,9.60779513 C26.2,3.40779513 15.2,5.90779513 15.2,5.90779513" id="path24_23_"></path>
                <path d="M37.1,29.6077951 C36.5,29.6077951 35.9,29.3077951 35.6,28.6077951 C32.5,22.4077951 22.9,19.1077951 22.8,19.1077951 C21.9,18.8077951 21.4,17.8077951 21.7,16.9077951 C22,16.0077951 23,15.5077951 23.9,15.8077951 C24.4,16.0077951 35,19.6077951 38.7,27.0077951 C39.1,27.9077951 38.8,28.9077951 37.9,29.3077951 C37.6,29.6077951 37.4,29.6077951 37.1,29.6077951" id="path28_17_"></path>
                <path d="M11.2,57.3077951 C10.9,57.3077951 10.6,57.3077951 10.2,57.2077951 C8.4,56.7077951 7.3,54.8077951 7.8,52.9077951 L11.3,40.8077951 C11.5,40.1077951 12,39.4077951 12.6,38.9077951 L24.7,30.3077951 C26.2,29.2077951 28.4,29.5077951 29.5,31.1077951 C30.6,32.7077951 30.3,34.8077951 28.7,35.9077951 L17.6,43.8077951 L14.5,54.8077951 C14.1,56.3077951 12.7,57.3077951 11.2,57.3077951" id="path32_11_"></path>
                <path d="M37.1,52.1077951 C36.6,52.1077951 36.1,52.0077951 35.6,51.7077951 L25.2,46.5077951 C24,45.9077951 23.3,44.7077951 23.3,43.4077951 L23.3,34.8077951 C23.3,32.9077951 24.8,31.3077951 26.8,31.3077951 C28.7,31.3077951 30.3,32.8077951 30.3,34.8077951 L30.3,41.3077951 L38.8,45.5077951 C40.5,46.4077951 41.2,48.4077951 40.3,50.1077951 C39.6,51.4077951 38.4,52.1077951 37.1,52.1077951" id="path36_7_"></path>
                <path d="M7.1,57.3077951 L13,59.3077951 C14,54.2077951 11.3,55.1077951 7.9,53.9077951 C4.5,52.7077951 1.1,53.5077951 0.6,55.1077951 C1.9,55.5077951 3.2,56.0077951 5.5,56.7077951 C6,56.9077951 6.5,57.1077951 7.1,57.3077951" id="path40_3_"></path>
                <path d="M40.4,52.0077951 L41.6,45.9077951 C36.4,45.6077951 37.7,48.1077951 37,51.7077951 C36.3,55.3077951 37.5,58.5077951 39.1,58.8077951 C39.4,57.4077951 39.6,56.1077951 40.1,53.7077951 C40.1,53.1077951 40.2,52.6077951 40.4,52.0077951" id="path44_3_"></path>
                <path d="M31.9,31.4077951 C31.9,31.4077951 31.9,34.9077951 28.4,34.9077951 C24.9,34.9077951 21.5,33.2077951 21.5,33.2077951 C18,22.8077951 14.6,17.7077951 21.2,14.3077951 C26.4,11.7077951 30.2,22.7077951 31.9,31.4077951" id="path48_3_"></path>
                <path d="M15.2,6.90779513 C12.9,7.20779513 13.3,4.80779513 14.7,3.70779513 C16.5,2.20779513 20.7,2.30779513 22.6,3.80779513 C24.4,5.30779513 24.4,8.40779513 22.6,9.90779513 C21.3,11.0077951 20.8,13.0077951 20.8,9.90779513 C20.8,6.80779513 19,9.90779513 19,8.40779513 C18.9,6.90779513 15.2,6.90779513 15.2,6.90779513" id="path52_3_"></path>
                <path d="M25,7.20779513 C25,11.0077951 21.9,14.1077951 18.1,14.1077951 C14.3,14.1077951 11.2,11.0077951 11.2,7.20779513 C11.2,3.40779513 14.3,0.307795126 18.1,0.307795126 C21.9,0.307795126 25,3.40779513 25,7.20779513" id="path56_3_"></path>
                <path d="M18.3,20.1077951 C18.3,20.2077951 13.4,28.1077951 5.6,29.7077951 L5.6,29.7077951 C4.8,29.9077951 4.2,30.5077951 4.2,31.4077951 C4.2,32.4077951 5,33.1077951 5.9,33.1077951 C6,33.1077951 6.1,33.1077951 6.2,33.0077951 L6.2,33.0077951 C15.5,31.1077951 20.9,22.2077951 21.2,21.8077951 L18.3,20.1077951 L18.3,20.1077951 Z" id="path64_3_"></path>
            </g>
        </g>
    </g>
</svg>