<?xml version="1.0" encoding="UTF-8" standalone="no"?>
<svg width="24px" height="25px" viewBox="0 0 24 25" version="1.1" xmlns="http://www.w3.org/2000/svg" xmlns:xlink="http://www.w3.org/1999/xlink" xmlns:sketch="http://www.bohemiancoding.com/sketch/ns">
    <!-- Generator: Sketch 3.3.1 (12005) - http://www.bohemiancoding.com/sketch -->
    <title>City</title>
    <desc>Created with Sketch.</desc>
    <defs></defs>
    <g id="Kricket" stroke="none" stroke-width="1" fill="none" fill-rule="evenodd" sketch:type="MSPage">
        <g id="(T)-Emoji-1" sketch:type="MSArtboardGroup" transform="translate(-254.000000, -619.000000)" fill="#C6CACF">
            <g id="City" sketch:type="MSLayerGroup" transform="translate(254.000000, 619.000000)">
                <g id="Group" sketch:type="MSShapeGroup">
                    <path d="M12.1966626,10.5276456 C10.2280784,10.5276456 8.73024268,11.0839846 7.70315531,12.2394579 C6.54768201,13.5233171 6.33370547,15.1495388 6.33370547,16.0054449 L3.42362458,16.0054449 L3.42362458,22.424741 L5.26382279,22.424741 L5.26382279,24.4361204 L7.40358815,24.4361204 L7.40358815,22.424741 L16.6901698,22.424741 L16.6901698,24.4361204 L18.8299352,24.4361204 L18.8299352,22.424741 L20.8413146,22.424741 L20.8841099,15.9626496 L17.9312337,15.9626496 C17.546076,10.7416221 12.2822532,10.5276456 12.1966626,10.5276456 L12.1966626,10.5276456 Z M8.68744737,13.095364 C9.4577629,12.2394579 10.6560315,11.8115048 12.1966626,11.8115048 C12.3678438,11.8115048 16.2622168,11.982686 16.6901698,15.9626496 L7.61756469,15.9626496 C7.66036,15.2351294 7.87433653,13.9940655 8.68744737,13.095364 L8.68744737,13.095364 Z M18.0168244,17.2465088 L19.643046,17.2465088 L19.6002507,21.1408818 L4.7074838,21.1408818 L4.7074838,17.2893041 L7.44638346,17.2893041 L7.44638346,19.086707 L16.9041464,19.086707 L16.9041464,17.2893041 L18.0168244,17.2893041 L18.0168244,17.2465088 L18.0168244,17.2465088 Z" id="Shape"></path>
                    <path d="M15.3635153,6.67606793 L15.3635153,0.385157765 L5.26382279,0.385157765 L5.26382279,9.4577629 L0.171181229,9.4577629 L0.171181229,22.1251738 L1.45504045,22.1251738 L1.45504045,10.7416221 L6.54768201,10.7416221 L6.54768201,1.66901698 L14.0796561,1.66901698 L14.0796561,7.95992715 L22.5103316,7.95992715 L22.5103316,21.868402 L23.7941908,21.868402 L23.7941908,6.67606793 L15.3635153,6.67606793 Z" id="Shape"></path>
                    <rect id="Rectangle-path" x="8.17390369" y="3.33803397" width="1.06988268" height="1.7974029"></rect>
                    <rect id="Rectangle-path" x="11.1267799" y="3.33803397" width="1.06988268" height="1.7974029"></rect>
                    <rect id="Rectangle-path" x="8.17390369" y="6.33370547" width="1.06988268" height="1.7974029"></rect>
                    <rect id="Rectangle-path" x="11.1267799" y="6.33370547" width="1.06988268" height="1.7974029"></rect>
                    <rect id="Rectangle-path" x="19.5574554" y="8.98701452" width="1.06988268" height="1.7974029"></rect>
                    <rect id="Rectangle-path" x="19.5574554" y="12.0254813" width="1.06988268" height="1.7974029"></rect>
                    <rect id="Rectangle-path" x="3.46641989" y="12.0254813" width="1.06988268" height="1.7974029"></rect>
                </g>
            </g>
        </g>
    </g>
</svg>