<?xml version="1.0" encoding="UTF-8" standalone="no"?>
<svg width="24px" height="24px" viewBox="0 0 24 24" version="1.1" xmlns="http://www.w3.org/2000/svg" xmlns:xlink="http://www.w3.org/1999/xlink" xmlns:sketch="http://www.bohemiancoding.com/sketch/ns">
    <!-- Generator: Sketch 3.3.1 (12005) - http://www.bohemiancoding.com/sketch -->
    <title>Faces</title>
    <desc>Created with Sketch.</desc>
    <defs></defs>
    <g id="Kricket" stroke="none" stroke-width="1" fill="none" fill-rule="evenodd" sketch:type="MSPage">
        <g id="(T)-Emoji-1" sketch:type="MSArtboardGroup" transform="translate(-54.000000, -620.000000)" fill="#C6CACF">
            <g id="Faces" sketch:type="MSLayerGroup" transform="translate(54.000000, 620.000000)">
                <g id="Group" sketch:type="MSShapeGroup">
                    <ellipse id="Oval" cx="8.08831307" cy="8.64465206" rx="1.1554733" ry="1.1554733"></ellipse>
                    <ellipse id="Oval" cx="15.0639482" cy="8.64465206" rx="1.1554733" ry="1.1554733"></ellipse>
                    <path d="M11.554733,0.0855906145 C5.22102748,0.0855906145 0.0855906145,5.22102748 0.0855906145,11.554733 C0.0855906145,17.8884384 5.22102748,23.0238753 11.554733,23.0238753 C17.8884384,23.0238753 23.0238753,17.8884384 23.0238753,11.554733 C23.0238753,5.22102748 17.8884384,0.0855906145 11.554733,0.0855906145 L11.554733,0.0855906145 Z M11.554733,21.7400161 C5.94854771,21.7400161 1.36944983,17.1609182 1.36944983,11.554733 C1.36944983,5.94854771 5.94854771,1.36944983 11.554733,1.36944983 C17.1609182,1.36944983 21.7400161,5.94854771 21.7400161,11.554733 C21.7400161,17.1609182 17.1609182,21.7400161 11.554733,21.7400161 L11.554733,21.7400161 Z" id="Shape"></path>
                    <path d="M17.8028478,12.9669781 C15.8342637,13.4377265 13.7372936,13.6944983 11.554733,13.6944983 C7.87433653,13.6944983 5.26382279,12.9669781 5.22102748,12.9669781 L4.06555419,12.6674109 L4.40791665,13.7800889 C4.49350726,14.0368608 6.4620914,20.1565897 11.5119377,20.1565897 C16.5617839,20.1565897 18.4447774,14.0368608 18.530368,13.7800889 L18.8299352,12.7102063 L17.8028478,12.9669781 L17.8028478,12.9669781 Z M11.554733,18.8727305 C8.60185676,18.8727305 6.84724916,16.0482402 6.11972894,14.4648139 C7.27520223,14.7215857 9.20099106,14.9783575 11.554733,14.9783575 C13.3949312,14.9783575 15.1923341,14.8071763 16.9041464,14.4648139 C16.2194214,16.0910355 14.5076092,18.8727305 11.554733,18.8727305 L11.554733,18.8727305 Z" id="Shape"></path>
                </g>
            </g>
        </g>
    </g>
</svg>