<?xml version="1.0" encoding="UTF-8" standalone="no"?>
<svg width="23px" height="24px" viewBox="0 0 23 24" version="1.1" xmlns="http://www.w3.org/2000/svg" xmlns:xlink="http://www.w3.org/1999/xlink" xmlns:sketch="http://www.bohemiancoding.com/sketch/ns">
    <!-- Generator: Sketch 3.3.1 (12005) - http://www.bohemiancoding.com/sketch -->
    <title>Food</title>
    <desc>Created with Sketch.</desc>
    <defs></defs>
    <g id="Kricket" stroke="none" stroke-width="1" fill="none" fill-rule="evenodd" sketch:type="MSPage">
        <g id="(T)-Emoji-1" sketch:type="MSArtboardGroup" transform="translate(-134.000000, -619.000000)" fill="#C6CACF">
            <g id="Food" sketch:type="MSLayerGroup" transform="translate(134.000000, 619.000000)">
                <path d="M22.98108,14.8927669 C22.98108,11.1267799 16.2194214,10.8272127 14.1652467,10.8272127 L13.9084749,10.8272127 C13.1809546,10.8272127 12.539025,10.8272127 11.8970954,10.870008 L12.0682766,6.07693363 L10.3564644,6.07693363 L10.5704409,2.65330905 L11.9398907,1.66901698 L15.4919012,3.08126212 L15.9626496,1.88299352 L11.7259142,0.213976536 L9.32937698,2.01137944 L9.07260514,6.07693363 L0.128385922,6.07693363 L1.32665452,23.4090331 L5.56338994,23.4090331 C5.9057524,23.5802143 6.29091017,23.7086002 6.71886324,23.7086002 L20.3277709,23.7086002 C21.6544255,23.7086002 22.6815128,22.6387175 22.6815128,21.3548583 L22.6815128,20.2421803 L22.6815128,19.6002507 L22.6815128,15.4919012 L22.98108,15.4919012 L22.98108,14.8927669 L22.98108,14.8927669 Z M5.64898056,16.6045792 C7.0612257,17.5032807 9.37217229,18.7015493 12.1966626,19.0011164 L5.64898056,19.0011164 L5.64898056,16.6045792 L5.64898056,16.6045792 Z M6.41929609,15.5774918 L20.4133616,15.5346965 C14.2936326,19.643046 8.90142391,17.2037135 6.41929609,15.5774918 L6.41929609,15.5774918 Z M21.3976536,16.3906027 L21.3976536,18.9583211 L14.8927669,18.9583211 C16.9469417,18.7443446 19.1295023,17.974029 21.3976536,16.3906027 L21.3976536,16.3906027 Z M13.9084749,12.111072 L14.1652467,12.111072 C16.6473745,12.111072 20.7129287,12.5818203 21.5260395,14.2508373 L5.39220871,14.2936326 C5.43500402,14.208042 5.52059464,14.0796561 5.64898056,13.9940655 C6.33370547,13.3093406 8.30228961,12.111072 13.9084749,12.111072 L13.9084749,12.111072 Z M1.49783575,7.36079285 L10.6988268,7.36079285 L10.5704409,10.9555987 C7.66036,11.2551658 5.64898056,11.982686 4.57909788,13.1809546 C3.76598704,14.0796561 3.80878235,14.8927669 3.85157765,14.9783575 L3.89437296,15.5774918 L4.23673542,15.5774918 C4.27953073,15.5774918 4.27953073,15.6202871 4.32232603,15.6630825 L4.32232603,15.6630825 L4.32232603,19.6002507 L4.32232603,20.2421803 L4.32232603,21.3548583 C4.32232603,21.6116302 4.36512134,21.9111973 4.45071195,22.1251738 L2.48212782,22.1251738 L1.49783575,7.36079285 L1.49783575,7.36079285 Z M21.3976536,21.3548583 C21.3976536,21.9539926 20.9269052,22.424741 20.3277709,22.424741 L6.71886324,22.424741 C6.11972894,22.424741 5.64898056,21.9539926 5.64898056,21.3548583 L5.64898056,20.2421803 L21.3976536,20.2421803 L21.3976536,21.3548583 L21.3976536,21.3548583 Z" id="Shape" sketch:type="MSShapeGroup"></path>
            </g>
        </g>
    </g>
</svg>