<?xml version="1.0" encoding="UTF-8" standalone="no"?>
<svg width="22px" height="27px" viewBox="0 0 22 27" version="1.1" xmlns="http://www.w3.org/2000/svg" xmlns:xlink="http://www.w3.org/1999/xlink" xmlns:sketch="http://www.bohemiancoding.com/sketch/ns">
    <!-- Generator: Sketch 3.3.1 (12005) - http://www.bohemiancoding.com/sketch -->
    <title>Party</title>
    <desc>Created with Sketch.</desc>
    <defs></defs>
    <g id="Kricket" stroke="none" stroke-width="1" fill="none" fill-rule="evenodd" sketch:type="MSPage">
        <g id="(T)-Emoji-1" sketch:type="MSArtboardGroup" transform="translate(-174.000000, -618.000000)" fill="#C6CACF">
            <g id="Party" sketch:type="MSLayerGroup" transform="translate(174.000000, 618.000000)">
                <g id="Group" sketch:type="MSShapeGroup">
                    <path d="M13.3521359,17.546076 C14.5076092,17.1181229 15.8342637,16.6473745 15.8342637,15.4491059 C15.8342637,15.0211528 15.6630825,14.6359951 15.3635153,14.3364279 C14.5931998,13.6089077 12.9669781,13.5233171 12.1966626,13.5233171 L11.6403236,12.6674109 C13.4805218,11.2551658 14.4220185,8.51626614 13.7800889,5.64898056 C13.095364,2.39653721 10.6132362,0.0427953073 7.91713184,0.0427953073 C7.61756469,0.0427953073 7.27520223,0.0855906145 6.97563508,0.128385922 C4.02275888,0.770315531 2.22535598,4.27953073 3.03846681,8.00272246 C3.72319173,11.0839846 5.94854771,13.3949312 8.47347084,13.6089077 L8.68744737,15.877059 L11.982686,14.8499716 C12.7957969,14.8071763 14.0796561,14.8927669 14.4648139,15.2779247 C14.5504045,15.3635153 14.5504045,15.4063106 14.5504045,15.4491059 C14.5504045,15.7486731 13.4377265,16.1338308 12.8813875,16.3050121 C11.6831189,16.7329651 10.4848503,17.1609182 10.3992597,18.2735962 C10.313669,19.6858413 12.1966626,20.5417475 13.5661124,21.1836771 C13.8228842,21.312063 14.1224514,21.4404489 14.2936326,21.5260395 C14.3364279,21.9967879 13.8656795,23.8369861 10.6132362,25.2920266 L11.1267799,26.4902952 C14.4648139,25.0352547 15.2779247,23.0666706 15.4491059,22.2963551 C15.6202871,21.6544255 15.5774918,21.0980865 15.32072,20.755724 C15.1495388,20.4989522 14.8071763,20.3705663 14.0796561,20.0282038 C13.4805218,19.7286366 11.5975283,18.8727305 11.6403236,18.3591868 C11.7259142,18.102415 12.7957969,17.7172572 13.3521359,17.546076 L13.3521359,17.546076 Z M4.23673542,7.74595061 C3.59480581,4.7502791 4.92146033,1.88299352 7.18961162,1.41224514 C7.40358815,1.36944983 7.66036,1.32665452 7.87433653,1.32665452 C9.92851128,1.32665452 11.9398907,3.33803397 12.4962297,5.94854771 C13.1381593,8.94421922 11.8115048,11.8115048 9.54335352,12.2822532 C9.32937698,12.3250485 9.07260514,12.3678438 8.8586286,12.3678438 C6.80445385,12.3678438 4.83586972,10.3992597 4.23673542,7.74595061 L4.23673542,7.74595061 Z M9.80012536,14.208042 L9.75733005,13.5661124 L9.88571598,13.5661124 C10.1424878,13.5233171 10.3564644,13.4377265 10.5704409,13.3521359 L10.9128033,13.8656795 L9.80012536,14.208042 L9.80012536,14.208042 Z" id="Shape"></path>
                    <rect id="Rectangle-path" x="0.385157765" y="12.8813875" width="1.58342637" height="1.58342637"></rect>
                    <rect id="Rectangle-path" x="5.13543687" y="17.6316666" width="1.58342637" height="1.58342637"></rect>
                    <rect id="Rectangle-path" x="19.4290695" y="6.63327262" width="1.58342637" height="1.58342637"></rect>
                    <rect id="Rectangle-path" x="17.5032807" y="16.6901698" width="0.94149676" height="0.94149676"></rect>
                    <rect id="Rectangle-path" x="17.5032807" y="2.69610436" width="0.94149676" height="0.94149676"></rect>
                    <rect id="Rectangle-path" x="0.385157765" y="8.51626614" width="0.94149676" height="0.94149676"></rect>
                    <rect id="Rectangle-path" x="3.85157765" y="21.4832442" width="0.94149676" height="0.94149676"></rect>
                    <rect id="Rectangle-path" x="15.3635153" y="9.75733005" width="1.58342637" height="1.58342637"></rect>
                </g>
            </g>
        </g>
    </g>
</svg>