<?xml version="1.0" encoding="UTF-8" standalone="no"?>
<svg width="20px" height="21px" viewBox="0 0 20 21" version="1.1" xmlns="http://www.w3.org/2000/svg" xmlns:xlink="http://www.w3.org/1999/xlink" xmlns:sketch="http://www.bohemiancoding.com/sketch/ns">
    <!-- Generator: Sketch 3.3.1 (12005) - http://www.bohemiancoding.com/sketch -->
    <title>Symbols</title>
    <desc>Created with Sketch.</desc>
    <defs></defs>
    <g id="Kricket" stroke="none" stroke-width="1" fill="none" fill-rule="evenodd" sketch:type="MSPage">
        <g id="(T)-Emoji-1" sketch:type="MSArtboardGroup" transform="translate(-295.000000, -621.000000)" fill="#C6CACF">
            <g id="Symbols" sketch:type="MSLayerGroup" transform="translate(295.000000, 621.000000)">
                <g id="Group" sketch:type="MSShapeGroup">
                    <path d="M6.84724916,0.684724916 C6.24811486,0.385157765 5.56338994,0.213976536 4.83586972,0.213976536 C3.93716827,0.213976536 3.12405743,0.427953073 2.43933251,0.813110838 C1.7546076,1.1982686 1.1982686,1.7546076 0.813110838,2.48212782 C0.427953073,3.20964804 0.256771844,4.02275888 0.256771844,4.92146033 C0.256771844,6.20531955 0.599134302,7.18961162 1.32665452,7.87433653 C2.05417475,8.55906145 3.03846681,8.94421922 4.32232603,8.94421922 C5.17823218,8.94421922 5.94854771,8.81583329 6.63327262,8.51626614 L6.63327262,7.83154123 C5.82016179,8.13110838 5.04984626,8.30228961 4.32232603,8.30228961 C3.25244335,8.30228961 2.43933251,8.00272246 1.88299352,7.44638346 C1.32665452,6.84724916 1.02708737,6.03413832 1.02708737,4.96425564 C1.02708737,4.1511448 1.1982686,3.46641989 1.49783575,2.86728559 C1.7974029,2.26815128 2.26815128,1.7974029 2.82449028,1.45504045 C3.38082927,1.11267799 4.1083495,0.984292067 4.87866503,0.984292067 C5.52059464,0.984292067 6.07693363,1.11267799 6.54768201,1.36944983 C7.01843039,1.62622168 7.40358815,2.01137944 7.66036,2.48212782 C7.91713184,2.9528762 8.04551776,3.50921519 8.04551776,4.1511448 C8.04551776,4.7502791 7.95992715,5.26382279 7.74595061,5.64898056 C7.53197408,6.03413832 7.27520223,6.20531955 6.97563508,6.20531955 C6.5048867,6.20531955 6.29091017,5.9057524 6.29091017,5.26382279 L6.29091017,5.13543687 L6.41929609,2.65330905 C6.16252424,2.56771844 5.9057524,2.52492313 5.60618525,2.48212782 C5.3066181,2.43933251 5.04984626,2.39653721 4.79307441,2.39653721 C4.1083495,2.39653721 3.5520105,2.61051374 3.16685274,3.08126212 C2.73889966,3.5520105 2.52492313,4.1083495 2.52492313,4.83586972 C2.52492313,5.47779933 2.65330905,5.94854771 2.9528762,6.29091017 C3.25244335,6.63327262 3.68039642,6.84724916 4.19394011,6.84724916 C4.53630257,6.84724916 4.87866503,6.76165855 5.13543687,6.59047732 C5.39220871,6.41929609 5.60618525,6.16252424 5.73457117,5.86295709 L5.77736648,5.86295709 C5.82016179,6.16252424 5.94854771,6.37650078 6.16252424,6.54768201 C6.37650078,6.71886324 6.63327262,6.80445385 6.93283977,6.80445385 C7.31799754,6.80445385 7.61756469,6.67606793 7.91713184,6.4620914 C8.21669899,6.24811486 8.43067553,5.9057524 8.55906145,5.47779933 C8.73024268,5.04984626 8.77303799,4.62189318 8.77303799,4.1083495 C8.77303799,3.33803397 8.60185676,2.65330905 8.30228961,2.09697006 C7.91713184,1.45504045 7.44638346,1.02708737 6.84724916,0.684724916 L6.84724916,0.684724916 Z M5.47779933,4.45071195 C5.43500402,5.56338994 5.00705095,6.11972894 4.27953073,6.11972894 C3.59480581,6.11972894 3.25244335,5.69177586 3.25244335,4.79307441 C3.25244335,4.23673542 3.38082927,3.76598704 3.63760112,3.46641989 C3.89437296,3.16685274 4.23673542,2.99567151 4.7074838,2.99567151 C5.00705095,2.99567151 5.3066181,3.03846681 5.52059464,3.08126212 L5.47779933,4.45071195 L5.47779933,4.45071195 Z" id="Shape"></path>
                    <path d="M13.4805218,8.38788022 L18.0168244,0.213976536 L17.2037135,0.213976536 L12.6674109,8.38788022 L13.4805218,8.38788022 Z" id="Shape"></path>
                    <path d="M16.5617839,4.02275888 C16.3050121,4.45071195 16.1338308,5.09264156 16.1338308,5.94854771 C16.1338308,6.76165855 16.2622168,7.40358815 16.5617839,7.83154123 C16.8613511,8.2594943 17.2465088,8.47347084 17.7600525,8.47347084 C18.3163915,8.47347084 18.7443446,8.2594943 19.0011164,7.83154123 C19.3006836,7.40358815 19.4290695,6.76165855 19.4290695,5.9057524 C19.4290695,5.09264156 19.3006836,4.45071195 19.0011164,4.02275888 C18.7015493,3.59480581 18.2735962,3.38082927 17.7600525,3.38082927 C17.2465088,3.38082927 16.8185558,3.59480581 16.5617839,4.02275888 L16.5617839,4.02275888 Z M18.4447774,4.53630257 C18.5731633,4.83586972 18.658754,5.3066181 18.658754,5.94854771 C18.658754,6.59047732 18.5731633,7.0612257 18.4447774,7.36079285 C18.3163915,7.66036 18.0596197,7.83154123 17.7600525,7.83154123 C17.4604854,7.83154123 17.2037135,7.66036 17.0753276,7.36079285 C16.9469417,7.0612257 16.8613511,6.59047732 16.8613511,5.94854771 C16.8613511,5.3066181 16.9469417,4.83586972 17.0753276,4.53630257 C17.2037135,4.23673542 17.4176901,4.06555419 17.7600525,4.06555419 C18.102415,4.06555419 18.3163915,4.19394011 18.4447774,4.53630257 L18.4447774,4.53630257 Z" id="Shape"></path>
                    <path d="M12.8813875,5.22102748 C13.4377265,5.22102748 13.8656795,5.00705095 14.1224514,4.57909788 C14.3792232,4.1511448 14.5504045,3.50921519 14.5504045,2.65330905 C14.5504045,1.84019821 14.4220185,1.1982686 14.1224514,0.770315531 C13.8228842,0.342362458 13.4377265,0.128385922 12.8813875,0.128385922 C12.3250485,0.128385922 11.9398907,0.342362458 11.6403236,0.770315531 C11.3835517,1.1982686 11.2123705,1.84019821 11.2123705,2.69610436 C11.2123705,3.50921519 11.3407564,4.1511448 11.6403236,4.62189318 C11.9398907,5.00705095 12.3250485,5.22102748 12.8813875,5.22102748 L12.8813875,5.22102748 Z M12.1966626,1.24106391 C12.3250485,0.94149676 12.539025,0.770315531 12.8813875,0.770315531 C13.4805218,0.770315531 13.7800889,1.41224514 13.7800889,2.65330905 C13.7800889,3.93716827 13.4805218,4.53630257 12.8813875,4.53630257 C12.5818203,4.53630257 12.3678438,4.36512134 12.1966626,4.06555419 C12.0254813,3.76598704 11.982686,3.29523866 11.982686,2.65330905 C11.982686,2.01137944 12.0682766,1.54063106 12.1966626,1.24106391 L12.1966626,1.24106391 Z" id="Shape"></path>
                    <path d="M7.104021,11.7259142 L6.29091017,11.7259142 L5.77736648,14.3364279 L3.97996357,14.3364279 L4.45071195,11.7259142 L3.63760112,11.7259142 L3.16685274,14.3364279 L1.36944983,14.3364279 L1.36944983,15.1067435 L2.99567151,15.1067435 L2.65330905,17.1181229 L0.94149676,17.1181229 L0.94149676,17.8884384 L2.48212782,17.8884384 L2.01137944,20.4561569 L2.82449028,20.4561569 L3.29523866,17.8884384 L5.13543687,17.8884384 L4.62189318,20.4561569 L5.43500402,20.4561569 L5.94854771,17.8884384 L7.78874592,17.8884384 L7.78874592,17.1181229 L6.11972894,17.1181229 L6.5048867,15.1067435 L8.21669899,15.1067435 L8.21669899,14.3364279 L6.63327262,14.3364279 L7.104021,11.7259142 L7.104021,11.7259142 Z M5.26382279,17.1181229 L3.46641989,17.1181229 L3.85157765,15.1067435 L5.64898056,15.1067435 L5.26382279,17.1181229 L5.26382279,17.1181229 Z" id="Shape"></path>
                    <path d="M18.8299352,16.1338308 L17.8884384,16.1338308 C17.8028478,16.5189886 17.7172572,16.8613511 17.5888713,17.1609182 C17.4604854,17.4604854 17.2893041,17.7600525 17.0753276,17.974029 L14.764381,15.7914684 C15.3635153,15.4491059 15.7914684,15.1067435 16.0482402,14.764381 C16.3050121,14.4220185 16.433398,14.0368608 16.433398,13.651703 C16.433398,13.095364 16.2622168,12.6674109 15.9198543,12.3250485 C15.5774918,12.0254813 15.1067435,11.8543001 14.4648139,11.8543001 C13.8228842,11.8543001 13.3093406,12.0254813 12.9241828,12.3250485 C12.539025,12.6246156 12.3678438,13.095364 12.3678438,13.651703 C12.3678438,13.8656795 12.4106391,14.0796561 12.4534344,14.2508373 C12.539025,14.4648139 12.6246156,14.6359951 12.7102063,14.8071763 C12.8385922,14.9783575 13.0525687,15.2779247 13.3521359,15.6202871 C12.6674109,16.0054449 12.1966626,16.3906027 11.9398907,16.7757604 C11.6831189,17.1609182 11.554733,17.5888713 11.554733,18.0596197 C11.554733,18.7443446 11.7687095,19.3006836 12.2394579,19.7286366 C12.6674109,20.1137944 13.3093406,20.3277709 14.1224514,20.3277709 C14.6787904,20.3277709 15.1923341,20.2421803 15.6630825,20.0709991 C16.1338308,19.8998179 16.5617839,19.6002507 17.0325323,19.215093 L18.0596197,20.199385 L19.3434789,20.199385 L17.6744619,18.5731633 C18.1880056,18.0168244 18.5731633,17.2037135 18.8299352,16.1338308 L18.8299352,16.1338308 Z M13.3093406,13.651703 C13.3093406,13.3521359 13.3949312,13.095364 13.6089077,12.9241828 C13.8228842,12.7530016 14.0796561,12.6674109 14.4220185,12.6674109 C14.764381,12.6674109 15.0211528,12.7530016 15.1923341,12.9241828 C15.4063106,13.095364 15.4919012,13.3521359 15.4919012,13.651703 C15.4919012,13.9512702 15.4063106,14.2508373 15.1923341,14.4648139 C15.0211528,14.7215857 14.6787904,14.9783575 14.1652467,15.2351294 C13.8228842,14.8927669 13.6089077,14.6359951 13.4805218,14.3792232 C13.3521359,14.1652467 13.3093406,13.9084749 13.3093406,13.651703 L13.3093406,13.651703 Z M14.1652467,19.5146601 C13.6944983,19.5146601 13.3093406,19.3862742 13.0097734,19.1295023 C12.7102063,18.8727305 12.5818203,18.530368 12.5818203,18.102415 C12.5818203,17.8456431 12.6246156,17.6316666 12.7102063,17.4604854 C12.7957969,17.2893041 12.9241828,17.0753276 13.095364,16.9041464 C13.2665452,16.7329651 13.5661124,16.5189886 13.9940655,16.2622168 L16.433398,18.658754 C15.8342637,19.215093 15.0639482,19.5146601 14.1652467,19.5146601 L14.1652467,19.5146601 Z" id="Shape"></path>
                </g>
            </g>
        </g>
    </g>
</svg>