<?xml version="1.0" encoding="UTF-8" standalone="no"?>
<svg width="157px" height="214px" viewBox="0 0 157 214" version="1.1" xmlns="http://www.w3.org/2000/svg" xmlns:xlink="http://www.w3.org/1999/xlink" xmlns:sketch="http://www.bohemiancoding.com/sketch/ns">
    <!-- Generator: Sketch 3.3 (11970) - http://www.bohemiancoding.com/sketch -->
    <title>Group</title>
    <desc>Created with Sketch.</desc>
    <defs></defs>
    <g id="Page-1" stroke="none" stroke-width="1" fill="none" fill-rule="evenodd" sketch:type="MSPage">
        <g id="Group" sketch:type="MSLayerGroup">
            <text id="Kricket" sketch:type="MSTextLayer" font-family="Source Sans Pro" font-size="27.1062" font-weight="bold" fill="#3E4649">
                <tspan x="35.4061" y="192.326638">Kric</tspan>
                <tspan x="82.9503748" y="192.326638" letter-spacing="-0.7589736">k</tspan>
                <tspan x="96.2866252" y="192.326638" letter-spacing="-0.4879116">e</tspan>
                <tspan x="109.351814" y="192.326638">t</tspan>
            </text>
            <text id="TELL-" sketch:type="MSTextLayer" font-family="Source Sans Pro" font-size="11" font-weight="bold" fill="#23A96E">
                <tspan x="36.4925" y="213.000372">TELL </tspan>
            </text>
            <text id="THE-" sketch:type="MSTextLayer" font-family="Source Sans Pro" font-size="11" font-weight="bold" fill="#2E2F33">
                <tspan x="62.2435" y="213.000372">THE </tspan>
            </text>
            <text id="WORLD" sketch:type="MSTextLayer" font-family="Source Sans Pro" font-size="11" font-weight="bold" fill="#F96C58">
                <tspan x="84.0334" y="213.000372">WORLD</tspan>
            </text>
            <path d="M127.946,98.48 L126.052,97.536 C126.052,97.536 111.907,89.857 106.653,89.722 C101.399,89.588 96.28,94.707 96.28,97.536 C96.28,100.365 96.549,103.059 91.43,103.463 C86.311,103.867 80.518,100.769 79.71,105.753 C78.901,110.738 82.673,118.566 97.627,128.932 C103.568,133.051 105.606,136.806 105.908,139.839 L105.91,139.841 L108.662,146.385 C123.657,136.452 132.902,120.554 132.933,101.267 L127.946,98.48" id="Fill-1" fill="#3E4649" sketch:type="MSShapeGroup"></path>
            <path d="M29.111,106.049 C29.064,105.516 29.019,104.983 28.989,104.446 C29.196,105.489 29.459,106.451 29.795,107.291 C33.047,115.421 40.636,122.196 40.636,122.196 C40.636,122.196 53.238,129.649 60.961,129.378 C68.685,129.107 62.587,112.304 62.587,112.304 C62.587,112.304 51.657,91.075 64.53,91.436 C77.403,91.798 84.043,90.081 84.043,90.081 C84.043,90.081 88.153,85.519 84.043,80.054 C79.932,74.589 81.061,74.047 80.971,71.833 C80.881,69.62 82.552,70.93 83.455,63.839 C83.964,59.844 75.184,52.355 70.787,49.115 L36.245,65.398 C29.819,72.913 25.356,82.15 23.639,92.309 L29.111,106.049" id="Fill-2" fill="#23A96E" sketch:type="MSShapeGroup"></path>
            <path d="M93.441,148.563 C92.323,148.915 91.192,149.238 90.041,149.511 C90.594,146.615 90.833,142.836 89.005,140.779 C85.772,137.142 80.383,141.588 80.383,141.588 C80.383,141.588 78.632,142.935 71.627,140.241 C64.622,137.546 64.083,142.396 64.083,142.396 C64.083,142.396 63.894,145.176 66.416,149.281 C65.192,148.964 64,148.598 63,148.192 L63,154.509 C68,156.041 73.252,156.874 78.82,156.874 C84.005,156.874 88.92,156.144 93.684,154.809 L93.441,148.563" id="Fill-3" fill="#F96C58" sketch:type="MSShapeGroup"></path>
            <path d="M5.156,1.953 C1.987,2.437 0.064,3.093 0.064,3.093 C1.806,2.634 3.501,2.258 5.156,1.953" id="Fill-4" fill="#2E2F33" sketch:type="MSShapeGroup"></path>
            <path d="M151.23,1.953 C152.884,2.258 154.58,2.634 156.322,3.093 C156.322,3.093 154.398,2.437 151.23,1.953" id="Fill-5" fill="#2E2F33" sketch:type="MSShapeGroup"></path>
            <path d="M152.564,1.953 C109.437,-6.003 95.875,36.739 93.152,47.581 C88.388,46.252 83.375,45.525 78.193,45.525 C73.011,45.525 67.998,46.252 63.234,47.581 C60.51,36.738 46.948,-6.002 3.821,1.953 C15.884,0.111 46.018,0.778 57.008,49.719 C36.751,58.075 22.452,78.028 22.452,101.267 C22.452,132.002 47.457,157.008 78.193,157.008 C108.929,157.008 133.934,132.002 133.934,101.267 C133.934,78.028 119.635,58.075 99.377,49.719 C110.368,0.778 140.501,0.111 152.564,1.953 L152.564,1.953 Z M127.796,101.267 C127.796,128.618 105.544,150.87 78.193,150.87 C50.842,150.87 28.59,128.618 28.59,101.267 C28.59,73.915 50.842,51.663 78.193,51.663 C105.544,51.663 127.796,73.915 127.796,101.267 L127.796,101.267 Z" id="Fill-6" fill="#2E2F33" sketch:type="MSShapeGroup"></path>
        </g>
    </g>
</svg>