<?xml version="1.0" encoding="UTF-8" standalone="no"?>
<svg width="271px" height="67px" viewBox="0 0 271 67" version="1.1" xmlns="http://www.w3.org/2000/svg" xmlns:xlink="http://www.w3.org/1999/xlink" xmlns:sketch="http://www.bohemiancoding.com/sketch/ns">
    <!-- Generator: Sketch 3.3.1 (12005) - http://www.bohemiancoding.com/sketch -->
    <title>Group + Rectangle 118</title>
    <desc>Created with Sketch.</desc>
    <defs></defs>
    <g id="Karma-Menu" stroke="none" stroke-width="1" fill="none" fill-rule="evenodd" sketch:type="MSPage">
        <g id="Purchase_Confirmation_Success" sketch:type="MSArtboardGroup" transform="translate(-52.000000, -357.000000)">
            <g id="Group-+-Rectangle-118" sketch:type="MSLayerGroup" transform="translate(51.500000, 186.000000)">
                <g id="Group" transform="translate(0.000000, 0.500000)" sketch:type="MSShapeGroup">
                    <g id="Group-+-Rectangle-118" transform="translate(0.000000, 170.000000)">
                        <g id="Group" transform="translate(0.000000, 14.000000)">
                            <rect id="Rectangle-23" fill="#EBEEF1" x="0.691365418" y="0.287748355" width="270.617269" height="53.0526316"></rect>
                            <ellipse id="Hover_Selection" fill="#D2D7DE" cx="247.133492" cy="28.85455" rx="15.1545671" ry="14.2834008"></ellipse>
                            <g id="Faces" transform="translate(39.660252, 21.372769)" fill="#C6CACF">
                                <g id="Group">
                                    <ellipse id="Oval" cx="5.83689919" cy="5.87976335" rx="0.833842741" ry="0.785908962"></ellipse>
                                    <ellipse id="Oval" cx="10.8708387" cy="5.87976335" rx="0.833842741" ry="0.785908962"></ellipse>
                                    <path d="M8.33842741,0.0582154787 C3.76773387,0.0582154787 0.061766129,3.5511442 0.061766129,7.85908962 C0.061766129,12.167035 3.76773387,15.6599638 8.33842741,15.6599638 C12.909121,15.6599638 16.6150887,12.167035 16.6150887,7.85908962 C16.6150887,3.5511442 12.909121,0.0582154787 8.33842741,0.0582154787 L8.33842741,0.0582154787 Z M8.33842741,14.7867316 C4.29274596,14.7867316 0.988258063,11.6722035 0.988258063,7.85908962 C0.988258063,4.04597577 4.29274596,0.931447659 8.33842741,0.931447659 C12.3841089,0.931447659 15.6885968,4.04597577 15.6885968,7.85908962 C15.6885968,11.6722035 12.3841089,14.7867316 8.33842741,14.7867316 L8.33842741,14.7867316 Z" id="Shape"></path>
                                    <path d="M12.8473548,8.81964502 C11.4267339,9.13983015 9.9134637,9.31447659 8.33842741,9.31447659 C5.68248387,9.31447659 3.79861693,8.81964502 3.76773387,8.81964502 L2.93389113,8.61589085 L3.18095564,9.37269207 C3.24272177,9.54733851 4.66334274,13.7097452 8.30754435,13.7097452 C11.951746,13.7097452 13.3106008,9.54733851 13.3723669,9.37269207 L13.5885484,8.64499859 L12.8473548,8.81964502 L12.8473548,8.81964502 Z M8.33842741,12.8365131 C6.20749596,12.8365131 4.94129032,10.9154023 4.41627822,9.8384159 C5.25012096,10.0130623 6.63985886,10.1877088 8.33842741,10.1877088 C9.66639918,10.1877088 10.9634879,10.0712778 12.1988105,9.8384159 C11.7046814,10.94451 10.4693589,12.8365131 8.33842741,12.8365131 L8.33842741,12.8365131 Z" id="Shape"></path>
                                </g>
                            </g>
                            <g id="Nature" transform="translate(69.247740, 20.692607)" fill="#C6CACF">
                                <path d="M11.3958508,7.48068901 L14.0209113,7.48068901 L7.72076612,0.0291077393 L1.3897379,7.48068901 L4.01479838,7.48068901 L0.27794758,12.7200821 L5.25012096,12.7200821 L5.25012096,16.2421186 L10.1914113,16.2421186 L10.1914113,12.7200821 L15.1635847,12.7200821 L11.3958508,7.48068901 L11.3958508,7.48068901 Z M9.26491935,11.8468499 L9.26491935,15.3688864 L6.1766129,15.3688864 L6.1766129,11.8468499 L2.03828226,11.8468499 L5.77513306,6.60745683 L3.33537096,6.60745683 L7.72076612,1.42627923 L12.1061613,6.60745683 L9.66639918,6.60745683 L13.40325,11.8468499 L9.26491935,11.8468499 L9.26491935,11.8468499 Z" id="Shape"></path>
                            </g>
                            <g id="Food" transform="translate(97.391936, 20.692607)" fill="#C6CACF">
                                <path d="M16.5842056,10.1294933 C16.5842056,7.56801223 11.7046814,7.36425805 10.2222943,7.36425805 L10.036996,7.36425805 C9.51198386,7.36425805 9.04873789,7.36425805 8.58549193,7.39336579 L8.70902418,4.13329899 L7.47370161,4.13329899 L7.62811693,1.80467984 L8.61637499,1.13520183 L11.1796693,2.09575723 L11.5193831,1.28074053 L8.46195967,0.145538697 L6.73250806,1.36806375 L6.54720967,4.13329899 L0.0926491935,4.13329899 L0.957374999,15.9219334 L4.01479838,15.9219334 C4.2618629,16.0383644 4.53981048,16.1256876 4.84864112,16.1256876 L14.6694556,16.1256876 C15.6268306,16.1256876 16.3680242,15.3979941 16.3680242,14.5247619 L16.3680242,13.7679607 L16.3680242,13.3313446 L16.3680242,10.5370016 L16.5842056,10.5370016 L16.5842056,10.1294933 L16.5842056,10.1294933 Z M4.07656451,11.2938029 C5.09570564,11.9050654 6.76339112,12.7200821 8.80167338,12.9238363 L4.07656451,12.9238363 L4.07656451,11.2938029 L4.07656451,11.2938029 Z M4.63245967,10.5952171 L14.7312218,10.5661094 C10.3149435,13.3604524 6.42367741,11.7013112 4.63245967,10.5952171 L4.63245967,10.5952171 Z M15.4415322,11.1482642 L15.4415322,12.8947285 L10.7473064,12.8947285 C12.2296935,12.7491898 13.8047298,12.2252505 15.4415322,11.1482642 L15.4415322,11.1482642 Z M10.036996,8.23749023 L10.2222943,8.23749023 C12.0135121,8.23749023 14.9474032,8.55767537 15.5341814,9.6928772 L3.89126613,9.72198494 C3.92214919,9.66376946 3.98391532,9.57644624 4.07656451,9.51823077 C4.57069354,9.05250694 5.99131451,8.23749023 10.036996,8.23749023 L10.036996,8.23749023 Z M1.08090726,5.00653117 L7.72076612,5.00653117 L7.62811693,7.45158127 C5.52806854,7.65533545 4.07656451,8.15016702 3.3044879,8.96518372 C2.71770967,9.57644624 2.74859274,10.1294933 2.7794758,10.1877088 L2.81035887,10.5952171 L3.05742338,10.5952171 C3.08830645,10.5952171 3.08830645,10.6243249 3.11918951,10.6534326 L3.11918951,10.6534326 L3.11918951,13.3313446 L3.11918951,13.7679607 L3.11918951,14.5247619 C3.11918951,14.6994084 3.15007258,14.9031625 3.21183871,15.0487012 L1.79121774,15.0487012 L1.08090726,5.00653117 L1.08090726,5.00653117 Z M15.4415322,14.5247619 C15.4415322,14.9322703 15.1018185,15.2524554 14.6694556,15.2524554 L4.84864112,15.2524554 C4.41627822,15.2524554 4.07656451,14.9322703 4.07656451,14.5247619 L4.07656451,13.7679607 L15.4415322,13.7679607 L15.4415322,14.5247619 L15.4415322,14.5247619 Z" id="Shape"></path>
                            </g>
                            <g id="Party" transform="translate(126.257778, 20.012445)" fill="#C6CACF">
                                <g id="Group">
                                    <path d="M9.63551612,11.9341731 C10.4693589,11.6430957 11.4267339,11.3229106 11.4267339,10.5078939 C11.4267339,10.2168165 11.3032016,9.95484686 11.0870201,9.75109268 C10.531125,9.25626111 9.35756854,9.19804563 8.80167338,9.19804563 L8.40019354,8.61589085 C9.72816531,7.65533545 10.4075927,5.79244013 9.94434676,3.84222159 C9.45021773,1.6300334 7.65899999,0.0291077393 5.71336693,0.0291077393 C5.49718548,0.0291077393 5.25012096,0.0582154787 5.03393951,0.087323218 C2.90300806,0.523939308 1.60591935,2.91077393 2.19269758,5.44314726 C2.68682661,7.53890449 4.29274596,9.11072242 6.11484677,9.25626111 L6.26926209,10.7989713 L8.64725806,10.1003856 C9.23403628,10.0712778 10.1605282,10.1294933 10.4384758,10.3914629 C10.5002419,10.4496784 10.5002419,10.4787862 10.5002419,10.5078939 C10.5002419,10.7116481 9.69728225,10.9736177 9.29580241,11.0900487 C8.4310766,11.3811261 7.5663508,11.6722035 7.50458467,12.4290047 C7.44281854,13.3895601 8.80167338,13.9717149 9.78993144,14.408331 C9.97522983,14.4956542 10.1914113,14.5829774 10.3149435,14.6411929 C10.3458266,14.961378 10.0061129,16.2130108 7.65899999,17.202674 L8.02959677,18.0176907 C10.4384758,17.0280275 11.025254,15.6890715 11.1487863,15.1651322 C11.2723185,14.7285161 11.2414355,14.3501155 11.0561371,14.1172536 C10.9326048,13.9426071 10.6855403,13.8552839 10.1605282,13.622422 C9.72816531,13.4186678 8.36931048,12.8365131 8.40019354,12.4872202 C8.46195967,12.3125737 9.23403628,12.0506041 9.63551612,11.9341731 L9.63551612,11.9341731 Z M3.05742338,5.26850082 C2.59417742,3.23095907 3.55155242,1.28074053 5.18835483,0.960555398 C5.34277016,0.931447659 5.52806854,0.90233992 5.68248387,0.90233992 C7.16487096,0.90233992 8.61637499,2.27040367 9.01785483,4.04597577 C9.4811008,6.08351752 8.5237258,8.03373606 6.88692338,8.35392119 C6.73250806,8.38302893 6.54720967,8.41213667 6.39279435,8.41213667 C4.91040725,8.41213667 3.48978629,7.07318066 3.05742338,5.26850082 L3.05742338,5.26850082 Z M7.07222177,9.66376946 L7.0413387,9.22715337 L7.1339879,9.22715337 C7.31928628,9.19804563 7.47370161,9.13983015 7.62811693,9.08161468 L7.87518144,9.43090755 L7.07222177,9.66376946 L7.07222177,9.66376946 Z" id="Shape"></path>
                                    <rect id="Rectangle-path" x="0.27794758" y="8.76142954" width="1.14267339" height="1.07698636"></rect>
                                    <rect id="Rectangle-path" x="3.70596774" y="11.9923886" width="1.14267339" height="1.07698636"></rect>
                                    <rect id="Rectangle-path" x="14.0209113" y="4.5116996" width="1.14267339" height="1.07698636"></rect>
                                    <rect id="Rectangle-path" x="12.6311734" y="11.3520183" width="0.679427419" height="0.640370266"></rect>
                                    <rect id="Rectangle-path" x="12.6311734" y="1.83378758" width="0.679427419" height="0.640370266"></rect>
                                    <rect id="Rectangle-path" x="0.27794758" y="5.79244013" width="0.679427419" height="0.640370266"></rect>
                                    <rect id="Rectangle-path" x="2.7794758" y="14.6120852" width="0.679427419" height="0.640370266"></rect>
                                    <rect id="Rectangle-path" x="11.0870201" y="6.63656457" width="1.14267339" height="1.07698636"></rect>
                                </g>
                            </g>
                            <g id="Action" transform="translate(154.401974, 20.012445)" fill="#C6CACF">
                                <path d="M11.7973306,8.90696824 L17.2018669,8.90696824 L17.2018669,6.81121101 L12.8782379,6.66567231 L11.8282137,4.42437638 L11.5193831,4.22062221 C11.8282137,4.39526864 12.1988105,4.48259186 12.6002903,4.48259186 C13.866496,4.48259186 14.8856371,3.52203646 14.8856371,2.32861915 C14.8856371,1.13520183 13.866496,0.174646436 12.6002903,0.174646436 C11.3340847,0.174646436 10.3149435,1.13520183 10.3149435,2.32861915 C10.3149435,2.96898941 10.6237742,3.5511442 11.1179032,3.95865255 L9.94434676,3.20185133 L5.89866532,3.20185133 L2.90300806,6.141733 L4.50892741,7.07318066 L6.57809274,5.1811776 L7.5663508,5.26850082 L5.46630241,8.84875276 L5.06482258,10.7698636 L0.123532258,10.7698636 L0.123532258,12.8365131 L6.36191128,12.8365131 L8.06047983,11.0318332 L9.9134637,11.9050654 L7.38105241,16.0383644 L9.60463305,17.2317817 L12.909121,11.6430957 L9.94434676,9.13983015 L10.9326048,7.56801223 L11.7973306,8.90696824 L11.7973306,8.90696824 Z M12.6002903,1.07698636 C13.3414839,1.07698636 13.9591451,1.65914114 13.9591451,2.35772689 C13.9591451,3.05631263 13.3414839,3.63846742 12.6002903,3.63846742 C11.8590968,3.63846742 11.2414355,3.05631263 11.2414355,2.35772689 C11.2414355,1.65914114 11.8590968,1.07698636 12.6002903,1.07698636 L12.6002903,1.07698636 Z M8.77079031,9.31447659 L11.7355645,11.8177422 L9.23403628,16.0383644 L8.61637499,15.7181792 L11.1796693,11.5266648 L7.81341531,9.92573912 L5.89866532,11.9341731 L1.01914113,11.9341731 L1.01914113,11.6430957 L5.80601612,11.6430957 L6.33102822,9.13983015 L9.04873789,4.48259186 L6.20749596,4.27883768 L4.35451209,5.96708657 L6.26926209,4.07508351 L9.63551612,4.07508351 L11.0561371,5.00653117 L12.2296935,7.50979675 L16.2444919,7.65533545 L16.2444919,8.03373606 L12.3223427,8.03373606 L10.9017218,5.87976335 L8.77079031,9.31447659 L8.77079031,9.31447659 Z" id="Shape"></path>
                            </g>
                            <g id="City" transform="translate(183.989462, 20.692607)" fill="#C6CACF">
                                <g id="Group">
                                    <path d="M8.80167338,7.16050388 C7.38105241,7.16050388 6.30014515,7.53890449 5.55895161,8.32481345 C4.72510887,9.19804563 4.57069354,10.3041397 4.57069354,10.8862945 L2.47064516,10.8862945 L2.47064516,15.2524554 L3.79861693,15.2524554 L3.79861693,16.6205192 L5.34277016,16.6205192 L5.34277016,15.2524554 L12.0443951,15.2524554 L12.0443951,16.6205192 L13.5885484,16.6205192 L13.5885484,15.2524554 L15.0400524,15.2524554 L15.0709355,10.8571868 L12.940004,10.8571868 C12.6620564,7.30604258 8.86343951,7.16050388 8.80167338,7.16050388 L8.80167338,7.16050388 Z M6.26926209,8.90696824 C6.82515725,8.32481345 7.68988306,8.03373606 8.80167338,8.03373606 C8.92520564,8.03373606 11.7355645,8.15016702 12.0443951,10.8571868 L5.49718548,10.8571868 C5.52806854,10.3623552 5.68248387,9.51823077 6.26926209,8.90696824 L6.26926209,8.90696824 Z M13.0017701,11.730419 L14.1753266,11.730419 L14.1444435,14.3792232 L3.39713709,14.3792232 L3.39713709,11.7595267 L5.37365322,11.7595267 L5.37365322,12.9820517 L12.1988105,12.9820517 L12.1988105,11.7595267 L13.0017701,11.7595267 L13.0017701,11.730419 L13.0017701,11.730419 Z" id="Shape"></path>
                                    <path d="M11.0870201,4.54080734 L11.0870201,0.261969654 L3.79861693,0.261969654 L3.79861693,6.4328104 L0.123532258,6.4328104 L0.123532258,15.0487012 L1.05002419,15.0487012 L1.05002419,7.30604258 L4.72510887,7.30604258 L4.72510887,1.13520183 L10.1605282,1.13520183 L10.1605282,5.41403952 L16.2444919,5.41403952 L16.2444919,14.8740548 L17.1709839,14.8740548 L17.1709839,4.54080734 L11.0870201,4.54080734 Z" id="Shape"></path>
                                    <rect id="Rectangle-path" x="5.89866532" y="2.27040367" width="0.772076612" height="1.22252505"></rect>
                                    <rect id="Rectangle-path" x="8.02959677" y="2.27040367" width="0.772076612" height="1.22252505"></rect>
                                    <rect id="Rectangle-path" x="5.89866532" y="4.30794542" width="0.772076612" height="1.22252505"></rect>
                                    <rect id="Rectangle-path" x="8.02959677" y="4.30794542" width="0.772076612" height="1.22252505"></rect>
                                    <rect id="Rectangle-path" x="14.1135605" y="6.11262526" width="0.772076612" height="1.22252505"></rect>
                                    <rect id="Rectangle-path" x="14.1135605" y="8.17927476" width="0.772076612" height="1.22252505"></rect>
                                    <rect id="Rectangle-path" x="2.50152822" y="8.17927476" width="0.772076612" height="1.22252505"></rect>
                                </g>
                            </g>
                            <g id="Symbols" transform="translate(213.576950, 22.052931)" fill="#C6CACF">
                                <g id="Group">
                                    <path d="M4.94129032,0.46572383 C4.50892741,0.261969654 4.01479838,0.145538697 3.48978629,0.145538697 C2.84124193,0.145538697 2.25446371,0.291077393 1.76033468,0.553047048 C1.26620564,0.815016702 0.864725806,1.19341731 0.586778225,1.68824888 C0.308830645,2.18308045 0.185298387,2.7361275 0.185298387,3.34739002 C0.185298387,4.22062221 0.432362903,4.89010021 0.957374999,5.35582404 C1.4823871,5.82154787 2.19269758,6.08351752 3.11918951,6.08351752 C3.7368508,6.08351752 4.29274596,5.99619431 4.786875,5.79244013 L4.786875,5.3267163 C4.20009677,5.53047048 3.64420161,5.64690143 3.11918951,5.64690143 C2.3471129,5.64690143 1.76033468,5.44314726 1.35885484,5.06474665 C0.957374999,4.6572383 0.741193548,4.10419125 0.741193548,3.37649776 C0.741193548,2.82345072 0.864725806,2.35772689 1.08090726,1.95021854 C1.29708871,1.54271019 1.63680242,1.22252505 2.03828226,0.989663138 C2.43976209,0.756801223 2.96477419,0.669478005 3.52066935,0.669478005 C3.98391532,0.669478005 4.38539516,0.756801223 4.72510887,0.931447659 C5.06482258,1.1060941 5.34277016,1.36806375 5.52806854,1.68824888 C5.71336693,2.00843401 5.80601612,2.38683463 5.80601612,2.82345072 C5.80601612,3.23095907 5.74424999,3.58025194 5.58983467,3.84222159 C5.43541935,4.10419125 5.25012096,4.22062221 5.03393951,4.22062221 C4.6942258,4.22062221 4.53981048,4.01686803 4.53981048,3.58025194 L4.53981048,3.49292872 L4.63245967,1.80467984 C4.44716129,1.74646436 4.2618629,1.71735662 4.04568145,1.68824888 C3.8295,1.65914114 3.64420161,1.6300334 3.45890322,1.6300334 C2.96477419,1.6300334 2.56329435,1.7755721 2.28534677,2.09575723 C1.97651613,2.41594237 1.8221008,2.79434298 1.8221008,3.28917455 C1.8221008,3.72579064 1.91475,4.04597577 2.13093145,4.27883768 C2.3471129,4.5116996 2.65594355,4.6572383 3.02654032,4.6572383 C3.27360484,4.6572383 3.52066935,4.59902282 3.70596774,4.48259186 C3.89126613,4.3661609 4.04568145,4.19151447 4.13833064,3.98776029 L4.16921371,3.98776029 C4.20009677,4.19151447 4.29274596,4.33705316 4.44716129,4.45348412 C4.60157661,4.56991508 4.786875,4.62813056 5.00305645,4.62813056 C5.28100403,4.62813056 5.49718548,4.54080734 5.71336693,4.39526864 C5.92954838,4.24972994 6.0839637,4.01686803 6.1766129,3.72579064 C6.30014515,3.43471324 6.33102822,3.14363585 6.33102822,2.79434298 C6.33102822,2.27040367 6.20749596,1.80467984 5.99131451,1.42627923 C5.71336693,0.989663138 5.37365322,0.698585744 4.94129032,0.46572383 L4.94129032,0.46572383 Z M3.95303225,3.02720489 C3.92214919,3.78400611 3.61331854,4.16240673 3.08830645,4.16240673 C2.59417742,4.16240673 2.3471129,3.87132933 2.3471129,3.26006681 C2.3471129,2.8816662 2.43976209,2.56148106 2.62506048,2.35772689 C2.81035887,2.15397271 3.05742338,2.03754175 3.39713709,2.03754175 C3.61331854,2.03754175 3.8295,2.06664949 3.98391532,2.09575723 L3.95303225,3.02720489 L3.95303225,3.02720489 Z" id="Shape"></path>
                                    <path d="M9.72816531,5.70511691 L13.0017701,0.145538697 L12.4149919,0.145538697 L9.14138709,5.70511691 L9.72816531,5.70511691 Z" id="Shape"></path>
                                    <path d="M11.951746,2.7361275 C11.7664476,3.02720489 11.6429153,3.46382098 11.6429153,4.04597577 C11.6429153,4.59902282 11.7355645,5.03563891 11.951746,5.3267163 C12.1679274,5.61779369 12.445875,5.76333239 12.8164718,5.76333239 C13.2179516,5.76333239 13.5267822,5.61779369 13.7120806,5.3267163 C13.9282621,5.03563891 14.0209113,4.59902282 14.0209113,4.01686803 C14.0209113,3.46382098 13.9282621,3.02720489 13.7120806,2.7361275 C13.4958992,2.44505011 13.1870685,2.29951141 12.8164718,2.29951141 C12.445875,2.29951141 12.1370443,2.44505011 11.951746,2.7361275 L11.951746,2.7361275 Z M13.3106008,3.08542037 C13.40325,3.28917455 13.4650161,3.60935968 13.4650161,4.04597577 C13.4650161,4.48259186 13.40325,4.80277699 13.3106008,5.00653117 C13.2179516,5.21028534 13.0326532,5.3267163 12.8164718,5.3267163 C12.6002903,5.3267163 12.4149919,5.21028534 12.3223427,5.00653117 C12.2296935,4.80277699 12.1679274,4.48259186 12.1679274,4.04597577 C12.1679274,3.60935968 12.2296935,3.28917455 12.3223427,3.08542037 C12.4149919,2.8816662 12.5694072,2.76523524 12.8164718,2.76523524 C13.0635363,2.76523524 13.2179516,2.85255846 13.3106008,3.08542037 L13.3106008,3.08542037 Z" id="Shape"></path>
                                    <path d="M9.29580241,3.5511442 C9.69728225,3.5511442 10.0061129,3.4056055 10.1914113,3.11452811 C10.3767097,2.82345072 10.5002419,2.38683463 10.5002419,1.80467984 C10.5002419,1.25163279 10.4075927,0.815016702 10.1914113,0.523939308 C9.97522983,0.232861915 9.69728225,0.087323218 9.29580241,0.087323218 C8.89432257,0.087323218 8.61637499,0.232861915 8.40019354,0.523939308 C8.21489515,0.815016702 8.09136289,1.25163279 8.09136289,1.83378758 C8.09136289,2.38683463 8.18401209,2.82345072 8.40019354,3.14363585 C8.61637499,3.4056055 8.89432257,3.5511442 9.29580241,3.5511442 L9.29580241,3.5511442 Z M8.80167338,0.844124441 C8.89432257,0.640370266 9.04873789,0.523939308 9.29580241,0.523939308 C9.72816531,0.523939308 9.94434676,0.960555398 9.94434676,1.80467984 C9.94434676,2.67791202 9.72816531,3.08542037 9.29580241,3.08542037 C9.07962096,3.08542037 8.92520564,2.96898941 8.80167338,2.76523524 C8.67814112,2.56148106 8.64725806,2.24129593 8.64725806,1.80467984 C8.64725806,1.36806375 8.70902418,1.04787862 8.80167338,0.844124441 L8.80167338,0.844124441 Z" id="Shape"></path>
                                    <path d="M5.1265887,7.97552058 L4.53981048,7.97552058 L4.16921371,9.75109268 L2.872125,9.75109268 L3.21183871,7.97552058 L2.62506048,7.97552058 L2.28534677,9.75109268 L0.988258063,9.75109268 L0.988258063,10.275032 L2.16181451,10.275032 L1.91475,11.6430957 L0.679427419,11.6430957 L0.679427419,12.167035 L1.79121774,12.167035 L1.45150403,13.9134994 L2.03828226,13.9134994 L2.37799597,12.167035 L3.70596774,12.167035 L3.33537096,13.9134994 L3.92214919,13.9134994 L4.29274596,12.167035 L5.62071774,12.167035 L5.62071774,11.6430957 L4.41627822,11.6430957 L4.6942258,10.275032 L5.92954838,10.275032 L5.92954838,9.75109268 L4.786875,9.75109268 L5.1265887,7.97552058 L5.1265887,7.97552058 Z M3.79861693,11.6430957 L2.50152822,11.6430957 L2.7794758,10.275032 L4.07656451,10.275032 L3.79861693,11.6430957 L3.79861693,11.6430957 Z" id="Shape"></path>
                                    <path d="M13.5885484,10.9736177 L12.909121,10.9736177 C12.8473548,11.2355874 12.7855887,11.4684493 12.6929395,11.6722035 C12.6002903,11.8759577 12.4767581,12.0797118 12.3223427,12.2252505 L10.6546572,10.7407558 C11.0870201,10.5078939 11.3958508,10.275032 11.5811492,10.0421701 C11.7664476,9.80930816 11.8590968,9.54733851 11.8590968,9.28536885 C11.8590968,8.90696824 11.7355645,8.61589085 11.4885,8.38302893 C11.2414355,8.17927476 10.9017218,8.0628438 10.4384758,8.0628438 C9.97522983,8.0628438 9.60463305,8.17927476 9.32668547,8.38302893 C9.04873789,8.58678311 8.92520564,8.90696824 8.92520564,9.28536885 C8.92520564,9.43090755 8.9560887,9.57644624 8.98697176,9.6928772 C9.04873789,9.8384159 9.11050402,9.95484686 9.17227015,10.0712778 C9.26491935,10.1877088 9.41933467,10.3914629 9.63551612,10.6243249 C9.14138709,10.8862945 8.80167338,11.1482642 8.61637499,11.4102338 C8.4310766,11.6722035 8.33842741,11.9632809 8.33842741,12.283466 C8.33842741,12.7491898 8.49284273,13.1275904 8.83255644,13.4186678 C9.14138709,13.6806375 9.60463305,13.8261762 10.1914113,13.8261762 C10.5928911,13.8261762 10.9634879,13.7679607 11.3032016,13.6515298 C11.6429153,13.5350988 11.951746,13.3313446 12.2914597,13.069375 L13.0326532,13.738853 L13.9591451,13.738853 L12.7547056,12.6327589 C13.1253024,12.2543583 13.40325,11.7013112 13.5885484,10.9736177 L13.5885484,10.9736177 Z M9.60463305,9.28536885 C9.60463305,9.08161468 9.66639918,8.90696824 9.82081451,8.79053728 C9.97522983,8.67410632 10.1605282,8.61589085 10.4075927,8.61589085 C10.6546572,8.61589085 10.8399556,8.67410632 10.9634879,8.79053728 C11.1179032,8.90696824 11.1796693,9.08161468 11.1796693,9.28536885 C11.1796693,9.48912303 11.1179032,9.6928772 10.9634879,9.8384159 C10.8399556,10.0130623 10.5928911,10.1877088 10.2222943,10.3623552 C9.97522983,10.1294933 9.82081451,9.95484686 9.72816531,9.78020042 C9.63551612,9.63466172 9.60463305,9.46001529 9.60463305,9.28536885 L9.60463305,9.28536885 Z M10.2222943,13.2731291 C9.88258063,13.2731291 9.60463305,13.1858059 9.3884516,13.0111595 C9.17227015,12.8365131 9.07962096,12.6036511 9.07962096,12.3125737 C9.07962096,12.1379273 9.11050402,11.9923886 9.17227015,11.8759577 C9.23403628,11.7595267 9.32668547,11.613988 9.45021773,11.497557 C9.57374999,11.3811261 9.78993144,11.2355874 10.0987621,11.060941 L11.8590968,12.6909744 C11.4267339,13.069375 10.8708387,13.2731291 10.2222943,13.2731291 L10.2222943,13.2731291 Z" id="Shape"></path>
                                </g>
                            </g>
                            <g id="Karma-Packs" transform="translate(238.112916, 20.692607)">
                                <polygon id="Star-1" stroke="#4F555D" points="9.02057564 12.7530364 3.71841431 15.3803064 4.73103702 9.81565929 0.441498397 5.8747543 6.36949497 5.06288322 9.02057564 0 11.6716563 5.06288322 17.5996529 5.8747543 13.3101143 9.81565929 14.322737 15.3803064 "></polygon>
                                <path d="M11.5442111,6.18329039 L10.045574,6.18329039 L8.59636666,8.02529845 L8.59636666,6.18329039 L7.38047098,6.18329039 L7.38047098,10.6672928 L8.59636666,10.6672928 L8.59636666,9.35639141 L8.91448535,8.97993073 L10.1516136,10.6672928 L11.6432245,10.6672928 L9.71331058,8.280756 L11.5442111,6.18329039" id="Fill-5" fill="#4F555D"></path>
                            </g>
                            <g id="Close" transform="translate(15.845932, 23.413254)">
                                <rect id="Rectangle-21" fill="#4F555D" x="0" y="0" width="11.5463368" height="10.8825911" rx="4"></rect>
                                <g id="Line-Copy-+-Line-Copy-2" transform="translate(3.608230, 3.400810)" stroke="#FFFFFF" stroke-linecap="round">
                                    <path d="M4.70455655,0 L0,4.43411326" id="Line-Copy"></path>
                                    <path d="M4.70455655,4.43411326 L0,0" id="Line-Copy-2"></path>
                                </g>
                            </g>
                        </g>
                        <path d="M248.7,11.75 L248.7,0.5 L244.3,0.5 L244.3,11.75 L241,11.75 L246.5,18.5 L252,11.75 L248.7,11.75 Z" id="Rectangle-118" fill="#1FC37B"></path>
                    </g>
                </g>
            </g>
        </g>
    </g>
</svg>