<?xml version="1.0" encoding="UTF-8" standalone="no"?><svg width="333" height="285" viewBox="0 0 333 285" xmlns="http://www.w3.org/2000/svg" xmlns:xlink="http://www.w3.org/1999/xlink"><svg viewBox="0 0 47.5 47.5" enable-background="new 0 0 47.5 47.5" width="47.5" height="47.5" id="emoji-activity-1f3a4" x="47.5"><defs><clipPath id="aaa"><path d="M0 38h38V0H0v38z"/></clipPath></defs><g transform="matrix(1.25 0 0 -1.25 0 47.5)"><g><g clip-path="url(#aaa)"><g transform="translate(36.999 25.082)"><path d="M0 0c0-3.803-3.082-6.885-6.885-6.885-3.802 0-6.884 3.082-6.884 6.885 0 3.802 3.083 6.884 6.885 6.884C-3.082 6.884 0 3.802 0 0" fill="#939598"/></g><g transform="translate(33.81 18.432)"><path d="M0 0c-.336-.336-.88-.336-1.217 0l-9.127 9.128c-.336.336-.336.88 0 1.217l1.217 1.217c.336.336.88.336 1.217 0l9.127-9.128c.336-.336.336-.88 0-1.217L0 0z" fill="#58595b"/></g><g transform="translate(27.739 18.296)"><path d="M0 0l-4.325 4.327c-.78.778-1.995.733-2.72-.1L-16.2-6.35c-1.22-1.407-1.462-3.352-.71-4.73l-4.912-4.91 1.41-1.41 4.876 4.877c1.382-.84 3.41-.61 4.863.648L-.1-2.718C.73-1.994.78-.778 0 0" fill="#414042"/></g><g transform="translate(5 31)"><path d="M0 0v-8.122C-.314-8.047-.648-8-1-8c-1.657 0-3-.895-3-2 0-1.104 1.343-2 3-2 1.656 0 3 .896 3 2v6.11l5-2.22v-5.012c-.314.075-.648.122-1 .122-1.657 0-3-.895-3-2 0-1.104 1.343-2 3-2 1.656 0 3 .896 3 2v9L0 0z" fill="#55acee"/></g><g transform="translate(19 36)"><path d="M0 0v-8.123C-.314-8.048-.647-8-1-8c-1.657 0-3-.895-3-2 0-1.104 1.343-2 3-2 1.656 0 3 .896 3 2V0H0z" fill="#55acee"/></g></g></g></g></svg><svg viewBox="0 0 47.5 47.5" enable-background="new 0 0 47.5 47.5" width="47.5" height="47.5" id="emoji-activity-1f3a5" x="47.5" y="190"><defs><clipPath id="aba"><path d="M0 38h38V0H0v38z"/></clipPath></defs><g transform="matrix(1.25 0 0 -1.25 0 47.5)"><g><g clip-path="url(#aba)"><g transform="translate(25 26)"><path d="M0 0c0-3.866-3.135-7-7-7-3.867 0-7 3.134-7 7s3.133 7 7 7c3.865 0 7-3.134 7-7" fill="#58595b"/></g><g transform="translate(34.999 23)"><path d="M0 0c0-3.313-2.687-6-6-6s-6 2.687-6 6 2.687 6 6 6 6-2.687 6-6" fill="#58595b"/></g><g transform="translate(23 26)"><path d="M0 0c0-2.76-2.24-5-5-5-2.762 0-5 2.24-5 5s2.238 5 5 5c2.76 0 5-2.24 5-5" fill="#939598"/></g><g transform="translate(20 26)"><path d="M0 0c0-1.104-1-2-2-2s-2 .896-2 2 .896 2 2 2 2-.896 2-2" fill="#bcbec0"/></g><g transform="translate(31 8)"><path d="M0 0c0-2.21-1.79-4-4-4h-13c-2.21 0-4 1.79-4 4v8c0 2.21 1.79 4 4 4h13c2.21 0 4-1.79 4-4V0z" fill="#58595b"/></g><path d="M24 19h-3v3h3v-3z" fill="#58595b"/><g transform="translate(32.999 23)"><path d="M0 0c0-2.21-1.79-4-4-4s-4 1.79-4 4 1.79 4 4 4 4-1.79 4-4" fill="#939598"/></g><g transform="translate(30.999 23)"><path d="M0 0c0-1.104-.896-2-2-2s-2 .896-2 2 .896 2 2 2 2-.896 2-2" fill="#bcbec0"/></g><g transform="translate(10.999 16)"><path d="M0 0h-2l-6 4h-1v-14h1l6 4h2c1.657 0 3 1.343 3 3S1.657 0 0 0" fill="#58595b"/></g><g transform="translate(33 16)"><path d="M0 0v-1h-5c-1.104 0-2-.896-2-2s.896-2 2-2h5v-1h3v6H0z" fill="#58595b"/></g><path d="M28 7H18v10h10V7z" fill="#808285"/><path d="M26 9h-6v6h6V9z" fill="#58595b"/><g transform="translate(15.999 9)"><path d="M0 0c0-1.104-.896-2-2-2s-2 .896-2 2 .896 2 2 2 2-.896 2-2" fill="#808285"/></g></g></g></g></svg><svg viewBox="0 0 47.5 47.5" enable-background="new 0 0 47.5 47.5" width="47.5" height="47.5" id="emoji-activity-1f3a7" y="47.5"><defs><clipPath id="aca"><path d="M0 38h38V0H0v38z"/></clipPath></defs><g transform="matrix(1.25 0 0 -1.25 0 47.5)"><g><g clip-path="url(#aca)"><g transform="translate(19 37)"><path d="M0 0c-8.284 0-15-6.716-15-15v-9h3v9C-12-8-6.73-2.813 0-2.813S12-8 12-15v-10l3 1v9C15-6.716 8.284 0 0 0" fill="#66757f"/></g><g transform="translate(7 10)"><path d="M0 0c0-1.104-.896-2-2-2h-2c-1.104 0-2 .896-2 2v9c0 1.104.896 2 2 2h2c1.104 0 2-.896 2-2V0z" fill="#292f33"/></g><g transform="translate(37 10)"><path d="M0 0c0-1.104-.896-2-2-2h-2c-1.104 0-2 .896-2 2v9c0 1.104.896 2 2 2h2c1.104 0 2-.896 2-2V0z" fill="#292f33"/></g><g transform="translate(20.182 26.984)"><path d="M0 0l-6.364-1.313c-.45-.093-.818-.544-.818-1.003V-18.5c-.637.226-1.34.36-2.087.36-2.784 0-5.042-1.755-5.042-3.922 0-2.165 2.258-3.827 5.043-3.827 2.738 0 5.01 1.906 5.088 3.906v15.61l4.204.872c.45.093.796.545.796 1.004v3.83C.818-.207.45.093 0 0" fill="#55acee"/></g><g transform="translate(28.182 23.832)"><path d="M0 0l-4.297-.865c-.45-.093-.885-.544-.885-1.003v-11.405c0 .152-.878.24-1.4.24-2.024 0-3.633-1.276-3.633-2.85 0-1.575 1.658-2.853 3.683-2.853s3.677 1.278 3.677 2.852c0 .42-.117.816-.327 1.176V-4.65L0-4c.45.092.818.543.818 1.002v2.33C.818-.207.45.093 0 0" fill="#55acee"/></g></g></g></g></svg><svg viewBox="0 0 47.5 47.5" enable-background="new 0 0 47.5 47.5" width="47.5" height="47.5" id="emoji-activity-1f3a8" x="47.5" y="47.5"><defs><clipPath id="ada"><path d="M0 38h38V0H0v38z"/></clipPath></defs><g transform="matrix(1.25 0 0 -1.25 0 47.5)"><g><g clip-path="url(#ada)"><g transform="translate(21.849 9.41)"><path d="M0 0c-.395-1.346-2.46-1.924-4.613-1.29C-6.766-.66-8.19.942-7.796 2.29c.395 1.346 2.46 1.924 4.613 1.29C-1.03 2.95.397 1.347 0 0m-2.85 24.447c-9.94 0-18-6.908-18-15.428 0-1.068.128-2.11.368-3.114 1.78-3.06 3.01-1.128 8.633 1.684 5.728 2.864 0-4-2-8-.614-1.23-.28-2.272.56-3.124C-10.342-5.338-6.744-6.41-2.85-6.41c9.943 0 18 6.907 18 15.43 0 8.52-8.057 15.427-18 15.427" fill="#d99e82"/></g><g transform="translate(14 26)"><path d="M0 0c0-1.657-1.343-3-3-3s-3 1.343-3 3 1.343 3 3 3 3-1.343 3-3" fill="#5c913b"/></g><g transform="translate(24 28)"><path d="M0 0c0-1.657-1.344-3-3-3-1.657 0-3 1.343-3 3s1.343 3 3 3c1.656 0 3-1.343 3-3" fill="#269"/></g><g transform="translate(33 22)"><path d="M0 0c0-1.657-1.344-3-3-3s-3 1.343-3 3 1.344 3 3 3 3-1.343 3-3" fill="#dd2e44"/></g><g transform="translate(32 13)"><path d="M0 0c0-1.656-1.344-3-3-3s-3 1.344-3 3 1.344 3 3 3 3-1.344 3-3" fill="#ffcc4d"/></g></g></g></g></svg><svg viewBox="0 0 47.5 47.5" enable-background="new 0 0 47.5 47.5" width="47.5" height="47.5" id="emoji-activity-1f3ac" x="95"><defs><clipPath id="aea"><path d="M0 38h38V0H0v38z"/></clipPath></defs><g transform="matrix(1.25 0 0 -1.25 0 47.5)"><g><g clip-path="url(#aea)"><g transform="translate(36 5)"><path d="M0 0c0-2.2-1.8-4-4-4h-26c-2.2 0-4 1.8-4 4v13c0 2.2 1.8 4 4 4h26c2.2 0 4-1.8 4-4V0z" fill="#3f7123"/></g><path d="M36 16H2v6h34v-6z" fill="#3f7123"/><path d="M36 15H2v7h34v-7z" fill="#ccd6dd"/><g transform="translate(27 22)"><path d="M0 0l-4-7h7l4 7H0zm-14 0l-4-7h7l4 7h-7zm-11 0h4l-4-7v7z" fill="#292f33"/></g><g transform="translate(34.994 30.207)"><path d="M0 0l-32.994-8.208-1.69 6.793L-1.69 6.793 0 0z" fill="#ccd6dd"/></g><g transform="translate(33.054 29.725)"><path d="M0 0l-5.572 5.828-6.793-1.69 5.572-5.827L0 0zm-13.586-3.38l-5.572 5.828-6.793-1.69 5.57-5.827 6.794 1.69zM-32.744-.93l5.572-5.827-3.882-.965-1.69 6.793z" fill="#292f33"/></g></g></g></g></svg><svg viewBox="0 0 47.5 47.5" enable-background="new 0 0 47.5 47.5" width="47.5" height="47.5" id="emoji-activity-1f3ad" x="95" y="47.5"><defs><clipPath id="afa"><path d="M0 38h38V0H0v38z"/></clipPath></defs><g transform="matrix(1.25 0 0 -1.25 0 47.5)"><g><g clip-path="url(#afa)"><g transform="translate(23 32.413)"><path d="M0 0c0-6.075-3.667-18.333-11-18.333S-22-6.075-22 0c0 7.18 8.25 3.667 11 3.667C-8.288 3.667 0 7.22 0 0" fill="#a6d388"/></g><g transform="translate(6.5 25.08)"><path d="M0 0c4.583-2.75 7.333-2.75 11 0 2.75 1.833-1.833-6.417-5.5-6.417S-2.75 1.833 0 0" fill="#5c913b"/></g><g transform="translate(4.666 28.746)"><path d="M0 0c-.138 0-.278.03-.41.097-.452.227-.636.777-.41 1.23.637 1.273 1.934 2.15 3.304 2.236.84.046 2.458-.156 3.78-2.138.28-.42.166-.99-.255-1.27-.424-.28-.992-.168-1.272.254-.61.914-1.355 1.372-2.14 1.322C1.868 1.687 1.17 1.206.82.507.66.187.336 0 0 0" fill="#5c913b"/></g><g transform="translate(19.334 28.746)"><path d="M0 0c-.336 0-.66.186-.82.507-.35.7-1.048 1.18-1.778 1.225-.776.042-1.53-.408-2.14-1.323-.282-.423-.85-.536-1.27-.256-.422.28-.536.85-.255 1.27 1.32 1.984 2.93 2.187 3.78 2.14C-1.114 3.476.182 2.6.818 1.326 1.045.874.86.324.41.097.278.03.138 0 0 0" fill="#5c913b"/></g><g transform="translate(37 19.334)"><path d="M0 0c0-6.075-3.667-18.333-11-18.333S-22-6.075-22 0c0 7.18 8.25 3.667 11 3.667C-8.287 3.667 0 7.22 0 0" fill="#cbb7ea"/></g><g transform="translate(30.5 6.849)"><path d="M0 0c-3.5 2.15-5.5 2.15-9 0-2.75-1.833.833 4.417 4.5 4.417S2.75-1.833 0 0" fill="#9266cc"/></g><g transform="translate(18 15.083)"><path d="M0 0c-.138 0-.278.03-.41.097-.452.226-.636.777-.41 1.23.7 1.4 2.404 2.49 4.052 2.592 1.49.1 2.814-.586 3.698-1.91.28-.423.167-.99-.254-1.273-.42-.28-.99-.167-1.27.254-.523.783-1.216 1.15-2.06 1.1C2.226 2.02 1.182 1.23.82.507.66.187.336 0 0 0" fill="#9266cc"/></g><g transform="translate(34.001 15.083)"><path d="M0 0c-.337 0-.66.186-.82.508-.362.722-1.405 1.512-2.526 1.582-.84.047-1.54-.317-2.06-1.1-.28-.42-.85-.534-1.27-.253-.422.282-.536.85-.255 1.272.883 1.324 2.187 2.008 3.7 1.91C-1.584 3.815.12 2.725.82 1.325 1.044.874.86.323.407.096.278.032.138 0 0 0" fill="#9266cc"/></g></g></g></g></svg><svg viewBox="0 0 47.5 47.5" enable-background="new 0 0 47.5 47.5" width="47.5" height="47.5" id="emoji-activity-1f3ae" y="95"><defs><clipPath id="aga"><path d="M0 38h38V0H0v38z"/></clipPath></defs><g transform="matrix(1.25 0 0 -1.25 0 47.5)"><g><g clip-path="url(#aga)"><g transform="translate(29 11)"><path d="M0 0c0-2.762-2.238-5-5-5s-5 2.238-5 5 2.238 5 5 5 5-2.238 5-5" fill="#292f33"/></g><g transform="translate(19 11)"><path d="M0 0c0-2.762-2.24-5-5-5s-5 2.238-5 5 2.24 5 5 5 5-2.238 5-5" fill="#292f33"/></g><path d="M27 10H11v16h16V10z" fill="#292f33"/><g transform="translate(19 18)"><path d="M0 0c0 4.418-3.582 8-8 8-4.11 0-7.494-3.103-7.945-7.093l-.004.002-2-12.36.005-.004c-.033-.178-.055-.36-.055-.546 0-1.657 1.343-3 3-3 .68 0 1.3.234 1.803.616l.01-.006 10.156 8.127c.058.047.118.093.176.142l.072.057-.006.002C-1.083-4.595 0-2.426 0 0" fill="#292f33"/></g><g transform="translate(19 18)"><path d="M0 0c0 4.418 3.582 8 8 8 4.11 0 7.494-3.103 7.945-7.093l.004.002 2-12.36-.005-.004c.033-.178.055-.36.055-.546 0-1.657-1.343-3-3-3-.68 0-1.3.234-1.803.616l-.01-.006L3.032-6.263c-.058.047-.118.093-.176.142l-.072.057.005.002C1.084-4.595 0-2.426 0 0" fill="#292f33"/></g><g transform="translate(23 19)"><path d="M0 0c0-2.76 2.24-5 5-5 2.762 0 5 2.24 5 5S7.762 5 5 5C2.24 5 0 2.76 0 0" fill="#f18f26"/></g><g transform="translate(27 11)"><path d="M0 0c0-1.657-1.343-3-3-3s-3 1.343-3 3 1.343 3 3 3 3-1.343 3-3" fill="#67757f"/></g><g transform="translate(17 11)"><path d="M0 0c0-1.657-1.343-3-3-3s-3 1.343-3 3 1.343 3 3 3 3-1.343 3-3" fill="#67757f"/></g><g transform="translate(5 19)"><path d="M0 0c0-2.76 2.24-5 5-5 2.762 0 5 2.24 5 5S7.762 5 5 5C2.24 5 0 2.76 0 0" fill="#67757f"/></g><g transform="translate(29 21.5)"><path d="M0 0c0-.83-.672-1.5-1.5-1.5S-3-.83-3 0s.672 1.5 1.5 1.5S0 .83 0 0" fill="#f18f26"/></g><g transform="translate(32 18.5)"><path d="M0 0c0-.828-.672-1.5-1.5-1.5S-3-.828-3 0s.672 1.5 1.5 1.5S0 .828 0 0" fill="#f18f26"/></g><g transform="translate(19 26)"><path d="M0 0c-.552 0-1 .448-1 1 0 2.025-.545 2.795-1.07 3.54C-2.507 5.155-3 5.853-3 7c0 2.588 2.448 3.843 2.552 3.895.493.25 1.093.047 1.342-.447.247-.494.047-1.094-.447-1.342C.437 9.102-1 8.342-1 7c0-.49.172-.755.562-1.306C.168 4.836 1 3.66 1 1 1 .448.552 0 0 0" fill="#292f33"/></g><g transform="translate(25 26)"><path d="M0 0c0-1.104-.896-2-2-2h-8c-1.104 0-2 .896-2 2s.896 2 2 2h8c1.104 0 2-.896 2-2" fill="#292f33"/></g></g></g></g></svg><svg viewBox="0 0 47.5 47.5" enable-background="new 0 0 47.5 47.5" width="47.5" height="47.5" id="emoji-activity-1f3af" x="47.5" y="95"><defs><clipPath id="aha"><path d="M0 38h38V0H0v38z"/></clipPath></defs><g transform="matrix(1.25 0 0 -1.25 0 47.5)"><g><g clip-path="url(#aha)"><g transform="translate(37 19)"><path d="M0 0c0-9.94-8.06-18-18-18S-36-9.94-36 0s8.06 18 18 18S0 9.94 0 0" fill="#ccd6dd"/></g><g transform="translate(33 19)"><path d="M0 0c0-7.732-6.268-14-14-14S-28-7.732-28 0s6.268 14 14 14S0 7.732 0 0" fill="#3b88c3"/></g><g transform="translate(29 19)"><path d="M0 0c0-5.522-4.478-10-10-10-5.523 0-10 4.478-10 10 0 5.523 4.477 10 10 10C-4.478 10 0 5.523 0 0" fill="#dd2e44"/></g><g transform="translate(25 19)"><path d="M0 0c0-3.313-2.687-6-6-6-3.314 0-6 2.687-6 6 0 3.314 2.686 6 6 6 3.313 0 6-2.686 6-6" fill="#ffac33"/></g><g transform="translate(35.864 7.801)"><path d="M0 0c-.42-.306-1.257-.592-1.934-.592-1.964 0-4.654.717-6.334 2.386l-2.954 3.872c-.274.275-.357.575-.21.932.148.36-.73.6-.342.6h5.057c1.867 0 4.308-1.255 5.925-3.016l.37-.35C.353 2.987.763 2.2.762 1.444.763.823.49.357 0 0"/></g><g transform="translate(29.305 1.796)"><path d="M0 0c-.77 0-1.632.417-2.49 1.204l-.49.378c-1.792 1.646-3.325 4.13-3.325 6.032v5.164c0 .396.5-.513.866-.363.364.15.916.066 1.196-.214l3.166-3.123c1.7-1.71 3.06-4.62 3.06-6.62 0-.69-.14-1.255-.45-1.682C1.165.275.633 0 0 0"/></g><g transform="translate(32.345 5.036)"><path d="M0 0c-.256 0-.487.122-.683.317l-14 14c-.39.39-.39 1.023 0 1.414.39.392 1.024.392 1.414 0l14-14C1.123 1.34 1.11.696.72.306.523.11.256 0 0 0" fill="#c1694f"/></g></g></g></g></svg><svg viewBox="0 0 47.5 47.5" enable-background="new 0 0 47.5 47.5" width="47.5" height="47.5" id="emoji-activity-1f3b0" x="95" y="95"><defs><clipPath id="aia"><path d="M0 38h38V0H0v38z"/></clipPath></defs><g transform="matrix(1.25 0 0 -1.25 0 47.5)"><g><g clip-path="url(#aia)"><g transform="translate(37 10)"><path d="M0 0c0-2.21-1.79-4-4-4h-28c-2.21 0-4 1.79-4 4v18c0 2.21 1.79 4 4 4h28c2.21 0 4-1.79 4-4V0z" fill="#292f33"/></g><g transform="translate(12 13)"><path d="M0 0c0-2.21-.79-3-3-3h-4c-2.21 0-3 .79-3 3v12c0 2.21.79 3 3 3h4c2.21 0 3-.79 3-3V0z" fill="#ccd6dd"/></g><g transform="translate(24 13)"><path d="M0 0c0-2.21-.79-3-3-3h-4c-2.21 0-3 .79-3 3v12c0 2.21.79 3 3 3h4c2.21 0 3-.79 3-3V0z" fill="#ccd6dd"/></g><g transform="translate(36 13)"><path d="M0 0c0-2.21-.79-3-3-3h-4c-2.21 0-3 .79-3 3v12c0 2.21.79 3 3 3h4c2.21 0 3-.79 3-3V0z" fill="#ccd6dd"/></g><path d="M12 14H2v10h10V14z" fill="#e1e8ed"/><path d="M24 14H14v10h10V14z" fill="#e1e8ed"/><path d="M36 14H26v10h10V14z" fill="#e1e8ed"/><g transform="translate(31.795 21.315)"><path d="M0 0h-2.816c-.594 0-.814.385-.814.76 0 .384.21.758.814.758h3.983c.562 0 .792-.506.792-.792 0-.22-.122-.45-.254-.726l-2.728-5.545c-.308-.616-.43-.836-.925-.836-.605 0-.912.462-.912.78 0 .133.034.23.11.385L0 0z" fill="#be1931"/></g><g transform="translate(19.795 21.315)"><path d="M0 0h-2.816c-.594 0-.814.385-.814.76 0 .384.21.758.814.758h3.983c.56 0 .79-.506.79-.792 0-.22-.12-.45-.25-.726l-2.73-5.545c-.308-.616-.43-.836-.924-.836-.605 0-.913.462-.913.78 0 .133.033.23.11.385L0 0z" fill="#be1931"/></g><g transform="translate(7.795 21.315)"><path d="M0 0h-2.816c-.594 0-.814.385-.814.76 0 .384.21.758.814.758h3.983c.56 0 .79-.506.79-.792 0-.22-.12-.45-.25-.726l-2.73-5.545c-.308-.616-.43-.836-.924-.836-.605 0-.913.462-.913.78 0 .133.033.23.11.385L0 0z" fill="#be1931"/></g><g transform="translate(4.061 28)"><path d="M0 0c-.04-.162-.06-.33-.06-.5 0-1.38 1.343-2.5 3-2.5 1.656 0 3 1.12 3 2.5 0 .17-.022.338-.06.5H0z" fill="#9266cc"/></g><g transform="translate(16.061 28)"><path d="M0 0c-.04-.162-.06-.33-.06-.5 0-1.38 1.343-2.5 3-2.5 1.656 0 3 1.12 3 2.5 0 .17-.022.338-.06.5H0z" fill="#9266cc"/></g><g transform="translate(28.061 28)"><path d="M0 0c-.04-.162-.06-.33-.06-.5 0-1.38 1.343-2.5 3-2.5 1.656 0 3 1.12 3 2.5 0 .17-.022.338-.06.5H0z" fill="#9266cc"/></g><g transform="translate(9.816 10)"><path d="M0 0c.11.157.184.324.184.5 0 .828-1.344 1.5-3 1.5-1.657 0-3-.672-3-1.5 0-.176.072-.343.183-.5H0z" fill="#f4900c"/></g><g transform="translate(21.816 10)"><path d="M0 0c.11.157.184.324.184.5 0 .828-1.344 1.5-3 1.5-1.657 0-3-.672-3-1.5 0-.176.072-.343.183-.5H0z" fill="#f4900c"/></g><g transform="translate(33.816 10)"><path d="M0 0c.11.157.184.324.184.5 0 .828-1.344 1.5-3 1.5-1.657 0-3-.672-3-1.5 0-.176.072-.343.183-.5H0z" fill="#f4900c"/></g></g></g></g></svg><svg viewBox="0 0 47.5 47.5" enable-background="new 0 0 47.5 47.5" width="47.5" height="47.5" id="emoji-activity-1f3b1" x="142.5"><defs><clipPath id="aja"><path d="M0 38h38V0H0v38z"/></clipPath></defs><g transform="matrix(1.25 0 0 -1.25 0 47.5)"><g><g clip-path="url(#aja)"><g transform="translate(19 1)"><path d="M0 0c-9.94 0-18 8.06-18 18s8.06 18 18 18 18-8.06 18-18S9.94 0 0 0" fill="#292f33"/></g><g transform="translate(28 19)"><path d="M0 0c0-4.97-4.03-9-9-9s-9 4.03-9 9 4.03 9 9 9 9-4.03 9-9" fill="#e1e8ed"/></g><g transform="translate(17.779 22.07)"><path d="M0 0c0-.79.457-1.336 1.266-1.336.808 0 1.283.545 1.283 1.336 0 .756-.458 1.336-1.284 1.336C.44 1.336 0 .756 0 0m-.334-5.098c0-.896.527-1.757 1.6-1.757 1.002 0 1.6.86 1.6 1.757 0 1.108-.634 1.758-1.6 1.758-1.02 0-1.6-.773-1.6-1.758m-2.742-.175c0 1.406.773 2.443 1.88 3.04C-2.02-1.634-2.53-.825-2.53.282c0 2.058 1.704 3.376 3.796 3.376 2.04 0 3.814-1.3 3.814-3.375 0-.983-.492-1.967-1.353-2.512 1.195-.598 1.88-1.688 1.88-3.04 0-2.445-1.986-4.01-4.34-4.01-2.427 0-4.343 1.653-4.343 4.01" fill="#292f33"/></g></g></g></g></svg><svg viewBox="0 0 47.5 47.5" enable-background="new 0 0 47.5 47.5" width="47.5" height="47.5" id="emoji-activity-1f3b2" x="142.5" y="47.5"><defs><clipPath id="aka"><path d="M0 38h38V0H0v38z"/></clipPath></defs><g transform="matrix(1.25 0 0 -1.25 0 47.5)"><g><g clip-path="url(#aka)"><g transform="translate(5 26)"><path d="M0 0v-12.375c0-2.042 1.093-2.484 1.093-2.484l11.574-9.098C14.487-25.39 14-22.375 14-22.375V-11L0 0z" fill="#a0041e"/></g><g transform="translate(33 26)"><path d="M0 0v-12.375c0-2.042-1.063-2.484-1.063-2.484s-9.767-7.666-11.588-9.098C-14.475-25.39-14-22.375-14-22.375V-11L0 0z" fill="#dd2e44"/></g><g transform="translate(20.289 36.5)"><path d="M0 0c-.753.61-1.988.61-2.742 0l-11.982-9.53c-.754-.61-.754-1.606 0-2.215L-2.7-21.392c.754-.61 1.988-.61 2.742 0l12.104 9.73c.753.61.753 1.607 0 2.217L0 0z" fill="#ea596e"/></g><g transform="translate(22.416 26)"><path d="M0 0c0-1.29-1.306-2.333-2.916-2.333-1.61 0-2.916 1.044-2.916 2.333 0 1.29 1.305 2.333 2.916 2.333C-1.306 2.333 0 1.29 0 0" fill="#fff"/></g><g transform="translate(29.544 16.467)"><path d="M0 0c-.872 0-1.375.902-1.123 2.017C-.873 3.13.04 4.033.91 4.033c.874 0 1.377-.903 1.125-2.016C1.785.902.872 0 0 0" fill="#fff"/></g><g transform="translate(26.454 11.258)"><path d="M0 0c-.883 0-1.392.95-1.138 2.12C-.883 3.294.042 4.243.924 4.243c.884 0 1.392-.95 1.138-2.12C1.808.948.884 0 0 0" fill="#fff"/></g><g transform="translate(23.02 6.051)"><path d="M0 0c-.838 0-1.322.92-1.08 2.058C-.838 3.194.038 4.115.877 4.115c.84 0 1.322-.92 1.08-2.057C1.718.92.84 0 0 0" fill="#fff"/></g><g transform="translate(8.188 18.999)"><path d="M0 0c-.994 0-1.567-1.007-1.28-2.25C-.994-3.49.045-4.5 1.04-4.5c.993 0 1.566 1.008 1.28 2.25C2.032-1.006.993 0 0 0" fill="#e1e8ed"/></g><g transform="translate(13.771 11.5)"><path d="M0 0c-.994 0-1.567-1.007-1.28-2.25C-.995-3.492.044-4.5 1.04-4.5c.993 0 1.566 1.008 1.28 2.25C2.032-1.007.993 0 0 0" fill="#e1e8ed"/></g><g transform="translate(19 1.25)"><path d="M0 0c-.552 0-1 .482-1 1.078v12.927c0 .596.448 1.078 1 1.078.553 0 1-.482 1-1.078V1.078C1 .482.553 0 0 0" fill="#ea596e"/></g></g></g></g></svg><svg viewBox="0 0 47.5 47.5" enable-background="new 0 0 47.5 47.5" width="47.5" height="47.5" id="emoji-activity-1f3b4" x="142.5" y="95"><defs><clipPath id="ala"><path d="M0 38h38V0H0v38z"/></clipPath><clipPath id="alb"><path d="M24 10.102C24 7.68 21.427 5 19.005 5h-.715l4.96-2.133c1.998-.89 4.338.048 5.23 2.046l8.06 18.108c.892 2 .004 4.36-1.994 5.248L24 32.973v-22.87z"/></clipPath><clipPath id="alc"><path d="M0 38h38V0H0v38z"/></clipPath><clipPath id="ald"><path d="M5.227 37C2.893 37 1 35.107 1 32.773V11.227C1 8.893 2.893 7 5.227 7h12.545C20.108 7 22 8.893 22 11.227v21.546C22 35.107 20.108 37 17.772 37H5.227z"/></clipPath><clipPath id="ale"><path d="M0 38h38V0H0v38z"/></clipPath></defs><g transform="matrix(1.25 0 0 -1.25 0 47.5)"><g><g clip-path="url(#ala)"><g transform="translate(34.546 28.268)"><path d="M0 0l-10.546 4.705v-22.872c0-2.42-2.573-5.1-4.995-5.1h-.716l4.96-2.134c1.998-.89 4.338.047 5.23 2.045l8.06 18.108C2.887-3.25 2-.89 0 0" fill="#dd2e44"/></g></g></g><g><g clip-path="url(#alb)"><g transform="translate(30.885 10.102)"><path d="M0 0c-.99 1.98-3.96 4.95-12.87 4.95s-2.97-5.94-1.98-8.91c.99-2.97 4.248-5.94 7.63-5.94 3.384 0 6.23 0 7.22 2.97C.99-3.96 0 0 0 0"/></g></g></g><g><g clip-path="url(#alc)"><g transform="translate(22 11.227)"><path d="M0 0c0-2.335-1.893-4.228-4.228-4.228h-12.544C-19.107-4.228-21-2.335-21 0v21.545c0 2.335 1.893 4.227 4.228 4.227h12.544C-1.893 25.772 0 23.88 0 21.545V0z" fill="#dd2e44"/></g></g></g><g><g clip-path="url(#ald)"><g transform="translate(1 14)"><path d="M0 0c3 2 16 7 21 1 6.925-8.31 5-3 2-6S11-10 7-9s-8-.708-8 1.917S0 0 0 0"/></g></g></g><g><g clip-path="url(#ale)"><g transform="translate(16.795 26.588)"><path d="M0 0c0 3.488-2.828 6.315-6.315 6.315-3.488 0-6.315-2.827-6.315-6.315 0-3.487 2.827-6.316 6.315-6.316C-2.828-6.316 0-3.486 0 0" fill="#fff"/></g><g transform="translate(24 28.851)"><path d="M0 0v-10.526c2.688.265 4.795 2.506 4.795 5.263C4.795-2.505 2.688-.265 0 0" fill="#fff"/></g></g></g></g></svg><svg viewBox="0 0 47.5 47.5" enable-background="new 0 0 47.5 47.5" width="47.5" height="47.5" id="emoji-activity-1f3b5" y="142.5"><defs><clipPath id="ama"><path d="M0 38h38V0H0v38z"/></clipPath></defs><g transform="matrix(1.25 0 0 -1.25 0 47.5)"><g><g clip-path="url(#ama)"><g transform="translate(35.209 36.794)"><path d="M0 0l-22.418-2.587c-.985-.114-1.79-1.017-1.79-2.01v-18.782c-.91.37-1.926.585-3 .585-3.866 0-7-2.686-7-6 0-3.315 3.134-6 7-6 3.864 0 7 2.685 7 6v18.46l18 2.078v-13.123c-.91.37-1.926.585-3 .585-3.866 0-7-2.686-7-6 0-3.315 3.134-6 7-6 3.864 0 7 2.685 7 6V-1.597C1.79-.604.984.114 0 0" fill="#5dadec"/></g></g></g></g></svg><svg viewBox="0 0 47.5 47.5" enable-background="new 0 0 47.5 47.5" width="47.5" height="47.5" id="emoji-activity-1f3b7" x="47.5" y="142.5"><defs><clipPath id="ana"><path d="M0 38h38V0H0v38z"/></clipPath></defs><g transform="matrix(1.25 0 0 -1.25 0 47.5)"><g><g clip-path="url(#ana)"><g transform="translate(15 21)"><path d="M0 0l-5-10s-1-2 1-2c1 0 2 2 2 2L12 9s2 4 8 1V8c-3 1-4-1-4-1L1-17s-2-3-7-3c-6 0-7 5-7 8 0 2 1 4 2 6s-2 6-2 6H0z" fill="#fcab40" fill-rule="evenodd"/></g><g transform="translate(8.5 17)"><path d="M0 0c-3.46 0-7.5 1.048-7.5 4 0 2.953 4.04 4 7.5 4s7.5-1.047 7.5-4c0-2.952-4.04-4-7.5-4" fill="#fdcb58"/></g><g transform="translate(22 20)"><path d="M0 0c0-1.104-.896-2-2-2s-2 .896-2 2 .896 2 2 2 2-.896 2-2" fill="#ccd6dd"/></g><g transform="translate(25 24)"><path d="M0 0c0-1.104-.896-2-2-2s-2 .896-2 2 .896 2 2 2 2-.896 2-2" fill="#ccd6dd"/></g><g transform="translate(28 28)"><path d="M0 0c0-1.104-.896-2-2-2s-2 .896-2 2 .896 2 2 2 2-.896 2-2" fill="#ccd6dd"/></g><g transform="translate(34.998 27)"><path d="M0 0c-.3 0-.605.068-.893.21l-2 1c-.988.496-1.388 1.697-.894 2.685.493.986 1.693 1.39 2.683.895l2-1c.99-.495 1.39-1.696.895-2.684C1.44.406.735 0 0 0" fill="#9aaab4"/></g><g transform="translate(17.265 11.775)"><path d="M0 0l-1.268-1.548-6.19 5.068 1.266 1.547L0 0z" fill="#fcab40" fill-rule="evenodd"/></g></g></g></g></svg><svg viewBox="0 0 47.5 47.5" enable-background="new 0 0 47.5 47.5" width="47.5" height="47.5" id="emoji-activity-1f3b8" x="95" y="142.5"><defs><clipPath id="aoa"><path d="M0 38h38V0H0v38z"/></clipPath></defs><g transform="matrix(1.25 0 0 -1.25 0 47.5)"><g><g clip-path="url(#aoa)"><g transform="translate(25.925 18.748)"><path d="M0 0c-2.392-.797-3.19 3.19-3.19 3.19s1.09 1.09.265 2.06c1.283 1.284.533 1.926.533 1.926-2.203 2.202-5.772 2.202-7.974 0-.278-.278-.466-.527-.624-.764-.068-.098-.13-.196-.19-.296-.007-.01-.01-.02-.017-.03-.322-.536-.553-1.108-.682-1.702-.175-.36-.426-.743-.878-1.195-1.595-1.595-5.58.796-8.77-2.393-.034-.032-.052-.078-.078-.116-.107-.094-.218-.178-.32-.28-3.744-3.744-3.387-10.17.797-14.354 3.975-3.974 9.97-4.487 13.768-1.32.066.036.132.07.185.124.08.08.142.158.218.237.06.056.124.105.182.162 1.91 1.91 2.64 4.205 2.352 6.55-.076 1.117-.186 1.992.44 2.618.797.797 3.188 0 4.783 1.595C3.187-1.595 1.513.503 0 0" fill="#f18f26"/></g><g transform="translate(33.049 30.929)"><path d="M0 0l-12.14-12.142-2.123 2.12L-2.12 2.123 0 0z" fill="#642116"/></g><g transform="translate(36.204 33.815)"><path d="M0 0c.437-.438.437-1.155 0-1.593L-3.19-4.778c-.438-.438-1.155-.438-1.592 0l-2.39 2.39c-.437.437-.437 1.154 0 1.592L-3.98 2.39c.438.437 1.155.437 1.592 0L0 0z" fill="#f18f26"/></g><g transform="translate(21 17.465)"><path d="M0 0l-1.414-1.415L-4.95 2.12l1.414 1.415L0 0z" fill="#ccd6dd"/></g><g transform="translate(17.464 13.929)"><path d="M0 0l-1.414-1.414L-4.95 2.12l1.414 1.416L0 0z" fill="#ccd6dd"/></g><g transform="translate(13.928 11.808)"><path d="M0 0c.39-.39.39-1.025 0-1.414-.39-.39-1.025-.39-1.414 0L-3.536.706c-.388.39-.388 1.026 0 1.415.39.39 1.026.39 1.415 0L0 0z" fill="#642116"/></g></g></g></g></svg><svg viewBox="0 0 47.5 47.5" enable-background="new 0 0 47.5 47.5" width="47.5" height="47.5" id="emoji-activity-1f3b9" x="142.5" y="142.5"><defs><clipPath id="apa"><path d="M0 38h38V0H0v38z"/></clipPath></defs><g transform="matrix(1.25 0 0 -1.25 0 47.5)"><g><g clip-path="url(#apa)"><g transform="translate(3 1)"><path d="M0 0s-2 0-2 2v32s0 2 2 2h32.03C34 36 34 34 34 34V2s0-2-2-2H0z" fill="#292f33"/></g><g transform="translate(20 4)"><path d="M0 0s0-1 1-1h5c1 0 1 1 1 1v28H0V0z" fill="#e1e8ed"/></g><g transform="translate(29 32)"><path d="M0 0v-28s0-1 1-1h4c1 0 1 1 1 1V0H0z" fill="#e1e8ed"/></g><g transform="translate(11 4)"><path d="M0 0s0-1 1-1h5c1 0 1 1 1 1v28H0V0z" fill="#e1e8ed"/></g><g transform="translate(3 4)"><path d="M0 0s0-1 1-1h4c1 0 1 1 1 1v28H0V0z" fill="#e1e8ed"/></g><g transform="translate(31 14)"><path d="M0 0s0-1-1-1h-4c-1 0-1 1-1 1v20h6V0z" fill="#292f33"/></g><g transform="translate(22 14)"><path d="M0 0s0-1-1-1h-4c-1 0-1 1-1 1v20h6V0z" fill="#292f33"/></g><g transform="translate(13 14)"><path d="M0 0s0-1-1-1h-4c-1 0-1 1-1 1v20h6V0z" fill="#292f33"/></g></g></g></g></svg><svg viewBox="0 0 47.5 47.5" enable-background="new 0 0 47.5 47.5" width="47.5" height="47.5" id="emoji-activity-1f3ba" x="190"><defs><clipPath id="aqa"><path d="M0 38h38V0H0v38z"/></clipPath></defs><g transform="matrix(1.25 0 0 -1.25 0 47.5)"><g><g clip-path="url(#aqa)"><g transform="translate(6.622 3.949)"><path d="M0 0l-2.674 2.673 20.39 20.39c3.343 3.343 1.336 8.022 2.006 8.69.666.67 1.335.002 1.335.002l8.023-8.024c.668-.667 0-1.334 0-1.334-.67-.67-5.778.908-8.692-2.006L0 0z" fill="#fcab40"/></g><g transform="translate(6.457 3.109)"><path d="M0 0c.925.925.925 2.424 0 3.35-.924.923-2.424.923-3.35 0l.088-.087c-.37.334-.938.33-1.296-.028-.37-.368-.37-.967 0-1.336l3.11-3.11c.368-.37.967-.37 1.336 0 .355.356.36.92.032 1.29L0 0z" fill="#ccd6dd"/></g><g transform="translate(25.007 21.55)"><path d="M0 0c-.506 0-.98-.197-1.338-.554L-12.033-11.25c-.357-.357-.554-.832-.554-1.337 0-.506.197-.98.553-1.336.358-.357.832-.555 1.337-.555.506 0 .98.198 1.338.555L1.338-3.228c.737.737.736 1.937 0 2.675C.978-.197.504 0 0 0m-10.697-18.26c-1.515 0-2.94.59-4.01 1.662-1.07 1.07-1.66 2.495-1.66 4.01 0 1.516.59 2.94 1.66 4.012L-4.012 2.12C-2.94 3.19-1.516 3.78 0 3.78c1.515 0 2.94-.59 4.01-1.66 2.212-2.212 2.212-5.81 0-8.02L-6.684-16.598c-1.07-1.07-2.496-1.662-4.012-1.662" fill="#fcab40"/></g><g transform="translate(26.344 12.974)"><path d="M0 0c.736-.738 1.936-.738 2.674 0 .738.74.738 1.937 0 2.674l-8.023 8.023c-.738.74-1.934.74-2.672 0-.74-.74-.74-1.936 0-2.675L0 0z" fill="#fcab40"/></g><g transform="translate(22.332 8.963)"><path d="M0 0c.738-.738 1.937-.738 2.674 0 .738.74.738 1.936.002 2.674l-8.023 8.022c-.74.74-1.936.74-2.675 0-.738-.738-.738-1.935 0-2.675L0 0z" fill="#fcab40"/></g><g transform="translate(18.322 4.952)"><path d="M0 0c.738-.738 1.934-.738 2.673 0 .74.738.74 1.937 0 2.674l-8.02 8.02c-.74.74-1.937.74-2.675 0-.74-.736-.74-1.933 0-2.673L0 0z" fill="#fcab40"/></g><g transform="translate(15.648 23.671)"><path d="M0 0c.37-.37.968-.37 1.337 0l1.337 1.336c.37.37.37.968 0 1.338-.37.37-.967.37-1.337 0L0 1.336C-.37.966-.37.37 0 0" fill="#ccd6dd"/></g><g transform="translate(11.637 19.659)"><path d="M0 0c.37-.37.967-.37 1.337 0l1.336 1.337c.37.37.37.967 0 1.337-.368.37-.966.37-1.336 0L0 1.337C-.37.967-.37.37 0 0" fill="#ccd6dd"/></g><g transform="translate(7.625 15.648)"><path d="M0 0c.37-.37.967-.37 1.337 0l1.337 1.338c.37.37.37.967 0 1.337s-.967.37-1.337 0L0 1.337C-.37.967-.37.37 0 0" fill="#ccd6dd"/></g></g></g></g></svg><svg viewBox="0 0 47.5 47.5" enable-background="new 0 0 47.5 47.5" width="47.5" height="47.5" id="emoji-activity-1f3bb" x="190" y="47.5"><defs><clipPath id="ara"><path d="M0 38h38V0H0v38z"/></clipPath></defs><g transform="matrix(1.25 0 0 -1.25 0 47.5)"><g><g clip-path="url(#ara)"><g transform="translate(24.912 24.913)"><path d="M0 0c-1.693 1.692-3.594 2.587-5.497 2.587-1.626 0-3.19-.668-4.402-1.88-1.518-1.52-1.727-2.39-1.865-2.966-.07-.294-.105-.42-.255-.57-.105-.105-.155-.255-.14-.405.015-.15.1-.286.225-.37.013-.008.324-.22.368-.65.04-.394-.13-1.08-1.16-2.11-.63-.63-1.252-.948-1.85-.948-.98 0-1.65.87-1.653.876-.11.15-.295.227-.48.197-.186-.03-.338-.158-.397-.335-.22-.663-.25-.668-.535-.71-.59-.085-1.578-.23-3.624-2.275-1.675-1.674-2.265-3.766-1.708-6.047.395-1.618 1.408-3.36 2.708-4.66 1.408-1.408 3.803-2.912 6.3-2.912h.002c1.654 0 3.136.644 4.405 1.913 2.047 2.046 2.19 3.034 2.276 3.624.04.285.046.314.71.535.177.06.306.212.335.396.03.184-.045.37-.195.48-.008.006-.805.62-.873 1.528-.047.638.27 1.302.944 1.975.963.964 1.622 1.167 2.005 1.167.505 0 .747-.358.753-.367.08-.13.215-.216.368-.234.143-.016.303.035.412.143.15.15.275.184.57.254.576.14 1.446.348 2.965 1.867C2.994-7.61 3.663-3.663 0 0" fill="#f18f26"/></g><g transform="translate(33 32.001)"><path d="M0 0l-13.878-15L-16-12.88-1 1l1-1z" fill="#292f33"/></g><g transform="translate(35.704 34.315)"><path d="M0 0c.437-.438.437-1.155 0-1.592L-3.19-4.778c-.438-.438-1.155-.438-1.592 0l-1.39 1.39c-.437.437-.437 1.154 0 1.592L-2.98 1.39c.438.437 1.155.437 1.592 0L0 0z" fill="#f18f26"/></g><g transform="translate(35 29)"><path d="M0 0c0-.552-.447-1-1-1-.553 0-1 .448-1 1s.447 1 1 1c.553 0 1-.448 1-1" fill="#642116"/></g><g transform="translate(37 31)"><path d="M0 0c0-.553-.447-1-1-1-.553 0-1 .447-1 1 0 .553.447 1 1 1 .553 0 1-.447 1-1" fill="#642116"/></g><g transform="translate(30 34)"><path d="M0 0c0-.553-.447-1-1-1-.553 0-1 .447-1 1 0 .553.447 1 1 1 .553 0 1-.447 1-1" fill="#642116"/></g><g transform="translate(32 36)"><path d="M0 0c0-.553-.447-1-1-1-.553 0-1 .447-1 1 0 .553.447 1 1 1 .553 0 1-.447 1-1" fill="#642116"/></g><g transform="translate(3 5)"><path d="M0 0l4 5s1 0 2-1 1-2 1-2L2-2 0 0z" fill="#292f33"/></g><g transform="translate(13.999 10)"><path d="M0 0c-.256 0-.512.098-.707.293l-3 3c-.39.39-.39 1.023 0 1.414.39.39 1.023.39 1.414 0l3-3c.39-.39.39-1.023 0-1.414C.512.098.257 0 0 0" fill="#fee7b8"/></g></g></g></g></svg><svg viewBox="0 0 47.5 47.5" enable-background="new 0 0 47.5 47.5" width="47.5" height="47.5" id="emoji-activity-1f3bc" x="190" y="95"><defs><clipPath id="asa"><path d="M0 38h38V0H0v38z"/></clipPath></defs><g transform="matrix(1.25 0 0 -1.25 0 47.5)"><g transform="translate(37 32)"><path d="M0 0v2h-36v-30H0v2h-30v5H0v2h-30v5H0v2h-30v5H0v2h-30v5H0z" fill="#9aaab4"/></g><g><g clip-path="url(#asa)"><g transform="translate(19.602 18.42)"><path d="M0 0c.653.943 1.452 1.837 2.43 2.718l.34-1.74C2.053.62 1.448.08.97-.63.416-1.452.122-2.358.096-3.35c.016-.912.308-1.735.87-2.45.566-.708 1.295-1.18 2.17-1.4l.12-.03.122.03c.536.126.593.47.593.612 0 .345-.224.62-.58.72-.367.17-.636.417-.82.758-.202.368-.308.713-.308.994 0 .475.17.903.515 1.303.214.242.432.43.655.572l1.092-5.51c-.38-.08-.733-.13-1.046-.15C2.1-7.857.965-7.4.113-6.553c-.433.443-.747.907-.958 1.423-.213.517-.327 1.06-.34 1.585C-1.157-2.272-.76-1.08 0 0m4.945 11.48c-.18-.527-.43-1.057-.743-1.577-.306-.517-.63-.973-.96-1.36-.104-.125-.2-.23-.287-.32-.078.352-.128.744-.15 1.163.016.685.117 1.364.305 2.08.17.662.41 1.26.696 1.757.304.468.62.705.944.705.115 0 .196-.03.26-.087.07-.07.118-.207.15-.453.03-.134.046-.304.046-.494 0-.443-.088-.918-.26-1.414M6.103-7.16L5.057-2.01c.26-.056.502-.147.726-.277.397-.224.703-.53.946-.94.24-.388.39-.836.455-1.3 0-1.247-.355-2.116-1.08-2.633m3.12 5.178c-.222.646-.542 1.226-.947 1.722-.41.513-.925.928-1.53 1.233-.61.31-1.258.46-1.98.46-.086 0-.208-.01-.367-.027L3.87 4c.613.602 1.156 1.3 1.616 2.076.5.847.885 1.77 1.145 2.74.267.98.398 1.943.398 2.946 0 2.106-.542 3.94-1.627 5.475-.157.197-.287.344-.385.43-.395.357-.788.413-1.704-.265-.47-.352-.882-.86-1.223-1.506-.352-.644-.608-1.366-.786-2.2-.185-.826-.282-1.722-.29-2.684.04-1.352.233-2.7.575-4.013-.77-.78-1.392-1.43-1.88-1.952-.52-.57-1.04-1.222-1.54-1.943-.495-.71-.91-1.493-1.233-2.323-.318-.807-.497-1.693-.534-2.655.008-.982.196-1.944.56-2.864.366-.903.885-1.727 1.547-2.45C-.83-7.905-.047-8.475.83-8.882c1.23-.57 2.644-.75 4.02-.51.063-.288.146-.63.244-1.022.157-.648.274-1.172.35-1.56.073-.39.11-.765.11-1.122 0-.54-.06-.955-.2-1.3-.048-.203-.183-.413-.4-.62-.233-.227-.508-.402-.84-.534-.467-.183-.92-.23-1.288-.18.195.105.375.24.537.405.433.443.653.988.653 1.622 0 .447-.11.875-.328 1.282-.215.374-.508.683-.886.928-.378.224-.78.34-1.226.34H1.57c-.51-.034-.954-.195-1.3-.47-.36-.266-.647-.62-.853-1.05-.193-.407-.307-.848-.338-1.363.04-1.04.477-1.885 1.305-2.508.786-.58 1.71-.877 2.74-.877.743 0 1.435.164 2.053.487.634.327 1.148.796 1.53 1.403.37.6.558 1.29.558 2.046 0 .495-.043.96-.13 1.42-.084.457-.21 1.08-.383 1.868-.124.535-.22.987-.288 1.35.965.427 1.712 1.048 2.225 1.85.577.897.868 1.907.868 3 0 .664-.112 1.34-.332 2.014" fill="#131516"/></g></g></g></g></svg><svg viewBox="0 0 47.5 47.5" enable-background="new 0 0 47.5 47.5" width="47.5" height="47.5" id="emoji-activity-1f3c0" x="190" y="142.5"><defs><clipPath id="ata"><path d="M0 38h38V0H0v38z"/></clipPath><clipPath id="atb"><path d="M1 19C1 9.06 9.06 1 19 1s18 8.06 18 18-8.06 18-18 18S1 28.94 1 19"/></clipPath></defs><g transform="matrix(1.25 0 0 -1.25 0 47.5)"><g><g clip-path="url(#ata)"><g transform="translate(37 19)"><path d="M0 0c0-9.94-8.06-18-18-18S-36-9.94-36 0s8.06 18 18 18S0 9.94 0 0" fill="#f4900c"/></g><path d="M20 1h-2v36h2V1z" fill="#231f20"/><path d="M1 20h36v-2H1v2z" fill="#231f20"/></g></g><g><g clip-path="url(#atb)"><g transform="translate(3 31)"><path d="M0 0c-4.318 0-7-4.598-7-12s2.682-12 7-12 7 4.598 7 12S4.318 0 0 0m0-26c-4.35 0-9 3.678-9 14S-4.35 2 0 2s9-3.678 9-14-4.65-14-9-14" fill="#231f20"/></g><g transform="translate(35 31)"><path d="M0 0c-4.317 0-7-4.598-7-12s2.683-12 7-12 7 4.598 7 12S4.317 0 0 0m0-26c-4.35 0-9 3.678-9 14S-4.35 2 0 2s9-3.678 9-14-4.65-14-9-14" fill="#231f20"/></g></g></g></g></svg><svg viewBox="0 0 47.5 47.5" enable-background="new 0 0 47.5 47.5" width="47.5" height="47.5" id="emoji-activity-1f3c1" y="190"><defs><clipPath id="aua"><path d="M0 38h38V0H0v38z"/></clipPath></defs><g transform="matrix(1.25 0 0 -1.25 0 47.5)"><g><g clip-path="url(#aua)"><g transform="translate(37 14)"><path d="M0 0c0-1.104-.896-2-2-2h-30c-1.104 0-2 .896-2 2v20c0 1.104.896 2 2 2h30c1.104 0 2-.896 2-2V0z" fill="#292f33"/></g><path d="M13 28H4v8h9v-8z" fill="#e1e8ed"/><path d="M21 20h-8v8h8v-8z" fill="#e1e8ed"/><path d="M29 28h-8v8h8v-8z" fill="#e1e8ed"/><path d="M13 12H5v8h8v-8z" fill="#e1e8ed"/><path d="M29 12h-8v8h8v-8z" fill="#e1e8ed"/><path d="M37 20h-8v8h8v-8z" fill="#e1e8ed"/><g transform="translate(5 3)"><path d="M0 0c0-1.104-.896-2-2-2s-2 .896-2 2v32c0 1.104.896 2 2 2s2-.896 2-2V0z" fill="#553788"/></g></g></g></g></svg><svg viewBox="0 0 47.5 47.5" enable-background="new 0 0 47.5 47.5" width="47.5" height="47.5" id="emoji-activity-1f3c3"><defs><clipPath id="ava"><path d="M0 38h38V0H0v38z"/></clipPath></defs><g transform="matrix(1.25 0 0 -1.25 0 47.5)"><g><g clip-path="url(#ava)"><g transform="translate(15.316 32.739)"><path d="M0 0c-1.207-.267 0-2.138-.37-3.348-.252-.837 1.474-.94 1.474-.94s1.207.266 1.003-1.677C1.9-7.905 4.58-8.58 4.784-6.638c.204 1.94-1.385 2.988-.51 4.5C6.363 1.482 0 0 0 0" fill="#d99e82"/></g><g transform="translate(28.001 19)"><path d="M0 0c-.367 0-.72.202-.896.553-1.788 3.575-7.366 5.48-7.422 5.5-.523.175-.806.74-.63 1.264.174.523.734.81 1.263.632.26-.088 6.418-2.182 8.58-6.503C1.14.953.94.353.444.105.304.035.15 0 0 0" fill="#d99e82"/></g><g transform="translate(13.002 2.999)"><path d="M0 0c-.182 0-.367.025-.55.078-1.062.304-1.678 1.41-1.374 2.473l2 7c.124.435.392.815.76 1.078l7 5c.897.642 2.148.435 2.79-.465.642-.898.434-2.147-.465-2.79L3.73 7.78 1.922 1.45C1.672.574.87 0 0 0" fill="#2a6797"/></g><g transform="translate(27.998 6)"><path d="M0 0c-.3 0-.605.067-.893.21l-6 3C-7.57 3.55-7.998 4.243-7.998 5v5c0 1.104.895 2 2 2 1.104 0 2-.896 2-2V6.236L.896 3.79c.99-.495 1.39-1.696.895-2.685C1.44.405.735 0 0 0" fill="#4289c1"/></g><g transform="translate(10.645 2.99)"><path d="M0 0l3.396-1.14C3.956 1.835 2.424 1.295.44 1.96c-1.986.666-3.913.26-4.232-.69.78-.26 1.51-.506 2.844-.955L0 0" fill="#292f33"/></g><g transform="translate(29.891 6.08)"><path d="M0 0l.68 3.518c-3.025.16-2.286-1.29-2.683-3.343C-2.4-1.882-1.74-3.738-.76-3.928c.157.807.304 1.564.57 2.947.06.297.12.615.19.98" fill="#292f33"/></g><g transform="translate(25 18)"><path d="M0 0s0-2-2-2-4 1-4 1c-2 6-4 9-.152 10.914C-3.167 11.398-1 5 0 0" fill="#a0041e"/></g><g transform="translate(15.316 32.175)"><path d="M0 0c-1.316-.175-1.073 1.2-.316 1.825 1.067.884 3.52.83 4.59-.055 1.067-.885 1.067-2.656 0-3.54-.756-.625-1.07-1.77-1.07 0s-1.07 0-1.07.884C2.135 0 0 0 0 0" fill="#b39155"/></g><g transform="translate(21 32)"><path d="M0 0c0-2.21-1.79-4-4-4s-4 1.79-4 4 1.79 4 4 4 4-1.79 4-4" fill="#d99e82"/></g><g transform="translate(12 32)"><path d="M0 0s0 4 5 4c4 0 4-4 4-4s0 2-3 2C4 2 4-1 0 0" fill="#fdcb58"/></g><g transform="translate(17.143 24.515)"><path d="M0 0c-.028-.046-2.825-4.63-7.34-5.534l.005-.02c-.457-.092-.808-.476-.808-.96 0-.553.448-1 1-1 .07 0 .128.025.193.038l.004-.02c5.372 1.075 8.53 6.247 8.66 6.467L0 0z" fill="#d99e82"/></g></g></g></g></svg><svg viewBox="0 0 47.5 47.5" enable-background="new 0 0 47.5 47.5" width="47.5" height="47.5" id="emoji-activity-1f3c6" x="95" y="190"><defs><clipPath id="awa"><path d="M0 38h38V0H0v38z"/></clipPath></defs><g transform="matrix(1.25 0 0 -1.25 0 47.5)"><g><g clip-path="url(#awa)"><g transform="translate(6 32)"><path d="M0 0h6c1.104 0 2 .104 2-1v2c0 1.104-.896 2-2 2h-8C-4 3-5.583.875-5-2c0 0 1.79-9.375 1.917-9.958C-2.75-13.5-.958-15 .957-15h6.96C9.02-15 8-13.104 8-12v2c0-1.104-.896-2-2-2H2c-1.104 0-1.833 1.042-2 2-.167.958-1.583 7.333-1.583 7.333C-1.917-.75-1.103 0 0 0" fill="#ffac33"/></g><g transform="translate(31.813 32)"><path d="M0 0h-6c-1.104 0-2.813.104-2.813-1v2c0 1.104 1.71 2 2.813 2h8C4 3 5.584.875 5-2c0 0-1.633-9.42-1.77-10-.355-1.5-2.043-3-4-3h-7.146c-1.105 0-.897 1.896-.897 3v2c0-1.104 1.71-2 2.813-2h4c1.104 0 1.834 1.042 2 2 .166.958 1.584 7.333 1.584 7.333C1.916-.75 1.104 0 0 0" fill="#ffac33"/></g><g transform="translate(21.709 15)"><path d="M0 0c0 6.958-2.71 0-2.71 0s-3 6.958-3 0S-9-10-9-10H3.29S0-6.958 0 0" fill="#ffac33"/></g><g transform="translate(30 30.423)"><path d="M0 0c0-6.775-6.77-18.192-11-18.192S-22-6.775-22 0c0 5.195 1 6.32 3 6.32 1.374 0 6.025.026 8 .026l7 .002c2.917 0 4-.685 4-6.348" fill="#ffcc4d"/></g><g transform="translate(28 4)"><path d="M0 0c0-1.104.104-2-1-2h-16c-1.104 0-1 .896-1 2v1c0 1.104 1.042 2 2.083 2H-2c1.042 0 2-.896 2-2V0z" fill="#c1694f"/></g><g transform="translate(30 2.375)"><path d="M0 0c0-.76.042-1.375-1.375-1.375h-19.25C-21.917-1.375-22-.76-22 0v.25c0 .76.616 1.375 1.375 1.375h19.25C-.615 1.625 0 1.01 0 .25V0z" fill="#c1694f"/></g></g></g></g></svg><svg viewBox="0 0 47.5 47.5" enable-background="new 0 0 47.5 47.5" width="47.5" height="47.5" id="emoji-activity-1f3c8" x="142.5" y="190"><defs><clipPath id="axa"><path d="M0 38h38V0H0v38z"/></clipPath><clipPath id="axb"><path d="M8.754 29.246C1.924 22.416-.64 11.316 3.63 3.63c7.686-4.27 18.785-1.707 25.616 5.124 6.83 6.83 9.393 17.93 5.123 25.615-2.563 1.423-5.503 2.087-8.54 2.086-6.07 0-12.523-2.656-17.076-7.21"/></clipPath></defs><g transform="matrix(1.25 0 0 -1.25 0 47.5)"><g><g clip-path="url(#axa)"><g transform="translate(29.246 8.754)"><path d="M0 0c-6.83-6.83-17.93-9.393-25.615-5.123-4.27 7.685-1.708 18.785 5.123 25.615 6.83 6.83 17.93 9.393 25.615 5.123C9.393 17.93 6.83 6.83 0 0" fill="#662113"/></g></g></g><g><g clip-path="url(#axb)"><g transform="translate(27.657 27.657)"><path d="M0 0c-.39.39-1.024.39-1.415 0l-15.9-15.9c-.39-.39-.39-1.023 0-1.414.392-.39 1.024-.39 1.415 0L0-1.414C.39-1.024.39-.39 0 0" fill="#e1e8ed"/></g><g transform="translate(14.879 10.636)"><path d="M0 0c-.39-.39-1.023-.39-1.415 0l-2.828 2.83c-.39.39-.39 1.023 0 1.413.39.39 1.024.39 1.414 0L0 1.413C.39 1.024.39.394 0 0" fill="#e1e8ed"/></g><g transform="translate(18.707 14.465)"><path d="M0 0c-.39-.392-1.023-.392-1.414 0l-2.83 2.828c-.39.39-.39 1.024 0 1.414.392.39 1.025.39 1.416 0L0 1.414C.39 1.024.39.39 0 0" fill="#e1e8ed"/></g><g transform="translate(23.535 19.293)"><path d="M0 0c-.39-.39-1.023-.39-1.414 0l-2.828 2.828c-.39.39-.39 1.024 0 1.415.39.39 1.023.39 1.414 0L0 1.413C.392 1.024.39.392 0 0" fill="#e1e8ed"/></g><g transform="translate(27.364 23.121)"><path d="M0 0c-.39-.39-1.023-.39-1.414 0l-2.83 2.83c-.39.39-.39 1.023 0 1.413.39.39 1.025.39 1.415 0L0 1.415C.39 1.023.39.39 0 0" fill="#e1e8ed"/></g><g transform="translate(16.439 -2.347)"><path d="M0 0l-18.785 18.785 1.707 1.708L1.708 1.708 0 0z" fill="#e1e8ed"/></g><g transform="translate(38.639 19.854)"><path d="M0 0l-18.785 18.785 1.708 1.708L1.708 1.708 0 0z" fill="#e1e8ed"/></g></g></g></g></svg><svg viewBox="0 0 47.5 47.5" enable-background="new 0 0 47.5 47.5" width="47.5" height="47.5" id="emoji-activity-1f3c9" x="190" y="190"><defs><clipPath id="aya"><path d="M0 38h38V0H0v38z"/></clipPath><clipPath id="ayb"><path d="M9.254 28.746C2.09 21.582-.926 9.56 3.93 3.93 9.56-.928 21.58 2.09 28.745 9.253c7.164 7.164 11.23 17.088 5.324 24.816-1.886 1.627-4.49 2.37-7.387 2.37-5.752 0-12.665-2.93-17.43-7.694"/></clipPath></defs><g transform="matrix(1.25 0 0 -1.25 0 47.5)"><g><g clip-path="url(#aya)"><g transform="translate(28.746 9.254)"><path d="M0 0c-7.164-7.164-19.186-10.18-24.816-5.324-4.857 5.63-1.84 17.652 5.324 24.816 7.164 7.164 19.185 10.18 24.816 5.324C11.23 17.088 7.164 7.164 0 0" fill="#3b88c3"/></g></g></g><g><g clip-path="url(#ayb)"><g transform="translate(36.834 29.666)"><path d="M0 0c-.334-4.417-9.334-19.167-24.417-24.75-1.167-.5-1.084-2 .833-2.167 1.917-.166 13.5.167 17.5 2.417s10.75 18.917 9 20.25c-1.75 1.333 4.416 7.75 3 6.417C4.5.833 0 0 0 0" fill="#ccd6dd"/></g><g transform="translate(9.084 9.166)"><path d="M0 0c7.833 1.917 26.667 10.417 25.25 24.584-.416 1.166-8.15 6.116-21.333-4.75-7.584-6.25-8.78-14.19-8.25-18.917C-4.13-.896-1.918-.47 0 0" fill="#e1e8ed"/></g></g></g></g></svg><svg viewBox="0 0 47.5 47.5" enable-background="new 0 0 47.5 47.5" width="47.5" height="47.5" id="emoji-activity-1f3ca" x="237.5"><defs><clipPath id="aza"><path d="M0 38h38V0H0v38z"/></clipPath></defs><g transform="matrix(1.25 0 0 -1.25 0 47.5)"><g><g clip-path="url(#aza)"><g transform="translate(37 16.637)"><path d="M0 0c-1.352.427-3.842 3.363-6 3.363-3 0-3 7-4 9s-3 4-3 5-3 2-8 0-8-2-10-2-3-2-4-4 0-2 0-2c1-1 2 2 4 3s3-1 5 0c1.493.747 4.658-.178 7 .137.794.106 1.493.356 2 .863 0 0 0-8 2-11 0 0-1-1-2-4s-2 0-2 2-1 5-5 7c-1.79.895-5.658.683-7-2-2-4 0-8 2-9s3-2 7-2c1.943 0 17.813-.48 22-.364v6z" fill="#d99e82"/></g><g transform="translate(9.182 20.595)"><path d="M0 0c2.186 1.94 5.633 1.687 8.025-.472C7.31.9 6.02 2.305 3.818 3.405c-1.79.895-5.658.683-7-2-2-4 0-8 2-9 .24-.12.463-.24.68-.356C-2.313-5.33-2.165-1.927 0 0" fill="#269"/></g><g transform="translate(13 18.5)"><path d="M0 0c-.128 0-.256.05-.354.146-.195.196-.195.512 0 .708C.78 1.987 1.95 2 2 2c.276 0 .5-.224.5-.5S2.276 1 2 1C1.972 1 1.18.972.354.146.256.05.128 0 0 0" fill="#c1694f"/></g><g transform="translate(9 15.5)"><path d="M0 0c-.128 0-.256.05-.354.146-.195.196-.195.512 0 .708C.78 1.987 1.95 2 2 2c.276 0 .5-.224.5-.5S2.276 1 2 1C1.972 1 1.18.972.354.146.256.05.128 0 0 0" fill="#c1694f"/></g><path d="M37 13H1V1h36v12z" fill="#55acee"/><g transform="translate(7 13)"><path d="M0 0c3 2 7 5 6 3S5 0 7 1s5 2 4 0 2-1 3 0 4 0 3-1S8-2 5-2 0 0 0 0" fill="#55acee"/></g></g></g></g></svg><svg viewBox="0 0 47.5 47.5" enable-background="new 0 0 47.5 47.5" width="47.5" height="47.5" id="emoji-activity-1f4a4" x="237.5" y="47.5"><defs><clipPath id="baa"><path d="M0 38h38V0H0v38z"/></clipPath></defs><g transform="matrix(1.25 0 0 -1.25 0 47.5)"><g><g clip-path="url(#baa)"><g transform="translate(34 18)"><path d="M0 0c1.187 0 2-.786 2-2 0-1.073-.983-2-2-2h-11c-1.496 0-2 .813-2 2 0 .565.632 1.492 1 2l8 12h-7c-1.128 0-2 .843-2 2 0 1.073.93 2 2 2H0c1.64 0 2-1.012 2-2 0-.62-.635-1.52-1-2L-7 0h7z" fill="#4289c1"/></g><g transform="translate(18 13)"><path d="M0 0c.633 0 1-.353 1-1 0-.573-.458-1-1-1h-6c-.798 0-1 .367-1 1 0 .3.337.73.533 1L-2 6h-4c-.602 0-1 .384-1 1 0 .573.428 1 1 1h6c.874 0 1-.473 1-1 0-.33-.338-.877-.533-1.133L-4 0h4z" fill="#4289c1"/></g><g transform="translate(9 6)"><path d="M0 0c.633 0 1-.353 1-1 0-.573-.458-1-1-1h-6c-.798 0-1 .367-1 1 0 .3.337.73.533 1L-2 6h-4c-.602 0-1 .384-1 1 0 .572.428 1 1 1h6c.874 0 1-.473 1-1 0-.33-.338-.877-.533-1.133L-4 0h4z" fill="#4289c1"/></g></g></g></g></svg><svg viewBox="0 0 47.5 47.5" enable-background="new 0 0 47.5 47.5" width="47.5" height="47.5" id="emoji-activity-1f4aa" x="237.5" y="95"><defs><clipPath id="bba"><path d="M0 38h38V0H0v38z"/></clipPath></defs><g transform="matrix(1.25 0 0 -1.25 0 47.5)"><g><g clip-path="url(#bba)"><g transform="translate(13.43 15)"><path d="M0 0s-.717 3.64.298 10.874C1.698 10.42 3.112 10 3.57 10c1 0 4 1 4 2s-1 2-1 2l2 1c1 1 0 7-4 7-7 0-9.57-7-9.57-7l.007-.01H-5s-6-10.99-6-20c.065 0-1-5 0-6s5-1 5-1C4-16 22.57-13 22.57-4 22.57 9 3 6 0 0" fill="#d99e82"/></g><g transform="translate(20.494 4.748)"><path d="M0 0c-3.178 0-5.793 1.283-5.94 1.357-.495.247-.694.846-.45 1.34.247.494.846.696 1.342.45.042-.02 4.24-2.06 7.956-.64 2.055.785 3.625 2.507 4.67 5.116.204.515.79.763 1.3.558.512-.204.762-.786.557-1.3C8.172 3.727 6.212 1.624 3.607.634 2.393.17 1.157 0 0 0" fill="#bf6952"/></g></g></g></g></svg><svg viewBox="0 0 47.5 47.5" enable-background="new 0 0 47.5 47.5" width="47.5" height="47.5" id="emoji-activity-1f6b4" x="237.5" y="142.5"><defs><clipPath id="bca"><path d="M0 38h38V0H0v38z"/></clipPath></defs><g transform="matrix(1.25 0 0 -1.25 0 47.5)"><g><g clip-path="url(#bca)"><g transform="translate(20 21)"><path d="M0 0s-3-2-3-3 4-4 5-5 3-1 2 1-4 7-4 7" fill="#ad846f"/></g><g transform="translate(21.634 13.979)"><path d="M0 0s1.173-.79 1.962.385c.79 1.174 1.365-1.77 1.365-1.77S.77-3.926-1.193-4.31c-1.964-.384-1.175.79-.386 1.962L0 0" fill="#a0041e"/></g><g transform="translate(8.001 3)"><path d="M0 0c-2.76 0-5 2.238-5 5s2.24 5 5 5 5-2.238 5-5-2.24-5-5-5m0 12c-3.866 0-7-3.134-7-7s3.134-7 7-7 7 3.134 7 7-3.134 7-7 7" fill="#292f33"/></g><g transform="translate(30 3)"><path d="M0 0c-2.76 0-5 2.238-5 5s2.24 5 5 5c2.762 0 5-2.238 5-5S2.762 0 0 0m0 12c-3.865 0-7-3.134-7-7s3.135-7 7-7c3.867 0 7 3.134 7 7s-3.133 7-7 7" fill="#292f33"/></g><g transform="translate(23 17)"><path d="M0 0c0 .553-.484 1-1.083 1h-10.834C-12.515 1-13 .553-13 0c0-.553.485-1 1.083-1h10.834C-.483-1 0-.553 0 0" fill="#744eaa"/></g><g transform="translate(31 8)"><path d="M0 0c0 .553-.447 1-1 1h-11c-.552 0-1-.447-1-1 0-.553.448-1 1-1h11c.553 0 1 .447 1 1" fill="#744eaa"/></g><g transform="translate(22.224 20)"><path d="M0 0l-4.166-11.664c-.185-.52.086-1.092.606-1.277.11-.04.225-.06.336-.06.41 0 .796.255.942.664L2.124 0H0z" fill="#744eaa"/></g><g transform="translate(30.001 7)"><path d="M0 0c-.33 0-.654.164-.845.463l-7 11c-.297.466-.16 1.084.307 1.38.467.297 1.084.16 1.38-.306l7-11C1.14 1.07 1.003.453.537.157.37.05.184 0 0 0" fill="#744eaa"/></g><g transform="translate(20 11.266)"><path d="M0 0l-8.387 6.523c-.435.34-1.063.262-1.403-.174-.34-.438-.26-1.066.176-1.405l9-7c.182-.142.398-.21.613-.21V0z" fill="#744eaa"/></g><g transform="translate(8 7)"><path d="M0 0c-.104 0-.21.017-.316.052-.524.174-.808.74-.633 1.264l2.773 8.317L-1.6 12.2c-.442.332-.53.96-.2 1.4.33.44.957.532 1.4.2l4.577-3.433L.95.684C.81.264.42 0 0 0" fill="#744eaa"/></g><g transform="translate(27.383 18)"><path d="M0 0c-.03 0-.06.002-.09.006l-5.67.708c-.373.047-.644.374-.62.748.023.374.332.664.706.665.04 0 4.068.018 5.99 1.3.25.167.58.156.824-.027.24-.185.337-.5.24-.788L.673.485C.575.192.302 0 0 0" fill="#292f33"/></g><g transform="translate(12 19)"><path d="M0 0h-5c-.552 0-1 .448-1 1s.448 1 1 1h5c.552 0 1-.448 1-1S.552 0 0 0" fill="#292f33"/></g><g transform="translate(22.999 24)"><path d="M0 0l-4-3 3-3 1 6z" fill="#a0041e"/></g><g transform="translate(20.999 20)"><path d="M0 0s-2-3-2-4 1-4 1-7 2-3 2-2 1.58 5.418 0 7C0-5 3-2 3-2L0 0z" fill="#d99e82"/></g><g transform="translate(22.999 24)"><path d="M0 0l-3-4 4-3s5 5 5 7-3 3-3 3L0 0z" fill="#dd2e44"/></g><g transform="translate(11 32)"><path d="M0 0c-1-1 0-2 0-3s2 0 2 0 1 1 2-1 4-1 3 1-4 1-4 3-3 0-3 0" fill="#d99e82"/></g><g transform="translate(15.999 34.001)"><path d="M0 0c0-1 0-4-1-4s-1 1-2 2 3 2 3 2" fill="#b39155"/></g><g transform="translate(13.999 25)"><path d="M0 0c0-2-3-5-4-5s-2 0-2-1 0-1 2-1 4 2 5 3 2 3 2 4 1 1 2 0 2-2 3-2 6 4 6 4c-3 1-4.103 2.368-6 3-3 1-5.586.414-7-1-1-1-1-2-1-4" fill="#292f33"/></g><g transform="translate(16.67 23.666)"><path d="M0 0l-2.744.784c-.446-1.956-3.014-4.45-3.926-4.45-1 0-2 0-2-1s0-1 2-1 4 2 5 3C-1.02-2.016-.375-.946 0 0" fill="#d99e82"/></g><g transform="translate(20 8)"><path d="M0 0s1-1 2 0 1-2 1-2-3-2-5-2-1 1 0 2l2 2z" fill="#dd2e44"/></g><g transform="translate(11.999 35.001)"><path d="M0 0c2 1 6 0 4-2-1-1-7-2-7-2 0 1 1 3 3 4" fill="#744eaa"/></g></g></g></g></svg><svg viewBox="0 0 47.5 47.5" enable-background="new 0 0 47.5 47.5" width="47.5" height="47.5" id="emoji-activity-1f6b5" x="237.5" y="190"><defs><clipPath id="bda"><path d="M0 38h38V0H0v38z"/></clipPath></defs><g transform="matrix(1.25 0 0 -1.25 0 47.5)"><g><g clip-path="url(#bda)"><g transform="translate(1 1)"><path d="M0 0h36v25s-6 10-9 10-10-9-12-11-4.5-.5-6 1-3 3-4 3-5-7-5-7V0z" fill="#77b255"/></g><g transform="translate(20 21)"><path d="M0 0s-3-2-3-3 4-4 5-5 3-1 2 1-4 7-4 7" fill="#ad846f"/></g><g transform="translate(21.634 13.979)"><path d="M0 0s1.173-.79 1.962.385c.79 1.174 1.365-1.77 1.365-1.77S.77-3.926-1.193-4.31c-1.964-.384-1.175.79-.386 1.962L0 0" fill="#269"/></g><g transform="translate(8.001 3)"><path d="M0 0c-2.76 0-5 2.238-5 5s2.24 5 5 5 5-2.238 5-5-2.24-5-5-5m0 12c-3.866 0-7-3.134-7-7s3.134-7 7-7 7 3.134 7 7-3.134 7-7 7" fill="#292f33"/></g><g transform="translate(30 3)"><path d="M0 0c-2.76 0-5 2.238-5 5s2.24 5 5 5c2.762 0 5-2.238 5-5S2.762 0 0 0m0 12c-3.865 0-7-3.134-7-7s3.135-7 7-7c3.867 0 7 3.134 7 7s-3.133 7-7 7" fill="#292f33"/></g><g transform="translate(23 17)"><path d="M0 0c0 .553-.484 1-1.083 1h-10.834C-12.515 1-13 .553-13 0c0-.553.485-1 1.083-1h10.834C-.483-1 0-.553 0 0" fill="#be1931"/></g><g transform="translate(31 8)"><path d="M0 0c0 .553-.447 1-1 1h-11c-.552 0-1-.447-1-1 0-.553.448-1 1-1h11c.553 0 1 .447 1 1" fill="#be1931"/></g><g transform="translate(22.224 20)"><path d="M0 0l-4.166-11.664c-.185-.52.086-1.092.606-1.277.11-.04.225-.06.336-.06.41 0 .796.255.942.664L2.124 0H0z" fill="#be1931"/></g><g transform="translate(30.001 7)"><path d="M0 0c-.33 0-.654.164-.845.463l-7 11c-.297.466-.16 1.084.307 1.38.467.297 1.084.16 1.38-.306l7-11C1.14 1.07 1.003.453.537.157.37.05.184 0 0 0" fill="#be1931"/></g><g transform="translate(20 11.266)"><path d="M0 0l-8.387 6.523c-.435.34-1.063.262-1.403-.174-.34-.438-.26-1.066.176-1.405l9-7c.182-.142.398-.21.613-.21V0z" fill="#be1931"/></g><g transform="translate(8 7)"><path d="M0 0c-.104 0-.21.017-.316.052-.524.174-.808.74-.633 1.264l2.773 8.317L-1.6 12.2c-.442.332-.53.96-.2 1.4.33.44.957.532 1.4.2l4.577-3.433L.95.684C.81.264.42 0 0 0" fill="#be1931"/></g><g transform="translate(27.383 18)"><path d="M0 0c-.03 0-.06.002-.09.006l-5.67.708c-.373.047-.644.374-.62.748.023.374.332.664.706.665.04 0 4.068.018 5.99 1.3.25.167.58.156.824-.027.24-.185.337-.5.24-.788L.673.485C.575.192.302 0 0 0" fill="#292f33"/></g><g transform="translate(12 19)"><path d="M0 0h-5c-.552 0-1 .448-1 1s.448 1 1 1h5c.552 0 1-.448 1-1S.552 0 0 0" fill="#292f33"/></g><g transform="translate(22.999 24)"><path d="M0 0l-4-3 3-3 1 6z" fill="#dd2e44"/></g><g transform="translate(20.999 20)"><path d="M0 0s-2-3-2-4 1-4 1-7 2-3 2-2 1.58 5.418 0 7C0-5 3-2 3-2L0 0z" fill="#d99e82"/></g><g transform="translate(22.999 24)"><path d="M0 0l-3-4 4-3s5 5 5 7-3 3-3 3L0 0z" fill="#ffac33"/></g><g transform="translate(11 32)"><path d="M0 0c-1-1 0-2 0-3s2 0 2 0 1 1 2-1 4-1 3 1-4 1-4 3-3 0-3 0" fill="#d99e82"/></g><g transform="translate(15.999 34.001)"><path d="M0 0c0-1 0-4-1-4s-1 1-2 2 3 2 3 2" fill="#b39155"/></g><g transform="translate(13.999 25)"><path d="M0 0c0-2-3-5-4-5s-2 0-2-1 0-1 2-1 4 2 5 3 2 3 2 4 1 1 2 0 2-2 3-2 6 4 6 4c-3 1-4.103 2.368-6 3-3 1-5.586.414-7-1-1-1-1-2-1-4" fill="#744eaa"/></g><g transform="translate(16.67 23.666)"><path d="M0 0l-2.744.784c-.446-1.956-3.014-4.45-3.926-4.45-1 0-2 0-2-1s0-1 2-1 4 2 5 3C-1.02-2.016-.375-.946 0 0" fill="#d99e82"/></g><g transform="translate(20 8)"><path d="M0 0s1-1 2 0 1-2 1-2-3-2-5-2-1 1 0 2l2 2z" fill="#3b88c3"/></g><g transform="translate(11.999 35.001)"><path d="M0 0c2 1 6 0 4-2-1-1-7-2-7-2 0 1 1 3 3 4" fill="#744eaa"/></g></g></g></g></svg><svg viewBox="0 0 47.5 47.5" enable-background="new 0 0 47.5 47.5" width="47.5" height="47.5" id="emoji-activity-baseball" y="237.5"><defs><clipPath id="bea"><path d="M0 38h38V0H0v38z"/></clipPath><clipPath id="beb"><path d="M1 19C1 9.06 9.06 1 19 1s18 8.06 18 18-8.06 18-18 18S1 28.94 1 19"/></clipPath><clipPath id="bec"><path d="M0 38h38V0H0v38z"/></clipPath></defs><g transform="matrix(1.25 0 0 -1.25 0 47.5)"><g><g clip-path="url(#bea)"><g transform="translate(19 1)"><path d="M0 0c-9.94 0-18 8.06-18 18s8.06 18 18 18 18-8.06 18-18S9.94 0 0 0" fill="#e1e8ed"/></g></g></g><g><g clip-path="url(#beb)"><g transform="translate(35 7)"><path d="M0 0c4.318 0 7 4.598 7 12S4.318 24 0 24s-7-4.598-7-12S-4.318 0 0 0m0 26c4.352 0 9-3.678 9-14S4.352-2 0-2s-9 3.678-9 14 4.648 14 9 14" fill="#b3bec4"/></g><g transform="translate(3 7)"><path d="M0 0c4.317 0 7 4.598 7 12S4.317 24 0 24s-7-4.598-7-12C-7 4.6-4.317 0 0 0m0 26c4.35 0 9-3.678 9-14S4.35-2 0-2s-9 3.678-9 14 4.65 14 9 14" fill="#b3bec4"/></g></g></g><g><g clip-path="url(#bec)"><g transform="translate(6.092 26.836)"><path d="M0 0c-.237 0-.457.02-.65.056-.544.102-.9.625-.8 1.167.102.544.625.902 1.167.8.43-.078 2.69-.007 3.148 2.275.108.54.632.89 1.177.784.54-.108.893-.635.784-1.177C4.244.993 1.686 0 0 0" fill="#dd2e44"/></g><g transform="translate(7.811 23)"><path d="M0 0c-.53 0-.972.198-.998.734-.026.55.4.91.952.937l.114-.048c1.204.055 2.45.084 3.755 2.343.275.478.886.63 1.366.352.477-.276.64-.895.364-1.373C3.702-.262 1.57-.146.16-.21L.048 0H0z" fill="#dd2e44"/></g><g transform="translate(9.999 17.718)"><path d="M0 0c-.734 0-1.414.135-1.928.378-.5.237-.712.833-.475 1.332.236.5.834.71 1.332.476.828-.393 2.924-.24 3.73 1.012.298.465.917.6 1.38.3.466-.298.6-.917.302-1.38C3.377.617 1.566 0 0 0" fill="#dd2e44"/></g><g transform="translate(11.161 12.193)"><path d="M0 0c-1.554 0-2.995.7-3.926 1.476-.425.353-.482.984-.128 1.41.354.424.984.48 1.408.127.194-.163 1.952-1.566 3.782-.785.507.214 1.095-.022 1.31-.53.217-.51-.02-1.096-.53-1.312C1.277.114.63 0 0 0" fill="#dd2e44"/></g><g transform="translate(10.751 7)"><path d="M0 0h-.028c-2.504 0-4.68 1.57-5.534 3.108-.27.483-.094 1.044.388 1.313.483.27 1.092.07 1.36-.41.484-.872 1.996-2.135 3.84-2.186.554-.015.99-.387.973-.94C.983.343.54 0 0 0" fill="#dd2e44"/></g><g transform="translate(28.189 6.813)"><path d="M0 0c-.065 0-.13.006-.197.02-.54.108-.893.634-.784 1.176.663 3.323 3.892 4.15 5.476 3.85.543-.103.9-.625.798-1.168-.102-.542-.617-.903-1.167-.798-.425.08-2.69.007-3.148-2.276C.884.328.466 0 0 0" fill="#dd2e44"/></g><g transform="translate(25.624 11.313)"><path d="M0 0c-.17 0-.342.043-.5.134-.478.276-.642.888-.365 1.366C.987 4.706 3.12 4.804 4.53 4.87l.11.004c.54.033 1.02-.4 1.047-.95.027-.553-.4-1.022-.95-1.048L4.62 2.87C3.418 2.816 2.173 2.76.868.5.682.18.347 0 0 0" fill="#dd2e44"/></g><g transform="translate(24.624 17.375)"><path d="M0 0c-.186 0-.372.05-.54.16-.464.297-.6.916-.3 1.38C.575 3.745 3.816 4.043 5.43 3.28c.498-.238.712-.834.474-1.333-.235-.5-.834-.713-1.33-.476-.83.395-2.927.24-3.732-1.01C.652.16.33 0 0 0" fill="#dd2e44"/></g><g transform="translate(30.249 23.313)"><path d="M0 0c-.226 0-.452.076-.64.232-.194.162-1.952 1.56-3.78.785-.51-.215-1.096.02-1.312.53-.216.508.02 1.096.53 1.31 2.22.943 4.535.002 5.844-1.09.423-.352.48-.983.128-1.407C.57.123.287 0 0 0" fill="#dd2e44"/></g><g transform="translate(32.063 27.25)"><path d="M0 0c-.352 0-.692.186-.875.514-.484.872-1.996 2.123-3.84 2.174-.554.015-.988.506-.973 1.06.015.54.46 1.002 1 1.002h.027c2.504 0 4.68-1.694 5.533-3.232C1.143 1.034.968.41.483.142.332.056.164 0 0 0" fill="#dd2e44"/></g></g></g></g></svg><svg viewBox="0 0 47.5 47.5" enable-background="new 0 0 47.5 47.5" width="47.5" height="47.5" id="emoji-activity-bowling" x="47.5" y="237.5"><defs><clipPath id="bfa"><path d="M0 38h38V0H0v38z"/></clipPath><clipPath id="bfb"><path d="M19 36c-1-1-1-2-1-4s1-4 1-5c0-3-4-5-4-9.084C15 14.583 17 8 18 6h6c1 2 3 8.583 3 11.916C27 22 23 24 23 27c0 1 1 3 1 5s0 3-1 4-2 1-2 1-1 0-2-1"/></clipPath><clipPath id="bfc"><path d="M0 38h38V0H0v38z"/></clipPath><clipPath id="bfd"><path d="M29 33c-1-1-1-2-1-4s1-4 1-5c0-3-4-5-4-9.084C25 11.583 27 5 28 3h6c1 2 3 8.583 3 11.916C37 19 33 21 33 24c0 1 1 3 1 5s0 3-1 4-2 1-2 1-1 0-2-1"/></clipPath><clipPath id="bfe"><path d="M0 38h38V0H0v38z"/></clipPath></defs><g transform="matrix(1.25 0 0 -1.25 0 47.5)"><g><g clip-path="url(#bfa)"><g transform="translate(23 27)"><path d="M0 0c0 1 1 3 1 5s0 3-1 4-2 1-2 1-1 0-2-1-1-2-1-4 1-4 1-5c0-3-4-5-4-9.084C-8-12.417-6-19-5-21h6c1 2 3 8.583 3 11.916C4-5 0-3 0 0" fill="#ccd6dd"/></g></g></g><g><g clip-path="url(#bfb)" fill="#be1931"><path d="M24 27h-6v2h6v-2z"/><path d="M25 23h-8v2h8v-2z"/></g></g><g><g clip-path="url(#bfc)"><g transform="translate(33 24)"><path d="M0 0c0 1 1 3 1 5s0 3-1 4-2 1-2 1-1 0-2-1-1-2-1-4 1-4 1-5c0-3-4-5-4-9.084C-8-12.417-6-19-5-21h6c1 2 3 8.583 3 11.916C4-5 0-3 0 0" fill="#ccd6dd"/></g></g></g><g><g clip-path="url(#bfd)" fill="#be1931"><path d="M34 24h-6v2h6v-2z"/><path d="M35 20h-8v2h8v-2z"/></g></g><g><g clip-path="url(#bfe)"><g transform="translate(13.562 1)"><path d="M0 0c-6.938 0-12.562 5.624-12.562 12.563 0 6.937 5.624 12.562 12.562 12.562S12.563 19.5 12.563 12.563C12.563 5.623 6.938 0 0 0" fill="#3a4449"/></g><g transform="translate(16.23 18.21)"><path d="M0 0c0-1.28-1.037-2.316-2.315-2.316C-3.595-2.316-4.63-1.28-4.63 0c0 1.28 1.035 2.315 2.315 2.315C-1.037 2.315 0 1.28 0 0"/></g><g transform="translate(9.82 16.063)"><path d="M0 0c0-1.28-1.037-2.316-2.316-2.316C-3.596-2.316-4.63-1.28-4.63 0c0 1.28 1.035 2.315 2.314 2.315C-1.036 2.315 0 1.28 0 0"/></g><g transform="translate(14.747 8.947)"><path d="M0 0c0-1.28-1.037-2.316-2.316-2.316C-3.596-2.316-4.63-1.28-4.63 0c0 1.278 1.035 2.315 2.314 2.315C-1.036 2.315 0 1.278 0 0"/></g></g></g></g></svg><svg viewBox="0 0 47.5 47.5" enable-background="new 0 0 47.5 47.5" width="47.5" height="47.5" id="emoji-activity-fishing" x="95" y="237.5"><defs><clipPath id="bga"><path d="M0 38h38V0H0v38z"/></clipPath></defs><g transform="matrix(1.25 0 0 -1.25 0 47.5)"><g><g clip-path="url(#bga)"><g transform="translate(9 21)"><path d="M0 0c-.552 0-1 .448-1 1v11c0 .552.448 1 1 1s1-.448 1-1V1C1 .448.552 0 0 0" fill="#ccd6dd"/></g><g transform="translate(3 4)"><path d="M0 0c0 2.236 4 6 7 6V1C6 1 3 0 2-1S0-1 0 0" fill="#3b88c3"/></g><g transform="translate(17 4)"><path d="M0 0c0 2.236-4 6-7 6V1c1 0 4-1 5-2s2 0 2 1" fill="#3b88c3"/></g><g transform="translate(16 23)"><path d="M0 0c2 0 4-1 4-2C4-5 .833-13.542-4.167-14.542S0 0 0 0" fill="#3b88c3"/></g><g transform="translate(4 17)"><path d="M0 0c-1-1-2-3-2-5S.75-2.958 2-4c1.718-1.432-2 4-2 4" fill="#3b88c3"/></g><g transform="translate(6.583 24.75)"><path d="M0 0c1.5-.5 2.583-.125 3.667.75 1.083.875 1.25-2.542-.25-3.667S-.708-6.667-.667-4.333C-.625-2 0 0 0 0"/></g><g transform="translate(10.023 25.999)"><path d="M0 0c-.574-.63-1.856-2.333-2.48-4.416-.876-.5-.834 1.208-.71 1.75.226.976.506.977.346 1.522-.21.55-.788.364-1.118.16C-5.675-1.97-7.022-3.8-7.022-7c0-5.52 5-13 7-13s7 7.48 7 13c0 5.51-3.98 6.993-6.978 7" fill="#55acee"/></g><g transform="translate(14 21.5)"><path d="M0 0c0-.83-.67-1.5-1.5-1.5S-3-.83-3 0s.67 1.5 1.5 1.5S0 .83 0 0"/></g><g transform="translate(9.954 14.173)"><path d="M0 0c-1.504 0-2.83.538-4 1.15-.49.255-.68.86-.423 1.35.255.487.86.68 1.35.423 1.89-.988 3.59-1.385 5.734-.11.475.28 1.09.124 1.37-.35.282-.476.126-1.09-.35-1.37C2.348.3 1.124 0 0 0" fill="#269"/></g><g transform="translate(30.834 1.75)"><path d="M0 0c-.494.247-1.042.958-.73 1.697 1.335 3.147 4.28 16.9 1.605 24.76-.5 1.474-2.118 3.66-4.08 4.864-6.337 3.888-15.806 1.76-17.13 1.097-.494-.25-2.043-.744-2.29-.25-.248.494.59 1.002 1.083 1.25 1.756.877 11.264 3.877 19.667-.792 1.5-.833 3.59-2.376 4.703-5.303C6.085 18.755 3.875 3.906 2.04.5 1.46-.583.145-.07 0 0" fill="#662113"/></g><g transform="translate(33 12)"><path d="M0 0c0-2.21-1.79-4-4-4s-4 1.79-4 4 1.79 4 4 4 4-1.79 4-4" fill="#99aab5"/></g><g transform="translate(31 12)"><path d="M0 0c0-1.104-.896-2-2-2s-2 .896-2 2 .896 2 2 2 2-.896 2-2" fill="#66757f"/></g></g></g></g></svg><svg viewBox="0 0 47.5 47.5" enable-background="new 0 0 47.5 47.5" width="47.5" height="47.5" id="emoji-activity-golfFlag" x="142.5" y="237.5"><defs><clipPath id="bha"><path d="M0 38h38V0H0v38z"/></clipPath><clipPath id="bhb"><path d="M1.193 5C1.193 3 3 1 5 1h28c2 0 3.73 2 3.73 4 0 4.355-4.633 11-17.73 11C5.508 16 1.193 9.54 1.193 5"/></clipPath><clipPath id="bhc"><path d="M0 38h38V0H0v38z"/></clipPath></defs><g transform="matrix(1.25 0 0 -1.25 0 47.5)"><g><g clip-path="url(#bha)"><g transform="translate(5 1)"><path d="M0 0h28c2 0 3.73 2 3.73 4 0 4.355-4.633 11-17.73 11C.508 15-3.807 8.54-3.807 4-3.807 2-2 0 0 0" fill="#77b255"/></g></g></g><g><g clip-path="url(#bhb)"><g transform="translate(12.291 7.5)"><path d="M0 0c1.125 3.75 9.75 7.666 14.333 7.625 5-.045 2.625-.792 1.625-.792s-11.79-2.625-14-7.5C.958-.667 0 0 0 0" fill="#5c913b"/></g></g></g><g><g clip-path="url(#bhc)"><g transform="translate(20 6.5)"><path d="M0 0c0-1.38-2.91-2.5-6.5-2.5S-13-1.38-13 0s2.91 2.5 6.5 2.5S0 1.38 0 0" fill="#292f33"/></g><g transform="translate(11 33)"><path d="M0 0v-26c0-.553.448-.844 1-.844s1 .29 1 .844V0H0z" fill="#ffac33"/></g><g transform="translate(11 34)"><path d="M0 0c0 2.2 1.695 3.395 3.767 2.655l9.466-3.38c2.072-.74 2.072-1.952 0-2.692l-9.466-3.38C1.695-7.538 0-6.344 0-4.144V0z" fill="#dd2e44"/></g></g></g></g></svg><svg viewBox="0 0 47.5 47.5" enable-background="new 0 0 47.5 47.5" width="47.5" height="47.5" id="emoji-activity-horseRace" x="190" y="237.5"><defs><clipPath id="bia"><path d="M0 38h38V0H0v38z"/></clipPath></defs><g transform="matrix(1.25 0 0 -1.25 0 47.5)"><g><g clip-path="url(#bia)"><g transform="translate(28.076 21.335)"><path d="M0 0s4.687-1.807 6.76-.6C8.836.603 9.27 2.245 8.064 4.32 6.855 6.39 3.576 7.26 3.407 9.936c0 0-.264-4.32 1.977-5.787C8.556 2.07 4.94-.237 1.177.235-2.588.707 0 0 0 0" fill="#292f33"/></g><g transform="translate(3.688 12.287)"><path d="M0 0c-.736-2.285-.35-6.01.794-6.378 1.14-.367 2.877 1.61 1.897 2.993C.795-.708 1.914 1.16 4.196.425 6.48-.308 12.88 1.573 14.39 2.35c1.507.772-4.56.79-7.212.383-2.65-.406-4.116-.037-5.302-.814C.872 1.258 0 0 0 0" fill="#d99e82"/></g><g transform="translate(18.792 4.856)"><path d="M0 0c1.38.986.593 3.8 2.96 3.408C5.326 3.013 6.73 1.9 6.903 5.183c.022.38.52-.013 1.317.614 8.218 6.462 1.05 6.288 1.05 6.288-2.762-1.974-5.698-5.114-4.733-6.51.507-.73-2.562-.79-3.745-.59C-.39 5.18-1.97 3.01-2.168 1.826-2.362.647-1.377-.985 0 0" fill="#d99e82"/></g><g transform="translate(31.829 18.249)"><path d="M0 0c.006 1.13-1.757 4.602-5.294 4.602-3.6 0-5.998-1.2-8.397-1.2-2.4 0-3.94-1.448-5.14 3.35-.92 3.68-3.4 5.2-7 4 0 0-3.455 2.247-2.255 1.047.494-.495.706-.995.762-1.46-2.103-1.257-1.13-3.416-2.253-4.54-.848-.846-1.2-1.198-1.2-2.397 0-.99 1.63-1.15 2.876-.505.723 1.704.353 1.057 1.473 1.707 1.03.017 1.94.15 1.94 1.196 0 0 1.2 0 1.2-2.397 0-1.144-1.083-2.292.893-5.513 0 0 1.19-1.91.836-2.58-1.254-2.372-1.533-5.045-2.507-5.744-.977-.698.42-2.648.42-2.648 1.394-1.952 4.74-2.508 5.717-1.812.976.7.278 1.675-1.395 1.955-1.673.276-5.02.834-3.07 2.228 1.952 1.397 3.287 1.79 3.563 3.463.08.47 2 1 2 1s2-1 4.337.056c2.043.922 4.48 2.09 6.722.414l.068.04c-.713-1.536-.968-2.894-.275-3.478.683-.573-2.265-1.434-3.46-1.553-1.193-.124-2.147-2.63-2.027-3.822.12-1.193 1.748-2.7 2.82-1.387 1.074 1.315-2.107 3.163 1.714 4.255 2.307.66 4.034-.466 3.34 2.746-.08.375.07.787.694 1.587C.388-3.177-.008-1.13 0 0" fill="#c1694f"/></g><g transform="translate(23.309 22.531)"><path d="M0 0c-1.96-.354-3.57-.88-5.17-.88-1.064 0-1.888.018-2.585.437.058-1.778.558-3.676 2.476-6.282.424-.093.858-.152 1.308-.152 2.4 0 3.6 1.2 5.997 2.398C.705-2.524.41-1.74 0 0" fill="#cbb7ea"/></g><g transform="translate(5.269 28.671)"><path d="M0 0c2.4 2.4 4.428 1.897 6.323 0 2.4-2.398 1.334-4.922 4.147-6.82 1.26-.85-2.74-.85-3.6 3.6C6.363-.59 3.49.676 0 0" fill="#292f33"/></g><g transform="translate(2.999 22.5)"><path d="M0 0c-.128 0-.256.05-.354.146-.195.196-.195.512 0 .708l4 4c.196.195.512.195.708 0 .195-.196.195-.512 0-.708l-4-4C.256.05.128 0 0 0" fill="#ffac33"/></g><g transform="translate(8 23.5)"><path d="M0 0c-.198 0-.386.12-.464.314l-2 5c-.103.257.022.548.278.65.254.103.547-.022.65-.278l2-5C.567.43.442.138.186.036.126.01.062 0 0 0" fill="#ffac33"/></g><g transform="translate(12.816 29.747)"><path d="M0 0c-.698-.674.878-1.43 1.13-2.39.175-.664 1.372-.024 1.372-.024s1.295.323 2.682-.332c1.32-.624 2.66-.383 2 1C6.52-.364 3.774-1.042 3.738.33 3.646 3.61 0 0 0 0" fill="#d99e82"/></g><g transform="translate(13.048 29.369)"><path d="M0 0c-.352-1.032-.977.454-.728 1.184.35 1.03 1.778 1.91 2.858 1.758 1.077-.15 1.807-1.337 1.456-2.367-.248-.73.013-1.623-.715-.44-.727 1.184-.715-.44-1.078.152C1.427.88 0 0 0 0" fill="#b39155"/></g><g transform="translate(21 14.5)"><path d="M0 0c-.63 0-.762-.32-.97.307-.262.786.184.93.97 1.193l1 1c-.672 1.17-2.305 3.22-2.5 4-.5 2-.5 3 3.57 4.796-.032.04-.075.088-.13.144C.206 13.172-1 10.5-3 11.5c-.74.37.422-.525-1 1-.565.606.213 1.74 1 2 3.95 1.32 5.864 1.258 8.06-.94C6.145 12.48 6 11.165 6 10.5c0-3-5-2-4.5-4 .068-.362.888-1.876 1.748-3.168.26-.39.903-1.39.752-1.832-.15-.442-1.082-.274-1.525-.423l-2-1C.315.024.155 0 0 0" fill="#d1d3d4"/></g><g transform="translate(18.755 26)"><path d="M0 0c1.63-.9 3.14.776 4.478-.06l2.828 2.12C7.25 4 2.246 6-1.336 3.424c-.632-.455-1.08-1.135-.86-1.897C-1.756 0-.67.37 0 0" fill="#5c913b"/></g><g transform="translate(23 20)"><path d="M0 0l-2.198-1.28C-1.74-1.9-1.274-2.52-1-3l-1-1c-.786-.262-1.232-.408-.97-1.194.208-.628.34-.306.97-.306.156 0 .316.024.475.077l2 1C.918-4.275 1.85-4.443 2-4c.15.442-.492 1.443-.752 1.832C.844-1.56.312-.563 0 0" fill="#231f20"/></g><g transform="translate(15.999 22)"><path d="M0 0c-2 0-2 .448-2 1s1.448 1 2 1c1.984 0 2.276.285 2.303.317.09.198-.147.37-1.303 2.683-.247.494.06 1.647.553 1.895.495.248 1.094.045 1.342-.448 1.13-2.258 1.87-3.952 1.107-5.184C3.354.215 1.934 0 0 0" fill="#a6d388"/></g><g transform="translate(16 24)"><path d="M0 0c-2 1-2-.448-2-1s0-1 2-1v2z" fill="#d99e82"/></g><g transform="translate(12.457 31.771)"><path d="M0 0c1.205.74 2.41 1.482 4.123.045 1.084-.908.51-2.177-.464-1.945-.973.232-1.946.463-3.15-.277C-.696-2.917-1.206-.74 0 0" fill="#9266cc"/></g><g transform="translate(2.999 22)"><path d="M0 0c-.266 0-.487.21-.5.477-.012.276.202.51.478.523l11 .5c.28.02.51-.2.522-.477.012-.275-.2-.51-.477-.522l-11-.5H0z" fill="#ffcc4d"/></g></g></g></g></svg><svg viewBox="0 0 47.5 47.5" enable-background="new 0 0 47.5 47.5" width="47.5" height="47.5" id="emoji-activity-musicNotes" x="237.5" y="237.5"><defs><clipPath id="bja"><path d="M0 38h38V0H0v38z"/></clipPath></defs><g transform="matrix(1.25 0 0 -1.25 0 47.5)"><g><g clip-path="url(#bja)"><g transform="translate(15.182 36.833)"><path d="M0 0l-6.363-1.3c-.45-.094-.82-.545-.82-1.004V-18.16c-.612.208-1.286.327-2 .327-2.76 0-5-1.74-5-3.888 0-2.15 2.24-3.89 5-3.89 2.714 0 4.91 1.683 4.987 3.777h.014V-6.31L0-5.455c.45.093.818.544.818 1.003v3.785C.818-.207.45.093 0 0" fill="#5dadec"/></g><g transform="translate(36.182 32.833)"><path d="M0 0l-6.363-1.3c-.45-.094-.82-.545-.82-1.004V-18.16c-.612.208-1.287.327-2 .327-2.76 0-5-1.74-5-3.888 0-2.15 2.24-3.89 5-3.89 2.714 0 4.91 1.683 4.987 3.777h.014V-6.31L0-5.455c.45.093.818.544.818 1.003v3.785C.818-.207.45.093 0 0" fill="#5dadec"/></g><g transform="translate(24.182 26.832)"><path d="M0 0l-6.363-1.3c-.45-.094-.82-.545-.82-1.004V-18.16c-.612.208-1.286.327-2 .327-2.76 0-5-1.74-5-3.888 0-2.15 2.24-3.89 5-3.89 2.714 0 4.91 1.683 4.987 3.777h.014V-6.31L0-5.455c.45.093.818.544.818 1.003v3.785C.818-.207.45.093 0 0" fill="#5dadec"/></g></g></g></g></svg><svg viewBox="0 0 47.5 47.5" enable-background="new 0 0 47.5 47.5" width="47.5" height="47.5" id="emoji-activity-skier" x="285"><defs><clipPath id="bka"><path d="M0 38h38V0H0v38z"/></clipPath><clipPath id="bkb"><path d="M20.078 33.314c-.247-.166-6.067-4.07-7.08-4.792-.37-.266-.474-.774-.233-1.164.675-1.092 3.73-6.13 5.038-8.318-1.37-1.125-3.432-2.895-5.058-4.61-.153-.16-.24-.375-.24-.597 0-.604.143-1.376.355-2.35.055-.253.218-.466.447-.586.125-.066.263-.1.402-.1.11 0 .224.024.33.067.13.054 12.96 5.368 14.302 5.863.342.125.57.45.57.815 0 .92-1.02 4.808-1.03 4.846-.023.085-.057.165-.103.238-.67 1.076-1.518 2.475-2.383 3.902-1.81 2.993-3.52 5.82-4.16 6.61-.17.21-.42.323-.676.323-.165 0-.334-.047-.482-.146"/></clipPath><clipPath id="bkc"><path d="M0 38h38V0H0v38z"/></clipPath></defs><g transform="matrix(1.25 0 0 -1.25 0 47.5)"><g><g clip-path="url(#bka)"><g transform="translate(37 21.95)"><path d="M0 0v-16.95s0-4-4-4h-28c-4 0-4 4-4 4v2S-20.042-8.075 0 0" fill="#e1e8ed"/></g><g transform="translate(13.709 10.798)"><path d="M0 0c-.14 0-.277.033-.402.1-.23.12-.392.333-.447.585-.21.974-.352 1.747-.352 2.35 0 .223.085.437.238.598C.663 5.348 2.726 7.116 4.094 8.24 2.786 10.43-.27 15.47-.944 16.56c-.24.39-.138.898.235 1.164 1.013.722 6.832 4.626 7.08 4.792.374.252.877.174 1.16-.176.637-.79 2.347-3.617 4.16-6.61.863-1.427 1.71-2.827 2.38-3.902.047-.073.08-.153.103-.237.01-.038 1.03-3.927 1.03-4.846 0-.364-.228-.69-.57-.815C13.29 5.434.463.12.333.065.226.022.113 0 0 0" fill="#55acee"/></g><g transform="translate(12.751 9.631)"><path d="M0 0c-.34 0-.66.2-.8.53-.187.444.02.953.462 1.14L6.87 4.712c.445.184.952-.022 1.138-.463.187-.443-.02-.953-.463-1.14L.337.068C.227.022.112 0 0 0" fill="#269"/></g><g transform="translate(24.834 14.714)"><path d="M0 0c-.335 0-.654.195-.797.522-.19.44.01.953.45 1.144l4.79 2.084c.44.19.953-.01 1.145-.45.19-.44-.01-.952-.45-1.144L.348.072C.232.022.115 0 0 0" fill="#269"/></g><g transform="translate(6.594 5.343)"><path d="M0 0c-.208 0-.41.014-.61.042-1.264.18-2.26.93-2.878 2.168-.247.494-.047 1.095.447 1.342.494.246 1.094.047 1.34-.448.633-1.265 1.865-1.45 3.66-.552 1.23.615 7.656 3.302 14.46 6.148 4.397 1.838 8.794 3.677 11.593 4.876.503.22 1.094-.017 1.312-.525.218-.506-.017-1.094-.525-1.312-2.802-1.2-7.205-3.042-11.608-4.884C10.718 4.147 4.022 1.348 2.854.764 1.838.253.88 0 0 0" fill="#be1931"/></g></g></g><g><g clip-path="url(#bkb)"><g transform="translate(23.67 34.816)"><path d="M0 0c-.275.36-.76.49-1.175.318-1.177-.484-1.224-1.54-1.26-2.312-.05-1.12-.118-2.654-2.997-4.698-.866-.577-.682-1.473 1.04-5.042.9-1.867 1.992-3.924 2.488-4.76.183-.31.513-.49.86-.49.1 0 .2.017.3.048 1.33.418 3.16 1.136 4.773 1.77 1.175.46 2.285.896 3.04 1.154.385.13.675.434.796.83C8.282-11.81 5.636-7.374 0 0" fill="#3b88c3"/></g></g></g><g><g clip-path="url(#bkc)"><g transform="translate(17.69 22.471)"><path d="M0 0c-.284 0-.562.14-.73.394-.26.402-.147.94.254 1.202l2.498 1.63c.403.262.94.148 1.202-.254s.15-.94-.253-1.202L.475.14C.327.046.164 0 0 0" fill="#269"/></g><g transform="translate(19.679 19.395)"><path d="M0 0c-.42 0-.79.305-.857.733-.075.474.248.918.722.994l2.968.47c.476.074.917-.248.994-.722C3.9 1 3.577.555 3.104.48L.137.01C.09.004.045 0 0 0" fill="#269"/></g><g transform="translate(20.541 14.923)"><path d="M0 0c-.138 0-.278.033-.408.103l-1.73.924c-.425.227-.584.753-.358 1.176.225.423.75.583 1.175.358l1.73-.924C.833 1.41.993.883.768.46.61.167.31 0 0 0" fill="#269"/></g><g transform="translate(24.543 31.465)"><path d="M0 0c-.304 0-.6.16-.758.442-.235.418-.087.948.33 1.183L5.2 4.792c.418.236.948.087 1.183-.33.236-.42.088-.948-.33-1.184L.425.112C.29.036.145 0 0 0" fill="#bbddf5"/></g><g transform="translate(27.043 27.756)"><path d="M0 0c-.304 0-.6.16-.758.443-.235.418-.087.948.33 1.183L2.907 3.5c.418.236.948.088 1.183-.33.234-.42.086-.948-.332-1.184L.425.11C.29.037.145 0 0 0" fill="#bbddf5"/></g><g transform="translate(29.043 23.756)"><path d="M0 0c-.308 0-.605.163-.763.452-.23.42-.076.948.345 1.18L1.79 2.838c.42.23.95.076 1.18-.346.23-.42.075-.95-.346-1.18L.416.107C.284.034.14 0 0 0" fill="#bbddf5"/></g></g></g></g></svg><svg viewBox="0 0 47.5 47.5" enable-background="new 0 0 47.5 47.5" width="47.5" height="47.5" id="emoji-activity-snowboarder" x="285" y="47.5"><defs><clipPath id="bla"><path d="M0 38h38V0H0v38z"/></clipPath></defs><g transform="matrix(1.25 0 0 -1.25 0 47.5)"><g><g clip-path="url(#bla)"><g transform="translate(37 21)"><path d="M0 0v-16s0-4-4-4h-28c-4 0-4 4-4 4v2S-19-4 0 0" fill="#e1e8ed"/></g><g transform="translate(33.816 16.02)"><path d="M0 0c.462-1.003.023-2.19-.98-2.653L-24.596-13.53c-1.003-.462-2.19-.024-2.652.98l-.837 1.817c-.462 1.003-.023 2.19.98 2.653L-3.49 2.797c1.004.462 2.19.022 2.654-.98L0 0z" fill="#aa8ed6"/></g><g transform="translate(26.406 11)"><path d="M0 0c-.3 0-.605.067-.893.21l-2 1c-.438.22-.78.593-.962 1.047L-5.537 6.46-9.74 8.144c-1.027.41-1.526 1.574-1.115 2.6.41 1.026 1.575 1.525 2.6 1.114l5-2c.508-.203.91-.606 1.114-1.114L-.425 4.45l1.32-.66c.99-.495 1.39-1.696.895-2.685C1.44.405.735 0 0 0" fill="#67757f"/></g><g transform="translate(17.409 7)"><path d="M0 0c-.733 0-1.44.404-1.79 1.105l-1 2c-.2.398-.26.85-.172 1.288l.848 4.24-2.602 4.338c-.57.948-.262 2.176.686 2.745.946.57 2.175.26 2.743-.686l3-5c.257-.427.344-.934.246-1.423L1.093 4.28l.694-1.385C2.28 1.905 1.88.705.893.21.606.068.3 0 0 0" fill="#67757f"/></g><g transform="translate(25.408 21)"><path d="M0 0c-3.888 0-7.23 4.31-7.6 4.8-.663.884-.483 2.137.4 2.8.883.662 2.135.484 2.798-.397C-3.396 5.873-1.365 4 0 4c1.104 0 2-.896 2-2s-.896-2-2-2" fill="#ccd6dd"/></g><g transform="translate(8.408 16.999)"><path d="M0 0c-.837 0-1.618.53-1.897 1.368-1.058 3.175-.442 6.12 1.733 8.297 1.54 1.54 3.332 2.167 3.532 2.233 1.046.35 2.18-.216 2.53-1.265.348-1.044-.213-2.172-1.254-2.526C3.68 7.77.648 6.38 1.898 2.633 2.248 1.585 1.68.453.633.103.423.034.21 0 0 0" fill="#ccd6dd"/></g><g transform="translate(19.408 21.5)"><path d="M0 0c0-1.933-1.567-3.5-3.5-3.5S-7-1.933-7 0v4c0 1.933 1.567 3.5 3.5 3.5S0 5.933 0 4V0z" fill="#67757f"/></g><g transform="translate(21.408 27)"><path d="M0 0c0-1.104-.896-2-2-2h-7c-1.104 0-2 .896-2 2s.896 2 2 2h7c1.104 0 2-.896 2-2" fill="#ccd6dd"/></g><g transform="translate(12 18.5)"><path d="M0 0c-.1 0-.2.03-.285.09C-.42.182-.5.335-.5.5v7C-.5 10 2.208 10 4 10c1.792 0 4.5 0 4.5-2.5v-4c0-.208-.13-.395-.324-.468l-8-3C.12.01.06 0 0 0" fill="#ccd6dd"/></g><g transform="translate(32.475 33.158)"><path d="M0 0l-1 3c-.068.204-.26.342-.475.342-.13 0-3.213-.035-7.3-3.1-3.867-2.9-4.755-2.9-6.7-2.9h-3c-.132 0-.26-.053-.353-.147-.527-.527-.666-1.268-.37-1.982.374-.904 1.55-1.87 3.723-1.87 1.44 0 3.533 1.155 5.957 2.492C-6.538-2.52-3.163-.658-.475-.658c.162 0 .312.077.406.207.095.13.12.298.07.45" fill="#bb1a34"/></g><g transform="translate(19.408 33)"><path d="M0 0c0-2.21-1.79-4-4-4s-4 1.79-4 4 1.79 3 4 3 4-.79 4-3" fill="#d99e82"/></g><g transform="translate(13 33)"><path d="M0 0c2 0 4 1 4 0s0-3 2-3 3 7-3 7-6-4-3-4" fill="#9aaab4"/></g><g transform="translate(14 32.5)"><path d="M0 0c0-.83-.67-1.5-1.5-1.5S-3-.83-3 0s.67 1.5 1.5 1.5S0 .83 0 0" fill="#bdddf4"/></g><g transform="translate(12.5 33.5)"><path d="M0 0c-.55 0-1-.45-1-1s.45-1 1-1 1 .45 1 1-.45 1-1 1m0-3c-1.103 0-2 .897-2 2s.897 2 2 2 2-.897 2-2-.897-2-2-2" fill="#67757f"/></g><g transform="translate(17 32.5)"><path d="M0 0c0-.83-.67-1.5-1.5-1.5S-3-.83-3 0s.67 1.5 1.5 1.5S0 .83 0 0" fill="#bdddf4"/></g><g transform="translate(15.5 33.5)"><path d="M0 0c-.55 0-1-.45-1-1s.45-1 1-1 1 .45 1 1-.45 1-1 1m0-3c-1.103 0-2 .897-2 2s.897 2 2 2 2-.897 2-2-.897-2-2-2" fill="#67757f"/></g></g></g></g></svg><svg viewBox="0 0 47.5 47.5" enable-background="new 0 0 47.5 47.5" width="47.5" height="47.5" id="emoji-activity-soccer" x="285" y="95"><defs><clipPath id="bma"><path d="M0 38h38V0H0v38z"/></clipPath><clipPath id="bmb"><path d="M1 19C1 9.06 9.06 1 19 1s18 8.06 18 18-8.06 18-18 18S1 28.94 1 19"/></clipPath></defs><g transform="matrix(1.25 0 0 -1.25 0 47.5)"><g><g clip-path="url(#bma)"><g transform="translate(37 19)"><path d="M0 0c0-9.94-8.06-18-18-18S-36-9.94-36 0s8.06 18 18 18S0 9.94 0 0" fill="#f5f8fa"/></g><g transform="translate(19 26)"><path d="M0 0c-.552 0-1 .448-1 1v7c0 .552.448 1 1 1s1-.448 1-1V1C1 .448.552 0 0 0" fill="#ccd6dd"/></g><g transform="translate(12.417 21.5)"><path d="M0 0c-.1 0-.202.015-.302.047l-8.04 2.54c-.528.168-.82.73-.654 1.256.166.527.73.82 1.255.653L.3 1.954C.83 1.788 1.12 1.226.954.7.818.272.423 0 0 0" fill="#ccd6dd"/></g><g transform="translate(26.042 21.791)"><path d="M0 0c-.434 0-.833.285-.96.722-.154.53.15 1.085.682 1.24l6.75 1.957c.53.153 1.085-.153 1.238-.682.154-.53-.15-1.086-.682-1.24L.278.04C.186.013.092 0 0 0" fill="#ccd6dd"/></g><g transform="translate(28.043 6.833)"><path d="M0 0c-.306 0-.606.14-.803.403l-5.46 7.333c-.33.443-.237 1.07.206 1.4.443.33 1.07.237 1.4-.206L.8 1.597c.33-.443.24-1.07-.204-1.4C.416.065.206 0 0 0" fill="#ccd6dd"/></g><g transform="translate(9.749 6.916)"><path d="M0 0c-.197 0-.396.058-.57.18-.453.314-.565.937-.25 1.39l5.125 7.375c.315.454.938.567 1.392.25.453-.314.565-.937.25-1.39L.822.43C.628.15.316 0 0 0" fill="#ccd6dd"/></g></g></g><g><g clip-path="url(#bmb)"><g transform="translate(4.5 9.938)"><path d="M0 0c-.44 0-.844.293-.965.738L-3.152 8.8c-.145.533.17 1.083.703 1.228.536.14 1.084-.17 1.228-.704L.966 1.262C1.11.73.796.18.262.035.175.01.086 0 0 0" fill="#ccd6dd"/></g><g transform="translate(23 3)"><path d="M0 0h-9c-.552 0-1 .447-1 1 0 .553.448 1 1 1h9c.553 0 1-.447 1-1C1 .447.553 0 0 0" fill="#ccd6dd"/></g><g transform="translate(33.126 9.875)"><path d="M0 0c-.08 0-.16.01-.24.03-.536.13-.864.673-.732 1.21l2.125 8.624c.133.536.68.862 1.21.732.536-.132.865-.674.732-1.21L.97.76C.857.306.45 0 0 0" fill="#ccd6dd"/></g><g transform="translate(31.311 29.313)"><path d="M0 0c-.17 0-.342.043-.5.134L-8.063 4.51c-.477.276-.64.887-.364 1.366.276.478.886.643 1.366.365L.5 1.867C.98 1.59 1.144.978.866.5.682.18.346 0 0 0" fill="#ccd6dd"/></g><g transform="translate(6.501 29.313)"><path d="M0 0c-.312 0-.618.145-.813.417-.322.45-.22 1.074.23 1.395L5.603 6.25c.45.322 1.073.22 1.395-.23.32-.45.218-1.073-.23-1.395L.582.187C.405.06.202 0 0 0" fill="#ccd6dd"/></g><g transform="translate(26.493 23.484)"><path d="M0 0l-7.208 5.083c-.348.245-.814.244-1.162-.006L-15.537-.09c-.343-.247-.493-.684-.375-1.09l2.5-8.583c.124-.427.516-.72.96-.72h8.96c.43 0 .81.274.947.68L.372-1.136C.512-.716.362-.256 0 0" fill="#292f33"/></g><g transform="translate(7.774 31.632)"><path d="M0 0c-.19.233-.474.368-.774.368h-3c-.217 0-.427-.07-.6-.2l-4-3c-.252-.19-.4-.485-.4-.8v-7.584c0-.292.128-.57.35-.76l2.29-1.958c.184-.156.415-.24.65-.24.06 0 .118.005.176.015.294.053.55.235.697.495l3.374 6c.05.09.087.19.108.29L.206-.83C.266-.538.19-.232 0 0" fill="#292f33"/></g><g transform="translate(24.735 38.148)"><path d="M0 0c-.077.378-.437.634-.81.598L-11.104-.444c-.293-.03-.52-.174-.614-.453-.08-.174-.858-1.6-1.384-2.557-.118-.213-.125-.47-.018-.69.106-.22.313-.372.553-.412l6.375-1.04c.04-.008.08-.01.12-.01.042 0 .083.002.123.01l6.084 1c.2.032.38.145.495.313.116.168.158.375.118.575L0 0z" fill="#292f33"/></g><g transform="translate(38.697 20.359)"><path d="M0 0l-4.083 10.333c-.106.27-.36.457-.65.475l-3.334.21c-.23.012-.455-.077-.61-.25-.152-.173-.218-.402-.175-.63l1.167-6.198c.017-.086.048-.148.093-.224 1.492-2.504 3.153-5.3 3.38-5.78.025-.085.064-.08.115-.152.14-.196.372-.143.613-.143h.006c.25 0 .375-.154 3.18 1.62.306.193.43.405.298.74" fill="#292f33"/></g><g transform="translate(15.349 4.168)"><path d="M0 0l-4.5 5c-.06.066-.13.122-.21.163-5.886 3.07-5.995 3.106-6.067 3.13-.077.025-.16.04-.24.04-.678 0-.75-.093-1.646-3.957-.012-.05-.02-.102-.02-.154l-.083-4.125c-.005-.273.138-.527.374-.663l7.333-4.25c.12-.07.248-.102.377-.102.18 0 .358.064.498.19L-.06-1.063c.15.132.24.32.25.518.012.2-.057.396-.19.544" fill="#292f33"/></g><g transform="translate(34.994 8.556)"><path d="M0 0l-1.21 3.21c-.072.19-.22.346-.41.426-.19.08-.405.078-.592-.005L-8.295.965C-8.4.918-8.495.848-8.57.76l-4.25-5.084c-.128-.155-.19-.353-.17-.552.018-.2.116-.384.27-.51 4.792-3.92 4.893-3.92 5.226-3.92.28 0 .384 0 6.484 3.867.183.117.307.305.34.52L.04-.38C.06-.252.044-.12 0 0" fill="#292f33"/></g></g></g></g></svg><svg viewBox="0 0 47.5 47.5" enable-background="new 0 0 47.5 47.5" width="47.5" height="47.5" id="emoji-activity-surfer" x="285" y="142.5"><defs><clipPath id="bna"><path d="M0 38h38V0H0v38z"/></clipPath></defs><g transform="matrix(1.25 0 0 -1.25 0 47.5)"><g><g clip-path="url(#bna)"><g transform="translate(37 32)"><path d="M0 0v-27s0-4-4-4h-28c-4 0-4 4-4 4v5s25 2 36 22" fill="#4289c1"/></g><g transform="translate(31.59 16.568)"><path d="M0 0s2.33 2.136 1.924 3.05C1.516 3.962-9.752 2.217-15.23-.23c-8.22-3.668-12.068-9.766-11.253-11.592.816-1.826 7.925-3.034 16.143.634C-4.86-8.74 3.96-1.516 3.555-.604 3.145.31 0 0 0 0" fill="#a7d28b"/></g><g transform="translate(35.145 15.965)"><path d="M0 0c-.408.913-3.555.604-3.555.604s2.204 2.023 1.943 2.972L-29.532-8.64c-.57-1.115-.747-2.036-.506-2.577.21-.472.85-.9 1.812-1.217L-.01-.09c0 .028.02.07.01.09" fill="#f5f8fa"/></g><g transform="translate(25.408 22)"><path d="M0 0c-3.4 0-6.462 3.95-6.8 4.4-.33.44-.242 1.067.2 1.4.44.33 1.066.242 1.4-.2C-4.446 4.6-2.042 2 0 2c.553 0 1-.448 1-1S.553 0 0 0" fill="#d99e82"/></g><g transform="translate(8.408 18)"><path d="M0 0c-.42 0-.81.265-.95.684-1.194 3.584.153 5.933 1.493 7.273 1.4 1.4 3.07 1.968 3.14 1.992.526.175 1.09-.11 1.266-.634.173-.523-.11-1.087-.63-1.264-.517-.176-4.996-1.86-3.37-6.736C1.123.792.84.226.315.052.21.017.104 0 0 0" fill="#d99e82"/></g><g transform="translate(19.408 21.5)"><path d="M0 0c0-1.933-1.567-3.5-3.5-3.5S-7-1.933-7 0v4c0 1.933 1.567 3.5 3.5 3.5S0 5.933 0 4V0z" fill="#67757f"/></g><g transform="translate(21.408 27)"><path d="M0 0c0-1.104-.896-2-2-2h-7c-1.104 0-2 .896-2 2s.896 2 2 2h7c1.104 0 2-.896 2-2" fill="#67757f"/></g><g transform="translate(19.408 33)"><path d="M0 0c0-2.21-1.79-4-4-4s-4 1.79-4 4 1.79 4 4 4 4-1.79 4-4" fill="#d99e82"/></g><g transform="translate(10.408 33)"><path d="M0 0s0 4 5 4c4 0 4-4 4-4s0 2-3 2C4 2 4-1 0 0" fill="#fdcb58"/></g><g transform="translate(26.406 11)"><path d="M0 0c-.3 0-.605.067-.893.21l-2 1c-.438.22-.78.593-.962 1.047L-5.537 6.46-9.74 8.144c-1.027.41-1.526 1.574-1.115 2.6.41 1.026 1.575 1.525 2.6 1.114l5-2c.508-.203.91-.606 1.114-1.114L-.425 4.45l1.32-.66c.99-.495 1.39-1.696.895-2.685C1.44.405.735 0 0 0" fill="#67757f"/></g><g transform="translate(17.409 7)"><path d="M0 0c-.733 0-1.44.404-1.79 1.105l-1 2c-.2.398-.26.85-.172 1.288l.848 4.24-2.602 4.338c-.57.948-.262 2.176.686 2.745.946.57 2.175.26 2.743-.686l3-5c.257-.427.344-.934.246-1.423L1.093 4.28l.694-1.385C2.28 1.905 1.88.705.893.21.606.068.3 0 0 0" fill="#67757f"/></g></g></g></g></svg><svg viewBox="0 0 47.5 47.5" enable-background="new 0 0 47.5 47.5" width="47.5" height="47.5" id="emoji-activity-tennisBall" x="285" y="190"><defs><clipPath id="boa"><path d="M0 38h38V0H0v38z"/></clipPath><clipPath id="bob"><path d="M1 19C1 9.06 9.06 1 19 1s18 8.06 18 18-8.06 18-18 18S1 28.94 1 19"/></clipPath></defs><g transform="matrix(1.25 0 0 -1.25 0 47.5)"><g><g clip-path="url(#boa)"><g transform="translate(19 1)"><path d="M0 0c-9.94 0-18 8.06-18 18s8.06 18 18 18 18-8.06 18-18S9.94 0 0 0" fill="#77b255"/></g></g></g><g><g clip-path="url(#bob)"><g transform="translate(35 33)"><path d="M0 0c4.352 0 9-3.678 9-14S4.352-28 0-28s-9 3.678-9 14S-4.352 0 0 0" fill="#a6d388"/></g><g transform="translate(35 7)"><path d="M0 0c4.318 0 7 4.598 7 12S4.318 24 0 24s-7-4.598-7-12S-4.318 0 0 0m0 26c4.352 0 9-3.678 9-14S4.352-2 0-2s-9 3.678-9 14 4.648 14 9 14" fill="#fff"/></g><g transform="translate(3 33)"><path d="M0 0c4.35 0 9-3.678 9-14S4.35-28 0-28s-9 3.678-9 14S-4.35 0 0 0" fill="#a6d388"/></g><g transform="translate(3 7)"><path d="M0 0c4.317 0 7 4.598 7 12S4.317 24 0 24s-7-4.598-7-12C-7 4.6-4.317 0 0 0m0 26c4.35 0 9-3.678 9-14S4.35-2 0-2s-9 3.678-9 14 4.65 14 9 14" fill="#fff"/></g></g></g></g></svg><svg viewBox="0 0 47.5 47.5" enable-background="new 0 0 47.5 47.5" width="47.5" height="47.5" id="emoji-activity-walker" x="285" y="237.5"><defs><clipPath id="bpa"><path d="M0 38h38V0H0v38z"/></clipPath></defs><g transform="matrix(1.25 0 0 -1.25 0 47.5)"><g><g clip-path="url(#bpa)"><g transform="translate(16.316 33.739)"><path d="M0 0c-1.207-.267 1.054-1.53.684-2.74-.252-.837.225 0 1 0 0 0 .627-1.282.423-3.225C1.9-7.905 4.58-8.58 4.784-6.638c.204 1.94-1.385 2.988-.51 4.5C6.363 1.482 0 0 0 0" fill="#d99e82"/></g><g transform="translate(25 16)"><path d="M0 0c-.553 0-1 .447-1 1 0 4.52-4.66 9.247-4.708 9.294-.39.39-.39 1.024.002 1.414.39.39 1.023.39 1.413 0C-4.077 11.49 1 6.353 1 1 1 .447.553 0 0 0" fill="#cc927a"/></g><g transform="translate(17 2)"><path d="M0 0c-1.104 0-2 .896-2 2v7c0 .348.09.69.264.992l4 7c.548.96 1.77 1.294 2.728.744.96-.548 1.292-1.77.744-2.728L2 8.468V2c0-1.104-.896-2-2-2" fill="#2a6797"/></g><g transform="translate(26.001 5)"><path d="M0 0c-.587 0-1.168.257-1.562.75l-4 5c-.2.25-.337.544-.4.857l-1 5c-.217 1.083.485 2.138 1.568 2.354 1.088.22 2.138-.485 2.354-1.567l.905-4.524L1.56 3.25c.69-.863.55-2.122-.312-2.812C.88.144.438 0 0 0" fill="#4289c1"/></g><g transform="translate(15.998 1.092)"><path d="M0 0l3.58-.092C3.24 2.918 1.937 1.95-.156 2.004-2.25 2.057-3.973 1.1-3.997.1-3.178.08-2.408.06-1 .022-.693.017-.37.01 0 0" fill="#292f33"/></g><g transform="translate(27.123 3.862)"><path d="M0 0l2.503 2.564C.065 4.36-.115 2.747-1.575 1.247-3.04-.25-3.51-2.163-2.795-2.863L-.697-.714 0 0" fill="#292f33"/></g><g transform="translate(24 18)"><path d="M0 0s0-1-2-1h-4c-2 6-.36 12 2 12 3 0 3-4 4-9" fill="#a0041e"/></g><g transform="translate(19 25.003)"><path d="M0 0c0-.045-.066-4.552-3.6-7.203l.01-.014C-3.833-7.4-4-7.677-4-8.003c0-.553.448-1 1-1 .225 0 .423.088.59.214l.01-.013C1.95-5.54 2-.228 2-.003L0 0z" fill="#d99e82"/></g><g transform="translate(23 33)"><path d="M0 0c0-2.21-1.79-4-4-4s-4 1.79-4 4 1.79 4 4 4 4-1.79 4-4" fill="#d99e82"/></g><g transform="translate(14 33)"><path d="M0 0s0 4 5 4c4 0 4-4 4-4s0 2-3 2C4 2 4-1 0 0" fill="#fdcb58"/></g></g></g></g></svg></svg>