<?xml version="1.0" encoding="UTF-8" standalone="no"?>
<svg width="60px" height="60px" viewBox="0 0 60 60" version="1.1" xmlns="http://www.w3.org/2000/svg" xmlns:xlink="http://www.w3.org/1999/xlink" xmlns:sketch="http://www.bohemiancoding.com/sketch/ns">
    <!-- Generator: Sketch 3.3.1 (12005) - http://www.bohemiancoding.com/sketch -->
    <title>Angelist</title>
    <desc>Created with Sketch.</desc>
    <defs></defs>
    <g id="Kricket" stroke="none" stroke-width="1" fill="none" fill-rule="evenodd" sketch:type="MSPage">
        <g id="Angelist" sketch:type="MSLayerGroup" transform="translate(-1.000000, -1.000000)">
            <g id="Instagram" transform="translate(1.000000, 1.000000)"></g>
            <g id="Imported-Layers" transform="translate(0.500000, 0.500000)" fill="#FFFFFF" sketch:type="MSShapeGroup">
                <path d="M30.5,60.5 C47.0685425,60.5 60.5,47.0685425 60.5,30.5 C60.5,13.9314575 47.0685425,0.5 30.5,0.5 C13.9314575,0.5 0.5,13.9314575 0.5,30.5 C0.5,47.0685425 13.9314575,60.5 30.5,60.5 Z M18.1421136,38.6154383 C18.3151515,37.6575315 18.7750758,36.8636801 19.5176515,36.2345718 C19.8121212,35.9850504 20.1485455,35.8145113 20.5339167,35.750461 C20.8056364,35.705272 21.0671136,35.7232494 21.3165758,35.8551814 C21.6010985,36.0057783 21.8539091,36.1987154 22.0929318,36.4111033 C22.5943182,36.8568035 23.0372045,37.3576146 23.4643333,37.8723753 C24.1370833,38.6833199 24.7893485,39.5098841 25.3576061,40.3988287 C25.6221364,40.812602 25.8734697,41.2344307 26.066303,41.6870076 C26.1391818,41.8580378 26.193053,42.0381058 26.2445606,42.2171914 C26.3059167,42.430267 26.2598258,42.6328312 26.1312045,42.8076927 C25.8369318,43.2076146 25.4439773,43.4432846 24.9414091,43.4779622 C24.4877879,43.509398 24.0697197,43.3858161 23.6713485,43.1796171 C23.225803,42.9489572 22.8411212,42.6374484 22.4827348,42.291262 C22.0440833,41.8677632 21.6631439,41.3950479 21.295303,40.9103476 C20.921947,40.4182796 20.5391364,39.9334811 20.1599697,39.4458338 C20.135447,39.4142997 20.1070833,39.3857128 20.0768485,39.3515264 C19.8935682,39.531398 19.8195076,39.7531184 19.7839545,39.9923249 C19.7099924,40.4895995 19.79075,40.9703703 19.9500985,41.4399421 C20.1359394,41.9874156 20.4324773,42.475063 20.7929318,42.924005 C21.4450985,43.7363249 22.2038258,44.4315466 23.0964924,44.9750907 C23.6106818,45.2881713 24.1599318,45.5182418 24.7561591,45.6212922 C25.6520758,45.7760151 26.4932348,45.6575416 27.2368939,45.0962166 C27.7499015,44.7089673 28.1205,44.2228917 28.2635985,43.5845491 C28.3470152,43.2127229 28.3271212,42.840602 28.2628106,42.469267 C28.2328712,42.2959773 28.1943636,42.1242594 28.1555606,41.9314207 C28.2581818,41.9566675 28.348197,41.9782796 28.4379167,42.0009723 C28.7193864,42.0722922 29.0038106,42.1096222 29.2954242,42.0915466 C29.5578864,42.0753375 29.7856818,41.9773955 29.9919091,41.8204131 C30.0275606,41.7932997 30.0643939,41.7676599 30.1184621,41.7285617 C30.1230909,41.7874055 30.1296894,41.8294509 30.1292955,41.871398 C30.1247652,42.372602 30.1403258,42.8730202 30.1980379,43.3713753 C30.2915985,44.1793728 30.4656212,44.9657582 30.8318864,45.6998816 C31.0161515,46.0691537 31.2418788,46.4091511 31.5446212,46.6944307 C31.9149242,47.0435642 32.3524924,47.2450479 32.8600833,47.2936751 C32.9902803,47.0738212 32.9930379,46.8531814 32.949803,46.633131 C32.8511212,46.1311411 32.6835985,45.6485038 32.5246439,45.1636071 C32.3639167,44.6732091 32.2289924,44.1771134 32.1381894,43.6680504 C31.9777576,42.7688892 32.0779167,41.8952695 32.3752424,41.0396272 C32.7227955,40.0394786 33.2628864,39.1467028 33.9221439,38.3227909 C34.5109848,37.5867028 35.1935833,36.9474761 35.9541818,36.3913577 C36.4222803,36.049199 36.9367652,35.7862191 37.4669091,35.5562469 C37.9587424,35.3428766 38.4594394,35.1502343 38.9537348,34.9424635 C39.3412727,34.7795869 39.7225076,34.6023678 40.0761667,34.3728866 C40.1737652,34.3095239 40.2654545,34.2373199 40.3599015,34.1693401 C40.4038258,34.1377078 40.4300227,34.1005743 40.4182045,34.0412393 C40.3735909,33.8177506 40.3230682,33.5964232 40.2182803,33.3913048 C40.0429773,33.0480655 39.7688939,32.873204 39.3765303,32.8774282 C38.8440227,32.8830277 38.3110227,32.8896096 37.7787121,32.8758564 C36.9170682,32.8536549 36.0547348,32.8319446 35.1945682,32.7793879 C34.1881515,32.7177935 33.1878409,32.5934257 32.2041742,32.3617834 C31.5268939,32.2022469 30.8674394,31.993199 30.2630379,31.6382695 C29.7649015,31.3457204 29.3409242,30.9755642 29.0656591,30.4599194 C28.7384924,29.8469219 28.6538939,29.1956121 28.7986667,28.518073 C28.8925227,28.0788564 29.1691667,27.7978992 29.5968864,27.6651814 C29.8396515,27.5898338 30.0893106,27.5385542 30.3432045,27.5403224 C31.0783939,27.5457254 31.8142727,27.5452343 32.5485758,27.5771612 C33.1709015,27.6041763 33.7929318,27.6595819 34.4125,27.7265793 C35.6413939,27.8594937 36.8592576,28.0626474 38.0638258,28.3425239 C39.0303561,28.5671914 39.9881212,28.8212317 40.9161439,29.1764559 C41.4563333,29.3831461 41.9778106,29.6263804 42.4595,29.9514458 C43.0197803,30.329461 43.353053,30.8636725 43.5541591,31.4925844 C43.6994242,31.9470277 43.7865833,32.4141436 43.8318864,32.8878413 C43.8650758,33.2348136 43.8780758,33.5836524 43.9018106,33.9315088 C43.9047652,33.9761083 43.9176667,34.0199219 43.9259394,34.0641285 L43.9259394,35.7341537 C43.9171742,35.7981058 43.9039773,35.8618615 43.9003333,35.9260101 C43.8880227,36.1481234 43.8840833,36.370728 43.8676364,36.5924484 C43.8109091,37.3597758 43.6956818,38.1185567 43.532,38.870461 C42.9920076,41.3514307 41.8996136,43.5563552 40.2206439,45.4684358 C39.2886818,46.5296877 38.2332197,47.4458438 37.0197879,48.1759395 C35.1082955,49.3259975 33.0207121,49.8583426 30.8037197,49.9204282 C29.6390379,49.9530428 28.4863712,49.8396776 27.3489697,49.5807254 C25.7686818,49.2210806 24.3175076,48.5745844 22.9997803,47.6330831 C21.9851894,46.908194 21.123053,46.0302519 20.3770303,45.0338363 C19.664,44.081529 19.0476818,43.0754861 18.6152348,41.963937 C18.3688258,41.3305063 18.1800303,40.6819471 18.1050833,40.0037204 C18.0975985,39.9356423 18.0700227,39.8697254 18.0517045,39.8028262 L18.0517045,39.0741058 C18.0819394,38.9212494 18.1144394,38.7687859 18.1421136,38.6154383 Z M30.2546667,38.5712317 C30.2348712,38.7012972 30.2293561,38.8295945 30.1945909,38.9494433 C30.0704015,39.377461 29.8046894,39.7001688 29.4188258,39.9196297 C29.154197,40.0700302 28.8694773,40.0812292 28.5799318,39.9978262 C28.3046667,39.9186474 28.0557955,39.7839647 27.8179545,39.6282594 C27.2210379,39.2373753 26.6899091,38.7673123 26.2086136,38.2449874 C24.8697121,36.791869 23.681,35.2272519 22.7291439,33.4919975 C22.4444242,32.9729144 22.1981136,32.4363451 22.0258636,31.8671612 C21.8600152,31.3187053 21.9206818,30.8109194 22.2495227,30.3362393 C22.5113939,29.9582242 22.8232955,29.6294257 23.193303,29.3562292 C23.3736288,29.2231184 23.5691212,29.116728 23.7878561,29.0605365 C24.0787803,28.9857783 24.3615303,29.0351914 24.6381742,29.1311688 C25.0073939,29.2593678 25.3241212,29.4757834 25.6188864,29.7266801 C26.1361288,30.1670756 26.5601061,30.689597 26.9354318,31.250529 C27.9827197,32.815932 28.8423939,34.4793753 29.5233182,36.2343753 C29.7536742,36.8279219 29.9821591,37.4223526 30.1433788,38.0393778 C30.1891742,38.2147305 30.2182273,38.394602 30.2546667,38.5712317 Z M30.5868561,33.9118615 C32.0394091,34.4475466 33.5477045,34.6739824 35.0879091,34.7687809 C33.9163333,35.5618463 32.9103106,36.5216196 32.0080909,37.6391612 C31.8252045,36.9782242 31.6319773,36.3492141 31.3793636,35.7417179 C31.1261591,35.1325516 30.8556212,34.5304584 30.5868561,33.9118615 Z M39.0441439,26.858068 C37.8070758,26.642733 36.5820227,26.4293627 35.335697,26.2123577 C35.3540152,26.1529244 35.3679015,26.1020378 35.3851364,26.05233 C35.8882955,24.6010781 36.3913561,23.1498262 36.8954015,21.698869 C37.4625758,20.066665 38.0257121,18.4329874 38.6001742,16.8033375 C38.9396515,15.8400277 39.3208864,14.8928287 39.7896742,13.9833526 C40.0311591,13.5148615 40.2992348,13.0626776 40.6443258,12.6602997 C40.8032803,12.474927 40.9808485,12.3107733 41.1834318,12.1725542 C41.7786742,11.7662469 42.6542045,11.9410101 43.0084545,12.6597103 C43.2235455,13.0960781 43.2742652,13.5621134 43.2063106,14.0354181 C43.0912803,14.8376196 42.8567879,15.6127078 42.6285985,16.3881889 C41.998,18.5312242 41.2777803,20.6451814 40.5321515,22.7503955 C40.0665152,24.065 39.586303,25.374398 39.1123939,26.6860554 C39.0935833,26.7381209 39.0716212,26.7891058 39.0441439,26.858068 Z M25.4182727,11.048529 C25.4695833,11.0655239 25.5205985,11.083403 25.572303,11.0992191 C25.8992727,11.1994207 26.1491288,11.4091562 26.36875,11.6600529 C26.6104318,11.9361965 26.797947,12.2481965 26.9638939,12.5734584 C27.3643333,13.358272 27.7007576,14.1714761 28.0001515,14.9982368 C28.559053,16.5421259 29.1040682,18.0911234 29.6462273,19.641005 C30.3502955,21.6534836 31.0458939,23.6690076 31.7447424,25.6833526 C31.7625682,25.7346322 31.7758636,25.7875819 31.7952652,25.853597 C31.7415909,25.8507481 31.7025909,25.8499622 31.6637879,25.8464257 C30.8765985,25.7742217 30.0900985,25.6892469 29.2985758,25.686005 C29.1023939,25.6851209 28.9042424,25.712529 28.7102273,25.7461259 C28.4184167,25.7966196 28.1812652,25.942403 28.0187652,26.1965416 C28.0083258,26.2127506 27.9940455,26.2264055 27.9695227,26.2553854 C27.9527803,26.2189395 27.9397803,26.1947733 27.9301288,26.1692317 C27.1104394,23.9994761 26.3076894,21.8236297 25.5683636,19.6250907 C25.1367045,18.3414307 24.7223788,17.052466 24.3736439,15.743461 C24.2017879,15.0988312 24.045,14.4505668 23.9403106,13.7912997 C23.8689091,13.34167 23.8098182,12.8898791 23.8661515,12.4325869 C23.9084015,12.0897406 24.015947,11.7727305 24.2419697,11.5042494 C24.4340152,11.2760453 24.6707727,11.1217154 24.9709545,11.0743652 C24.9890758,11.0715164 25.0054242,11.0574685 25.0225606,11.048529 L25.4182727,11.048529 Z" id="Oval-49"></path>
            </g>
        </g>
    </g>
</svg>