<?xml version="1.0" encoding="UTF-8" standalone="no"?>
<svg width="46px" height="46px" viewBox="0 0 46 46" version="1.1" xmlns="http://www.w3.org/2000/svg" xmlns:xlink="http://www.w3.org/1999/xlink" xmlns:sketch="http://www.bohemiancoding.com/sketch/ns">
    <!-- Generator: Sketch 3.3.1 (12005) - http://www.bohemiancoding.com/sketch -->
    <title>Zoom1</title>
    <desc>Created with Sketch.</desc>
    <defs></defs>
    <g id="UI/UX-1.3" stroke="none" stroke-width="1" fill="none" fill-rule="evenodd" sketch:type="MSPage">
        <g id="Zoom1" sketch:type="MSLayerGroup" transform="translate(1.000000, 1.000000)">
            <g transform="translate(0.000000, 0.402935)" sketch:type="MSShapeGroup">
                <g id="Toggle_button-Copy-2" stroke="#9D9D9D" stroke-width="2" fill="#FFFFFF">
                    <ellipse id="Button_Overlay" cx="22" cy="21.5111111" rx="22" ry="21.5111111"></ellipse>
                </g>
                <g id="btn_zoom-copy-2" transform="translate(4.750000, 4.644444)">
                    <path d="M17.25,33.0846154 C26.4104922,33.0846154 33.8365385,25.8235924 33.8365385,16.8666667 C33.8365385,7.90974092 26.4104922,0.648717949 17.25,0.648717949 C8.08950776,0.648717949 0.663461538,7.90974092 0.663461538,16.8666667 C0.663461538,25.8235924 8.08950776,33.0846154 17.25,33.0846154 Z" id="Oval-11-Copy-7" fill="#9D9D9D"></path>
                    <path d="M17.25,0 C20.3795729,0 23.2657745,0.754014451 25.9086914,2.26206597 C28.5516083,3.77011749 30.644198,5.81620525 32.1865234,8.40039062 C33.7288489,10.984576 34.5,13.8066398 34.5,16.8666667 C34.5,19.9266935 33.7288489,22.7487573 32.1865234,25.3329427 C30.644198,27.9171281 28.5516083,29.9632158 25.9086914,31.4712674 C23.2657745,32.9793189 20.3795729,33.7333333 17.25,33.7333333 C14.1204271,33.7333333 11.2342255,32.9793189 8.59130859,31.4712674 C5.94839173,29.9632158 3.85580198,27.9171281 2.31347656,25.3329427 C0.771151143,22.7487573 0,19.9266935 0,16.8666667 C0,13.8066398 0.771151143,10.984576 2.31347656,8.40039062 C3.85580198,5.81620525 5.94839173,3.77011749 8.59130859,2.26206597 C11.2342255,0.754014451 14.1204271,0 17.25,0 Z M9.08376344,13.4713144 C8.91950717,9.44108473 12.8845341,5.50246022 17.4132258,5.61870538 C21.9489247,5.73534796 25.5819355,9.13844989 25.5959498,13.4949609 C25.6025448,15.5327286 24.8595789,17.3644344 24.0141846,19.1788525 C22.5086738,22.4102692 20.2305197,25.1391492 17.9678226,27.8803492 C17.5787186,28.3518873 17.1826075,28.2618718 16.8479122,27.8902847 C13.406362,24.0687002 10.3737007,20.0162151 9.20267921,14.9497144 C9.09221326,14.4720163 9.12003584,13.9649092 9.08376344,13.4713144 Z" id="zoom" fill="#FFFFFF"></path>
                    <ellipse id="Oval" fill="#FFFFFF" cx="17.25" cy="13.6021505" rx="3.89516129" ry="3.80860215"></ellipse>
                </g>
            </g>
        </g>
    </g>
</svg>