<?xml version="1.0" encoding="UTF-8" standalone="no"?>
<svg width="46px" height="46px" viewBox="0 0 46 46" version="1.1" xmlns="http://www.w3.org/2000/svg" xmlns:xlink="http://www.w3.org/1999/xlink" xmlns:sketch="http://www.bohemiancoding.com/sketch/ns">
    <!-- Generator: Sketch 3.3.1 (12005) - http://www.bohemiancoding.com/sketch -->
    <title>btn_zoom_globe</title>
    <desc>Created with Sketch.</desc>
    <defs></defs>
    <g id="Page-2" stroke="none" stroke-width="1" fill="none" fill-rule="evenodd" sketch:type="MSPage">
        <g id="btn_zoom_globe" sketch:type="MSLayerGroup" transform="translate(1.000000, 1.000000)">
            <g id="Toggle_button" stroke="#9D9D9D" stroke-width="2" fill="#FFFFFF" sketch:type="MSShapeGroup">
                <circle id="Button_Overlay" cx="22" cy="22" r="22"></circle>
            </g>
            <g id="btn_zoom" transform="translate(4.750000, 4.750000)" sketch:type="MSShapeGroup">
                <path d="M17.25,33.8365385 C26.4104922,33.8365385 33.8365385,26.4104922 33.8365385,17.25 C33.8365385,8.08950776 26.4104922,0.663461538 17.25,0.663461538 C8.08950776,0.663461538 0.663461538,8.08950776 0.663461538,17.25 C0.663461538,26.4104922 8.08950776,33.8365385 17.25,33.8365385 Z" id="Oval-11-Copy-7" fill="#9D9D9D"></path>
                <path d="M17.25,0 C20.3795729,0 23.2657745,0.771151143 25.9086914,2.31347656 C28.5516083,3.85580198 30.644198,5.94839173 32.1865234,8.59130859 C33.7288489,11.2342255 34.5,14.1204271 34.5,17.25 C34.5,20.3795729 33.7288489,23.2657745 32.1865234,25.9086914 C30.644198,28.5516083 28.5516083,30.644198 25.9086914,32.1865234 C23.2657745,33.7288489 20.3795729,34.5 17.25,34.5 C14.1204271,34.5 11.2342255,33.7288489 8.59130859,32.1865234 C5.94839173,30.644198 3.85580198,28.5516083 2.31347656,25.9086914 C0.771151143,23.2657745 0,20.3795729 0,17.25 C0,14.1204271 0.771151143,11.2342255 2.31347656,8.59130859 C3.85580198,5.94839173 5.94839173,3.85580198 8.59130859,2.31347656 C11.2342255,0.771151143 14.1204271,0 17.25,0 L17.25,0 Z M23.1536528,12.3245444 C23.1258549,12.3384434 23.0598358,12.4044625 22.9555935,12.5226037 C22.8513513,12.6407449 22.7575346,12.706764 22.6741408,12.720663 C22.7019388,12.720663 22.733211,12.6859161 22.7679584,12.6164213 C22.8027058,12.5469264 22.8374527,12.4704832 22.8722001,12.3870894 C22.9069475,12.3036956 22.9312704,12.25505 22.9451693,12.241151 C23.0285632,12.1438582 23.1814495,12.0396175 23.403833,11.9284258 C23.5984185,11.845032 23.9597863,11.7616394 24.4879471,11.6782456 C24.960512,11.5670539 25.3149304,11.643497 25.5512128,11.9075774 C25.5234149,11.8797795 25.589434,11.7894376 25.7492721,11.6365489 C25.9091102,11.4836603 26.0098763,11.4002677 26.0515732,11.3863687 C26.0932701,11.3585708 26.1975108,11.3272986 26.3642984,11.2925512 C26.531086,11.2578038 26.6353267,11.2056834 26.6770236,11.1361886 L26.7187203,10.6775249 C26.5519327,10.6914239 26.4303185,10.6427782 26.3538742,10.5315865 C26.2774299,10.4203947 26.2322589,10.2744578 26.2183599,10.0937712 C26.2183599,10.1215691 26.1766637,10.1771642 26.0932699,10.260558 C26.0932699,10.1632652 26.0619976,10.1076702 25.9994523,10.0937712 C25.9369069,10.0798722 25.8569891,10.0868216 25.7596963,10.1146195 C25.6624035,10.1424175 25.5998591,10.1493668 25.5720612,10.1354679 C25.4330715,10.093771 25.3288308,10.0416506 25.2593359,9.97910527 C25.1898411,9.91655992 25.1342461,9.80189515 25.0925492,9.63510753 C25.0508523,9.46831992 25.0230547,9.36407922 25.0091558,9.32238232 C24.9813578,9.25288748 24.9153387,9.17991899 24.8110965,9.10347467 C24.7068542,9.02703034 24.6408351,8.95406186 24.6130372,8.88456702 C24.5991382,8.85676908 24.5817647,8.81854749 24.5609163,8.7699011 C24.5400678,8.72125472 24.5192197,8.67608375 24.4983713,8.63438684 C24.4775228,8.59268994 24.4497253,8.55446835 24.4149779,8.51972093 C24.3802304,8.48497351 24.3420089,8.46760006 24.3003119,8.46760006 C24.258615,8.46760006 24.2099694,8.50234696 24.1543735,8.5718418 C24.0987776,8.64133664 24.0466573,8.71083044 23.9980109,8.78032528 C23.9493645,8.84982012 23.9180923,8.88456702 23.9041933,8.88456702 C23.8624964,8.85676908 23.8208002,8.84634501 23.7791033,8.85329449 C23.7374064,8.86024398 23.7061341,8.86719336 23.6852857,8.87414284 C23.6644372,8.88109233 23.633165,8.90194047 23.5914681,8.93668789 C23.5497712,8.97143531 23.5150243,8.99575813 23.4872264,9.0096571 C23.4455295,9.03745504 23.3864598,9.05830318 23.3100154,9.07220215 C23.2335711,9.08610111 23.1745014,9.09999987 23.1328045,9.11389884 C23.341289,9.044404 23.3343396,8.96796082 23.1119561,8.88456702 C22.9729664,8.82897114 22.8617764,8.80812301 22.7783826,8.82202197 C22.9034733,8.7664261 22.9555936,8.68303354 22.9347452,8.5718418 C22.9138967,8.46065006 22.854827,8.36335874 22.7575342,8.27996493 L22.861776,8.27996493 C22.847877,8.22436906 22.7888073,8.16529933 22.684565,8.10275398 C22.5803227,8.04020862 22.4587086,7.98113889 22.3197189,7.92554302 C22.1807292,7.86994715 22.0903873,7.82825087 22.0486904,7.80045293 C21.9374986,7.73095809 21.7012197,7.66493899 21.3398466,7.60239363 C20.9784734,7.53984827 20.7491439,7.53637359 20.6518511,7.59196946 C20.5823563,7.67536326 20.551084,7.74833175 20.5580335,7.81087711 C20.564983,7.87342246 20.5927805,7.97071378 20.6414269,8.10275398 C20.6900733,8.23479417 20.7143961,8.32166142 20.7143961,8.36335832 C20.7282951,8.44675213 20.6900735,8.53709407 20.5997302,8.63438684 C20.5093869,8.73167962 20.464216,8.81507218 20.464216,8.88456702 C20.464216,8.98185979 20.5615073,9.08957518 20.7560928,9.20771641 C20.9506784,9.32585763 21.0201722,9.4752693 20.9645763,9.65595588 C20.9228794,9.76714763 20.8116893,9.8783377 20.6310027,9.98952945 C20.4503162,10.1007212 20.3391261,10.1841137 20.2974292,10.2397096 C20.2279343,10.3509014 20.2175103,10.4794649 20.2661567,10.6254041 C20.3148031,10.7713432 20.3877715,10.886008 20.4850643,10.9694018 C20.5128622,10.9971997 20.5232863,11.0249972 20.5163368,11.0527952 C20.5093874,11.0805931 20.4850645,11.1118653 20.4433676,11.1466127 C20.4016707,11.1813602 20.3634491,11.2091577 20.3287017,11.2300061 C20.2939543,11.2508546 20.2487833,11.2751774 20.1931874,11.3029754 L20.1306424,11.344672 C19.9777538,11.4141669 19.8352915,11.3724706 19.7032513,11.219582 C19.5712111,11.0666933 19.4773945,10.8860094 19.4217986,10.6775249 C19.3245058,10.3300507 19.2133157,10.1215693 19.088225,10.0520745 C18.7685488,9.94088275 18.5670167,9.94783213 18.4836229,10.0729228 C18.4141281,9.89223625 18.1292035,9.71155238 17.6288407,9.5308658 C17.2813665,9.40577508 16.8783024,9.37797757 16.4196365,9.44747241 C16.5030303,9.43357344 16.5030303,9.32933274 16.4196365,9.13474719 C16.3223437,8.92626267 16.1903055,8.84287011 16.0235179,8.88456702 C16.0652148,8.80117321 16.0930123,8.67955906 16.1069113,8.51972093 C16.1208103,8.3598828 16.1277596,8.26606617 16.1277596,8.23826824 C16.1694565,8.05758165 16.2528491,7.89774592 16.3779398,7.75875624 C16.3918388,7.74485727 16.4404844,7.68578754 16.5238782,7.58154528 C16.6072721,7.47730302 16.6732912,7.3834864 16.7219375,7.30009259 C16.7705839,7.21669878 16.7740586,7.1750025 16.7323617,7.1750025 C17.2188256,7.23059837 17.5662946,7.1541552 17.7747791,6.94567068 C17.8442739,6.87617584 17.9241918,6.75803638 18.0145351,6.59124877 C18.1048784,6.42446115 18.1778469,6.30632169 18.2334428,6.23682685 C18.3585335,6.15343305 18.4558248,6.11521146 18.5253196,6.12216094 C18.5948145,6.12911043 18.6955805,6.16733201 18.8276207,6.23682685 C18.9596609,6.30632169 19.0604269,6.34106859 19.1299217,6.34106859 C19.3245073,6.35496756 19.4322226,6.27852438 19.4530711,6.11173677 C19.4739196,5.94494915 19.4217992,5.80596156 19.2967085,5.69476981 C19.4634961,5.70866878 19.4843442,5.59052933 19.3592535,5.3403479 C19.2897587,5.24305513 19.2341637,5.18051071 19.1924668,5.15271277 C19.0256791,5.0971169 18.8380459,5.1318638 18.6295614,5.25695451 C18.5183696,5.31255038 18.5322684,5.36814542 18.6712581,5.42374129 C18.6573591,5.40984232 18.59134,5.48281081 18.4731988,5.64264894 C18.3550575,5.80248708 18.2403928,5.92410122 18.129201,6.00749503 C18.0180093,6.09088884 17.9068192,6.05614194 17.7956275,5.90325329 C17.7817285,5.88935432 17.7435069,5.7955377 17.6809615,5.6218006 C17.6184162,5.4480635 17.5523971,5.35424687 17.4829022,5.3403479 C17.3717105,5.3403479 17.2605204,5.4445886 17.1493287,5.65307312 C17.1910256,5.54188137 17.1145824,5.43764068 16.9199969,5.3403479 C16.7254113,5.24305513 16.5586262,5.18746009 16.4196365,5.17356112 C16.6837169,5.0067735 16.6281219,4.81914025 16.2528497,4.61065573 C16.1555569,4.55505986 16.0130947,4.52031296 15.8254586,4.50641399 C15.6378225,4.49251502 15.5023096,4.52031254 15.4189158,4.58980738 C15.349421,4.68710016 15.3111994,4.76701803 15.3042499,4.82956338 C15.2973004,4.89210874 15.3320473,4.94770378 15.4084916,4.99635016 C15.484936,5.04499655 15.5579045,5.08321814 15.6273993,5.11101608 C15.6968941,5.13881401 15.776812,5.16661153 15.8671553,5.19440947 C15.9574986,5.2222074 16.0165683,5.24305554 16.0443662,5.25695451 C16.2389518,5.39594419 16.2945468,5.49323551 16.211153,5.54883138 C16.1833551,5.56273035 16.1242854,5.58705318 16.0339421,5.6218006 C15.9435988,5.65654802 15.8636809,5.68782022 15.7941861,5.71561816 C15.7246912,5.7434161 15.682995,5.77121362 15.669096,5.79901155 C15.6273991,5.85460742 15.6273991,5.95189874 15.669096,6.09088842 C15.7107929,6.2298781 15.6968941,6.32716942 15.6273993,6.38276529 C15.5579045,6.31327045 15.49536,6.1916563 15.4397642,6.0179192 C15.3841683,5.8441821 15.3355226,5.72951734 15.2938257,5.67392147 C15.3911185,5.79901218 15.217384,5.84070846 14.772617,5.79901155 L14.5641336,5.7781632 C14.5085377,5.7781632 14.3973476,5.79206196 14.23056,5.8198599 C14.0637724,5.84765784 13.9213101,5.85460722 13.8031689,5.84070825 C13.6850276,5.82680928 13.591211,5.77121424 13.5217162,5.67392147 C13.4661203,5.56272972 13.4661203,5.42374213 13.5217162,5.25695451 C13.5356151,5.20135864 13.5634127,5.18745988 13.6051096,5.21525782 C13.5495137,5.17356091 13.4730705,5.1075418 13.3757777,5.01719851 C13.278485,4.92685522 13.2089912,4.86778549 13.1672943,4.83998756 C12.5279417,5.04847208 11.8747,5.33339665 11.2075496,5.69476981 C11.2909434,5.70866878 11.3743359,5.7017194 11.4577297,5.67392147 C11.5272246,5.64612353 11.6175665,5.60095256 11.7287583,5.53840721 C11.83995,5.47586185 11.9094438,5.43764026 11.9372417,5.42374129 C12.4098067,5.22915574 12.7016806,5.18051008 12.8128723,5.27780286 L12.9171141,5.17356112 C13.1116996,5.39594461 13.2506872,5.5696791 13.334081,5.69476981 C13.2367883,5.63917394 13.0283069,5.63222456 12.7086306,5.67392147 C12.4306512,5.75731527 12.2777649,5.84070783 12.249967,5.92410164 C12.3472597,6.09088925 12.3820066,6.21597809 12.3542087,6.2993719 C12.2986128,6.25767499 12.218695,6.1881812 12.1144527,6.09088842 C12.0102104,5.99359564 11.9094444,5.91715247 11.8121517,5.86155659 C11.7148589,5.80596072 11.6106182,5.77121382 11.4994264,5.75731486 C11.277043,5.75731486 11.1241566,5.76426424 11.0407628,5.7781632 C9.01151346,6.89008064 7.37840922,8.43284295 6.14140107,10.4064964 C6.23869385,10.5037892 6.3220864,10.5593842 6.39158124,10.5732832 C6.44717712,10.5871822 6.48192402,10.6497266 6.49582298,10.7609183 C6.50972195,10.8721101 6.5270954,10.9485532 6.54794385,10.9902501 C6.5687923,11.031947 6.64871017,11.0110989 6.78769985,10.9277051 C6.91279056,11.0388968 6.9336387,11.1709351 6.85024489,11.3238237 C6.86414386,11.3099247 7.16991657,11.497558 7.7675722,11.8867291 C8.03165259,12.1230115 8.17758956,12.2689485 8.2053875,12.3245444 C8.2470844,12.477433 8.1775906,12.6025219 7.99690402,12.6998147 C7.98300505,12.6720167 7.92046063,12.6094723 7.80926889,12.5121795 C7.69807715,12.4148867 7.63553273,12.3870892 7.62163376,12.4287861 C7.57993686,12.498281 7.58341155,12.6268445 7.63205793,12.8144806 C7.68070432,13.0021166 7.75367281,13.0889839 7.85096559,13.0750849 C7.75367281,13.0750849 7.6876537,13.186275 7.65290628,13.4086585 C7.61815886,13.631042 7.60078541,13.8777449 7.60078541,14.1487748 C7.60078541,14.4198047 7.59383603,14.5831151 7.57993707,14.638711 L7.62163376,14.6595593 C7.57993686,14.826347 7.61815845,15.0661006 7.73629967,15.3788273 C7.8544409,15.6915541 8.00385257,15.827067 8.18453915,15.7853701 C8.00385257,15.827067 8.14284016,16.1258903 8.6015061,16.6818491 C8.68489991,16.7930408 8.74049495,16.8555852 8.76829289,16.8694842 C8.80998979,16.8972821 8.89338235,16.9494025 9.01847306,17.0258468 C9.14356377,17.1022911 9.24780447,17.1717849 9.33119828,17.2343303 C9.41459208,17.2968756 9.48408588,17.3698441 9.53968175,17.4532379 C9.59527762,17.5227328 9.66477142,17.6790938 9.74816523,17.9223258 C9.83155904,18.1655577 9.92885035,18.3288681 10.0400421,18.4122619 C10.0122442,18.4956557 10.0782633,18.6346433 10.2381014,18.8292289 C10.3979395,19.0238144 10.470908,19.1836502 10.4570091,19.3087409 C10.4431101,19.3087409 10.4257366,19.3156903 10.4048882,19.3295892 C10.3840397,19.3434882 10.3666663,19.3504376 10.3527673,19.3504376 C10.3944642,19.4477304 10.5021796,19.5450217 10.6759167,19.6423144 C10.8496538,19.7396072 10.9573692,19.8299492 10.9990661,19.913343 C11.0129651,19.9550399 11.0268638,20.0245337 11.0407628,20.1218264 C11.0546618,20.2191192 11.0755099,20.2955624 11.1033078,20.3511583 C11.1311058,20.4067541 11.1867008,20.4206529 11.2700946,20.392855 C11.2978926,20.1148756 11.1311074,19.6840141 10.7697343,19.1002574 C10.5612497,18.7527832 10.4431103,18.5512512 10.4153124,18.4956553 C10.3736155,18.4261605 10.3353939,18.3184451 10.3006464,18.1725059 C10.265899,18.0265668 10.2346268,17.9258008 10.2068289,17.8702049 C10.2346268,17.8702049 10.2763231,17.880629 10.331919,17.9014774 C10.3875148,17.9223259 10.4465846,17.9466487 10.5091299,17.9744466 C10.5716753,18.0022446 10.6237956,18.0300421 10.6654925,18.05784 C10.7071894,18.085638 10.7210882,18.1064861 10.7071892,18.1203851 C10.6654923,18.2176778 10.6793911,18.339292 10.7488859,18.4852311 C10.8183808,18.6311703 10.9017733,18.7597338 10.9990661,18.8709256 C11.0963589,18.9821173 11.2144983,19.1141555 11.353488,19.2670442 C11.4924777,19.4199328 11.5758702,19.5102748 11.6036682,19.5380727 C11.687062,19.6214665 11.7843533,19.7569794 11.895545,19.9446155 C12.0067368,20.1322516 12.0067368,20.2260682 11.895545,20.2260682 C12.0206358,20.2260682 12.1596234,20.295562 12.312512,20.4345517 C12.4654006,20.5735413 12.5835401,20.7125289 12.6669339,20.8515186 C12.7364288,20.9627104 12.7920238,21.1433942 12.8337207,21.3935757 C12.8754176,21.6437571 12.9101645,21.8105422 12.9379624,21.893936 C12.9657604,21.9912288 13.0248301,22.0850454 13.1151734,22.1753887 C13.2055167,22.265732 13.2923839,22.3317511 13.3757777,22.373448 C13.4591715,22.4151449 13.5703616,22.4707399 13.7093513,22.5402348 C13.848341,22.6097296 13.9386829,22.6583753 13.9803798,22.6861732 C14.0498747,22.7139712 14.1784382,22.7869396 14.3660743,22.9050809 C14.5537103,23.0232221 14.703122,23.10314 14.8143137,23.1448369 C14.9533034,23.2004327 15.0644935,23.2282303 15.1478873,23.2282303 C15.2312811,23.2282303 15.3320471,23.2108568 15.4501883,23.1761094 C15.5683296,23.141362 15.6621462,23.1170391 15.731641,23.1031402 C15.9401255,23.0753422 16.1416576,23.1795829 16.3362431,23.4158654 C16.5308287,23.6521478 16.6767656,23.7980848 16.7740584,23.8536807 C17.2744213,24.1177611 17.6566372,24.1942043 17.9207175,24.0830125 C17.8929196,24.0969115 17.8963943,24.1490318 17.9311417,24.2393751 C17.9658891,24.3297184 18.0214842,24.4374338 18.0979285,24.5625245 C18.1743728,24.6876152 18.2369172,24.7883812 18.2855636,24.8648256 C18.33421,24.9412699 18.3724316,25.0003396 18.4002295,25.0420365 C18.4697244,25.1254303 18.5948132,25.229671 18.7754998,25.3547617 C18.9561864,25.4798524 19.0812752,25.5840931 19.1507701,25.6674869 C19.2341639,25.6118911 19.2828095,25.5493467 19.2967085,25.4798518 C19.2550116,25.5910436 19.3036572,25.7300312 19.4426469,25.8968188 C19.5816366,26.0636064 19.7067254,26.1331002 19.8179172,26.1053022 C20.0125027,26.0636053 20.1097941,25.8412252 20.1097941,25.4381551 C19.678926,25.6466396 19.3384064,25.5215508 19.088225,25.0628849 C19.088225,25.0489859 19.0708516,25.0107643 19.0361041,24.9482189 C19.0013567,24.8856736 18.9735592,24.8266039 18.9527108,24.771008 C18.9318623,24.7154121 18.9144889,24.6563424 18.9005899,24.593797 C18.8866909,24.5312517 18.8866909,24.4791313 18.9005899,24.4374344 C18.9144889,24.3957375 18.9492358,24.3748894 19.0048316,24.3748894 C19.1299223,24.3748894 19.1994161,24.3505666 19.2133151,24.3019202 C19.2272141,24.2532738 19.2133153,24.1664065 19.1716184,24.0413158 C19.1299215,23.9162251 19.102124,23.8258832 19.088225,23.7702873 C19.074326,23.6590956 18.9978829,23.520108 18.8588932,23.3533203 C18.7199035,23.1865327 18.636511,23.082292 18.608713,23.0405951 C18.5392182,23.1656858 18.4280281,23.2212809 18.2751395,23.2073819 C18.1222508,23.1934829 18.0110607,23.1309385 17.9415659,23.0197468 C17.9415659,23.0336457 17.9311418,23.0718673 17.9102934,23.1344127 C17.8894449,23.196958 17.8790208,23.242129 17.8790208,23.269927 C17.6983343,23.269927 17.5940936,23.2629776 17.5662956,23.2490786 C17.5801946,23.2073817 17.597568,23.0857676 17.6184165,22.8842325 C17.639265,22.6826975 17.6635878,22.5263364 17.6913857,22.4151447 C17.7052847,22.3595488 17.7435063,22.2761563 17.8060516,22.1649645 C17.868597,22.0537728 17.9207173,21.9530068 17.9624142,21.8626635 C18.0041111,21.7723202 18.0319087,21.6854529 18.0458076,21.6020591 C18.0597066,21.5186653 18.0284344,21.4526462 17.9519901,21.4039998 C17.8755457,21.3553534 17.7539316,21.33798 17.587144,21.351879 C17.3230636,21.3657779 17.1423797,21.5047655 17.0450869,21.7688459 C17.031188,21.8105428 17.0103398,21.8835113 16.9825419,21.9877536 C16.954744,22.0919958 16.9199971,22.1719137 16.8783002,22.2275096 C16.8366033,22.2831054 16.7740588,22.3317511 16.690665,22.373448 C16.5933722,22.4151449 16.4265871,22.4290437 16.1903047,22.4151447 C15.9540222,22.4012457 15.7872371,22.3664988 15.6899443,22.310903 C15.5092578,22.1997112 15.3528967,21.9981792 15.2208565,21.7063009 C15.0888163,21.4144225 15.0227972,21.1572955 15.0227972,20.934912 C15.0227972,20.7959223 15.0401707,20.6117638 15.0749181,20.3824308 C15.1096655,20.1530978 15.1305136,19.9793633 15.1374631,19.8612221 C15.1444126,19.7430809 15.106191,19.5728211 15.0227972,19.3504376 C15.0644941,19.3226396 15.1270385,19.2566205 15.2104323,19.1523783 C15.2938261,19.048136 15.3633199,18.9751675 15.4189158,18.9334706 C15.4467137,18.9195717 15.477986,18.9091476 15.5127334,18.9021981 C15.5474808,18.8952486 15.578753,18.8952486 15.6065509,18.9021981 C15.6343489,18.9091476 15.6621464,18.8987235 15.6899443,18.8709256 C15.7177423,18.8431276 15.7385904,18.8014314 15.7524894,18.7458355 C15.7385904,18.7319365 15.7107929,18.7110884 15.669096,18.6832905 C15.6273991,18.6415935 15.5996016,18.6207454 15.5857026,18.6207454 C15.6829954,18.6624423 15.8810527,18.6520182 16.1798805,18.5894729 C16.4787083,18.5269275 16.6698163,18.5373516 16.7532101,18.6207454 C16.9616946,18.7736341 17.1145809,18.7597353 17.2118737,18.5790487 C17.2118737,18.5651497 17.1945003,18.4991306 17.1597528,18.3809894 C17.1250054,18.2628482 17.1215307,18.1690316 17.1493287,18.0995367 C17.2188235,18.4748089 17.4203555,18.5373533 17.7539308,18.2871718 C17.7956277,18.3288687 17.9033431,18.3636156 18.0770801,18.3914136 C18.2508172,18.4192115 18.3724314,18.4539584 18.4419262,18.4956553 C18.4836231,18.5234533 18.5322688,18.5616748 18.5878647,18.6103212 C18.6434605,18.6589676 18.6816821,18.6902398 18.7025306,18.7041388 C18.723379,18.7180378 18.7581259,18.7145631 18.8067723,18.6937146 C18.8554187,18.6728662 18.9144884,18.6276952 18.9839833,18.5582004 C19.122973,18.7527859 19.2063655,18.919571 19.2341634,19.0585607 C19.3870521,19.6145194 19.5190903,19.9202921 19.6302821,19.975888 C19.7275748,20.0175849 19.804018,20.0314837 19.8596139,20.0175847 C19.9152098,20.0036857 19.946482,19.9376666 19.9534314,19.8195254 C19.9603809,19.7013842 19.9603809,19.6040929 19.9534314,19.5276485 C19.946482,19.4512042 19.9360579,19.364337 19.9221589,19.2670442 L19.9013106,19.1002574 L19.9013106,18.7249871 L19.8804622,18.5582004 C19.6719777,18.5165035 19.5434142,18.4331109 19.4947678,18.3080202 C19.4461214,18.1829295 19.4565455,18.054366 19.5260403,17.9223258 C19.5955352,17.7902856 19.6997759,17.661722 19.8387655,17.5366313 C19.8526645,17.5227324 19.9082595,17.4984095 20.0055523,17.4636621 C20.1028451,17.4289147 20.2105605,17.3837437 20.3287017,17.3281478 C20.4468429,17.272552 20.5337102,17.2169569 20.5893061,17.1613611 C20.8811844,16.8972807 20.9854251,16.6540524 20.9020313,16.4316689 C20.999324,16.4316689 21.0757672,16.3691245 21.1313631,16.2440338 C21.1174641,16.2440338 21.0827172,16.2231856 21.0271214,16.1814887 C20.9715255,16.1397918 20.9194051,16.1050449 20.8707587,16.077247 C20.8221124,16.049449 20.7908401,16.0355503 20.7769412,16.0355503 C20.9020319,15.9660554 20.9159307,15.8548654 20.8186379,15.7019767 C20.8881327,15.6602798 20.9402531,15.5838366 20.9750005,15.4726449 C21.0097479,15.3614532 21.0618683,15.2919594 21.1313631,15.2641614 C21.2564538,15.430949 21.4023908,15.4448478 21.5691784,15.3058581 C21.6664712,15.1946664 21.6734206,15.0834763 21.5900267,14.9722846 C21.6595216,14.8749918 21.8019839,14.8020233 22.0174179,14.7533769 C22.2328519,14.7047305 22.3614154,14.6387114 22.4031123,14.5553176 C22.5004051,14.5831155 22.5560001,14.5692168 22.5698991,14.5136209 C22.5837981,14.458025 22.5907474,14.3746325 22.5907474,14.2634407 C22.5907474,14.152249 22.6115956,14.0688564 22.6532925,14.0132606 C22.7088883,13.9437657 22.813129,13.8812213 22.9660177,13.8256254 C23.1189063,13.7700296 23.2092483,13.7352827 23.2370462,13.7213837 L23.5914681,13.4920519 C23.633165,13.436456 23.633165,13.4086585 23.5914681,13.4086585 C23.8416495,13.4364564 24.0570803,13.3600132 24.2377669,13.1793266 C24.3767566,13.026438 24.3350603,12.8874504 24.1126768,12.7623597 C24.1543737,12.6789659 24.1335256,12.6129468 24.0501318,12.5643004 C23.966738,12.515654 23.8624973,12.4774324 23.7374066,12.4496345 C23.7791035,12.4357355 23.8590213,12.4322608 23.9771626,12.4392103 C24.0953038,12.4461598 24.1682723,12.4357357 24.1960702,12.4079378 C24.4045547,12.2689481 24.3559091,12.157758 24.0501318,12.0743642 C23.8138493,12.0048694 23.515026,12.0882619 23.1536528,12.3245444 L23.1536528,12.3245444 Z M19.7553721,30.6085454 C22.6185595,30.1081825 25.0577918,28.7947497 27.0731422,26.6682076 C27.0314453,26.6265107 26.944578,26.5952385 26.8125379,26.5743901 C26.6804977,26.5535416 26.5936304,26.5292188 26.5519335,26.5014209 C26.3017521,26.4041281 26.134967,26.348533 26.0515732,26.3346341 C26.0654721,26.2373413 26.0480987,26.1469994 25.9994523,26.0636055 C25.9508059,25.9802117 25.8952109,25.9176673 25.8326655,25.8759704 C25.7701202,25.8342735 25.6832529,25.7786785 25.5720612,25.7091836 C25.4608694,25.6396888 25.3844262,25.5910431 25.3427293,25.5632452 C25.3149314,25.5354473 25.2662857,25.493751 25.1967909,25.4381551 C25.1272961,25.3825592 25.0786504,25.3443377 25.0508525,25.3234892 C25.0230545,25.3026408 24.9709342,25.2713685 24.8944899,25.2296716 C24.8180455,25.1879747 24.7589758,25.174076 24.7172789,25.1879749 C24.675582,25.2018739 24.6060882,25.2088233 24.5087954,25.2088233 L24.4462504,25.2296716 C24.4045535,25.2435706 24.3663319,25.2609441 24.3315845,25.2817925 C24.2968371,25.302641 24.2586155,25.3234891 24.2169186,25.3443376 C24.1752217,25.365186 24.1474241,25.3860341 24.1335252,25.4068826 C24.1196262,25.427731 24.1196262,25.4451045 24.1335252,25.4590035 C23.8416468,25.222721 23.5914692,25.0698347 23.3829846,25.0003398 C23.3134898,24.9864408 23.2370466,24.9482193 23.1536528,24.8856739 C23.070259,24.8231285 22.9972905,24.7744829 22.9347452,24.7397355 C22.8721998,24.704988 22.802706,24.694564 22.7262617,24.7084629 C22.6498174,24.7223619 22.5698995,24.7710076 22.4865057,24.8544014 C22.4170109,24.9238962 22.3753146,25.0281369 22.3614156,25.1671266 C22.3475166,25.3061163 22.3336179,25.3964582 22.3197189,25.4381551 C22.2224261,25.3686603 22.2224261,25.2470461 22.3197189,25.073309 C22.4170117,24.8995719 22.4309104,24.7710084 22.3614156,24.6876146 C22.3197187,24.6042208 22.2467502,24.5729486 22.142508,24.593797 C22.0382657,24.6146455 21.9548731,24.6459177 21.8923278,24.6876146 C21.8297824,24.7293115 21.7498646,24.7883812 21.6525718,24.8648256 C21.555279,24.9412699 21.4927346,24.9864408 21.4649367,25.0003398 C21.4371387,25.0142388 21.378069,25.0524604 21.2877257,25.1150057 C21.1973824,25.1775511 21.1383127,25.2296714 21.1105147,25.2713683 C21.0688178,25.3269642 21.0271216,25.4103568 20.9854247,25.5215485 C20.9437278,25.6327403 20.9089809,25.7091834 20.8811829,25.7508803 C20.853385,25.6952845 20.7734671,25.6501135 20.6414269,25.6153661 C20.5093867,25.5806187 20.4433676,25.5423971 20.4433676,25.5007002 C20.4711656,25.6396898 20.4989631,25.8829181 20.526761,26.2303923 C20.5545589,26.5778665 20.5893058,26.841943 20.6310027,27.0226295 C20.7282955,27.4534976 20.644903,27.7870678 20.3808226,28.0233502 C20.0055504,28.3708244 19.8040184,28.6487996 19.7762205,28.8572841 C19.7206246,29.1630614 19.8040172,29.3437453 20.0264007,29.3993412 C20.0264007,29.496634 19.9708056,29.6390962 19.8596139,29.8267323 C19.7484221,30.0143684 19.6997765,30.16378 19.7136754,30.2749718 C19.7136754,30.3583656 19.7275742,30.4695557 19.7553721,30.6085454 L19.7553721,30.6085454 Z" id="zoom" fill="#FFFFFF"></path>
            </g>
        </g>
    </g>
</svg>