<?xml version="1.0" encoding="UTF-8" standalone="no"?>
<svg width="46px" height="46px" viewBox="0 0 46 46" version="1.1" xmlns="http://www.w3.org/2000/svg" xmlns:xlink="http://www.w3.org/1999/xlink" xmlns:sketch="http://www.bohemiancoding.com/sketch/ns">
    <!-- Generator: Sketch 3.3.3 (12081) - http://www.bohemiancoding.com/sketch -->
    <title>Karma</title>
    <desc>Created with Sketch.</desc>
    <defs></defs>
    <g id="Kricket" stroke="none" stroke-width="1" fill="none" fill-rule="evenodd" sketch:type="MSPage">
        <g id="Map" sketch:type="MSArtboardGroup" transform="translate(-165.000000, -592.000000)">
            <g id="Karma" sketch:type="MSLayerGroup" transform="translate(166.000000, 593.000000)">
                <path d="M22,44 C34.1502645,44 44,34.1502645 44,22 C44,18.1073843 42.9890349,14.4508922 41.215343,11.2787619 C37.4526995,4.54952361 30.2576488,0 22,0 C9.8497355,0 0,9.8497355 0,22 C0,34.1502645 9.8497355,44 22,44 Z" id="Button_Overlay-Copy" stroke="#9D9D9D" stroke-width="2" fill="#FFFFFF" sketch:type="MSShapeGroup"></path>
                <g id="Karma-Icon" transform="translate(12.000000, 12.000000)" sketch:type="MSShapeGroup">
                    <path d="M2.54447512,8.83566731 C1.71371061,8.38166344 1.24840886,7.65651838 1.29342075,6.67725338 C1.33586381,5.75408124 1.8177287,5.10038685 2.60463155,4.70336557 C2.55406027,4.23876209 2.52296603,3.81183752 2.50460087,3.43547389 C1.0721187,3.93288201 0.0462004448,5.23980658 0.0235027989,6.68410058 C0.00199371214,8.05148936 0.616133732,9.08549323 1.75607699,9.77040619 C2.52457634,10.232147 3.33053447,10.4721857 4.13883138,10.3984526 C3.95184418,10.0037911 3.78559926,9.60549323 3.6379112,9.207853 C3.26888275,9.16359768 2.89889579,9.02940039 2.54447512,8.83566731" id="Fill-1" fill="#9D9D9D"></path>
                    <path d="M17.8279656,3.71357834 C17.6294763,3.59984526 17.4274979,3.50495164 17.2234491,3.42816248 C17.2052373,3.80321083 17.1744498,4.22866538 17.1243003,4.69187621 C17.2298903,4.74831721 17.3328732,4.8116441 17.4320221,4.88266925 C18.2643969,5.47914894 18.6311249,6.47009671 18.3612453,7.39365571 C18.0713902,8.38576402 17.17537,9.08340426 16.1037114,9.17021277 C15.9538379,9.57690522 15.7846024,9.98444874 15.5937045,10.3882398 C16.1172456,10.4212379 16.6631777,10.3355513 17.2268998,10.1303675 C18.6145234,9.62529981 19.5360018,8.65044487 19.6850318,7.11787234 C19.8344452,5.58170213 19.1258722,4.45736944 17.8279656,3.71357834" id="Fill-2" fill="#9D9D9D"></path>
                    <path d="M17.319224,0.575435203 L17.2815735,0.0358994197 L2.44613143,0.0358994197 L2.40848094,0.575435203 C2.40341998,0.648046422 2.28797638,2.3815087 2.60114255,4.80603482 C2.89092094,7.04978723 3.62100299,10.3285106 5.45295606,13.2064217 C5.98546891,14.0429787 6.01364926,14.070058 7.48642742,15.4892843 C7.98665746,15.9712959 9.43424584,16.7403095 9.59761521,16.8264217 L9.86385247,16.9666925 L10.1300514,16.8264217 C10.2934591,16.7403095 11.7410475,15.9712959 12.2412775,15.4892843 C13.7140173,14.070058 13.7421977,14.0429787 14.2747489,13.2064217 C16.1067019,10.3285106 16.8367456,7.04978723 17.1265624,4.80603482 C17.4397285,2.3815087 17.3242849,0.648046422 17.319224,0.575435203 L17.319224,0.575435203 Z" id="Fill-3" fill="#9D9D9D"></path>
                    <path d="M9.86385982,16.4702928 C9.86385982,16.4702928 7.71852954,17.7144471 6.62554635,19.3686627 L13.1021202,19.3686627 C12.0091371,17.7144471 9.86385982,16.4702928 9.86385982,16.4702928" id="Fill-4" fill="#9D9D9D"></path>
                    <path d="M12.5841193,3.79868472 L10.7195767,3.79868472 L8.91653247,6.23021277 L8.91653247,3.79868472 L7.40376505,3.79868472 L7.40376505,9.71775629 L8.91653247,9.71775629 L8.91653247,7.98731141 L9.31232267,7.4903675 L10.8515068,9.71775629 L12.7073077,9.71775629 L10.3061882,6.56742747 L12.5841193,3.79868472" id="Fill-5" fill="#FFFFFF"></path>
                </g>
            </g>
        </g>
    </g>
</svg>