<?xml version="1.0" encoding="UTF-8" standalone="no"?>
<svg width="46px" height="46px" viewBox="0 0 46 46" version="1.1" xmlns="http://www.w3.org/2000/svg" xmlns:xlink="http://www.w3.org/1999/xlink" xmlns:sketch="http://www.bohemiancoding.com/sketch/ns">
    <!-- Generator: Sketch 3.3.3 (12081) - http://www.bohemiancoding.com/sketch -->
    <title>Settings</title>
    <desc>Created with Sketch.</desc>
    <defs></defs>
    <g id="Kricket" stroke="none" stroke-width="1" fill="none" fill-rule="evenodd" sketch:type="MSPage">
        <g id="Map" sketch:type="MSArtboardGroup" transform="translate(-27.000000, -50.000000)">
            <g id="Settings" sketch:type="MSLayerGroup" transform="translate(28.000000, 51.000000)">
                <circle id="Button_Overlay-Copy-2" stroke="#9D9D9D" stroke-width="2" fill="#FFFFFF" sketch:type="MSShapeGroup" cx="22" cy="22" r="22"></circle>
                <path d="M23.6043001,32.5591633 L20.4027159,32.5591633 L20.2423447,32.0946538 C20.1828222,31.9220739 20.1229376,31.7498196 20.0631889,31.5776119 C19.9133643,31.1462318 19.7588774,30.7012184 19.6108182,30.2582523 C19.1473577,30.0760872 18.6776055,29.875217 18.2120177,29.6601085 C17.8004753,29.8664228 17.386217,30.0684097 16.9846328,30.2641617 C16.8266606,30.3411224 16.669639,30.4177108 16.5139753,30.4939736 L16.0805251,30.7061971 L13.8208894,28.3786709 L14.0229942,27.9142545 C14.0376598,27.8799153 14.0555845,27.8382244 14.0745955,27.7971384 C14.1433066,27.6487075 14.2121987,27.5004628 14.2811361,27.352125 C14.4611067,26.9649949 14.6466448,26.5659532 14.8249859,26.1706339 C14.6475501,25.718641 14.4626457,25.2666481 14.248908,24.7512347 C13.7919203,24.5833543 13.3282788,24.4176142 12.8780355,24.2566203 L12,23.9421702 L12,20.6240192 L12.4554487,20.4608383 C12.6021501,20.4082594 12.7488514,20.355913 12.8955981,20.3035202 C13.339097,20.1451784 13.7956773,19.9822302 14.2446532,19.8156992 C14.3110558,19.6532628 14.3770058,19.4880811 14.4411904,19.3273197 C14.5643544,19.0189186 14.6913658,18.7007926 14.8271585,18.3861099 C14.6265927,17.9642684 14.432726,17.5437298 14.2446532,17.1359405 C14.1716872,16.9775987 14.0997171,16.8215835 14.0289691,16.6688718 L13.8239674,16.2266502 L16.0932896,13.8654828 L16.5291388,14.0790557 C16.6677832,14.1470361 16.8070612,14.2155284 16.9468372,14.2842998 C17.3634491,14.4890785 17.7929161,14.7002319 18.2204368,14.9046849 C18.6609935,14.7219149 19.1005545,14.5318862 19.6012674,14.3123574 C19.7653502,13.8409149 19.9273962,13.3627721 20.0847799,12.8984022 L20.389725,12 L23.6173362,12 L23.7761231,12.4681388 C23.827317,12.6190823 23.8783297,12.7701189 23.9293425,12.9212019 C24.0832862,13.3770103 24.2418468,13.8462194 24.4037117,14.3077044 C24.5611859,14.3755917 24.7213308,14.4431068 24.877085,14.5088073 C25.1776847,14.6355086 25.48779,14.766258 25.7944099,14.906267 C26.2057259,14.699534 26.6201652,14.4976401 27.0219758,14.3019812 C27.1796764,14.2251136 27.3365169,14.1486647 27.4922259,14.072495 L27.9254498,13.8603645 L30.1955867,16.1973363 L29.9895892,16.642024 C29.9154464,16.8020408 29.8409868,16.9635932 29.7659839,17.1262157 C29.57601,17.5382393 29.3800611,17.9632913 29.1796311,18.3856446 C29.3895213,18.8656951 29.584927,19.3487236 29.761548,19.8237489 C30.1926446,19.9761813 30.6251895,20.1348953 31.0444721,20.2886771 C31.2122213,20.3502829 31.3800158,20.4118422 31.5480819,20.4731688 L32,20.6379782 L32,23.9289556 L31.5476746,24.0936255 C31.3780242,24.1553709 31.2086002,24.2174885 31.0392215,24.2796061 C30.6228811,24.4323177 30.1930972,24.589915 29.7648523,24.7399279 C29.6003168,25.189129 29.4083965,25.6620604 29.1798122,26.1812428 C29.3804685,26.6035495 29.5767342,27.0292995 29.7669797,27.4419745 C29.8420278,27.6047831 29.9166686,27.7667542 29.9911735,27.927469 L30.1974426,28.3728081 L27.9259477,30.7054992 L27.4933122,30.4939736 C27.3399117,30.4189206 27.1853797,30.343635 27.0300781,30.2679306 C26.624918,30.0704105 26.2071291,29.8667485 25.7921467,29.6604342 C25.2799819,29.8980632 24.8216816,30.0948853 24.3936177,30.2612303 C24.246509,30.7042894 24.0931538,31.1461388 23.9445966,31.5742152 C23.8844857,31.7474931 23.8243295,31.9208176 23.7644902,32.0942816 L23.6043001,32.5591633 L23.6043001,32.5591633 Z M21.9854702,19.1467831 C21.1786805,19.1467831 20.415073,19.4783098 19.8350571,20.080269 C19.2577119,20.6795296 18.944076,21.4630491 18.951771,22.2864914 C18.9596922,23.1285922 19.2802987,23.9173231 19.854566,24.5074638 C20.4268417,25.0956967 21.1862849,25.4196389 21.992803,25.4197319 L22.0048885,25.4196854 C23.6900306,25.4129386 25.0572819,24.0075449 25.0527102,22.2868171 C25.0504922,21.4454607 24.734729,20.6578931 24.1636302,20.0691483 C23.5923051,19.480171 22.8260269,19.1525994 22.0059749,19.1468297 L21.9854702,19.1467831 L21.9854702,19.1467831 Z" fill="#9D9D9D" sketch:type="MSShapeGroup"></path>
            </g>
        </g>
    </g>
</svg>