<?xml version="1.0" encoding="UTF-8" standalone="no"?>
<svg width="46px" height="46px" viewBox="0 0 46 46" version="1.1" xmlns="http://www.w3.org/2000/svg" xmlns:xlink="http://www.w3.org/1999/xlink" xmlns:sketch="http://www.bohemiancoding.com/sketch/ns">
    <!-- Generator: Sketch 3.3.1 (12005) - http://www.bohemiancoding.com/sketch -->
    <title>btn_zoom_house</title>
    <desc>Created with Sketch.</desc>
    <defs></defs>
    <g id="Page-2" stroke="none" stroke-width="1" fill="none" fill-rule="evenodd" sketch:type="MSPage">
        <g id="btn_zoom_house" sketch:type="MSLayerGroup" transform="translate(1.000000, 1.000000)">
            <g id="Toggle_button-Copy" stroke="#9D9D9D" stroke-width="2" fill="#FFFFFF" sketch:type="MSShapeGroup">
                <circle id="Button_Overlay" cx="22" cy="22" r="22"></circle>
            </g>
            <g id="btn_zoom-copy" transform="translate(4.750000, 4.750000)" sketch:type="MSShapeGroup">
                <path d="M17.25,33.8365385 C26.4104922,33.8365385 33.8365385,26.4104922 33.8365385,17.25 C33.8365385,8.08950776 26.4104922,0.663461538 17.25,0.663461538 C8.08950776,0.663461538 0.663461538,8.08950776 0.663461538,17.25 C0.663461538,26.4104922 8.08950776,33.8365385 17.25,33.8365385 Z" id="Oval-11-Copy-7" fill="#9D9D9D"></path>
                <path d="M17.25,0 C20.3795729,0 23.2657745,0.771151143 25.9086914,2.31347656 C28.5516083,3.85580198 30.644198,5.94839173 32.1865234,8.59130859 C33.7288489,11.2342255 34.5,14.1204271 34.5,17.25 C34.5,20.3795729 33.7288489,23.2657745 32.1865234,25.9086914 C30.644198,28.5516083 28.5516083,30.644198 25.9086914,32.1865234 C23.2657745,33.7288489 20.3795729,34.5 17.25,34.5 C14.1204271,34.5 11.2342255,33.7288489 8.59130859,32.1865234 C5.94839173,30.644198 3.85580198,28.5516083 2.31347656,25.9086914 C0.771151143,23.2657745 0,20.3795729 0,17.25 C0,14.1204271 0.771151143,11.2342255 2.31347656,8.59130859 C3.85580198,5.94839173 5.94839173,3.85580198 8.59130859,2.31347656 C11.2342255,0.771151143 14.1204271,0 17.25,0 Z M17.1837967,10.7827667 L9.60168168,17.5198703 L9.60168168,27.6646042 L14.8685207,27.6646042 L14.8685207,22.9181965 L19.5193015,22.9181965 L19.5193015,27.6544898 L24.8983183,27.6646042 L24.8983183,17.5198703 L17.1837967,10.7827667 Z M6.29933312,16.5277406 L7.4486957,17.6375651 L17.2504597,9.07803209 L27.0650967,17.6375651 L28.2006669,16.4091263 L17.316663,6.83539583 L6.29933312,16.5277406 Z M9.66834471,12.1463704 L12.3091202,9.87063252 L12.3091202,8.24589358 L9.66834471,8.24589358 L9.66834471,12.1463704 Z" id="zoom" fill="#FFFFFF"></path>
            </g>
        </g>
    </g>
</svg>