<?xml version="1.0" encoding="UTF-8" standalone="no"?>
<svg width="32px" height="32px" viewBox="0 0 32 32" version="1.1" xmlns="http://www.w3.org/2000/svg" xmlns:xlink="http://www.w3.org/1999/xlink" xmlns:sketch="http://www.bohemiancoding.com/sketch/ns">
    <!-- Generator: Sketch 3.3.1 (12005) - http://www.bohemiancoding.com/sketch -->
    <title>btnPhoto</title>
    <desc>Created with Sketch.</desc>
  
    <g id="UI/UX-1.2" stroke="none" stroke-width="1" fill="none" fill-rule="evenodd" sketch:type="MSPage">
        <g id="Assets" sketch:type="MSArtboardGroup" transform="translate(-92.000000, -154.000000)">
            <g id="btnPhoto" sketch:type="MSLayerGroup" transform="translate(95.250000, 155.806581)">
                <circle id="Oval-11-Copy-3" fill="#60A8FD" filter="url(#filter-1)" sketch:type="MSShapeGroup" cx="12.5" cy="12.3140203" r="12.0192308"></circle>
                <circle id="Oval-11-Copy-4" fill="#FFFFFF" sketch:type="MSShapeGroup" cx="12.5" cy="12.3140203" r="12.0192308"></circle>
                <g id="Imported-Layers" transform="translate(6.730769, 6.730769)" fill="#237BE2" sketch:type="MSShapeGroup">
                    <g id="Fill-1-+-Fill-2" transform="translate(0.000000, 0.775559)">
                        <path d="M11.4866097,3.02045177 L11.4866097,8.06715507 C11.4801994,8.08943834 11.47151,8.11126374 11.4675214,8.13415751 C11.355698,8.77655678 11.0049858,9.19627595 10.431339,9.40537241 C10.3488604,9.43543956 10.2612536,9.44978632 10.1760684,9.47130647 L1.4011396,9.47130647 C1.38361823,9.46474359 1.36652422,9.45543346 1.34843305,9.45192308 C0.747008547,9.33791209 0.354415954,8.96291209 0.154700855,8.3507326 C0.124928775,8.25931013 0.111538462,8.16178266 0.0905982906,8.06715507 L0.0905982906,3.02045177 C0.0964387464,3.004884 0.105698006,2.98962149 0.107549858,2.97359585 C0.191880342,2.24343712 0.811965812,1.59676435 1.61908832,1.61446886 C2.13760684,1.62591575 2.65641026,1.61660562 3.17521368,1.61660562 L3.27806268,1.61660562 C3.28005698,1.58745421 3.28162393,1.5709707 3.28219373,1.55448718 C3.3045584,0.872252747 3.6962963,0.306166056 4.30042735,0.0888278388 C4.39529915,0.0547924298 4.49472934,0.03495116 4.59202279,0.00854700855 L6.98518519,0.00854700855 C7.002849,0.0152625153 7.01994302,0.0247252747 7.03817664,0.0280830281 C7.6014245,0.133699634 7.99344729,0.471001221 8.19786325,1.04105617 C8.26210826,1.22039072 8.28162393,1.41788767 8.32364672,1.61660562 L8.41153846,1.61660562 C8.9460114,1.61660562 9.48062678,1.61462149 10.0150997,1.61721612 C10.6381766,1.62026862 11.1830484,2.03174603 11.3951567,2.66025641 C11.4346154,2.77686203 11.4565527,2.90018315 11.4866097,3.02045177 L11.4866097,3.02045177 Z M8.40940171,5.55677656 C8.3997151,3.9702381 7.26367521,2.7293956 5.7982906,2.71978022 C4.39985755,2.71062271 3.19059829,3.87713675 3.17065527,5.52579365 C3.15242165,7.02838828 4.30982906,8.36309524 5.77891738,8.37179487 C7.1960114,8.38034188 8.39273504,7.11004274 8.40940171,5.55677656 L8.40940171,5.55677656 Z" id="Fill-1"></path>
                        <path d="M5.79045584,7.13064713 C4.96965812,7.13125763 4.30683761,6.42078755 4.30754986,5.54136142 C4.30826211,4.64850427 4.96396011,3.93727106 5.78675214,3.93666056 C6.61424501,3.93605006 7.27094017,4.64942002 7.26965812,5.54777167 C7.26851852,6.42155067 6.60641026,7.13003663 5.79045584,7.13064713" id="Fill-2"></path>
                    </g>
                </g>
            </g>
        </g>
    </g>
</svg>
