<?xml version="1.0" encoding="UTF-8" standalone="no"?>
<svg width="60px" height="60px" viewBox="0 0 60 60" version="1.1" xmlns="http://www.w3.org/2000/svg" xmlns:xlink="http://www.w3.org/1999/xlink" xmlns:sketch="http://www.bohemiancoding.com/sketch/ns">
    <!-- Generator: Sketch 3.3.1 (12005) - http://www.bohemiancoding.com/sketch -->
    <title>Facebook</title>
    <desc>Created with Sketch.</desc>
    <defs></defs>
    <g id="Kricket" stroke="none" stroke-width="1" fill="none" fill-rule="evenodd" sketch:type="MSPage">
        <g id="Setting_Instagram_click" sketch:type="MSArtboardGroup" transform="translate(-72.000000, -199.000000)" fill="#FFFFFF">
            <path d="M101.999485,199 C85.4313742,199 72,212.430574 72,229 C72,245.568395 85.4313742,259 101.999485,259 C118.568626,259 132,245.568395 132,229 C132,212.430574 118.568626,199 101.999485,199 L101.999485,199 Z M109.435704,218.757757 L106.46905,218.757757 C106.46905,218.757757 104.036353,218.377384 103.998213,220.012267 C103.960074,221.648181 103.998213,223.701577 103.998213,223.701577 L109.245005,223.701577 L109.245005,229.427791 L104.111602,229.427791 L104.111602,245.831255 L97.3814833,245.831255 L97.3814833,229.794763 L94.188053,229.794763 L94.188053,223.776827 L97.0773962,223.776827 L97.0773962,218.329966 C97.0773962,218.329966 96.4702527,212.886197 104.188912,213.02742 C107.388527,213.086177 108.835776,213.095454 109.435704,213.087208 L109.435704,213.02742 L109.811947,213.066591 C109.811947,213.074838 109.717113,213.083084 109.435704,213.087208 L109.435704,218.757757 L109.435704,218.757757 Z" id="Facebook" sketch:type="MSShapeGroup"></path>
        </g>
    </g>
</svg>