<?xml version="1.0" encoding="UTF-8" standalone="no"?>
<svg width="60px" height="60px" viewBox="0 0 60 60" version="1.1" xmlns="http://www.w3.org/2000/svg" xmlns:xlink="http://www.w3.org/1999/xlink" xmlns:sketch="http://www.bohemiancoding.com/sketch/ns">
    <!-- Generator: Sketch 3.3.1 (12005) - http://www.bohemiancoding.com/sketch -->
    <title>Instagram</title>
    <desc>Created with Sketch.</desc>
    <defs></defs>
    <g id="Kricket" stroke="none" stroke-width="1" fill="none" fill-rule="evenodd" sketch:type="MSPage">
        <g id="Settings_mail_click" sketch:type="MSArtboardGroup" transform="translate(-72.000000, -119.000000)">
            <g id="Instagram" sketch:type="MSLayerGroup" transform="translate(72.000000, 119.000000)">
                <circle id="Oval-49" fill="#FFFFFF" sketch:type="MSShapeGroup" cx="30" cy="30" r="30"></circle>
                <g id="Imported-Layers" transform="translate(15.000000, 15.000000)" fill-opacity="0.85" fill="#60A8FD" sketch:type="MSShapeGroup">
                    <path d="M0.16795082,12.4069355 L8.59229508,12.4069355 C7.45672131,15.9546774 8.13147541,18.9389516 11.28,21.0921774 C13.6251639,22.6959677 16.6920492,22.6901613 19.0192623,21.0805645 C22.1532787,18.9123387 22.8280328,15.9295161 21.6730328,12.3887903 L29.6852459,12.3887903 C29.7627049,12.4778226 29.8608197,12.5385484 29.8605738,12.5987903 C29.8485246,16.1816129 30.0317213,19.7801613 29.7511475,23.3431452 C29.4703279,26.9046774 26.605082,29.5272581 22.9544262,29.6375806 C17.6348361,29.7979839 12.302459,29.8100806 6.98409836,29.6344355 C2.99754098,29.5025806 0.107704918,26.2671774 0.0840983607,22.3567742 C0.0659016393,19.3340323 0.0786885246,16.3110484 0.0843442623,13.2883065 C0.0848360656,13.0156452 0.134754098,12.7432258 0.16795082,12.4069355" id="Fill-1"></path>
                    <path d="M24.375,9.59758065 C23.5148361,9.59854839 22.6546721,9.58427419 21.795,9.60169355 C20.4039344,9.63 19.1016393,9.53274194 17.7762295,8.87540323 C15.8454098,7.91782258 13.8196721,8.16895161 11.8640164,9.10209677 C11.2667213,9.38709677 10.5570492,9.56516129 9.89508197,9.57677419 C6.98827869,9.62685484 4.0795082,9.57 1.17245902,9.61524194 C0.299262295,9.62879032 0.075,9.32975806 0.0624590164,8.50330645 C-0.0159836066,3.31620968 3.00270492,0.24266129 8.24655738,0.240241935 C12.792541,0.238064516 17.3385246,0.235645161 21.8842623,0.240967742 C27.0113115,0.247016129 30.2931148,3.74975806 29.9333607,8.77572581 C29.8878689,9.41104839 29.6581967,9.61427419 29.0436885,9.60508065 C27.4878689,9.58137097 25.9313115,9.59709677 24.375,9.59758065 L24.375,9.59758065 Z M23.3928689,8.01266129 C25.4665574,8.01241935 25.5115574,7.96814516 25.5118033,5.93298387 C25.5120492,3.91862903 25.4343443,3.84266129 23.3790984,3.84193548 C21.2756557,3.84169355 21.2112295,3.90217742 21.2095082,5.88508065 C21.207541,8.01290323 21.207541,8.01290323 23.3928689,8.01266129 L23.3928689,8.01266129 Z" id="Fill-2"></path>
                    <path d="M15.1111475,18.1446774 C13.462623,18.131371 12.2488525,16.9340323 12.2390164,15.311129 C12.2291803,13.6637903 13.537377,12.3537097 15.1704098,12.3762097 C16.7360656,12.3977419 18.0577869,13.7029839 18.0804098,15.2499194 C18.1037705,16.8609677 16.7734426,18.1579839 15.1111475,18.1446774" id="Fill-3"></path>
                </g>
            </g>
        </g>
    </g>
</svg>
