<?xml version="1.0" encoding="UTF-8" standalone="no"?>
<svg width="47px" height="46px" viewBox="0 0 47 46" version="1.1" xmlns="http://www.w3.org/2000/svg" xmlns:xlink="http://www.w3.org/1999/xlink" xmlns:sketch="http://www.bohemiancoding.com/sketch/ns">
    <!-- Generator: Sketch 3.3.1 (12005) - http://www.bohemiancoding.com/sketch -->
    <title>Share _button</title>
    <desc>Created with Sketch.</desc>
    <defs></defs>
    <g id="Kricket" stroke="none" stroke-width="1" fill="none" fill-rule="evenodd" sketch:type="MSPage">
        <g id="Ear_comment_push" sketch:type="MSArtboardGroup" transform="translate(-69.000000, -358.000000)">
            <g id="Group" sketch:type="MSLayerGroup" transform="translate(27.000000, 197.000000)">
                <g id="Share-_button" transform="translate(43.500000, 162.000000)" sketch:type="MSShapeGroup">
                    <circle id="Button_Overlay" stroke="#9D9D9D" stroke-width="2" fill="#FFFFFF" cx="22" cy="22" r="22"></circle>
                    <path d="M20.6315726,22.2614186 C20.6418469,22.1646277 20.6471143,22.0663634 20.6471143,21.9668832 C20.6471143,21.84106 20.6386878,21.7171819 20.6223621,21.59577 L24.3039297,19.8790268 C24.8022753,20.3157203 25.4580258,20.5808807 26.1764428,20.5808807 C27.7358504,20.5808807 29,19.331558 29,17.7904403 C29,16.2493227 27.7358504,15 26.1764428,15 C24.6170353,15 23.3528857,16.2493227 23.3528857,17.7904403 C23.3528857,17.8547476 23.3550868,17.9185468 23.3594187,17.9817684 L23.3594187,17.9817684 L19.5495612,19.7583341 C19.0723156,19.3935248 18.4735883,19.1764428 17.8235572,19.1764428 C16.2641496,19.1764428 15,20.4257655 15,21.9668832 C15,23.5080008 16.2641496,24.7573235 17.8235572,24.7573235 C18.5032168,24.7573235 19.126789,24.5200014 19.614056,24.124634 L23.3658557,25.8741269 C23.3572751,25.9627162 23.3528857,26.0525145 23.3528857,26.143326 C23.3528857,27.6844437 24.6170353,28.9337664 26.1764428,28.9337664 C27.7358504,28.9337664 29,27.6844437 29,26.143326 C29,24.6022084 27.7358504,23.3528857 26.1764428,23.3528857 C25.4871478,23.3528857 24.8555416,23.5969845 24.3653026,24.0024855 L20.6315726,22.2614186 Z" id="Path-Copy-2" fill="#9D9D9D"></path>
                </g>
            </g>
        </g>
    </g>
</svg>