<?xml version="1.0" encoding="UTF-8" standalone="no"?>
<svg width="61px" height="61px" viewBox="0 0 61 61" version="1.1" xmlns="http://www.w3.org/2000/svg" xmlns:xlink="http://www.w3.org/1999/xlink" xmlns:sketch="http://www.bohemiancoding.com/sketch/ns">
    <!-- Generator: Sketch 3.3.1 (12005) - http://www.bohemiancoding.com/sketch -->
    <title>Twitter</title>
    <desc>Created with Sketch.</desc>
    <defs></defs>
    <g id="Kricket" stroke="none" stroke-width="1" fill="none" fill-rule="evenodd" sketch:type="MSPage">
        <g id="Setting_Instagram_click" sketch:type="MSArtboardGroup" transform="translate(-157.000000, -199.000000)" fill="#FFFFFF">
            <path d="M187.500515,199 C170.931374,199 157.5,212.580612 157.5,229.333854 C157.5,246.086055 170.931374,259.666667 187.500515,259.666667 C204.068626,259.666667 217.5,246.086055 217.5,229.333854 C217.5,212.580612 204.068626,199 187.500515,199 L187.500515,199 Z M204.943778,228.743937 C204.666492,229.024304 203.781031,229.541264 202.917218,229.833096 C202.053404,230.123885 200.964875,229.983181 200.964875,229.983181 C200.964875,229.983181 200.655634,231.04003 200.36804,231.806089 C200.080446,232.572148 199.408362,233.865589 198.928007,234.609761 C198.448683,235.353932 197.210688,236.734923 196.656115,237.263347 C196.101543,237.791772 194.939827,238.578676 194.054366,239.149833 C193.168906,239.722032 191.760828,240.250457 190.705285,240.638176 C189.649741,241.026938 188.220016,241.360461 187.164473,241.565785 C186.107899,241.77111 184.561694,241.86804 183.442241,241.878462 C182.321757,241.888885 180.775551,241.695025 179.271608,241.371925 C177.767665,241.048826 176.445144,240.368232 175.495774,239.90547 C174.546403,239.441665 173.053799,238.309774 172.28585,237.640645 C171.517902,236.971515 171.314833,236.767233 170.536576,235.904244 C169.758319,235.042297 169.778936,234.933903 169.778936,234.933903 C169.778936,234.933903 169.778936,234.933903 170.163425,235.202805 C170.546884,235.47275 171.091149,235.893821 172.02918,236.378471 C172.968243,236.864163 174.119651,237.0476 174.962848,237.187263 C175.805015,237.327967 176.477099,237.349855 177.384206,237.187263 C178.290283,237.025713 179.239653,236.648416 179.239653,236.648416 L179.901429,236.300302 C180.344675,236.374302 182.175383,234.917226 182.656768,234.488859 C182.541318,234.468014 182.386697,234.431535 182.176413,234.373168 C180.925018,234.028181 180.554959,233.510179 180.469402,233.510179 C180.384876,233.510179 179.929261,232.762881 180.498265,232.043723 C180.76112,231.712285 181.21055,231.448594 181.520822,231.296425 C180.6199,231.633074 176.95333,229.972758 177.964549,230.247914 C177.354313,229.927941 176.816233,229.47039 177.281126,229.024304 C178.387179,227.960159 179.644759,228.247822 179.644759,228.074808 C179.644759,227.902835 179.019061,228.074808 177.340913,227.010663 C175.662764,225.946518 175.805015,224.365414 175.805015,224.365414 L177.767665,224.105892 C177.767665,224.020427 176.943022,223.646257 175.861709,222.438281 C174.781427,221.230304 174.923678,219.591876 174.923678,219.591876 C174.923678,219.591876 178.806716,221.194868 179.695269,221.569038 C180.583822,221.943208 181.039437,222.187097 181.807386,222.496647 C182.575335,222.805155 183.349468,223.345044 184.259668,223.797384 C185.169868,224.250766 185.447154,224.761472 185.667746,224.898008 C185.888338,225.034543 186.812969,225.889194 186.798538,225.83187 C186.784107,225.774546 187.331464,224.56657 187.438667,224.236174 C187.54484,223.905779 188.121059,222.783268 188.1994,222.524788 C188.277742,222.266308 189.052906,220.971825 189.052906,220.971825 C189.052906,220.971825 189.728083,220.066103 189.82704,219.857652 C189.927028,219.6492 190.758886,218.527731 190.794965,218.426633 C190.830012,218.326576 191.526835,217.578235 191.526835,217.578235 C191.526835,217.578235 192.309215,217.024797 192.309215,217.168628 C192.309215,217.31246 192.038114,217.915926 192.038114,217.915926 L192.187581,217.808574 C192.187581,217.808574 192.663812,217.55739 192.7772,217.470883 C192.89162,217.384375 194.093537,216.945585 194.093537,216.945585 C194.093537,216.945585 194.598631,216.650626 194.604816,216.867416 C194.612031,217.082121 194.498643,217.1186 194.420302,217.305164 C194.341961,217.491728 193.446192,218.038913 193.446192,218.038913 C193.446192,218.038913 194.39247,217.707475 194.640894,217.614714 C194.889317,217.520911 195.224329,217.448995 195.565525,217.419812 C195.906721,217.391671 195.913936,217.434404 196.048972,217.491728 C196.184007,217.550094 196.233486,217.714771 196.233486,217.714771 C196.233486,217.714771 196.358213,217.689757 196.155145,217.959701 C195.952076,218.229646 195.686129,218.369308 195.440797,218.498548 C195.195466,218.627788 194.310006,218.897733 194.310006,218.897733 L193.254463,219.14579 C193.254463,219.14579 193.179214,219.188523 193.851298,219.232297 C194.523382,219.27503 195.088263,219.43658 196.133498,219.782609 C197.178733,220.126554 198.469299,221.356418 198.714631,221.626362 C198.959962,221.895265 199.791821,223.006311 200.272175,224.09547 C200.75253,225.184628 200.720575,225.692208 200.869011,226.188322 C201.018477,226.684437 205.082937,226.068463 205.082937,226.068463 C205.082937,226.068463 205.082937,226.068463 204.890176,226.457225 C204.698447,226.845986 204.069657,227.179509 203.653212,227.417143 C203.236767,227.653736 202.917218,227.762131 201.871983,227.95599 C201.617374,228.003934 201.408121,228.00185 201.247316,227.97892 L201.31741,228.021653 C202.107006,228.52819 205.221064,228.462527 205.221064,228.462527 C205.221064,228.462527 205.221064,228.462527 204.943778,228.743937 L204.943778,228.743937 Z" id="Twitter" sketch:type="MSShapeGroup"></path>
        </g>
    </g>
</svg>