<?xml version="1.0" encoding="utf-8"?>
<!-- Generator: Adobe Illustrator 18.1.1, SVG Export Plug-In . SVG Version: 6.00 Build 0)  -->
<!DOCTYPE svg PUBLIC "-//W3C//DTD SVG 1.1//EN" "http://www.w3.org/Graphics/SVG/1.1/DTD/svg11.dtd">
<svg version="1.1" id="Layer_1" xmlns="http://www.w3.org/2000/svg" xmlns:xlink="http://www.w3.org/1999/xlink" x="0px" y="0px"
	 viewBox="0 0 47.5 47.5" enable-background="new 0 0 47.5 47.5" xml:space="preserve">
<g>
	<path fill="#353535" d="M305.2,8.7c2.6,0.4,5.2,1,7.9,1.6C313,10.3,310.1,9.4,305.2,8.7z"/>
	<path fill="#353535" d="M305.2,28.7C221,13.9,197.8,93,194.9,104.9c-7.4-2-15.2-3.1-23.2-3.1c-9.2,0-18,1.4-26.3,4
		c-1.9-8-23.8-92.4-110.5-77.1c21.7-3.3,82.3-4.3,102.3,80.2c-30.6,13.3-52.1,43.6-52.1,79c0,0,38.8,0,86.6,0s86.6,0,86.6,0
		c0-36.5-22.8-67.7-55-80.2C223.4,24.4,283.6,25.4,305.2,28.7z"/>
	<path fill="#353535" d="M34.8,8.7c-4.9,0.7-7.9,1.6-7.9,1.6C29.6,9.6,32.3,9.1,34.8,8.7z"/>
</g>
</svg>
