<?xml version="1.0" encoding="UTF-8" standalone="no"?>
<svg width="246px" height="306px" viewBox="0 0 246 306" version="1.1" xmlns="http://www.w3.org/2000/svg" xmlns:xlink="http://www.w3.org/1999/xlink" xmlns:sketch="http://www.bohemiancoding.com/sketch/ns">
    <!-- Generator: Sketch 3.3.1 (12005) - http://www.bohemiancoding.com/sketch -->
    <title>Rectangle 28 + Logo + Kricket Copy</title>
    <desc>Created with Sketch.</desc>
    <defs></defs>
    <g id="Branding-Board" stroke="none" stroke-width="1" fill="none" fill-rule="evenodd" sketch:type="MSPage">
        <g id="Rectangle-28-+-Logo-+-Kricket-Copy" sketch:type="MSLayerGroup" transform="translate(-1.000000, 0.000000)">
            <g sketch:type="MSShapeGroup">
                <g id="Rectangle-28-+-Logo">
                    <g id="Logo">
                        <path d="M202.377016,155.046748 L199.393145,153.54878 C199.393145,153.54878 177.110887,141.353659 168.832661,141.140244 C160.556452,140.924797 152.491935,149.054878 152.491935,153.54878 C152.491935,158.04065 152.917339,162.319106 144.852823,162.961382 C136.788306,163.603659 127.663306,158.682927 126.389113,166.597561 C125.116935,174.514228 131.058468,186.945122 154.614919,203.408537 C163.97379,209.949187 167.185484,215.914634 167.66129,220.731707 L167.663306,220.73374 L171.997984,231.128049 C195.620968,215.351626 210.185484,190.103659 210.233871,159.473577 L202.377016,155.046748" id="Fill-49" fill="#60A8FD"></path>
                        <path d="M46.6814516,167.067073 C46.6068548,166.221545 46.5362903,165.373984 46.4879032,164.522358 C46.8145161,166.176829 47.2298387,167.707317 47.7580645,169.04065 C52.8810484,181.95122 64.8346774,192.711382 64.8346774,192.711382 C64.8346774,192.711382 84.6875,204.546748 96.8548387,204.115854 C109.022177,203.686992 99.4173387,177.002033 99.4173387,177.002033 C99.4173387,177.002033 82.1975806,143.288618 102.475806,143.861789 C122.756048,144.434959 133.215726,141.70935 133.215726,141.70935 C133.215726,141.70935 139.689516,134.463415 133.215726,125.784553 C126.739919,117.105691 128.518145,116.243902 128.377016,112.729675 C128.233871,109.215447 130.866935,111.294715 132.290323,100.03252 C133.092742,93.6890244 119.260081,81.796748 112.332661,76.6504065 L57.9193548,102.50813 C47.796371,114.445122 40.766129,129.113821 38.0625,145.247967 L46.6814516,167.067073" id="Fill-50" fill="#23A96E"></path>
                        <path d="M148.020161,234.585366 C146.258065,235.144309 144.477823,235.658537 142.663306,236.091463 C143.53629,231.489837 143.913306,225.489837 141.032258,222.223577 C135.939516,216.447154 127.451613,223.50813 127.451613,223.50813 C127.451613,223.50813 124.691532,225.646341 113.657258,221.367886 C102.620968,217.089431 101.772177,224.79065 101.772177,224.79065 C101.772177,224.79065 101.344758,229.205285 105.318548,235.72561 C103.389113,235.221545 101.822581,234.642276 99.8064516,233.995935 L99.8064516,244.028455 C107.870968,246.461382 116.086694,247.784553 124.856855,247.784553 C133.02621,247.784553 140.834677,246.626016 148.33871,244.504065 L148.020161,234.585366" id="Fill-51" fill="#F96C58"></path>
                        <path d="M8.94354839,1.75203252 C3.9516129,2.51829268 0.921370968,3.56097561 0.921370968,3.56097561 C3.66733871,2.83333333 6.33870968,2.23577236 8.94354839,1.75203252" id="Fill-52" fill="#2E2F33"></path>
                        <path d="M239.056452,1.75203252 C241.66129,2.23577236 244.332661,2.83333333 247.078629,3.56097561 C247.078629,3.56097561 244.048387,2.51829268 239.056452,1.75203252" id="Fill-53" fill="#2E2F33"></path>
                        <path d="M241.159274,1.75203252 C173.219758,-10.8841463 151.854839,56.995935 147.564516,74.2134146 C140.060484,72.101626 132.163306,70.949187 124,70.949187 C115.836694,70.949187 107.939516,72.101626 100.433468,74.2134146 C96.1451613,56.9939024 74.7782258,-10.8841463 6.84072581,1.75203252 C25.8447581,-1.17479675 73.3145161,-0.113821138 90.6270161,77.6077236 C58.7157258,90.8800813 36.1915323,122.567073 36.1915323,159.473577 C36.1915323,208.284553 75.5826613,247.995935 124,247.995935 C172.419355,247.995935 211.810484,208.284553 211.810484,159.473577 C211.810484,122.567073 189.284274,90.8780488 157.372984,77.6077236 C174.685484,-0.113821138 222.155242,-1.17479675 241.159274,1.75203252 L241.159274,1.75203252 Z M202.141129,159.473577 C202.141129,202.910569 167.086694,238.247967 124,238.247967 C80.9133065,238.247967 45.858871,202.910569 45.858871,159.473577 C45.858871,116.036585 80.9133065,80.6971545 124,80.6971545 C167.086694,80.6971545 202.141129,116.036585 202.141129,159.473577 L202.141129,159.473577 Z" id="Fill-54" fill="#2E2F33"></path>
                    </g>
                </g>
                <g id="Kricket" transform="translate(49.000000, 270.000000)" fill="#2E2F33">
                    <path d="M0.532077457,34.8227942 L8.69218726,34.8227942 L8.69218726,27.1371093 L11.6336222,22.9621694 L18.465342,34.8227942 L27.3845318,34.8227942 L16.3778721,16.5099896 L25.5817169,3.9851699 L16.6625271,3.9851699 L8.88195726,15.4662546 L8.69218726,15.4662546 L8.69218726,3.9851699 L0.532077457,3.9851699 L0.532077457,34.8227942 Z M29.6617718,34.8227942 L37.8218816,34.8227942 L37.8218816,21.6337795 C38.9605015,18.6923445 41.0479715,17.6486096 42.7559014,17.6486096 C43.7996364,17.6486096 44.5587164,17.8383796 45.4126814,18.0281496 L46.7410713,11.0066597 C46.0768764,10.7220047 45.2703539,10.5322347 43.7996364,10.5322347 C41.474954,10.5322347 38.818174,11.9555097 37.0628016,15.1815996 L36.8730316,15.1815996 L36.3037216,11.1015447 L29.6617718,11.1015447 L29.6617718,34.8227942 Z M53.5727912,8.1601098 C56.2295711,8.1601098 58.1272711,6.45217984 58.1272711,4.0800549 C58.1272711,1.70792996 56.2295711,0 53.5727912,0 C50.9160112,0 49.0183113,1.70792996 49.0183113,4.0800549 C49.0183113,6.45217984 50.9160112,8.1601098 53.5727912,8.1601098 L53.5727912,8.1601098 Z M49.4927363,34.8227942 L57.6528461,34.8227942 L57.6528461,11.1015447 L49.4927363,11.1015447 L49.4927363,34.8227942 Z M61.922671,22.9621694 C61.922671,30.8376243 67.1413459,35.3921041 73.8781807,35.3921041 C76.3451906,35.3921041 79.4763956,34.5381392 81.8485205,32.4506692 L78.6224306,27.3268793 C77.5786956,28.0859593 76.3451906,28.8450393 74.8270307,28.8450393 C72.2651357,28.8450393 70.2725508,26.5677994 70.2725508,22.9621694 C70.2725508,19.3565395 72.0753657,17.0792996 75.1116857,17.0792996 C75.9656506,17.0792996 76.8196156,17.3639546 77.8633506,18.2179196 L81.5638655,13.1890147 C79.9508205,11.5759697 77.4838106,10.5322347 74.6372607,10.5322347 C67.9004258,10.5322347 61.922671,15.0867146 61.922671,22.9621694 L61.922671,22.9621694 Z M85.5490354,34.8227942 L93.5193752,34.8227942 L93.5193752,29.1296943 L95.9863852,26.3780294 L100.730635,34.8227942 L109.55494,34.8227942 L100.63575,20.9695845 L109.080515,11.1015447 L100.25621,11.1015447 L93.7091452,19.3565395 L93.5193752,19.3565395 L93.5193752,1.80281496 L85.5490354,1.80281496 L85.5490354,34.8227942 Z M108.273992,22.9621694 C108.273992,30.8376243 113.587552,35.3921041 120.514157,35.3921041 C123.170937,35.3921041 126.586797,34.4432542 129.148692,32.6404392 L126.491912,27.8013043 C124.783982,28.7501543 123.265822,29.2245793 121.652777,29.2245793 C118.995997,29.2245793 116.908527,28.2757293 116.149447,25.2394094 L129.670559,25.2394094 C129.812887,24.6700994 130.002657,23.4365944 130.002657,22.0133195 C130.002657,15.6560246 126.681682,10.5322347 119.660192,10.5322347 C113.872207,10.5322347 108.273992,15.2764846 108.273992,22.9621694 L108.273992,22.9621694 Z M116.054562,20.3053895 C116.528987,17.6960521 118.047147,16.6997596 119.849962,16.6997596 C122.316972,16.6997596 123.076052,18.3128046 123.076052,20.3053895 L116.054562,20.3053895 Z M133.608287,25.7138344 C133.608287,31.5018192 136.170182,35.3921041 142.337707,35.3921041 C144.947044,35.3921041 146.702416,34.9176792 147.935921,34.5381392 L146.702416,28.6552693 C146.133106,28.8450393 145.374026,29.0348093 144.614946,29.0348093 C143.096787,29.0348093 141.768397,28.1808443 141.768397,25.5715069 L141.768397,17.4588396 L147.176841,17.4588396 L147.176841,11.1015447 L141.768397,11.1015447 L141.768397,4.93401988 L135.031562,4.93401988 L134.082712,11.1015447 L130.477082,11.3861997 L130.477082,17.4588396 L133.608287,17.4588396 L133.608287,25.7138344 Z"></path>
                </g>
            </g>
        </g>
    </g>
</svg>