<?xml version="1.0" encoding="UTF-8" standalone="no"?>
<!-- Generator: Adobe Illustrator 18.1.1, SVG Export Plug-In . SVG Version: 6.00 Build 0)  -->

<svg
   xmlns:dc="http://purl.org/dc/elements/1.1/"
   xmlns:cc="http://creativecommons.org/ns#"
   xmlns:rdf="http://www.w3.org/1999/02/22-rdf-syntax-ns#"
   xmlns:svg="http://www.w3.org/2000/svg"
   xmlns="http://www.w3.org/2000/svg"
   xmlns:xlink="http://www.w3.org/1999/xlink"
   xmlns:sodipodi="http://sodipodi.sourceforge.net/DTD/sodipodi-0.dtd"
   xmlns:inkscape="http://www.inkscape.org/namespaces/inkscape"
   version="1.1"
   id="svg2"
   x="0px"
   y="0px"
   viewBox="0 0 47.5 47.5"
   enable-background="new 0 0 792 1224"
   xml:space="preserve"
   inkscape:version="0.91 r13725"
   sodipodi:docname="red_head_girl.svg"
   width="47.5"
   height="47.5"><metadata
     id="metadata44"><rdf:RDF><cc:Work
         rdf:about=""><dc:format>image/svg+xml</dc:format><dc:type
           rdf:resource="http://purl.org/dc/dcmitype/StillImage" /><dc:title></dc:title></cc:Work></rdf:RDF></metadata><defs
     id="defs42" /><sodipodi:namedview
     pagecolor="#ffffff"
     bordercolor="#666666"
     borderopacity="1"
     objecttolerance="10"
     gridtolerance="10"
     guidetolerance="10"
     inkscape:pageopacity="0"
     inkscape:pageshadow="2"
     inkscape:window-width="1037"
     inkscape:window-height="729"
     id="namedview40"
     showgrid="false"
     inkscape:zoom="8.7256052"
     inkscape:cx="26.140312"
     inkscape:cy="17.783953"
     inkscape:window-x="0"
     inkscape:window-y="0"
     inkscape:window-maximized="0"
     inkscape:current-layer="svg2" /><g
     id="g12"
     transform="matrix(0.08627158,0,0,-0.08627158,-3.3700522,-14.544315)"><g
       id="g14"><g
         id="g5"><defs
           id="defs7"><rect
             id="SVGID_1_"
             x="-79.199997"
             y="-847.59998"
             width="792"
             height="792" /></defs><clipPath
           id="SVGID_2_"><use
             xlink:href="#SVGID_1_"
             overflow="visible"
             id="use11"
             style="overflow:visible"
             x="0"
             y="0"
             width="100%"
             height="100%" /></clipPath><g
           id="g16"
           clip-path="url(#SVGID_2_)"><g
             id="g22"
             transform="translate(30.96,13.9131)"><path
               id="path24"
               d="m 485.3,-550.3 c 67.4,-65.2 68.1,-182.3 51.1,-182.3 -17,0 -68.6,30.9 -101.2,65.6 -32.6,34.8 -29.2,113 -29.2,113 l 26.4,72 c 0,0 -14.5,-3.1 52.9,-68.3"
               inkscape:connector-curvature="0"
               style="fill:#e57010" /></g><g
             id="g26"
             transform="translate(27.96,13.9131)"><path
               id="path28"
               d="m 438.2,-550.3 c 67.4,-65.2 68.1,-182.3 51.1,-182.3 -17,0 -68.6,30.9 -101.2,65.6 -32.6,34.8 -29.2,113 -29.2,113 l 26.4,72 c 0.1,0 -14.4,-3.1 52.9,-68.3"
               inkscape:connector-curvature="0"
               style="fill:#e57010" /></g><g
             id="g30"
             transform="translate(4,3)"><path
               id="path32"
               d="m 62.7,-721.4 c -16.7,0 -16.7,116.7 50,183.4 66.7,66.7 50,66.7 50,66.7 L 196,-538 c 0,0 0,-83.4 -33.3,-116.7 -33.3,-33.3 -83.3,-66.7 -100,-66.7"
               inkscape:connector-curvature="0"
               style="fill:#e57010" /></g><g
             id="g34"
             transform="translate(7,3)"><path
               id="path36"
               d="m 109.7,-721.4 c -16.7,0 -16.7,116.7 50,183.4 66.7,66.7 50,66.7 50,66.7 L 243,-538 c 0,0 0,-83.4 -33.3,-116.7 -33.3,-33.3 -83.3,-66.7 -100,-66.7"
               inkscape:connector-curvature="0"
               style="fill:#e57010" /></g><g
             id="g38"
             transform="translate(7.9141,18.647)"><path
               id="path40"
               d="m 124,-476.1 c -9.5,35.6 -35.3,59.6 -57.5,53.6 -22.2,-6 -32.5,-39.6 -23,-75.2 9.5,-35.6 35.3,-59.6 57.5,-53.6 22.3,5.9 32.6,39.6 23,75.2"
               inkscape:connector-curvature="0"
               style="fill:#d99e82" /></g><g
             id="g42"
             transform="translate(34.915,17.3525)"><path
               id="path44"
               d="m 547.2,-496.4 c 9.5,35.6 -0.8,69.3 -23,75.2 -22.2,5.9 -48,-18.1 -57.5,-53.7 -9.5,-35.6 0.8,-69.2 23,-75.2 22.3,-5.9 48,18.1 57.5,53.7"
               inkscape:connector-curvature="0"
               style="fill:#d99e82" /></g><g
             id="g46"
             transform="translate(32,18)"><path
               id="path48"
               d="m 501.6,-486.3 c 0,156.5 -97,266.8 -216.8,266.8 C 165,-219.5 68,-329.7 68,-486.3 c 0,-156.6 97,-250.1 216.8,-250.1 119.8,0 216.8,93.6 216.8,250.1"
               inkscape:connector-curvature="0"
               style="fill:#d99e82" /></g><g
             id="g50"
             transform="translate(19,9.3486)"><path
               id="path52"
               d="m 297.8,-621.9 c -40.4,0 -71.3,11.5 -72.6,11.9 -8.6,3.2 -13,12.9 -9.7,21.5 3.2,8.6 12.8,13 21.4,9.8 0.3,-0.1 26.8,-9.8 60.9,-9.8 34.1,0 60.6,9.7 60.9,9.8 8.6,3.2 18.2,-1.2 21.4,-9.8 3.2,-8.6 -1.1,-18.2 -9.7,-21.4 -1.3,-0.5 -32.2,-12 -72.6,-12"
               inkscape:connector-curvature="0"
               style="fill:#dd2e44" /></g><g
             id="g54"
             transform="translate(20,14)"><path
               id="path56"
               d="m 313.5,-549 -33.3,0 c -9.2,0 -16.7,7.5 -16.7,16.7 0,9.2 7.5,16.7 16.7,16.7 l 33.3,0 c 9.2,0 16.7,-7.5 16.7,-16.7 -0.1,-9.2 -7.5,-16.7 -16.7,-16.7"
               inkscape:connector-curvature="0"
               style="fill:#c1694f" /></g><g
             id="g58"
             transform="translate(13,17)"><path
               id="path60"
               d="m 203.8,-501.9 c -9.2,0 -16.7,7.5 -16.7,16.7 l 0,33.3 c 0,9.2 7.5,16.7 16.7,16.7 9.2,0 16.7,-7.5 16.7,-16.7 l 0,-33.3 c -0.1,-9.3 -7.5,-16.7 -16.7,-16.7"
               inkscape:connector-curvature="0"
               style="fill:#662113" /></g><g
             id="g62"
             transform="translate(25,17)"><path
               id="path64"
               d="m 391.8,-501.9 c -9.2,0 -16.7,7.5 -16.7,16.7 l 0,33.3 c 0,9.2 7.5,16.7 16.7,16.7 9.2,0 16.7,-7.5 16.7,-16.7 l 0,-33.3 c 0,-9.3 -7.4,-16.7 -16.7,-16.7"
               inkscape:connector-curvature="0"
               style="fill:#662113" /></g><g
             id="g66"
             transform="translate(19,34)"><path
               id="path68"
               d="m 297.8,-235.5 0,-83.4 c 0,0 -16.7,-66.7 -100,-66.7 -83.3,0 -116.8,-100 -116.8,-150 0,0 -44.2,87.2 -16.7,183.4 33.3,116.7 116.7,150.1 166.7,150.1 33.5,0 66.8,-33.4 66.8,-33.4"
               inkscape:connector-curvature="0"
               style="fill:#e57010" /></g><g
             id="g70"
             transform="translate(19,34)"><path
               id="path72"
               d="m 297.8,-235.5 0,-83.4 c 0,0 13.1,-66.7 96.5,-66.7 83.4,0 120.3,-100 120.3,-150.1 0,0 44.2,87.2 16.7,183.4 -33.3,116.7 -116.7,150.1 -166.7,150.1 -33.5,0.1 -66.8,-33.3 -66.8,-33.3"
               inkscape:connector-curvature="0"
               style="fill:#e57010" /></g></g></g></g></g></svg>