<?xml version="1.0" encoding="UTF-8" standalone="no"?>
<!-- Generator: Adobe Illustrator 18.1.1, SVG Export Plug-In . SVG Version: 6.00 Build 0)  -->

<svg
   xmlns:dc="http://purl.org/dc/elements/1.1/"
   xmlns:cc="http://creativecommons.org/ns#"
   xmlns:rdf="http://www.w3.org/1999/02/22-rdf-syntax-ns#"
   xmlns:svg="http://www.w3.org/2000/svg"
   xmlns="http://www.w3.org/2000/svg"
   xmlns:xlink="http://www.w3.org/1999/xlink"
   xmlns:sodipodi="http://sodipodi.sourceforge.net/DTD/sodipodi-0.dtd"
   xmlns:inkscape="http://www.inkscape.org/namespaces/inkscape"
   version="1.1"
   id="svg2"
   x="0px"
   y="0px"
   viewBox="0 0 47.5 47.5"
   enable-background="new 0 0 792 1224"
   xml:space="preserve"
   inkscape:version="0.91 r13725"
   sodipodi:docname="red_head_boy.svg"
   width="47.5"
   height="47.5"><metadata
     id="metadata30"><rdf:RDF><cc:Work
         rdf:about=""><dc:format>image/svg+xml</dc:format><dc:type
           rdf:resource="http://purl.org/dc/dcmitype/StillImage" /><dc:title></dc:title></cc:Work></rdf:RDF></metadata><defs
     id="defs28" /><sodipodi:namedview
     pagecolor="#ffffff"
     bordercolor="#666666"
     borderopacity="1"
     objecttolerance="10"
     gridtolerance="10"
     guidetolerance="10"
     inkscape:pageopacity="0"
     inkscape:pageshadow="2"
     inkscape:window-width="1169"
     inkscape:window-height="701"
     id="namedview26"
     showgrid="false"
     inkscape:zoom="6.1699346"
     inkscape:cx="20.173894"
     inkscape:cy="37.614791"
     inkscape:window-x="0"
     inkscape:window-y="0"
     inkscape:window-maximized="0"
     inkscape:current-layer="svg2" /><g
     id="g12"
     transform="matrix(0.08852484,0,0,-0.08378895,-3.5414218,-13.973111)"><g
       id="g14"><g
         id="g5"><defs
           id="defs7"><rect
             id="SVGID_1_"
             x="-79.199997"
             y="-847.59998"
             width="792"
             height="792" /></defs><clipPath
           id="SVGID_2_"><use
             xlink:href="#SVGID_1_"
             overflow="visible"
             id="use11"
             style="overflow:visible"
             x="0"
             y="0"
             width="100%"
             height="100%" /></clipPath><g
           id="g16"
           clip-path="url(#SVGID_2_)"><g
             id="g22"
             transform="translate(33,17)"><path
               id="path24"
               d="m 517.2,-501.9 c 0,36.8 -18.7,66.7 -41.7,66.7 -0.2,0 -0.4,-0.1 -0.6,-0.1 -25.2,105.1 -101.3,181.4 -191.2,181.4 -89.9,0 -166,-76.3 -191.2,-181.4 -0.2,0 -0.4,0.1 -0.6,0.1 -23,0 -41.7,-29.9 -41.7,-66.7 0,-35.1 17,-63.6 38.6,-66.2 20.4,-110.9 99.8,-183.9 194.8,-183.9 95,0 174.5,73 194.8,183.9 21.8,2.5 38.8,31 38.8,66.2"
               inkscape:connector-curvature="0"
               style="fill:#d99e82" /></g><g
             id="g26"
             transform="translate(14,16)"><path
               id="path28"
               d="m 219.4,-517.6 c -9.2,0 -16.7,7.5 -16.7,16.7 l 0,33.3 c 0,9.2 7.5,16.7 16.7,16.7 9.2,0 16.7,-7.5 16.7,-16.7 l 0,-33.3 c 0,-9.3 -7.5,-16.7 -16.7,-16.7"
               inkscape:connector-curvature="0"
               style="fill:#3b88c3" /></g><g
             id="g30"
             transform="translate(24,16)"><path
               id="path32"
               d="m 376.2,-517.6 c -9.2,0 -16.7,7.5 -16.7,16.7 l 0,33.3 c 0,9.2 7.5,16.7 16.7,16.7 9.2,0 16.7,-7.5 16.7,-16.7 l 0,-33.3 c -0.1,-9.3 -7.5,-16.7 -16.7,-16.7"
               inkscape:connector-curvature="0"
               style="fill:#3b88c3" /></g><g
             id="g34"
             transform="translate(19,6)"><path
               id="path36"
               d="m 297.8,-674.4 c -70,0 -91.6,18 -95.2,21.6 -6.5,6.5 -6.5,17.1 0,23.6 6.3,6.3 16.4,6.5 22.9,0.6 1.3,-1 18.3,-12.4 72.2,-12.4 55.9,0 72.1,12.3 72.3,12.5 6.5,6.5 16.7,6.2 23.2,-0.3 6.5,-6.5 6.2,-17.4 -0.4,-23.9 -3.4,-3.7 -25,-21.7 -95,-21.7"
               inkscape:connector-curvature="0"
               style="fill:#c1694f" /></g><g
             id="g38"
             transform="translate(20,11)"><path
               id="path40"
               d="m 313.5,-596 -33.3,0 c -9.2,0 -16.7,7.5 -16.7,16.7 0,9.2 7.5,16.7 16.7,16.7 l 33.3,0 c 9.2,0 16.7,-7.5 16.7,-16.7 -0.1,-9.2 -7.5,-16.7 -16.7,-16.7"
               inkscape:connector-curvature="0"
               style="fill:#c1694f" /></g><g
             id="g42"
             transform="translate(19,36.0005)"><path
               id="path44"
               d="m 297.8,-204.1 c 133.4,0 216.8,-100 216.8,-183.4 0,-83.4 -16.7,-116.7 -33.3,-83.4 l -33.3,66.7 c 0,0 -100,0 -133.4,33.3 0,0 50,-100 -50,0 0,0 16.7,-66.7 -83.4,16.7 0,0 -50,-33.3 -66.7,-116.7 -4.6,-23.1 -33.3,0 -33.3,83.4 0,83.4 66.5,183.4 216.6,183.4"
               inkscape:connector-curvature="0"
               style="fill:#e57010" /></g></g></g></g></g></svg>