<?xml version="1.0" encoding="UTF-8" standalone="no"?>
<!-- Generator: Adobe Illustrator 16.0.0, SVG Export Plug-In . SVG Version: 6.00 Build 0)  -->

<svg
   xmlns:dc="http://purl.org/dc/elements/1.1/"
   xmlns:cc="http://creativecommons.org/ns#"
   xmlns:rdf="http://www.w3.org/1999/02/22-rdf-syntax-ns#"
   xmlns:svg="http://www.w3.org/2000/svg"
   xmlns="http://www.w3.org/2000/svg"
   xmlns:xlink="http://www.w3.org/1999/xlink"
   xmlns:sodipodi="http://sodipodi.sourceforge.net/DTD/sodipodi-0.dtd"
   xmlns:inkscape="http://www.inkscape.org/namespaces/inkscape"
   version="1.1"
   x="0px"
   y="0px"
   width="47.5"
   height="47.5"
   viewBox="0 0 7.5208333 7.5208333"
   enable-background="new 0 0 47.5 47.5"
   xml:space="preserve"
   id="svg2"
   inkscape:version="0.91 r13725"
   sodipodi:docname="RogerFederer.svg"><metadata
     id="metadata307"><rdf:RDF><cc:Work
         rdf:about=""><dc:format>image/svg+xml</dc:format><dc:type
           rdf:resource="http://purl.org/dc/dcmitype/StillImage" /><dc:title></dc:title></cc:Work></rdf:RDF></metadata><defs
     id="defs305" /><sodipodi:namedview
     pagecolor="#ffffff"
     bordercolor="#666666"
     borderopacity="1"
     objecttolerance="10"
     gridtolerance="10"
     guidetolerance="10"
     inkscape:pageopacity="0"
     inkscape:pageshadow="2"
     inkscape:window-width="1347"
     inkscape:window-height="677"
     id="namedview303"
     showgrid="false"
     inkscape:zoom="8.9001173"
     inkscape:cx="16.840934"
     inkscape:cy="23.372942"
     inkscape:window-x="0"
     inkscape:window-y="0"
     inkscape:window-maximized="0"
     inkscape:current-layer="svg2" /><g
     id="g3635"
     transform="matrix(0.02703095,0,0,0.02703095,-0.18300207,-0.33240277)"><g
       id="Layer_1"><g
         id="g5"><defs
           id="defs7"><rect
             height="300"
             width="300"
             y="-4"
             id="SVGID_1_"
             x="0" /></defs><clipPath
           id="SVGID_2_"><use
             id="use11"
             overflow="visible"
             xlink:href="#SVGID_1_"
             style="overflow:visible"
             x="0"
             y="0"
             width="100%"
             height="100%" /></clipPath><g
           id="g13"
           clip-path="url(#SVGID_2_)"><defs
             id="defs15"><path
               d="M 102.925,43.335 90.319,42.349 57.133,81.68 60.081,95.279 c -8.601,19.126 -13.518,41.26 -13.518,64.852 0,72.421 46.311,131.13 103.437,131.13 57.125,0 103.438,-58.709 103.438,-131.13 0,-18.533 -3.041,-36.163 -8.51,-52.144 L 240.9,81.68 215.181,52.117 208.017,51.558 C 191.473,37.321 171.504,29 150,29 c -16.954,0 -32.954,5.17 -47.075,14.335"
               id="SVGID_3_"
               inkscape:connector-curvature="0" /></defs><clipPath
             id="SVGID_4_"><use
               id="use19"
               overflow="visible"
               xlink:href="#SVGID_3_"
               style="overflow:visible"
               x="0"
               y="0"
               width="100%"
               height="100%" /></clipPath><radialGradient
             gradientUnits="userSpaceOnUse"
             gradientTransform="matrix(110.3891,0,0,-123.7968,143.5772,37303.145)"
             r="1.0002"
             cy="300.03131"
             cx="0.0581"
             id="SVGID_5_"><stop
               id="stop22"
               style="stop-color:#F9A88D"
               offset="0" /><stop
               id="stop24"
               style="stop-color:#D39B79"
               offset="1" /></radialGradient><rect
             id="rect26"
             height="262.26099"
             width="206.875"
             clip-path="url(#SVGID_4_)"
             y="29"
             x="46.563"
             style="fill:url(#SVGID_5_)" /></g><g
           id="g28"
           clip-path="url(#SVGID_2_)"><defs
             id="defs30"><rect
               height="300"
               width="300"
               y="-4"
               id="SVGID_6_"
               x="0" /></defs><clipPath
             id="SVGID_7_"><use
               id="use34"
               overflow="visible"
               xlink:href="#SVGID_6_"
               style="overflow:visible"
               x="0"
               y="0"
               width="100%"
               height="100%" /></clipPath><path
             id="path36"
             d="m 46.481,151.214 c 0,0 -18.662,4.307 -16.27,25.362 2.393,21.055 22.012,28.231 22.012,28.231 l -5.742,-53.593 z"
             clip-path="url(#SVGID_7_)"
             inkscape:connector-curvature="0"
             style="fill:#c68973" /><path
             id="path38"
             d="m 253.519,151.214 c 0,0 18.662,4.307 16.27,25.362 -2.393,21.055 -22.012,28.231 -22.012,28.231 l 5.742,-53.593 z"
             clip-path="url(#SVGID_7_)"
             inkscape:connector-curvature="0"
             style="fill:#c68973" /></g><g
           id="g40"
           clip-path="url(#SVGID_2_)"><defs
             id="defs42"><path
               d="m 129.724,188.443 c 0,0 -7.71,18.089 20.461,17.793 28.172,0.296 20.462,-17.793 20.462,-17.793 -22.24,11.265 -40.923,0 -40.923,0"
               id="SVGID_8_"
               inkscape:connector-curvature="0" /></defs><clipPath
             id="SVGID_9_"><use
               id="use46"
               overflow="visible"
               xlink:href="#SVGID_8_"
               style="overflow:visible"
               x="0"
               y="0"
               width="100%"
               height="100%" /></clipPath><linearGradient
             gradientTransform="matrix(0,17.7964,17.7964,0,-5188.748,192.4397)"
             y2="300"
             x2="0.77539998"
             y1="300"
             x1="-0.22409999"
             gradientUnits="userSpaceOnUse"
             id="SVGID_10_"><stop
               id="stop49"
               style="stop-color:#F9A88D"
               offset="0" /><stop
               id="stop51"
               style="stop-color:#F5A58A"
               offset="0.1599" /><stop
               id="stop53"
               style="stop-color:#E89D82"
               offset="0.3321" /><stop
               id="stop55"
               style="stop-color:#D29075"
               offset="0.51" /><stop
               id="stop57"
               style="stop-color:#B47E62"
               offset="0.6919" /><stop
               id="stop59"
               style="stop-color:#8E6749"
               offset="0.8749" /><stop
               id="stop61"
               style="stop-color:#6F5436"
               offset="1" /></linearGradient><rect
             id="rect63"
             height="18.089001"
             width="56.342999"
             clip-path="url(#SVGID_9_)"
             y="188.44299"
             x="122.014"
             style="fill:url(#SVGID_10_)" /></g><g
           id="g65"
           clip-path="url(#SVGID_2_)"><defs
             id="defs67"><rect
               height="300"
               width="300"
               y="-4"
               id="SVGID_11_"
               x="0" /></defs><clipPath
             id="SVGID_12_"><use
               id="use71"
               overflow="visible"
               xlink:href="#SVGID_11_"
               style="overflow:visible"
               x="0"
               y="0"
               width="100%"
               height="100%" /></clipPath><path
             id="path73"
             d="m 170.647,188.442 c -22.24,11.266 -40.924,0 -40.924,0 0,0 -7.71,18.09 20.462,17.793 28.172,0.297 20.462,-17.793 20.462,-17.793 z"
             stroke-miterlimit="10"
             clip-path="url(#SVGID_12_)"
             inkscape:connector-curvature="0"
             style="fill:none;stroke:#6f5537;stroke-miterlimit:10" /><g
             id="g75"
             clip-path="url(#SVGID_12_)"
             style="opacity:0.91000001"><g
               id="g77"><defs
                 id="defs79"><rect
                   height="47.355"
                   width="47.007"
                   y="150.274"
                   x="127.053"
                   id="SVGID_13_" /></defs><clipPath
                 id="SVGID_14_"><use
                   id="use83"
                   overflow="visible"
                   xlink:href="#SVGID_13_"
                   style="overflow:visible"
                   x="0"
                   y="0"
                   width="100%"
                   height="100%" /></clipPath><g
                 id="g85"
                 clip-path="url(#SVGID_14_)"><defs
                   id="defs87"><path
                     d="m 127.546,187.587 c 0,0 10.67,10.176 22.679,10.042 12.011,-0.134 23.836,-10.042 23.836,-10.042 l -16.807,-16.491 -2.603,-20.572 -7.718,-0.249 -3.889,21.386 -15.991,15.927"
                     id="SVGID_15_"
                     inkscape:connector-curvature="0" /></defs><clipPath
                   id="SVGID_16_"><use
                     id="use91"
                     overflow="visible"
                     xlink:href="#SVGID_15_"
                     style="overflow:visible"
                     x="0"
                     y="0"
                     width="100%"
                     height="100%" /></clipPath><radialGradient
                   gradientUnits="userSpaceOnUse"
                   gradientTransform="matrix(23.5911,0,0,-23.5911,150.563,7255.2964)"
                   r="1.0012"
                   cy="300.168"
                   cx="0"
                   id="SVGID_17_"><stop
                     id="stop94"
                     style="stop-color:#F9A88D"
                     offset="0" /><stop
                     id="stop96"
                     style="stop-color:#D39B79"
                     offset="1" /></radialGradient><rect
                   id="rect98"
                   height="47.487999"
                   width="47.007"
                   clip-path="url(#SVGID_16_)"
                   y="150.274"
                   x="127.053"
                   style="fill:url(#SVGID_17_)" /></g></g></g><path
             id="path100"
             d="m 124.223,141.86 1.432,9.578 -22.197,-6.707 -20.482,1.981 -14.067,0.225 c -0.018,-3.166 16.942,-15.161 55.314,-5.077"
             clip-path="url(#SVGID_12_)"
             inkscape:connector-curvature="0"
             style="fill:#443226" /><path
             id="path102"
             d="m 177.596,141.583 -3.549,9.01 15.829,-4.87 24.062,-0.349 21.076,3.515 c -6.533,-5.642 -12.218,-9.238 -16.102,-9.701 -5.944,-0.71 -12.65,-1.152 -18.647,-1.196 -8.786,-0.064 -13.983,2.3 -22.669,3.591"
             clip-path="url(#SVGID_12_)"
             inkscape:connector-curvature="0"
             style="fill:#443226" /><path
             id="path104"
             d="m 137.327,166.587 c 0,0 -3.719,-17.194 -29.542,-20.239 -25.178,-2.968 -35.56,11.345 -39.441,16.242 0,0 14.628,6.344 17.702,5.289 3.235,-1.11 22.304,6.895 51.281,-1.292"
             clip-path="url(#SVGID_12_)"
             inkscape:connector-curvature="0"
             style="fill:#ffffff" /><path
             id="path106"
             d="m 137.327,166.587 c 0,0 -3.719,-17.194 -29.542,-20.239 -25.178,-2.968 -35.56,11.345 -39.441,16.242 0,0 14.628,6.344 17.702,5.289 3.235,-1.11 22.304,6.895 51.281,-1.292 z"
             stroke-miterlimit="10"
             clip-path="url(#SVGID_12_)"
             inkscape:connector-curvature="0"
             style="fill:none;stroke:#cca976;stroke-miterlimit:10" /></g><g
           id="g108"
           clip-path="url(#SVGID_2_)"><defs
             id="defs110"><path
               d="m 91.984,159.089 c 0,6.687 5.442,11.626 12.128,11.626 6.685,0 12.083,-4.939 12.083,-11.626 0,-6.685 -5.42,-12.104 -12.106,-12.104 -6.686,0 -12.105,5.419 -12.105,12.104"
               id="SVGID_18_"
               inkscape:connector-curvature="0" /></defs><clipPath
             id="SVGID_19_"><use
               id="use114"
               overflow="visible"
               xlink:href="#SVGID_18_"
               style="overflow:visible"
               x="0"
               y="0"
               width="100%"
               height="100%" /></clipPath><radialGradient
             gradientUnits="userSpaceOnUse"
             gradientTransform="matrix(11.9859,0,0,-11.9859,104.086,3758.6328)"
             r="1"
             cy="300.33401"
             cx="0.0009765625"
             id="SVGID_20_"><stop
               id="stop117"
               style="stop-color:#805026"
               offset="0" /><stop
               id="stop119"
               style="stop-color:#7E4F26"
               offset="0.4657" /><stop
               id="stop121"
               style="stop-color:#774B25"
               offset="0.6424" /><stop
               id="stop123"
               style="stop-color:#6B4523"
               offset="0.7699" /><stop
               id="stop125"
               style="stop-color:#5A3B20"
               offset="0.8737" /><stop
               id="stop127"
               style="stop-color:#44301C"
               offset="0.962" /><stop
               id="stop129"
               style="stop-color:#38291A"
               offset="1" /></radialGradient><rect
             id="rect131"
             height="23.73"
             width="24.211"
             clip-path="url(#SVGID_19_)"
             y="146.98399"
             x="91.984001"
             style="fill:url(#SVGID_20_)" /></g><g
           id="g133"
           clip-path="url(#SVGID_2_)"><defs
             id="defs135"><rect
               height="300"
               width="300"
               y="-4"
               id="SVGID_21_"
               x="0" /></defs><clipPath
             id="SVGID_22_"><use
               id="use139"
               overflow="visible"
               xlink:href="#SVGID_21_"
               style="overflow:visible"
               x="0"
               y="0"
               width="100%"
               height="100%" /></clipPath><path
             id="path141"
             d="m 108.258,159.09 c 0,2.303 -1.867,4.17 -4.17,4.17 -2.302,0 -4.169,-1.867 -4.169,-4.17 0,-2.304 1.867,-4.171 4.169,-4.171 2.304,0 4.17,1.867 4.17,4.171"
             clip-path="url(#SVGID_22_)"
             inkscape:connector-curvature="0" /><path
             id="path143"
             d="m 106.562,150.75 c 0,1.366 -1.107,2.473 -2.473,2.473 -1.366,0 -2.474,-1.106 -2.474,-2.473 0,-1.367 1.108,-2.473 2.474,-2.473 1.366,0 2.473,1.107 2.473,2.473"
             clip-path="url(#SVGID_22_)"
             inkscape:connector-curvature="0"
             style="fill:#ffffff" /><path
             id="path145"
             d="m 166.145,166.651 c 0,0 2.31,-17.604 28.22,-19.783 25.03,-2.106 34.624,16.684 39.123,17.076 0,0 -13.886,5.499 -17.033,4.688 -3.249,-0.834 -21.348,6.416 -50.31,-1.981"
             clip-path="url(#SVGID_22_)"
             inkscape:connector-curvature="0"
             style="fill:#ffffff" /><path
             id="path147"
             d="m 166.145,166.651 c 0,0 2.31,-17.604 28.22,-19.783 25.03,-2.106 34.624,16.684 39.123,17.076 0,0 -13.886,5.499 -17.033,4.688 -3.249,-0.834 -21.348,6.416 -50.31,-1.981 z"
             stroke-miterlimit="10"
             clip-path="url(#SVGID_22_)"
             inkscape:connector-curvature="0"
             style="fill:none;stroke:#cca976;stroke-miterlimit:10" /></g><g
           id="g149"
           clip-path="url(#SVGID_2_)"><defs
             id="defs151"><path
               d="m 185.955,159.609 c 0,6.686 5.42,12.104 12.104,12.104 6.687,0 12.106,-5.419 12.106,-12.104 0,-6.687 -5.42,-12.105 -12.106,-12.105 -6.684,0 -12.104,5.419 -12.104,12.105"
               id="SVGID_23_"
               inkscape:connector-curvature="0" /></defs><clipPath
             id="SVGID_24_"><use
               id="use155"
               overflow="visible"
               xlink:href="#SVGID_23_"
               style="overflow:visible"
               x="0"
               y="0"
               width="100%"
               height="100%" /></clipPath><radialGradient
             gradientUnits="userSpaceOnUse"
             gradientTransform="matrix(12.1054,0,0,-12.1054,198.0579,3795.2234)"
             r="1"
             cy="300.33109"
             cx="0.0009765625"
             id="SVGID_25_"><stop
               id="stop158"
               style="stop-color:#805026"
               offset="0" /><stop
               id="stop160"
               style="stop-color:#7E4F26"
               offset="0.4657" /><stop
               id="stop162"
               style="stop-color:#774B25"
               offset="0.6424" /><stop
               id="stop164"
               style="stop-color:#6B4523"
               offset="0.7699" /><stop
               id="stop166"
               style="stop-color:#5A3B20"
               offset="0.8737" /><stop
               id="stop168"
               style="stop-color:#44301C"
               offset="0.962" /><stop
               id="stop170"
               style="stop-color:#38291A"
               offset="1" /></radialGradient><rect
             id="rect172"
             height="24.209999"
             width="24.211"
             clip-path="url(#SVGID_24_)"
             y="147.504"
             x="185.955"
             style="fill:url(#SVGID_25_)" /></g><g
           id="g174"
           clip-path="url(#SVGID_2_)"><defs
             id="defs176"><rect
               height="300"
               width="300"
               y="-4"
               id="SVGID_26_"
               x="0" /></defs><clipPath
             id="SVGID_27_"><use
               id="use180"
               overflow="visible"
               xlink:href="#SVGID_26_"
               style="overflow:visible"
               x="0"
               y="0"
               width="100%"
               height="100%" /></clipPath><path
             id="path182"
             d="m 193.891,159.608 c 0,2.304 1.867,4.171 4.17,4.171 2.303,0 4.17,-1.867 4.17,-4.171 0,-2.303 -1.867,-4.17 -4.17,-4.17 -2.303,0 -4.17,1.868 -4.17,4.17"
             clip-path="url(#SVGID_27_)"
             inkscape:connector-curvature="0" /><path
             id="path184"
             d="m 195.587,151.27 c 0,1.366 1.107,2.473 2.474,2.473 1.365,0 2.474,-1.106 2.474,-2.473 0,-1.367 -1.108,-2.473 -2.474,-2.473 -1.367,0 -2.474,1.106 -2.474,2.473"
             clip-path="url(#SVGID_27_)"
             inkscape:connector-curvature="0"
             style="fill:#ffffff" /></g><g
           id="g186"
           clip-path="url(#SVGID_2_)"><defs
             id="defs188"><path
               d="m 150.512,230.882 c -24.616,0 -49.536,-7.995 -49.536,-7.995 10.065,19.534 24.486,17.077 32.22,20.328 11.254,4.729 18.931,2.464 18.708,4.287 4.711,1.087 8.756,1.406 23.978,-1.131 11.117,-1.854 13.949,-3.868 24.167,-23.484 0,0 -24.921,7.995 -49.537,7.995"
               id="SVGID_28_"
               inkscape:connector-curvature="0" /></defs><clipPath
             id="SVGID_29_"><use
               id="use192"
               overflow="visible"
               xlink:href="#SVGID_28_"
               style="overflow:visible"
               x="0"
               y="0"
               width="100%"
               height="100%" /></clipPath><linearGradient
             gradientTransform="matrix(0,-25.4256,-25.4256,0,7778.1777,259.3184)"
             y2="300"
             x2="1.4326"
             y1="300"
             x1="0.43259999"
             gradientUnits="userSpaceOnUse"
             id="SVGID_30_"><stop
               id="stop195"
               style="stop-color:#81473C"
               offset="0" /><stop
               id="stop197"
               style="stop-color:#38291A"
               offset="1" /></linearGradient><rect
             id="rect199"
             height="26.021"
             width="99.072998"
             clip-path="url(#SVGID_29_)"
             y="222.88699"
             x="100.976"
             style="fill:url(#SVGID_30_)" /></g><g
           id="g201"
           clip-path="url(#SVGID_2_)"><defs
             id="defs203"><rect
               height="300"
               width="300"
               y="-11"
               id="SVGID_31_"
               x="0" /></defs><clipPath
             id="SVGID_32_"><use
               id="use207"
               overflow="visible"
               xlink:href="#SVGID_31_"
               style="overflow:visible"
               x="0"
               y="0"
               width="100%"
               height="100%" /></clipPath><path
             id="path209"
             d="m 150.184,230.372 c -29.571,0.202 -46.945,-7.238 -46.945,-7.238 5.409,9.124 9.763,11.167 9.763,11.167 17.031,6.049 37.183,8.573 37.183,8.573 4.543,0.932 28.02,0.493 40.084,-5.676 0,0 -0.271,-3.721 6.538,-14.286 -10e-4,0 -17.053,7.662 -46.623,7.46"
             clip-path="url(#SVGID_32_)"
             inkscape:connector-curvature="0"
             style="fill:#ffffff" /><g
             id="g211"
             clip-path="url(#SVGID_32_)"
             style="opacity:0.12000002"><g
               id="g213"
               display="none"
               style="display:none"><defs
                 id="defs215"><rect
                   height="9.7200003"
                   width="96.195"
                   y="223.757"
                   x="100.875"
                   id="SVGID_33_" /></defs><clipPath
                 display="inline"
                 id="SVGID_34_"
                 style="display:inline"><use
                   id="use219"
                   overflow="visible"
                   xlink:href="#SVGID_33_"
                   style="overflow:visible"
                   x="0"
                   y="0"
                   width="100%"
                   height="100%" /></clipPath><g
                 id="g221"
                 clip-path="url(#SVGID_34_)"
                 display="inline"
                 style="display:inline"><defs
                   id="defs223"><polygon
                     points="150.448,228.013 163.826,233.477 197.07,225.695 164.533,226.757 148.431,223.758 134.495,226.813 100.875,226.403 139.424,232.769 "
                     id="SVGID_35_" /></defs><clipPath
                   id="SVGID_36_"><use
                     id="use227"
                     overflow="visible"
                     xlink:href="#SVGID_35_"
                     style="overflow:visible"
                     x="0"
                     y="0"
                     width="100%"
                     height="100%" /></clipPath><defs
                   id="defs229"><filter
                     height="9.7189999"
                     width="96.195"
                     y="223.758"
                     x="100.875"
                     filterUnits="userSpaceOnUse"
                     id="Adobe_OpacityMaskFilter"><feColorMatrix
                       id="feColorMatrix232"
                       values="1 0 0 0 0  0 1 0 0 0  0 0 1 0 0  0 0 0 1 0"
                       type="matrix" /></filter></defs><mask
                   id="SVGID_37_"
                   height="9.719"
                   width="96.195"
                   y="223.758"
                   x="100.875"
                   maskUnits="userSpaceOnUse"><g
                     id="g235"
                     style="filter:url(#Adobe_OpacityMaskFilter)"><linearGradient
                       gradientTransform="matrix(0,-9.7191,9.7191,0,-2766.7681,233.4791)"
                       y2="300"
                       x2="1.0005"
                       y1="300"
                       x1="0.00048828131"
                       gradientUnits="userSpaceOnUse"
                       id="SVGID_38_"><stop
                         id="stop238"
                         style="stop-color:#FFFFFF"
                         offset="0" /><stop
                         id="stop240"
                         style="stop-color:#FFFFFF"
                         offset="0.0255" /><stop
                         id="stop242"
                         style="stop-color:#FEFEFE"
                         offset="0.27" /><stop
                         id="stop244"
                         style="stop-color:#F9F9F9"
                         offset="0.3399" /><stop
                         id="stop246"
                         style="stop-color:#EAEAEA"
                         offset="0.4247" /><stop
                         id="stop248"
                         style="stop-color:#D1D1D1"
                         offset="0.5172" /><stop
                         id="stop250"
                         style="stop-color:#AFAFAF"
                         offset="0.6151" /><stop
                         id="stop252"
                         style="stop-color:#838383"
                         offset="0.7175" /><stop
                         id="stop254"
                         style="stop-color:#4D4D4D"
                         offset="0.8236" /><stop
                         id="stop256"
                         style="stop-color:#0E0E0E"
                         offset="0.9307" /><stop
                         id="stop258"
                         style="stop-color:#000000"
                         offset="0.9535" /><stop
                         id="stop260"
                         style="stop-color:#000000"
                         offset="1" /></linearGradient><rect
                       id="rect262"
                       height="9.7189999"
                       width="96.195"
                       clip-path="url(#SVGID_36_)"
                       y="223.758"
                       x="100.875"
                       style="fill:url(#SVGID_38_)" /></g></mask><linearGradient
                   gradientTransform="matrix(0,-9.7191,9.7191,0,-2766.7681,233.4791)"
                   y2="300"
                   x2="1.0005"
                   y1="300"
                   x1="0.00048828131"
                   gradientUnits="userSpaceOnUse"
                   id="SVGID_39_"><stop
                     id="stop265"
                     style="stop-color:#0F0906"
                     offset="0" /><stop
                     id="stop267"
                     style="stop-color:#0F0906"
                     offset="0.0255" /><stop
                     id="stop269"
                     style="stop-color:#100906"
                     offset="0.27" /><stop
                     id="stop271"
                     style="stop-color:#150D09"
                     offset="0.3435" /><stop
                     id="stop273"
                     style="stop-color:#241712"
                     offset="0.4326" /><stop
                     id="stop275"
                     style="stop-color:#3D2720"
                     offset="0.5298" /><stop
                     id="stop277"
                     style="stop-color:#5F3F34"
                     offset="0.6327" /><stop
                     id="stop279"
                     style="stop-color:#8B5D4D"
                     offset="0.7403" /><stop
                     id="stop281"
                     style="stop-color:#C0816C"
                     offset="0.85" /><stop
                     id="stop283"
                     style="stop-color:#F9A88D"
                     offset="0.9535" /><stop
                     id="stop285"
                     style="stop-color:#F9A88D"
                     offset="1" /></linearGradient><rect
                   id="rect287"
                   height="9.7189999"
                   width="96.195"
                   mask="url(#SVGID_37_)"
                   clip-path="url(#SVGID_36_)"
                   y="223.758"
                   x="100.875"
                   style="fill:url(#SVGID_39_)" /></g></g></g></g></g></g><g
       id="Layer_6"><path
         id="path290"
         d="m 101.25,214.75 c -4.75,0.5 -13.25,5.5 -8.75,12.5"
         stroke-miterlimit="10"
         inkscape:connector-curvature="0"
         style="opacity:0.25;fill:none;stroke:#48372e;stroke-miterlimit:10" /><path
         id="path292"
         d="m 198.594,214.75 c 4.75,0.5 13.25,5.5 8.75,12.5"
         stroke-miterlimit="10"
         inkscape:connector-curvature="0"
         style="opacity:0.25;fill:none;stroke:#48372e;stroke-miterlimit:10" /></g><g
       id="Layer_8"><path
         id="path295"
         d="m 46.481,151.214 c 0,0 -1.833,-26.639 0.082,-29.714 1.915,-3.075 0.287,-20.545 0.287,-20.545 0,0 -2.032,-1.455 -1.16,-11.955 C 46.562,78.5 45.5,63 52,50 58.5,37 87,16.5 99,15 c 12,-1.5 36.5,3 42.5,0 6,-3 15.5,-2.131 22.5,-0.315 7,1.816 27,5.815 32,4.815 5,-1 12.5,0 22.5,6 10,6 23.5,11.5 27,20.5 3.5,9 10,22.5 12,38.5 2,16 -3.809,22.249 -7.5,25 -3.691,2.751 1,6 1,6 0,0 2.438,8.5 2.438,16 0,7.5 -0.974,29.549 -1.562,35.04 C 251.288,172.031 247,146 244.5,136.5 242,127 233.5,109.5 229,105 224.5,100.5 169,90.323 145.5,90.162 122,90.001 71.572,105.047 63.5,106 55.428,106.953 54,126.5 52,135.5 c -2,9 -5.519,15.714 -5.519,15.714 z"
         inkscape:connector-curvature="0"
         style="fill:#48372e" /></g><g
       id="Layer_7"><path
         id="path298"
         d="m 43.214,124.662 c 0,0 72.109,-21.5 105.893,-21.5 33.784,0 105.893,21.5 105.893,21.5 0,0 -1.471,-41.5 -5.566,-49 -4.095,-7.5 -59.889,-20 -92.648,-20 -32.76,0 -104.486,8 -109.028,13.5 -4.544,5.5 -4.544,55.5 -4.544,55.5 z"
         stroke-miterlimit="10"
         inkscape:connector-curvature="0"
         style="fill:#ffffff;stroke:#000000;stroke-width:0.5;stroke-miterlimit:10" /></g><g
       id="Layer_10"><path
         id="path301"
         d="m 127.835,56.067 c 0,0 -13.152,-4.036 -21.811,0 -8.659,4.036 -14.814,18.174 -24.279,21.878 -9.465,3.704 -19.222,0.172 -20.165,-6.173 -0.943,-6.345 3.293,-9.465 5.762,-11.934 2.469,-2.469 -6.523,2.601 -8.817,6.033 -2.294,3.432 -2.705,15.367 4.702,16.601 7.407,1.234 21.02,2.881 28,-4.115 6.98,-6.996 10.683,-15.227 16.444,-18.107 5.761,-2.88 20.164,-4.183 20.164,-4.183 z"
         stroke-miterlimit="10"
         inkscape:connector-curvature="0"
         style="fill:#48372e;stroke:#000000;stroke-width:0.5;stroke-miterlimit:10" /></g></g></svg>