<?xml version="1.0" encoding="UTF-8" standalone="no"?><svg width="333" height="333" viewBox="0 0 333 333" xmlns="http://www.w3.org/2000/svg" xmlns:xlink="http://www.w3.org/1999/xlink"><svg viewBox="0 0 47.5 47.5" enable-background="new 0 0 47.5 47.5" width="47.5" height="47.5" id="emoji-fooddrink-1f350" x="47.5"><defs><clipPath id="aaa"><path d="M0 38h38V0H0v38z"/></clipPath></defs><g transform="matrix(1.25 0 0 -1.25 0 47.5)"><g><g clip-path="url(#aaa)"><g transform="translate(8.681 27.903)"><path d="M0 0c1.587 3.15 7.698 1.916 11.958-2.17 2.698-2.587 8.056-1.5 11.5-4.805 3.492-3.354 3.257-9.36-3.054-15.767-5.085-5.16-12.085-5.16-16.25-1.545-4.388 3.81-2.475 8.61-4.41 13.585C-2.195-5.726-4.582-.278 0 0" fill="#a6d388"/></g><g transform="translate(9.178 27.466)"><path d="M0 0c-.43-.448-1.114-.49-1.527-.093-3.208 3.08-3.918 7.545-3.946 7.776-.074.587.348 1.157.938 1.278.593.122 1.132-.255 1.205-.84.006-.05.658-3.997 3.36-6.59C.443 1.13.43.447 0 0" fill="#662113"/></g></g></g></g></svg><svg viewBox="0 0 47.5 47.5" enable-background="new 0 0 47.5 47.5" width="47.5" height="47.5" id="emoji-fooddrink-1f352" x="47.5" y="190"><defs><clipPath id="aba"><path d="M0 38h38V0H0v38z"/></clipPath></defs><g transform="matrix(1.25 0 0 -1.25 0 47.5)"><g><g clip-path="url(#aba)"><g transform="translate(26.999 13)"><path d="M0 0c-.198 0-.397.06-.572.18-6.543 4.58-12.166 12.367-15.397 17.44 1.7-10.53.998-16.458.963-16.744-.07-.548-.563-.93-1.116-.868-.547.068-.937.567-.87 1.115.01.08.937 8.033-1.985 21.668-.104.488.167.98.635 1.15.467.172.99-.028 1.226-.47.08-.147 8.007-14.87 17.69-21.65.454-.317.564-.94.247-1.393C.626.147.315 0 0 0" fill="#77b255"/></g><g transform="translate(27.547 28.182)"><path d="M0 0c-3.476-.96-5.05-2.546-10.75-.667-4.72 1.557-7.037 4.207-6.345 6.305.692 2.097 3.18 3.163 7.9 1.606C-4.444 5.678-5.07 3.78 0 0" fill="#5c913b"/></g><g transform="translate(35 9)"><path d="M0 0c0-4.418-3.582-8-8-8s-8 3.582-8 8 3.582 8 8 8 8-3.582 8-8" fill="#be1931"/></g><g transform="translate(20 9)"><path d="M0 0c0-4.418-3.582-8-8-8s-8 3.582-8 8 3.582 8 8 8 8-3.582 8-8" fill="#be1931"/></g></g></g></g></svg><svg viewBox="0 0 47.5 47.5" enable-background="new 0 0 47.5 47.5" width="47.5" height="47.5" id="emoji-fooddrink-1f354" y="47.5"><defs><clipPath id="aca"><path d="M0 38h38V0H0v38z"/></clipPath></defs><g transform="matrix(1.25 0 0 -1.25 0 47.5)"><g><g clip-path="url(#aca)"><g transform="translate(35.935 10.323)"><path d="M0 0c0 6.65-7.597 12.042-16.967 12.042-9.37 0-16.968-5.39-16.968-12.042 0-6.65 7.597-8.162 16.968-8.162C-7.597-8.162 0-6.65 0 0" fill="#d99e82"/></g><g transform="translate(35.935 16.141)"><path d="M0 0c0 6.65-7.597 12.042-16.967 12.042-9.37 0-16.968-5.39-16.968-12.042 0-6.65 7.597-8.162 16.968-8.162C-7.597-8.162 0-6.65 0 0" fill="#662113"/></g><g transform="translate(20.167 10.549)"><path d="M0 0c-.964-.53-1.288-.53-2.25.003 0 0-7 3.615-15.71 6.323-1.165.583-.266 2.625.835 2.625l31.875-.04c1.1 0 2.005-2.31 1.125-2.542C9.665 4.743 0 0 0 0" fill="#ffcc4d"/></g><g transform="translate(35.935 21.959)"><path d="M0 0c0 6.65-7.597 12.042-16.967 12.042-9.37 0-16.968-5.39-16.968-12.042 0-6.65 7.597-7.375 16.968-7.375C-7.597-7.375 0-6.65 0 0" fill="#d99e82"/></g><g transform="translate(10.742 28.976)"><path d="M0 0c-.498.317-.644.98-.326 1.477.32.498.98.644 1.478.325.498-.318 1.244-1.363.927-1.86C1.76-.56.497-.32 0 0" fill="#ffe8b6"/></g><g transform="translate(21.627 31.813)"><path d="M0 0c.56.183 1.164-.125 1.347-.686.182-.562-.124-1.166-.687-1.348-.562-.183-1.844-.096-2.026.466C-1.55-1.006-.562-.182 0 0" fill="#ffe8b6"/></g><g transform="translate(32.208 22.725)"><path d="M0 0c-.38-.453-1.055-.512-1.507-.13-.452.38-.51 1.053-.13 1.506.38.452 1.513 1.058 1.965.677C.78 1.673.38.453 0 0" fill="#ffe8b6"/></g><g transform="translate(27.742 27.976)"><path d="M0 0c-.498.317-.645.98-.326 1.477.318.498.98.644 1.477.325.5-.318 1.246-1.363.928-1.86C1.76-.56.498-.32 0 0" fill="#ffe8b6"/></g><g transform="translate(12.742 20.977)"><path d="M0 0c-.498.317-.645.98-.326 1.476.318.498.98.644 1.477.326.5-.32 1.246-1.364.928-1.86C1.76-.56.498-.32 0 0" fill="#ffe8b6"/></g><g transform="translate(16.939 27.586)"><path d="M0 0c.335.486 1 .61 1.487.273.487-.336.61-1.002.273-1.488C1.424-1.7.353-2.41-.133-2.075-.62-1.74-.336-.485 0 0" fill="#ffe8b6"/></g><g transform="translate(23.742 20.977)"><path d="M0 0c-.498.316-.645.98-.326 1.476.318.498.98.644 1.477.326.5-.32 1.246-1.364.928-1.86C1.76-.56.498-.32 0 0" fill="#ffe8b6"/></g><g transform="translate(6.058 26.665)"><path d="M0 0c.394.44 1.07.478 1.51.084.44-.395.478-1.07.083-1.51-.394-.44-1.546-1.01-1.985-.616C-.832-1.647-.395-.44 0 0" fill="#ffe8b6"/></g></g></g></g></svg><svg viewBox="0 0 47.5 47.5" enable-background="new 0 0 47.5 47.5" width="47.5" height="47.5" id="emoji-fooddrink-1f355" x="47.5" y="47.5"><defs><clipPath id="ada"><path d="M0 38h38V0H0v38z"/></clipPath><clipPath id="adb"><path d="M6.727 31.382c-.477-.233-.54-.84-.414-1.278C6.438 29.667 17 3 17 3s1-2 2-2c1.104 0 2 2 2 2l10.704 27.22s.213.843-.57 1.23C29.392 32.31 25.048 34 19 34c-6.213 0-10.616-1.81-12.273-2.618"/></clipPath></defs><g transform="matrix(1.25 0 0 -1.25 0 47.5)"><g><g clip-path="url(#ada)"><g transform="translate(19 33)"><path d="M0 0c7.257 0 13-4 14.7-2 .196.323.3.657.3 1 0 2-6.716 5-15 5-8.284 0-15-3-15-5 0-.343.104-.677.3-1C-13-4-7.256 0 0 0" fill="#f4900c"/></g><g transform="translate(19 34)"><path d="M0 0c-6.213 0-10.616-1.81-12.273-2.618-.477-.233-.54-.84-.415-1.278C-12.563-4.333-2-31-2-31s.896-2 2-2 2 2 2 2L12.704-3.78s.213.842-.57 1.23C10.393-1.69 6.048 0 0 0" fill="#ffcc4d"/></g></g></g><g><g clip-path="url(#adb)"><g transform="translate(19 6)"><path d="M0 0c0-2.208-1.79-4-4-4s-4 1.792-4 4 1.79 4 4 4 4-1.792 4-4" fill="#be1931"/></g><g transform="translate(18 17)"><path d="M0 0c0-2.208-1.792-4-4-4-2.21 0-4 1.792-4 4 0 2.21 1.79 4 4 4 2.208 0 4-1.79 4-4" fill="#be1931"/></g><g transform="translate(21 29)"><path d="M0 0c0-2.21-1.792-4-4-4-2.21 0-4 1.79-4 4s1.79 4 4 4c2.208 0 4-1.79 4-4" fill="#be1931"/></g><g transform="translate(30 24)"><path d="M0 0c0-2.21-1.792-4-4-4s-4 1.79-4 4 1.792 4 4 4 4-1.79 4-4" fill="#be1931"/></g><g transform="translate(28 12)"><path d="M0 0c0-2.208-1.792-4-4-4s-4 1.792-4 4 1.792 4 4 4 4-1.792 4-4" fill="#be1931"/></g><g transform="translate(11 25)"><path d="M0 0c0-2.21-1.79-4-4-4s-4 1.79-4 4 1.79 4 4 4 4-1.79 4-4" fill="#be1931"/></g></g></g></g></svg><svg viewBox="0 0 47.5 47.5" enable-background="new 0 0 47.5 47.5" width="47.5" height="47.5" id="emoji-fooddrink-1f356" x="95"><defs><clipPath id="aea"><path d="M0 38h38V0H0v38z"/></clipPath></defs><g transform="matrix(1.25 0 0 -1.25 0 47.5)"><g><g clip-path="url(#aea)"><g transform="translate(15.017 26.632)"><path d="M0 0l-5.844 5.844c.846 1.017.804 2.525-.15 3.48-1.01 1.01-2.65 1.01-3.662 0-.62-.622-.856-1.48-.715-2.283-.805.142-1.662-.094-2.283-.715-1.01-1.01-1.01-2.65 0-3.662.954-.954 2.462-.996 3.48-.15L-3.33-3.33 0 0z" fill="#ffd983"/></g><g transform="translate(26.936 14.713)"><path d="M0 0l5.845-5.844c1.016.846 2.524.805 3.478-.15 1.012-1.01 1.012-2.65 0-3.66-.62-.622-1.478-.858-2.282-.717.143-.805-.094-1.662-.715-2.282-1.01-1.012-2.65-1.012-3.66 0-.956.954-.997 2.462-.15 3.478L-3.33-3.33 0 0z" fill="#ffd983"/></g><g transform="translate(31.02 21.121)"><path d="M0 0c-1.632 1.633-4.113 1.543-6.234 3.665C-8.354 5.785-8.267 8.267-9.9 9.9c-3.514 3.515-7.017 1.467-11.313-2.83-4.296-4.295-6.343-7.798-2.83-11.312 1.634-1.633 4.115-1.544 6.236-3.665 2.122-2.12 2.033-4.603 3.665-6.235 3.515-3.514 7.018-1.467 11.314 2.83C1.468-7.02 3.515-3.516 0 0" fill="#c1694f"/></g><g transform="translate(15 14)"><path d="M0 0c-.104 0-.21.017-.316.052-.524.174-.808.74-.633 1.264C.16 4.644 4.357 8.84 7.685 9.95c.528.175 1.09-.11 1.264-.634.175-.524-.108-1.09-.632-1.265C5.63 7.157 1.844 3.37.95.685.81.264.42 0 0 0" fill="#662113"/></g></g></g></g></svg><svg viewBox="0 0 47.5 47.5" enable-background="new 0 0 47.5 47.5" width="47.5" height="47.5" id="emoji-fooddrink-1f357" x="95" y="47.5"><defs><clipPath id="afa"><path d="M0 38h38V0H0v38z"/></clipPath></defs><g transform="matrix(1.25 0 0 -1.25 0 47.5)"><g><g clip-path="url(#afa)"><g transform="translate(15.017 26.632)"><path d="M0 0l-5.844 5.844c.846 1.017.804 2.525-.15 3.48-1.01 1.01-2.65 1.01-3.662 0-.62-.622-.856-1.48-.715-2.283-.805.142-1.662-.094-2.283-.715-1.01-1.01-1.01-2.65 0-3.662.954-.954 2.462-.996 3.48-.15L-3.33-3.33 0 0z" fill="#ffd983"/></g><g transform="translate(33.954 4.364)"><path d="M0 0c1.665 1.665 5.874 8.81.046 14.636-4.06 4.058-7.328 3.826-13.416 5.335-2.497.833-5.752 3.833-6.584 4.666-.833-.833-.542-3.874-.542-3.874s-3.626-.294-4.458-1.126c.832-.833 4.7-4.49 5.375-6.207 1.822-5.776 1.614-8.712 5.672-12.77C-7.248-6-1.664-1.665 0 0" fill="#c1694f"/></g></g></g></g></svg><svg viewBox="0 0 47.5 47.5" enable-background="new 0 0 47.5 47.5" width="47.5" height="47.5" id="emoji-fooddrink-1f358" y="95"><defs><clipPath id="aga"><path d="M0 38h38V0H0v38z"/></clipPath><clipPath id="agb"><path d="M2 19C2 9.61 9.61 2 19 2s17 7.61 17 17-7.61 17-17 17S2 28.39 2 19"/></clipPath></defs><g transform="matrix(1.25 0 0 -1.25 0 47.5)"><g><g clip-path="url(#aga)"><g transform="translate(36 19)"><path d="M0 0c0-9.39-7.61-17-17-17S-34-9.39-34 0s7.61 17 17 17S0 9.39 0 0" fill="#c1694f"/></g><g transform="translate(28.258 9.358)"><path d="M0 0c-.46-.316-1.09-.2-1.406.263-.316.46-.198 1.09.26 1.406l1.67 1.143c.46.315 1.09.198 1.407-.263.316-.46.2-1.09-.262-1.405L0 0z" fill="#e29386"/></g><g transform="translate(30.696 16.453)"><path d="M0 0c-.512.207-.758.792-.55 1.303.21.51.794.757 1.305.55l1.852-.756c.51-.208.757-.79.55-1.303-.21-.512-.793-.758-1.304-.55L0 0z" fill="#e29386"/></g><g transform="translate(26.202 21.709)"><path d="M0 0c-.52.21-.768.8-.555 1.318.21.517.8.766 1.317.556l1.875-.764C3.152.9 3.4.31 3.19-.208c-.21-.517-.8-.766-1.318-.555L0 0z" fill="#e29386"/></g><g transform="translate(5.201 14.709)"><path d="M0 0c-.517.21-.766.8-.554 1.318.21.517.8.766 1.318.556l1.873-.764c.517-.21.765-.8.555-1.318-.21-.518-.8-.767-1.318-.556L0 0z" fill="#e29386"/></g><g transform="translate(8.758 20.858)"><path d="M0 0c-.46-.316-1.09-.2-1.406.264-.316.46-.198 1.09.26 1.405l1.67 1.143c.46.315 1.09.198 1.407-.263.316-.46.2-1.09-.262-1.406L0 0z" fill="#e29386"/></g><g transform="translate(17.786 17.119)"><path d="M0 0c-.768.312-1.137 1.188-.824 1.956.314.766 1.19 1.135 1.956.823L3.91 1.645c.767-.312 1.136-1.186.824-1.954-.312-.767-1.188-1.136-1.956-.824L0 0z" fill="#e29386"/></g><g transform="translate(11.602 11.067)"><path d="M0 0c.522.2 1.106-.062 1.306-.586.197-.52-.067-1.105-.588-1.303l-1.892-.72c-.518-.2-1.103.064-1.302.587-.2.523.063 1.106.585 1.306L0 0z" fill="#e29386"/></g></g></g><g><g clip-path="url(#agb)"><g transform="translate(27 4)"><path d="M0 0c0-1.104-.896-2-2-2h-12c-1.104 0-2 .896-2 2v12c0 1.104.896 2 2 2h12c1.104 0 2-.896 2-2V0z" fill="#292f33"/></g></g></g></g></svg><svg viewBox="0 0 47.5 47.5" enable-background="new 0 0 47.5 47.5" width="47.5" height="47.5" id="emoji-fooddrink-1f359" x="47.5" y="95"><defs><clipPath id="aha"><path d="M0 38h38V0H0v38z"/></clipPath><clipPath id="ahb"><path d="M15 34C10 30 2 19 2 11c0-9.39 7.61-9 17-9s17-.39 17 9c0 5-6 18-13 23-1.427 1.02-2.732 1.52-4.02 1.52-1.307 0-2.597-.514-3.98-1.52"/></clipPath></defs><g transform="matrix(1.25 0 0 -1.25 0 47.5)"><g><g clip-path="url(#aha)"><g transform="translate(36 11)"><path d="M0 0c0-9.39-7.61-9-17-9s-17-.39-17 9c0 8 8 19 13 23 2.75 2 5.13 2.05 8 0C-6 18 0 5 0 0" fill="#eee"/></g><g transform="translate(28.258 7.358)"><path d="M0 0c-.46-.316-1.09-.2-1.406.263-.316.46-.198 1.09.26 1.406l1.67 1.143c.46.315 1.09.198 1.407-.263.316-.46.2-1.09-.262-1.405L0 0z" fill="#ccd6dd"/></g><g transform="translate(30.696 14.453)"><path d="M0 0c-.512.207-.758.792-.55 1.303.21.51.794.758 1.305.55l1.852-.756c.51-.208.757-.79.55-1.303-.21-.512-.793-.758-1.304-.55L0 0z" fill="#ccd6dd"/></g><g transform="translate(26.202 19.709)"><path d="M0 0c-.52.21-.768.8-.555 1.318.21.517.8.766 1.317.556l1.875-.764C3.152.9 3.4.31 3.19-.208c-.21-.517-.8-.766-1.318-.555L0 0z" fill="#ccd6dd"/></g><g transform="translate(5.201 12.709)"><path d="M0 0c-.517.21-.766.8-.554 1.318.21.517.8.766 1.318.556l1.873-.764c.517-.21.765-.8.555-1.318-.21-.518-.8-.767-1.318-.556L0 0z" fill="#ccd6dd"/></g><g transform="translate(8.758 18.858)"><path d="M0 0c-.46-.316-1.09-.2-1.406.264-.316.46-.198 1.09.26 1.405l1.67 1.143c.46.315 1.09.198 1.407-.263.316-.46.2-1.09-.262-1.406L0 0z" fill="#ccd6dd"/></g><g transform="translate(17.786 15.119)"><path d="M0 0c-.768.312-1.137 1.188-.824 1.956.314.766 1.19 1.135 1.956.823L3.91 1.645c.767-.312 1.136-1.186.824-1.954-.312-.767-1.188-1.136-1.956-.824L0 0z" fill="#ccd6dd"/></g><g transform="translate(11.602 9.067)"><path d="M0 0c.522.2 1.106-.062 1.306-.586.197-.52-.067-1.105-.588-1.303l-1.892-.72c-.518-.2-1.103.064-1.302.587-.2.523.063 1.106.585 1.306L0 0z" fill="#ccd6dd"/></g></g></g><g><g clip-path="url(#ahb)"><g transform="translate(27 2)"><path d="M0 0c0-1.104-.896-2-2-2h-12c-1.104 0-2 .896-2 2v12c0 1.104.896 2 2 2h12c1.104 0 2-.896 2-2V0z" fill="#292f33"/></g></g></g></g></svg><svg viewBox="0 0 47.5 47.5" enable-background="new 0 0 47.5 47.5" width="47.5" height="47.5" id="emoji-fooddrink-1f35a" x="95" y="95"><defs><clipPath id="aia"><path d="M0 38h38V0H0v38z"/></clipPath></defs><g transform="matrix(1.25 0 0 -1.25 0 47.5)"><g><g clip-path="url(#aia)"><g transform="translate(19 1)"><path d="M0 0c-14.958 0-17 15-17 19h34c0-2-1.958-19-17-19" fill="#dd2e44"/></g><g transform="translate(36 19.944)"><path d="M0 0c0-5.216-7.61-9.444-17-9.444S-34-5.216-34 0c0 5.216 7.61 9.444 17 9.444S0 5.216 0 0" fill="#a0041e"/></g><g transform="translate(19 12)"><path d="M0 0c-6 0-16 3-16 8 0 6 6.125 13 16 13s16-8 16-13S7 0 0 0" fill="#eee"/></g><g transform="translate(16.41 17.108)"><path d="M0 0c.42-.36.468-.99.108-1.41-.36-.42-.99-.468-1.41-.11L-2.82-.216c-.42.36-.468.99-.11 1.41.36.42.992.468 1.41.11L0 0z" fill="#ccd6dd"/></g><g transform="translate(8.283 18.615)"><path d="M0 0c-.304-.46-.925-.587-1.386-.283-.46.304-.587.925-.282 1.386L-.566 2.77c.305.462.925.59 1.386.284.46-.304.587-.925.283-1.386L0 0z" fill="#ccd6dd"/></g><g transform="translate(31.283 18.615)"><path d="M0 0c-.305-.46-.926-.587-1.387-.283-.46.304-.587.925-.282 1.386L-.565 2.77c.304.462.925.59 1.385.284.46-.304.586-.925.283-1.386L0 0z" fill="#ccd6dd"/></g><g transform="translate(25.18 22.221)"><path d="M0 0c.11-.54-.24-1.07-.78-1.18-.54-.11-1.07.24-1.18.78l-.4 1.96c-.11.542.24 1.07.78 1.18.542.11 1.07-.24 1.18-.78L0 0z" fill="#ccd6dd"/></g><g transform="translate(17.64 26.179)"><path d="M0 0c-.345.14-.51.534-.37.88.14.343.535.51.88.37L1.757.74c.345-.14.51-.533.37-.88-.14-.343-.534-.51-.88-.37L0 0z" fill="#ccd6dd"/></g><g transform="translate(8.344 24.612)"><path d="M0 0c-.307-.21-.727-.133-.937.175-.21.307-.132.727.174.937l1.114.763c.307.21.727.132.938-.175.21-.307.13-.727-.176-.938L0 0z" fill="#ccd6dd"/></g><g transform="translate(21.936 16.067)"><path d="M0 0c-.55.036-.97.513-.933 1.064.037.55.513.97 1.063.933l1.997-.13c.55-.036.97-.513.933-1.063-.036-.55-.51-.97-1.063-.933L0 0z" fill="#ccd6dd"/></g><g transform="translate(12.696 22.453)"><path d="M0 0c-.512.208-.758.792-.55 1.304.21.51.794.757 1.305.55l1.852-.757c.51-.208.757-.79.55-1.303-.21-.51-.793-.757-1.304-.548L0 0z" fill="#ccd6dd"/></g><g transform="translate(28.641 25.179)"><path d="M0 0c-.346.14-.512.534-.37.88.14.343.534.51.878.37l1.25-.51c.344-.14.51-.533.37-.88-.142-.343-.534-.51-.88-.37L0 0z" fill="#ccd6dd"/></g></g></g></g></svg><svg viewBox="0 0 47.5 47.5" enable-background="new 0 0 47.5 47.5" width="47.5" height="47.5" id="emoji-fooddrink-1f35b" x="142.5"><defs><clipPath id="aja"><path d="M0 38h38V0H0v38z"/></clipPath></defs><g transform="matrix(1.25 0 0 -1.25 0 47.5)"><g><g clip-path="url(#aja)"><g transform="translate(37 14)"><path d="M0 0c0-5.522-8.06-10-18-10S-36-5.522-36 0s8.06 10 18 10S0 5.522 0 0" fill="#939598"/></g><g transform="translate(37 16)"><path d="M0 0c0-5.522-8.06-10-18-10S-36-5.522-36 0s8.06 10 18 10S0 5.522 0 0" fill="#f1f2f2"/></g><g transform="translate(33.8 16.389)"><path d="M0 0c0-4.202-6.626-7.61-14.8-7.61S-29.6-4.203-29.6 0c0 4.203 6.626 7.61 14.8 7.61S0 4.204 0 0" fill="#f4900c"/></g><g transform="translate(14 13)"><path d="M0 0c-3.75 0-10 2.063-10 5.5 0 4.125 3.828 8.938 10 8.938 6.172 0 10-5.5 10-8.938C10 2.063 4.375 0 0 0" fill="#eee"/></g><g transform="translate(5.64 18.179)"><path d="M0 0c-.345.14-.51.534-.37.88.14.343.535.51.88.37L1.757.74c.345-.14.51-.533.37-.88-.14-.344-.534-.51-.88-.37L0 0z" fill="#ccd6dd"/></g><g transform="translate(9.344 21.612)"><path d="M0 0c-.307-.21-.727-.133-.937.175-.21.307-.132.727.174.937l1.114.763c.307.21.727.132.938-.175.21-.307.13-.727-.176-.938L0 0z" fill="#ccd6dd"/></g><g transform="translate(18.344 16.612)"><path d="M0 0c-.307-.21-.727-.133-.937.175-.21.306-.132.727.174.937l1.114.763c.307.21.727.132.938-.175.21-.307.13-.727-.176-.937L0 0z" fill="#ccd6dd"/></g><g transform="translate(12.696 18.453)"><path d="M0 0c-.512.208-.758.792-.55 1.304.21.51.794.757 1.305.55l1.852-.757c.51-.208.757-.79.55-1.303-.21-.51-.793-.757-1.304-.548L0 0z" fill="#ccd6dd"/></g><g transform="translate(17.641 22.179)"><path d="M0 0c-.346.14-.512.534-.37.88.14.343.534.51.878.37l1.25-.51c.344-.14.51-.533.37-.88-.142-.343-.534-.51-.88-.37L0 0z" fill="#ccd6dd"/></g><g transform="translate(11.907 16.418)"><path d="M0 0c.348.133.738-.042.87-.39.132-.347-.043-.738-.39-.87l-1.262-.48c-.346-.132-.736.043-.868.39-.134.35.04.74.39.872L0 0z" fill="#ccd6dd"/></g><g transform="translate(31 18)"><path d="M0 0c0-1.104-.896-2-2-2h-1c-1.104 0-2 .896-2 2s.896 2 2 2h1c1.104 0 2-.896 2-2" fill="#ffd983"/></g><g transform="translate(28 13.5)"><path d="M0 0c0-.828-.672-1.5-1.5-1.5h-1C-3.328-1.5-4-.828-4 0s.672 1.5 1.5 1.5h1C-.672 1.5 0 .828 0 0" fill="#ffd983"/></g><g transform="translate(22 11)"><path d="M0 0c0-.553-.447-1-1-1h-1c-.553 0-1 .447-1 1 0 .553.447 1 1 1h1c.553 0 1-.447 1-1" fill="#ffd983"/></g></g></g></g></svg><svg viewBox="0 0 47.5 47.5" enable-background="new 0 0 47.5 47.5" width="47.5" height="47.5" id="emoji-fooddrink-1f35c" x="142.5" y="47.5"><defs><clipPath id="aka"><path d="M0 38h38V0H0v38z"/></clipPath></defs><g transform="matrix(1.25 0 0 -1.25 0 47.5)"><g><g clip-path="url(#aka)"><g transform="translate(19 1)"><path d="M0 0c-14.958 0-17 14-17 18h34c0-2-1.958-18-17-18" fill="#ccd6dd"/></g><g transform="translate(36 19.944)"><path d="M0 0c0-5.216-7.61-9.444-17-9.444S-34-5.216-34 0c0 5.216 7.61 8.444 17 8.444S0 5.216 0 0" fill="#99aab5"/></g><g transform="translate(20.5 4)"><path d="M0 0h-2.5c-.276 0-.5.224-.5.5s.224.5.5.5h2v3h-4V3h3c.276 0 .5-.224.5-.5s-.224-.5-.5-.5H-5c-.276 0-.5.224-.5.5v2c0 .276.224.5.5.5h5c.276 0 .5-.224.5-.5v-4C.5.224.276 0 0 0" fill="#ea596e"/></g><g transform="translate(26 5)"><path d="M0 0c-.198 0-.386.12-.464.314-.102.256.022.547.278.65l2.176.87-.065 2.25L-2 3.11v-.95c.734.206 1.958.553 2.858.82.262.076.543-.073.62-.338.08-.265-.072-.543-.336-.62-1.378-.41-3.507-1.003-3.507-1.003-.155-.043-.313-.012-.438.082-.124.094-.197.242-.197.398v2c0 .23.156.43.38.485l4.906 1.22c.144.035.303.003.422-.088.12-.092.193-.232.198-.384L3 1.515c.006-.21-.12-.402-.314-.48l-2.5-1C.126.013.062 0 0 0" fill="#ea596e"/></g><g transform="translate(30.573 7.712)"><path d="M0 0c-.112 0-.2.03-.288.078-.158.088-.285.31-.285.49v2.564c0 .184.102.354.265.44.59.315 1.28.728 1.838 1.062.39.233.718.43.91.533.15.078.33.077.477-.003.148-.08.245-.23.258-.4C3.21 4.326 3.062 3.22 3.03 3c-.02-.152-.11-.288-.246-.365L1.58 1.947c-.237-.132-.544-.053-.682.187-.136.24-.053.545.187.682l.987.564c.018.14.035.293.052.444l-.08-.048C1.554 3.483.966 3.13.427 2.834V1.21c.173.093.407.228.723.426l.34-.38.19-.47C.73.196.287 0 0 0" fill="#ea596e"/></g><g transform="translate(12.875 4.719)"><path d="M0 0c-.05 0-.103.008-.152.023l-3.22 1.032c-.262.085-.407.366-.323.63.084.262.367.403.63.323l2.584-.828.063 2.355-2.856.836-.026-.734 1.586-.537c.26-.09.4-.373.313-.635-.09-.262-.373-.4-.636-.314l-1.937.658c-.21.07-.347.27-.34.49l.063 1.75c.006.155.082.3.208.39.125.09.283.117.433.073L.235 4.387c.218-.064.366-.267.36-.493L.5.486C.496.33.417.183.29.092.203.032.102 0 0 0" fill="#ea596e"/></g><g transform="translate(6.844 7.5)"><path d="M0 0c-.09 0-.18.024-.262.074l-1.375.844c-.235.144-.31.452-.164.687.143.236.45.31.687.165l.608-.374-.01 1.624-1.33.75v-.425l.744-.45c.235-.14.31-.448.17-.684-.144-.235-.45-.31-.688-.17l-.984.595c-.15.09-.242.253-.242.428v1.562c0 .178.094.342.248.432.153.09.343.09.498.004L.23 3.75c.156-.088.253-.253.254-.433L.5.503C.5.32.403.153.246.063.17.022.084 0 0 0" fill="#ea596e"/></g><g transform="translate(34 19)"><path d="M0 0c0-3.866-6.716-7-15-7-8.284 0-15 3.134-15 7s6.716 7 15 7C-6.716 7 0 3.866 0 0" fill="#ffac33"/></g><g transform="translate(23 13)"><path d="M0 0c-1.18 0-2.122.196-2.8.584-.768.438-1.208 1.143-1.208 1.933C-4.008 4.372-1.668 6 1 6c.553 0 1-.448 1-1 0-.553-.447-1-1-1-1.872 0-3.008-1.03-3.008-1.483 0-.077.153-.17.2-.197C-1.6 2.2-1.086 2 0 2c2.404 0 5 1.53 5 4 0 .72-.94 1.183-1.343 1.348-2.02.825-5.29.58-6.944-1.104-1.44-1.468-3.792-1.956-6.29-1.302-1.538.402-3.32 1.34-3.705 2.76-.197.726.008 1.438.575 2.005C-10.414 12-6.13 12-3 12c.553 0 1-.448 1-1s-.447-1-1-1c-2.78 0-6.586 0-8.293-1.707-.052-.053-.064-.08-.064-.082.024-.155.57-.762 1.807-1.188 1.57-.54 3.676-.56 4.837.623 2.318 2.36 6.46 2.644 9.127 1.554C6.058 8.526 7 7.36 7 6c0-3.706-3.634-6-7-6" fill="#ffd983"/></g><g transform="translate(16 13)"><path d="M0 0c-7.605 0-10 5.457-10 7 0 .552.448 1 1 1 .55 0 .998-.445 1-.995C-7.964 6.342-6.3 2 0 2c.552 0 1-.447 1-1C1 .447.552 0 0 0" fill="#ffd983"/></g><g transform="translate(36.092 33.947)"><path d="M0 0l-23.005-.886c-.55-.05-1.036.357-1.085.907-.05.55.356 1.037.906 1.086L-.27 2.988c.552.05 1.038-.356 1.087-.906C.867 1.532.55.05 0 0" fill="#aa695b"/></g><g transform="translate(36 29)"><path d="M0 0l-23 1c-.552 0-1 .448-1 1s.448 1 1 1H0c.553 0 1-.448 1-1S.553 0 0 0" fill="#aa695b"/></g><g transform="translate(15 22)"><path d="M0 0c-.552 0-1 .448-1 1v12c0 .552.448 1 1 1s1-.448 1-1V1C1 .448.552 0 0 0" fill="#ffd983"/></g><g transform="translate(19 20)"><path d="M0 0c-.552 0-1 .448-1 1v15c0 .552.448 1 1 1s1-.448 1-1V1C1 .448.552 0 0 0" fill="#ffd983"/></g></g></g></g></svg><svg viewBox="0 0 47.5 47.5" enable-background="new 0 0 47.5 47.5" width="47.5" height="47.5" id="emoji-fooddrink-1f35d" x="142.5" y="95"><defs><clipPath id="ala"><path d="M0 38h38V0H0v38z"/></clipPath></defs><g transform="matrix(1.25 0 0 -1.25 0 47.5)"><g><g clip-path="url(#ala)"><g transform="translate(37 13)"><path d="M0 0c0-5.522-8.06-10-18-10S-36-5.522-36 0s8.06 10 18 10S0 5.522 0 0" fill="#939598"/></g><g transform="translate(37 15)"><path d="M0 0c0-5.522-8.06-10-18-10S-36-5.522-36 0s8.06 10 18 10S0 5.522 0 0" fill="#f1f2f2"/></g><g transform="translate(33.8 15.389)"><path d="M0 0c0-4.202-6.626-7.61-14.8-7.61S-29.6-4.203-29.6 0c0 4.203 6.626 7.61 14.8 7.61S0 4.204 0 0" fill="#ffcc4d"/></g><g transform="translate(12 10)"><path d="M0 0c-.552 0-1 .447-1 1 0 .553.448 1 1 1 1.898 0 3.082 1.085 3.174 1.835.09.736-.96 1.08-1.417 1.195C.85 5.255.177 4.997-.6 4.695c-1.07-.414-2.532-.978-4.107.598-.69.688-.868 1.604-.492 2.513C-4.465 9.576-1.754 11 0 11c.552 0 1-.448 1-1S.552 9 0 9c-1.115 0-2.995-1.1-3.35-1.96-.075-.178-.046-.23.057-.333.63-.628.928-.548 1.97-.146.863.335 2.043.79 3.565.41 2.384-.596 3.07-2.136 2.917-3.38C4.94 1.827 2.952 0 0 0" fill="#ffe8b6"/></g><g transform="translate(18 9)"><path d="M0 0c-.552 0-1 .447-1 1 0 .553.448 1 1 1 5.697 0 9.833 1.247 12.293 3.707.39.39 1.023.39 1.414 0 .39-.39.39-1.023 0-1.414C10.857 1.443 6.247 0 0 0" fill="#ffe8b6"/></g><g transform="translate(22.349 12.84)"><path d="M0 0c-.537 0-1.07.06-1.59.19-.544.135-2.195.548-2.246 1.883-.04 1 .66 2.172 5.938 3.957-.576.47-1.958 1.13-3.45 1.13-2.514 0-3.798-.21-4.294-.707-.39-.39-1.023-.39-1.414 0-.39.39-.39 1.024 0 1.414.955.955 2.448 1.293 5.707 1.293 2.397 0 5.398-1.333 5.677-3.053.108-.662-.193-1.506-1.36-1.895-2.582-.86-3.92-1.55-4.5-1.957.112-.04.253-.08.427-.125 3.23-.804 7.322 2.366 7.768 3.18.072.48.488.85.99.85.552 0 1-.448 1-1 0-.706-.635-1.56-1.887-2.537C5.02 1.263 2.475 0 0 0" fill="#ffe8b6"/></g><g transform="translate(28 16.5)"><path d="M0 0c0-2.485-2.03-5.5-7-5.5-4.97 0-4 2-12 5-3.376 1.266 5.03 5 10 5S0 2.485 0 0" fill="#dd2e44"/></g><g transform="translate(17 13)"><path d="M0 0c-.256 0-.512.098-.707.293-.39.39-.39 1.023 0 1.414.28.305.112.474 0 .586-.558.558-2.238.616-3.846-.188-.495-.247-1.094-.046-1.342.448-.247.494-.046 1.094.448 1.342 1.977.988 4.725 1.242 6.154-.188C1.96 2.455 1.393.98.707.293.512.098.257 0 0 0" fill="#ea596e"/></g><g transform="translate(21 17)"><path d="M0 0c-2.414 0-3.686 1.27-4.707 2.293-.39.39-.39 1.023 0 1.414.39.39 1.023.39 1.414 0C-2.34 2.753-1.586 2 0 2c.773 0 2.586 0 3.293.707.39.39 1.023.39 1.414 0 .39-.39.39-1.023 0-1.414C3.414 0 1.107 0 0 0" fill="#ea596e"/></g><g transform="translate(21 13)"><path d="M0 0c-.553 0-1 .447-1 1 0 .553.447 1 1 1 1.847 0 4.548.962 5.293 1.707.39.39 1.023.39 1.414 0 .39-.39.39-1.023 0-1.414C5.417 1.003 2.04 0 0 0" fill="#ea596e"/></g><g transform="translate(18.001 17)"><path d="M0 0c-.367 0-.72.202-.896.553-.998 1.997-3.076 6.153-4.097 14.323-.07.548.32 1.048.868 1.116.544.07 1.048-.32 1.116-.868.98-7.83 2.954-11.78 3.904-13.677C1.14.953.94.353.446.105.303.035.15 0 0 0" fill="#ffac33"/></g><g transform="translate(36.125 25.958)"><path d="M0 0l-15.24 4.503c-3.35 5.31-7.566 4.455-9.885 4.54-.25.008-.82-.22-.833-.626-.015-.392 1.025-.337 1.186-.343 1.705-.062 3.945-.176 6.132-2.487-2.658.927-6.74 1.522-7.485 1.455-.458-.042-.5-.375.042-.625.444-.206 4.572-1.647 6.84-2.34-1.42-.49-3.286-.715-6.435.86-.496.248-1.2.6-1.447.105-.247-.494.506-.753 1-1 2.16-1.08 3.43-2.332 4.823-2.332 1.656 0 2.854.505 3.792.9.333.14.634.263.903.343.016-.01.028-.024.045-.033l14.804-6.592c.486-.265 1.572.79 1.837 1.276C.343-1.912.36-.223 0 0" fill="#99aab5"/></g><g transform="translate(14 18)"><path d="M0 0c-.256 0-.512.098-.707.293C-2.022 1.608-5.153 9.16-.78 14.625c.344.43.975.5 1.405.156.43-.344.5-.973.156-1.405C-2.867 8.815.003 2.412.708 1.707c.39-.39.39-1.023 0-1.414C.512.098.257 0 0 0" fill="#ffac33"/></g></g></g></g></svg><svg viewBox="0 0 47.5 47.5" enable-background="new 0 0 47.5 47.5" width="47.5" height="47.5" id="emoji-fooddrink-1f35e" y="142.5"><defs><clipPath id="ama"><path d="M0 38h38V0H0v38z"/></clipPath></defs><g transform="matrix(1.25 0 0 -1.25 0 47.5)"><g><g clip-path="url(#ama)"><g transform="translate(37 23.5)"><path d="M0 0c0 4.558-4.435 8.267-10 8.48v.02h-16v-.02C-31.565 8.266-36 4.557-36 0c0-1.86.747-3.576 2-4.976V-17.5c0-2.21 1.79-4 4-4h24c2.21 0 4 1.79 4 4v12.524C-.747-3.576 0-1.86 0 0" fill="#d99e82"/></g><g transform="translate(22 23.5)"><path d="M0 0c0 3.46-3.538 6.29-8 6.49-.166.006-2.332.01-2.5.01-4.694 0-8.5-2.91-8.5-6.5 0-1.595.754-3.053 2-4.184V-16.5c0-1.657 1.343-3 3-3h9c1.657 0 3 1.343 3 3v12.32C-.756-3.047 0-1.592 0 0" fill="#ffe8b6"/></g></g></g></g></svg><svg viewBox="0 0 47.5 47.5" enable-background="new 0 0 47.5 47.5" width="47.5" height="47.5" id="emoji-fooddrink-1f35f" x="47.5" y="142.5"><defs><clipPath id="ana"><path d="M0 38h38V0H0v38z"/></clipPath><clipPath id="anb"><path d="M4 22.5c0-.11.015-.22.017-.332C4.015 22.11 4 22.058 4 22l.043-.346c.044-.77.133-1.546.29-2.327L6 6c0-2.21 1.79-4 4-4h18c2.21 0 4 1.79 4 4l1.84 14.714c.034.215.057.428.08.642L34 22c0 .07-.018.135-.02.206.002.097.02.197.02.294C34 30.508 27.284 35 19 35c-8.285 0-15-4.492-15-12.5"/></clipPath><clipPath id="anc"><path d="M3 36V20c0 1.104.895 1 2 1s3 .104 3-1c0-2.76 4.372-5 11-5 6.627 0 11 2.24 11 5 0 1.104 1.895 1 3 1s2 .104 2-1h1v16H3z"/></clipPath><clipPath id="and"><path d="M0 38h38V0H0v38z"/></clipPath></defs><g transform="matrix(1.25 0 0 -1.25 0 47.5)"><g><g clip-path="url(#ana)"><g transform="translate(34 22)"><path d="M0 0c0 .07-.018.136-.02.206C-.02.303 0 .403 0 .5 0 8.508-6.716 13-15 13c-8.284 0-15-4.492-15-12.5 0-.11.015-.222.017-.332C-29.985.11-30 .058-30 0l.043-.346c.044-.77.133-1.547.29-2.328L-28-16c0-2.21 1.79-4 4-4h18c2.21 0 4 1.79 4 4L-.16-1.287c.034.216.056.43.08.643L0 0z" fill="#dd2e44"/></g></g></g><g><g clip-path="url(#anb)"><g transform="translate(3 36)"><path d="M0 0v-16c0 1.104.896 1 2 1s3 .104 3-1c0-2.762 4.373-5 11-5s11 2.238 11 5c0 1.104 1.896 1 3 1s2 .104 2-1h1V0H0z" fill="#be1931"/></g></g></g><g><g clip-path="url(#anc)"><g transform="translate(11.002 5.5)"><path d="M0 0c-.115 0-.232.013-.35.04-.805.192-1.302 1.002-1.11 1.808l5 21c.19.805 1 1.3 1.806 1.11.806-.19 1.303-1 1.112-1.806l-5-21C1.293.464.678 0 0 0" fill="#f4900c"/></g><g transform="translate(26 27)"><path d="M0 0c-1-1-4-4-2-6s-1-8 2-6 4 5 4 7 1 5-1 5H0z" fill="#f4900c"/></g><g transform="translate(18 28)"><path d="M0 0c-1 0-3-2-3-3s0-6 3-5 3 3 2 5-2 3-2 3" fill="#f4900c"/></g><g transform="translate(20.998 6.5)"><path d="M0 0c-.76 0-1.413.577-1.49 1.35l-2 20c-.083.825.518 1.56 1.343 1.643.816.083 1.558-.52 1.64-1.344l2-20C1.578.824.977.09.152.007.1.002.05 0 0 0" fill="#f4900c"/></g><g transform="translate(22.002 6.5)"><path d="M0 0c-.067 0-.136.004-.205.014-.82.112-1.396.868-1.283 1.69l3 22c.11.82.858 1.394 1.69 1.282.82-.11 1.395-.868 1.282-1.69l-3-22C1.382.547.738 0 0 0" fill="#f4900c"/></g><g transform="translate(19 5.5)"><path d="M0 0c-.613 0-1.188.378-1.41.987l-8 22c-.283.78.12 1.64.897 1.923.778.283 1.64-.118 1.923-.897l8-22C1.692 1.233 1.29.373.513.09.343.028.17 0 0 0" fill="#f4900c"/></g><g transform="translate(23 8.5)"><path d="M0 0c-.157 0-.317.024-.475.077-.786.262-1.21 1.11-.948 1.898l6 18c.26.786 1.112 1.213 1.898.948.786-.262 1.21-1.11.948-1.897l-6-18C1.213.395.628 0 0 0" fill="#f4900c"/></g><g transform="translate(20 10.5)"><path d="M0 0c-.613 0-1.188.378-1.41.987l-4 11c-.283.78.12 1.64.897 1.923.778.282 1.64-.118 1.923-.897l4-11C1.692 1.233 1.29.373.513.09.343.028.17 0 0 0" fill="#f4900c"/></g><g transform="translate(9.998 10.5)"><path d="M0 0c-.72 0-1.355.52-1.478 1.253l-2 12c-.136.818.416 1.59 1.233 1.726.815.14 1.59-.416 1.726-1.233l2-12C1.62.93 1.067.157.25.02.164.008.08 0 0 0" fill="#f4900c"/></g><g transform="translate(30.002 13.5)"><path d="M0 0c-.056 0-.11.003-.168.01C-.99.1-1.584.842-1.493 1.665l1 9c.092.823.83 1.418 1.657 1.325.823-.09 1.416-.832 1.325-1.656l-1-9C1.402.567.753 0 0 0" fill="#f4900c"/></g><g transform="translate(29.998 5.5)"><path d="M0 0c-.738 0-1.382.545-1.484 1.297l-3 22c-.113.82.463 1.578 1.283 1.69.824.114 1.576-.463 1.688-1.284l3-22C1.6.883 1.025.126.205.013.135.004.067 0 0 0" fill="#ffcc4d"/></g><g transform="translate(22.998 11.5)"><path d="M0 0c-.78 0-1.437.604-1.494 1.394l-1 14c-.06.825.562 1.543 1.39 1.602.822.066 1.542-.563 1.602-1.39l1-14C1.558.78.936.062.108.004.072 0 .036 0 0 0" fill="#ffcc4d"/></g><g transform="translate(10.002 9.5)"><path d="M0 0c-.058 0-.117.003-.176.01C-1 .106-1.588.85-1.492 1.674L.05 14.884c.096.822.843 1.41 1.663 1.315.823-.097 1.412-.842 1.316-1.665L1.487 1.325C1.398.563.75 0 0 0" fill="#ffcc4d"/></g><g transform="translate(18.998 9.5)"><path d="M0 0c-.7 0-1.327.493-1.47 1.206l-4 20c-.162.812.365 1.603 1.178 1.765.814.165 1.602-.364 1.764-1.176l4-20C1.635.98 1.108.19.295.03.195.01.097 0 0 0" fill="#ffcc4d"/></g></g></g><g><g clip-path="url(#and)"><g transform="translate(23 9)"><path d="M0 0c0-2.21-1.79-4-4-4s-4 1.79-4 4 1.79 4 4 4 4-1.79 4-4" fill="#be1931"/></g></g></g></g></svg><svg viewBox="0 0 47.5 47.5" enable-background="new 0 0 47.5 47.5" width="47.5" height="47.5" id="emoji-fooddrink-1f360" x="95" y="142.5"><defs><clipPath id="aoa"><path d="M0 38h38V0H0v38z"/></clipPath></defs><g transform="matrix(1.25 0 0 -1.25 0 47.5)"><g><g clip-path="url(#aoa)"><g transform="translate(10.441 22.405)"><path d="M0 0c.458 1.372 7.41 7.525 13.286 10.22 1.528.7 5.188 2.066 6.936 2.503 3.604.902 7.747 2.32 5.327-.46-3.526-4.046-3.944-14.014-8.03-21.17-2.68-4.212-4.234-6.422-10.366-3.356C1.022-9.198-2.043-6.133 0 0" fill="#c1694f"/></g><g transform="translate(23.491 22.24)"><path d="M0 0c3.816-3.768 4.498-9.263 1.524-12.276-2.973-3.014-8.477-2.4-12.294 1.365-3.815 3.767-4.498 9.264-1.524 12.275C-9.32 4.378-3.816 3.767 0 0" fill="#f4900c"/></g><g transform="translate(27.96 30.623)"><path d="M0 0c1.14-.57 2.703-3.605 2.703-4.506 0-.9-.9.9-2.703 2.704C-1.803 0-1.803.9 0 0" fill="#8a4b38"/></g><g transform="translate(28.141 22.593)"><path d="M0 0c.606-.578 1.01-2.787.836-3.354-.173-.567-.395.74-1.183 2.22C-1.137.346-.962.913 0 0" fill="#8a4b38"/></g><g transform="translate(22 5)"><path d="M0 0c0-2.21-4.477-4-10-4s-10 2-10 4c0 .37-.203 2.6.083 2.958C-18.66 4.53-14.497 4-10 4c4.908 0 9.133.865 9.98-1C.085 2.767 0 .246 0 0" fill="#c1694f"/></g><g transform="translate(22 8)"><path d="M0 0c0-2.21-4.477-4-10-4s-10 1.79-10 4 4.477 4 10 4S0 2.21 0 0" fill="#fca43a"/></g></g></g></g></svg><svg viewBox="0 0 47.5 47.5" enable-background="new 0 0 47.5 47.5" width="47.5" height="47.5" id="emoji-fooddrink-1f361" x="142.5" y="142.5"><defs><clipPath id="apa"><path d="M0 38h38V0H0v38z"/></clipPath></defs><g transform="matrix(1.25 0 0 -1.25 0 47.5)"><g><g clip-path="url(#apa)"><g transform="translate(34.875 1.772)"><path d="M0 0c-.314 0-.628.12-.868.36L-31.508 31c-.48.48-.48 1.257 0 1.737.478.48 1.256.48 1.735 0L.867 2.097c.48-.48.48-1.258 0-1.738C.628.12.315 0 0 0" fill="#d99e82"/></g><g transform="translate(16.254 28.373)"><path d="M0 0c0-3.73-3.023-6.752-6.752-6.752-3.73 0-6.752 3.023-6.752 6.752 0 3.73 3.023 6.752 6.752 6.752C-3.022 6.752 0 3.73 0 0" fill="#fcb1e3"/></g><g transform="translate(23.621 21.006)"><path d="M0 0c0-3.73-3.023-6.752-6.752-6.752-3.73 0-6.753 3.023-6.753 6.752 0 3.73 3.023 6.752 6.753 6.752S0 3.73 0 0" fill="#ffd983"/></g><g transform="translate(30.987 13.641)"><path d="M0 0c0-3.73-3.024-6.753-6.753-6.753-3.728 0-6.752 3.024-6.752 6.753 0 3.73 3.024 6.752 6.752 6.752C-3.023 6.752 0 3.73 0 0" fill="#a6d388"/></g><g transform="translate(34.875 1.772)"><path d="M0 0c-.314 0-.628.12-.868.36l-7.52 7.52c-.48.478-.48 1.256 0 1.735.48.48 1.256.48 1.737 0l7.518-7.52c.48-.48.48-1.256 0-1.736C.628.12.314 0 0 0" fill="#d99e82"/></g></g></g></g></svg><svg viewBox="0 0 47.5 47.5" enable-background="new 0 0 47.5 47.5" width="47.5" height="47.5" id="emoji-fooddrink-1f362" x="190"><defs><clipPath id="aqa"><path d="M0 38h38V0H0v38z"/></clipPath></defs><g transform="matrix(1.25 0 0 -1.25 0 47.5)"><g><g clip-path="url(#aqa)"><g transform="translate(34.884 1.77)"><path d="M0 0c-.314 0-.63.12-.87.36l-30.684 30.685c-.48.48-.48 1.258 0 1.738s1.26.48 1.74 0L.868 2.1c.48-.48.48-1.26 0-1.74C.63.12.313 0 0 0" fill="#d99e82"/></g><g transform="translate(7.729 33.954)"><path d="M0 0c-2.65.536-4.26-1.167-3.578-3.784l1.843-7.055c.684-2.616 2.808-3.192 4.72-1.28l6.103 6.103C11-4.104 10.396-2.1 7.745-1.565L0 0z" fill="#66757f"/></g><g transform="translate(23.614 21.032)"><path d="M0 0c0-3.734-3.027-6.76-6.762-6.76-3.735 0-6.762 3.026-6.762 6.76s3.027 6.762 6.762 6.762C-3.027 6.762 0 3.734 0 0" fill="#d99e82"/></g><g transform="translate(23.052 6.293)"><path d="M0 0c-.96-.96-2.518-.96-3.477 0l-3.478 3.478c-.96.96-.96 2.516 0 3.476l8.693 8.693c.96.96 2.518.96 3.478 0l3.477-3.477c.96-.96.96-2.517 0-3.478L0 0z" fill="#ccd6dd"/></g><g transform="translate(34.884 1.77)"><path d="M0 0c-.314 0-.63.12-.87.36l-9.117 9.12c-.48.478-.48 1.257 0 1.737.48.48 1.258.48 1.738 0L.87 2.1c.48-.48.48-1.26 0-1.74C.63.12.313 0 0 0" fill="#d99e82"/></g></g></g></g></svg><svg viewBox="0 0 47.5 47.5" enable-background="new 0 0 47.5 47.5" width="47.5" height="47.5" id="emoji-fooddrink-1f363" x="190" y="47.5"><defs><clipPath id="ara"><path d="M0 38h38V0H0v38z"/></clipPath><clipPath id="arb"><path d="M3.442 21.978c-.178-.067-.333-.18-.447-.332C1.755 20.012.38 13.53 4 10c3.556-3.468 6.822-4.304 8.778-4.495.032-.003.107-.007.14-.007 2.458 0 18.332 10.76 19.524 13.235 1.372 2.842 1.28 8.4-1.98 10.297-.395.23-.914.338-1.633.338-5.582 0-24.582-7.09-25.388-7.39"/></clipPath><clipPath id="arc"><path d="M0 38h38V0H0v38z"/></clipPath></defs><g transform="matrix(1.25 0 0 -1.25 0 47.5)"><g><g clip-path="url(#ara)"><g transform="translate(12.918 5.498)"><path d="M0 0c-.033 0-.108.004-.14.007-1.957.19-6.023 1.362-8.778 5.495-2 3-2.245 9.012-1.004 10.646.114.15.268.266.445.332.807.302 19.807 7.39 25.388 7.39.72 0 1.24-.107 1.634-.337 3.26-1.9 3.352-7.456 1.98-10.3C18.332 10.762 2.458 0 0 0" fill="#eee"/></g></g></g><g><g clip-path="url(#arb)"><g transform="translate(14 18)"><path d="M0 0c-1-3-3-14 2-16S26-4.083 24 1.458C22 7 17 12 13 9S0 0 0 0" fill="#ccd6dd"/></g></g></g><g><g clip-path="url(#arc)"><g transform="translate(33.018 30.48)"><path d="M0 0c-.227.213-.54.31-.846.257l-29.376-4.833c-.492-.08-.85-.514-.837-1.013.028-1.01.02-1.745.01-2.573-.004-.46-.01-.948-.01-1.525 0-.297.133-.58.362-.77 2.033-1.686 8.714-6.156 10.233-6.916.142-.07.295-.105.447-.105.217 0 .432.07.61.208 2.556 1.966 16.483 9.93 18.664 10.875.335.146.564.463.598.827C-.02-4.197.312-.83.312-.828.342-.518.228-.212 0 0" fill="#a0041e"/></g><g transform="translate(33.085 30.411)"><path d="M0 0c-2.02 2.295-9.627 5.574-10.917 5.63-.08.004-.16-.003-.238-.018-10.106-2.013-16.72-7.806-19.21-9.987l-.415-.362c-.232-.2-.36-.496-.345-.802.013-.305.167-.588.416-.767.34-.243 8.317-5.96 10.258-7.058.154-.086.323-.13.492-.13.24 0 .48.088.667.255C-15.38-9.74-2.193-2.28-.396-1.596-.09-1.48.14-1.22.22-.9.3-.584.217-.247 0 0" fill="#dd2e44"/></g><g transform="translate(8.417 28.416)"><path d="M0 0c.875-2.667 1.333-5.417 1.75-7.833" fill="none" stroke="#ea596e" stroke-width="2" stroke-linecap="round" stroke-linejoin="round" stroke-miterlimit="10"/></g><g transform="translate(13.959 31.834)"><path d="M0 0c1.042-2.833 2.167-9.333 2.25-11" fill="none" stroke="#ea596e" stroke-width="2" stroke-linecap="round" stroke-linejoin="round" stroke-miterlimit="10"/></g><g transform="translate(20 34)"><path d="M0 0c1-3 1.592-7.763 1.834-9.375" fill="none" stroke="#ea596e" stroke-width="2" stroke-linecap="round" stroke-linejoin="round" stroke-miterlimit="10"/></g><g transform="translate(26.459 32.959)"><path d="M0 0c.5-1.417.833-2.833 1.04-4.917" fill="none" stroke="#ea596e" stroke-width="2" stroke-linecap="round" stroke-linejoin="round" stroke-miterlimit="10"/></g><g transform="translate(33.136 14)"><path d="M0 0c-1.714 1.235-4.055 2-6.636 2-2.58 0-4.922-.765-6.635-2h-2.866v-5c0-3.86 4.262-7 9.5-7 5.24 0 9.5 3.14 9.5 7v5H0z" fill="#292f33"/></g><g transform="translate(26.5 21)"><path d="M0 0c-5.238 0-9.5-3.14-9.5-7s4.262-7 9.5-7 9.5 3.14 9.5 7S5.238 0 0 0" fill="#292f33"/></g><g transform="translate(33.583 14)"><path d="M0 0c0-2.762-3.17-5-7.083-5-3.912 0-7.084 2.238-7.084 5s3.172 5 7.084 5C-3.17 5 0 2.762 0 0" fill="#e1e8ed"/></g><g transform="translate(33.583 14)"><path d="M0 0c0-2.762-3.17-5-7.083-5-3.912 0-7.084 2.238-7.084 5s3.172 5 7.084 5C-3.17 5 0 2.762 0 0z" fill="none" stroke="#e1e8ed" stroke-width="1.667" stroke-linecap="round" stroke-linejoin="round" stroke-miterlimit="10"/></g><g transform="translate(22.209 14.458)"><path d="M0 0c0 .422 1.806.335 4.29.335C6.777.335 8.5.88 8.5.46c0-1.776-1.724-3.553-4.21-3.553C1.807-3.093 0-1.775 0 0" fill="#77b255"/></g><g transform="translate(22.209 14.458)"><path d="M0 0c0 .422 1.806.335 4.29.335C6.777.335 8.5.88 8.5.46c0-1.776-1.724-3.553-4.21-3.553C1.807-3.093 0-1.775 0 0z" fill="none" stroke="#77b255" stroke-miterlimit="10"/></g><g transform="translate(31 15)"><path d="M0 0s-2 1-5 0c-2.357-.786-4-2.56-4-.785s2.015 3.213 4.5 3.213S0 1 0 0" fill="#f4900c"/></g><g transform="translate(31 15)"><path d="M0 0s-2 1-5 0c-2.357-.786-4-2.56-4-.785s2.015 3.213 4.5 3.213S0 1 0 0z" fill="none" stroke="#f4900c" stroke-linecap="round" stroke-linejoin="round" stroke-miterlimit="10"/></g></g></g></g></svg><svg viewBox="0 0 47.5 47.5" enable-background="new 0 0 47.5 47.5" width="47.5" height="47.5" id="emoji-fooddrink-1f364" x="190" y="95"><defs><clipPath id="asa"><path d="M0 38h38V0H0v38z"/></clipPath><clipPath id="asb"><path d="M16.85 34.618c-.063-.177-.302-.52-.532-.852-.68-.978-1.61-2.32-1.212-3.52.22-.67.814-1.17 1.763-1.49 1.89-.64 5.828-3.862 6.6-7.746.215-1.076.156-2.11-.144-3.104-1.624 3.03-4.566 4.937-8.157 4.937-5.815 0-9.53-4.786-9.53-10.67 0-4.955 3.715-10.67 9.53-10.67.027 0 .056.003.085.003l.09-.006c.603-.043 1.61-.113 2.827-.113 6.086 0 13.837 1.73 16.2 9.967 1.556 5.42.423 11.69-2.957 16.366-2.267 3.135-6.546 6.934-14.067 7.232l-.372.016-.126-.35z"/></clipPath><clipPath id="asc"><path d="M5.764 36.562c-1.42-.065-2.507-.79-2.767-1.848-.122-.498-.21-1.77 1.624-2.84.552-.322.888-.66.9-.908.01-.235-.26-.712-1.062-1.283-.794-.567-1.12-1.442-.85-2.284.33-1.035 1.468-1.728 2.828-1.728.744 0 1.513.196 2.285.58 1.997 1 4.684 1.644 6.845 1.644 1.066 0 1.97-.15 2.69-.445.362-.15.716-.224 1.052-.224.62 0 1.173.25 1.6.722 1.336 1.476 1.058 4.98.988 5.667-.042.434-.357.79-.782.89-1.595.367-12.77 2.06-15.153 2.06l-.196-.003z"/></clipPath></defs><g transform="matrix(1.25 0 0 -1.25 0 47.5)"><g><g clip-path="url(#asa)"><g transform="translate(31.414 27.72)"><path d="M0 0c-2.266 3.135-6.545 6.934-14.066 7.232l-.372.016-.126-.35c-.063-.177-.302-.52-.532-.852-.68-.98-1.61-2.32-1.213-3.52.223-.67.816-1.17 1.765-1.49 1.893-.64 5.83-3.863 6.602-7.746.214-1.076.155-2.11-.145-3.105-1.624 3.03-4.566 4.938-8.158 4.938-5.814 0-9.527-4.787-9.527-10.67 0-5.082 3.713-10.67 9.527-10.67.03 0 .058.003.087.003l.092-.006c.602-.043 1.61-.113 2.826-.113 6.086 0 13.838 1.73 16.2 9.967C4.515-10.946 3.382-4.676 0 0" fill="#ffac33"/></g><g transform="translate(6.436 25.671)"><path d="M0 0c-1.36 0-2.497.694-2.828 1.728-.27.84.056 1.717.85 2.284.8.57 1.072 1.048 1.062 1.283-.012.247-.348.586-.9.907-1.832 1.07-1.746 2.343-1.623 2.84.26 1.058 1.347 1.783 2.77 1.848l.194.004c2.384 0 13.56-1.693 15.153-2.06.425-.1.74-.457.782-.89.07-.687-3.636-1.88-.99-5.668.366-.522-.98-.722-1.598-.722-.337 0-.692.076-1.054.225-.718.295-1.623.445-2.69.445-2.16 0-4.847-.645-6.843-1.643C1.513.196.745 0 0 0" fill="#ff839b"/></g></g></g><g><g clip-path="url(#asb)"><g transform="translate(22.706 19.117)"><path d="M0 0c2.286-3.43 4.234-10.84-2.795-12.915-.17-.636 2.905-1.47 5.61 1.46C5.865-8.15 6.055.17-.975 5.844-5.546 7.156 0 0 0 0" fill="#f4900c"/></g><g transform="translate(32.254 13.951)"><path d="M0 0c1.655.752 4.002 2.667 4.764 4.51.762 1.84 2.477-1.46.762-3.05C4.446.38 1.206-1.016-.38-1.206-1.97-1.397-1.398-.637 0 0" fill="#f4900c"/></g><g transform="translate(31.873 30.592)"><path d="M0 0c.38-3.176 1.334-7.558-.89-9.59-2.222-2.033.1-1.334 1.398-.51C2.604-8.764 3.176-5.78 2.478-4 1.777-2.224 0 0 0 0" fill="#f4900c"/></g></g></g><g><g clip-path="url(#asc)"><g transform="translate(2.846 33.514)"><path d="M0 0c2.35-3.684 12.576-1.313.212-5.674C-4.89-6.924 0 0 0 0" fill="#ea596e"/></g></g></g></g></svg><svg viewBox="0 0 47.5 47.5" enable-background="new 0 0 47.5 47.5" width="47.5" height="47.5" id="emoji-fooddrink-1f365" x="190" y="142.5"><defs><clipPath id="ata"><path d="M0 38h38V0H0v38z"/></clipPath></defs><g transform="matrix(1.25 0 0 -1.25 0 47.5)"><g><g clip-path="url(#ata)"><g transform="translate(23.235 1.338)"><path d="M0 0c-.418 0-.83.123-1.182.36l-2.96 2.008L-7.102.36C-7.453.124-7.866 0-8.283 0c-.183 0-.365.022-.547.072-.59.157-1.085.563-1.35 1.114l-1.722 2.392-3.405.568c-.05-.002-.1-.004-.15-.004-.56 0-1.096.22-1.49.617-.434.434-.658 1.03-.615 1.64l.256 3.568-3.215 1.56c-.55.266-.958.762-1.117 1.353-.16.592-.052 1.222.29 1.73l1.153 2.927-1.152 2.99c-.343.508-.45 1.138-.29 1.73.158.59.565 1.084 1.115 1.35l3.214 1.56-.256 3.566c-.043.612.18 1.212.614 1.642.394.397.932.618 1.49.618.05 0 .1 0 .15-.004l3.28.505 1.847 2.452c.265.55.76.958 1.35 1.116.18.048.363.073.546.073.417 0 .83-.124 1.183-.363l2.958-2.005 2.96 2.005c.352.24.764.363 1.182.363.183 0 .37-.025.545-.073.592-.158 1.088-.565 1.353-1.116l1.867-2.327 3.26-.63c.05.003.1.003.15.003.557 0 1.094-.22 1.493-.618.43-.43.656-1.03.612-1.642l-.26-3.565 3.22-1.56c.552-.267.958-.76 1.114-1.35.16-.593.055-1.224-.29-1.73l-.924-2.908.925-3.01c.344-.508.448-1.138.29-1.73-.157-.59-.563-1.086-1.114-1.352l-3.22-1.56.26-3.568c.044-.61-.18-1.206-.612-1.64-.4-.397-.936-.618-1.493-.618-.05 0-.1.002-.15.004L3.808 3.62l-1.91-2.434C1.634.636 1.138.23.546.072.368.022.183 0 0 0" fill="#e1e8ed"/></g><g transform="translate(19.5 8.291)"><path d="M0 0c-3.708-.04-8.167 2.875-7.792 8.37.133 1.96.902 3.78 2.34 5.116 2.544 2.366 6.54 2.22 8.904-.324.986-1.06 1.5-2.443 1.447-3.89-.052-1.448-.666-2.79-1.727-3.775-.918-.853-2.104-1.302-3.365-1.253-1.253.046-2.413.577-3.266 1.495-.785.843-1.06 2.044-.733 3.213.33 1.19 1.217 2.095 2.374 2.425.532.152 1.123.236 1.274-.294.152-.53-.38-.757-1.083-1.25-.833-.584-1.292-1.667-.368-2.733.47-.543 1.155-.83 1.873-.857.717-.023 1.405.23 1.932.72.668.62 1.056 1.468 1.09 2.382.033.913-.293 1.785-.915 2.455-1.614 1.737-4.34 1.837-6.077.22-1.046-.972-1.652-2.294-1.703-3.722-.053-1.43.455-2.79 1.428-3.838 1.202-1.293 2.835-2.04 4.6-2.105 1.763-.07 3.447.562 4.74 1.765C6.562 5.596 7.48 7.603 7.56 9.77c.08 2.165-.69 4.233-2.167 5.82-3.725 4.008-8.6 4.952-13.643 1.91-.763-.46-1.4-1.136-1.833-.79-.21.165-.315.48.09.856 4.815 4.478 12.376 4.2 16.85-.614 1.84-1.978 2.92-4.562 2.7-7.257C8.876 1.292 3-.165 0 0" fill="#d372b8"/></g></g></g></g></svg><svg viewBox="0 0 47.5 47.5" enable-background="new 0 0 47.5 47.5" width="47.5" height="47.5" id="emoji-fooddrink-1f367" y="190"><defs><clipPath id="aua"><path d="M0 38h38V0H0v38z"/></clipPath><clipPath id="aub"><path d="M17.77 15H4.805S7.053 7.853 10.59 4.416c2.408-2.34 6.46-2.52 7.9-2.52 2.88 0 6.55.192 8.957 2.534C31.645 8.507 33.612 15 33.612 15H17.77z"/></clipPath><clipPath id="auc"><path d="M0 38h38V0H0v38z"/></clipPath><clipPath id="aud"><path d="M4.856 17.716c.9-.332 6.69-2.382 13.993-2.382 8.22 0 14.248 1.787 15.626 2.778 1.38.992 1.33 9.59-4.952 12.905-5.363 2.828-5.513 5.608-10.624 5.608-7.66 0-21.194-16.28-14.044-18.91"/></clipPath><clipPath id="aue"><path d="M0 38h38V0H0v38z"/></clipPath></defs><g transform="matrix(1.25 0 0 -1.25 0 47.5)"><g><g clip-path="url(#aua)"><g transform="translate(17.769 15)"><path d="M0 0h-12.963s2.248-7.146 5.784-10.584c2.41-2.34 6.46-2.52 7.9-2.52 2.88 0 6.55.192 8.96 2.534C13.875-6.493 15.843 0 15.843 0H0z" fill="#55acee"/></g></g></g><g><g clip-path="url(#aub)"><g transform="translate(33.612 13.449)"><path d="M0 0c0-2.32-4.858-4.9-14.403-4.9-9.546 0-14.404 2.58-14.404 4.9 0 2.32 4.858 4.198 14.404 4.198C-4.858 4.198 0 2.318 0 0" fill="#3b88c3"/></g></g></g><g><g clip-path="url(#auc)"><g transform="translate(3 20)"><path d="M0 0v-4.453C0-6.77 7.25-8.65 16-8.65s16 1.88 16 4.197V0H0z" fill="#55acee"/></g><g transform="translate(4.857 17.717)"><path d="M0 0c.9-.33 6.693-2.383 14-2.383 8.224 0 14.252 1.788 15.632 2.78 1.38.992 1.328 9.594-4.955 12.91-5.365 2.83-5.514 5.61-10.627 5.61C6.386 18.917-7.153 2.63 0 0" fill="#f9d2dc"/></g></g></g><g><g clip-path="url(#aud)"><g transform="translate(4.47 26.889)"><path d="M0 0c1.555.73 5.467 2.243 8.378-1.658 2.91-3.9 9.483-1.756 12.293.975 2.81 2.73 6.52 1.22 10.736.196 4.215-1.025-2.808 14.14-11.49 13.164-8.68-.976-14.347 2.68-17.81-3.12C-1.353 3.753 0 0 0 0" fill="#f98097"/></g></g></g><g><g clip-path="url(#aue)"><g transform="translate(14 30)"><path d="M0 0c0-.552-.448-1-1-1s-1 .448-1 1 .448 1 1 1 1-.448 1-1" fill="#ea596e"/></g><g transform="translate(20 27)"><path d="M0 0c0-.552-.447-1-1-1-.553 0-1 .448-1 1s.447 1 1 1c.553 0 1-.448 1-1" fill="#ea596e"/></g><g transform="translate(24 32)"><path d="M0 0c0-.552-.447-1-1-1-.553 0-1 .448-1 1s.447 1 1 1c.553 0 1-.448 1-1" fill="#ea596e"/></g></g></g></g></svg><svg viewBox="0 0 47.5 47.5" enable-background="new 0 0 47.5 47.5" width="47.5" height="47.5" id="emoji-fooddrink-1f368"><defs><clipPath id="ava"><path d="M0 38h38V0H0v38z"/></clipPath><clipPath id="avb"><path d="M19.918 24H6.998c-1.174 0-3.738-.493-3.07-2.894C6.71 11.1 17 8.376 17 8.376V7.2s-4.634-2.443-5.588-3.01c-1.027-.587-.267-1.526.144-1.688.684-.27 2.39-1.15 7.115-1.15 4.85 0 7.498.954 8.085 1.15.226.075 1.197.973-.2 1.8C24.074 5.773 21 7.2 21 7.2v1.173S31.66 11.1 34.357 21.28c.396 1.495-1.52 2.72-3.87 2.72h-10.57z"/></clipPath><clipPath id="avc"><path d="M0 38h38V0H0v38z"/></clipPath></defs><g transform="matrix(1.25 0 0 -1.25 0 47.5)"><g><g clip-path="url(#ava)"><g transform="translate(21 8.375)"><path d="M0 0s10.66 2.725 13.356 12.905c.397 1.495-1.518 2.72-3.868 2.72H-14c-1.176 0-3.74-.493-3.072-2.895C-14.29 2.725-4 0-4 0v-1.173s-4.634-2.443-5.588-3.01c-1.027-.588-.267-1.526.144-1.688.684-.27 2.39-1.15 7.115-1.15 4.85 0 7.498.953 8.085 1.15.226.074 1.197.972-.198 1.798C3.073-2.602 0-1.172 0-1.172V0z" fill="#55acee"/></g><g transform="translate(34.291 21.752)"><path d="M0 0c0-1.692-6.835-3.063-15.27-3.063-8.43 0-15.267 1.37-15.267 3.063S-23.7 3.064-15.27 3.064C-6.834 3.064 0 1.694 0 0" fill="#3b88c3"/></g><g transform="translate(26.982 30.092)"><path d="M0 0c0-1.613-3.133-4.745-7.832-4.745-4.325 0-7.83 2.088-7.83 4.745 0 4.325 3.505 6.787 7.83 6.787C-3.506 6.787 0 4.325 0 0" fill="#f4abba"/></g><g transform="translate(34.291 22.783)"><path d="M0 0c0-1.613-3.132-4.223-7.83-4.223-4.326 0-7.833-1.393-7.833 4.223 0 4.325 3.507 7.83 7.833 7.83C-3.505 7.83 0 4.326 0 0" fill="#ffe8b6"/></g><g transform="translate(19.672 22.783)"><path d="M0 0c0-5.182-3.132-4.31-7.83-4.31-4.325 0-7.83 1.653-7.83 4.31 0 4.325 3.505 7.83 7.83 7.83C-3.507 7.83 0 4.326 0 0" fill="#8a4b38"/></g></g></g><g><g clip-path="url(#avb)"><g transform="translate(3.75 19.777)"><path d="M0 0c1.915-.61 16.185-5.264 31.28.522.088-.826-.218-3.742-1.435-3.96-1.218-.215-14.232-4.495-28.762.203C.69-2.8 0 0 0 0" fill="#3b88c3"/></g></g></g><g><g clip-path="url(#avc)"><g transform="translate(3.837 21.823)"><path d="M0 0c1.396-.6 15.488-5.046 30.498-.087 0-.653-.41-2.477-.653-3.176-.39-1.132-15.4-4.83-28.888-.26C.565-3.35-.61.26 0 0" fill="#55acee"/></g></g></g></g></svg><svg viewBox="0 0 47.5 47.5" enable-background="new 0 0 47.5 47.5" width="47.5" height="47.5" id="emoji-fooddrink-1f369" x="95" y="190"><defs><clipPath id="awa"><path d="M0 38h38V0H0v38z"/></clipPath></defs><g transform="matrix(1.25 0 0 -1.25 0 47.5)"><g><g clip-path="url(#awa)"><g transform="translate(36.337 13.451)"><path d="M0 0c-1.046-6.27-7.722-10.45-17.245-10.45S-33.443-6.27-34.488 0c-.247 1.48.156 8.12 1.054 9.406C-30.874 13.07-29.96-.96-17.244-.96c13.847 0 13.64 14.03 16.198 10.366C-.146 8.12.246 1.48 0 0" fill="#ffac33"/></g><g transform="translate(19.092 17.631)"><path d="M0 0c-3.174 0-5.748.702-5.748 1.568 0 .866 2.574 1.567 5.748 1.567 3.173 0 5.748-.7 5.748-1.567C5.748.702 3.173 0 0 0m0 13.375c-9.33 0-16.895-4.584-16.895-10.24C-16.895-2.52-9.33-7.105 0-7.105c9.33 0 16.895 4.585 16.895 10.24 0 5.656-7.565 10.24-16.895 10.24" fill="#8a4b38"/></g><g transform="translate(2.72 22.377)"><path d="M0 0c-.653-1.045-.92-5.494.48-7.577 2.133-3.18 3.177-1.567 4.745-2.047 2.335-.714 2.508-2.56 4.355-3.483 2.09-1.045 3.305-.74 6.27 0 4.18 1.045 6.837-1.088 9.405 0 2.106.893 3.31 4.137 4.486 4.528 3.73 1.244 4.516 7.125 1.742 9.538-.87-1.83-5.137-8.404-7.88-8.71-2.745-.304-10.974-1-14.457.785C5.66-5.182 2.135-2.96 1.698-2.352 1.263-1.742 0 0 0 0" fill="#8a4b38"/></g><g transform="translate(19.092 23.118)"><path d="M0 0c-3.752 0-6.793-1.228-6.793-2.743 0-.59.463-1.133 1.245-1.58-.126.13-.2.264-.2.404 0 .867 2.574 1.568 5.748 1.568 3.173 0 5.748-.7 5.748-1.567 0-.14-.074-.273-.2-.403.782.447 1.245.99 1.245 1.58C6.793-1.228 3.75 0 0 0" fill="#f4900c"/></g><g transform="translate(5.42 18.85)"><path d="M0 0c-.375 0-.737.203-.925.557-.27.51-.075 1.143.436 1.412l2.31 1.22c.508.27 1.14.075 1.41-.436.27-.51.076-1.143-.435-1.412L.487.122C.332.04.165 0 0 0" fill="#f4abba"/></g><g transform="translate(17.307 11.056)"><path d="M0 0c-.41 0-.8.242-.966.646l-.74 1.786c-.22.533.033 1.144.566 1.365.534.22 1.144-.032 1.365-.567l.74-1.786C1.185.91.933.3.4.08.27.024.132 0 0 0" fill="#f4abba"/></g><g transform="translate(29.151 15.236)"><path d="M0 0c-.18 0-.364.047-.53.146-.497.292-.662.934-.368 1.43l1.13 1.916c.294.496.94.66 1.432.368.497-.294.662-.934.368-1.43L.9.513C.706.184.357 0 0 0" fill="#55acee"/></g><g transform="translate(30.893 23)"><path d="M0 0c-.56 0-1.023.48-1.043 1.046-.02.576.43 1.08 1.007 1.1l1.218.052c.587.007 1.06-.427 1.08-1.004C2.283.618 1.833.1 1.257.078L.038 0H0z" fill="#f4abba"/></g><g transform="translate(20.792 27.123)"><path d="M0 0c-.444 0-.855.285-.997.73-.173.55.132 1.138.682 1.312l.826.26c.556.176 1.138-.13 1.312-.68.175-.55-.13-1.138-.68-1.312L.315.05C.21.015.105 0 0 0" fill="#f4abba"/></g><g transform="translate(14.998 25.426)"><path d="M0 0c-.157 0-.316.036-.466.11l-.784.392c-.516.258-.726.886-.468 1.402.258.516.886.726 1.403.468l.783-.392c.516-.258.726-.885.468-1.402C.753.212.384 0 0 0" fill="#88c9f9"/></g><g transform="translate(24.1 12.146)"><path d="M0 0c-.156 0-.315.035-.465.11L-1.25.5c-.516.258-.726.885-.47 1.4.258.52.885.728 1.403.47l.784-.39c.516-.257.726-.884.47-1.4C.754.21.384 0 0 0" fill="#88c9f9"/></g><g transform="translate(10.426 14.452)"><path d="M0 0c-.138 0-.277.026-.412.085-.53.227-.775.842-.548 1.372l.392.914c.228.53.843.78 1.373.55.53-.23.776-.843.548-1.373L.96.633C.79.237.406 0 0 0" fill="#55acee"/></g><g transform="translate(26.018 24.337)"><path d="M0 0c-.403 0-.787.234-.958.626-.23.53.01 1.145.538 1.377l.696.305c.53.232 1.146-.01 1.376-.54.232-.528-.01-1.144-.538-1.375L.418.088C.28.028.14 0 0 0" fill="#55acee"/></g><g transform="translate(9.035 24.38)"><path d="M0 0c-.078 0-.157.01-.235.027L-.8.157c-.564.13-.915.69-.785 1.253s.69.913 1.252.784l.566-.13c.563-.13.914-.69.785-1.253C.906.328.476 0 0 0" fill="#55acee"/></g></g></g></g></svg><svg viewBox="0 0 47.5 47.5" enable-background="new 0 0 47.5 47.5" width="47.5" height="47.5" id="emoji-fooddrink-1f36a" x="142.5" y="190"><defs><clipPath id="axa"><path d="M0 38h38V0H0v38z"/></clipPath></defs><g transform="matrix(1.25 0 0 -1.25 0 47.5)"><g><g clip-path="url(#axa)"><g transform="translate(36 19)"><path d="M0 0c0-9.39-7.61-17-17-17S-34-9.39-34 0s7.61 17 17 17S0 9.39 0 0" fill="#d99e82"/></g><g transform="translate(23.638 20.053)"><path d="M0 0c1.177.385 2.444-.26 2.827-1.44.384-1.18-.26-2.447-1.44-2.83-1.182-.385-3.872-.202-4.256.977C-3.25-2.113-1.18-.383 0 0" fill="#8a4b38"/></g><g transform="translate(32.208 20.725)"><path d="M0 0c-.38-.452-1.055-.512-1.507-.13-.452.38-.51 1.054-.13 1.507.38.45 1.513 1.057 1.965.677C.78 1.674.38.454 0 0" fill="#8a4b38"/></g><g transform="translate(10.208 27.725)"><path d="M0 0c-.38-.452-1.055-.512-1.507-.13-.452.38-.51 1.054-.13 1.507.38.45 1.513 1.057 1.965.677C.78 1.674.38.454 0 0" fill="#8a4b38"/></g><g transform="translate(22.301 29.619)"><path d="M0 0c-.748.478-.97 1.472-.49 2.22.478.75 1.472.968 2.22.49.75-.48 1.874-2.05 1.395-2.798C2.645-.838.75-.478 0 0" fill="#8a4b38"/></g><g transform="translate(14.374 23.402)"><path d="M0 0c-.515 1.066-.064 2.35 1.005 2.864 1.07.512 2.35.06 2.864-1.008.512-1.07.68-3.643-.388-4.154C2.412-2.812.512-1.07 0 0" fill="#8a4b38"/></g><g transform="translate(15.399 9.303)"><path d="M0 0c.602.874 1.8 1.096 2.672.492.874-.605 1.094-1.8.49-2.675C2.56-3.057.634-4.33-.238-3.727-1.113-3.123-.604-.873 0 0" fill="#8a4b38"/></g><g transform="translate(25.412 9.709)"><path d="M0 0c-.687.436-.89 1.348-.45 2.034.44.686 1.35.886 2.036.447C2.27 2.044 3.3.605 2.862-.08 2.424-.77.686-.44 0 0" fill="#8a4b38"/></g><g transform="translate(6.536 18.58)"><path d="M0 0c.762.853 2.07.926 2.923.163.85-.764.924-2.072.16-2.922C2.32-3.613.09-4.713-.76-3.95-1.61-3.188-.763-.85 0 0" fill="#8a4b38"/></g></g></g></g></svg><svg viewBox="0 0 47.5 47.5" enable-background="new 0 0 47.5 47.5" width="47.5" height="47.5" id="emoji-fooddrink-1f36b" x="190" y="190"><defs><clipPath id="aya"><path d="M0 38h38V0H0v38z"/></clipPath><clipPath id="ayb"><path d="M11.075 35.324L2.59 26.84c-1.56-1.563-1.56-2.682 0-4.244L21.682 3.504c1.562-1.562 4.094-1.562 5.657 0l7.07 7.07c1.562 1.563 1.562 4.096 0 5.658L15.32 35.324c-.78.78-1.45 1.172-2.122 1.172-.67 0-1.34-.39-2.12-1.172"/></clipPath><clipPath id="ayc"><path d="M0 38h38V0H0v38z"/></clipPath><clipPath id="ayd"><path d="M20.268 26.132l-8.485-8.486c-1.563-1.562-1.563-4.094 0-5.657l9.9-9.9c1.56-1.562 4.093-1.562 5.656 0l8.484 8.485c1.562 1.562 1.562 4.095 0 5.657l-9.9 9.9c-.78.78-1.804 1.17-2.828 1.17-1.023 0-2.047-.39-2.828-1.17"/></clipPath><clipPath id="aye"><path d="M0 38h38V0H0v38z"/></clipPath></defs><g transform="matrix(1.25 0 0 -1.25 0 47.5)"><g><g clip-path="url(#aya)"><g transform="translate(27.339 3.504)"><path d="M0 0c-1.562-1.562-4.095-1.562-5.657 0L-24.75 19.092c-1.56 1.562-1.56 2.68 0 4.243l8.486 8.485c1.562 1.562 2.68 1.562 4.243 0L7.07 12.73c1.563-1.564 1.563-4.096 0-5.66L0 0z" fill="#c1694f"/></g></g></g><g><g clip-path="url(#ayb)"><g transform="translate(32.996 6.333)"><path d="M0 0l-20.3 20.3 5.864 5.863-1.414 1.414-5.863-5.864-4.45 4.45-1.415-1.414 4.45-4.45-7.57-7.572 1.413-1.415 7.572 7.572 20.3-20.3L0 0z" fill="#8a4b38"/></g></g></g><g><g clip-path="url(#ayc)"><g transform="translate(27.339 2.09)"><path d="M0 0c-1.562-1.562-4.095-1.562-5.657 0l-9.9 9.9c-1.56 1.562-1.56 4.094 0 5.657l8.486 8.485c1.56 1.562 4.093 1.562 5.656 0l9.9-9.9c1.56-1.562 1.56-4.094 0-5.657L0 0z" fill="#dd2e44"/></g></g></g><g><g clip-path="url(#ayd)"><g transform="translate(27 27)"><path d="M0 0l-9-23-6 3L-2 1l2-1z" fill="#be1931"/></g></g></g><g><g clip-path="url(#aye)"><g transform="translate(23.804 28.253)"><path d="M0 0l2.12-2.12c-.706-2.123-8.484-15.558-9.9-18.386 0 0-.706-2.12-2.473-.353l-5.304 5.304c-.68.68-.685 2.143 0 2.828L-2.83 0C-1.414 1.415 0 0 0 0" fill="#ccd6dd"/></g></g></g></g></svg><svg viewBox="0 0 47.5 47.5" enable-background="new 0 0 47.5 47.5" width="47.5" height="47.5" id="emoji-fooddrink-1f36c" x="237.5"><defs><clipPath id="aza"><path d="M0 38h38V0H0v38z"/></clipPath><clipPath id="azb"><path d="M23.795 8.428l.4-3.055c.53-4.074 5.627-4.3 6.247-2.126l.933 4.042 4.04.93c2.174.622 1.95 5.72-2.124 6.25l-3.054.4c-.324.04-.64.062-.95.062-3.563 0-5.98-2.755-5.49-6.504"/></clipPath><clipPath id="azc"><path d="M8.05 35.588l-.934-4.04-4.04-.935c-2.175-.62-1.95-5.716 2.125-6.248l3.056-.4c4.074-.53 6.973 2.368 6.44 6.442l-.398 3.055c-.316 2.43-2.256 3.49-3.902 3.49-1.115 0-2.095-.486-2.345-1.364"/></clipPath><clipPath id="azd"><path d="M0 38h38V0H0v38z"/></clipPath><clipPath id="aze"><path d="M12.246 27.21c-4.16-4.16-4.158-10.905 0-15.064 4.16-4.16 10.905-4.16 15.064 0 4.16 4.16 4.16 10.903 0 15.064-2.08 2.08-4.806 3.12-7.532 3.12s-5.452-1.04-7.532-3.12"/></clipPath></defs><g transform="matrix(1.25 0 0 -1.25 0 47.5)"><g><g clip-path="url(#aza)"><g transform="translate(14.298 33.462)"><path d="M0 0c-.53 4.075-5.627 4.3-6.248 2.125l-.934-4.04-4.04-.934c-2.175-.62-1.95-5.716 2.125-6.247l3.054-.4C-1.97-10.026.93-7.128.397-3.054L0 0z" fill="#dd2e44"/></g><g transform="translate(33.291 14.471)"><path d="M0 0c4.074-.53 4.3-5.63 2.125-6.25l-4.04-.932-.935-4.042c-.62-2.173-5.716-1.948-6.248 2.126l-.398 3.055C-10.026-1.97-7.13.93-3.056.397L0 0z" fill="#dd2e44"/></g></g></g><g><g clip-path="url(#azb)"><g transform="translate(22.554 16.902)"><path d="M0 0c-2.846-2.846-3.734-6.572-1.98-8.324 1.75-1.75 5.476-.864 8.322 1.982C9.188-3.496 10.075.23 8.324 1.982 6.572 3.734 2.846 2.846 0 0" fill="#be1931"/></g></g></g><g><g clip-path="url(#azc)"><g transform="translate(10.662 28.794)"><path d="M0 0c-2.846-2.846-3.733-6.573-1.982-8.324 1.752-1.752 5.478-.864 8.324 1.982C9.19-3.496 10.076.23 8.324 1.982 6.574 3.732 2.846 2.846 0 0" fill="#be1931"/></g></g></g><g><g clip-path="url(#azd)"><g transform="translate(27.31 12.146)"><path d="M0 0c-4.16-4.16-10.903-4.16-15.063 0s-4.16 10.903 0 15.063 10.904 4.16 15.063 0C4.16 10.903 4.16 4.16 0 0" fill="#dd2e44"/></g></g></g><g><g clip-path="url(#aze)"><g transform="translate(19.709 19.959)"><path d="M0 0c-4.184-2.535-11.27-3.17-12.486 1.68-1.162-2.767-1.21-5.46.246-7.157C-10.783-7.174-4.02-6.987 0 0" fill="#f5f8fa"/></g><g transform="translate(19.75 20)"><path d="M0 0c.643-4.85-2.532-12.044-7.46-11.212 2.065-2.175 4.513-3.3 6.65-2.646C1.33-13.205 4.788-6.486 0 0" fill="#f5f8fa"/></g><g transform="translate(19.75 20)"><path d="M0 0c4.65-.867 8.234-5.483 6.392-10.132 2.557 1.568 5.114 2.564 4.92 4.79C11.123-3.113 7.345 3.33 0 0" fill="#f5f8fa"/></g><g transform="translate(19.75 20)"><path d="M0 0c1.54 3.333 8.285 6.246 12.168 3.096-.73 2.91-.734 5.42-2.918 5.904C7.067 9.484-.976 8.003 0 0" fill="#f5f8fa"/></g><g transform="translate(19.791 19.959)"><path d="M0 0c-3.875 2.042-5.792 8.042-1.792 11.042-3 0-6 0-7-2S-8 1 0 0" fill="#f5f8fa"/></g><g transform="translate(27.31 12.146)"><path d="M0 0c-4.16-4.16-10.903-4.16-15.063 0s-4.16 10.903 0 15.063 10.904 4.16 15.063 0C4.16 10.903 4.16 4.16 0 0z" fill="none" stroke="#dd2e44" stroke-width="3" stroke-miterlimit="10"/></g></g></g></g></svg><svg viewBox="0 0 47.5 47.5" enable-background="new 0 0 47.5 47.5" width="47.5" height="47.5" id="emoji-fooddrink-1f36d" x="237.5" y="47.5"><defs><clipPath id="baa"><path d="M0 38h38V0H0v38z"/></clipPath></defs><g transform="matrix(1.25 0 0 -1.25 0 47.5)"><g><g clip-path="url(#baa)"><g transform="translate(36.066 1.934)"><path d="M0 0c-.766-.766-2.006-.766-2.77 0L-22.87 20.096c-.766.766-.766 2.008 0 2.773.765.764 2.007.764 2.772 0L0 2.77C.766 2.01.766.767 0 0" fill="#ffac33"/></g><g transform="translate(28.8 22.92)"><path d="M0 0c0-7.576-6.142-13.72-13.72-13.72-7.577 0-13.72 6.144-13.72 13.72 0 7.578 6.143 13.72 13.72 13.72C-6.142 13.72 0 7.578 0 0" fill="#dd2e44"/></g><g transform="translate(17.086 22.172)"><path d="M0 0c.16.086.288.21.376.356C.306-.21-.03-.734-.57-1.022c-.297-.158-.637-.19-.957-.093-.32.098-.585.314-.743.61-.21.394-.06.885.333 1.095.067.036.14.053.212.053.16 0 .318-.087.4-.24C-1.072-.073-.48-.256 0 0m1.325-12.548c-1.46-.092-2.938.065-4.38.503-3.154.96-5.747 3.092-7.3 6.003-1.216 2.282-1.472 4.9-.718 7.375.752 2.474 2.424 4.508 4.706 5.724 1.78.95 3.822 1.15 5.752.56 1.93-.585 3.514-1.89 4.463-3.67.734-1.376.888-2.957.433-4.45-.453-1.494-1.46-2.72-2.84-3.456-1.055-.56-2.266-.68-3.41-.332-1.145.348-2.086 1.123-2.65 2.178C-5.497-.466-4.87 1.59-3.223 2.47c.593.316 1.272.383 1.915.186.232-.07.448-.17.645-.3-.672.328-1.486.34-2.194-.037C-4.205 1.6-4.716-.08-4-1.428c.405-.758 1.08-1.313 1.902-1.564.822-.25 1.692-.166 2.45.24 1.836.98 2.534 3.27 1.555 5.106C1.345 3.41.405 4.184-.738 4.53c-1.143.35-2.353.23-3.408-.33-2.602-1.39-3.59-4.634-2.202-7.237.81-1.517 2.16-2.63 3.806-3.13s3.388-.33 4.906.48c1.84.98 3.187 2.62 3.794 4.613.606 1.994.4 4.105-.58 5.945C4.383 7.113 2.385 8.755-.044 9.495c-2.432.74-5.004.49-7.245-.707-2.743-1.464-4.753-3.908-5.66-6.883-.904-2.976-.597-6.125.867-8.87.917-1.72 2.15-3.2 3.623-4.39 1.923-1.03 4.12-1.616 6.454-1.616 1.152 0 2.263.157 3.33.424" fill="#f4900c"/></g><g transform="translate(15.656 22.498)"><path d="M0 0c-.054-.143-.16-.255-.297-.318-.554-.25-.8-.9-.55-1.453.12-.266.328-.46.576-.563-.203.016-.403.06-.598.134-.54.205-.97.607-1.206 1.134-.166.366-.18.777-.036 1.154.142.376.423.676.79.84.13.06.268.09.406.09.118 0 .236-.022.35-.065.246-.094.44-.276.55-.517C.05.296.053.142 0 0m9.86 6.003C8.29 9.476 3.74 13.316-1.914 13.938c-.212.023-.422.033-.633.047-3.6-.52-6.743-2.43-8.87-5.176 3.38 2.807 6.775 3.213 9.263 2.942 4.837-.532 8.695-3.75 10.007-6.654C9.864.65 7.877-4.604 3.43-6.612c-1.67-.755-3.534-.813-5.247-.165-1.715.646-3.075 1.923-3.83 3.594C-6.84-.536-5.66 2.59-3.013 3.787c2.007.906 4.38.01 5.286-1.996.564-1.25.19-2.69-.822-3.523.263.27.47.593.607.956.26.692.237 1.444-.067 2.118-.35.776-.98 1.37-1.777 1.67-.797.3-1.663.274-2.437-.077-.903-.407-1.593-1.14-1.943-2.068-.35-.927-.32-1.934.09-2.837.478-1.06 1.342-1.872 2.43-2.284C-.556-4.668.63-4.63 1.69-4.15 4.29-2.978 5.45.094 4.276 2.695 2.872 5.806-.807 7.193-3.92 5.79-7.67 4.096-9.343-.336-7.65-4.09c.997-2.205 2.792-3.89 5.056-4.744 1.04-.394 2.124-.59 3.205-.59 1.27 0 2.535.27 3.726.808 5.55 2.51 8.03 9.066 5.523 14.62" fill="#ffcc4d"/></g></g></g></g></svg><svg viewBox="0 0 47.5 47.5" enable-background="new 0 0 47.5 47.5" width="47.5" height="47.5" id="emoji-fooddrink-1f36e" x="237.5" y="95"><defs><clipPath id="bba"><path d="M0 38h38V0H0v38z"/></clipPath></defs><g transform="matrix(1.25 0 0 -1.25 0 47.5)"><g><g clip-path="url(#bba)"><g transform="translate(37 14)"><path d="M0 0c0-5.522-8.06-10-18-10S-36-5.522-36 0s8.06 10 18 10S0 5.522 0 0" fill="#939598"/></g><g transform="translate(37 16)"><path d="M0 0c0-5.522-8.06-10-18-10S-36-5.522-36 0s8.06 10 18 10S0 5.522 0 0" fill="#f1f2f2"/></g><g transform="translate(32 17)"><path d="M0 0c0-3.988-5.82-7.223-13-7.223S-26-3.988-26 0s5.82 7.222 13 7.222S0 3.988 0 0" fill="#c1694f"/></g><g transform="translate(30 17)"><path d="M0 0c0-3.068-4.926-5.556-11-5.556-6.075 0-11 2.488-11 5.556s4.925 5.556 11 5.556C-4.926 5.556 0 3.068 0 0" fill="#8a4b38"/></g><g transform="translate(19 30)"><path d="M0 0c3.383 0 4.724-2 5.92-2 1.692 0 2.538-2 4.23-9 .697-2.885-4.23-6-10.15-6s-10.846 3.115-10.15 6c1.692 7 2.538 9 4.23 9C-4.725-2-3.383 0 0 0" fill="#ffcc4d"/></g><g transform="translate(26.612 26)"><path d="M0 0c0-2.21-3.408-4-7.612-4-4.204 0-7.612 1.79-7.612 4s3.408 4 7.612 4C-3.408 4 0 2.21 0 0" fill="#662113"/></g></g></g></g></svg><svg viewBox="0 0 47.5 47.5" enable-background="new 0 0 47.5 47.5" width="47.5" height="47.5" id="emoji-fooddrink-1f36f" x="237.5" y="142.5"><defs><clipPath id="bca"><path d="M0 38h38V0H0v38z"/></clipPath></defs><g transform="matrix(1.25 0 0 -1.25 0 47.5)"><g><g clip-path="url(#bca)"><g transform="translate(32 15)"><path d="M0 0c-3-11-5.02-14-13-14-8 0-10 3-13 14-2.035 7.46 2 14 13 14S2.034 7.46 0 0" fill="#f4900c"/></g><g transform="translate(30 26)"><path d="M0 0c2-4-3-8-11-8s-13 4-11 8c1.482 2.964 4.373 6 11 6s9.52-3.036 11-6" fill="#be1931"/></g><g transform="translate(31 26)"><path d="M0 0c0-4-5.373-6-12-6s-12 2-12 6c0 3.313 5.373 6 12 6S0 3.313 0 0" fill="#ffac33"/></g><g transform="translate(28 27)"><path d="M0 0c1-1 2-2 2-3S1-6 0-5c0 0 2.948-1.154 2-4-1-3-4-2-4 0s-1.553 3.342-2 2c-1-3-3-3-4-2s-1 2-1 2-3 0-2 2 0 2 0 2 0 1 1 1 7 1 8 2 2 0 2 0" fill="#ffe8b6"/></g><g transform="translate(29 27.722)"><path d="M0 0c0-2.608-4.477-4.722-10-4.722S-20-2.608-20 0c0 2.608 4.477 4.278 10 4.278S0 2.608 0 0" fill="#662113"/></g><g transform="translate(19 23)"><path d="M0 0c4.548 0 8.38 1.435 9.593 3.396C9.4 3.598 9.2 3.8 9 4c0 0-2 2-3 1S0 4-1 4s-2-1-2-1S-1.413.99-1.603.066C-1.08.026-.547 0 0 0" fill="#f4900c"/></g><g transform="translate(27 28.5)"><path d="M0 0c0-1.933-3.582-3.5-8-3.5s-8 1.567-8 3.5 3.582 5.5 8 5.5S0 1.933 0 0" fill="#ffcc4d"/></g><g transform="translate(21 34.5)"><path d="M0 0c0-.828-.896-1.5-2-1.5S-4-.828-4 0s.896 1.5 2 1.5S0 .828 0 0" fill="#f4900c"/></g><g transform="translate(6.685 12.59)"><path d="M0 0c.725-2.457 1.425-4.436 2.204-6.013 3.11-2.577 8.11-2.577 10.11-2.577s7 0 10.107 2.576c.782 1.577 1.484 3.556 2.21 6.014-2.706-1.562-7.203-2.59-12.315-2.59C7.203-2.59 2.705-1.562 0 0" fill="#ffcc4d"/></g></g></g></g></svg><svg viewBox="0 0 47.5 47.5" enable-background="new 0 0 47.5 47.5" width="47.5" height="47.5" id="emoji-fooddrink-1f370" x="237.5" y="190"><defs><clipPath id="bda"><path d="M0 38h38V0H0v38z"/></clipPath></defs><g transform="matrix(1.25 0 0 -1.25 0 47.5)"><g><g clip-path="url(#bda)"><g transform="translate(37 12)"><path d="M0 0c0-5.522-8.06-10-18-10S-36-5.522-36 0s8.06 10 18 10S0 5.522 0 0" fill="#939598"/></g><g transform="translate(37 14)"><path d="M0 0c0-5.522-8.06-10-18-10S-36-5.522-36 0s8.06 10 18 10S0 5.522 0 0" fill="#f1f2f2"/></g><g transform="translate(33.8 14.389)"><path d="M0 0c0-4.202-6.626-7.61-14.8-7.61S-29.6-4.203-29.6 0c0 4.203 6.626 7.61 14.8 7.61S0 4.204 0 0" fill="#fff"/></g><g transform="translate(9 9)"><path d="M0 0c0 3.044.417 7.208.042 13.875.6 1.376 6.146 2.472 6.625 3.792C7.954 21.213 5.457 23.583 8 26c2.05 1.95 5 2 6-1 2 2 6 1 6-2 4 1 6-3 3-6 0-1-1-9-1-11s-.208-1.792-5.208-2.792C11.792 2.208 0 0 0 0" fill="#e1e8ed"/></g><g transform="translate(9 10)"><path d="M0 0v12s21 7 21 2.458V4L0 0z" fill="#ffac33"/></g><g transform="translate(9 11)"><path d="M0 0v10s12.375 4.208 20 4V4L0 0z" fill="#ffd983"/></g><g transform="translate(9 16)"><path d="M0 0v1l21 4V4L0 0z" fill="#ffac33"/></g><g transform="translate(9 23)"><path d="M0 0l9 9c2 0 8-1 11-5L0 0" fill="#e1e8ed"/></g><g transform="translate(31 27)"><path d="M0 0c1 1 1 5-3 4 0 1-2 4-5 2 0 1-5 2-6 0C-4 3 0 0 0 0" fill="#fff"/></g><g transform="translate(18.959 26.541)"><path d="M0 0c-1.833.208-4.417 1.083-3.917 3.5s2.474 4.88 3.75 5.542c1.125.583 2.326.157 3.21-3.25.582-2.25 2.75-5.125-1.668-5.75C.917.042 0 0 0 0" fill="#dd2e44"/></g><g transform="translate(19.375 31.959)"><path d="M0 0c-.152 0-.302.07-.4.2l-.5.667c-.166.22-.12.534.1.7.22.166.533.12.7-.1L.4.8C.564.58.52.266.3.1.21.033.104 0 0 0" fill="#f4abba"/></g><g transform="translate(16.959 28.459)"><path d="M0 0c-.042 0-.084.005-.127.016-.267.07-.427.343-.357.61l.25.958c.07.268.344.427.61.358.267-.07.427-.343.357-.61L.483.374C.425.15.223 0 0 0" fill="#f4abba"/></g><g transform="translate(21.333 28.375)"><path d="M0 0c-.09 0-.18.023-.26.073l-.75.458c-.236.145-.31.453-.167.69.146.235.453.308.688.165L.26.927C.497.783.57.475.428.24.332.084.167 0 0 0" fill="#f4abba"/></g></g></g></g></svg><svg viewBox="0 0 47.5 47.5" enable-background="new 0 0 47.5 47.5" width="47.5" height="47.5" id="emoji-fooddrink-1f371" y="237.5"><defs><clipPath id="bea"><path d="M0 38h38V0H0v38z"/></clipPath></defs><g transform="matrix(1.25 0 0 -1.25 0 47.5)"><g><g clip-path="url(#bea)"><g transform="translate(32 37)"><path d="M0 0h-26c-2.21 0-4-1.79-4-4v-28c0-2.21 1.79-4 4-4H0c2.21 0 4 1.79 4 4v28c0 2.21-1.79 4-4 4" fill="#292f33"/></g><g transform="translate(15 26)"><path d="M0 0c0-2.21-1.79-4-4-4h-1c-2.21 0-4 1.79-4 4v2c0 2.21 1.79 4 4 4h1c2.21 0 4-1.79 4-4V0z" fill="#292f33"/></g><g transform="translate(23 10)"><path d="M0 0c0-1.104-.896-2-2-2h-15c-1.104 0-2 .896-2 2v8c0 1.104.896 2 2 2h15c1.104 0 2-.896 2-2V0z" fill="#be1931"/></g><g transform="translate(34 18)"><path d="M0 0c0 1.104-.896 2-2 2h-5c-1.104 0-2-.896-2-2v-8c0-1.104.896-2 2-2h5c1.104 0 2 .896 2 2v8z" fill="#be1931"/></g><g transform="translate(17 33)"><path d="M0 0c0 1.104.896 2 2 2h13c1.104 0 2-.896 2-2v-9c0-1.104-.896-2-2-2H2c-1.104 0-2 .896-2 2v9z" fill="#be1931"/></g><g transform="translate(15 24)"><path d="M0 0c0-1.104-.896-2-2-2h-7c-1.104 0-2 .896-2 2v9c0 1.104.896 2 2 2h7c1.104 0 2-.896 2-2V0z" fill="#be1931"/></g><g transform="translate(15 24)"><path d="M0 0c0-1.104-.896-2-2-2h-7c-1.104 0-2 .896-2 2v6c0 1.104.896 2 2 2h7c1.104 0 2-.896 2-2V0z" fill="#dd2e44"/></g><g transform="translate(34 24)"><path d="M0 0c0-1.104-.896-2-2-2h-13c-1.104 0-2 .896-2 2v6c0 1.104.896 2 2 2h13c1.104 0 2-.896 2-2V0z" fill="#dd2e44"/></g><g transform="translate(23 10)"><path d="M0 0c0-1.104-.896-2-2-2h-15c-1.104 0-2 .896-2 2v5c0 1.104.896 2 2 2h15c1.104 0 2-.896 2-2V0z" fill="#e1e8ed"/></g><g transform="translate(34 10)"><path d="M0 0c0-1.104-.896-2-2-2h-5c-1.104 0-2 .896-2 2v5c0 1.104.896 2 2 2h5c1.104 0 2-.896 2-2V0z" fill="#dd2e44"/></g><g transform="translate(28.015 27.76)"><path d="M0 0c1.315-1.478 1.908-3.098 1.322-3.62L.264-4.56c-.585-.522-2.126.255-3.44 1.733L-6.75 1.186c-1.314 1.48-1.907 3.1-1.32 3.62l1.058.94c.586.522 2.124-.254 3.44-1.732L0 0z" fill="#ffac33"/></g><g transform="translate(23.28 25.924)"><path d="M0 0c-.598-1.54-1.477-2.633-1.96-2.444l-.878.34c-.485.19-.392 1.59.205 3.127L-1.008 5.2C-.408 6.74.47 7.834.954 7.646l.876-.34c.485-.19.394-1.59-.205-3.128L0 0z" fill="#ffd983"/></g><g transform="translate(24.113 25.464)"><path d="M0 0c-1.562-.535-2.965-.568-3.133-.076l-.305.89c-.168.493.962 1.325 2.523 1.86l4.242 1.45c1.562.532 2.964.566 3.133.073l.304-.89c.17-.492-.96-1.324-2.523-1.857L0 0z" fill="#ffd983"/></g><g transform="translate(7.442 29.127)"><path d="M0 0c.373 4.106 4.907.96 7.135-1.05C5.795-2.533-.452-4.98 0 0" fill="#5c913b"/></g><g transform="translate(7.585 29.216)"><path d="M0 0c3.74 1.737 3.293-3.763 2.672-6.698C.716-6.284-4.534-2.108 0 0" fill="#5c913b"/></g><g transform="translate(6 29)"><path d="M0 0c-1.2 1.6 1 5 6 5 1-1-3-9-6-5" fill="#77b255"/></g><g transform="translate(7 10)"><path d="M0 0c-.256 0-.512.098-.707.293-.39.39-.39 1.023 0 1.414l1 1c.39.39 1.023.39 1.414 0 .39-.39.39-1.023 0-1.414l-1-1C.512.098.257 0 0 0" fill="#b2c2cc"/></g><g transform="translate(19.417 9.501)"><path d="M0 0c-.256 0-.512.098-.707.293l-1 1c-.39.39-.39 1.023 0 1.414.39.39 1.023.39 1.414 0l1-1c.39-.39.39-1.023 0-1.414C.512.098.257 0 0 0" fill="#b2c2cc"/></g><g transform="translate(13.251 13.792)"><path d="M0 0c-.255 0-.51.098-.707.292l-.46.458c-.39.39-.39 1.023 0 1.414.39.392 1.023.392 1.415.002l.46-.458c.39-.39.39-1.023 0-1.414C.513.098.256 0 0 0" fill="#b2c2cc"/></g><g transform="translate(33.149 13.588)"><path d="M0 0c.707-.848.592-2.11-.257-2.816l-2.305-1.92c-.847-.708-2.11-.593-2.816.256l-1.92 2.304c-.708.848-.593 2.11.256 2.817l2.305 1.922c.847.707 2.11.59 2.816-.257L0 0z" fill="#b26304"/></g><g transform="translate(33.149 15.588)"><path d="M0 0c.707-.848.592-2.11-.257-2.816l-2.305-1.92c-.847-.708-2.11-.593-2.816.256l-1.92 2.304c-.708.848-.593 2.11.256 2.817l2.305 1.922c.847.707 2.11.59 2.816-.257L0 0z" fill="#f4900c"/></g><g transform="translate(14 11)"><path d="M0 0c0-.553-.448-1-1-1s-1 .447-1 1c0 .553.448 1 1 1s1-.447 1-1" fill="#ccd6dd"/></g><g transform="translate(22 15)"><path d="M0 0c0-.553-.447-1-1-1-.553 0-1 .447-1 1 0 .553.447 1 1 1 .553 0 1-.447 1-1" fill="#ccd6dd"/></g></g></g></g></svg><svg viewBox="0 0 47.5 47.5" enable-background="new 0 0 47.5 47.5" width="47.5" height="47.5" id="emoji-fooddrink-1f372" x="47.5" y="237.5"><defs><clipPath id="bfa"><path d="M0 38h38V0H0v38z"/></clipPath><clipPath id="bfb"><path d="M0 38h38V0H0v38z"/></clipPath><clipPath id="bfc"><path d="M12 26c-5 1-7.542-2.83-7-5 1-4 6-2 7-1 5-2 9 1 10 3 1.612 3.225-2 5-4 5-3.162 0-5-1-6-2"/></clipPath><clipPath id="bfd"><path d="M0 38h38V0H0v38z"/></clipPath><clipPath id="bfe"><path d="M6 21c-2-5 8-8 12-8s5 1 4 2c-1.414 1.414-5 2-6 3-2.737 3.284-5.316 4.265-7.176 4.265-1.54 0-2.586-.67-2.824-1.265"/></clipPath><clipPath id="bff"><path d="M0 38h38V0H0v38z"/></clipPath></defs><g transform="matrix(1.25 0 0 -1.25 0 47.5)"><g><g clip-path="url(#bfa)"><g transform="translate(14.037 2.184)"><path d="M0 0c-12.243 1.804-12.037 14.098-12.037 17.816h34c0-1.913.087-15.77-13.125-17.918C6.796-.434 2.378-.352 0 0" fill="#292f33"/></g></g></g><g><g clip-path="url(#bfb)"><g transform="translate(34.388 23.753)"><path d="M0 0c2.467 5.574-8.33 5.254-11.035 4.382-1.392.16-2.846.253-4.353.253-9.39 0-17-3.228-17-8.444 0-1.008.29-1.978.82-2.89-4.328-5.712 4.244-6.786 9.182-5.71 2.136-.537 4.5-.843 6.998-.843 9.39 0 17 4.228 17 9.444C1.612-2.38 1.022-1.104 0 0" fill="#66757f"/></g><g transform="translate(34 19)"><path d="M0 0c0-3.866-6.716-7-15-7-8.284 0-15 3.134-15 7s6.716 7 15 7C-6.716 7 0 3.866 0 0" fill="#ffcc4d"/></g><g transform="translate(5 21)"><path d="M0 0c-.542 2.17 2 6 7 5 1 1 2.838 2 6 2 2 0 5.612-1.775 4-5-1-2-5-5-10-3-1-1-6-3-7 1" fill="#77b255"/></g></g></g><g><g clip-path="url(#bfc)"><g transform="translate(20 28)"><path d="M0 0c1-1 0-7-7-8s3-3 6-2 9 5 7 7-6 3-6 3" fill="#5c913b"/></g></g></g><g><g clip-path="url(#bfd)"><g transform="translate(6 21)"><path d="M0 0c.525 1.313 5 3 10-3 1-1 4.586-1.586 6-3 1-1 0-2-4-2S-2-5 0 0" fill="#d99e82"/></g></g></g><g><g clip-path="url(#bfe)"><g transform="translate(7 17)"><path d="M0 0c2-1 11-3 14-1s3-1 3-2-3-5-8-3-9 3-9 4v2z" fill="#b27962"/></g></g></g><g><g clip-path="url(#bff)"><g transform="translate(28 17.999)"><path d="M0 0c-.21 0-.423.034-.633.104l-3 1c-1.048.35-1.614 1.48-1.264 2.53.348 1.047 1.478 1.614 2.53 1.264l3-1c1.048-.35 1.614-1.48 1.264-2.53C1.617.53.837 0 0 0" fill="#ffe8b6"/></g><g transform="translate(27 15)"><path d="M0 0h-2c-.553 0-1 .447-1 1 0 .553.447 1 1 1h2c.553 0 1-.447 1-1C1 .447.553 0 0 0" fill="#ffe8b6"/></g></g></g></g></svg><svg viewBox="0 0 47.5 47.5" enable-background="new 0 0 47.5 47.5" width="47.5" height="47.5" id="emoji-fooddrink-1f373" x="95" y="237.5"><defs><clipPath id="bga"><path d="M0 38h38V0H0v38z"/></clipPath></defs><g transform="matrix(1.25 0 0 -1.25 0 47.5)"><g><g clip-path="url(#bga)"><g transform="translate(35.238 9.069)"><path d="M0 0c-.704.703-3.856 2.66-6.935 4.364 1.696 2.43 2.697 5.38 2.697 8.567 0 8.285-6.716 15-15 15-8.285 0-15-6.715-15-15 0-8.284 6.715-15 15-15 3.158 0 6.086.982 8.504 2.65 1.705-3.08 3.666-6.24 4.37-6.944C-4.95-7.778-3.238-8.07-2.238-8.07c1.176.003 4.054 2.882 4 4C1.712-3.07 1.414-1.413 0 0" fill="#292f33"/></g><g transform="translate(28 22)"><path d="M0 0c0-6.627-5.373-12-12-12S-24-6.627-24 0s5.373 12 12 12S0 6.627 0 0" fill="#66757f"/></g><g transform="translate(17 12)"><path d="M0 0c4.863 1.533 4 5 4 9s4 6.708.334 9.75c-2.177 1.806-6.75 2.417-8.876 1.625C-6.494 19.648-9 18.167-9 15.167s-.058-2.928-1.708-5.625C-13.333 5.25-6.875-2.168 0 0" fill="#f5f8fa"/></g><g transform="translate(18 19)"><path d="M0 0c0-2.21-1.79-4-4-4s-4 1.79-4 4 1.79 4 4 4 4-1.79 4-4" fill="#ffac33"/></g></g></g></g></svg><svg viewBox="0 0 47.5 47.5" enable-background="new 0 0 47.5 47.5" width="47.5" height="47.5" id="emoji-fooddrink-1f374" x="142.5" y="237.5"><defs><clipPath id="bha"><path d="M0 38h38V0H0v38z"/></clipPath></defs><g transform="matrix(1.25 0 0 -1.25 0 47.5)"><g><g clip-path="url(#bha)"><g transform="translate(20 35.5)"><path d="M0 0c0 .83-.672 1.5-1.5 1.5C-2.33 1.5-3 .83-3 0v-9.5c0-.552-.448-1-1-1s-1 .448-1 1V0c0 .83-.67 1.5-1.5 1.5S-8 .83-8 0v-9.5c0-.552-.448-1-1-1s-1 .448-1 1V0c0 .83-.67 1.5-1.5 1.5S-13 .83-13 0v-9c0-.127.02-.25.05-.367-.03-.207-.05-.417-.05-.633 0-2.316 1.75-5.957 4-6.442V-32c0-1.38 1.12-2.5 2.5-2.5S-4-33.38-4-32v15.558c2.25.485 4 4.126 4 6.442 0 .216-.02.426-.05.633.03.118.05.24.05.367v9z" fill="#99aab5"/></g><g transform="translate(28.5 37)"><path d="M0 0c-.104 0-.204-.02-.306-.03C-.37-.02-.433 0-.5 0c-2.21 0-5-5.477-5-11 0-4.658 1.275-8.56 3-9.672V-33.5c0-1.38 1.12-2.5 2.5-2.5s2.5 1.12 2.5 2.5v31C2.5-1.12 1.38 0 0 0" fill="#99aab5"/></g></g></g></g></svg><svg viewBox="0 0 47.5 47.5" enable-background="new 0 0 47.5 47.5" width="47.5" height="47.5" id="emoji-fooddrink-1f375" x="190" y="237.5"><defs><clipPath id="bia"><path d="M0 38h38V0H0v38z"/></clipPath><clipPath id="bib"><path d="M0 38h38V0H0v38z"/></clipPath></defs><g transform="matrix(1.25 0 0 -1.25 0 47.5)"><g><g clip-path="url(#bia)"><g transform="translate(37 11)"><path d="M0 0c0-5.522-8.06-10-18-10S-36-5.522-36 0s8.06 10 18 10S0 5.522 0 0" fill="#292f33"/></g><g transform="translate(37 13)"><path d="M0 0c0-5.522-8.06-10-18-10S-36-5.522-36 0s8.06 10 18 10S0 5.522 0 0" fill="#66757f"/></g><g transform="translate(19 6)"><path d="M0 0c-14.958 0-17 15-17 19h34c0-2-1.958-19-17-19" fill="#e1e8ed"/></g><g transform="translate(36 24.944)"><path d="M0 0c0-5.216-7.61-9.444-17-9.444S-34-5.216-34 0c0 5.216 7.61 8.444 17 8.444S0 5.216 0 0" fill="#77b255"/></g></g></g><g><g clip-path="url(#bib)"><g transform="translate(34 24)"><path d="M0 0c0-3.866-6.716-7-15-7-8.284 0-15 3.134-15 7s6.716 7 15 7C-6.716 7 0 3.866 0 0" fill="#a6d388"/></g></g></g></g></svg><svg viewBox="0 0 47.5 47.5" enable-background="new 0 0 47.5 47.5" width="47.5" height="47.5" id="emoji-fooddrink-1f376" x="237.5" y="237.5"><defs><clipPath id="bja"><path d="M0 38h38V0H0v38z"/></clipPath></defs><g transform="matrix(1.25 0 0 -1.25 0 47.5)"><g><g clip-path="url(#bja)"><g transform="translate(34 16)"><path d="M0 0c-.56 2.797-2.108 6.956-3.707 10.015 1.8 1.248 3.36 3.716 3.36 8.483C-1 19-1.63 19-3 19c-1.37 0-3.77 1-3.77 1h-1.372s-2.17-1-2.858-1c-.686 0-3.043.043-3.513-.427 0-4.71 1.613-7.207 3.337-8.49C-12.75 7.006-14.3 2.793-15 0c-1-4-.034-9.327 0-9.5.312-1.584 2.254-3.5 7.5-3.5S-.48-11 0-9.5C.056-9.325 1-5 0 0" fill="#55acee"/></g><g transform="translate(33.626 34.704)"><path d="M0 0c0-.988-2.162-1.79-7.083-1.79-4.92 0-7.083.802-7.083 1.79 0 .99 2.162 1.79 7.083 1.79C-2.163 1.79 0 .99 0 0" fill="#3b88c3"/></g><g transform="translate(26.431 32.356)"><path d="M0 0c-3.154 0-5.515.7-6.154 1-.5.236-.716.83-.48 1.33.234.5.826.717 1.33.482.73-.344 5.592-1.708 11.044.094.522.172 1.09-.112 1.263-.636.174-.525-.11-1.09-.636-1.264C4.093.256 1.9 0 0 0" fill="#88c9f9"/></g><g transform="translate(20.652 12.611)"><path d="M0 0c0 1.104-.868 1.39-2.542 1.39H-14.817c-.84 0-2.48.48-2.48-1.298 0-10.2 6.196-11.906 8.367-11.906C-5.922-11.814 0-10.264 0 0" fill="#ccd6dd"/></g><g transform="translate(20.621 13.309)"><path d="M0 0c0-1.206-2.64-2.184-8.65-2.184s-8.648.978-8.648 2.184c0 1.207 2.64 2.184 8.65 2.184S0 1.207 0 0" fill="#8899a6"/></g><g transform="translate(11.828 10.662)"><path d="M0 0c-3.8 0-6.643.84-7.413 1.202-.5.235-.715.83-.482 1.33.235.5.83.717 1.33.48C-5.657 2.59.364.9 7.086 3.12c.527.175 1.09-.11 1.263-.636.174-.524-.11-1.09-.635-1.262C4.956.31 2.303 0 0 0" fill="#fff"/></g><g transform="translate(29.667 20.605)"><path d="M0 0c0-.955-.793-1.73-1.77-1.73-.98 0-1.772.775-1.772 1.73s.793 1.73 1.77 1.73C-.79 1.73 0 .954 0 0" fill="#88c9f9"/></g><g transform="translate(31.667 18.605)"><path d="M0 0c0-.955-.793-1.73-1.77-1.73-.98 0-1.772.775-1.772 1.73s.793 1.73 1.77 1.73C-.79 1.73 0 .954 0 0" fill="#88c9f9"/></g><g transform="translate(29.667 17.605)"><path d="M0 0c0-.955-.793-1.73-1.77-1.73-.98 0-1.772.775-1.772 1.73s.793 1.73 1.77 1.73C-.79 1.73 0 .954 0 0" fill="#88c9f9"/></g><g transform="translate(23.074 11.047)"><path d="M0 0c.658-.262.974-1.02.706-1.694C.436-2.368-.314-2.7-.972-2.44c-.657.262-.973 1.02-.705 1.695C-1.41-.07-.657.263 0 0" fill="#88c9f9"/></g><g transform="translate(25.001 11.876)"><path d="M0 0c.658-.262.974-1.02.706-1.694-.27-.674-1.02-1.008-1.678-.746-.657.262-.974 1.02-.705 1.695C-1.407-.07-.657.262 0 0" fill="#88c9f9"/></g><g transform="translate(25.142 10.224)"><path d="M0 0c.657-.262.973-1.02.705-1.694C.437-2.368-.315-2.7-.973-2.44c-.657.262-.973 1.02-.705 1.695C-1.408-.07-.658.263 0 0" fill="#88c9f9"/></g><g transform="translate(29.75 18.875)"><path d="M0 0c0-.62-.504-1.125-1.125-1.125-.62 0-1.125.504-1.125 1.125 0 .62.504 1.125 1.125 1.125C-.505 1.125 0 .62 0 0" fill="#bbddf5"/></g><g transform="translate(24.792 9.916)"><path d="M0 0c0-.437-.354-.79-.792-.79-.437 0-.79.353-.79.79 0 .437.353.792.79.792C-.354.792 0 .437 0 0" fill="#bbddf5"/></g></g></g></g></svg><svg viewBox="0 0 47.5 47.5" enable-background="new 0 0 47.5 47.5" width="47.5" height="47.5" id="emoji-fooddrink-1f377" x="285"><defs><clipPath id="bka"><path d="M0 38h38V0H0v38z"/></clipPath></defs><g transform="matrix(1.25 0 0 -1.25 0 47.5)"><g><g clip-path="url(#bka)"><g transform="translate(20 16.745)"><path d="M0 0s10.042 2.213 10.042 16.005c0 1.48-1.167 2.25-3.416 2.25H-9.87c-1.126 0-3.33.262-3.33-2.125C-13.2 2.422-3 0-3 0v-10.123s-4.584-2.34-5.498-2.883c-.984-.562-.33-1.462.063-1.617.657-.258 2.254-1.102 6.78-1.102 4.64 0 6.203.914 6.765 1.102.217.072 1.347.932.01 1.723C2.744-11.492 0-10.123 0-10.123V0z" fill="#8899a6"/></g><g transform="translate(30 33.558)"><path d="M0 0c0-1.62-3.547-2.935-11.623-2.935C-19.7-2.935-23.246-1.62-23.246 0c0 1.622 3.547 2.935 11.623 2.935C-3.547 2.935 0 1.622 0 0" fill="#ccd6dd"/></g><g transform="translate(8.459 33.416)"><path d="M0 0c2.042-9.5 5.458-12.792 8.7-13.835 1.11-.358 2.025-.428 2.8-.123 3.5 1.375 7.542 5.666 8.167 13.583C19.827 1.662 0 0 0 0" fill="#ccd6dd"/></g><g transform="translate(10 27.5)"><path d="M0 0c0-3.5 3.333-8.5 8.333-8.5S17-3.042 17-.042C11-.042 0 0 0 0" fill="#a0041e"/></g><g transform="translate(27 27.5)"><path d="M0 0c0-.83-3.806-1.5-8.5-1.5S-17-.83-17 0s3.806 1.5 8.5 1.5S0 .83 0 0" fill="#dd2e44"/></g><g transform="translate(18.168 30.341)"><path d="M0 0c-5.03 0-8.783 1.11-9.8 1.587-.5.235-.716.83-.482 1.33.234.5.83.716 1.33.48 1.24-.58 9.454-2.893 18.596.128.523.174 1.088-.11 1.262-.635.174-.525-.11-1.09-.635-1.264C6.595.41 3.06 0 0 0" fill="#fff"/></g></g></g></g></svg><svg viewBox="0 0 47.5 47.5" enable-background="new 0 0 47.5 47.5" width="47.5" height="47.5" id="emoji-fooddrink-1f37c" x="285" y="47.5"><defs><clipPath id="bla"><path d="M0 38h38V0H0v38z"/></clipPath></defs><g transform="matrix(1.25 0 0 -1.25 0 47.5)"><g><g clip-path="url(#bla)"><g transform="translate(34 29.778)"><path d="M0 0c0 1.414.717.707 1.424 1.414 1.416 1.414 2.128 3.536.714 4.95-1.415 1.414-3.534.697-4.95-.718-.706-.707.004-1.424-1.41-1.424H-9.88l.708-.698S-5.636-1.42-4.93-.712c-.706-.708 4.233-4.24 4.233-4.24L0-5.657V0z" fill="#ffac33"/></g><g transform="translate(31.899 22)"><path d="M0 0l-4.95 4.95L-9.9 9.9c-.706-.708-4.242 0-5.656-1.415l-.707-.707-2.122-2.12-10.9-10.9c-1.56-1.563-1.56-4.096 0-5.657l8.486-8.485c1.563-1.56 4.096-1.56 5.658 0l9.9 9.9 3.12 3.12.708.708C0-4.242-.707-.707 0 0" fill="#ccd6dd"/></g><g transform="translate(33.667 22.354)"><path d="M0 0c-.977-.977-1.852-1.684-2.828-.707l-9.193 9.192c-.977.977-.27 1.852.707 2.83.976.975 2.558.975 3.535 0L0 3.534C.977 2.56.977.978 0 0" fill="#55acee"/></g><g transform="translate(14 5)"><path d="M0 0c-.256 0-.512.098-.707.293-.39.39-.39 1.023 0 1.414l12 12c.39.39 1.023.39 1.414 0 .39-.39.39-1.023 0-1.414l-12-12C.512.098.257 0 0 0" fill="#99aab5"/></g><g transform="translate(10 9)"><path d="M0 0c-.256 0-.512.098-.707.293-.39.39-.39 1.023 0 1.414l12 12c.39.39 1.023.39 1.414 0 .39-.39.39-1.023 0-1.414l-12-12C.512.098.257 0 0 0" fill="#99aab5"/></g><g transform="translate(6 13)"><path d="M0 0c-.256 0-.512.098-.707.293-.39.39-.39 1.023 0 1.414l12 12c.39.39 1.023.39 1.414 0 .39-.39.39-1.023 0-1.414l-12-12C.512.098.257 0 0 0" fill="#99aab5"/></g></g></g></g></svg><svg viewBox="0 0 47.5 47.5" enable-background="new 0 0 47.5 47.5" width="47.5" height="47.5" id="emoji-fooddrink-2615" x="285" y="95"><defs><clipPath id="bma"><path d="M0 38h38V0H0v38z"/></clipPath><clipPath id="bmb"><path d="M0 38h38V0H0v38z"/></clipPath></defs><g transform="matrix(1.25 0 0 -1.25 0 47.5)"><g><g clip-path="url(#bma)"><g transform="translate(37 11)"><path d="M0 0c0-5.522-8.06-10-18-10S-36-5.522-36 0s8.06 10 18 10S0 5.522 0 0" fill="#99aab5"/></g><g transform="translate(37 13)"><path d="M0 0c0-5.522-8.06-10-18-10S-36-5.522-36 0s8.06 10 18 10S0 5.522 0 0" fill="#ccd6dd"/></g><g transform="translate(19 6)"><path d="M0 0c-14.958 0-17 15-17 19h34c0-2-1.958-19-17-19" fill="#f5f8fa"/></g><g transform="translate(32.882 30.048)"><path d="M0 0c-1.357.938-3.103 1.694-5.12 2.25C-3.247 2.826-.57 2.56 0 0m2.503-2.692C4.945 7.43-7.277 5.014-9.7 3.106c-1.34.15-2.737.234-4.182.234-9.39 0-17-3.228-17-8.444 0-5.216 7.61-9.444 17-9.444s17 4.228 17 9.444c0 .862-.225 1.664-.615 2.412" fill="#ccd6dd"/></g></g></g><g><g clip-path="url(#bmb)"><g transform="translate(34 24)"><path d="M0 0c0-3.866-6.716-7-15-7-8.284 0-15 3.134-15 7s6.716 7 15 7C-6.716 7 0 3.866 0 0" fill="#8a4b38"/></g><g transform="translate(21 20)"><path d="M0 0c-.256 0-.512.098-.707.293-2.337 2.337-2.376 4.885-.125 8.262.74 1.11.9 2.245.478 3.377-.46 1.235-1.438 1.996-1.73 2.076-.554 0-.96.444-.96.996 0 .553.492.996 1.044.996.997 0 2.395-1.153 3.183-2.625 1.034-1.933.91-4.04-.35-5.93C-1.13 4.503-.7 3.113.706 1.707c.39-.39.39-1.023 0-1.414C.512.098.257 0 0 0" fill="#d99e82"/></g><g transform="translate(15 22)"><path d="M0 0c-.256 0-.512.098-.707.293-2.337 2.337-2.376 4.885-.125 8.262.727 1.09.894 2.082.494 2.947-.444.96-1.43 1.47-1.684 1.5-.552 0-.99.446-.99.998 0 .553.46 1 1.012 1 .997 0 2.584-.974 3.36-2.423.48-.9 1.053-2.76-.528-5.132-1.96-2.942-1.53-4.332-.125-5.738.39-.39.39-1.023 0-1.414C.512.098.257 0 0 0" fill="#d99e82"/></g></g></g></g></svg><svg viewBox="0 0 47.5 47.5" enable-background="new 0 0 47.5 47.5" width="47.5" height="47.5" id="emoji-fooddrink-cocktail" x="285" y="142.5"><defs><clipPath id="bna"><path d="M0 38h38V0H0v38z"/></clipPath><clipPath id="bnb"><path d="M0 38h38V0H0v38z"/></clipPath></defs><g transform="matrix(1.25 0 0 -1.25 0 47.5)"><g><g clip-path="url(#bna)"><g transform="translate(20 16.745)"><path d="M0 0s11.458 11.04 12.583 12.005c1.125.964-.708 2.25-2.957 2.25H-12.87c-1.126 0-4.484-.73-2.797-2.417C-14.463 10.635-3 0-3 0v-10.123s-4.584-2.34-5.498-2.883c-.984-.562-.33-1.462.063-1.617.657-.258 2.254-1.102 6.78-1.102 4.64 0 6.203.914 6.765 1.102.217.072 1.347.932.01 1.723C2.744-11.492 0-10.123 0-10.123V0z" fill="#8899a6"/></g><g transform="translate(33 29.558)"><path d="M0 0c0-1.62-6.547-2.935-14.623-2.935S-29.246-1.62-29.246 0c0 1.622 6.547 2.935 14.623 2.935S0 1.622 0 0" fill="#ccd6dd"/></g><g transform="translate(5.458 29.416)"><path d="M0 0c1.265-1.232 8.537-7.235 11.7-9.835.9-.742 2.133-.623 2.8-.123.667.5 11.167 9.583 11.167 9.583L0 0z" fill="#ccd6dd"/></g></g></g><g><g clip-path="url(#bnb)"><g transform="translate(17.868 20.468)"><path d="M0 0c-.237.125-.05.8.25 1.328l7.447 14.518c.3.53.97.715 1.498.416.53-.3.714-.97.416-1.498L.944.88C.793.614.27-.14 0 0" fill="#662113"/></g><g transform="translate(22.745 29.145)"><path d="M0 0c1.133-.64 1.996-2.636 1.2-4.046-.797-1.41-2.954-1.7-4.087-1.058-1.132.64-2.065 2.514-1.2 4.045C-3.22.474-1.132.64 0 0" fill="#5c913b"/></g><g transform="translate(17.797 26.239)"><path d="M0 0c-3.775 0-7.36.49-10.737 1.47l-.13.038c-.53.154-.835.708-.682 1.24.154.53.706.835 1.24.682l.13-.038c6.534-1.9 13.944-1.855 22.02.132.542.13 1.078-.196 1.21-.732.13-.537-.196-1.08-.733-1.21C8.03.527 3.914 0 0 0" fill="#fff"/></g></g></g></g></svg><svg viewBox="0 0 47.5 47.5" enable-background="new 0 0 47.5 47.5" width="47.5" height="47.5" id="emoji-fooddrink-cone" x="285" y="190"><defs><clipPath id="boa"><path d="M0 38h38V0H0v38z"/></clipPath><clipPath id="bob"><path d="M18.182 14h-7.364s1.353-6.5 2.35-9.752C14.17.995 17.774 1 18.592 1c1.637 0 4.426-.005 5.424 3.248C25.01 7.5 27.184 14 27.184 14H18.18z"/></clipPath><clipPath id="boc"><path d="M0 38h38V0H0v38z"/></clipPath><clipPath id="bod"><path d="M20.594 32.425l-7.874-2.94c-1.383-.518-2.36-1.77-2.36-3.23 0-1.925 1.69-3.486 3.775-3.486 4.74 0 9.575 3.068 9.575 3.068 1.81 1.07 2.58 2.88 1.8 4.663-.595 1.357-2.01 2.18-3.503 2.18-.47 0-.95-.082-1.413-.255"/></clipPath><clipPath id="boe"><path d="M21.27 28.657L11.06 24.65v-.002C9.266 23.944 8 22.238 8 20.246c0-2.623 2.192-4.75 4.895-4.75 6.145 0 12.417 4.182 12.417 4.182 2.345 1.46 3.345 3.924 2.33 6.356-.77 1.85-2.603 2.97-4.54 2.97-.61 0-1.23-.11-1.832-.347"/></clipPath><clipPath id="bof"><path d="M14.143 33.015c-.81-.328-1.38-1.12-1.38-2.045 0-1.22.988-2.206 2.207-2.206 2.77 0 5.597 1.942 5.597 1.942 1.055.678 2.142 1.874 2.142 1.874s.748 1.666-1.626 1.666c-3.562 0-6.94-1.23-6.94-1.23"/></clipPath></defs><g transform="matrix(1.25 0 0 -1.25 0 47.5)"><g><g clip-path="url(#boa)"><g transform="translate(28 17)"><path d="M0 0c0-1.657-4.03-3-9-3s-9 1.343-9 3 4.03 3 9 3 9-1.343 9-3" fill="#ffcc4d"/></g><g transform="translate(18.182 14)"><path d="M0 0h-7.363s1.352-6.5 2.35-9.752C-4.013-13.006-.408-13 .41-13c1.635 0 4.424-.006 5.422 3.248C6.828-6.5 9.002 0 9.002 0H0z" fill="#ffcc4d"/></g></g></g><g><g clip-path="url(#bob)"><g transform="translate(27.183 12.5)"><path d="M0 0c0-1.657-2.76-3.5-8.183-3.5-5.422 0-8.18 1.843-8.18 3.5s2.758 3 8.18 3C-2.76 3 0 1.657 0 0" fill="#ffac33"/></g></g></g><g><g clip-path="url(#boc)"><g transform="translate(10 17)"><path d="M0 0v-3c0-1.657 4.03-3 9-3s9 1.343 9 3v3H0z" fill="#ffcc4d"/></g><g transform="translate(27.183 16.5)"><path d="M0 0c0-1.38-3.664-2.5-8.183-2.5-4.52 0-8.18 1.12-8.18 2.5s3.66 2.5 8.18 2.5S0 1.38 0 0" fill="#f4900c"/></g><g transform="translate(29.375 19.85)"><path d="M0 0c0 2.405-1.95 4.354-4.354 4.354-2.405 0-14.188-4.803-14.188-7.208 0-2.404 8.084-2.33 13.75-1.37C-2.42-3.825 0-2.405 0 0" fill="#ffe8b6"/></g><g transform="translate(27.644 26.034)"><path d="M0 0c-1.014 2.432-3.868 3.606-6.374 2.623l-10.21-4.008c-1.793-.706-3.06-2.41-3.06-4.403 0-2.623 2.192-4.75 4.895-4.75 6.146 0 12.418 4.183 12.418 4.183C.014-4.895 1.014-2.432 0 0" fill="#ffe8b6"/></g><g transform="translate(25.509 30.501)"><path d="M0 0c-.78 1.784-2.982 2.646-4.915 1.924l-7.874-2.94h.002c-1.384-.518-2.36-1.768-2.36-3.23 0-1.925 1.69-3.485 3.774-3.485 4.74 0 9.575 3.067 9.575 3.067C.01-3.593.783-1.783 0 0" fill="#ffe8b6"/></g><g transform="translate(21.694 32.079)"><path d="M0 0s.593 1.78-1.78 1.78c-3.563 0-5.772-.844-5.772-.844-.808-.328-1.38-1.12-1.38-2.045 0-1.218.99-2.205 2.207-2.205 2.77 0 5.597 1.942 5.597 1.942C-.072-.695 0 0 0 0" fill="#ffe8b6"/></g><g transform="translate(17.982 36.861)"><path d="M0 0c1.78-2.375 4.156-1.177 4.75-2.96.563-1.688-1.188-2.373-1.188-2.373h-4.75S-2.967-1.78 0 0" fill="#ffe8b6"/></g></g></g><g><g clip-path="url(#bod)"><g transform="translate(10.167 24.621)"><path d="M0 0c3.417 0 9.708 1.125 16.5 5.833 2.103 1.458 3.667-.875 2-2.458C16.833 1.792 4.417-4.042.167-3.25-4.083-2.458 0 0 0 0" fill="#ffd983"/></g></g></g><g><g clip-path="url(#boe)"><g transform="translate(7.792 18.663)"><path d="M0 0c1.542-.708 5.458-.583 7.958.125S19.208 3.667 20.5 6.792c1.292 3.125 2.833.583 2.458-1.792S11.792-6.458 6.668-5.375C1.54-4.292-1.668-4.583-2-2.792-2.333-1 0 0 0 0" fill="#ffd983"/></g></g></g><g><g clip-path="url(#bof)"><g transform="translate(12.5 30.455)"><path d="M0 0c2.417-.25 10.333 2.292 10.5 4.375.167 2.083 1.625-1.75 1.125-2.417-.5-.666-9.958-5.708-13.375-3.5C-5.167.668 0 0 0 0" fill="#ffd983"/></g></g></g></g></svg><svg viewBox="0 0 47.5 47.5" enable-background="new 0 0 47.5 47.5" width="47.5" height="47.5" id="emoji-fooddrink-mixedDrink" x="285" y="237.5"><defs><clipPath id="bpa"><path d="M0 38h38V0H0v38z"/></clipPath><clipPath id="bpb"><path d="M19.514 17.55c-.376-.78.6-1.874 1.47-.483.87 1.39 6.74 13.697 6.74 13.697l-1.98 1.335s-5.922-13.912-6.23-14.55"/></clipPath><clipPath id="bpc"><path d="M0 38h38V0H0v38z"/></clipPath><clipPath id="bpd"><path d="M17.468 34.733c-.336-1.48 1.528-4.29 7.89-7.343 4.217-2.022 6.662-2.447 7.97-2.447h.002c1.474 0 2.038.55 2.252 1.014.215.465.145.99-.184 1.42-1.02 1.58-5.397 7.693-5.586 7.955-.187.262-.49.418-.812.418-1.46 0-4.763.016-7.234.03-1.48.006-2.662.01-2.974.01-.648 0-1.18-.424-1.324-1.057"/></clipPath><clipPath id="bpe"><path d="M0 38h38V0H0v38z"/></clipPath></defs><g transform="matrix(1.25 0 0 -1.25 0 47.5)"><g><g clip-path="url(#bpa)"><g transform="translate(20 9.745)"><path d="M0 0s8 .213 9.65 4.075c1.07 2.5-.608 9.554-.608 13.93 0 1.48-1.167 2.25-3.416 2.25H-8.87c-1.126 0-3.33.262-3.33-2.125 0-4.284-1.765-11.34-.634-13.815C-10.958.213-3 0-3 0v-3.123s-4.584-2.34-5.498-2.883c-.984-.562-.33-1.462.063-1.617.657-.258 2.254-1.102 6.78-1.102 4.64 0 6.203.914 6.765 1.102.217.072 1.347.932.01 1.723C2.744-4.492 0-3.123 0-3.123V0z" fill="#8899a6"/></g><g transform="translate(29 28.558)"><path d="M0 0c0-1.62-2.547-2.935-10.623-2.935C-18.7-2.935-21.246-1.62-21.246 0c0 1.622 2.547 2.935 10.623 2.935C-2.547 2.935 0 1.622 0 0" fill="#ccd6dd"/></g><g transform="translate(9.459 28.416)"><path d="M0 0c2.042-9.5-2.417-13.583 2.083-15.167 5.432-1.91 8.542-1.592 13.46 0 4.5 1.46 1.5 6.875 2.124 14.792C17.827 1.662 0 0 0 0" fill="#ccd6dd"/></g><g transform="translate(10.041 22.416)"><path d="M0 0c-.083-1.083-1.09-6.13-.625-7.292.5-1.25 1.75-3.25 8.917-3.25 5.25 0 8.583 1.584 9.125 3.584.47 1.74-.25 5.583-.334 7" fill="#f4900c"/></g><g transform="translate(27 22.5)"><path d="M0 0c0-.83-3.806-1.5-8.5-1.5S-17-.83-17 0s3.806 1.5 8.5 1.5S0 .83 0 0" fill="#ffcc4d"/></g><g transform="translate(25.745 32.099)"><path d="M0 0s-5.922-13.91-6.23-14.55c-.377-.78.6-1.873 1.47-.483.867 1.39 6.74 13.698 6.74 13.698L0 0z" fill="#c1694f"/></g><g transform="translate(18.311 25.325)"><path d="M0 0c-4.292 0-7.672 1.007-8.943 1.604-.5.234-.716.83-.48 1.33.233.5.828.715 1.328.48.074-.035 7.707-3.276 16.552.11.514.2 1.094-.058 1.29-.574.2-.516-.06-1.095-.575-1.292C5.95.424 2.782 0 0 0" fill="#fff"/></g><g transform="translate(29 35.75)"><path d="M0 0c-2.333 0-9.375.042-10.208.042-1 0-.325-2.987 7-6.5 7.125-3.417 9.5-2.334 8.792-1.5C4.626-6.458 0 0 0 0" fill="#77b255"/></g></g></g><g><g clip-path="url(#bpb)"><g transform="translate(21.375 22.75)"><path d="M0 0c1-.5 1.875-.625 2.792-.5.917.125.75-.667-.25-.875-1-.208-2.833-.375-4-.292C-2.625-1.583 0 0 0 0" fill="#ffac33"/></g><g transform="translate(19.459 21)"><path d="M0 0c1.167 0 3.75.167 4.458.333.71.167.417-6.207-1.916-6.166-2.334.04-4.792-.876-4.292 1.208C-1.25-2.542 0 0 0 0" fill="#cc6f00"/></g></g></g><g><g clip-path="url(#bpc)"><g transform="translate(33.33 24.944)"><path d="M0 0c-1.31 0-3.755.424-7.97 2.446-6.364 3.052-8.23 5.863-7.892 7.343.144.632.676 1.058 1.324 1.058.312 0 1.494-.006 2.975-.014 2.47-.012 5.774-.028 7.233-.028.322 0 .625-.156.812-.417.19-.264 4.566-6.376 5.585-7.958.33-.43.4-.953.185-1.42C2.038.553 1.474 0 0 0" fill="#77b255"/></g></g></g><g><g clip-path="url(#bpd)"><g transform="translate(30.584 35.041)"><path d="M0 0c.916-1.875 3.54-8.708-4.292-8.458C-.834-11.75-1.416-17 3-13.875S9.874-5.25 7.416-3.292C4.958-1.332 0 0 0 0" fill="#5c913b"/></g></g></g><g><g clip-path="url(#bpe)"><g transform="translate(30.875 35.313)"><path d="M0 0c0-.932-.756-1.687-1.687-1.687-.932 0-1.688.755-1.688 1.687s.756 1.687 1.688 1.687C-.757 1.687 0 .932 0 0" fill="#3e721d"/></g></g></g></g></svg><svg viewBox="0 0 47.5 47.5" enable-background="new 0 0 47.5 47.5" width="47.5" height="47.5" id="emoji-fooddrink-strawberry" y="285"><defs><clipPath id="bqa"><path d="M0 38h38V0H0v38z"/></clipPath></defs><g transform="matrix(1.25 0 0 -1.25 0 47.5)"><g><g clip-path="url(#bqa)"><g transform="translate(23.614 2.155)"><path d="M0 0c3.462 1.154 6.117 3.034 6.12 9.373.002 4.01 4.266 8.472 4.265 12.55 0 3.922-4.615 10.385-15.1 9.286-10.778-1.13-14.9-4.365-14.9-11.44 0-4.925 5.304-8.38 8.127-13.516C-9.614 2.844-4.063-3.342 0 0" fill="#be1931"/></g><g transform="translate(27.252 33.428)"><path d="M0 0c-1.278 1.044-3.28 1.55-5.35 1.677.273.037.542.076.82.094.973.065 3.615 1.234 1.4 1.09-.968-.064-1.9-.26-2.836-.424.237.154.48.306.74.442-.026.694-4.026.694-6.045-.994-.513.112-.982.688-3.982.688-2 0-4.685-.926-3-1 .918-.04 2 0 1.858-.364-.655-.06-3.858-.636-3.858-1.636 0-.353 2.76.174 3 0-1.722-.643-3-2-3-3 0-.423 2.21.825 3 1-1-1-1.4-1.7-1.342-2.427.037-.475 2.387.09 2.632.17.822.27 3.71 1.257 4.6 2.723.117-.285 2.963-1.34 4.11-1.466.53-.058 2.62-.274 2.14.71-.14.29-1.14 1.29-1.445 2.265C-6.11-.433 1.748-1.428 0 0" fill="#77b255"/></g><g transform="translate(10.339 19.694)"><path d="M0 0c-.136 1.46-2.54 3.252-2.33 1C-2.196-.46.21-2.25 0 0" fill="#f4abba"/></g><g transform="translate(17.797 19.141)"><path d="M0 0c-.07.622-.282 1.19-.687 1.67-.466.552-1.075.364-1.234-.315-.188-.798.08-1.75.605-2.37l.04-.05-.64 1.574c0-.016.003-.032.005-.048.07-.64.397-1.73 1.136-1.906C-.02-1.626.05-.454 0 0" fill="#f4abba"/></g><g transform="translate(23.549 23.982)"><path d="M0 0c.476.955.17 3.962-.83 1.954C-1.308 1-1.003-2.008 0 0" fill="#f4abba"/></g><g transform="translate(30.76 25.439)"><path d="M0 0c-.03.357-.073.78-.39 1.01-1.19.858-2.38-2.36-1.385-3.08.02-.012.036-.025.054-.04-.11.308-.22.614-.332.92 0-.018 0-.035.003-.052.05-.564.377-1.377 1.085-.947C-.298-1.783.063-.745 0 0" fill="#f4abba"/></g><g transform="translate(29.415 16.872)"><path d="M0 0c1.016 1.57-.545 3.45-1.78 1.542C-2.796-.026-1.234-1.908 0 0" fill="#f4abba"/></g><g transform="translate(23.667 13.977)"><path d="M0 0c.173 1.937-2.31 2.752-2.51.496C-2.683-1.44-.2-2.256 0 0" fill="#f4abba"/></g><g transform="translate(13.771 15.19)"><path d="M0 0c-.017 0-.033-.003-.05-.004C.406-.242.86-.48 1.314-.72c-.006.005-.01.012-.018.018C.99-.422-.058.38-.493-.11c-.44-.497.498-1.42.804-1.703.343-.314.93-.763 1.43-.73C3.178-2.45.958.062 0 0" fill="#f4abba"/></g><g transform="translate(26.998 9.283)"><path d="M0 0c.97 1.066.725 4.05-.798 2.376C-1.768 1.31-1.522-1.674 0 0" fill="#f4abba"/></g><g transform="translate(13.599 23.247)"><path d="M0 0c.093.005.187.012.28.02.703.045 1.004 1.453 1.042 1.95.044.572-.043 1.457-.785 1.407-.094-.005-.186-.012-.28-.018C-.447 3.31-.75 1.904-.787 1.406-.83.837-.742-.05 0 0" fill="#f4abba"/></g><g transform="translate(21.445 7.99)"><path d="M0 0c.395-.764.252-1.623-.32-1.92-.573-.295-1.358.082-1.753.845-.395.763-.252 1.623.32 1.92C-1.18 1.14-.396.762 0 0" fill="#f4abba"/></g></g></g></g></svg></svg>