<?xml version="1.0" encoding="UTF-8" standalone="no"?>
<svg width="47.5px" height="47.5px" viewBox="0 0 47.5 47.5" version="1.1" xmlns="http://www.w3.org/2000/svg" xmlns:xlink="http://www.w3.org/1999/xlink" xmlns:sketch="http://www.bohemiancoding.com/sketch/ns">
    <!-- Generator: Sketch 3.3.1 (12005) - http://www.bohemiancoding.com/sketch -->
    <title>house</title>
    <desc>Created with Sketch.</desc>
    <defs></defs>
    <g id="Markers" stroke="none" stroke-width="1" fill="none" fill-rule="evenodd" sketch:type="MSPage">
        <g id="Artboard-1" sketch:type="MSArtboardGroup" transform="translate(-177.000000, -132.000000)">
            <g id="house" sketch:type="MSLayerGroup" transform="translate(177.000000, 132.000000)">
                <path d="M0.868754782,23.4243501 C0.868754782,10.6826081 11.153094,0.355597959 23.8401018,0.355597959 C36.5271096,0.355597959 46.8135344,10.6826081 46.8135344,23.4243501 C46.8135344,36.1639978 36.5271096,46.491008 23.8401018,46.491008 C11.153094,46.491008 0.868754782,36.1639978 0.868754782,23.4243501 Z" id="Fill-16" fill="#272EEE" sketch:type="MSShapeGroup"></path>
                <path d="M46.3421776,23.8055133 L45.2993527,23.8055133 C45.2993527,29.7847496 42.8883415,35.1859581 38.9881763,39.1064941 C35.0838399,43.0228415 29.7028634,45.4438563 23.7504188,45.4438563 C17.7958886,45.4438563 12.4149121,43.0228415 8.51266133,39.1064941 C4.61041054,35.1859581 2.19939936,29.7847496 2.19939936,23.8055133 C2.19939936,17.8262771 4.61041054,12.4229743 8.51266133,8.50453256 C12.4149121,4.58609087 17.7958886,2.16717042 23.7504188,2.16717042 C29.7028634,2.16717042 35.0838399,4.58609087 38.9881763,8.50453256 C42.8883415,12.4229743 45.2993527,17.8262771 45.2993527,23.8055133 L47.3850025,23.8055133 C47.3829168,10.6972682 36.8024153,0.0728669974 23.7504188,0.0728669974 C10.6963367,0.0728669974 0.115835201,10.6972682 0.113749552,23.8055133 C0.115835201,36.9137584 10.6963367,47.5381597 23.7504188,47.5381597 C36.8024153,47.5381597 47.3829168,36.9137584 47.3850025,23.8055133 L46.3421776,23.8055133" id="Fill-17" fill="#1A1918" sketch:type="MSShapeGroup"></path>
                <path d="M15.5976137,17.8974834 L18.4674679,15.4136395 L18.4674679,13.6397645 L15.5976137,13.6397645 L15.5976137,17.8974834" id="Fill-18" fill="#FFFFFF" sketch:type="MSShapeGroup"></path>
                <path d="M11.9352127,22.6808724 L13.1845169,23.8913798 L23.8401018,14.5465979 L34.5102862,23.8913798 L35.7449909,22.5510256 L23.9110139,12.1004515 L11.9352127,22.6808724" id="Fill-19" fill="#FFFFFF" sketch:type="MSShapeGroup"></path>
                <path d="M23.8547013,16.3183786 L15.6122133,23.6714779 L15.6122133,34.7461544 L21.337322,34.7461544 L26.3929371,34.7356829 L32.2410992,34.7461544 L32.2410992,23.6714779 L23.8547013,16.3183786" id="Fill-20" fill="#FFFFFF" sketch:type="MSShapeGroup"></path>
            </g>
        </g>
    </g>
</svg>