<?xml version="1.0" encoding="UTF-8" standalone="no"?>
<svg width="47.5px" height="47.5px" viewBox="0 0 47.5 47.5" version="1.1" xmlns="http://www.w3.org/2000/svg" xmlns:xlink="http://www.w3.org/1999/xlink" xmlns:sketch="http://www.bohemiancoding.com/sketch/ns">
    <!-- Generator: Sketch 3.3.1 (12005) - http://www.bohemiancoding.com/sketch -->
    <title>tent</title>
    <desc>Created with Sketch.</desc>
    <defs></defs>
    <g id="Markers" stroke="none" stroke-width="1" fill="none" fill-rule="evenodd" sketch:type="MSPage">
        <g id="Artboard-1" sketch:type="MSArtboardGroup" transform="translate(-1068.000000, -726.000000)">
            <g id="tent" sketch:type="MSLayerGroup" transform="translate(1068.000000, 726.000000)">
                <g id="Fill-1-+-Fill-2" sketch:type="MSShapeGroup">
                    <path d="M23.76779,46.4791199 C11.2746549,46.4791199 1.14735742,36.3473282 1.14735742,23.848649 C1.14735742,11.3499699 11.2746549,1.21607614 23.76779,1.21607614 C36.260925,1.21607614 46.3882225,11.3499699 46.3882225,23.848649 C46.3882225,36.3473282 36.260925,46.4791199 23.76779,46.4791199 Z" id="Fill-1" fill="#85554E"></path>
                    <path d="M46.3882225,23.848649 L45.337673,23.848649 C45.337673,29.8100103 42.9256113,35.199619 39.0196681,39.1072955 C35.1137249,43.014972 29.728608,45.4281042 23.76779,45.4281042 C17.8069719,45.4281042 12.421855,43.014972 8.51591185,39.1072955 C4.60996868,35.199619 2.19790696,29.8100103 2.19790696,23.848649 C2.19790696,17.8851857 4.60996868,12.4976791 8.51591185,8.58790052 C12.421855,4.68232604 17.8069719,2.26919391 23.76779,2.26709188 C29.728608,2.26919391 35.1137249,4.68232604 39.0196681,8.58790052 C42.9256113,12.4976791 45.337673,17.8851857 45.337673,23.848649 L47.4387721,23.848649 C47.4387721,10.7677072 36.8408284,0.167162433 23.76779,0.165060401 C10.6947516,0.167162433 0.0968078892,10.7677072 0.0968078892,23.848649 C0.0968078892,36.9274889 10.6947516,47.5301356 23.76779,47.5301356 C36.8408284,47.5301356 47.4387721,36.9274889 47.4387721,23.848649 L46.3882225,23.848649" id="Fill-2" fill="#1A1918"></path>
                </g>
                <path d="M27.8796408,36.4902663 L27.7451705,36.4902663 L27.692643,36.3389201 C27.3249507,35.6999025 26.927843,35.0777012 26.5916671,34.4239694 C26.1000099,33.463341 25.6419703,32.4858964 25.1881329,31.5042477 C24.7342955,30.5162929 24.2888625,29.524134 23.8665416,28.521465 C23.1458646,26.8125134 22.4419965,25.0951537 21.7402294,23.377794 C21.202348,22.0577182 20.6686688,20.7334384 20.1517985,19.4049545 C19.5887039,17.9650629 19.0361149,16.5188653 18.4961324,15.0705656 C18.0170818,13.7862244 17.5611433,12.495577 17.0968004,11.2070317 L17.2312708,11.2070317 L17.2438774,11.2364602 C18.9814863,11.9301306 20.8052403,12.2097008 22.6563086,12.2727617 C24.4380406,12.3337206 26.2239748,12.3337206 27.9973024,12.0835789 C28.7831134,11.9742732 29.5731267,11.890192 30.3484322,11.7346416 C30.9934697,11.6043157 31.6237994,11.3857044 32.2604324,11.2070317 L32.3949027,11.2070317 C32.5755973,11.5076222 32.8004149,11.7892945 32.930683,12.1109053 C33.5294962,13.5949395 34.1451183,15.0747697 34.6766963,16.5840283 C35.7419536,19.6025455 36.6601338,22.6736134 37.9123889,25.6290697 C38.509101,27.0374308 39.1373296,28.4310777 40.0029825,29.7007047 C40.3160462,30.1610496 40.6795364,30.587762 41.0199144,31.0291886 L41.0199144,31.2309836 C40.1521605,31.9708987 39.1751494,32.5447533 38.1540153,33.0324246 C37.4312372,33.3771577 36.6979536,33.7092787 35.9436591,33.9657265 C33.9959402,34.6278664 32.0356148,35.2563739 30.0752894,35.8785752 C29.3525113,36.1076966 28.6108233,36.2884713 27.8796408,36.4902663" id="Fill-53" fill="#FFFFFF" sketch:type="MSShapeGroup"></path>
                <path d="M15.7478948,11.2070317 L15.81513,11.2070317 C16.0042289,11.7451518 16.1849234,12.2853739 16.3845279,12.8192899 C16.939218,14.29912 17.4918071,15.7789502 18.0612049,17.2524743 C18.5381544,18.4821627 19.0298116,19.705545 19.5235699,20.9247233 C20.1244842,22.4003494 20.7317018,23.8717714 21.3431217,25.3431934 C21.8074645,26.4572701 22.2676052,27.5776529 22.7613635,28.6791174 C23.6228141,30.5961701 24.4968713,32.5090187 25.3940407,34.4092552 C25.7302165,35.1239459 26.1504363,35.798698 26.5307352,36.4902663 L26.3962649,36.4902663 L26.2954121,36.4230013 C23.8833504,35.6137192 21.4691876,34.8086412 19.059227,33.995155 L18.6053896,33.7534214 C18.3910775,33.4381166 18.1956752,33.0954855 18.0570027,32.7381402 C17.2753939,30.7201899 16.6975916,28.6391788 16.153407,26.5476575 C15.8004223,25.1855411 15.4600443,23.8192206 15.1049585,22.4213697 C14.9137585,23.0540811 14.7435695,23.6531601 14.5481673,24.245933 C13.9892749,25.9317622 13.4366859,27.6196935 12.8399737,29.2929106 C12.6088528,29.9424383 12.272677,30.5541294 11.9659165,31.1742287 C11.8503561,31.4033502 11.6696615,31.5042477 11.3860132,31.3781258 C11.106567,31.2541059 10.8019076,31.191045 10.5077538,31.1006576 C9.17775805,30.6949656 7.84566125,30.2892735 6.51566554,29.8835814 L6.51566554,29.7469494 C7.32248758,28.8451779 7.84776235,27.7626316 8.3961492,26.7032078 C9.01807453,25.5008458 9.58116908,24.2669533 10.1610724,23.043571 C10.5854944,22.1502076 11.0057142,21.2526402 11.4154286,20.3529707 C12.251666,18.5115911 13.058488,16.6597014 13.9178375,14.828832 C14.4935387,13.6054497 15.136475,12.4135978 15.7478948,11.2070317" id="Fill-54" fill="#FFFFFF" sketch:type="MSShapeGroup"></path>
            </g>
        </g>
    </g>
</svg>