<?xml version="1.0" encoding="UTF-8" standalone="no"?>
<svg width="47.5px" height="47.5px" viewBox="0 0 47.5 47.5" version="1.1" xmlns="http://www.w3.org/2000/svg" xmlns:xlink="http://www.w3.org/1999/xlink" xmlns:sketch="http://www.bohemiancoding.com/sketch/ns">
    <!-- Generator: Sketch 3.3.1 (12005) - http://www.bohemiancoding.com/sketch -->
    <title>medicine</title>
    <desc>Created with Sketch.</desc>
    <defs></defs>
    <g id="Markers" stroke="none" stroke-width="1" fill="none" fill-rule="evenodd" sketch:type="MSPage">
        <g id="Artboard-1" sketch:type="MSArtboardGroup" transform="translate(-1367.000000, -1012.000000)">
            <g id="medicine" sketch:type="MSLayerGroup" transform="translate(1367.000000, 1012.000000)">
                <path d="M46.3362285,23.8555293 C46.3362285,36.3542084 36.208931,46.4860001 23.7136949,46.4860001 C11.2205598,46.4860001 1.09326235,36.3542084 1.09326235,23.8555293 C1.09326235,11.3568501 11.2205598,1.22505839 23.7136949,1.22505839 C36.208931,1.22505839 46.3362285,11.3568501 46.3362285,23.8555293" id="Fill-6" fill="#FFFFFF" sketch:type="MSShapeGroup"></path>
                <path d="M46.3362285,23.8555293 L45.285679,23.8555293 C45.285679,29.8168905 42.8715162,35.2064992 38.9676741,39.1141757 C35.0596299,43.0218523 29.6745129,45.4349844 23.7136949,45.4349844 C17.7549779,45.4349844 12.3677599,43.0218523 8.46181677,39.1141757 C4.55797471,35.2064992 2.14381188,29.8168905 2.14381188,23.8555293 C2.14381188,17.892066 4.55797471,12.5045593 8.46181677,8.59688277 C12.3677599,4.68920626 17.7549779,2.27607413 23.7136949,2.27607413 C29.6745129,2.27607413 35.0596299,4.68920626 38.9676741,8.59688277 C42.8715162,12.5045593 45.285679,17.892066 45.285679,23.8555293 L47.3867781,23.8555293 C47.384677,10.7766894 36.7888344,0.17404265 23.7136949,0.17404265 C10.6406565,0.17404265 0.0427128124,10.7766894 0.0427128124,23.8555293 C0.0427128124,36.9343691 10.6406565,47.5370159 23.7136949,47.5370159 C36.7888344,47.5370159 47.384677,36.9343691 47.3867781,23.8555293 L46.3362285,23.8555293" id="Fill-7" fill="#1A1918" sketch:type="MSShapeGroup"></path>
                <path d="M20.2615891,12.2796419 L27.1679018,12.2796419 L27.1679018,35.4293146 L20.2615891,35.4293146 L20.2615891,12.2796419 Z" id="Fill-8" fill="#BC242A" sketch:type="MSShapeGroup"></path>
                <path d="M12.1450434,20.3997895 L35.2844475,20.3997895 L35.2844475,27.309167 L12.1450434,27.309167 L12.1450434,20.3997895 Z" id="Fill-9" fill="#BC242A" sketch:type="MSShapeGroup"></path>
            </g>
        </g>
    </g>
</svg>