<?xml version="1.0" encoding="UTF-8" standalone="no"?>
<svg width="47.5px" height="47.5px" viewBox="0 0 47.5 47.5" version="1.1" xmlns="http://www.w3.org/2000/svg" xmlns:xlink="http://www.w3.org/1999/xlink" xmlns:sketch="http://www.bohemiancoding.com/sketch/ns">
    <!-- Generator: Sketch 3.3.1 (12005) - http://www.bohemiancoding.com/sketch -->
    <title>water</title>
    <desc>Created with Sketch.</desc>
    <defs></defs>
    <g id="Markers" stroke="none" stroke-width="1" fill="none" fill-rule="evenodd" sketch:type="MSPage">
        <g id="Artboard-1" sketch:type="MSArtboardGroup" transform="translate(-771.000000, -133.000000)">
            <g id="water" sketch:type="MSLayerGroup" transform="translate(771.000000, 133.000000)">
                <path d="M23.8999581,46.491008 L23.8999581,46.491008 C11.2129503,46.491008 0.928611086,36.1639978 0.928611086,23.4243501 C0.928611086,10.6826081 11.2129503,0.355597959 23.8999581,0.355597959 C36.5869659,0.355597959 46.8733907,10.6826081 46.8733907,23.4243501 C46.8733907,36.1639978 36.5869659,46.491008 23.8999581,46.491008" id="Fill-10" fill="#38A1CE" sketch:type="MSShapeGroup"></path>
                <path d="M46.4020339,23.8055133 L45.359209,23.8055133 C45.359209,29.7847496 42.9481978,35.1859581 39.0480326,39.1064941 C35.1436962,43.0228415 29.7627197,45.4438563 23.8102751,45.4438563 C17.8557449,45.4438563 12.4747684,43.0228415 8.57251764,39.1064941 C4.67026684,35.1859581 2.26134131,29.7847496 2.25925566,23.8055133 C2.26134131,17.8262771 4.67026684,12.4229743 8.57251764,8.50453256 C12.4747684,4.58609087 17.8557449,2.16717042 23.8102751,2.16717042 C29.7627197,2.16717042 35.1436962,4.58609087 39.0480326,8.50453256 C42.9481978,12.4229743 45.359209,17.8262771 45.359209,23.8055133 L47.4448588,23.8055133 C47.4448588,10.6972682 36.8643573,0.0728669974 23.8102751,0.0728669974 C10.756193,0.0728669974 0.175691505,10.6972682 0.173605855,23.8055133 C0.175691505,36.9137584 10.756193,47.5381597 23.8102751,47.5381597 C36.8643573,47.5381597 47.4448588,36.9137584 47.4448588,23.8055133 L46.4020339,23.8055133" id="Fill-11" fill="#1A1918" sketch:type="MSShapeGroup"></path>
                <path d="M30.4885258,24.486162 C29.1182539,19.7048672 26.3777101,15.6209756 23.8207034,11.2396928 C23.209608,12.2596186 22.6339686,13.1245659 22.1584405,14.0397765 C20.6338305,16.9676127 19.040394,19.8661286 17.6784647,22.8693597 C16.7420079,24.9364372 16.3394775,27.1815305 16.6690102,29.4999243 C17.1507953,32.9010731 19.8579687,35.3870112 23.3514322,35.592253 C26.884523,35.799589 29.8649165,33.7094742 30.7638316,30.408852 C31.3102718,28.4025093 31.04748,26.4380527 30.4885258,24.486162" id="Fill-12" fill="#FFFFFF" sketch:type="MSShapeGroup"></path>
            </g>
        </g>
    </g>
</svg>