<?xml version="1.0" encoding="UTF-8" standalone="no"?>
<svg width="47.5px" height="47.5px" viewBox="0 0 47.5 47.5" version="1.1" xmlns="http://www.w3.org/2000/svg" xmlns:xlink="http://www.w3.org/1999/xlink" xmlns:sketch="http://www.bohemiancoding.com/sketch/ns">
    <!-- Generator: Sketch 3.3.1 (12005) - http://www.bohemiancoding.com/sketch -->
    <title>food</title>
    <desc>Created with Sketch.</desc>
    <defs></defs>
    <g id="Markers" stroke="none" stroke-width="1" fill="none" fill-rule="evenodd" sketch:type="MSPage">
        <g id="Artboard-1" sketch:type="MSArtboardGroup" transform="translate(-177.000000, -418.000000)">
            <g id="food" sketch:type="MSLayerGroup" transform="translate(177.000000, 418.000000)">
                <path d="M23.8380588,46.5927037 C11.1021421,46.5927037 0.779853299,36.2275865 0.779853299,23.440929 C0.779853299,10.6542715 11.1021421,0.287052307 23.8380588,0.287052307 C36.5718821,0.287052307 46.8941709,10.6542715 46.8941709,23.440929 C46.8941709,36.2275865 36.5718821,46.5927037 23.8380588,46.5927037" id="Fill-21" fill="#2BA848" sketch:type="MSShapeGroup"></path>
                <path d="M46.4210747,23.8234987 L45.3744017,23.8234987 C45.3744017,29.8247986 42.9565872,35.2480398 39.0399369,39.1809407 C35.1232867,43.1117396 29.7224542,45.541688 23.7459515,45.541688 C17.7694489,45.541688 12.3686164,43.1117396 8.45196614,39.1809407 C4.5353159,35.2480398 2.11750135,29.8247986 2.11750135,23.8234987 C2.11750135,17.8221989 4.5353159,12.3989577 8.45196614,8.46605678 C12.3686164,4.53315589 17.7694489,2.10530953 23.7459515,2.10530953 C29.7224542,2.10530953 35.1232867,4.53315589 39.0399369,8.46605678 C42.9565872,12.3989577 45.3744017,17.8221989 45.3744017,23.8234987 L47.4677477,23.8234987 C47.4677477,10.6668837 36.8482037,0.0032780579 23.7459515,0.0032780579 C10.6436993,0.0032780579 0.0241554166,10.6668837 0.0241554166,23.8234987 C0.0241554166,36.9801137 10.6436993,47.6437194 23.7459515,47.6437194 C36.8482037,47.6437194 47.4677477,36.9801137 47.4677477,23.8234987 L46.4210747,23.8234987" id="Fill-22" fill="#1A1918" sketch:type="MSShapeGroup"></path>
                <path d="M23.4780033,17.3870784 L22.8730263,13.6938091 L21.6107387,11.3227176 L20.2375038,9.7230716 L21.0601887,8.1801805 L21.8577535,7.57479543 L22.9818803,10.1098454 L23.7501382,12.8656087 L24.3551152,16.8027136 L24.3551152,17.3870784 L23.4780033,17.3870784" id="Fill-23" fill="#FFFFFF" sketch:type="MSShapeGroup"></path>
                <path d="M20.8466674,8.58377054 L20.2375038,9.7230716 L21.6107387,11.3227176 L22.8730263,13.6938091 L23.0718941,14.9129873 C23.3356557,15.1547209 23.5345236,15.3523119 23.6454709,15.4637196 L23.3105356,13.3070353 L21.9121805,10.1644982 L20.8466674,8.58377054" id="Fill-24" fill="#FFFFFF" sketch:type="MSShapeGroup"></path>
                <path d="M28.7239282,12.4809369 C26.6745425,12.4809369 23.7459515,15.5667191 23.7459515,15.5667191 C23.7459515,15.5667191 20.8173606,12.4809369 18.7679749,12.4809369 C18.7679749,12.4809369 10.7169664,14.3181124 11.2298362,24.8282698 C11.2298362,24.8282698 11.083302,33.5012517 19.5739131,36.0720362 C19.5739131,36.0720362 22.720212,37.1020316 23.7459515,35.5591405 C24.771691,37.1020316 27.91799,36.0720362 27.91799,36.0720362 C36.4086011,33.5012517 36.2620669,24.8282698 36.2620669,24.8282698 C36.7749366,14.3181124 28.7239282,12.4809369 28.7239282,12.4809369" id="Fill-25" fill="#FFFFFF" sketch:type="MSShapeGroup"></path>
                <path d="M28.4329531,13.6097278 C26.5028881,13.6097278 23.7459515,16.4012256 23.7459515,16.4012256 C23.7459515,16.4012256 20.9890149,13.6097278 19.05895,13.6097278 C19.05895,13.6097278 11.476851,15.2703327 11.9604139,24.775719 C11.9604139,24.775719 11.7447993,32.6183984 19.7413808,34.9432452 C19.7413808,34.9432452 22.7809191,35.9585265 23.7459515,34.5627776 C24.710984,35.9585265 27.7505223,34.9432452 27.7505223,34.9432452 C35.7471038,32.6183984 35.5314891,24.775719 35.5314891,24.775719 C36.0150521,15.2703327 28.4329531,13.6097278 28.4329531,13.6097278" id="Fill-26" fill="#FFFFFF" sketch:type="MSShapeGroup"></path>
                <path d="M25.3787614,22.770381 C25.3787614,22.770381 26.8775971,23.2517462 27.0576248,23.7310094 C27.2397459,24.2123746 27.7400556,25.0763095 27.2397459,25.509328 C27.2397459,25.509328 26.4673012,26.0390399 26.1051524,25.7027149 C25.7409102,25.3663898 25.1966403,24.6601073 25.1966403,24.2922518 L25.1966403,23.0100126 L25.3787614,22.770381" id="Fill-27" fill="#2BA848" sketch:type="MSShapeGroup"></path>
                <path d="M22.1152351,22.770381 C22.1152351,22.770381 20.614306,23.2517462 20.4342783,23.7310094 C20.2521572,24.2123746 19.7518475,25.0763095 20.2521572,25.509328 C20.2521572,25.509328 21.0246018,26.0390399 21.3867507,25.7027149 C21.7509929,25.3663898 22.2952628,24.6601073 22.2952628,24.2922518 L22.2952628,23.0100126 L22.1152351,22.770381" id="Fill-28" fill="#2BA848" sketch:type="MSShapeGroup"></path>
                <path d="M23.6224441,13.5908095 L23.6161641,13.6034217 C23.6161641,13.6034217 26.2726201,13.758972 27.748429,11.3374318 C29.1070105,9.10297232 28.1629115,6.72137065 28.0080039,6.36822937 L28.0310307,6.32829077 L27.9912571,6.3303928 L27.984977,6.31778061 L27.9766037,6.33249483 C27.591428,6.35771921 25.0521994,6.62047314 23.7103647,8.86544276 C22.2596759,11.2932891 23.6182574,13.5824014 23.6224441,13.5908095" id="Fill-29" fill="#FFFFFF" sketch:type="MSShapeGroup"></path>
                <path d="M23.6308175,13.5950136 L23.6245375,13.6076258 L23.6831512,13.6097278 L27.9410168,6.34090296 C27.4469871,6.38084156 25.0207992,6.68984018 23.718738,8.86964682 C22.2680493,11.2974932 23.6266308,13.5866055 23.6308175,13.5950136" id="Fill-30" fill="#FFFFFF" sketch:type="MSShapeGroup"></path>
                <path d="M11.2298362,24.8619023 C11.2277429,25.3558797 11.3407835,33.589537 19.5739131,36.0825463 C19.5739131,36.0825463 20.6017459,36.4188713 21.6735391,36.4188713 C22.4773839,36.4188713 23.3063489,36.2296885 23.7459515,35.5696506 L23.7459515,35.5591405 C23.3063489,36.2191784 22.4773839,36.4083612 21.6735391,36.4083612 C20.6017459,36.4083612 19.5739131,36.0720362 19.5739131,36.0720362 C11.3931172,33.593741 11.2298362,25.4504711 11.2298362,24.8619023 M11.2068094,23.8781516 C11.2068094,24.1892522 11.2130894,24.508761 11.2298362,24.8366779 L11.2298362,24.8282698 C11.2130894,24.5024549 11.2068094,24.1871502 11.2068094,23.8781516" id="Fill-31" fill="#3CAB4F" sketch:type="MSShapeGroup"></path>
                <path d="M18.7679749,12.4914471 C18.7679749,12.4914471 11.2130894,14.2151129 11.2068094,23.8781516 C11.2068094,24.1871502 11.2130894,24.5024549 11.2298362,24.8282698 L11.2298362,24.8366779 C11.2298362,24.8366779 11.2298362,24.8366779 11.2298362,24.8387799 L11.2298362,24.8619023 C11.2298362,25.4504711 11.3931172,33.593741 19.5739131,36.0720362 C19.5739131,36.0720362 20.6017459,36.4083612 21.6735391,36.4083612 C22.4773839,36.4083612 23.3063489,36.2191784 23.7459515,35.5591405 L23.7459515,34.5627776 C23.3524025,35.1324281 22.6155447,35.3005906 21.878687,35.3005906 C20.8089872,35.3005906 19.7413808,34.9432452 19.7413808,34.9432452 C11.7447993,32.6183984 11.9604139,24.775719 11.9604139,24.775719 C11.476851,15.2703327 19.05895,13.6097278 19.05895,13.6097278 C20.9890149,13.6097278 23.7459515,16.4012256 23.7459515,16.4012256 L23.7459515,15.5772293 C23.7459515,15.5772293 20.8173606,12.4914471 18.7679749,12.4914471" id="Fill-32" fill="#FFFFFF" sketch:type="MSShapeGroup"></path>
                <path d="M21.0685621,25.8141226 C20.6959465,25.8141226 20.2521572,25.509328 20.2521572,25.509328 C19.7518475,25.0763095 20.2521572,24.2123746 20.4342783,23.7310094 C20.614306,23.2517462 22.1152351,22.770381 22.1152351,22.770381 L22.2952628,23.0100126 L22.2952628,24.2922518 C22.2952628,24.6601073 21.7509929,25.3663898 21.3867507,25.7027149 C21.2988301,25.7825921 21.1878828,25.8141226 21.0685621,25.8141226 M19.05895,13.6097278 C19.05895,13.6097278 11.476851,15.2703327 11.9604139,24.775719 C11.9604139,24.775719 11.7447993,32.6183984 19.7413808,34.9432452 C19.7413808,34.9432452 20.8089872,35.3005906 21.878687,35.3005906 C22.6155447,35.3005906 23.3524025,35.1324281 23.7459515,34.5627776 L23.7459515,16.4012256 C23.7459515,16.4012256 20.9890149,13.6097278 19.05895,13.6097278" id="Fill-33" fill="#FFFFFF" sketch:type="MSShapeGroup"></path>
                <path d="M22.1152351,22.770381 C22.1152351,22.770381 20.614306,23.2517462 20.4342783,23.7310094 C20.2521572,24.2123746 19.7518475,25.0763095 20.2521572,25.509328 C20.2521572,25.509328 20.6959465,25.8141226 21.0685621,25.8141226 C21.1878828,25.8141226 21.2988301,25.7825921 21.3867507,25.7027149 C21.7509929,25.3663898 22.2952628,24.6601073 22.2952628,24.2922518 L22.2952628,23.0100126 L22.1152351,22.770381" id="Fill-34" fill="#3CAB4F" sketch:type="MSShapeGroup"></path>
            </g>
        </g>
    </g>
</svg>