<?xml version="1.0" encoding="UTF-8" standalone="no"?>
<svg width="47.5px" height="47.5px" viewBox="0 0 47.5 47.5" version="1.1" xmlns="http://www.w3.org/2000/svg" xmlns:xlink="http://www.w3.org/1999/xlink" xmlns:sketch="http://www.bohemiancoding.com/sketch/ns">
    <!-- Generator: Sketch 3.3.1 (12005) - http://www.bohemiancoding.com/sketch -->
    <title>love</title>
    <desc>Created with Sketch.</desc>
    <defs></defs>
    <g id="Markers" stroke="none" stroke-width="1" fill="none" fill-rule="evenodd" sketch:type="MSPage">
        <g id="Artboard-1" sketch:type="MSArtboardGroup" transform="translate(-474.000000, -134.000000)">
            <g id="love" sketch:type="MSLayerGroup" transform="translate(474.000000, 134.000000)">
                <path d="M23.8876401,46.6156779 L23.8876401,46.6156779 C11.2006323,46.6156779 0.916293116,36.2484586 0.916293116,23.4618012 C0.916293116,10.6751437 11.2006323,0.310026493 23.8876401,0.310026493 C36.5767335,0.310026493 46.8610728,10.6751437 46.8610728,23.4618012 C46.8610728,36.2484586 36.5767335,46.6156779 23.8876401,46.6156779" id="Fill-13" fill="#864389" sketch:type="MSShapeGroup"></path>
                <path d="M46.3897159,23.8464729 L45.346891,23.8464729 C45.346891,29.8456708 42.9358798,35.268912 39.0357147,39.2039149 C35.1334639,43.1347138 29.7524874,45.5646621 23.7979572,45.5646621 C17.843427,45.5646621 12.4624505,43.1347138 8.56019967,39.2039149 C4.65794887,35.268912 2.24902334,29.8456708 2.24902334,23.8464729 C2.24902334,17.8451731 4.65794887,12.4219319 8.56019967,8.48903097 C12.4624505,4.55613007 17.843427,2.12828372 23.7979572,2.12618169 C29.7524874,2.12828372 35.1334639,4.55613007 39.0357147,8.48903097 C42.9358798,12.4219319 45.346891,17.8451731 45.346891,23.8464729 L47.4325408,23.8464729 C47.4325408,10.6898579 36.8520393,0.0262522433 23.7979572,0.0241502118 C10.743875,0.0262522433 0.163373535,10.6898579 0.163373535,23.8464729 C0.163373535,37.0009859 10.743875,47.6666936 23.7979572,47.6666936 C36.8520393,47.6666936 47.4325408,37.0009859 47.4325408,23.8464729 L46.3897159,23.8464729" id="Fill-14" fill="#1A1918" sketch:type="MSShapeGroup"></path>
                <path d="M36.4098816,25.4208945 C35.2085473,27.3989061 33.1979809,28.8177774 31.3125534,30.127343 C29.3103296,31.5167858 25.2912824,33.9046935 23.7979572,37.0955773 C22.1586364,33.7785717 19.1469581,31.6387036 17.1718477,30.2093222 C14.8108921,28.5024726 12.595932,27.1781928 11.2944866,25.3452214 C10.5436526,24.2900016 10.0952379,23.0645172 10.0952379,21.5027078 C10.0952379,17.2187677 13.5407314,13.7462117 17.7912857,13.7462117 C20.2210677,13.7462117 23.7979572,15.9932833 23.7979572,19.5562267 C23.7979572,15.972263 27.3748466,13.7462117 29.8046286,13.7462117 C34.0530973,13.7462117 37.4985908,17.2187677 37.4985908,21.5027078 C37.4985908,23.0371908 37.0814608,24.3152259 36.4098816,25.4208945" id="Fill-15" fill="#FFFFFF" sketch:type="MSShapeGroup"></path>
            </g>
        </g>
    </g>
</svg>