<?xml version="1.0" encoding="UTF-8" standalone="no"?>
<svg width="47.5px" height="47.5px" viewBox="0 0 47.5 47.5" version="1.1" xmlns="http://www.w3.org/2000/svg" xmlns:xlink="http://www.w3.org/1999/xlink" xmlns:sketch="http://www.bohemiancoding.com/sketch/ns">
    <!-- Generator: Sketch 3.3.1 (12005) - http://www.bohemiancoding.com/sketch -->
    <title>charge</title>
    <desc>Created with Sketch.</desc>
    <defs></defs>
    <g id="Markers" stroke="none" stroke-width="1" fill="none" fill-rule="evenodd" sketch:type="MSPage">
        <g id="Artboard-1" sketch:type="MSArtboardGroup" transform="translate(-1095.000000, -1345.000000)">
            <g id="charge" sketch:type="MSLayerGroup" transform="translate(1095.000000, 1345.000000)">
                <g id="Fill-3-+-Fill-4-+-Fill-5" sketch:type="MSShapeGroup">
                    <path d="M23.8287776,46.4903898 L23.8287776,46.4903898 C11.1417699,46.4903898 0.855345005,36.1633797 0.855345005,23.423732 C0.855345005,10.6840843 11.1417699,0.354979817 23.8287776,0.354979817 C36.5157854,0.354979817 46.8001246,10.6840843 46.8001246,23.423732 C46.8001246,36.1633797 36.5157854,46.4903898 23.8287776,46.4903898" id="Fill-3" fill="#DBC539"></path>
                    <path d="M46.3308534,23.8048952 L45.2880285,23.8048952 C45.2859429,29.7841315 42.8770174,35.1874343 38.9747666,39.105876 C35.0725158,43.0222234 29.6915393,45.4432381 23.7370091,45.4432381 C17.7845645,45.4432381 12.403588,43.0222234 8.49925155,39.105876 C4.59908641,35.1874343 2.18807523,29.7841315 2.18807523,23.8048952 C2.18807523,17.8256589 4.59908641,12.4223561 8.49925155,8.50391442 C12.403588,4.58547272 17.7845645,2.16655227 23.7370091,2.16655227 C29.6915393,2.16655227 35.0725158,4.58547272 38.9747666,8.50391442 C42.8770174,12.4223561 45.2859429,17.8256589 45.2880285,23.8048952 L47.3736783,23.8048952 C47.3715927,10.6966501 36.7910912,0.072248855 23.7370091,0.072248855 C10.6829269,0.072248855 0.102425424,10.6966501 0.102425424,23.8048952 C0.102425424,36.9131403 10.6829269,47.5375415 23.7370091,47.5375415 C36.7910912,47.5375415 47.3715927,36.9131403 47.3736783,23.8048952 L46.3308534,23.8048952" id="Fill-5" fill="#1A1918"></path>
                </g>
                <path d="M16.5332723,34.8363063 L16.5332723,12.843694 C16.7316544,12.0219615 17.1953151,11.4336889 18.0153715,11.1597781 L29.4834751,11.1597781 C30.3023782,11.4348446 30.7694989,12.0208058 30.9667277,12.843694 L30.9667277,34.8363063 C30.7694989,35.6603503 30.3023782,36.2463114 29.4834751,36.5202222 L18.0153715,36.5202222 C17.1953151,36.2474672 16.7328078,35.6580388 16.5332723,34.8363063 L16.5332723,34.8363063 Z M18.0130648,14.3241993 L18.0130648,30.6282501 L29.4777081,30.6282501 L29.4777081,14.3241993 L18.0130648,14.3241993 L18.0130648,14.3241993 Z M23.7280857,13.1534328 C24.5343016,13.1534328 25.3416708,13.1395639 26.1478867,13.1603673 C26.4789081,13.1696132 26.6011668,13.0054979 26.6011668,12.7258083 C26.6011668,12.4438073 26.4685276,12.2808477 26.1432731,12.2831592 C24.5469888,12.2935609 22.9495511,12.2935609 21.3532667,12.2831592 C21.0257055,12.2808477 20.8988332,12.449586 20.9011399,12.7304313 C20.9034467,13.0089651 21.0222453,13.1719247 21.3578802,13.161523 C22.1467953,13.1372524 22.9380172,13.1534328 23.7280857,13.1534328 L23.7280857,13.1534328 Z M23.7257789,34.6617893 C24.3705209,34.6733467 24.8976177,34.1682875 24.9079982,33.530318 C24.9183786,32.9143076 24.3682142,32.3583957 23.75,32.3583957 C23.1479332,32.3583957 22.6185297,32.8738566 22.5920018,33.4817768 C22.5666274,34.1081889 23.0879572,34.6513876 23.7257789,34.6617893 L23.7257789,34.6617893 Z" id="Imported-Layers" fill="#FFFFFF" sketch:type="MSShapeGroup"></path>
                <path d="M25.734572,15.4258825 L20.4319853,22.0196058 L22.8410137,23.5175992 L20.618792,29.5930129 L25.9213787,22.9610053 L23.4705134,21.457122 L25.734572,15.4258825" id="Imported-Layers" fill="#FFFFFF" sketch:type="MSShapeGroup"></path>
            </g>
        </g>
    </g>
</svg>