<?xml version="1.0" encoding="UTF-8" standalone="no"?>
<svg width="47.5px" height="47.5px" viewBox="0 0 47.5 47.5" version="1.1" xmlns="http://www.w3.org/2000/svg" xmlns:xlink="http://www.w3.org/1999/xlink" xmlns:sketch="http://www.bohemiancoding.com/sketch/ns">
    <!-- Generator: Sketch 3.4.1 (15681) - http://www.bohemiancoding.com/sketch -->
    <title>buyPhone</title>
    <desc>Created with Sketch.</desc>
    <defs></defs>
    <g id="Markers" stroke="none" stroke-width="1" fill="none" fill-rule="evenodd" sketch:type="MSPage">
        <g id="buyPhone" sketch:type="MSLayerGroup">
            <g id="charge-copy-+-Page-1" sketch:type="MSShapeGroup">
                <g id="charge-copy">
                    <g id="Fill-3-+-Fill-4-+-Fill-5">
                        <path d="M23.8287776,46.3148805 L23.8287776,46.3148805 C11.1417699,46.3148805 0.855345005,36.0268566 0.855345005,23.3353033 C0.855345005,10.64375 11.1417699,0.353639706 23.8287776,0.353639706 C36.5157854,0.353639706 46.8001246,10.64375 46.8001246,23.3353033 C46.8001246,36.0268566 36.5157854,46.3148805 23.8287776,46.3148805" id="Fill-3" fill="#99E848"></path>
                        <path d="M46.3308534,23.7150276 L45.2880285,23.7150276 C45.2859429,29.6716912 42.8770174,35.0545956 38.9747666,38.9582445 C35.0725158,42.859807 29.6915393,45.271682 23.7370091,45.271682 C17.7845645,45.271682 12.403588,42.859807 8.49925155,38.9582445 C4.59908641,35.0545956 2.18807523,29.6716912 2.18807523,23.7150276 C2.18807523,17.758364 4.59908641,12.3754596 8.49925155,8.47181066 C12.403588,4.56816176 17.7845645,2.15837316 23.7370091,2.15837316 C29.6915393,2.15837316 35.0725158,4.56816176 38.9747666,8.47181066 C42.8770174,12.3754596 45.2859429,17.758364 45.2880285,23.7150276 L47.3736783,23.7150276 C47.3715927,10.6562684 36.7910912,0.0719761029 23.7370091,0.0719761029 C10.6829269,0.0719761029 0.102425424,10.6562684 0.102425424,23.7150276 C0.102425424,36.7737868 10.6829269,47.358079 23.7370091,47.358079 C36.7910912,47.358079 47.3715927,36.7737868 47.3736783,23.7150276 L46.3308534,23.7150276" id="Fill-5" fill="#1A1918"></path>
                    </g>
                    <path d="M16.5332723,34.7047932 L16.5332723,12.7952068 C16.7316544,11.9765765 17.1953151,11.3905247 18.0153715,11.117648 L29.4834751,11.117648 C30.3023782,11.3916761 30.7694989,11.9754251 30.9667277,12.7952068 L30.9667277,34.7047932 C30.7694989,35.5257262 30.3023782,36.1094753 29.4834751,36.382352 L18.0153715,36.382352 C17.1953151,36.1106267 16.7328078,35.5234235 16.5332723,34.7047932 L16.5332723,34.7047932 Z M18.0130648,14.270123 L18.0130648,30.5126231 L29.4777081,30.5126231 L29.4777081,14.270123 L18.0130648,14.270123 L18.0130648,14.270123 Z M23.7280857,13.1037763 C24.5343016,13.1037763 25.3416708,13.0899598 26.1478867,13.1106846 C26.4789081,13.1198956 26.6011668,12.9563998 26.6011668,12.6777662 C26.6011668,12.3968298 26.4685276,12.2344854 26.1432731,12.2367881 C24.5469888,12.2471505 22.9495511,12.2471505 21.3532667,12.2367881 C21.0257055,12.2344854 20.8988332,12.4025867 20.9011399,12.6823717 C20.9034467,12.959854 21.0222453,13.1221984 21.3578802,13.111836 C22.1467953,13.087657 22.9380172,13.1037763 23.7280857,13.1037763 L23.7280857,13.1037763 Z M23.7257789,34.530935 C24.3705209,34.5424488 24.8976177,34.0392963 24.9079982,33.4037352 C24.9183786,32.7900503 24.3682142,32.2362371 23.75,32.2362371 C23.1479332,32.2362371 22.6185297,32.7497521 22.5920018,33.3553773 C22.5666274,33.9794246 23.0879572,34.5205726 23.7257789,34.530935 L23.7257789,34.530935 Z" id="Imported-Layers" fill="#FFFFFF"></path>
                </g>
                <path d="M28.2581103,25.3227489 C28.2581103,25.4690659 28.2589293,25.6038072 28.2579365,25.7385486 C28.2564224,25.9463112 28.250664,26.1541237 28.2530716,26.3618364 C28.2538907,26.4351071 28.2329419,26.4831809 28.1734215,26.52876 C27.1742089,27.2938742 26.0444386,27.6276715 24.7965708,27.5379354 C22.796284,27.3940882 21.084316,25.9914911 20.5092171,24.0436667 C20.4977747,24.0049233 20.4848431,23.9666289 20.4716384,23.9250914 L18.8611877,23.9250914 C18.9754876,23.6520412 19.0828626,23.3887705 19.1984533,23.129192 C19.2107148,23.1016499 19.2710294,23.0824404 19.3093032,23.0820163 C19.6439626,23.0783989 19.9786716,23.0799207 20.3224403,23.0799207 L20.3224403,22.2852686 L18.8602941,22.2852686 C18.972112,22.0123183 19.0744483,21.7556087 19.1851989,21.5026163 C19.1967655,21.4761969 19.2580481,21.4594322 19.296446,21.4591079 C19.6849418,21.4559645 20.0734624,21.457187 20.4544127,21.457187 C20.5555328,21.191147 20.6361261,20.9248577 20.7544222,20.6766801 C21.5045081,19.1029682 22.7395683,18.143563 24.4516604,17.8765501 C26.0240855,17.6313164 27.4069788,18.0946161 28.5715975,19.1920557 C28.5946809,19.2138099 28.6130483,19.2670977 28.6028966,19.2938913 C28.5019254,19.5601308 28.394476,19.8238755 28.2875726,20.091537 C26.9320568,18.6920583 25.3544441,18.2589451 23.5410085,19.0198183 C22.4526146,19.4765068 21.7457666,20.3242222 21.3496012,21.4571371 L27.6937091,21.4571371 C27.6207855,21.6435197 27.5533473,21.8154827 27.4862317,21.9875454 C27.3720558,22.2802791 27.3721303,22.2803041 27.05837,22.2803041 L21.3380843,22.2803041 L21.1733484,22.2803041 L21.1733484,23.0758792 L27.0117069,23.0758792 C26.9630332,23.208475 26.9206888,23.3263768 26.8765325,23.4435551 C26.8327486,23.5597854 26.7798057,23.6731218 26.7447587,23.7918718 C26.7187713,23.8799364 26.674193,23.9026137 26.5863024,23.9024141 C25.6226084,23.9001439 24.6589144,23.901516 23.6952204,23.9034619 C23.0377163,23.9047841 22.3801874,23.9078028 21.7226833,23.9119191 C21.603295,23.9126675 21.4839812,23.9223721 21.3639725,23.9279603 C21.6475258,24.9915213 22.6899763,26.3346187 24.3999337,26.6583122 C25.9209301,26.9462061 27.20315,26.4623248 28.2581103,25.3227489" id="Page-1" fill="#FFFFFF"></path>
            </g>
        </g>
    </g>
</svg>