<?xml version="1.0" encoding="UTF-8" standalone="no"?>
<svg width="47.5px" height="47.5px" viewBox="0 0 47.5 47.5" version="1.1" xmlns="http://www.w3.org/2000/svg" xmlns:xlink="http://www.w3.org/1999/xlink" xmlns:sketch="http://www.bohemiancoding.com/sketch/ns">
    <!-- Generator: Sketch 3.3.1 (12005) - http://www.bohemiancoding.com/sketch -->
    <title>alert</title>
    <desc>Created with Sketch.</desc>
    <defs></defs>
    <g id="Markers" stroke="none" stroke-width="1" fill="none" fill-rule="evenodd" sketch:type="MSPage">
        <g id="Artboard-1" sketch:type="MSArtboardGroup" transform="translate(-1068.000000, -418.000000)">
            <g id="alert" sketch:type="MSLayerGroup" transform="translate(1068.000000, 418.000000)">
                <path d="M46.3882225,23.8260267 C46.3882225,36.3247059 36.260925,46.4564976 23.76779,46.4564976 C11.2746549,46.4564976 1.14735742,36.3247059 1.14735742,23.8260267 C1.14735742,11.3273476 11.2746549,1.19555587 23.76779,1.19555587 C36.260925,1.19555587 46.3882225,11.3273476 46.3882225,23.8260267" id="Fill-44" fill="#DE465A" sketch:type="MSShapeGroup"></path>
                <path d="M46.3882225,23.8260267 L45.337673,23.8260267 C45.337673,29.787388 42.9256113,35.1769967 39.0196681,39.0846732 C35.1137249,42.9923497 29.728608,45.4054819 23.76779,45.4054819 C17.8069719,45.4054819 12.421855,42.9923497 8.51591185,39.0846732 C4.60996868,35.1769967 2.19790696,29.787388 2.19790696,23.8260267 C2.19790696,17.8625634 4.60996868,12.4750568 8.51591185,8.56527822 C12.421855,4.65970374 17.8069719,2.2465716 23.76779,2.2465716 C29.728608,2.2465716 35.1137249,4.65970374 39.0196681,8.56527822 C42.9256113,12.4750568 45.337673,17.8625634 45.337673,23.8260267 L47.4387721,23.8260267 C47.4387721,10.7450849 36.8408284,0.144540129 23.76779,0.144540129 C10.6947516,0.144540129 0.0968078892,10.7450849 0.0968078892,23.8260267 C0.0968078892,36.9048666 10.6947516,47.5075133 23.76779,47.5075133 C36.8408284,47.5075133 47.4387721,36.9048666 47.4387721,23.8260267 L46.3882225,23.8260267" id="Fill-45" fill="#1A1918" sketch:type="MSShapeGroup"></path>
                <path d="M26.9152364,27.6895606 L20.6203436,27.6895606 L19.6475347,9.63941631 L27.8880452,9.63941631 L26.9152364,27.6895606 L26.9152364,27.6895606 Z M19.7252754,34.3677146 C19.7252754,33.2094952 20.0677545,32.3098258 20.7548139,31.6687062 C21.4418733,31.0254845 22.4398954,30.7038737 23.7488801,30.7038737 C25.0452582,30.7038737 26.0285726,31.0254845 26.694621,31.6687062 C27.3627705,32.3098258 27.6968452,33.2094952 27.6968452,34.3677146 C27.6968452,35.5133217 27.3501639,36.4066851 26.6568012,37.0478047 C25.9634385,37.6910264 24.9948318,38.0126372 23.7488801,38.0126372 C22.4903217,38.0126372 21.5049063,37.6910264 20.7926337,37.0478047 C20.0803611,36.4066851 19.7252754,35.5133217 19.7252754,34.3677146 L19.7252754,34.3677146 Z" id="Fill-46" fill="#FFFFFF" sketch:type="MSShapeGroup"></path>
            </g>
        </g>
    </g>
</svg>