<?xml version="1.0" encoding="UTF-8" standalone="no"?>
<svg width="47.5px" height="47.5px" viewBox="0 0 47.5 47.5" version="1.1" xmlns="http://www.w3.org/2000/svg" xmlns:xlink="http://www.w3.org/1999/xlink" xmlns:sketch="http://www.bohemiancoding.com/sketch/ns">
    <!-- Generator: Sketch 3.3.1 (12005) - http://www.bohemiancoding.com/sketch -->
    <title>question</title>
    <desc>Created with Sketch.</desc>
    <defs></defs>
    <g id="Markers" stroke="none" stroke-width="1" fill="none" fill-rule="evenodd" sketch:type="MSPage">
        <g id="Artboard-1" sketch:type="MSArtboardGroup" transform="translate(-1367.000000, -418.000000)">
            <g id="question" sketch:type="MSLayerGroup" transform="translate(1367.000000, 418.000000)">
                <path d="M46.3362285,23.8294604 C46.3362285,36.3744309 36.208931,46.5458576 23.7136949,46.5458576 C11.2205598,46.5458576 1.09326235,36.3744309 1.09326235,23.8294604 C1.09326235,11.2844898 11.2205598,1.11517294 23.7136949,1.11517294 C36.208931,1.11517294 46.3362285,11.2844898 46.3362285,23.8294604" id="Fill-47" fill="#8EC572" sketch:type="MSShapeGroup"></path>
                <path d="M46.3362285,23.8294604 L45.285679,23.8294604 C45.285679,29.8150106 42.8715162,35.222471 38.9676741,39.1467302 C35.0596299,43.0667697 29.6745129,45.4888394 23.7136949,45.4909492 C17.7549779,45.4888394 12.369861,43.0667697 8.46181677,39.1467302 C4.55797471,35.222471 2.14381188,29.8150106 2.14381188,23.8294604 C2.14381188,17.84602 4.55797471,12.4364498 8.46181677,8.51430037 C12.369861,4.59215098 17.7549779,2.17008132 23.7136949,2.17008132 C29.6745129,2.17008132 35.0596299,4.59215098 38.9676741,8.51430037 C42.8715162,12.4364498 45.285679,17.84602 45.285679,23.8294604 L47.3867781,23.8294604 C47.384677,10.7021804 36.7888344,0.062374363 23.7136949,0.0602645462 C10.6406565,0.062374363 0.0427128124,10.7021804 0.0427128124,23.8294604 C0.0427128124,36.9588502 10.6406565,47.5986562 23.7136949,47.600766 C36.7888344,47.5986562 47.384677,36.9588502 47.3867781,23.8294604 L46.3362285,23.8294604" id="Fill-48" fill="#1A1918" sketch:type="MSShapeGroup"></path>
                <path d="M19.793044,27.9520423 L19.793044,26.2873969 C19.793044,25.0236167 20.0514792,23.9560494 20.5641474,23.084695 C21.0789167,22.2154505 21.9907937,21.3673042 23.2997784,20.540256 C24.3419235,19.884103 25.0899148,19.2891347 25.5458533,18.7616805 C26.0017918,18.2321165 26.2287105,17.626599 26.2287105,16.9430184 C26.2287105,16.4007955 25.984983,15.9703929 25.497528,15.6560302 C25.010073,15.3395576 24.37344,15.1813214 23.5897301,15.1813214 C21.6504156,15.1813214 19.3833297,15.8712315 16.7884724,17.2510517 L14.1095711,11.9891686 C17.3074438,10.1578476 20.6481914,9.24218716 24.1297125,9.24218716 C26.9935105,9.24218716 29.2416865,9.87302238 30.8742405,11.1368026 C32.5046934,12.4026927 33.3199198,14.1243032 33.3199198,16.3037439 C33.3199198,17.8650083 32.9564297,19.2152911 32.2315505,20.3567019 C31.5066713,21.4981128 30.3468646,22.578339 28.7542316,23.5973805 C27.405326,24.4750643 26.5606841,25.1164486 26.2203061,25.5236432 C25.879928,25.9287281 25.709739,26.4097663 25.709739,26.9646481 L25.709739,27.9520423 L19.793044,27.9520423 L19.793044,27.9520423 Z M18.965211,34.7245542 C18.965211,33.5367274 19.3076902,32.6210669 19.9968506,31.9754629 C20.68391,31.3319688 21.6945387,31.0091669 23.0308377,31.0091669 C24.3146092,31.0091669 25.3021258,31.3340786 25.9891852,31.986012 C26.6762446,32.6379454 27.0187237,33.5493863 27.0187237,34.7245542 C27.0187237,35.8976123 26.663638,36.8069434 25.9492643,37.4525473 C25.2369917,38.0960414 24.2641829,38.4188434 23.0308377,38.4188434 C21.7596728,38.4188434 20.7637518,38.100261 20.0430748,37.4609866 C19.3244989,36.8238219 18.965211,35.9102712 18.965211,34.7245542 L18.965211,34.7245542 Z" id="Fill-49" fill="#FFFFFF" sketch:type="MSShapeGroup"></path>
            </g>
        </g>
    </g>
</svg>