<?xml version="1.0" encoding="UTF-8" standalone="no"?>
<svg width="47.5px" height="47.5px" viewBox="0 0 47.5 47.5" version="1.1" xmlns="http://www.w3.org/2000/svg" xmlns:xlink="http://www.w3.org/1999/xlink" xmlns:sketch="http://www.bohemiancoding.com/sketch/ns">
    <!-- Generator: Sketch 3.3.1 (12005) - http://www.bohemiancoding.com/sketch -->
    <title>stop</title>
    <desc>Created with Sketch.</desc>
    <defs></defs>
    <g id="Markers" stroke="none" stroke-width="1" fill="none" fill-rule="evenodd" sketch:type="MSPage">
        <g id="Artboard-1" sketch:type="MSArtboardGroup" transform="translate(-772.000000, -418.000000)">
            <g id="stop" sketch:type="MSLayerGroup" transform="translate(772.000000, 418.000000)">
                <path d="M46.3730543,23.8567145 C46.3730543,36.3553937 36.2457568,46.4871854 23.7526217,46.4871854 C11.2594867,46.4871854 1.13008808,36.3553937 1.13008808,23.8567145 C1.13008808,11.3580354 11.2594867,1.22624367 23.7526217,1.22624367 C36.2457568,1.22624367 46.3730543,11.3580354 46.3730543,23.8567145" id="Fill-40" fill="#BC242A" sketch:type="MSShapeGroup"></path>
                <path d="M46.3730543,23.8567145 L45.3225047,23.8567145 C45.3225047,29.8201778 42.910443,35.2076845 39.0044998,39.115361 C35.0985567,43.0230375 29.7113387,45.4361697 23.7526217,45.4361697 C17.7918037,45.4361697 12.4066868,43.0230375 8.4986425,39.115361 C4.59480044,35.2076845 2.18273871,29.8201778 2.18063761,23.8567145 C2.18273871,17.8953533 4.59480044,12.5057446 8.4986425,8.59806806 C12.4066868,4.69039155 17.7918037,2.27725941 23.7526217,2.27725941 C29.7113387,2.27725941 35.0985567,4.69039155 39.0044998,8.59806806 C42.910443,12.5057446 45.3225047,17.8953533 45.3225047,23.8567145 L47.4236038,23.8567145 C47.4236038,10.7778747 36.8256601,0.175227937 23.7526217,0.175227937 C10.6774822,0.175227937 0.0816396417,10.7778747 0.0795385426,23.8567145 C0.0816396417,36.9376564 10.6774822,47.5382012 23.7526217,47.5382012 C36.8256601,47.5382012 47.4236038,36.9355544 47.4236038,23.8567145 L46.3730543,23.8567145" id="Fill-41" fill="#1A1918" sketch:type="MSShapeGroup"></path>
                <path d="M13.2198121,31.3819872 L31.2745564,13.3192308 C32.1044905,12.4889283 33.4533961,12.4889283 34.2833302,13.3192308 L34.2854313,13.3213328 C35.1153655,14.1516352 35.1153655,15.4990374 34.2854313,16.3314419 L16.228586,34.3941983 C15.3986518,35.2266028 14.0518473,35.2266028 13.2198121,34.3941983 L13.2198121,34.3941983 C12.3877769,33.5617939 12.3877769,32.2143917 13.2198121,31.3819872" id="Fill-42" fill="#FFFFFF" sketch:type="MSShapeGroup"></path>
                <path d="M13.2198121,13.3213328 L13.2198121,13.3213328 C14.0518473,12.4889283 15.3986518,12.4889283 16.228586,13.3213328 L34.2833302,31.3819872 C35.1153655,32.2143917 35.1153655,33.5617939 34.2833302,34.3941983 C33.4533961,35.2245008 32.1044905,35.2245008 31.2745564,34.3941983 L13.2198121,16.3314419 C12.389878,15.4990374 12.389878,14.1516352 13.2198121,13.3213328" id="Fill-43" fill="#FFFFFF" sketch:type="MSShapeGroup"></path>
            </g>
        </g>
    </g>
</svg>