<?xml version="1.0" encoding="UTF-8" standalone="no"?>
<svg width="47.5px" height="47.5px" viewBox="0 0 47.5 47.5" version="1.1" xmlns="http://www.w3.org/2000/svg" xmlns:xlink="http://www.w3.org/1999/xlink" xmlns:sketch="http://www.bohemiancoding.com/sketch/ns">
    <!-- Generator: Sketch 3.3.1 (12005) - http://www.bohemiancoding.com/sketch -->
    <title>drone</title>
    <desc>Created with Sketch.</desc>
    <defs></defs>
    <g id="Markers" stroke="none" stroke-width="1" fill="none" fill-rule="evenodd" sketch:type="MSPage">
        <g id="Artboard-1" sketch:type="MSArtboardGroup" transform="translate(-779.000000, -1038.000000)">
            <g id="drone" sketch:type="MSLayerGroup" transform="translate(779.000000, 1038.000000)">
                <g id="Fill-1-+-Fill-2-Copy-6" sketch:type="MSShapeGroup">
                    <path d="M23.76779,46.4791199 C11.2746549,46.4791199 1.14735742,36.3473282 1.14735742,23.848649 C1.14735742,11.3499699 11.2746549,1.21607614 23.76779,1.21607614 C36.260925,1.21607614 46.3882225,11.3499699 46.3882225,23.848649 C46.3882225,36.3473282 36.260925,46.4791199 23.76779,46.4791199 Z" id="Fill-1" fill="#DB1717"></path>
                    <path d="M46.3882225,23.848649 L45.337673,23.848649 C45.337673,29.8100103 42.9256113,35.199619 39.0196681,39.1072955 C35.1137249,43.014972 29.728608,45.4281042 23.76779,45.4281042 C17.8069719,45.4281042 12.421855,43.014972 8.51591185,39.1072955 C4.60996868,35.199619 2.19790696,29.8100103 2.19790696,23.848649 C2.19790696,17.8851857 4.60996868,12.4976791 8.51591185,8.58790052 C12.421855,4.68232604 17.8069719,2.26919391 23.76779,2.26709188 C29.728608,2.26919391 35.1137249,4.68232604 39.0196681,8.58790052 C42.9256113,12.4976791 45.337673,17.8851857 45.337673,23.848649 L47.4387721,23.848649 C47.4387721,10.7677072 36.8408284,0.167162433 23.76779,0.165060401 C10.6947516,0.167162433 0.0968078892,10.7677072 0.0968078892,23.848649 C0.0968078892,36.9274889 10.6947516,47.5301356 23.76779,47.5301356 C36.8408284,47.5301356 47.4387721,36.9274889 47.4387721,23.848649 L46.3882225,23.848649" id="Fill-2" fill="#1A1918"></path>
                </g>
                <path d="M20.5423415,24.6149596 C19.5758011,24.5066504 18.6879793,24.4227184 17.804788,24.3054605 C15.7537839,24.0336074 13.687962,24.0305217 11.6270794,23.9364068 C11.6039269,23.9351725 11.5804657,23.9348639 11.5573132,23.933321 C11.1492115,23.9052409 11.1492115,23.9052409 10.8988557,23.5972846 C10.8009977,23.7383027 10.7154877,23.8780864 10.6136167,24.0049101 C10.3879568,24.2857118 10.1212398,24.4816559 9.73135146,24.4748673 C9.09265073,24.4637587 8.80123773,23.8401319 8.97256635,23.3695575 C8.99880586,23.2970427 9.01578438,23.2211337 9.04140649,23.1322646 C8.37430534,22.9860008 7.97484727,22.4651289 7.51519266,22.030349 C7.35682945,21.8803824 7.33923354,21.5866205 7.50901865,21.4156709 C7.74424821,21.1786865 8.00849559,20.9592908 8.29219108,20.7840212 C9.08894632,20.2918466 9.92274559,19.8721868 10.8340286,19.6277967 C11.4245721,19.4694986 12.0228331,19.3886523 12.6241811,19.5454076 C13.7376628,19.835158 14.8511444,20.1267599 15.9572173,20.4439733 C16.8845527,20.7099635 17.8010836,21.0145255 18.7225538,21.300573 C19.3489065,21.4952828 19.9700113,21.7119013 20.6050076,21.8742109 C21.1739421,22.019549 21.7580029,22.1065666 22.3361984,22.2151845 C22.8989589,22.3207166 23.4620281,22.427483 24.0269495,22.5191293 C24.1346858,22.5364094 24.2729835,22.5182035 24.3640501,22.4623518 C25.2382891,21.9263598 26.1048106,21.3783335 26.9744191,20.8349358 C28.5762645,19.832998 30.1787272,18.8329117 31.7799552,17.8303568 C33.0098169,17.0601576 34.2362828,16.2853299 35.4670705,15.5172908 C36.2582692,15.0232648 37.048233,14.5270788 37.8511623,14.0521844 C38.3145213,13.7778626 38.7859065,13.9154864 39.2288913,14.1308706 C39.7342335,14.3768036 39.7453467,14.4804842 39.3128578,14.8217664 C37.2013483,16.4892969 35.0864432,18.1525074 32.9724641,19.8166436 C31.4468677,21.0176112 29.9209626,22.2176531 28.3712875,23.4368265 C28.4293232,23.470461 28.4679107,23.5074898 28.5126722,23.5170556 C29.360363,23.7000396 30.2043494,23.9067837 31.0585228,24.0508875 C31.6521533,24.1511738 32.2599841,24.1653682 32.8616408,24.2172085 C33.4481712,24.267506 33.9880878,24.4646844 34.5187435,24.7093831 C34.7221769,24.8031894 34.9586413,24.8303438 35.1827576,24.8738527 C35.3713735,24.9105729 35.563385,24.9386531 35.7550878,24.948836 C35.9560517,24.9596361 36.026744,25.0719568 36.0279788,25.2478436 C36.0292136,25.4237305 36.1119453,25.5196968 36.2693824,25.5990001 C36.6688405,25.7998814 37.0581114,26.0208199 37.4495433,26.237747 C37.5687016,26.3037817 37.7264474,26.3614849 37.6838467,26.5392232 C37.6390852,26.7262187 37.6452592,26.9598087 37.4121906,27.0378778 C37.1735653,27.1177983 36.9269138,27.1733415 36.6345747,27.2526449 C37.7097776,28.07129 38.747319,28.8609293 39.8104825,29.6700087 C39.7404075,29.6940774 39.7055244,29.7181461 39.6724935,29.7156776 C38.9927356,29.6629115 38.3123604,29.6172426 37.6344547,29.5484308 C37.214005,29.5061562 36.9546968,29.1722798 36.6493923,28.933444 C36.164733,28.5542074 35.6976696,28.153062 35.1852272,27.7300079 C35.1707183,27.8555972 35.1565181,27.9419978 35.1518876,28.0290155 C35.1145349,28.74182 35.0685386,29.4546245 35.0484731,30.1680461 C35.0422991,30.3896018 34.9577152,30.440825 34.7690994,30.4028705 C34.345254,30.3177042 33.9201738,30.2365494 33.498798,30.1399659 C33.336113,30.1026286 33.2339332,30.0995428 33.1481146,30.2822183 C32.7770569,31.0703147 32.3890207,31.8503882 32.0056151,32.6326217 C31.8738001,32.9023148 31.7432199,33.1726251 31.599983,33.4358382 C31.5722,33.4876785 31.4826769,33.5484675 31.4329762,33.5395188 C30.6958001,33.4071409 29.9604762,33.2636542 29.1816256,33.1143047 C30.1994102,31.1030235 31.2026858,29.1210567 32.2189269,27.1128611 C32.1343431,27.078918 32.07569,27.0455921 32.0127152,27.0317063 C30.9020118,26.7894762 29.7906911,26.5512576 28.6799877,26.3084103 C27.7440087,26.1038262 26.8074123,25.9001677 25.8735941,25.684475 C25.5105627,25.600543 25.1867362,25.667812 24.8502529,25.8156186 C23.5367335,26.393268 22.2182749,26.9601173 20.8954945,27.5158579 C19.651124,28.0388898 18.40521,28.5591445 17.1481827,29.0510105 C16.0563101,29.4783846 14.9456067,29.8579299 13.8478688,30.2711096 C13.2820213,30.4840253 12.7732833,30.2692582 12.257754,30.0955314 C12.1154432,30.0477025 12.129026,29.8554613 12.2876979,29.749312 C12.4732267,29.6246484 12.6707949,29.5188077 12.8637325,29.4052527 C14.6501806,28.3530175 16.4434201,27.3118909 18.2202985,26.2436099 C18.9327786,25.8150015 19.6103756,25.3283813 20.3006292,24.8633612 C20.3768782,24.812138 20.4321355,24.7300575 20.5423415,24.6149596" id="Imported-Layers" fill="#FFFFFF" sketch:type="MSShapeGroup"></path>
            </g>
        </g>
    </g>
</svg>