<?xml version="1.0" encoding="UTF-8" standalone="no"?>
<svg width="47.5px" height="47.5px" viewBox="0 0 47.5 47.5" version="1.1" xmlns="http://www.w3.org/2000/svg" xmlns:xlink="http://www.w3.org/1999/xlink" xmlns:sketch="http://www.bohemiancoding.com/sketch/ns">
    <!-- Generator: Sketch 3.3.1 (12005) - http://www.bohemiancoding.com/sketch -->
    <title>baby</title>
    <desc>Created with Sketch.</desc>
    <defs></defs>
    <g id="Markers" stroke="none" stroke-width="1" fill="none" fill-rule="evenodd" sketch:type="MSPage">
        <g id="Artboard-1" sketch:type="MSArtboardGroup" transform="translate(-1367.000000, -132.000000)">
            <g id="baby" sketch:type="MSLayerGroup" transform="translate(1367.000000, 132.000000)">
                <path d="M46.3266914,23.8194689 C46.3266914,36.3644395 36.1993939,46.5358662 23.7062588,46.5358662 C11.2131238,46.5358662 1.08372516,36.3644395 1.08372516,23.8194689 C1.08372516,11.2744984 11.2131238,1.10518151 23.7062588,1.10518151 C36.1993939,1.10518151 46.3266914,11.2744984 46.3266914,23.8194689" id="Fill-50" fill="#93D1D2" sketch:type="MSShapeGroup"></path>
                <path d="M46.3266914,23.8194689 L45.2761418,23.8194689 C45.2761418,29.8050191 42.8640801,35.2124795 38.9581369,39.1367387 C35.0521938,43.0567783 29.6649758,45.478848 23.7062588,45.4809578 C17.7454408,45.478848 12.3603238,43.0567783 8.45227958,39.1367387 C4.54843752,35.2124795 2.13637579,29.8050191 2.13427469,23.8194689 C2.13637579,17.8360286 4.54843752,12.4264583 8.45227958,8.50430895 C12.3603238,4.58215956 17.7454408,2.1600899 23.7062588,2.1600899 C29.6649758,2.1600899 35.0521938,4.58215956 38.9581369,8.50430895 C42.8640801,12.4264583 45.2761418,17.8360286 45.2761418,23.8194689 L47.3772409,23.8194689 C47.3772409,10.6921889 36.7792972,0.0502731231 23.7062588,0.0502731231 C10.6311193,0.0502731231 0.0352767239,10.6921889 0.0331756248,23.8194689 C0.0352767239,36.9488587 10.6311193,47.5886648 23.7062588,47.5907746 C36.7792972,47.5886648 47.3772409,36.9488587 47.3772409,23.8194689 L46.3266914,23.8194689" id="Fill-51" fill="#1A1918" sketch:type="MSShapeGroup"></path>
                <path d="M39.1976622,20.3509302 L38.6997017,20.3931265 L37.8382511,20.5218253 L37.5840181,19.6842281 C35.968273,14.3611603 31.25971,10.4769876 25.7569315,9.6921358 C24.3954193,9.64150019 22.9813796,9.7427714 21.695507,10.1942722 C20.508386,10.6120159 18.5921837,12.1353036 20.0797618,13.4771471 C21.2605795,14.5383849 23.4856434,14.894944 24.9942325,14.4582119 C25.8031557,14.2261321 26.8684129,13.4961354 25.7107073,12.856861 C24.8681666,12.3905915 24.0676478,12.4180191 23.1872873,12.7682487 C21.9728521,13.2513967 21.4517795,11.2871573 22.649406,10.8103387 C24.1285797,10.21959 25.937626,10.3714968 27.1835778,11.4327346 C28.0744438,12.1901589 28.7278856,13.5910772 27.9925009,14.698731 C26.3599469,17.1566676 22.4897224,17.0089804 20.0986717,15.8781186 C18.1803683,14.9708974 17.0268649,12.6458793 17.8757089,10.7618129 C14.0790229,12.4180191 11.0576424,15.6333798 9.82639837,19.6842281 L9.57216539,20.5218253 L8.71071477,20.3931265 L8.21275429,20.3509302 C6.34697832,20.3509302 4.82788369,21.8742179 4.82788369,23.7477352 C4.82788369,25.6212525 6.34697832,27.14665 8.21275429,27.14665 C8.35773013,27.14665 8.51741366,27.1339911 8.71281587,27.1044537 L9.57426649,26.9778647 L9.82639837,27.8133521 C11.641748,33.7883532 17.348333,37.959461 23.7041577,37.959461 C30.0620835,37.959461 35.7686685,33.7883532 37.5840181,27.8133521 L37.83615,26.9778647 L38.6954995,27.1044537 C38.8930029,27.1339911 39.0526864,27.14665 39.1976622,27.14665 C41.0634382,27.14665 42.5825328,25.6212525 42.5825328,23.7477352 C42.5825328,21.8742179 41.0655393,20.3509302 39.1976622,20.3509302 L39.1976622,20.3509302 Z M17.2495814,23.8194689 C16.3040868,23.8194689 15.5371856,23.0514956 15.5371856,22.1020781 C15.5371856,21.1526605 16.3040868,20.3846872 17.2495814,20.3846872 C18.1929749,20.3846872 18.959876,21.1526605 18.959876,22.1020781 C18.959876,23.0514956 18.1929749,23.8194689 17.2495814,23.8194689 L17.2495814,23.8194689 Z M23.5360698,30.5708826 C22.2312873,30.5708826 22.2312873,28.5391291 23.5360698,28.5391291 C24.8408523,28.5391291 24.8408523,30.5708826 23.5360698,30.5708826 L23.5360698,30.5708826 Z M30.5663473,23.8194689 C29.6229538,23.8194689 28.8560526,23.0514956 28.8560526,22.1020781 C28.8560526,21.1526605 29.6229538,20.3846872 30.5663473,20.3846872 C31.5118418,20.3846872 32.278743,21.1526605 32.278743,22.1020781 C32.278743,23.0514956 31.5118418,23.8194689 30.5663473,23.8194689 L30.5663473,23.8194689 Z" id="Fill-52" fill="#FFFFFF" sketch:type="MSShapeGroup"></path>
            </g>
        </g>
    </g>
</svg>