<?xml version="1.0" encoding="UTF-8" standalone="no"?>
<svg width="47.5px" height="47.5px" viewBox="0 0 47.5 47.5" version="1.1" xmlns="http://www.w3.org/2000/svg" xmlns:xlink="http://www.w3.org/1999/xlink" xmlns:sketch="http://www.bohemiancoding.com/sketch/ns">
    <!-- Generator: Sketch 3.3.1 (12005) - http://www.bohemiancoding.com/sketch -->
    <title>babyClothes</title>
    <desc>Created with Sketch.</desc>
    <defs></defs>
    <g id="Markers" stroke="none" stroke-width="1" fill="none" fill-rule="evenodd" sketch:type="MSPage">
        <g id="Artboard-1" sketch:type="MSArtboardGroup" transform="translate(-771.000000, -726.000000)">
            <g id="babyClothes" sketch:type="MSLayerGroup" transform="translate(771.000000, 726.000000)">
                <g id="Fill-1-+-Fill-2-Copy" sketch:type="MSShapeGroup">
                    <path d="M23.76779,46.4791199 C11.2746549,46.4791199 1.14735742,36.3473282 1.14735742,23.848649 C1.14735742,11.3499699 11.2746549,1.21607614 23.76779,1.21607614 C36.260925,1.21607614 46.3882225,11.3499699 46.3882225,23.848649 C46.3882225,36.3473282 36.260925,46.4791199 23.76779,46.4791199 Z" id="Fill-1" fill="#8387BD"></path>
                    <path d="M46.3882225,23.848649 L45.337673,23.848649 C45.337673,29.8100103 42.9256113,35.199619 39.0196681,39.1072955 C35.1137249,43.014972 29.728608,45.4281042 23.76779,45.4281042 C17.8069719,45.4281042 12.421855,43.014972 8.51591185,39.1072955 C4.60996868,35.199619 2.19790696,29.8100103 2.19790696,23.848649 C2.19790696,17.8851857 4.60996868,12.4976791 8.51591185,8.58790052 C12.421855,4.68232604 17.8069719,2.26919391 23.76779,2.26709188 C29.728608,2.26919391 35.1137249,4.68232604 39.0196681,8.58790052 C42.9256113,12.4976791 45.337673,17.8851857 45.337673,23.848649 L47.4387721,23.848649 C47.4387721,10.7677072 36.8408284,0.167162433 23.76779,0.165060401 C10.6947516,0.167162433 0.0968078892,10.7677072 0.0968078892,23.848649 C0.0968078892,36.9274889 10.6947516,47.5301356 23.76779,47.5301356 C36.8408284,47.5301356 47.4387721,36.9274889 47.4387721,23.848649 L46.3882225,23.848649" id="Fill-2" fill="#1A1918"></path>
                </g>
                <path d="M16.6286359,18.5761119 C16.250216,18.9549133 16.0285763,19.0003974 15.5994386,18.6781674 C14.7970314,18.0757868 13.9951479,17.4726204 13.1944866,16.8679699 C13.1050101,16.8003985 13.0246123,16.7207795 12.8934093,16.6058907 C13.4733039,16.05851 14.0206378,15.5218674 14.589446,15.0091454 C15.8005642,13.9173523 17.0424971,12.859956 18.4869523,12.0831468 C18.9429766,11.8378295 19.4464889,11.6757105 19.9383911,11.5045995 C20.1983529,11.4141551 20.3787897,11.5037265 20.5053662,11.7979327 C20.9523992,12.8372576 21.6146121,13.6993603 22.6390955,14.2482251 C23.5249558,14.7228836 24.3752002,14.682463 25.0892658,13.9806459 C25.6959597,13.384289 26.2111694,12.6939957 26.7560591,12.0362659 C26.8923252,11.8718771 26.9870393,11.6730042 27.1205992,11.4581551 C30.2095877,12.5374641 32.4916297,14.6446614 34.6065907,17.0905015 C33.4911469,17.7963345 32.4163822,18.4765009 31.4173886,19.1086513 C30.4930316,18.4769374 29.6162498,17.8776996 28.739468,17.2784618 C28.7056852,17.3056998 28.6719024,17.3329379 28.6381196,17.3602633 C28.7449675,18.1465883 28.8551327,18.9325641 28.9580524,19.719413 C29.3919913,23.0373082 29.7153286,26.36437 29.7948535,29.712297 C29.8007022,29.9598842 29.7045041,30.0697095 29.5208374,30.2292094 C29.1331643,30.5656696 28.69198,30.9258758 28.4908545,31.3742565 C28.0415518,32.3756925 27.6982242,33.4283746 27.3703476,34.4785248 C27.2498817,34.8647469 27.0854197,35.1599134 26.7576304,35.3831434 C25.8566681,35.9966987 24.8401285,36.1869288 23.777323,36.2174843 C22.3667379,36.2580795 20.9953479,36.0121511 19.6530267,35.6093417 C19.1890587,35.4701831 18.8830056,35.1436753 18.8143924,34.6127073 C18.6473116,33.319946 18.3218792,32.0731927 17.6217807,30.9516297 C17.5602383,30.8530663 17.5093459,30.7345981 17.4212661,30.6680743 C16.8347372,30.2248444 16.8288012,29.6281383 16.8797809,28.9651704 C17.1504799,25.4428149 17.3301311,21.9119913 17.9247784,18.4220247 C17.9879793,18.0514296 18.081384,17.6859854 18.1607343,17.318184 C18.134808,17.2901602 18.1087944,17.2621364 18.082868,17.2340253 C17.5964654,17.679787 17.0944371,18.1098344 16.6286359,18.5761119 Z" id="Fill-1-Copy" fill="#FFFFFF" sketch:type="MSShapeGroup"></path>
            </g>
        </g>
    </g>
</svg>