<?xml version="1.0" encoding="UTF-8" standalone="no"?>
<svg width="47.5px" height="47.5px" viewBox="0 0 47.5 47.5" version="1.1" xmlns="http://www.w3.org/2000/svg" xmlns:xlink="http://www.w3.org/1999/xlink" xmlns:sketch="http://www.bohemiancoding.com/sketch/ns">
    <!-- Generator: Sketch 3.4.1 (15681) - http://www.bohemiancoding.com/sketch -->
    <title>shower</title>
    <desc>Created with Sketch.</desc>
    <defs></defs>
    <g id="Markers" stroke="none" stroke-width="1" fill="none" fill-rule="evenodd" sketch:type="MSPage">
        <g id="shower" sketch:type="MSLayerGroup">
            <path d="M23.7760478,46.3101019 C11.2829127,46.3101019 1.15351411,36.1770741 1.15351411,23.679463 C1.15351411,11.1818519 11.2829127,1.05092593 23.7760478,1.05092593 C36.2691828,1.05092593 46.3964803,11.1818519 46.3964803,23.679463 C46.3964803,36.1770741 36.2691828,46.3101019 23.7760478,46.3101019 Z" id="Fill-50-Copy-2" fill="#38A0CE" sketch:type="MSShapeGroup"></path>
            <path d="M46.3964803,23.679463 L45.3459308,23.679463 C45.3459308,29.6424167 42.9338691,35.029463 39.0279259,38.9389074 C35.1219827,42.8441481 29.7347647,45.2570741 23.7760478,45.2591759 C17.8152297,45.2570741 12.4301128,42.8441481 8.52206854,38.9389074 C4.61822648,35.029463 2.20616475,29.6424167 2.20406365,23.679463 C2.20616475,17.7186111 4.61822648,12.329463 8.52206854,8.42212037 C12.4301128,4.51477778 17.8152297,2.10185185 23.7760478,2.10185185 C29.7347647,2.10185185 35.1219827,4.51477778 39.0279259,8.42212037 C42.9338691,12.329463 45.3459308,17.7186111 45.3459308,23.679463 L47.4470298,23.679463 C47.4470298,10.6017407 36.8490862,0 23.7760478,0 C10.7009083,0 0.105065681,10.6017407 0.102964581,23.679463 C0.105065681,36.759287 10.7009083,47.3589259 23.7760478,47.3610278 C36.8490862,47.3589259 47.4470298,36.759287 47.4470298,23.679463 L46.3964803,23.679463" id="Fill-51-Copy-2" fill="#1A1918" sketch:type="MSShapeGroup"></path>
            <g id="Imported-Layers" transform="translate(12.824811, 11.673730)" fill="#FFFFFF" sketch:type="MSShapeGroup">
                <path d="M8.32247793,7.66950102 C7.89263508,7.44214057 7.54323769,7.51999255 7.35967798,7.86987022 C7.20157266,8.17128851 7.33431965,8.54484356 7.65437247,8.69891461 C8.01707339,8.87354126 8.32886554,8.69612903 8.56246952,8.17244116 C8.77316455,8.31541794 9.01863123,8.3988891 9.22745321,8.23434814 C9.40039892,8.09814319 9.51182187,7.88384612 9.66219483,7.68900004 C10.1552414,7.88197306 10.3860118,7.76344209 10.6152933,7.14735002 C11.1892656,7.28336286 11.4370856,7.12689046 11.5514382,6.55628009 C12.0438124,6.7265843 12.3756318,6.61280802 12.4994458,6.23118442 C12.6101483,5.88980755 12.4363381,5.5555387 12.0952494,5.45381723 C11.6983052,5.3355264 11.4209004,5.54612538 11.2880094,6.06664346 C10.6825313,5.8897115 10.4518089,6.01376558 10.3052301,6.53875018 C10.0659589,6.5716968 9.82015607,6.54331276 9.65547103,6.64556253 C9.48996953,6.74829257 9.40524966,6.98108008 9.27744946,7.16804972 C8.78627596,6.97464445 8.49100514,7.11277049 8.32247793,7.66950102 L8.32247793,7.66950102 Z M9.79623856,17.776187 C9.47791472,17.7689349 9.17817737,18.0567615 9.168668,18.3787354 C9.15915863,18.7003251 9.43906076,18.9999183 9.76204324,19.0138462 C10.0893482,19.0279662 10.4013324,18.7306302 10.4051266,18.4009239 C10.4088246,18.084185 10.115667,17.783391 9.79623856,17.776187 L9.79623856,17.776187 Z M13.7835473,19.0875198 C13.7804255,18.7685716 13.4865955,18.4889096 13.1550642,18.4893899 C12.8377009,18.4898702 12.5508828,18.7830758 12.5463203,19.1116775 C12.5419018,19.4310099 12.8593611,19.7331006 13.1911806,19.7253202 C13.5064787,19.717924 13.7867651,19.4161215 13.7835473,19.0875198 L13.7835473,19.0875198 Z M15.1655761,15.5675151 C14.8437462,15.5644414 14.5670139,15.8465528 14.5588493,16.1860566 C14.5510209,16.5140819 14.8510944,16.8020526 15.1969858,16.7984026 C15.5163662,16.7950407 15.7924262,16.5020751 15.7924742,16.1665096 C15.7925223,15.846841 15.503591,15.570781 15.1655761,15.5675151 L15.1655761,15.5675151 Z M13.1367178,9.89820016 C13.4701222,9.89397377 13.7298529,9.61921054 13.7273555,9.27355926 C13.7248581,8.93645681 13.4582595,8.68287354 13.1054522,8.68196103 C12.7595127,8.68109654 12.4924338,8.96234343 12.5027597,9.3166396 C12.5125572,9.6513407 12.786552,9.90271471 13.1367178,9.89820016 L13.1367178,9.89820016 Z M15.9803564,17.1006373 C15.6589108,17.1004932 15.3840995,17.3857744 15.3797771,17.7241256 C15.3756467,18.0528233 15.6786499,18.3385367 16.0231486,18.3307083 C16.3437777,18.3234081 16.6144586,18.0295301 16.6104724,17.693052 C16.6066782,17.3701176 16.3201964,17.1007814 15.9803564,17.1006373 L15.9803564,17.1006373 Z M11.3739779,13.5923512 C11.055462,13.5907663 10.7702769,13.88037 10.7646097,14.2112289 C10.7590385,14.5344515 11.0692938,14.8349092 11.4032745,14.8296743 C11.7149226,14.8247755 12.0022209,14.519419 12.0013084,14.1939871 C12.0003958,13.8784489 11.7038763,13.5940322 11.3739779,13.5923512 L11.3739779,13.5923512 Z M21.8322225,13.880514 C21.838466,13.540626 21.5788313,13.2727307 21.2334202,13.2625969 C20.8930519,13.2526073 20.6234756,13.5091202 20.6106524,13.8552998 C20.597637,14.2066183 20.8635632,14.4814295 21.2203088,14.4851757 C21.5602448,14.4888257 21.8258829,14.2263094 21.8322225,13.880514 L21.8322225,13.880514 Z M17.1542836,13.2010742 C17.1545238,12.8656527 16.8874929,12.6047213 16.5397284,12.600735 C16.2041628,12.5968928 15.9432314,12.8628191 15.9387649,13.213225 C15.9343464,13.5617099 16.2072846,13.8289329 16.5638861,13.8251868 C16.8990194,13.8216808 17.1539474,13.5521525 17.1542836,13.2010742 L17.1542836,13.2010742 Z M11.3363247,12.5939632 C11.3394464,12.275015 11.0528685,11.9923753 10.7190799,11.9852193 C10.3931678,11.9782073 10.0976088,12.2825072 10.1019793,12.6206182 C10.1060136,12.9382217 10.4009962,13.2158665 10.7338243,13.2153863 C11.0553659,13.214954 11.3330588,12.9285202 11.3363247,12.5939632 L11.3363247,12.5939632 Z M15.404415,11.2786441 C15.0690895,11.282006 14.8095509,11.5535994 14.8105115,11.9000672 C14.811472,12.2441816 15.0927669,12.5040084 15.4544112,12.4948352 C15.7881998,12.4864304 16.0431278,12.2085935 16.0352034,11.8619816 C16.027471,11.5267522 15.7553973,11.2750901 15.404415,11.2786441 L15.404415,11.2786441 Z M12.6415581,7.91818552 C12.6427587,7.58065082 12.3786575,7.31909505 12.0315654,7.31400418 C11.6885076,7.30900935 11.4217169,7.58814306 11.4257032,7.94781826 C11.4294012,8.28127065 11.703396,8.54128955 12.0491914,8.53951255 C12.3858136,8.5378316 12.6403574,8.27084876 12.6415581,7.91818552 L12.6415581,7.91818552 Z M18.1581468,15.8604807 C18.1407129,16.1984476 18.3917027,16.4694167 18.7411001,16.4898762 C19.0898732,16.5102878 19.3671338,16.2514215 19.3809176,15.8926108 C19.3936448,15.5595907 19.1309844,15.2863163 18.7852371,15.2729167 C18.4463096,15.2598053 18.1760609,15.5130043 18.1581468,15.8604807 L18.1581468,15.8604807 Z M10.0423776,19.4970952 C9.72246888,19.4978156 9.42594936,19.790541 9.42205916,20.1095853 C9.41826501,20.4233465 9.71512073,20.7275024 10.0327242,20.7351867 C10.3583962,20.7430632 10.6655297,20.4361698 10.6613993,20.1070879 C10.6573651,19.7840574 10.3654081,19.4963748 10.0423776,19.4970952 L10.0423776,19.4970952 Z M19.1892893,11.6132011 C19.1905861,11.2710078 18.9297507,11.0101244 18.5822744,11.0060421 C18.2402732,11.0020558 17.976172,11.2610661 17.9690639,11.6074378 C17.9618118,11.9603412 18.2315803,12.2299175 18.5885659,12.2265556 C18.9331126,12.2233378 19.1879926,11.9630788 19.1892893,11.6132011 L19.1892893,11.6132011 Z M20.5320319,12.7204667 C20.535682,12.3775529 20.2781125,12.1155649 19.9302039,12.1082168 C19.5889231,12.1010127 19.3227087,12.35815 19.3122388,12.7050019 C19.3016728,13.0571849 19.5685596,13.3278658 19.926842,13.32825 C20.2717249,13.3286342 20.5283338,13.0709206 20.5320319,12.7204667 L20.5320319,12.7204667 Z M8.77815938,12.6673486 C8.451815,12.6695099 8.16581342,12.9545509 8.16446866,13.2789262 C8.16317193,13.6021968 8.44874127,13.8901675 8.77470142,13.8942018 C9.10897027,13.8983801 9.40971619,13.5995073 9.40260817,13.2703773 C9.39559621,12.947635 9.10311096,12.6651874 8.77815938,12.6673486 L8.77815938,12.6673486 Z M13.2310911,6.55695247 C12.8861603,6.56141899 12.6323849,6.82244646 12.6332974,7.17174781 C12.6342579,7.52469921 12.9084929,7.7866392 13.266247,7.77640942 C13.6097371,7.76656386 13.8562603,7.50131 13.8497286,7.1485507 C13.843341,6.80165071 13.5826978,6.55238989 13.2310911,6.55695247 L13.2310911,6.55695247 Z M17.2336244,11.1031529 C17.5859995,11.1125182 17.8449618,10.8722385 17.861243,10.52092 C17.8774282,10.1706581 17.6120783,9.89479024 17.2548044,9.89056385 C16.9069919,9.88648154 16.6481737,10.1377115 16.6395288,10.4877813 C16.631028,10.8353056 16.880529,11.0937876 17.2336244,11.1031529 L17.2336244,11.1031529 Z M11.6438904,10.8128769 C11.9726842,10.8159507 12.2410598,10.5433487 12.2477836,10.1995704 C12.2541712,9.87178524 11.9821455,9.60047996 11.6384153,9.59169099 C11.3001122,9.58309414 11.0206903,9.86573382 11.0203061,10.2170523 C11.0199219,10.5417157 11.3004004,10.8096591 11.6438904,10.8128769 L11.6438904,10.8128769 Z M8.53538221,14.9836973 C8.5373033,15.3061995 8.82796351,15.5984446 9.14844858,15.6000775 C9.4679731,15.6017105 9.76074651,15.3109542 9.76506895,14.9877316 C9.76948744,14.6530785 9.47263173,14.3555024 9.14047607,14.3616499 C8.81720544,14.3676052 8.5334131,14.6593701 8.53538221,14.9836973 L8.53538221,14.9836973 Z M8.20678057,10.4719323 C8.52678536,10.4694829 8.82292066,10.1744522 8.82455359,9.85656064 C8.82618651,9.53088864 8.51223314,9.22476369 8.18713747,9.2350415 C7.86482737,9.24522325 7.58093899,9.54251121 7.58617394,9.86434103 C7.59145693,10.1877558 7.88418231,10.4743817 8.20678057,10.4719323 L8.20678057,10.4719323 Z M15.2718121,9.4196578 C15.2655686,9.76843085 15.5143491,10.0280655 15.8638426,10.0373828 C16.2141525,10.0467481 16.4732108,9.8021459 16.4850255,9.45087544 C16.4973205,9.08538895 16.2502208,8.82805957 15.8831495,8.82412134 C15.5309665,8.8203272 15.2781036,9.06661034 15.2718121,9.4196578 L15.2718121,9.4196578 Z M9.56926232,9.94603519 C9.88787433,9.94036799 10.1672482,9.64375241 10.1647027,9.313806 C10.1623014,9.00018882 9.86160349,8.71274642 9.53463476,8.71144969 C9.21093188,8.71020098 8.9215684,9.02108062 8.93069355,9.36029626 C8.93924238,9.67924446 9.23653034,9.95194253 9.56926232,9.94603519 L9.56926232,9.94603519 Z M9.45500577,17.3047046 C9.77760403,17.3061934 10.0720104,17.0193274 10.0778216,16.6979778 C10.0835369,16.3795099 9.79465366,16.082318 9.47191132,16.0746336 C9.13788261,16.0666611 8.83680051,16.3608754 8.83900975,16.693079 C8.84117098,17.0161096 9.13034235,17.3032638 9.45500577,17.3047046 L9.45500577,17.3047046 Z M14.2774583,11.2106857 C14.6142246,11.2043941 14.8653104,10.9342415 14.8614202,10.5822987 C14.8577702,10.246541 14.5878096,9.98949974 14.2401892,9.99070042 C13.8954505,9.9919011 13.6313973,10.2747329 13.6418672,10.6315265 C13.6516647,10.9655552 13.9278208,11.2171693 14.2774583,11.2106857 L14.2774583,11.2106857 Z M10.8278134,9.27644089 C11.1582881,9.27951463 11.4256071,9.00960213 11.4328112,8.66553575 C11.4398712,8.32761683 11.1570394,8.05463061 10.8015425,8.05626353 C10.4741416,8.05775237 10.2088877,8.33650185 10.2079752,8.67994389 C10.2071107,9.00820935 10.4825463,9.27322307 10.8278134,9.27644089 L10.8278134,9.27644089 Z M14.5367088,8.93491994 C14.8850976,8.936793 15.1383927,8.68537095 15.1436277,8.33246757 C15.1488146,7.98052474 14.9032519,7.72843031 14.5482833,7.7213223 C14.1868311,7.71402217 13.9265721,7.97058312 13.9278208,8.33289982 C13.9290695,8.67946362 14.1855344,8.93304688 14.5367088,8.93491994 L14.5367088,8.93491994 Z M14.9057973,14.6651333 C14.903492,14.3390771 14.6224372,14.0724305 14.2809163,14.0722864 C13.944198,14.0720943 13.6757744,14.3615058 13.6836028,14.7162822 C13.6907108,15.0388805 13.9817552,15.3055752 14.3201544,15.2995237 C14.6448659,15.2937605 14.9081506,15.0085273 14.9057973,14.6651333 L14.9057973,14.6651333 Z M18.2954083,14.5113985 C18.2939195,14.1747283 18.027513,13.91932 17.6761465,13.917639 C17.3353459,13.9160061 17.0801777,14.1753526 17.0754711,14.5281599 C17.0708605,14.8753961 17.3446632,15.1390651 17.7047706,15.1340703 C18.0414889,15.1294116 18.2969932,14.8600274 18.2954083,14.5113985 L18.2954083,14.5113985 Z M9.07343019,11.5651739 C9.06805116,11.2452172 8.76985068,10.9524438 8.45157487,10.954557 C8.13353919,10.9566702 7.83634728,11.253718 7.83418606,11.5716576 C7.83197681,11.89805 8.14396107,12.2031184 8.47011334,12.1934649 C8.79088657,12.1839555 9.07885726,11.8840741 9.07343019,11.5651739 L9.07343019,11.5651739 Z M10.7126923,10.9635861 C10.7112035,10.6428128 10.4232808,10.3671371 10.0880994,10.3654561 C9.75834515,10.3638232 9.4708067,10.6668264 9.47978777,11.0064743 C9.48824055,11.324558 9.78572062,11.5974482 10.119125,11.5929817 C10.4403304,11.5886592 10.7142772,11.2981911 10.7126923,10.9635861 L10.7126923,10.9635861 Z M12.6009751,15.8250366 C12.6013594,15.5050318 12.3134367,15.2254659 11.9798882,15.2220079 C11.6581065,15.2186941 11.3792129,15.5019581 11.3734977,15.8379079 C11.3678785,16.1689589 11.6645901,16.459427 12.0047183,16.455873 C12.3213131,16.4525592 12.6005429,16.1570962 12.6009751,15.8250366 L12.6009751,15.8250366 Z M12.5201935,12.3088741 C12.8534538,12.3129564 13.1176991,12.0471262 13.1250472,11.7003703 C13.1322513,11.3601941 12.8525893,11.0871119 12.498101,11.0881685 C12.1711803,11.089129 11.9063107,11.3665818 11.9040054,11.7105041 C11.9017961,12.039634 12.1746863,12.3046477 12.5201935,12.3088741 L12.5201935,12.3088741 Z M13.2232147,17.4388924 C13.2192765,17.1161981 12.9328426,16.8461415 12.5949237,16.8466218 C12.262576,16.847054 11.9851712,17.1453506 11.9955931,17.4910979 C12.0052946,17.8131679 12.2972515,18.0781336 12.6349303,18.0713137 C12.9572404,18.06483 13.227249,17.774554 13.2232147,17.4388924 L13.2232147,17.4388924 Z M14.0438543,13.167071 C14.0464478,12.8381331 13.7729333,12.5714865 13.4275701,12.5663476 C13.0978158,12.5614008 12.8282876,12.8319376 12.8203631,13.1757639 C12.8125347,13.5142591 13.0937335,13.7885901 13.4482218,13.7884941 C13.7749504,13.78835 14.0411168,13.5106571 14.0438543,13.167071 L14.0438543,13.167071 Z" id="Fill-1"></path>
                <path d="M0,3.74611643 C0.0395263311,3.54291363 0.0649326849,3.3357726 0.120836269,3.13718041 C0.592414695,1.46103344 1.74400931,0.468600744 3.39287687,0.110174245 C5.08266354,-0.257185301 6.46997533,0.344114414 7.5340645,1.70371454 C7.60528874,1.79467793 7.72454012,1.87248189 7.8362032,1.90369953 C9.07554339,2.25011924 10.3178132,2.58606905 11.5593146,2.92490047 C11.6209815,2.94170997 11.6829845,2.95755893 11.744123,2.97624148 C11.9964576,3.05318095 12.1594617,3.21632912 12.195386,3.48115074 C12.2327511,3.75658635 12.1144603,3.96387146 11.8773503,4.10151722 C11.2410869,4.47079786 10.6033826,4.83753305 9.96639869,5.20542089 C8.5677525,6.01328531 7.17136359,6.82508795 5.76738639,7.62358708 C5.61739765,7.70888327 5.41693239,7.76968562 5.2510947,7.74961028 C4.87480211,7.7039845 4.68519098,7.3476712 4.79291584,6.95192761 C5.14140073,5.67171634 5.48537106,4.3901603 5.85157795,3.11499187 C5.92496341,2.85934344 5.88519695,2.65493996 5.69270419,2.52070412 C5.45612253,2.35568288 5.191445,2.16621584 4.91999564,2.13043563 C4.47584071,2.07189055 4.00584717,2.06996947 3.56567849,2.14926226 C2.61493335,2.32052702 2.1365831,2.91298974 2.07707748,3.87905554 C2.06924906,4.00666364 2.07083395,4.13499214 2.07083395,4.26298445 C2.07059382,10.3998436 2.06444635,16.5367027 2.07952687,22.6735138 C2.08115979,23.3300447 1.88535316,23.7893282 1.24870548,24.0135669 L0.864488408,24.0135669 C0.418028172,23.8837015 0.137117467,23.5882866 0,23.1490785 L0,3.74611643" id="Fill-2"></path>
                <path d="M8.32247793,7.66950102 C8.49100514,7.11277049 8.78627596,6.97464445 9.27744946,7.16804972 C9.40524966,6.98108008 9.48996953,6.74829257 9.65547103,6.64556253 C9.82015607,6.54331276 10.0659589,6.5716968 10.3052301,6.53875018 C10.4518089,6.01376558 10.6825313,5.8897115 11.2880094,6.06664346 C11.4209004,5.54612538 11.6983052,5.3355264 12.0952494,5.45381723 C12.4363381,5.5555387 12.6101483,5.88980755 12.4994458,6.23118442 C12.3756318,6.61280802 12.0438124,6.7265843 11.5514382,6.55628009 C11.4370856,7.12689046 11.1892656,7.28336286 10.6152933,7.14735002 C10.3860118,7.76344209 10.1552414,7.88197306 9.66219483,7.68900004 C9.51182187,7.88384612 9.40039892,8.09814319 9.22745321,8.23434814 C9.01863123,8.3988891 8.77316455,8.31541794 8.56246952,8.17244116 C8.32886554,8.69612903 8.01707339,8.87354126 7.65437247,8.69891461 C7.33431965,8.54484356 7.20157266,8.17128851 7.35967798,7.86987022 C7.54323769,7.51999255 7.89263508,7.44214057 8.32247793,7.66950102" id="Fill-3"></path>
                <path d="M9.79623856,17.776187 C10.115667,17.783391 10.4088246,18.084185 10.4051266,18.4009239 C10.4013324,18.7306302 10.0893482,19.0279662 9.76204324,19.0138462 C9.43906076,18.9999183 9.15915863,18.7003251 9.168668,18.3787354 C9.17817737,18.0567615 9.47791472,17.7689349 9.79623856,17.776187" id="Fill-4"></path>
                <path d="M13.7835473,19.0875198 C13.7867651,19.4161215 13.5064787,19.717924 13.1911806,19.7253202 C12.8593611,19.7331006 12.5419018,19.4310099 12.5463203,19.1116775 C12.5508828,18.7830758 12.8377009,18.4898702 13.1550642,18.4893899 C13.4865955,18.4889096 13.7804255,18.7685716 13.7835473,19.0875198" id="Fill-5"></path>
                <path d="M15.1655761,15.5675151 C15.503591,15.570781 15.7925223,15.846841 15.7924742,16.1665096 C15.7924262,16.5020751 15.5163662,16.7950407 15.1969858,16.7984026 C14.8510944,16.8020526 14.5510209,16.5140819 14.5588493,16.1860566 C14.5670139,15.8465528 14.8437462,15.5644414 15.1655761,15.5675151" id="Fill-6"></path>
                <path d="M13.1367178,9.89820016 C12.786552,9.90271471 12.5125572,9.6513407 12.5027597,9.3166396 C12.4924338,8.96234343 12.7595127,8.68109654 13.1054522,8.68196103 C13.4582595,8.68287354 13.7248581,8.93645681 13.7273555,9.27355926 C13.7298529,9.61921054 13.4701222,9.89397377 13.1367178,9.89820016" id="Fill-7"></path>
                <path d="M15.9803564,17.1006373 C16.3201964,17.1007814 16.6066782,17.3701176 16.6104724,17.693052 C16.6144586,18.0295301 16.3437777,18.3234081 16.0231486,18.3307083 C15.6786499,18.3385367 15.3756467,18.0528233 15.3797771,17.7241256 C15.3840995,17.3857744 15.6589108,17.1004932 15.9803564,17.1006373" id="Fill-8"></path>
                <path d="M11.3739779,13.5923512 C11.7038763,13.5940322 12.0003958,13.8784489 12.0013084,14.1939871 C12.0022209,14.519419 11.7149226,14.8247755 11.4032745,14.8296743 C11.0692938,14.8349092 10.7590385,14.5344515 10.7646097,14.2112289 C10.7702769,13.88037 11.055462,13.5907663 11.3739779,13.5923512" id="Fill-9"></path>
                <path d="M21.8322225,13.880514 C21.8258829,14.2263094 21.5602448,14.4888257 21.2203088,14.4851757 C20.8635632,14.4814295 20.597637,14.2066183 20.6106524,13.8552998 C20.6234756,13.5091202 20.8930519,13.2526073 21.2334202,13.2625969 C21.5788313,13.2727307 21.838466,13.540626 21.8322225,13.880514" id="Fill-10"></path>
                <path d="M17.1542836,13.2010742 C17.1539474,13.5521525 16.8990194,13.8216808 16.5638861,13.8251868 C16.2072846,13.8289329 15.9343464,13.5617099 15.9387649,13.213225 C15.9432314,12.8628191 16.2041628,12.5968928 16.5397284,12.600735 C16.8874929,12.6047213 17.1545238,12.8656527 17.1542836,13.2010742" id="Fill-11"></path>
                <path d="M11.3363247,12.5939632 C11.3330588,12.9285202 11.0553659,13.214954 10.7338243,13.2153863 C10.4009962,13.2158665 10.1060136,12.9382217 10.1019793,12.6206182 C10.0976088,12.2825072 10.3931678,11.9782073 10.7190799,11.9852193 C11.0528685,11.9923753 11.3394464,12.275015 11.3363247,12.5939632" id="Fill-12"></path>
                <path d="M15.404415,11.2786441 C15.7553973,11.2750901 16.027471,11.5267522 16.0352034,11.8619816 C16.0431278,12.2085935 15.7881998,12.4864304 15.4544112,12.4948352 C15.0927669,12.5040084 14.811472,12.2441816 14.8105115,11.9000672 C14.8095509,11.5535994 15.0690895,11.282006 15.404415,11.2786441" id="Fill-13"></path>
                <path d="M12.6415581,7.91818552 C12.6403574,8.27084876 12.3858136,8.5378316 12.0491914,8.53951255 C11.703396,8.54128955 11.4294012,8.28127065 11.4257032,7.94781826 C11.4217169,7.58814306 11.6885076,7.30900935 12.0315654,7.31400418 C12.3786575,7.31909505 12.6427587,7.58065082 12.6415581,7.91818552" id="Fill-14"></path>
                <path d="M18.1581468,15.8604807 C18.1760609,15.5130043 18.4463096,15.2598053 18.7852371,15.2729167 C19.1309844,15.2863163 19.3936448,15.5595907 19.3809176,15.8926108 C19.3671338,16.2514215 19.0898732,16.5102878 18.7411001,16.4898762 C18.3917027,16.4694167 18.1407129,16.1984476 18.1581468,15.8604807" id="Fill-15"></path>
                <path d="M10.0423776,19.4970952 C10.3654081,19.4963748 10.6573651,19.7840574 10.6613993,20.1070879 C10.6655297,20.4361698 10.3583962,20.7430632 10.0327242,20.7351867 C9.71512073,20.7275024 9.41826501,20.4233465 9.42205916,20.1095853 C9.42594936,19.790541 9.72246888,19.4978156 10.0423776,19.4970952" id="Fill-16"></path>
                <path d="M19.1892893,11.6132011 C19.1879926,11.9630788 18.9331126,12.2233378 18.5885659,12.2265556 C18.2315803,12.2299175 17.9618118,11.9603412 17.9690639,11.6074378 C17.976172,11.2610661 18.2402732,11.0020558 18.5822744,11.0060421 C18.9297507,11.0101244 19.1905861,11.2710078 19.1892893,11.6132011" id="Fill-17"></path>
                <path d="M20.5320319,12.7204667 C20.5283338,13.0709206 20.2717249,13.3286342 19.926842,13.32825 C19.5685596,13.3278658 19.3016728,13.0571849 19.3122388,12.7050019 C19.3227087,12.35815 19.5889231,12.1010127 19.9302039,12.1082168 C20.2781125,12.1155649 20.535682,12.3775529 20.5320319,12.7204667" id="Fill-18"></path>
                <path d="M8.77815938,12.6673486 C9.10311096,12.6651874 9.39559621,12.947635 9.40260817,13.2703773 C9.40971619,13.5995073 9.10897027,13.8983801 8.77470142,13.8942018 C8.44874127,13.8901675 8.16317193,13.6021968 8.16446866,13.2789262 C8.16581342,12.9545509 8.451815,12.6695099 8.77815938,12.6673486" id="Fill-19"></path>
                <path d="M13.2310911,6.55695247 C13.5826978,6.55238989 13.843341,6.80165071 13.8497286,7.1485507 C13.8562603,7.50131 13.6097371,7.76656386 13.266247,7.77640942 C12.9084929,7.7866392 12.6342579,7.52469921 12.6332974,7.17174781 C12.6323849,6.82244646 12.8861603,6.56141899 13.2310911,6.55695247" id="Fill-20"></path>
                <path d="M17.2336244,11.1031529 C16.880529,11.0937876 16.631028,10.8353056 16.6395288,10.4877813 C16.6481737,10.1377115 16.9069919,9.88648154 17.2548044,9.89056385 C17.6120783,9.89479024 17.8774282,10.1706581 17.861243,10.52092 C17.8449618,10.8722385 17.5859995,11.1125182 17.2336244,11.1031529" id="Fill-21"></path>
                <path d="M11.6438904,10.8128769 C11.3004004,10.8096591 11.0199219,10.5417157 11.0203061,10.2170523 C11.0206903,9.86573382 11.3001122,9.58309414 11.6384153,9.59169099 C11.9821455,9.60047996 12.2541712,9.87178524 12.2477836,10.1995704 C12.2410598,10.5433487 11.9726842,10.8159507 11.6438904,10.8128769" id="Fill-22"></path>
                <path d="M8.53538221,14.9836973 C8.5334131,14.6593701 8.81720544,14.3676052 9.14047607,14.3616499 C9.47263173,14.3555024 9.76948744,14.6530785 9.76506895,14.9877316 C9.76074651,15.3109542 9.4679731,15.6017105 9.14844858,15.6000775 C8.82796351,15.5984446 8.5373033,15.3061995 8.53538221,14.9836973" id="Fill-23"></path>
                <path d="M8.20678057,10.4719323 C7.88418231,10.4743817 7.59145693,10.1877558 7.58617394,9.86434103 C7.58093899,9.54251121 7.86482737,9.24522325 8.18713747,9.2350415 C8.51223314,9.22476369 8.82618651,9.53088864 8.82455359,9.85656064 C8.82292066,10.1744522 8.52678536,10.4694829 8.20678057,10.4719323" id="Fill-24"></path>
                <path d="M15.2718121,9.4196578 C15.2781036,9.06661034 15.5309665,8.8203272 15.8831495,8.82412134 C16.2502208,8.82805957 16.4973205,9.08538895 16.4850255,9.45087544 C16.4732108,9.8021459 16.2141525,10.0467481 15.8638426,10.0373828 C15.5143491,10.0280655 15.2655686,9.76843085 15.2718121,9.4196578" id="Fill-25"></path>
                <path d="M9.56926232,9.94603519 C9.23653034,9.95194253 8.93924238,9.67924446 8.93069355,9.36029626 C8.9215684,9.02108062 9.21093188,8.71020098 9.53463476,8.71144969 C9.86160349,8.71274642 10.1623014,9.00018882 10.1647027,9.313806 C10.1672482,9.64375241 9.88787433,9.94036799 9.56926232,9.94603519" id="Fill-26"></path>
                <path d="M9.45500577,17.3047046 C9.13034235,17.3032638 8.84117098,17.0161096 8.83900975,16.693079 C8.83680051,16.3608754 9.13788261,16.0666611 9.47191132,16.0746336 C9.79465366,16.082318 10.0835369,16.3795099 10.0778216,16.6979778 C10.0720104,17.0193274 9.77760403,17.3061934 9.45500577,17.3047046" id="Fill-27"></path>
                <path d="M14.2774583,11.2106857 C13.9278208,11.2171693 13.6516647,10.9655552 13.6418672,10.6315265 C13.6313973,10.2747329 13.8954505,9.9919011 14.2401892,9.99070042 C14.5878096,9.98949974 14.8577702,10.246541 14.8614202,10.5822987 C14.8653104,10.9342415 14.6142246,11.2043941 14.2774583,11.2106857" id="Fill-28"></path>
                <path d="M10.8278134,9.27644089 C10.4825463,9.27322307 10.2071107,9.00820935 10.2079752,8.67994389 C10.2088877,8.33650185 10.4741416,8.05775237 10.8015425,8.05626353 C11.1570394,8.05463061 11.4398712,8.32761683 11.4328112,8.66553575 C11.4256071,9.00960213 11.1582881,9.27951463 10.8278134,9.27644089" id="Fill-29"></path>
                <path d="M14.5367088,8.93491994 C14.1855344,8.93304688 13.9290695,8.67946362 13.9278208,8.33289982 C13.9265721,7.97058312 14.1868311,7.71402217 14.5482833,7.7213223 C14.9032519,7.72843031 15.1488146,7.98052474 15.1436277,8.33246757 C15.1383927,8.68537095 14.8850976,8.936793 14.5367088,8.93491994" id="Fill-30"></path>
                <path d="M14.9057973,14.6651333 C14.9081506,15.0085273 14.6448659,15.2937605 14.3201544,15.2995237 C13.9817552,15.3055752 13.6907108,15.0388805 13.6836028,14.7162822 C13.6757744,14.3615058 13.944198,14.0720943 14.2809163,14.0722864 C14.6224372,14.0724305 14.903492,14.3390771 14.9057973,14.6651333" id="Fill-31"></path>
                <path d="M18.2954083,14.5113985 C18.2969932,14.8600274 18.0414889,15.1294116 17.7047706,15.1340703 C17.3446632,15.1390651 17.0708605,14.8753961 17.0754711,14.5281599 C17.0801777,14.1753526 17.3353459,13.9160061 17.6761465,13.917639 C18.027513,13.91932 18.2939195,14.1747283 18.2954083,14.5113985" id="Fill-32"></path>
                <path d="M9.07343019,11.5651739 C9.07885726,11.8840741 8.79088657,12.1839555 8.47011334,12.1934649 C8.14396107,12.2031184 7.83197681,11.89805 7.83418606,11.5716576 C7.83634728,11.253718 8.13353919,10.9566702 8.45157487,10.954557 C8.76985068,10.9524438 9.06805116,11.2452172 9.07343019,11.5651739" id="Fill-33"></path>
                <path d="M10.7126923,10.9635861 C10.7142772,11.2981911 10.4403304,11.5886592 10.119125,11.5929817 C9.78572062,11.5974482 9.48824055,11.324558 9.47978777,11.0064743 C9.4708067,10.6668264 9.75834515,10.3638232 10.0880994,10.3654561 C10.4232808,10.3671371 10.7112035,10.6428128 10.7126923,10.9635861" id="Fill-34"></path>
                <path d="M12.6009751,15.8250366 C12.6005429,16.1570962 12.3213131,16.4525592 12.0047183,16.455873 C11.6645901,16.459427 11.3678785,16.1689589 11.3734977,15.8379079 C11.3792129,15.5019581 11.6581065,15.2186941 11.9798882,15.2220079 C12.3134367,15.2254659 12.6013594,15.5050318 12.6009751,15.8250366" id="Fill-35"></path>
                <path d="M12.5201935,12.3088741 C12.1746863,12.3046477 11.9017961,12.039634 11.9040054,11.7105041 C11.9063107,11.3665818 12.1711803,11.089129 12.498101,11.0881685 C12.8525893,11.0871119 13.1322513,11.3601941 13.1250472,11.7003703 C13.1176991,12.0471262 12.8534538,12.3129564 12.5201935,12.3088741" id="Fill-36"></path>
                <path d="M13.2232147,17.4388924 C13.227249,17.774554 12.9572404,18.06483 12.6349303,18.0713137 C12.2972515,18.0781336 12.0052946,17.8131679 11.9955931,17.4910979 C11.9851712,17.1453506 12.262576,16.847054 12.5949237,16.8466218 C12.9328426,16.8461415 13.2192765,17.1161981 13.2232147,17.4388924" id="Fill-37"></path>
                <path d="M14.0438543,13.167071 C14.0411168,13.5106571 13.7749504,13.78835 13.4482218,13.7884941 C13.0937335,13.7885901 12.8125347,13.5142591 12.8203631,13.1757639 C12.8282876,12.8319376 13.0978158,12.5614008 13.4275701,12.5663476 C13.7729333,12.5714865 14.0464478,12.8381331 14.0438543,13.167071" id="Fill-38"></path>
            </g>
        </g>
    </g>
</svg>