<?xml version="1.0" encoding="UTF-8" standalone="no"?>
<svg width="47.5px" height="47.5px" viewBox="0 0 47.5 47.5" version="1.1" xmlns="http://www.w3.org/2000/svg" xmlns:xlink="http://www.w3.org/1999/xlink" xmlns:sketch="http://www.bohemiancoding.com/sketch/ns">
    <!-- Generator: Sketch 3.3.1 (12005) - http://www.bohemiancoding.com/sketch -->
    <title>book</title>
    <desc>Created with Sketch.</desc>
    <defs></defs>
    <g id="Markers" stroke="none" stroke-width="1" fill="none" fill-rule="evenodd" sketch:type="MSPage">
        <g id="Artboard-1" sketch:type="MSArtboardGroup" transform="translate(-474.000000, -726.000000)">
            <g id="book" sketch:type="MSLayerGroup" transform="translate(474.000000, 726.000000)">
                <g id="Fill-1-+-Fill-2-Copy-2" sketch:type="MSShapeGroup">
                    <path d="M23.76779,46.4791199 C11.2746549,46.4791199 1.14735742,36.3473282 1.14735742,23.848649 C1.14735742,11.3499699 11.2746549,1.21607614 23.76779,1.21607614 C36.260925,1.21607614 46.3882225,11.3499699 46.3882225,23.848649 C46.3882225,36.3473282 36.260925,46.4791199 23.76779,46.4791199 Z" id="Fill-1" fill="#D385D8"></path>
                    <path d="M46.3882225,23.848649 L45.337673,23.848649 C45.337673,29.8100103 42.9256113,35.199619 39.0196681,39.1072955 C35.1137249,43.014972 29.728608,45.4281042 23.76779,45.4281042 C17.8069719,45.4281042 12.421855,43.014972 8.51591185,39.1072955 C4.60996868,35.199619 2.19790696,29.8100103 2.19790696,23.848649 C2.19790696,17.8851857 4.60996868,12.4976791 8.51591185,8.58790052 C12.421855,4.68232604 17.8069719,2.26919391 23.76779,2.26709188 C29.728608,2.26919391 35.1137249,4.68232604 39.0196681,8.58790052 C42.9256113,12.4976791 45.337673,17.8851857 45.337673,23.848649 L47.4387721,23.848649 C47.4387721,10.7677072 36.8408284,0.167162433 23.76779,0.165060401 C10.6947516,0.167162433 0.0968078892,10.7677072 0.0968078892,23.848649 C0.0968078892,36.9274889 10.6947516,47.5301356 23.76779,47.5301356 C36.8408284,47.5301356 47.4387721,36.9274889 47.4387721,23.848649 L46.3882225,23.848649" id="Fill-2" fill="#1A1918"></path>
                </g>
                <g id="Imported-Layers" transform="translate(12.666667, 10.556458)" fill="#FFFFFF" sketch:type="MSShapeGroup">
                    <path d="M8.44600642,0.0479847228 C7.48942496,4.64764462 4.98088803,7.63125687 0.273346179,8.59964046 C0.678028688,9.09090027 0.976366517,9.45493572 1.27652665,9.81728522 C4.22762406,13.3806048 7.18457889,16.9392556 10.122009,20.5138581 C10.4112353,20.8658325 10.6619328,20.9444237 11.0515162,20.7345878 C12.0781263,20.1815963 13.1515958,19.7042131 14.1343404,19.0833946 C16.2025297,17.7766538 17.6666238,15.9358561 18.6644676,13.7128666 C18.8707788,13.2532507 18.8589338,12.9255281 18.5077491,12.5010578 C16.6200985,10.21906 14.7767039,7.90074945 12.9179499,5.59501868 C11.4545065,3.77976958 9.99106316,1.96452049 8.44600642,0.0479847228 L8.44600642,0.0479847228 Z M10.0829595,25.0069141 C10.1285172,24.9964093 10.1739448,24.9859045 10.2193723,24.9753998 C10.2193723,23.7555503 10.2288743,22.5354415 10.2068765,21.3159811 C10.2042732,21.1709894 10.0424783,21.0187352 9.93353029,20.8871014 C6.82961935,17.138068 3.72336545,13.3909799 0.615679726,9.64505897 C0.486035538,9.4887844 0.338558767,9.34703493 0.101528581,9.09414248 C0.101528581,10.2046646 0.0650824235,11.1730482 0.119881824,12.1363739 C0.141228859,12.5114329 0.282978377,12.9426469 0.515062299,13.233149 C2.52623935,15.7511798 4.56982745,18.2434025 6.60495483,20.7424988 C7.7632918,22.1647919 8.92358125,23.5853991 10.0829595,25.0069141 L10.0829595,25.0069141 Z M10.6780732,2.16398131 C10.755261,2.26825082 10.8157876,2.35682802 10.8829527,2.440088 C13.5846542,5.78929196 16.2824509,9.14173813 18.9965181,12.4809561 C19.2599717,12.8051772 19.3250542,13.0740213 19.1795299,13.473332 C18.6609531,14.8961439 17.8360985,16.1216997 16.85817,17.2628282 C15.2950203,19.0868962 13.25755,20.2050699 11.0934292,21.1346766 C10.765544,21.2755183 10.481264,21.3865316 10.7227198,21.8484818 C15.4358587,20.3784633 19.0189064,17.4407608 21.8782376,13.514573 C18.3200514,9.44832161 14.8095055,5.4365394 11.2920608,1.4169759 C11.0737744,1.68257782 10.8962295,1.89863876 10.6780732,2.16398131 L10.6780732,2.16398131 Z M21.8300766,19.3683201 C21.7307609,19.3805108 21.6823395,19.3729889 21.6500587,19.3923124 C18.4719538,21.2951012 14.9701289,22.4209266 11.4763742,23.5510316 C10.7914468,23.7726692 10.5022205,24.0639494 10.6254866,24.7529841 C10.6469638,24.873335 10.6651869,24.9942046 10.6904389,25.1487932 C10.9098968,25.0774646 11.0938197,25.0229954 11.2742282,24.9584106 C14.3032944,23.873048 17.3322304,22.7874261 20.3605155,21.6997292 C21.938504,21.1329907 21.9378531,21.131175 21.8300766,19.3683201 L21.8300766,19.3683201 Z M20.9877799,15.2173822 C20.3430734,15.8940965 19.7478296,16.5509684 19.1183524,17.1734729 C17.511207,18.7625454 15.78431,20.1952136 13.6758998,21.0929169 C12.8021032,21.4649931 11.9103438,21.7953095 11.0335534,22.1607716 C10.8727998,22.2276908 10.7447176,22.3724231 10.6015363,22.4812317 C10.6399349,22.5302539 10.6783335,22.5792762 10.7167322,22.6284281 C15.05786,21.4633071 19.0770901,19.6843708 22.4564299,16.5520059 C21.9578985,16.0990042 21.5135157,15.6951544 20.9877799,15.2173822 L20.9877799,15.2173822 Z M10.6595898,23.2319981 C14.673353,22.3284587 18.4536005,20.888917 21.9175474,18.5403891 C21.7241225,18.325625 21.5731312,18.1578082 21.3991008,17.9644427 C18.1763494,20.5802585 14.4611843,21.9912688 10.6595898,23.2319981 L10.6595898,23.2319981 Z" id="Fill-1"></path>
                    <path d="M8.44600642,0.0479847228 C9.99106316,1.96452049 11.4545065,3.77976958 12.9179499,5.59501868 C14.7767039,7.90074945 16.6200985,10.21906 18.5077491,12.5010578 C18.8589338,12.9255281 18.8707788,13.2532507 18.6644676,13.7128666 C17.6666238,15.9358561 16.2025297,17.7766538 14.1343404,19.0833946 C13.1515958,19.7042131 12.0781263,20.1815963 11.0515162,20.7345878 C10.6619328,20.9444237 10.4112353,20.8658325 10.122009,20.5138581 C7.18457889,16.9392556 4.22762406,13.3806048 1.27652665,9.81728522 C0.976366517,9.45493572 0.678028688,9.09090027 0.273346179,8.59964046 C4.98088803,7.63125687 7.48942496,4.64764462 8.44600642,0.0479847228" id="Fill-2"></path>
                    <path d="M10.0829595,25.0069141 C8.92358125,23.5853991 7.7632918,22.1647919 6.60495483,20.7424988 C4.56982745,18.2434025 2.52623935,15.7511798 0.515062299,13.233149 C0.282978377,12.9426469 0.141228859,12.5114329 0.119881824,12.1363739 C0.0650824235,11.1730482 0.101528581,10.2046646 0.101528581,9.09414248 C0.338558767,9.34703493 0.486035538,9.4887844 0.615679726,9.64505897 C3.72336545,13.3909799 6.82961935,17.138068 9.93353029,20.8871014 C10.0424783,21.0187352 10.2042732,21.1709894 10.2068765,21.3159811 C10.2288743,22.5354415 10.2193723,23.7555503 10.2193723,24.9753998 C10.1739448,24.9859045 10.1285172,24.9964093 10.0829595,25.0069141" id="Fill-3"></path>
                    <path d="M10.6780732,2.16398131 C10.8962295,1.89863876 11.0737744,1.68257782 11.2920608,1.4169759 C14.8095055,5.4365394 18.3200514,9.44832161 21.8782376,13.514573 C19.0189064,17.4407608 15.4358587,20.3784633 10.7227198,21.8484818 C10.481264,21.3865316 10.765544,21.2755183 11.0934292,21.1346766 C13.25755,20.2050699 15.2950203,19.0868962 16.85817,17.2628282 C17.8360985,16.1216997 18.6609531,14.8961439 19.1795299,13.473332 C19.3250542,13.0740213 19.2599717,12.8051772 18.9965181,12.4809561 C16.2824509,9.14173813 13.5846542,5.78929196 10.8829527,2.440088 C10.8157876,2.35682802 10.755261,2.26825082 10.6780732,2.16398131" id="Fill-4"></path>
                    <path d="M21.8300766,19.3683201 C21.9378531,21.131175 21.938504,21.1329907 20.3605155,21.6997292 C17.3322304,22.7874261 14.3032944,23.873048 11.2742282,24.9584106 C11.0938197,25.0229954 10.9098968,25.0774646 10.6904389,25.1487932 C10.6651869,24.9942046 10.6469638,24.873335 10.6254866,24.7529841 C10.5022205,24.0639494 10.7914468,23.7726692 11.4763742,23.5510316 C14.9701289,22.4209266 18.4719538,21.2951012 21.6500587,19.3923124 C21.6823395,19.3729889 21.7307609,19.3805108 21.8300766,19.3683201" id="Fill-5"></path>
                    <path d="M20.9877799,15.2173822 C21.5135157,15.6951544 21.9578985,16.0990042 22.4564299,16.5520059 C19.0770901,19.6843708 15.05786,21.4633071 10.7167322,22.6284281 C10.6783335,22.5792762 10.6399349,22.5302539 10.6015363,22.4812317 C10.7447176,22.3724231 10.8727998,22.2276908 11.0335534,22.1607716 C11.9103438,21.7953095 12.8021032,21.4649931 13.6758998,21.0929169 C15.78431,20.1952136 17.511207,18.7625454 19.1183524,17.1734729 C19.7478296,16.5509684 20.3430734,15.8940965 20.9877799,15.2173822" id="Fill-6"></path>
                    <path d="M10.6595898,23.2319981 C14.4611843,21.9912688 18.1763494,20.5802585 21.3991008,17.9644427 C21.5731312,18.1578082 21.7241225,18.325625 21.9175474,18.5403891 C18.4536005,20.888917 14.673353,22.3284587 10.6595898,23.2319981" id="Fill-7"></path>
                </g>
            </g>
        </g>
    </g>
</svg>