<?xml version="1.0" encoding="UTF-8" standalone="no"?>
<svg width="47.5px" height="47.5px" viewBox="0 0 47.5 47.5" version="1.1" xmlns="http://www.w3.org/2000/svg" xmlns:xlink="http://www.w3.org/1999/xlink" xmlns:sketch="http://www.bohemiancoding.com/sketch/ns">
    <!-- Generator: Sketch 3.3.1 (12005) - http://www.bohemiancoding.com/sketch -->
    <title>train </title>
    <desc>Created with Sketch.</desc>
    <defs></defs>
    <g id="Markers" stroke="none" stroke-width="1" fill="none" fill-rule="evenodd" sketch:type="MSPage">
        <g id="Artboard-1" sketch:type="MSArtboardGroup" transform="translate(-481.000000, -1038.000000)">
            <g id="train-" sketch:type="MSLayerGroup" transform="translate(481.000000, 1038.000000)">
                <g id="train" sketch:type="MSShapeGroup">
                    <path d="M23.76779,46.4791199 C11.2746549,46.4791199 1.14735742,36.3473282 1.14735742,23.848649 C1.14735742,11.3499699 11.2746549,1.21607614 23.76779,1.21607614 C36.260925,1.21607614 46.3882225,11.3499699 46.3882225,23.848649 C46.3882225,36.3473282 36.260925,46.4791199 23.76779,46.4791199 Z" id="Fill-1" fill="#B76F2F"></path>
                    <path d="M46.3882225,23.848649 L45.337673,23.848649 C45.337673,29.8100103 42.9256113,35.199619 39.0196681,39.1072955 C35.1137249,43.014972 29.728608,45.4281042 23.76779,45.4281042 C17.8069719,45.4281042 12.421855,43.014972 8.51591185,39.1072955 C4.60996868,35.199619 2.19790696,29.8100103 2.19790696,23.848649 C2.19790696,17.8851857 4.60996868,12.4976791 8.51591185,8.58790052 C12.421855,4.68232604 17.8069719,2.26919391 23.76779,2.26709188 C29.728608,2.26919391 35.1137249,4.68232604 39.0196681,8.58790052 C42.9256113,12.4976791 45.337673,17.8851857 45.337673,23.848649 L47.4387721,23.848649 C47.4387721,10.7677072 36.8408284,0.167162433 23.76779,0.165060401 C10.6947516,0.167162433 0.0968078892,10.7677072 0.0968078892,23.848649 C0.0968078892,36.9274889 10.6947516,47.5301356 23.76779,47.5301356 C36.8408284,47.5301356 47.4387721,36.9274889 47.4387721,23.848649 L46.3882225,23.848649" id="Fill-2" fill="#1A1918"></path>
                </g>
                <g id="train" transform="translate(14.777778, 11.788044)" fill="#FFFFFF" sketch:type="MSShapeGroup">
                    <path d="M14.0385682,18.0873493 C14.8171779,17.9649466 15.4636598,17.6071542 15.9780141,17.0139484 C16.4923683,16.425474 16.7519049,15.7240125 16.7519049,14.9142718 L16.7519049,3.16832265 C16.7519049,2.29738053 16.440461,1.55354889 15.8175733,0.932119917 C15.1899667,0.310714485 14.4255136,0 13.5242139,0 L4.59615644,0 C3.69013792,0 2.93040365,0.310714485 2.30751591,0.932143456 C1.68462818,1.55357243 1.37318432,2.29740407 1.37318432,3.16834619 L1.37318432,14.9190031 C1.37318432,15.7287439 1.63743972,16.4349132 2.17066937,17.0422187 C2.69918017,17.6495243 3.33622444,17.9979012 4.08652103,18.0920571 L0.0188753858,24.1039116 L2.30751591,24.1039116 L2.69918017,23.5248528 L15.425909,23.5248528 L15.8128545,24.1039116 L18.101495,24.1039116 L14.0385682,18.0873493 L14.0385682,18.0873493 Z M14.4538267,16.1289065 C14.1754147,16.4066664 13.8167824,16.5479002 13.3826485,16.5479002 C12.9768277,16.5479002 12.6323519,16.4066664 12.3539164,16.1289065 C12.0755045,15.8464388 11.9339391,15.4933541 11.9339391,15.0555056 C11.9339391,14.6506588 12.0755045,14.3022584 12.3539164,14.0056673 C12.6323519,13.7090762 12.9768041,13.5631345 13.3826485,13.5631345 C13.8167588,13.5631345 14.1801336,13.7137604 14.4538031,14.0056673 C14.7322386,14.3022584 14.873804,14.6506352 14.873804,15.0555056 C14.8785229,15.4933541 14.7369575,15.8511465 14.4538267,16.1289065 L14.4538267,16.1289065 Z M3.33622444,3.46493729 C3.33622444,3.03182013 3.47778983,2.67402769 3.75620177,2.39155998 C4.03461372,2.11380006 4.39324605,1.9725662 4.82735632,1.9725662 L13.2882716,1.9725662 C13.7271243,1.9725662 14.0904755,2.11380006 14.3877628,2.39155998 C14.6850737,2.67402769 14.8360532,3.03182013 14.8360532,3.46493729 L14.8360532,7.22646568 C14.8360532,7.66429064 14.689769,8.02208308 14.3877628,8.299843 C14.0904755,8.57760291 13.7271243,8.71883677 13.2882716,8.71883677 L4.82737992,8.71883677 C4.3885272,8.71883677 4.02989487,8.58231071 3.75622537,8.299843 C3.47781343,8.02208308 3.33624803,7.66429064 3.33624803,7.22646568 L3.33624803,3.46493729 L3.33622444,3.46493729 Z M3.66182485,16.1289065 C3.37869406,15.8464388 3.24184751,15.4933541 3.24184751,15.0555056 C3.24184751,14.6506588 3.37869406,14.3022584 3.66182485,14.0056673 C3.94495563,13.7090762 4.29886912,13.5631345 4.73772184,13.5631345 C5.13882378,13.5631345 5.48332317,13.7137604 5.76645396,14.0056673 C6.0448659,14.3022584 6.18643129,14.6506352 6.18643129,15.0555056 C6.18643129,15.4933541 6.0448659,15.8464388 5.76645396,16.1289065 C5.48329958,16.4066664 5.13882378,16.5479002 4.73772184,16.5479002 C4.29886912,16.552608 3.94495563,16.4113742 3.66182485,16.1289065 L3.66182485,16.1289065 Z M4.00630064,21.5805333 L5.06804109,19.9987142 L13.0570481,19.9987142 L14.1187886,21.5805333 L4.00630064,21.5805333 L4.00630064,21.5805333 Z" id="Shape"></path>
                </g>
            </g>
        </g>
    </g>
</svg>