<?xml version="1.0" encoding="UTF-8" standalone="no"?>
<svg width="47.5px" height="47.5px" viewBox="0 0 47.5 47.5" version="1.1" xmlns="http://www.w3.org/2000/svg" xmlns:xlink="http://www.w3.org/1999/xlink" xmlns:sketch="http://www.bohemiancoding.com/sketch/ns">
    <!-- Generator: Sketch 3.3.1 (12005) - http://www.bohemiancoding.com/sketch -->
    <title>boat</title>
    <desc>Created with Sketch.</desc>
    <defs></defs>
    <g id="Markers" stroke="none" stroke-width="1" fill="none" fill-rule="evenodd" sketch:type="MSPage">
        <g id="Artboard-1" sketch:type="MSArtboardGroup" transform="translate(-474.000000, -418.000000)">
            <g id="boat" sketch:type="MSLayerGroup" transform="translate(474.000000, 418.000000)">
                <path d="M23.7979572,46.6233915 C11.1109494,46.6233915 0.824524525,36.2582743 0.824524525,23.4716168 C0.824524525,10.6849594 11.1109494,0.317740115 23.7979572,0.317740115 C36.484965,0.317740115 46.7693042,10.6849594 46.7693042,23.4716168 C46.7693042,36.2582743 36.484965,46.6233915 23.7979572,46.6233915 L20.0827206,7.91734322" id="Fill-35" fill="#45A8A8" sketch:type="MSShapeGroup"></path>
                <path d="M46.300033,23.8541866 L45.257208,23.8541866 C45.2551224,29.8554864 42.8461969,35.2787276 38.9439461,39.2116285 C35.0416953,43.1445294 29.6607188,45.5723758 23.7061886,45.5723758 C17.753744,45.5723758 12.3727675,43.1445294 8.46843107,39.2116285 C4.56826593,35.2787276 2.15725475,29.8554864 2.15725475,23.8541866 C2.15725475,17.8528867 4.56826593,12.4317475 8.46843107,8.49674459 C12.3727675,4.56594573 17.753744,2.13599734 23.7061886,2.13599734 C29.6607188,2.13599734 35.0416953,4.56594573 38.9439461,8.49674459 C42.8461969,12.4317475 45.2551224,17.8528867 45.257208,23.8541866 L47.3428579,23.8541866 C47.3407722,10.6975715 36.7602707,0.0339658654 23.7061886,0.0339658654 C10.6521064,0.0339658654 0.0716049438,10.6975715 0.0716049438,23.8541866 C0.0716049438,37.0108016 10.6521064,47.6744072 23.7061886,47.6744072 C36.7602707,47.6744072 47.3407722,37.0108016 47.3428579,23.8541866 L46.300033,23.8541866" id="Fill-36" fill="#1A1918" sketch:type="MSShapeGroup"></path>
                <path d="M35.4609109,25.1994867 C35.4609109,31.6905599 30.2384438,36.9540467 23.7979572,36.9540467 C17.3574706,36.9540467 12.1350034,31.6905599 12.1350034,25.1994867" id="Fill-37" fill="#FFFFFF" sketch:type="MSShapeGroup"></path>
                <path d="M18.649395,7.8829514 L19.5163228,8.40408383 C19.8773591,8.62111196 20.1685205,9.13946547 20.1666733,9.55658537 L20.090579,26.7402758 L18.649395,26.7402758 L18.649395,7.8829514 Z" id="Fill-38" fill="#FFFFFF" sketch:type="MSShapeGroup"></path>
                <path d="M18.649395,15.116904 L18.649395,7.8829514 L31.0845588,15.116904 L18.649395,22.3558697 L18.649395,15.116904" id="Fill-39" fill="#FFFFFF" sketch:type="MSShapeGroup"></path>
            </g>
        </g>
    </g>
</svg>