<?xml version="1.0" encoding="UTF-8" standalone="no"?>
<svg width="47.5px" height="47.5px" viewBox="0 0 47.5 47.5" version="1.1" xmlns="http://www.w3.org/2000/svg" xmlns:xlink="http://www.w3.org/1999/xlink" xmlns:sketch="http://www.bohemiancoding.com/sketch/ns">
    <!-- Generator: Sketch 3.3.1 (12005) - http://www.bohemiancoding.com/sketch -->
    <title>van</title>
    <desc>Created with Sketch.</desc>
    <defs></defs>
    <g id="Markers" stroke="none" stroke-width="1" fill="none" fill-rule="evenodd" sketch:type="MSPage">
        <g id="Artboard-1" sketch:type="MSArtboardGroup" transform="translate(-181.000000, -1038.000000)">
            <g id="van" sketch:type="MSLayerGroup" transform="translate(181.000000, 1038.000000)">
                <g sketch:type="MSShapeGroup">
                    <path d="M23.76779,46.4791199 C11.2746549,46.4791199 1.14735742,36.3473282 1.14735742,23.848649 C1.14735742,11.3499699 11.2746549,1.21607614 23.76779,1.21607614 C36.260925,1.21607614 46.3882225,11.3499699 46.3882225,23.848649 C46.3882225,36.3473282 36.260925,46.4791199 23.76779,46.4791199 Z" id="Fill-1" fill="#8387BD"></path>
                    <path d="M46.3882225,23.848649 L45.337673,23.848649 C45.337673,29.8100103 42.9256113,35.199619 39.0196681,39.1072955 C35.1137249,43.014972 29.728608,45.4281042 23.76779,45.4281042 C17.8069719,45.4281042 12.421855,43.014972 8.51591185,39.1072955 C4.60996868,35.199619 2.19790696,29.8100103 2.19790696,23.848649 C2.19790696,17.8851857 4.60996868,12.4976791 8.51591185,8.58790052 C12.421855,4.68232604 17.8069719,2.26919391 23.76779,2.26709188 C29.728608,2.26919391 35.1137249,4.68232604 39.0196681,8.58790052 C42.9256113,12.4976791 45.337673,17.8851857 45.337673,23.848649 L47.4387721,23.848649 C47.4387721,10.7677072 36.8408284,0.167162433 23.76779,0.165060401 C10.6947516,0.167162433 0.0968078892,10.7677072 0.0968078892,23.848649 C0.0968078892,36.9274889 10.6947516,47.5301356 23.76779,47.5301356 C36.8408284,47.5301356 47.4387721,36.9274889 47.4387721,23.848649 L46.3882225,23.848649" id="Fill-2" fill="#1A1918"></path>
                </g>
                <g transform="translate(10.203704, 14.427159)" fill="#FFFFFE" sketch:type="MSShapeGroup">
                    <path d="M0.0922579269,15.0182413 L0.0922579269,2.11524526 C0.777900815,0.449595379 2.07455019,-0.0143836677 3.78380815,0.0090955546 C8.35086025,0.0716010519 12.9193882,0.0243253204 17.4873891,0.0339496864 C18.9421664,0.0369110297 20.3979979,0.0553136634 21.8514049,0.115280866 C23.1443646,0.168585047 24.1583865,0.753767647 24.6588089,1.98473462 C25.3252656,3.6240497 25.8880957,5.3058812 26.554447,6.9454078 C26.9750674,7.98029154 27.1239185,9.02765523 27.0872329,10.1348804 C27.0451708,11.4025468 27.0775343,12.6727516 27.0775343,13.9418988 C27.0774289,15.066892 26.7690794,15.4240511 25.6727254,15.6852839 C25.1786282,15.8029973 24.9852904,15.6909951 24.8465595,15.1668373 C24.1390949,12.49285 20.7906824,11.5946111 18.8808128,13.5887586 C18.3368525,14.1565962 18.0124794,14.9361698 17.5373575,15.6989272 L9.44563291,15.6989272 C8.90694362,13.4753814 7.42254363,12.5055415 5.87974171,12.5218289 C3.83514703,12.5432986 2.61323948,13.7351335 2.1565659,15.7088689 C1.35222161,15.746203 0.553991606,15.8855976 0.0922579269,15.0182413 L0.0922579269,15.0182413 Z M13.6001818,8.38335152 C14.2139292,8.38335152 14.8284145,8.4008023 15.4415294,8.37901527 C16.2236303,8.35119979 16.6498379,7.94105374 16.6644911,7.16073976 C16.687894,5.91189897 16.6881049,4.66200054 16.6643857,3.41315974 C16.6495217,2.63326882 16.222787,2.21275806 15.4393156,2.19858592 C14.2119263,2.17627008 12.983799,2.17743347 11.7564097,2.19721101 C10.9445807,2.21021977 10.5195327,2.63178815 10.5056174,3.44182132 C10.4845337,4.67310558 10.4844283,5.90534171 10.5057228,7.13673173 C10.5198489,7.94570728 10.9460565,8.35574757 11.7587289,8.3806017 C12.3719492,8.39942739 12.986329,8.38430338 13.6001818,8.38335152 L13.6001818,8.38335152 Z M8.3449568,5.31867843 C8.3449568,4.66781747 8.35159818,4.01685074 8.34316469,3.36609554 C8.33452036,2.69799532 7.95364278,2.23666033 7.29762253,2.22121904 C5.94910718,2.1893846 4.5986943,2.19266323 3.25007353,2.2238631 C2.64876556,2.23771796 2.21064566,2.7266569 2.20368803,3.33140552 C2.18850775,4.63291592 2.18924568,5.93484938 2.20326636,7.23646554 C2.20980231,7.84322365 2.64381089,8.33734494 3.24174546,8.35162284 C4.59036623,8.38388033 5.94067369,8.38684168 7.28929446,8.35606486 C7.94995313,8.34104662 8.33346617,7.88436517 8.34305927,7.21848596 C8.35212527,6.58539306 8.3449568,5.95198286 8.3449568,5.31867843 L8.3449568,5.31867843 Z M18.8265222,5.26072071 C18.8265222,5.87699742 18.8239921,6.49316836 18.8271547,7.10933931 C18.8313714,7.92000705 19.2290106,8.36209331 20.0371499,8.37690002 C21.2650663,8.39942739 22.4942478,8.40312907 23.7220588,8.37637121 C24.7427221,8.35405538 25.1587041,7.73090412 24.8281112,6.75905469 C24.4280474,5.58287257 24.0237669,4.4076423 23.59018,3.24362284 C23.3653221,2.63982608 22.9109677,2.25157281 22.2482006,2.22502648 C21.4606179,2.19340357 20.6696618,2.18483682 19.8823953,2.2191038 C19.2208933,2.24787113 18.8381182,2.69228416 18.8286305,3.35932675 C18.8196699,3.99305423 18.826733,4.62688747 18.8265222,5.26072071 L18.8265222,5.26072071 Z" id="Fill-1"></path>
                    <ellipse id="Oval-1" cx="5.74531633" cy="16.1287451" rx="2.68817553" ry="2.6969377"></ellipse>
                    <ellipse id="Oval-1-Copy" cx="21.4526949" cy="16.1287451" rx="2.68817553" ry="2.6969377"></ellipse>
                </g>
            </g>
        </g>
    </g>
</svg>