<?xml version="1.0" encoding="UTF-8" standalone="no"?>
<svg width="47.5px" height="47.5px" viewBox="0 0 47.5 47.5" version="1.1" xmlns="http://www.w3.org/2000/svg" xmlns:xlink="http://www.w3.org/1999/xlink" xmlns:sketch="http://www.bohemiancoding.com/sketch/ns">
    <!-- Generator: Sketch 3.3.1 (12005) - http://www.bohemiancoding.com/sketch -->
    <title>tools</title>
    <desc>Created with Sketch.</desc>
    <defs></defs>
    <g id="Markers" stroke="none" stroke-width="1" fill="none" fill-rule="evenodd" sketch:type="MSPage">
        <g id="Artboard-1" sketch:type="MSArtboardGroup" transform="translate(-177.000000, -726.000000)">
            <g id="tools" sketch:type="MSLayerGroup" transform="translate(177.000000, 726.000000)">
                <path d="M23.76779,46.4791199 C11.2746549,46.4791199 1.14735742,36.3473282 1.14735742,23.848649 C1.14735742,11.3499699 11.2746549,1.21607614 23.76779,1.21607614 C36.260925,1.21607614 46.3882225,11.3499699 46.3882225,23.848649 C46.3882225,36.3473282 36.260925,46.4791199 23.76779,46.4791199 Z" id="Fill-1" fill="#E6A233" sketch:type="MSShapeGroup"></path>
                <path d="M46.3882225,23.848649 L45.337673,23.848649 C45.337673,29.8100103 42.9256113,35.199619 39.0196681,39.1072955 C35.1137249,43.014972 29.728608,45.4281042 23.76779,45.4281042 C17.8069719,45.4281042 12.421855,43.014972 8.51591185,39.1072955 C4.60996868,35.199619 2.19790696,29.8100103 2.19790696,23.848649 C2.19790696,17.8851857 4.60996868,12.4976791 8.51591185,8.58790052 C12.421855,4.68232604 17.8069719,2.26919391 23.76779,2.26709188 C29.728608,2.26919391 35.1137249,4.68232604 39.0196681,8.58790052 C42.9256113,12.4976791 45.337673,17.8851857 45.337673,23.848649 L47.4387721,23.848649 C47.4387721,10.7677072 36.8408284,0.167162433 23.76779,0.165060401 C10.6947516,0.167162433 0.0968078892,10.7677072 0.0968078892,23.848649 C0.0968078892,36.9274889 10.6947516,47.5301356 23.76779,47.5301356 C36.8408284,47.5301356 47.4387721,36.9274889 47.4387721,23.848649 L46.3882225,23.848649" id="Fill-2" fill="#1A1918" sketch:type="MSShapeGroup"></path>
                <g id="Imported-Layers" transform="translate(10.731481, 9.500812)" fill="#FFFFFF" sketch:type="MSShapeGroup">
                    <path d="M9.70614609,2.03616474 L9.70614609,6.35799608 L12.3431584,6.35799608 C12.3431584,6.35799608 12.134823,4.19564649 16.4385185,4.19564649 L16.0931955,11.2419236 L15.4681893,11.6606279 L15.1200123,27.8381001 L19.5635494,27.8381001 L19.041284,11.6147425 L18.4705021,11.2763377 L18.2878519,4.29315297 C18.2878519,4.29315297 22.2690556,4.50250512 23.8815144,7.74602951 C23.8815144,7.74602951 23.1023971,-0.544889155 12.8996708,2.75025631 C12.8996708,2.75025631 12.3089115,2.64701416 12.2917881,1.97594015 L9.70614609,1.97594015 L9.70614609,2.03616474" id="Fill-1"></path>
                    <path d="M6.3927572,1.97594015 L2.33449794,18.1276018 L1.96919753,18.1276018 C1.55252675,18.7814688 1.36987654,21.8156411 1.36987654,21.8156411 C2.15184774,22.5469397 1.76086214,22.7562918 1.76086214,22.7562918 C1.0844856,22.9914545 1.65526749,23.5678899 1.65526749,23.5678899 L1.73517695,24.324999 C1.55252675,24.6146506 1.13585597,25.084976 1.13585597,25.084976 L1.13585597,26.7053043 C1.13585597,26.8372248 2.0205679,27.2014402 2.0205679,27.2014402 L2.22890329,25.9481951 C2.80253909,25.9740057 4.17241564,27.0723875 4.17241564,27.0723875 C4.38075103,27.3505677 6.3927572,27.2817396 6.3927572,27.2817396 L6.94926955,27.8381001 L7.46868107,27.8381001 L7.46868107,26.7913394 C6.25291564,25.3287422 7.46868107,24.2819814 7.46868107,24.2819814 L8.54460494,24.2819814 L8.54460494,1.97594015 L6.3927572,1.97594015 L6.3927572,1.97594015 Z M6.02745679,25.3459492 C6.02745679,25.3459492 4.6747037,26.1833578 3.06224486,24.6662717 C3.06224486,24.6662717 2.51429424,23.4359693 3.45323045,23.4617799 C3.45323045,23.4617799 3.9212716,25.1107865 6.02745679,24.9014344 L6.02745679,25.3459492 L6.02745679,25.3459492 Z" id="Fill-2"></path>
                </g>
            </g>
        </g>
    </g>
</svg>