<?xml version="1.0" encoding="UTF-8" standalone="no"?>
<svg width="47.5px" height="47.5px" viewBox="0 0 47.5 47.5" version="1.1" xmlns="http://www.w3.org/2000/svg" xmlns:xlink="http://www.w3.org/1999/xlink" xmlns:sketch="http://www.bohemiancoding.com/sketch/ns">
    <!-- Generator: Sketch 3.4.1 (15681) - http://www.bohemiancoding.com/sketch -->
    <title>handicap</title>
    <desc>Created with Sketch.</desc>
    <defs></defs>
    <g id="Markers" stroke="none" stroke-width="1" fill="none" fill-rule="evenodd" sketch:type="MSPage">
        <g id="handicap" sketch:type="MSLayerGroup">
            <path d="M46.3714831,23.679463 C46.3714831,36.1770741 36.2441856,46.3101019 23.7510505,46.3101019 C11.2579155,46.3101019 1.1285169,36.1770741 1.1285169,23.679463 C1.1285169,11.1818519 11.2579155,1.05092593 23.7510505,1.05092593 C36.2441856,1.05092593 46.3714831,11.1818519 46.3714831,23.679463 L23.4861111,24.0138889" id="Fill-50-Copy" fill="#4D89EF" sketch:type="MSShapeGroup"></path>
            <path d="M46.3714831,23.679463 L45.3209336,23.679463 C45.3209336,29.6424167 42.9088718,35.029463 39.0029287,38.9389074 C35.0969855,42.8441481 29.7097675,45.2570741 23.7510505,45.2591759 C17.7902325,45.2570741 12.4051156,42.8441481 8.49707133,38.9389074 C4.59322926,35.029463 2.18116753,29.6424167 2.17906643,23.679463 C2.18116753,17.7186111 4.59322926,12.329463 8.49707133,8.42212037 C12.4051156,4.51477778 17.7902325,2.10185185 23.7510505,2.10185185 C29.7097675,2.10185185 35.0969855,4.51477778 39.0029287,8.42212037 C42.9088718,12.329463 45.3209336,17.7186111 45.3209336,23.679463 L47.4220326,23.679463 C47.4220326,10.6017407 36.8240889,0 23.7510505,0 C10.6759111,0 0.0800684658,10.6017407 0.0779673668,23.679463 C0.0800684658,36.759287 10.6759111,47.3589259 23.7510505,47.3610278 C36.8240889,47.3589259 47.4220326,36.759287 47.4220326,23.679463 L46.3714831,23.679463" id="Fill-51-Copy" fill="#1A1918" sketch:type="MSShapeGroup"></path>
            <g id="Imported-Layers" transform="translate(15.129630, 12.245329)" fill="#FFFFFF" sketch:type="MSShapeGroup">
                <path d="M8.50333435,8.43080252 C9.77970379,8.43080252 11.0186519,8.4307558 12.2576,8.43094268 C12.3427626,8.43094268 12.4285295,8.42673797 12.5130413,8.43472691 C12.8884632,8.47009313 13.1473909,8.76998187 13.1322364,9.14714369 C13.1177792,9.50725311 12.8368171,9.7830816 12.4638589,9.78420286 C11.2478285,9.78784693 10.0317515,9.78560443 8.81572108,9.78565114 L8.52095259,9.78565114 L8.52095259,11.1172805 C8.63196144,11.1172805 8.73027959,11.1173272 8.82855125,11.1172805 C10.4241409,11.1172337 12.019777,11.1247555 13.6152737,11.1133094 C14.2494838,11.1087776 14.7074651,11.3583501 15.0275685,11.9127168 C15.9325604,13.4799496 16.8508937,15.0394271 17.7642065,16.6018479 C17.7914009,16.6483799 17.8210591,16.6934169 17.8609906,16.7575153 C18.2840608,16.5228462 18.6980197,16.2828044 19.1214618,16.0609362 C19.6604219,15.7785204 20.259721,16.0784558 20.3561332,16.68127 C20.4113122,17.0260556 20.2883564,17.3259444 19.9867545,17.50086 C19.209553,17.9515574 18.425983,18.3918832 17.6337665,18.81525 C17.2172973,19.037819 16.7367703,18.8486073 16.469847,18.392584 C15.6261703,16.9512586 14.7821218,15.5101669 13.9464408,14.0642164 C13.856955,13.9093432 13.7637504,13.8529067 13.5843604,13.8534673 C11.3769204,13.860335 9.16901561,13.8330979 6.96213347,13.8703796 C6.09958348,13.8850026 5.25660415,13.1838918 5.25641821,12.2698829 C5.25595335,10.1918254 5.2413567,8.11344091 5.27464077,6.03585062 C5.28863309,5.16402889 6.0646724,4.52799754 6.95832161,4.55331919 C7.7967453,4.57705241 8.49222416,5.28816106 8.50161436,6.14353773 C8.50905214,6.82068173 8.50324137,7.4980126 8.50333435,8.17525004 L8.50333435,8.43080252" id="Fill-1"></path>
                <path d="M13.5212323,15.4676527 C13.6012349,15.6024835 13.6557166,15.6933985 13.7093151,15.7848274 C14.1061671,16.4617845 14.5065521,17.1366393 14.8943393,17.8187355 C14.937432,17.8945603 14.9464968,18.0312599 14.9076808,18.1066642 C13.7290717,20.3986009 11.8885932,21.8558574 9.36713946,22.3382302 C6.69097992,22.8502228 4.32348823,22.1263599 2.36739872,20.219574 C0.793378638,18.685278 -0.00734480722,16.7741472 0.0276592424,14.5641088 C0.0754469754,11.5506452 1.44051194,9.27837713 3.99938699,7.7217495 C4.06395621,7.68250561 4.13326702,7.6511105 4.22670413,7.60224251 C4.2331657,7.69357799 4.24171914,7.7590312 4.24176563,7.8244844 C4.24260238,8.54077885 4.23813971,9.25707331 4.24534506,9.97327432 C4.24678613,10.1196914 4.19997461,10.2139702 4.09231275,10.311566 C2.84053446,11.4460882 2.19712005,12.8703611 2.16946081,14.5575682 C2.12325361,17.3791572 4.25334067,19.8610063 7.03316426,20.2579302 C10.0076717,20.6826519 12.7479356,18.8063267 13.4362091,15.8729393 C13.4636824,15.755815 13.4857634,15.6374292 13.5212323,15.4676527" id="Fill-2"></path>
                <path d="M6.8756228,3.89117197 C5.81964406,3.88869587 4.96574049,3.03313232 4.96959884,1.98139604 C4.97359664,0.892051022 5.82833696,0.0345252805 6.89858694,0.0461115722 C7.95186948,0.0575577071 8.80330929,0.919895497 8.7975915,1.96938927 C8.79173424,3.04196219 7.93996904,3.89364807 6.8756228,3.89117197" id="Fill-3"></path>
            </g>
        </g>
    </g>
</svg>