<?xml version="1.0" encoding="utf-8"?>
<!-- Generated by IcoMoon.io -->
<!DOCTYPE svg PUBLIC "-//W3C//DTD SVG 1.1//EN" "http://www.w3.org/Graphics/SVG/1.1/DTD/svg11.dtd">
<svg version="1.1" xmlns="http://www.w3.org/2000/svg" xmlns:xlink="http://www.w3.org/1999/xlink" width="752" height="80" viewBox="0 0 752 80">
<svg id="f4a5" width="32" height="32" viewBox="0 0 32 32" x="0" y="0">
<path fill="rgb(187, 26, 52)" d="M19.368 0.842l-3.368 6.76-4.211-4.226v5.916l-8.421-1.69 6.737 6.76-9.263 5.069h10.105l-5.053 10.141 10.105-6.76 9.263 8.451-2.526-11.831h8.421l-6.737-5.069 6.737-7.606-10.105 2.536-1.684-8.451z"></path>
<path fill="rgb(252, 171, 64)" d="M20.138 11.725l5.967-1.497-3.958 4.468 3.801 2.861h-4.983l0.398 1.869 1.306 6.113-5.812-5.302-5.412 3.622 3.139-6.301h-5.69l4.973-2.721-1.454-1.461-2.563-2.571 4.553 0.914v-3.561l2.732 2.741 2.026-4.070z"></path>
<path fill="rgb(245, 248, 250)" d="M18.957 12.885l2.463-0.617-1.635 1.844 0.553 0.415 1.017 0.765h-2.058l0.165 0.771 0.539 2.524-2.399-2.189-0.413 0.276-1.821 1.219 1.296-2.602h-2.349l2.053-1.123-1.658-1.665 1.879 0.378v-1.47l0.504 0.505 0.623 0.626 0.837-1.679z"></path>
</svg>
<svg id="f49a" width="32" height="32" viewBox="0 0 32 32" x="48" y="0">
<path fill="#444444" d="M31.061 10.807c0-4.589-3.72-8.31-8.309-8.31-2.786 0-5.244 1.375-6.752 3.477-1.507-2.102-3.966-3.477-6.751-3.477-4.589 0-8.31 3.72-8.31 8.31 0 0.65 0.083 1.28 0.224 1.887 1.155 7.168 9.124 14.732 14.837 16.808 5.712-2.077 13.683-9.64 14.835-16.808 0.143-0.607 0.226-1.237 0.226-1.887z"></path>
</svg>
<svg id="f49c" width="32" height="32" viewBox="0 0 32 32" x="96" y="0">
<path fill="#444444" d="M31.061 10.807c0-4.589-3.72-8.31-8.309-8.31-2.786 0-5.244 1.375-6.752 3.477-1.507-2.102-3.966-3.477-6.751-3.477-4.589 0-8.31 3.72-8.31 8.31 0 0.65 0.083 1.28 0.224 1.887 1.155 7.168 9.124 14.732 14.837 16.808 5.712-2.077 13.683-9.64 14.835-16.808 0.143-0.607 0.226-1.237 0.226-1.887z"></path>
</svg>
<svg id="f49d" width="32" height="32" viewBox="0 0 32 32" x="144" y="0">
<path fill="rgb(231, 90, 112)" d="M31.061 10.807c0-4.589-3.72-8.31-8.309-8.31-2.786 0-5.244 1.375-6.752 3.477-1.507-2.102-3.966-3.477-6.751-3.477-4.589 0-8.31 3.72-8.31 8.31 0 0.65 0.083 1.28 0.224 1.887 1.155 7.168 9.124 14.732 14.837 16.808 5.712-2.077 13.683-9.64 14.835-16.808 0.143-0.607 0.226-1.237 0.226-1.887z"></path>
<path fill="rgb(253, 216, 136)" d="M31.158 13.473c-0.842 4.211-3.368 6.737-3.368 6.737h-23.579c0 0-2.526-2.526-3.368-6.737h30.316z"></path>
<path fill="rgb(253, 216, 136)" d="M12.632 16v15.158l-4.211-4.211-4.211 4.211v-15.158h8.421z"></path>
<path fill="rgb(253, 203, 88)" d="M14.991 8.584l-6.635 4.644-6.634-4.644c-0.485-0.339-0.88-0.133-0.88 0.458v12.344c0 0.592 0.404 0.812 0.9 0.49l6.614-4.3 6.615 4.3c0.494 0.322 0.899 0.102 0.899-0.49v-12.344c0-0.591-0.396-0.797-0.879-0.458z"></path>
<path fill="rgb(253, 216, 136)" d="M11.789 15.158c0 1.861-1.508 3.368-3.368 3.368s-3.368-1.507-3.368-3.368c0-1.86 1.508-3.368 3.368-3.368s3.368 1.508 3.368 3.368z"></path>
</svg>
<svg id="f49e" width="32" height="32" viewBox="0 0 32 32" x="192" y="0">
<path fill="rgb(242, 171, 186)" d="M31.138 14.882c-0.211 3.852-6.899 6.946-15.139 6.946-2.765 0-5.348-0.355-7.579-0.963v3.021c2.232 0.862 4.815 1.364 7.579 1.364 8.372 0 15.158-4.525 15.158-10.105 0-0.088-0.016-0.174-0.019-0.262z"></path>
<path fill="rgb(242, 171, 186)" d="M23.579 6.4c-2.228-0.862-4.814-1.362-7.579-1.362-7.594 0-13.865 3.727-14.968 8.584 1.102-3.427 7.373-6.058 14.968-6.058 2.765 0 5.351 0.352 7.579 0.961v-2.125z"></path>
<path fill="rgb(231, 90, 112)" d="M21.701 17.444c0-3.164-2.564-5.727-5.727-5.727-1.92 0-3.614 0.947-4.653 2.396-1.040-1.448-2.734-2.396-4.653-2.396-3.163 0-5.727 2.563-5.727 5.727 0 0.447 0.056 0.883 0.154 1.301 0.796 4.941 6.289 10.155 10.227 11.586 3.937-1.431 9.432-6.645 10.224-11.584 0.1-0.419 0.157-0.856 0.157-1.303z"></path>
<path fill="rgb(231, 90, 112)" d="M31.061 5.637c0-2.191-1.776-3.967-3.967-3.967-1.33 0-2.504 0.657-3.224 1.661-0.721-1.004-1.894-1.661-3.223-1.661-2.191 0-3.967 1.776-3.967 3.967 0 0.311 0.040 0.612 0.107 0.901 0.551 3.423 4.356 7.034 7.083 8.025 2.727-0.991 6.533-4.602 7.084-8.024 0.067-0.29 0.107-0.591 0.107-0.902z"></path>
</svg>
<svg id="f49f" width="32" height="32" viewBox="0 0 32 32" x="240" y="0">
<path fill="rgb(170, 142, 214)" d="M31.158 27.789c0 1.86-1.508 3.368-3.368 3.368h-23.579c-1.86 0-3.368-1.508-3.368-3.368v-23.579c0-1.86 1.508-3.368 3.368-3.368h23.579c1.86 0 3.368 1.508 3.368 3.368v23.579z"></path>
<path fill="rgb(245, 248, 250)" d="M27.692 12.433c0-3.563-2.888-6.451-6.451-6.451-2.163 0-4.071 1.068-5.242 2.7-1.171-1.632-3.080-2.7-5.241-2.7-3.563 0-6.451 2.888-6.451 6.451 0 0.505 0.065 0.994 0.174 1.465 0.895 5.565 7.084 11.437 11.518 13.049 4.435-1.613 10.622-7.484 11.518-13.049 0.11-0.472 0.174-0.96 0.174-1.465z"></path>
</svg>
<svg id="f380" width="32" height="32" viewBox="0 0 32 32" x="288" y="0">
<path fill="rgb(221, 46, 68)" d="M20.211 31.158c-0.221 0-0.437-0.088-0.595-0.247-1.973-1.972-5.299-16.683-5.299-18.28 0-0.237 0.085-1.421 1.763-1.421 1.779 0 4.95 1.336 5.305 1.489 0.31 0.132 0.51 0.437 0.51 0.774 0 1.254 3.71 9.038 6.616 13.882 0.193 0.322 0.151 0.732-0.104 1.006-0.253 0.275-0.659 0.348-0.994 0.181l-4.428-2.214c-0.371 0.611-0.784 1.573-1.159 2.447-0.28 0.655-0.571 1.332-0.862 1.916-0.121 0.242-0.351 0.412-0.619 0.455-0.045 0.008-0.090 0.011-0.135 0.011z"></path>
<path fill="rgb(221, 46, 68)" d="M10.947 31.158c-0.045 0-0.090-0.003-0.135-0.011-0.268-0.043-0.497-0.213-0.619-0.455-0.291-0.584-0.582-1.261-0.862-1.916-0.375-0.874-0.787-1.837-1.159-2.447l-4.428 2.214c-0.335 0.168-0.739 0.093-0.995-0.181s-0.296-0.685-0.104-1.006c2.906-4.844 6.616-12.628 6.616-13.882 0-0.337 0.2-0.642 0.51-0.774 0.355-0.152 3.526-1.489 5.305-1.489 1.678 0 1.763 1.183 1.763 1.421 0 1.597-3.327 16.307-5.299 18.28-0.159 0.159-0.374 0.247-0.595 0.247z"></path>
<path fill="rgb(221, 46, 68)" d="M2.526 3.951v11.368c0 3.789 9.579-0.758 12.61-3.789s-0.053-4.547-0.053-5.304-12.557-8.336-12.557-2.274z"></path>
<path fill="rgb(160, 4, 30)" d="M16.758 10.771c-11.368 0-14.398 4.547-14.398 6.062s8.336 4.547 10.609 2.273c2.274-2.273 3.789-8.335 3.789-8.335z"></path>
<path fill="rgb(221, 46, 68)" d="M29.474 3.951v11.368c0 3.789-9.255-0.758-12.286-3.789s-0.109-4.547-0.109-5.304 12.395-8.336 12.395-2.274z"></path>
<path fill="rgb(160, 4, 30)" d="M15.807 10.771c11.368 0 14.399 4.547 14.399 6.062s-8.337 4.547-10.61 2.273c-2.274-2.273-3.789-8.335-3.789-8.335z"></path>
<path fill="rgb(234, 89, 110)" d="M19.368 10.442c0 1.674-1.357 3.032-3.031 3.032h-1.517c-1.674 0-3.031-1.357-3.031-3.032v-3.201c0-1.674 1.357-3.031 3.031-3.031h1.517c1.674 0 3.031 1.357 3.031 3.031v3.201z"></path>
</svg>
<svg id="f381" width="32" height="32" viewBox="0 0 32 32" x="336" y="0">
<path fill="rgb(253, 216, 136)" d="M28.632 26.947c0 1.853-1.516 3.368-3.368 3.368h-18.526c-1.853 0-3.368-1.516-3.368-3.368v-14.316c0-1.853 1.516-3.368 3.368-3.368h18.526c1.853 0 3.368 1.516 3.368 3.368v14.316z"></path>
<path fill="rgb(253, 216, 136)" d="M31.158 10.105c0 1.853-1.516 3.368-3.368 3.368h-23.579c-1.853 0-3.368-1.516-3.368-3.368s1.516-3.368 3.368-3.368h23.579c1.853 0 3.368 1.516 3.368 3.368z"></path>
<path fill="rgb(252, 171, 64)" d="M28.632 15.158h-25.263v-1.684h25.263v1.684z"></path>
<path fill="rgb(218, 47, 71)" d="M16.842 3.369h-1.684c-1.395 0-2.526 1.131-2.526 2.526v0 24.421h6.737v-24.421c0-1.395-1.131-2.526-2.526-2.526z"></path>
<path fill="rgb(218, 47, 71)" d="M14.316 6.737c0.926 0 1.064-0.435 0.304-0.966l-5.661-3.963c-0.76-0.531-1.756-0.308-2.216 0.496l-1.698 2.971c-0.46 0.804-0.077 1.462 0.849 1.462h8.421z"></path>
<path fill="rgb(218, 47, 71)" d="M17.684 6.737c-0.926 0-1.064-0.435-0.304-0.966l5.661-3.963c0.76-0.531 1.756-0.308 2.216 0.496l1.698 2.971c0.46 0.804 0.077 1.462-0.849 1.462h-8.421z"></path>
</svg>
<svg id="f382" width="32" height="32" viewBox="0 0 32 32" x="384" y="0">
<path fill="rgb(147, 149, 152)" d="M31.158 21.895c0 4.65-6.787 8.421-15.158 8.421s-15.158-3.771-15.158-8.421c0-4.65 6.787-8.421 15.158-8.421s15.158 3.771 15.158 8.421z"></path>
<path fill="rgb(241, 242, 242)" d="M31.158 20.211c0 4.65-6.787 8.421-15.158 8.421s-15.158-3.771-15.158-8.421c0-4.65 6.787-8.421 15.158-8.421s15.158 3.771 15.158 8.421z"></path>
<path fill="rgb(204, 214, 221)" d="M28.463 19.368c0 3.823-5.58 6.925-12.463 6.925s-12.463-3.101-12.463-6.925c0-3.824 5.58-6.924 12.463-6.924s12.463 3.1 12.463 6.924z"></path>
<path fill="rgb(138, 75, 56)" d="M25.263 19.368c0 2.584-4.148 4.679-9.263 4.679s-9.263-2.095-9.263-4.679 4.147-4.679 9.263-4.679c5.115 0 9.263 2.095 9.263 4.679z"></path>
<path fill="rgb(173, 85, 64)" d="M27.287 19.405c0 3.277-5.053 5.932-11.287 5.932s-11.288-2.655-11.288-5.932c0-3.275 5.053-5.931 11.288-5.931s11.287 2.656 11.287 5.931z"></path>
<path fill="rgb(102, 33, 19)" d="M26.947 18.526c0 7.579-21.895 7.579-21.895 0v-6.737h21.895v6.737z"></path>
<path fill="rgb(173, 85, 64)" d="M27.287 10.984c0 3.276-5.053 5.931-11.287 5.931s-11.288-2.655-11.288-5.931 5.053-5.931 11.288-5.931c6.233 0 11.287 2.655 11.287 5.931z"></path>
<path fill="rgb(136, 201, 249)" d="M10.105 11.789c-0.465 0-0.842-0.377-0.842-0.842v-5.895c0-0.465 0.377-0.842 0.842-0.842s0.842 0.377 0.842 0.842v5.895c0 0.465-0.377 0.842-0.842 0.842z"></path>
<path fill="rgb(136, 201, 249)" d="M16 14.316c-0.465 0-0.842-0.377-0.842-0.842v-5.895c0-0.465 0.377-0.842 0.842-0.842s0.842 0.377 0.842 0.842v5.895c0 0.465-0.377 0.842-0.842 0.842z"></path>
<path fill="rgb(136, 201, 249)" d="M21.895 11.789c-0.466 0-0.842-0.377-0.842-0.842v-5.895c0-0.465 0.376-0.842 0.842-0.842s0.842 0.377 0.842 0.842v5.895c0 0.465-0.376 0.842-0.842 0.842z"></path>
<path fill="rgb(255, 172, 51)" d="M21.895 6.316c-0.894 0-1.597-0.409-1.88-1.094-0.246-0.595-0.369-1.885 1.582-3.836 0.165-0.164 0.431-0.164 0.596 0 1.951 1.951 1.828 3.241 1.582 3.836-0.284 0.685-0.986 1.094-1.88 1.094z"></path>
<path fill="rgb(255, 172, 51)" d="M16 8.842c-0.894 0-1.597-0.409-1.88-1.094-0.247-0.595-0.368-1.885 1.582-3.836 0.165-0.164 0.431-0.164 0.596 0 1.951 1.951 1.828 3.241 1.582 3.836-0.284 0.685-0.986 1.094-1.88 1.094z"></path>
<path fill="rgb(255, 172, 51)" d="M10.105 6.316c-0.894 0-1.597-0.409-1.88-1.094-0.247-0.595-0.368-1.885 1.582-3.836 0.165-0.164 0.431-0.164 0.596 0 1.95 1.951 1.829 3.241 1.582 3.836-0.284 0.685-0.986 1.094-1.88 1.094z"></path>
</svg>
<svg id="f383" width="32" height="32" viewBox="0 0 32 32" x="432" y="0">
<path fill="rgb(241, 143, 38)" d="M16 5.052h5.053c5.895 0 9.263 6.642 9.263 13.474 0 12.632-7.579 12.632-14.316 12.632s-14.316 0-14.316-12.632c0-8.386 5.053-13.474 9.263-13.474h5.053z"></path>
<path fill="rgb(100, 33, 22)" d="M23.555 21.365c-0.029 0.563-0.296 1.183-0.819 1.793-1.352 1.577-2.851 1.247-3.401-0.691-1.031 0.163-2.147 0.269-3.336 0.269-5.895 0-10.105-2.526-10.105-2.526 0 2.251 0.855 3.737 2.076 4.736 0.125-0.269 0.291-0.534 0.535-0.778 1.251-1.251 2.615-0.568 3.032 1.516 0.065 0.328 0.083 0.617 0.081 0.89 1.728 0.371 3.421 0.373 4.381 0.373 2.526 0 10.105 0 10.105-6.737 0 0-0.944 0.562-2.55 1.155z"></path>
<path fill="rgb(63, 113, 35)" d="M18.419 5.251c0.058 0.354-0.187 0.643-0.545 0.643h-3.749c-0.358 0-0.604-0.29-0.545-0.643l0.628-3.766c0.059-0.354 0.401-0.643 0.759-0.643h2.065c0.358 0 0.701 0.29 0.759 0.643l0.628 3.766z"></path>
<path fill="rgb(92, 145, 59)" d="M14.316 5.895c0 0 1.684-4.211 6.737-4.211 4.211 0 5.895 4.211 5.895 4.211h-12.632z"></path>
<path fill="rgb(100, 33, 22)" d="M8.161 10.197c0.668-1.245 1.763-1.245 2.431 0.001l1.821 3.396c0.669 1.245-0.258 2.264-2.060 2.264h-1.957c-1.801 0-2.728-1.019-2.060-2.264l1.824-3.397z"></path>
<path fill="rgb(100, 33, 22)" d="M21.409 10.197c0.669-1.245 1.763-1.245 2.431 0.001l1.822 3.396c0.669 1.245-0.259 2.264-2.061 2.264h-1.957c-1.8 0-2.728-1.019-2.059-2.264l1.823-3.397z"></path>
<path fill="rgb(100, 33, 22)" d="M17.009 20.178c-0.493 0.919-1.3 0.919-1.795 0l-1.345-2.507c-0.493-0.92 0.19-1.672 1.52-1.672h1.444c1.331 0 2.015 0.752 1.521 1.672l-1.346 2.507z"></path>
</svg>
<svg id="f384" width="32" height="32" viewBox="0 0 32 32" x="480" y="0">
<path fill="rgb(102, 33, 19)" d="M19.442 28.488c0 1.682-1.363 2.284-3.045 2.284s-3.045-0.602-3.045-2.284l0.761-6.851c0-1.681 0.602-1.522 2.284-1.522s2.284-0.159 2.284 1.522l0.761 6.851z"></path>
<path fill="rgb(92, 145, 59)" d="M26.602 24.147c-5.3-4.541-7.447-11.042-10.205-11.042s-4.904 6.501-10.205 11.042c-2.227 1.908-1.166 3.012 1.887 2.791 2.722-0.195 5.267-0.813 8.317-0.813s5.596 0.617 8.317 0.813c3.054 0.221 4.115-0.883 1.888-2.791z"></path>
<path fill="rgb(62, 114, 29)" d="M24.881 22.348c-4.073-3.735-6.362-9.084-8.483-9.084-2.12 0-4.41 5.349-8.483 9.084-3.237 2.968 4.242 3.634 8.483 0 4.239 3.634 11.72 2.968 8.483 0z"></path>
<path fill="rgb(92, 145, 59)" d="M24.881 19.322c-4.073-3.49-6.362-8.486-8.483-8.486-2.12 0-4.41 4.996-8.483 8.486-3.237 2.772 4.242 3.395 8.483 0 4.239 3.395 11.72 2.772 8.483 0z"></path>
<path fill="rgb(62, 114, 29)" d="M23.020 16.845c-3.179-2.724-4.966-6.626-6.622-6.626s-3.443 3.901-6.623 6.626c-2.526 2.164 3.312 2.649 6.623 0 3.309 2.649 9.149 2.164 6.622 0z"></path>
<path fill="rgb(92, 145, 59)" d="M23.020 14.578c-3.179-2.724-4.966-6.625-6.622-6.625s-3.443 3.901-6.623 6.625c-2.526 2.165 3.312 2.65 6.623 0 3.309 2.65 9.149 2.165 6.622 0z"></path>
<path fill="rgb(62, 114, 29)" d="M21.742 12.565c-2.566-2.198-4.008-5.347-5.345-5.347s-2.778 3.149-5.345 5.347c-2.040 1.747 2.673 2.139 5.345 0 2.672 2.139 7.385 1.747 5.345 0z"></path>
<path fill="rgb(92, 145, 59)" d="M21.742 10.858c-2.566-2.198-4.008-5.347-5.345-5.347s-2.778 3.149-5.345 5.347c-2.040 1.747 2.673 2.139 5.345 0 2.672 2.139 7.385 1.747 5.345 0z"></path>
<path fill="rgb(62, 114, 29)" d="M20.464 8.346c-1.951-1.672-3.049-4.068-4.067-4.068s-2.115 2.396-4.067 4.068c-1.551 1.33 2.034 1.628 4.067 0 2.033 1.628 5.619 1.33 4.067 0z"></path>
<path fill="rgb(92, 145, 59)" d="M20.464 7.437c-1.951-1.672-3.049-4.069-4.067-4.069s-2.115 2.397-4.067 4.069c-1.551 1.33 2.034 1.628 4.067 0 2.033 1.628 5.619 1.33 4.067 0z"></path>
<path fill="rgb(255, 204, 77)" d="M16 10.983c0 0.698-0.565 1.263-1.263 1.263s-1.263-0.565-1.263-1.263c0-0.698 0.565-1.263 1.263-1.263s1.263 0.565 1.263 1.263z"></path>
<path fill="rgb(255, 204, 77)" d="M19.368 21.895c0 0.93-0.755 1.684-1.684 1.684s-1.684-0.755-1.684-1.684c0-0.93 0.755-1.684 1.684-1.684s1.684 0.755 1.684 1.684z"></path>
<path fill="rgb(221, 46, 68)" d="M21.895 13.895c0 1.163-0.943 2.105-2.105 2.105s-2.105-0.942-2.105-2.105c0-1.163 0.943-2.105 2.105-2.105s2.105 0.942 2.105 2.105z"></path>
<path fill="rgb(221, 46, 68)" d="M10.947 22.737c0 0.93-0.755 1.684-1.684 1.684s-1.684-0.755-1.684-1.684c0-0.93 0.755-1.684 1.684-1.684s1.684 0.755 1.684 1.684z"></path>
<path fill="rgb(166, 211, 136)" d="M14.316 16.842c0 0.93-0.755 1.684-1.684 1.684s-1.684-0.755-1.684-1.684c0-0.93 0.755-1.684 1.684-1.684s1.684 0.755 1.684 1.684z"></path>
<path fill="rgb(166, 211, 136)" d="M24.421 20.211c0 0.93-0.755 1.684-1.684 1.684s-1.684-0.755-1.684-1.684c0-0.93 0.755-1.684 1.684-1.684s1.684 0.755 1.684 1.684z"></path>
<path fill="rgb(255, 172, 51)" d="M17.161 2.256c0.12 0.232 0.431 0.462 0.688 0.513l1.161 0.227c0.257 0.050 0.317 0.244 0.134 0.431l-0.828 0.846c-0.183 0.187-0.307 0.552-0.275 0.813l0.143 1.174c0.032 0.259-0.134 0.377-0.37 0.261l-1.058-0.526c-0.236-0.116-0.622-0.121-0.86-0.010l-1.072 0.5c-0.238 0.109-0.401-0.012-0.363-0.271l0.173-1.171c0.039-0.259-0.076-0.627-0.254-0.819l-0.807-0.866c-0.179-0.191-0.114-0.385 0.145-0.429l1.166-0.197c0.259-0.043 0.573-0.266 0.701-0.495l0.574-1.035c0.127-0.229 0.331-0.227 0.452 0.005l0.548 1.049z"></path>
</svg>
<svg id="f386" width="32" height="32" viewBox="0 0 32 32" x="528" y="0">
<path fill="rgb(34, 102, 153)" d="M31.158 27.789c0 1.86-1.508 3.368-3.368 3.368h-23.579c-1.86 0-3.368-1.508-3.368-3.368v-23.579c0-1.86 1.508-3.368 3.368-3.368h23.579c1.86 0 3.368 1.508 3.368 3.368v23.579z"></path>
<path fill="rgb(85, 172, 238)" d="M16 2.736l3.159 3.159h4.42v4.42l3.159 3.159-3.159 3.159v4.42h-4.42l-3.159 3.159-3.159-3.159h-4.42v-4.42l-3.159-3.159 3.159-3.159v-4.42h4.42l3.159-3.159z"></path>
<path fill="rgb(255, 217, 131)" d="M16 4.71l1.881 4.269 4.086-1.193-1.194 4.085 5.462 1.882-5.462 1.882 1.194 4.084-4.086-1.193-1.881 10.236-1.882-10.236-4.084 1.193 1.193-4.084-5.463-1.882 5.463-1.882-1.193-4.085 4.084 1.193 1.882-4.269z"></path>
<path fill="rgb(245, 248, 250)" d="M18.526 13.474c0 1.395-1.131 2.526-2.526 2.526s-2.526-1.131-2.526-2.526c0-1.395 1.131-2.526 2.526-2.526s2.526 1.131 2.526 2.526z"></path>
<path fill="rgb(255, 204, 77)" d="M9.262 11.789c-0.16 0-0.323-0.045-0.467-0.141l-5.053-3.368c-0.387-0.258-0.491-0.781-0.233-1.168s0.781-0.492 1.168-0.233l5.053 3.368c0.387 0.258 0.491 0.781 0.233 1.168-0.163 0.243-0.429 0.375-0.701 0.375z"></path>
<path fill="rgb(255, 204, 77)" d="M22.738 11.789c-0.272 0-0.54-0.131-0.701-0.375-0.259-0.387-0.154-0.91 0.233-1.168l5.053-3.368c0.387-0.259 0.91-0.154 1.168 0.233s0.154 0.91-0.233 1.168l-5.053 3.368c-0.144 0.096-0.307 0.141-0.467 0.141z"></path>
<path fill="rgb(255, 204, 77)" d="M4.211 21.053c-0.272 0-0.539-0.131-0.701-0.375-0.258-0.387-0.153-0.909 0.233-1.168l5.053-3.368c0.387-0.259 0.909-0.154 1.168 0.233s0.153 0.909-0.233 1.168l-5.053 3.368c-0.144 0.095-0.307 0.141-0.467 0.141z"></path>
<path fill="rgb(255, 204, 77)" d="M28.631 21.053c-0.141 0-0.285-0.035-0.417-0.111l-5.895-3.368c-0.404-0.231-0.545-0.745-0.313-1.149 0.23-0.404 0.744-0.545 1.149-0.313l5.895 3.368c0.404 0.231 0.545 0.745 0.313 1.149-0.155 0.272-0.439 0.424-0.732 0.424z"></path>
<path fill="rgb(255, 204, 77)" d="M9.263 29.474c-0.115 0-0.23-0.023-0.342-0.072-0.424-0.189-0.616-0.686-0.427-1.112l3.368-7.579c0.189-0.424 0.685-0.617 1.112-0.428 0.424 0.189 0.616 0.686 0.427 1.112l-3.368 7.579c-0.139 0.313-0.447 0.5-0.77 0.5z"></path>
<path fill="rgb(255, 204, 77)" d="M22.738 29.474c-0.323 0-0.631-0.186-0.771-0.5l-3.368-7.579c-0.189-0.425 0.003-0.922 0.428-1.112s0.922 0.003 1.112 0.428l3.368 7.579c0.189 0.425-0.003 0.922-0.428 1.112-0.111 0.050-0.227 0.072-0.341 0.072z"></path>
<path fill="rgb(255, 204, 77)" d="M13.475 7.579c-0.309 0-0.606-0.17-0.755-0.466l-1.684-3.368c-0.208-0.416-0.039-0.921 0.377-1.13s0.921-0.039 1.13 0.377l1.684 3.368c0.208 0.416 0.039 0.921-0.377 1.13-0.12 0.060-0.249 0.088-0.376 0.088z"></path>
<path fill="rgb(255, 204, 77)" d="M18.525 7.579c-0.126 0-0.255-0.029-0.376-0.088-0.416-0.209-0.585-0.714-0.377-1.13l1.684-3.368c0.209-0.417 0.713-0.585 1.13-0.377s0.585 0.714 0.377 1.13l-1.684 3.368c-0.148 0.296-0.445 0.466-0.755 0.466z"></path>
</svg>
<svg id="f387" width="32" height="32" viewBox="0 0 32 32" x="576" y="0">
<path fill="rgb(34, 102, 153)" d="M31.158 4.211c0-1.86-1.508-3.368-3.368-3.368h-23.579c-1.86 0-3.368 1.508-3.368 3.368v23.579c0 1.86 1.508 3.368 3.368 3.368h23.579c1.86 0 3.368-1.508 3.368-3.368v-23.579z"></path>
<path fill="rgb(255, 204, 77)" d="M16 17.684c-0.353 0-0.681 0.223-0.799 0.576l-2.526 7.579c-0.147 0.441 0.092 0.918 0.533 1.065 0.442 0.149 0.918-0.092 1.065-0.532l2.526-7.579c0.147-0.441-0.092-0.918-0.533-1.065-0.088-0.029-0.178-0.044-0.266-0.044z"></path>
<path fill="rgb(255, 204, 77)" d="M16 17.684c-0.073 0-0.147 0.010-0.221 0.030-0.449 0.122-0.713 0.584-0.591 1.033l2.717 9.985c0.123 0.448 0.587 0.712 1.034 0.591 0.449-0.122 0.713-0.585 0.591-1.034l-2.717-9.984c-0.102-0.375-0.441-0.621-0.812-0.621z"></path>
<path fill="rgb(255, 204, 77)" d="M16 17.684c-0.184 0-0.368 0.060-0.523 0.182l-11.158 8.842c-0.364 0.289-0.425 0.819-0.136 1.183s0.819 0.424 1.183 0.137l11.158-8.842c0.364-0.289 0.426-0.819 0.136-1.183-0.166-0.21-0.412-0.319-0.66-0.319z"></path>
<path fill="rgb(255, 204, 77)" d="M16.001 17.684c-0.033 0-0.065 0.002-0.098 0.005l-10.386 1.193c-0.461 0.053-0.793 0.471-0.74 0.933s0.476 0.795 0.933 0.74l10.386-1.192c0.461-0.053 0.793-0.471 0.74-0.933-0.049-0.429-0.413-0.746-0.835-0.746z"></path>
<path fill="rgb(255, 204, 77)" d="M3.79 11.859c-0.314 0-0.616 0.177-0.76 0.479-0.2 0.42-0.023 0.923 0.397 1.123l12.211 5.825c0.419 0.202 0.922 0.023 1.123-0.397s0.023-0.923-0.397-1.123l-12.211-5.825c-0.117-0.056-0.24-0.083-0.362-0.083z"></path>
<path fill="rgb(255, 204, 77)" d="M7.017 4.912c-0.168 0-0.336 0.050-0.483 0.153-0.381 0.268-0.472 0.792-0.205 1.173l8.983 12.772c0.267 0.381 0.792 0.472 1.173 0.205s0.472-0.792 0.204-1.173l-8.982-12.772c-0.163-0.233-0.425-0.358-0.69-0.358z"></path>
<path fill="rgb(255, 204, 77)" d="M16 17.684c-0.232 0-0.464 0.096-0.631 0.284-0.308 0.348-0.276 0.88 0.072 1.189l9.859 8.737c0.349 0.307 0.88 0.276 1.189-0.072s0.276-0.88-0.072-1.189l-9.859-8.737c-0.161-0.141-0.36-0.211-0.558-0.211z"></path>
<path fill="rgb(255, 204, 77)" d="M16 17.684c-0.353 0-0.682 0.224-0.799 0.578-0.147 0.442 0.093 0.918 0.535 1.064l10.386 3.438c0.445 0.147 0.918-0.094 1.064-0.535s-0.093-0.918-0.534-1.064l-10.387-3.438c-0.088-0.029-0.177-0.043-0.264-0.043z"></path>
<path fill="rgb(255, 204, 77)" d="M27.651 16.421c-0.030 0-0.061 0.002-0.091 0.005l-11.651 1.263c-0.462 0.050-0.797 0.466-0.746 0.928s0.47 0.795 0.928 0.746l11.649-1.263c0.463-0.050 0.797-0.466 0.747-0.928-0.047-0.431-0.412-0.751-0.836-0.751z"></path>
<path fill="rgb(85, 172, 238)" d="M17.684 0.842h-3.368v16c0 0.93 0.755 1.684 1.684 1.684s1.684-0.755 1.684-1.684v-16z"></path>
<path fill="rgb(245, 248, 250)" d="M18.526 18.526c0-1.395-1.131-2.526-2.526-2.526s-2.526 1.131-2.526 2.526c0 1.395 1.131 2.526 2.526 2.526s2.526-1.131 2.526-2.526z"></path>
<path fill="rgb(245, 248, 250)" d="M6.706 27.532c0-1.097-0.89-1.987-1.987-1.987-1.098 0-1.987 0.889-1.987 1.987s0.889 1.987 1.987 1.987c1.096 0 1.987-0.889 1.987-1.987z"></path>
<path fill="rgb(245, 248, 250)" d="M28.35 27.263c0-1.376-1.115-2.491-2.491-2.491s-2.491 1.115-2.491 2.491c0 1.376 1.115 2.491 2.491 2.491s2.491-1.115 2.491-2.491z"></path>
<path fill="rgb(245, 248, 250)" d="M20.070 28.51c0-0.747-0.605-1.352-1.352-1.352s-1.352 0.605-1.352 1.352c0 0.747 0.605 1.352 1.352 1.352s1.352-0.605 1.352-1.352z"></path>
<path fill="rgb(245, 248, 250)" d="M4.907 12.562c0-0.814-0.66-1.474-1.474-1.474s-1.474 0.659-1.474 1.474c0 0.814 0.66 1.474 1.474 1.474s1.474-0.659 1.474-1.474z"></path>
<path fill="rgb(245, 248, 250)" d="M9.053 5.193c0-1.318-1.069-2.386-2.386-2.386s-2.387 1.068-2.387 2.386c0 1.317 1.069 2.386 2.387 2.386s2.386-1.069 2.386-2.386z"></path>
<path fill="rgb(245, 248, 250)" d="M29.755 17.193c0-1.027-0.833-1.86-1.86-1.86s-1.859 0.833-1.859 1.86 0.833 1.859 1.859 1.859c1.027 0 1.86-0.832 1.86-1.859z"></path>
<path fill="rgb(245, 248, 250)" d="M24.141 7.579c0-0.814-0.659-1.474-1.474-1.474s-1.474 0.659-1.474 1.474c0 0.814 0.659 1.474 1.474 1.474s1.474-0.659 1.474-1.474z"></path>
</svg>
<svg id="f388" width="32" height="32" viewBox="0 0 32 32" x="624" y="0">
<path fill="rgb(252, 171, 64)" d="M24.42 31.158c-0.377 0-0.72-0.255-0.816-0.638-0.030-0.115-0.78-2.893-3.597-3.597-3.961-0.99-4.007-6.478-4.007-6.712 0-0.465 0.376-0.84 0.84-0.841 0.467 0.029 0.842 0.375 0.844 0.84 0 0.045 0.045 4.408 2.73 5.080 3.815 0.953 4.785 4.665 4.824 4.824 0.113 0.451-0.162 0.908-0.613 1.021-0.068 0.017-0.137 0.025-0.205 0.025z"></path>
<path fill="rgb(187, 26, 52)" d="M16 21.895c-0.926 0-1.346-0.678-0.931-1.507l1.019-2.040c0.415-0.829 1.092-0.829 1.507 0l1.019 2.040c0.415 0.829-0.004 1.507-0.931 1.507h-1.684z"></path>
<path fill="rgb(187, 26, 52)" d="M24.421 8.421c0 5.053-5.895 10.105-7.579 10.105s-7.579-5.053-7.579-10.105c0-4.883 3.859-7.579 7.579-7.579s7.579 2.696 7.579 7.579z"></path>
<path fill="rgb(252, 171, 64)" d="M17.684 19.368h-1.684c-0.465 0-0.842-0.376-0.842-0.842s0.377-0.842 0.842-0.842h1.684c0.466 0 0.842 0.376 0.842 0.842s-0.376 0.842-0.842 0.842z"></path>
</svg>
<svg id="f389" width="32" height="32" viewBox="0 0 32 32" x="672" y="0">
<path fill="rgb(221, 46, 68)" d="M10.632 7.148c-0.094 0.094-0.166 0.208-0.226 0.333l-0.007-0.007-9.445 21.276 0.009 0.009c-0.175 0.339 0.118 1.030 0.718 1.631 0.6 0.6 1.29 0.893 1.629 0.717l0.008 0.008 21.271-9.452c0.125-0.059 0.237-0.131 0.333-0.226 1.315-1.315-0.818-5.581-4.764-9.527s-8.212-6.079-9.528-4.764z"></path>
<path fill="rgb(234, 89, 110)" d="M11.789 10.947l-10.597 17.268-0.237 0.535 0.009 0.008c-0.175 0.34 0.118 1.030 0.718 1.631 0.195 0.195 0.397 0.344 0.597 0.469l12.878-15.701-3.368-4.211z"></path>
<path fill="rgb(160, 4, 30)" d="M20.22 11.845c3.933 3.934 6.116 8.128 4.875 9.368s-5.434-0.942-9.369-4.875c-3.933-3.934-6.116-8.129-4.876-9.37s5.435 0.943 9.37 4.877z"></path>
<path fill="rgb(170, 141, 216)" d="M16.497 12.303c-0.168 0.136-0.387 0.206-0.618 0.181-0.731-0.079-1.346-0.333-1.776-0.735-0.456-0.425-0.68-0.995-0.619-1.568 0.108-1.004 1.115-1.925 2.832-1.739 0.668 0.072 0.966-0.143 0.975-0.246 0.012-0.102-0.233-0.376-0.9-0.448-0.732-0.079-1.346-0.333-1.777-0.735-0.456-0.425-0.681-0.996-0.619-1.568 0.109-1.004 1.116-1.925 2.831-1.739 0.487 0.052 0.743-0.049 0.851-0.114 0.088-0.053 0.122-0.104 0.125-0.132 0.009-0.102-0.232-0.376-0.902-0.448-0.461-0.051-0.797-0.465-0.746-0.928s0.464-0.797 0.927-0.746c1.715 0.184 2.504 1.299 2.395 2.303s-1.115 1.924-2.832 1.739c-0.487-0.053-0.742 0.048-0.851 0.113-0.087 0.053-0.122 0.104-0.125 0.132-0.011 0.103 0.232 0.376 0.902 0.449 1.715 0.184 2.504 1.299 2.395 2.303s-1.116 1.925-2.831 1.739c-0.487-0.052-0.743 0.048-0.852 0.113-0.087 0.053-0.12 0.104-0.124 0.133-0.011 0.102 0.232 0.376 0.901 0.448 0.461 0.050 0.797 0.465 0.746 0.927-0.024 0.232-0.141 0.43-0.309 0.566z"></path>
<path fill="rgb(119, 178, 85)" d="M26.662 20.090c1.661-0.469 2.808 0.272 3.080 1.245s-0.318 2.202-1.978 2.669c-0.648 0.182-0.843 0.492-0.817 0.591 0.029 0.099 0.358 0.263 1.005 0.079 1.661-0.467 2.807 0.275 3.080 1.246 0.275 0.973-0.317 2.201-1.979 2.669-0.648 0.182-0.843 0.493-0.814 0.591s0.356 0.261 1.004 0.080c0.447-0.126 0.913 0.135 1.039 0.582 0.125 0.448-0.136 0.913-0.584 1.039-1.659 0.467-2.807-0.272-3.081-1.245-0.273-0.972 0.319-2.2 1.981-2.669 0.648-0.183 0.843-0.492 0.814-0.591s-0.355-0.263-1.003-0.081c-1.661 0.468-2.808-0.271-3.081-1.245s0.318-2.201 1.981-2.669c0.646-0.181 0.841-0.493 0.813-0.59-0.029-0.1-0.355-0.264-1.004-0.081-0.448 0.126-0.912-0.135-1.038-0.583s0.135-0.912 0.583-1.037z"></path>
<path fill="rgb(170, 141, 216)" d="M20.211 17.819c-0.248 0-0.492-0.109-0.659-0.316-0.291-0.364-0.232-0.893 0.131-1.184 0.184-0.147 4.563-3.587 10.751-2.701 0.461 0.066 0.78 0.492 0.714 0.952s-0.488 0.783-0.953 0.714c-5.468-0.776-9.421 2.319-9.459 2.35-0.156 0.125-0.341 0.184-0.525 0.184z"></path>
<path fill="rgb(119, 178, 85)" d="M5.688 14.316c-0.080 0-0.162-0.012-0.243-0.035-0.445-0.134-0.698-0.604-0.564-1.049 0.954-3.177 1.819-8.248 0.756-9.569-0.12-0.15-0.298-0.297-0.709-0.266-0.791 0.060-0.715 1.727-0.714 1.744 0.035 0.464-0.313 0.868-0.776 0.903-0.471 0.029-0.869-0.313-0.903-0.777-0.088-1.161 0.275-3.398 2.266-3.549 0.889-0.067 1.628 0.242 2.15 0.89 1.997 2.485-0.030 9.69-0.457 11.109-0.109 0.365-0.444 0.6-0.806 0.6z"></path>
<path fill="rgb(92, 145, 59)" d="M23.579 8.842c0 0.697-0.566 1.263-1.263 1.263s-1.263-0.566-1.263-1.263c0-0.697 0.566-1.263 1.263-1.263s1.263 0.566 1.263 1.263z"></path>
<path fill="rgb(146, 102, 204)" d="M4.211 16c0 0.93-0.755 1.684-1.684 1.684s-1.684-0.755-1.684-1.684c0-0.93 0.755-1.684 1.684-1.684s1.684 0.755 1.684 1.684z"></path>
<path fill="rgb(92, 145, 59)" d="M29.474 17.263c0 0.697-0.566 1.263-1.263 1.263s-1.263-0.566-1.263-1.263c0-0.697 0.566-1.263 1.263-1.263s1.263 0.566 1.263 1.263z"></path>
<path fill="rgb(92, 145, 59)" d="M21.895 27.368c0 0.697-0.566 1.263-1.263 1.263s-1.263-0.566-1.263-1.263c0-0.697 0.566-1.263 1.263-1.263s1.263 0.566 1.263 1.263z"></path>
<path fill="rgb(255, 204, 77)" d="M26.105 4.211c0 0.93-0.755 1.684-1.684 1.684s-1.684-0.755-1.684-1.684c0-0.93 0.755-1.684 1.684-1.684s1.684 0.755 1.684 1.684z"></path>
<path fill="rgb(255, 204, 77)" d="M29.474 8c0 0.697-0.566 1.263-1.263 1.263s-1.263-0.566-1.263-1.263c0-0.697 0.566-1.263 1.263-1.263s1.263 0.566 1.263 1.263z"></path>
<path fill="rgb(255, 204, 77)" d="M26.947 11.368c0 0.697-0.566 1.263-1.263 1.263s-1.263-0.566-1.263-1.263c0-0.697 0.566-1.263 1.263-1.263s1.263 0.566 1.263 1.263z"></path>
<path fill="rgb(255, 204, 77)" d="M8.421 20.632c0 0.697-0.566 1.263-1.263 1.263s-1.263-0.566-1.263-1.263c0-0.697 0.566-1.263 1.263-1.263s1.263 0.566 1.263 1.263z"></path>
</svg>
<svg id="f393" width="32" height="32" viewBox="0 0 32 32" x="720" y="0">
<path fill="rgb(41, 47, 51)" d="M21.053 12.631h-10.105c0 0-4.211 5.053-4.211 8.421s9.263 9.263 9.263 9.263c0 0 9.263-5.895 9.263-9.263s-4.211-8.421-4.211-8.421z"></path>
<path fill="rgba(103, 117, 127, 0.25)" d="M17.381 1.92c-0.759-0.593-2.002-0.593-2.76 0l-12.397 9.682c-0.76 0.592-0.76 1.563 0 2.155l12.397 9.68c0.76 0.593 2.002 0.593 2.76 0l12.398-9.68c0.759-0.592 0.759-1.563 0-2.155l-12.397-9.682z"></path>
<path fill="rgb(252, 171, 64)" d="M7.579 21.895c0 0-1.684 1.684-1.684 2.526v5.053c0 0 0 1.684 1.684 1.684s1.684-1.684 1.684-1.684v-5.053c0-0.842-1.684-2.526-1.684-2.526z"></path>
<path fill="rgb(253, 216, 136)" d="M10.106 22.737c0 1.396-1.131 2.526-2.526 2.526s-2.526-1.13-2.526-2.526c0-1.396 1.131-2.526 2.526-2.526s2.526 1.13 2.526 2.526z"></path>
<path fill="rgb(252, 171, 64)" d="M7.58 23.579c-0.465 0-0.842-0.376-0.842-0.842v-3.333c-0.035-0.534 0.157-1.715 1.109-2.429l7.597-6.661c0.35-0.307 0.883-0.272 1.188 0.078 0.307 0.349 0.272 0.882-0.077 1.188l-7.648 6.701c-0.508 0.384-0.486 1.071-0.486 1.078l0.001 3.377c0 0.466-0.377 0.842-0.842 0.842z"></path>
<path fill="rgb(41, 47, 51)" d="M18.526 11.789c0 1.395-1.131 2.526-2.526 2.526s-2.526-1.131-2.526-2.526c0-1.395 1.131-2.526 2.526-2.526s2.526 1.131 2.526 2.526z"></path>
</svg>
<svg id="f451" width="32" height="32" viewBox="0 0 32 32" x="0" y="48">
<path fill="rgb(244, 144, 12)" d="M16.787 22.303c-0.435 0.658-1.139 0.658-1.574 0l-3.939-4.27c-0.435-0.659-0.435-1.725 0-2.381l3.939-7.64c0.435-0.657 1.139-0.657 1.574 0l3.939 7.64c0.435 0.657 0.435 1.723 0 2.381l-3.939 4.27z"></path>
<path fill="rgb(244, 144, 12)" d="M24.787 23.988c-0.435 0.658-1.139 0.658-1.574 0l-3.939-4.27c-0.435-0.659-0.435-1.724 0-2.381l5.624-7.64c0.435-0.657 1.139-0.657 1.574 0l2.255 7.64c0.435 0.658 0.435 1.723 0 2.381l-3.939 4.27z"></path>
<path fill="rgb(244, 144, 12)" d="M8.787 23.988c-0.435 0.658-1.14 0.658-1.576 0l-3.939-4.27c-0.435-0.659-0.435-1.724 0-2.381l2.254-7.64c0.435-0.657 1.14-0.657 1.576 0l5.624 7.64c0.435 0.658 0.435 1.723 0 2.381l-3.939 4.27z"></path>
<path fill="rgb(255, 204, 77)" d="M28.632 10.105c-0.379 0.379-1.785 1.789-3.368 3.679l-3.844-7.456c-0.435-0.658-1.139-0.658-1.575 0l-3.844 7.455-3.844-7.455c-0.435-0.658-1.14-0.658-1.576 0l-3.843 7.455c-1.583-1.891-2.989-3.299-3.368-3.678-0.842-0.842-2.093-0.792-1.684 0.842 0.842 3.368 0.842 5.895 0.842 10.105v1.684c0 1.86 1.508 3.368 3.368 3.368h20.211c1.86 0 3.368-1.508 3.368-3.368v-1.684c0-4.211 0-6.737 0.842-10.105 0.408-1.634-0.842-1.684-1.684-0.842z"></path>
<path fill="rgb(92, 145, 59)" d="M18.526 19.368c0 1.395-1.131 2.526-2.526 2.526s-2.526-1.131-2.526-2.526c0-1.395 1.131-2.526 2.526-2.526s2.526 1.131 2.526 2.526z"></path>
<path fill="rgb(92, 145, 59)" d="M24.421 19.368c0 0.93-0.755 1.684-1.684 1.684s-1.684-0.755-1.684-1.684c0-0.93 0.755-1.684 1.684-1.684s1.684 0.755 1.684 1.684z"></path>
<path fill="rgb(92, 145, 59)" d="M30.316 19.368c0 0.93-0.755 1.684-1.684 1.684s-1.684-0.755-1.684-1.684c0-0.93 0.755-1.684 1.684-1.684s1.684 0.755 1.684 1.684z"></path>
<path fill="rgb(92, 145, 59)" d="M10.947 19.368c0 0.93-0.754 1.684-1.684 1.684s-1.684-0.755-1.684-1.684 0.755-1.684 1.684-1.684c0.931 0 1.684 0.755 1.684 1.684z"></path>
<path fill="rgb(92, 145, 59)" d="M5.053 19.368c0 0.93-0.754 1.684-1.684 1.684s-1.684-0.755-1.684-1.684 0.755-1.684 1.684-1.684c0.931 0 1.684 0.755 1.684 1.684z"></path>
<path fill="rgb(255, 172, 51)" d="M29.474 22.737c0 1.86-1.508 3.368-3.368 3.368h-20.211c-1.86 0-3.368-1.508-3.368-3.368h26.947z"></path>
</svg>
<svg id="f490" width="32" height="32" viewBox="0 0 32 32" x="48" y="48">
<path fill="rgb(62, 114, 29)" d="M30.324 26.919c-1.166-1.875-2.813-4.211-4.434-6.643-4.328-7.387-1.273-15.504-2.435-18.114-0.472-1.061-3.267 0.813-4.678 3.843-0.3-0.089-0.629-0.132-0.985-0.125 0.131-2.019 0.247-3.629-0.163-4.551-0.598-1.346-4.941 2.037-5.443 6.509-1.555 0.847-2.713 1.647-2.713 1.647s-0.8 1.159-1.645 2.714c-4.473 0.5-7.858 4.845-6.511 5.443 0.923 0.412 2.538 0.294 4.565 0.163-0.005 0.354 0.039 0.679 0.129 0.976-3.039 1.41-4.925 4.216-3.862 4.688 2.764 1.229 11.705-2.275 19.413 3.278 0.243 0.174 0.403 0.271 0.505 0.312 1.784 1.207 3.464 2.359 4.877 3.239 2.421 1.507 3.336-0.006 3.336-0.006s1.553-0.953 0.045-3.375z"></path>
<path fill="rgb(119, 178, 85)" d="M30.34 30.171c0.311-0.459 0.285-1.076-0.121-1.483 0 0-9.987-13.315-11.651-19.974-1.665-6.658-3.703-4.831-3.107 0.399 0.274 2.398 1.53 5.17 3.205 7.903l-7.53-7.529c-0.46-0.46-1.205-0.46-1.665 0s-0.46 1.205 0 1.665l7.528 7.528c-2.733-1.673-5.504-2.931-7.901-3.203-5.231-0.597-7.058 1.442-0.4 3.106s19.975 11.651 19.975 11.651c0.405 0.407 1.022 0.432 1.48 0.123 0.029 0.006 0.055 0.008 0.066-0.003 0.022-0.022 0.029-0.051 0.049-0.072 0.021-0.019 0.050-0.026 0.070-0.047 0.012-0.011 0.008-0.037 0.003-0.063z"></path>
<path fill="rgb(221, 46, 68)" d="M12.439 6.628c1.522 1.521 1.449 4.058-0.158 5.667-1.609 1.608-3.176 0.709-4.697-0.812-1.52-1.521-2.419-3.087-0.811-4.696 1.608-1.608 4.146-1.679 5.667-0.158z"></path>
<path fill="rgb(234, 89, 110)" d="M11.468 7.599c1.522 1.522 2.421 3.087 0.813 4.696s-4.146 1.68-5.667 0.159c-1.521-1.521-0.812-4.696-0.76-6.585 0.063-2.213 3.779-0.106 5.614 1.731z"></path>
<path fill="rgb(221, 46, 68)" d="M19.928 14.118c1.523 1.522 1.45 4.058-0.157 5.667-1.609 1.609-3.175 0.709-4.696-0.811-1.52-1.521-2.42-3.088-0.812-4.696s4.147-1.68 5.666-0.159z"></path>
<path fill="rgb(234, 89, 110)" d="M18.959 15.090c1.521 1.522 2.419 3.087 0.812 4.696s-4.146 1.68-5.667 0.158c-1.521-1.521-0.812-4.696-0.76-6.584 0.063-2.213 3.778-0.105 5.614 1.731z"></path>
<path fill="rgb(244, 144, 12)" d="M10.276 14.409c1.995 0.886 2.802 3.264 1.801 5.312s-2.824 1.756-4.819 0.87c-1.996-0.886-3.406-2.027-2.406-4.077s3.427-2.991 5.423-2.105z"></path>
<path fill="rgb(255, 204, 77)" d="M9.673 15.645c1.994 0.886 3.405 2.028 2.404 4.076s-3.428 2.992-5.422 2.106c-1.996-0.885-2.406-4.076-3.006-5.848-0.705-2.073 3.616-1.402 6.024-0.334z"></path>
<path fill="rgb(244, 144, 12)" d="M21.836 6.747c0.963 2.061 0.069 4.513-1.992 5.474s-3.268-0.511-4.23-2.573c-0.962-2.061-1.314-3.933 0.748-4.894s4.511-0.069 5.474 1.994z"></path>
<path fill="rgb(255, 204, 77)" d="M20.592 7.326c0.961 2.062 1.313 3.933-0.749 4.894-2.060 0.96-4.513 0.068-5.474-1.994s0.749-4.894 1.411-6.718c0.778-2.138 3.649 1.329 4.811 3.818z"></path>
</svg>
<svg id="f493" width="32" height="32" viewBox="0 0 32 32" x="96" y="48">
<path fill="rgb(231, 90, 112)" d="M29.377 14.117c0-4.077-3.304-7.38-7.38-7.38-2.473 0-4.657 1.221-5.997 3.088-1.339-1.867-3.523-3.088-5.996-3.088-4.077 0-7.381 3.304-7.381 7.38 0 0.578 0.073 1.137 0.199 1.676 1.026 6.367 8.104 13.085 13.178 14.929 5.074-1.844 12.153-8.562 13.177-14.928 0.126-0.54 0.2-1.099 0.2-1.677z"></path>
<path fill="rgb(253, 203, 88)" d="M2.104 10.14c-0.126 0-0.255-0.029-0.376-0.088-0.416-0.209-0.585-0.714-0.377-1.13 0.856-1.71 3.194-4.376 6.133-4.706 0.462-0.051 0.878 0.28 0.931 0.743s-0.28 0.879-0.743 0.931c-2.256 0.254-4.15 2.456-4.814 3.785-0.148 0.296-0.445 0.466-0.755 0.466z"></path>
<path fill="rgb(253, 203, 88)" d="M1.718 5.579c-0.163 0-0.327-0.047-0.472-0.145-0.385-0.261-0.486-0.785-0.225-1.17 0.787-1.163 2.437-2.45 3.943-2.544 0.466-0.036 0.864 0.324 0.893 0.788s-0.324 0.864-0.788 0.893c-0.808 0.051-2.024 0.878-2.653 1.807-0.163 0.24-0.428 0.37-0.698 0.37z"></path>
<path fill="rgb(253, 203, 88)" d="M30.141 10.14c-0.309 0-0.606-0.17-0.755-0.466-0.664-1.329-2.559-3.531-4.814-3.785-0.462-0.051-0.795-0.468-0.743-0.931s0.462-0.797 0.931-0.743c2.939 0.33 5.277 2.995 6.133 4.706 0.208 0.416 0.039 0.921-0.377 1.13-0.12 0.060-0.249 0.088-0.376 0.088z"></path>
<path fill="rgb(253, 203, 88)" d="M30.527 5.579c-0.269 0-0.536-0.13-0.698-0.37-0.629-0.929-1.845-1.757-2.653-1.807-0.464-0.029-0.817-0.429-0.788-0.893s0.429-0.826 0.893-0.788c1.506 0.094 3.155 1.382 3.943 2.544 0.261 0.385 0.161 0.909-0.225 1.17-0.145 0.098-0.309 0.145-0.472 0.145z"></path>
</svg>
<svg id="f494" width="32" height="32" viewBox="0 0 32 32" x="144" y="48">
<path fill="#444444" d="M12.285 23.176c-0.25-0.417-0.239-0.941 0.029-1.347l3.701-5.596-5.048-4.328c-0.468-0.401-0.578-1.080-0.261-1.608l3.624-6.040c-1.405-1.096-3.162-1.76-5.082-1.76-4.589 0-8.31 3.72-8.31 8.31 0 0.65 0.083 1.28 0.224 1.887 1.155 7.168 9.124 14.732 14.837 16.808 0.022-0.008 0.044-0.019 0.065-0.028l-3.779-6.299z"></path>
<path fill="#444444" d="M22.752 2.498c-2.328 0-4.419 0.969-5.926 2.512l-3.405 5.673 5.085 4.359c0.483 0.414 0.582 1.123 0.231 1.655l-3.876 5.863 3.504 5.84c5.337-2.972 11.47-9.485 12.471-15.704 0.143-0.607 0.225-1.237 0.225-1.887 0-4.59-3.72-8.31-8.309-8.31z"></path>
</svg>
<svg id="f495" width="32" height="32" viewBox="0 0 32 32" x="192" y="48">
<path fill="#444444" d="M21.701 17.444c0-3.164-2.564-5.727-5.727-5.727-1.92 0-3.614 0.947-4.653 2.396-1.040-1.448-2.734-2.396-4.653-2.396-3.163 0-5.727 2.563-5.727 5.727 0 0.447 0.056 0.883 0.154 1.301 0.796 4.941 6.289 10.155 10.227 11.586 3.937-1.431 9.432-6.645 10.224-11.584 0.1-0.419 0.157-0.856 0.157-1.303z"></path>
<path fill="#444444" d="M31.061 5.637c0-2.191-1.776-3.967-3.967-3.967-1.33 0-2.504 0.657-3.224 1.661-0.721-1.004-1.894-1.661-3.223-1.661-2.191 0-3.967 1.776-3.967 3.967 0 0.311 0.040 0.612 0.107 0.901 0.551 3.423 4.356 7.034 7.083 8.025 2.727-0.991 6.533-4.602 7.084-8.024 0.067-0.29 0.107-0.591 0.107-0.902z"></path>
</svg>
<svg id="f496" width="32" height="32" viewBox="0 0 32 32" x="240" y="48">
<path fill="rgb(231, 90, 112)" d="M31.061 10.807c0-4.589-3.72-8.31-8.309-8.31-2.786 0-5.244 1.375-6.752 3.477-1.507-2.102-3.966-3.477-6.751-3.477-4.589 0-8.31 3.72-8.31 8.31 0 0.65 0.083 1.28 0.224 1.887 1.155 7.168 9.124 14.732 14.837 16.808 5.712-2.077 13.683-9.64 14.835-16.808 0.143-0.607 0.226-1.237 0.226-1.887z"></path>
<path fill="rgb(253, 203, 88)" d="M29.766 20.963l-3.22-1.192-1.192-3.22c-0.122-0.331-0.438-0.551-0.79-0.551s-0.668 0.22-0.789 0.551l-1.192 3.22-3.22 1.192c-0.331 0.122-0.551 0.438-0.551 0.789s0.22 0.668 0.551 0.79l3.22 1.192 1.192 3.22c0.121 0.331 0.437 0.551 0.789 0.551s0.668-0.22 0.79-0.551l1.192-3.22 3.22-1.192c0.331-0.122 0.55-0.438 0.55-0.79s-0.219-0.667-0.55-0.789z"></path>
<path fill="rgb(253, 203, 88)" d="M10.398 7.489l-1.992-0.737-0.737-1.992c-0.123-0.331-0.438-0.55-0.79-0.55s-0.668 0.219-0.79 0.55l-0.738 1.992-1.991 0.737c-0.331 0.123-0.55 0.438-0.55 0.79s0.219 0.667 0.55 0.79l1.991 0.737 0.738 1.992c0.122 0.331 0.437 0.55 0.79 0.55s0.667-0.219 0.79-0.55l0.737-1.992 1.992-0.737c0.331-0.123 0.55-0.438 0.55-0.79s-0.219-0.667-0.55-0.79z"></path>
</svg>
<svg id="f498" width="32" height="32" viewBox="0 0 32 32" x="288" y="48">
<path fill="rgb(66, 137, 193)" d="M16.327 16.687c0 0.216-0.103 0.409-0.267 0.574l-11.789 11.79c-0.329 0.328-0.862 0.328-1.192 0s-0.328-0.862 0-1.191l11.789-11.79c0.328-0.329 0.872-0.318 1.201 0.011 0.164 0.163 0.257 0.388 0.257 0.605z"></path>
<path fill="rgb(231, 90, 112)" d="M28.535 12.727c0-4.077-3.304-7.38-7.38-7.38-2.473 0-4.657 1.222-5.997 3.088-1.339-1.866-3.523-3.088-5.996-3.088-4.077 0-7.381 3.304-7.381 7.38 0 0.578 0.073 1.138 0.199 1.676 1.026 6.368 8.104 13.085 13.178 14.93 5.074-1.845 12.153-8.562 13.177-14.929 0.126-0.539 0.2-1.099 0.2-1.677z"></path>
<path fill="rgb(93, 173, 236)" d="M25.789 1.933c0.258 0.354 0.499 1.059 0.499 1.629 0 1.654-0.604 3.919-2.009 5.334l-3.261 2.488c-0.232 0.231-0.664 0.301-0.963 0.177-0.302-0.125-0.685 0.615-0.685 0.288v-4.259c0-1.572 3.104-5.302 3.104-5.302 0.71-0.651 1.417-0.996 2.055-0.995 0.524-0.001 0.961 0.228 1.261 0.641z"></path>
<path fill="rgb(93, 173, 236)" d="M30.845 7.456v0c0 0.649-0.351 1.547-1.014 2.269 0 0-3.797 3.748-5.398 3.748h-4.349c-0.333 0 0.432-0.775 0.306-1.083-0.126-0.306-0.056-0.947 0.18-1.183l2.631-2.755c1.441-1.432 3.89-2.623 5.575-2.623 0.58 0 1.057 0.099 1.416 0.359 0.42 0.307 0.653 0.733 0.653 1.267z"></path>
<path fill="rgb(42, 103, 151)" d="M28.117 4.896c0 0.216-0.103 0.41-0.267 0.575l-12.631 12.632c-0.329 0.328-0.862 0.328-1.192 0s-0.328-0.862 0-1.191l12.632-12.632c0.328-0.329 0.872-0.318 1.201 0.010 0.164 0.164 0.257 0.389 0.257 0.605z"></path>
<path fill="rgb(42, 103, 151)" d="M2.316 30.708c-0.218 0-0.43-0.085-0.59-0.241-0.212-0.209-0.299-0.515-0.227-0.804l1.368-5.508c0.095-0.381 0.439-0.615 0.833-0.639 0.392 0.008 0.728 0.284 0.809 0.668 0.026 0.121 0.701 3.062 3.411 3.373 0.402 0.046 0.714 0.371 0.744 0.775 0.029 0.403-0.232 0.771-0.622 0.875l-5.509 1.474c-0.072 0.019-0.145 0.029-0.217 0.029z"></path>
<path fill="rgb(218, 47, 71)" d="M15.472 21.498c-0.411 0-0.771-0.301-0.832-0.719-0.402-2.733-1.983-3.038-3.512-3.334l-0.351-0.070c-0.456-0.094-0.749-0.54-0.654-0.995s0.538-0.745 0.995-0.653l0.33 0.065c1.603 0.31 4.283 0.829 4.859 4.742 0.067 0.461-0.251 0.888-0.711 0.956-0.041 0.007-0.083 0.009-0.124 0.009z"></path>
</svg>
<svg id="f499" width="32" height="32" viewBox="0 0 32 32" x="336" y="48">
<path fill="#444444" d="M31.061 10.807c0-4.589-3.72-8.31-8.309-8.31-2.786 0-5.244 1.375-6.752 3.477-1.507-2.102-3.966-3.477-6.751-3.477-4.589 0-8.31 3.72-8.31 8.31 0 0.65 0.083 1.28 0.224 1.887 1.155 7.168 9.124 14.732 14.837 16.808 5.712-2.077 13.683-9.64 14.835-16.808 0.143-0.607 0.226-1.237 0.226-1.887z"></path>
</svg>
<svg id="untitled" width="32" height="32" viewBox="0 0 32 32" x="384" y="48">
<path fill="#444444" d="M31.061 10.807c0-4.589-3.72-8.31-8.309-8.31-2.786 0-5.244 1.375-6.752 3.477-1.507-2.102-3.966-3.477-6.751-3.477-4.589 0-8.31 3.72-8.31 8.31 0 0.65 0.083 1.28 0.224 1.887 1.155 7.168 9.124 14.732 14.837 16.808 5.712-2.077 13.683-9.64 14.835-16.808 0.143-0.607 0.226-1.237 0.226-1.887z"></path>
</svg>
<svg id="celebration" width="32" height="32" viewBox="0 0 32 32" x="432" y="48">
<path fill="rgb(221, 46, 68)" d="M10.632 7.148c-0.094 0.094-0.166 0.208-0.226 0.333l-0.007-0.007-9.445 21.276 0.009 0.009c-0.175 0.339 0.118 1.030 0.718 1.631 0.6 0.6 1.29 0.893 1.629 0.717l0.008 0.008 21.271-9.452c0.125-0.059 0.237-0.131 0.333-0.226 1.315-1.315-0.818-5.581-4.764-9.527s-8.212-6.079-9.528-4.764z"></path>
<path fill="rgb(234, 89, 110)" d="M11.789 10.947l-10.597 17.268-0.237 0.535 0.009 0.008c-0.175 0.34 0.118 1.030 0.718 1.631 0.195 0.195 0.397 0.344 0.597 0.469l12.878-15.701-3.368-4.211z"></path>
<path fill="rgb(160, 4, 30)" d="M20.22 11.845c3.933 3.934 6.116 8.128 4.875 9.368s-5.434-0.942-9.369-4.875c-3.933-3.934-6.116-8.129-4.876-9.37s5.435 0.943 9.37 4.877z"></path>
<path fill="rgb(170, 141, 216)" d="M16.497 12.303c-0.168 0.136-0.387 0.206-0.618 0.181-0.731-0.079-1.346-0.333-1.776-0.735-0.456-0.425-0.68-0.995-0.619-1.568 0.108-1.004 1.115-1.925 2.832-1.739 0.668 0.072 0.966-0.143 0.975-0.246 0.012-0.102-0.233-0.376-0.9-0.448-0.732-0.079-1.346-0.333-1.777-0.735-0.456-0.425-0.681-0.996-0.619-1.568 0.109-1.004 1.116-1.925 2.831-1.739 0.487 0.052 0.743-0.049 0.851-0.114 0.088-0.053 0.122-0.104 0.125-0.132 0.009-0.102-0.232-0.376-0.902-0.448-0.461-0.051-0.797-0.465-0.746-0.928s0.464-0.797 0.927-0.746c1.715 0.184 2.504 1.299 2.395 2.303s-1.115 1.924-2.832 1.739c-0.487-0.053-0.742 0.048-0.851 0.113-0.087 0.053-0.122 0.104-0.125 0.132-0.011 0.103 0.232 0.376 0.902 0.449 1.715 0.184 2.504 1.299 2.395 2.303s-1.116 1.925-2.831 1.739c-0.487-0.052-0.743 0.048-0.852 0.113-0.087 0.053-0.12 0.104-0.124 0.133-0.011 0.102 0.232 0.376 0.901 0.448 0.461 0.050 0.797 0.465 0.746 0.927-0.024 0.232-0.141 0.43-0.309 0.566z"></path>
<path fill="rgb(119, 178, 85)" d="M26.662 20.090c1.661-0.469 2.808 0.272 3.080 1.245s-0.318 2.202-1.978 2.669c-0.648 0.182-0.843 0.492-0.817 0.591 0.029 0.099 0.358 0.263 1.005 0.079 1.661-0.467 2.807 0.275 3.080 1.246 0.275 0.973-0.317 2.201-1.979 2.669-0.648 0.182-0.843 0.493-0.814 0.591s0.356 0.261 1.004 0.080c0.447-0.126 0.913 0.135 1.039 0.582 0.125 0.448-0.136 0.913-0.584 1.039-1.659 0.467-2.807-0.272-3.081-1.245-0.273-0.972 0.319-2.2 1.981-2.669 0.648-0.183 0.843-0.492 0.814-0.591s-0.355-0.263-1.003-0.081c-1.661 0.468-2.808-0.271-3.081-1.245s0.318-2.201 1.981-2.669c0.646-0.181 0.841-0.493 0.813-0.59-0.029-0.1-0.355-0.264-1.004-0.081-0.448 0.126-0.912-0.135-1.038-0.583s0.135-0.912 0.583-1.037z"></path>
<path fill="rgb(170, 141, 216)" d="M20.211 17.819c-0.248 0-0.492-0.109-0.659-0.316-0.291-0.364-0.232-0.893 0.131-1.184 0.184-0.147 4.563-3.587 10.751-2.701 0.461 0.066 0.78 0.492 0.714 0.952s-0.488 0.783-0.953 0.714c-5.468-0.776-9.421 2.319-9.459 2.35-0.156 0.125-0.341 0.184-0.525 0.184z"></path>
<path fill="rgb(119, 178, 85)" d="M5.688 14.316c-0.080 0-0.162-0.012-0.243-0.035-0.445-0.134-0.698-0.604-0.564-1.049 0.954-3.177 1.819-8.248 0.756-9.569-0.12-0.15-0.298-0.297-0.709-0.266-0.791 0.060-0.715 1.727-0.714 1.744 0.035 0.464-0.313 0.868-0.776 0.903-0.471 0.029-0.869-0.313-0.903-0.777-0.088-1.161 0.275-3.398 2.266-3.549 0.889-0.067 1.628 0.242 2.15 0.89 1.997 2.485-0.030 9.69-0.457 11.109-0.109 0.365-0.444 0.6-0.806 0.6z"></path>
<path fill="rgb(92, 145, 59)" d="M23.579 8.842c0 0.697-0.566 1.263-1.263 1.263s-1.263-0.566-1.263-1.263c0-0.697 0.566-1.263 1.263-1.263s1.263 0.566 1.263 1.263z"></path>
<path fill="rgb(146, 102, 204)" d="M4.211 16c0 0.93-0.755 1.684-1.684 1.684s-1.684-0.755-1.684-1.684c0-0.93 0.755-1.684 1.684-1.684s1.684 0.755 1.684 1.684z"></path>
<path fill="rgb(92, 145, 59)" d="M29.474 17.263c0 0.697-0.566 1.263-1.263 1.263s-1.263-0.566-1.263-1.263c0-0.697 0.566-1.263 1.263-1.263s1.263 0.566 1.263 1.263z"></path>
<path fill="rgb(92, 145, 59)" d="M21.895 27.368c0 0.697-0.566 1.263-1.263 1.263s-1.263-0.566-1.263-1.263c0-0.697 0.566-1.263 1.263-1.263s1.263 0.566 1.263 1.263z"></path>
<path fill="rgb(255, 204, 77)" d="M26.105 4.211c0 0.93-0.755 1.684-1.684 1.684s-1.684-0.755-1.684-1.684c0-0.93 0.755-1.684 1.684-1.684s1.684 0.755 1.684 1.684z"></path>
<path fill="rgb(255, 204, 77)" d="M29.474 8c0 0.697-0.566 1.263-1.263 1.263s-1.263-0.566-1.263-1.263c0-0.697 0.566-1.263 1.263-1.263s1.263 0.566 1.263 1.263z"></path>
<path fill="rgb(255, 204, 77)" d="M26.947 11.368c0 0.697-0.566 1.263-1.263 1.263s-1.263-0.566-1.263-1.263c0-0.697 0.566-1.263 1.263-1.263s1.263 0.566 1.263 1.263z"></path>
<path fill="rgb(255, 204, 77)" d="M8.421 20.632c0 0.697-0.566 1.263-1.263 1.263s-1.263-0.566-1.263-1.263c0-0.697 0.566-1.263 1.263-1.263s1.263 0.566 1.263 1.263z"></path>
</svg>
<svg id="rheart" width="32" height="32" viewBox="0 0 32 32" x="480" y="48">
<path fill="#444444" d="M31.061 10.807c0-4.589-3.72-8.31-8.309-8.31-2.786 0-5.244 1.375-6.752 3.477-1.507-2.102-3.966-3.477-6.751-3.477-4.589 0-8.31 3.72-8.31 8.31 0 0.65 0.083 1.28 0.224 1.887 1.155 7.168 9.124 14.732 14.837 16.808 5.712-2.077 13.683-9.64 14.835-16.808 0.143-0.607 0.226-1.237 0.226-1.887z"></path>
</svg>
<svg id="star" width="32" height="32" viewBox="0 0 32 32" x="528" y="48">
<path fill="rgb(255, 204, 77)" d="M25.128 15.695c-0.831 0.879-1.375 2.583-1.21 3.784l0.75 5.425c0.166 1.201-0.59 1.757-1.681 1.236l-4.927-2.355c-1.091-0.522-2.87-0.515-3.957 0.015l-4.906 2.393c-1.087 0.53-1.848-0.023-1.691-1.223l0.71-5.432c0.157-1.201-0.4-2.9-1.238-3.773l-3.784-3.948c-0.839-0.872-0.552-1.769 0.635-1.992l5.365-1c1.187-0.221 2.624-1.279 3.194-2.349l2.568-4.831c0.569-1.070 1.507-1.073 2.083-0.008l2.605 4.81c0.578 1.066 2.022 2.111 3.213 2.323l5.371 0.96c1.189 0.213 1.482 1.107 0.652 1.987l-3.753 3.975z"></path>
<path fill="rgb(255, 217, 131)" d="M9.080 2.679c0.861 1.19 2.060 4.141 1.446 4.587s-3.037-1.608-3.899-2.798c-0.861-1.19-0.787-2.247-0.11-2.74s1.702-0.238 2.563 0.952z"></path>
<path fill="rgb(255, 217, 131)" d="M25.373 4.468c-0.861 1.191-3.285 3.246-3.9 2.797-0.613-0.446 0.585-3.396 1.448-4.585 0.861-1.191 1.885-1.448 2.563-0.952 0.677 0.493 0.749 1.55-0.11 2.74z"></path>
<path fill="rgb(255, 217, 131)" d="M14.842 28.877c-0.001-1.47 0.756-4.565 1.517-4.565 0.756 0 1.514 3.095 1.513 4.564 0 1.471-0.677 2.284-1.516 2.282-0.837 0.002-1.514-0.81-1.514-2.281z"></path>
<path fill="rgb(255, 217, 131)" d="M28.466 21.077c-1.394-0.454-4.091-2.133-3.856-2.859 0.233-0.722 3.4-0.489 4.791-0.035 1.395 0.455 1.955 1.352 1.695 2.152-0.259 0.799-1.236 1.196-2.63 0.741z"></path>
<path fill="rgb(255, 217, 131)" d="M2.596 18.184c1.394-0.455 4.559-0.688 4.795 0.037 0.232 0.722-2.466 2.403-3.858 2.856s-2.373 0.059-2.63-0.741c-0.259-0.8 0.298-1.697 1.693-2.152z"></path>
</svg>
<svg id="twoHearts" width="32" height="32" viewBox="0 0 32 32" x="576" y="48">
<path fill="rgb(242, 171, 186)" d="M31.138 14.882c-0.211 3.852-6.899 6.946-15.139 6.946-2.765 0-5.348-0.355-7.579-0.963v3.021c2.232 0.862 4.815 1.364 7.579 1.364 8.372 0 15.158-4.525 15.158-10.105 0-0.088-0.016-0.174-0.019-0.262z"></path>
<path fill="rgb(242, 171, 186)" d="M23.579 6.4c-2.228-0.862-4.814-1.362-7.579-1.362-7.594 0-13.865 3.727-14.968 8.584 1.102-3.427 7.373-6.058 14.968-6.058 2.765 0 5.351 0.352 7.579 0.961v-2.125z"></path>
<path fill="rgb(231, 90, 112)" d="M21.701 17.444c0-3.164-2.564-5.727-5.727-5.727-1.92 0-3.614 0.947-4.653 2.396-1.040-1.448-2.734-2.396-4.653-2.396-3.163 0-5.727 2.563-5.727 5.727 0 0.447 0.056 0.883 0.154 1.301 0.796 4.941 6.289 10.155 10.227 11.586 3.937-1.431 9.432-6.645 10.224-11.584 0.1-0.419 0.157-0.856 0.157-1.303z"></path>
<path fill="rgb(231, 90, 112)" d="M31.061 5.637c0-2.191-1.776-3.967-3.967-3.967-1.33 0-2.504 0.657-3.224 1.661-0.721-1.004-1.894-1.661-3.223-1.661-2.191 0-3.967 1.776-3.967 3.967 0 0.311 0.040 0.612 0.107 0.901 0.551 3.423 4.356 7.034 7.083 8.025 2.727-0.991 6.533-4.602 7.084-8.024 0.067-0.29 0.107-0.591 0.107-0.902z"></path>
</svg>
<svg id="yellowHearts" width="32" height="32" viewBox="0 0 32 32" x="624" y="48">
<path fill="#444444" d="M31.061 10.807c0-4.589-3.72-8.31-8.309-8.31-2.786 0-5.244 1.375-6.752 3.477-1.507-2.102-3.966-3.477-6.751-3.477-4.589 0-8.31 3.72-8.31 8.31 0 0.65 0.083 1.28 0.224 1.887 1.155 7.168 9.124 14.732 14.837 16.808 5.712-2.077 13.683-9.64 14.835-16.808 0.143-0.607 0.226-1.237 0.226-1.887z"></path>
</svg>
</svg>
