<?xml version="1.0" encoding="UTF-8" standalone="no"?>
<!-- Generator: Adobe Illustrator 18.1.1, SVG Export Plug-In . SVG Version: 6.00 Build 0)  -->

<svg
   xmlns:dc="http://purl.org/dc/elements/1.1/"
   xmlns:cc="http://creativecommons.org/ns#"
   xmlns:rdf="http://www.w3.org/1999/02/22-rdf-syntax-ns#"
   xmlns:svg="http://www.w3.org/2000/svg"
   xmlns="http://www.w3.org/2000/svg"
   xmlns:xlink="http://www.w3.org/1999/xlink"
   xmlns:sodipodi="http://sodipodi.sourceforge.net/DTD/sodipodi-0.dtd"
   xmlns:inkscape="http://www.inkscape.org/namespaces/inkscape"
   version="1.1"
   id="svg2"
   x="0px"
   y="0px"
   viewBox="0 0 47.5 47.5"
   enable-background="new 0 0 500 500"
   xml:space="preserve"
   inkscape:version="0.91 r13725"
   sodipodi:docname="cop.svg"
   width="47.5"
   height="47.5"><metadata
     id="metadata42"><rdf:RDF><cc:Work
         rdf:about=""><dc:format>image/svg+xml</dc:format><dc:type
           rdf:resource="http://purl.org/dc/dcmitype/StillImage" /><dc:title></dc:title></cc:Work></rdf:RDF></metadata><defs
     id="defs40" /><sodipodi:namedview
     pagecolor="#ffffff"
     bordercolor="#666666"
     borderopacity="1"
     objecttolerance="10"
     gridtolerance="10"
     guidetolerance="10"
     inkscape:pageopacity="0"
     inkscape:pageshadow="2"
     inkscape:window-width="815"
     inkscape:window-height="644"
     id="namedview38"
     showgrid="false"
     inkscape:zoom="3.776"
     inkscape:cx="20.465395"
     inkscape:cy="11.023886"
     inkscape:window-x="507"
     inkscape:window-y="103"
     inkscape:window-maximized="0"
     inkscape:current-layer="svg2" /><g
     id="g12"
     transform="matrix(0.11875,0,0,-0.11875,-0.44491527,5.3177275)"><g
       id="g14"><g
         id="g5"><defs
           id="defs7"><rect
             id="SVGID_1_"
             x="-50"
             y="-412"
             width="500"
             height="500" /></defs><clipPath
           id="SVGID_2_"><use
             xlink:href="#SVGID_1_"
             overflow="visible"
             id="use11"
             style="overflow:visible"
             x="0"
             y="0"
             width="100%"
             height="100%" /></clipPath><g
           id="g16"
           clip-path="url(#SVGID_2_)"><g
             id="g22"
             transform="translate(35,27)"><path
               id="path24"
               d="M 333.4,-104.8 C 333.4,-162.9 258,-210.1 165,-210.1 72,-210.1 -3.4,-163 -3.4,-104.8 -3.4,-46.6 72,0.5 165,0.5 c 93,0 168.4,-47.2 168.4,-105.3"
               inkscape:connector-curvature="0"
               style="fill:#2a6797" /></g><g
             id="g26"
             transform="translate(31,22)"><path
               id="path28"
               d="m 295.3,-152.4 0,42.1 -252.6,0 0,-42.1 c -17.4,0 -31.6,-18.9 -31.6,-42.1 0,-23.2 14.1,-42.1 31.6,-42.1 0,-69.8 56.6,-126.3 126.3,-126.3 69.8,0 126.3,56.5 126.3,126.3 17.4,0 31.6,18.9 31.6,42.1 0,23.2 -14.2,42.1 -31.6,42.1"
               inkscape:connector-curvature="0"
               style="fill:#c28b6e" /></g><g
             id="g30"
             transform="translate(25.4404,8.2363)"><path
               id="path32"
               d="m 242.4,-283.5 c -0.9,1.7 -2.7,2.8 -4.6,2.8 l -126.4,0 c -1.9,0 -3.7,-1.1 -4.6,-2.8 -0.9,-1.7 -0.8,-3.8 0.3,-5.4 0.9,-1.4 23.1,-33.9 67.5,-33.9 44.4,0 66.6,32.5 67.5,33.9 1.1,1.6 1.2,3.6 0.3,5.4"
               inkscape:connector-curvature="0"
               style="fill:#805723" /></g><g
             id="g34"
             transform="translate(16,13)"><path
               id="path36"
               d="m 152.4,-238.2 c 0,0 10.5,-21.1 31.6,-21.1 21.1,0 31.6,21.1 31.6,21.1 0,0 0,-31.6 -31.6,-31.6 -31.6,0 -31.6,31.6 -31.6,31.6"
               inkscape:connector-curvature="0"
               style="fill:#664500" /></g><g
             id="g38"
             transform="translate(28,16)"><path
               id="path40"
               d="m 266.7,-209.6 c 0,-11.6 -16.5,-21.1 -36.8,-21.1 -20.3,0 -36.8,9.4 -36.8,21.1 0,11.7 16.5,21.1 36.8,21.1 20.3,0 36.8,-9.5 36.8,-21.1"
               inkscape:connector-curvature="0"
               style="fill:#f5f8fa" /></g><g
             id="g42"
             transform="translate(17,16)"><path
               id="path44"
               d="m 161.9,-209.6 c 0,-11.6 -16.5,-21.1 -36.8,-21.1 -20.3,0 -36.8,9.4 -36.8,21.1 0,11.7 16.5,21.1 36.8,21.1 20.3,0 36.8,-9.5 36.8,-21.1"
               inkscape:connector-curvature="0"
               style="fill:#f5f8fa" /></g><g
             id="g46"
             transform="translate(26,16.5)"><path
               id="path48"
               d="m 247.7,-204.8 c 0,-8.7 -7.1,-15.8 -15.8,-15.8 -8.7,0 -15.8,7.1 -15.8,15.8 0,8.7 7.1,15.8 15.8,15.8 8.7,0 15.8,-7.1 15.8,-15.8"
               inkscape:connector-curvature="0"
               style="fill:#292f33" /></g><g
             id="g50"
             transform="translate(15,16.5)"><path
               id="path52"
               d="m 142.9,-204.8 c 0,-8.7 -7.1,-15.8 -15.8,-15.8 -8.7,0 -15.8,7.1 -15.8,15.8 0,8.7 7.1,15.8 15.8,15.8 8.7,0 15.8,-7.1 15.8,-15.8"
               inkscape:connector-curvature="0"
               style="fill:#292f33" /></g><g
             id="g54"
             transform="translate(31,25)"><path
               id="path56"
               d="m 295.3,-123.8 -252.6,0 0,42.1 c 0,0 52.6,31.6 126.3,31.6 73.7,0 126.3,-31.6 126.3,-31.6 l 0,-42.1 z"
               inkscape:connector-curvature="0"
               style="fill:#4289c1" /></g><g
             id="g58"
             transform="translate(31,25)"><path
               id="path60"
               d="m 295.3,-123.8 c 0,0 -52.6,10.5 -126.3,10.5 -73.7,0 -126.3,-10.5 -126.3,-10.5 l 0,-73.7 c 0,0 14.1,35.2 19.2,59.5 20,-12.2 55.7,-27.9 107.1,-27.9 51.5,0 87.1,15.7 107.1,27.9 5.1,-24.3 19.2,-59.5 19.2,-59.5 l 0,73.7 z"
               inkscape:connector-curvature="0"
               style="fill:#292f33" /></g><g
             id="g62"
             transform="translate(22,35)"><path
               id="path64"
               d="m 209.6,-28.6 c 0,0 0,0 0,0 l 0,0 0,0 c -3.3,0 -6.1,-1.6 -8,-4 -4,-1 -9.4,-1.2 -16.3,1 -1.9,1.8 -4.4,3 -7.3,3 -2.9,0 -5.4,-1.1 -7.3,-3 -6.9,-2.2 -12.3,-2 -16.3,-1 -1.9,2.4 -4.7,4 -8,4 l 0,0 0,0 c 0,0 0,0 0,0 -5.8,0 -10.5,-4.7 -10.5,-10.5 0,-5.8 4.7,-10.5 10.5,-10.5 0,0 0,0 0,0 l 0,0 c 0,-42.1 21,-52.6 31.6,-52.6 10.5,0 31.5,10.5 31.5,52.6 l 0,0 c 0,0 0,0 0,0 5.8,0 10.5,4.7 10.5,10.5 0,5.8 -4.6,10.5 -10.4,10.5"
               inkscape:connector-curvature="0"
               style="fill:#fdcb58" /></g><g
             id="g66"
             transform="translate(22,7)"><path
               id="path68"
               d="m 209.6,-295.3 -63.2,0 c -2.9,0 -5.3,2.4 -5.3,5.3 0,2.9 2.4,5.3 5.3,5.3 l 63.2,0 c 2.9,0 5.3,-2.4 5.3,-5.3 -0.1,-3 -2.4,-5.3 -5.3,-5.3"
               inkscape:connector-curvature="0"
               style="fill:#ffffff" /></g></g></g></g></g></svg>