<?xml version="1.0" encoding="UTF-8" standalone="no"?>
<!-- Generator: Adobe Illustrator 18.1.1, SVG Export Plug-In . SVG Version: 6.00 Build 0)  -->

<svg
   xmlns:dc="http://purl.org/dc/elements/1.1/"
   xmlns:cc="http://creativecommons.org/ns#"
   xmlns:rdf="http://www.w3.org/1999/02/22-rdf-syntax-ns#"
   xmlns:svg="http://www.w3.org/2000/svg"
   xmlns="http://www.w3.org/2000/svg"
   xmlns:sodipodi="http://sodipodi.sourceforge.net/DTD/sodipodi-0.dtd"
   xmlns:inkscape="http://www.inkscape.org/namespaces/inkscape"
   version="1.0"
   x="0px"
   y="0px"
   viewBox="0 0 47.5 47.5"
   xml:space="preserve"
   id="svg4610"
   inkscape:version="0.91 r13725"
   sodipodi:docname="Emoji_Haley_Williams.svg"
   width="47.5"
   height="47.5"><metadata
     id="metadata5011"><rdf:RDF><cc:Work
         rdf:about=""><dc:format>image/svg+xml</dc:format><dc:type
           rdf:resource="http://purl.org/dc/dcmitype/StillImage" /><dc:title></dc:title></cc:Work></rdf:RDF></metadata><defs
     id="defs5009" /><sodipodi:namedview
     pagecolor="#ffffff"
     bordercolor="#666666"
     borderopacity="1"
     objecttolerance="10"
     gridtolerance="10"
     guidetolerance="10"
     inkscape:pageopacity="0"
     inkscape:pageshadow="2"
     inkscape:window-width="1309"
     inkscape:window-height="811"
     id="namedview5007"
     showgrid="false"
     inkscape:zoom="6.156543"
     inkscape:cx="-4.3281415"
     inkscape:cy="26.180763"
     inkscape:window-x="51"
     inkscape:window-y="2"
     inkscape:window-maximized="0"
     inkscape:current-layer="svg4610" /><style
     type="text/css"
     id="style4612">
	.st0{fill:url(#SVGID_1_);}
	.st1{fill:#351B0E;}
	.st2{fill:#BF9A6A;}
	.st3{fill:url(#SVGID_2_);}
	.st4{fill:url(#SVGID_3_);}
	.st5{fill:none;stroke:#6F5537;stroke-miterlimit:10;}
	.st6{fill:#EED2AA;}
	.st7{fill:url(#SVGID_4_);}
	.st8{fill:#FFFFFF;}
	.st9{fill:#472512;}
	.st10{fill:#AF8A66;}
	.st11{fill:#FFFFFF;stroke:#CCA976;stroke-miterlimit:10;}
	.st12{fill:url(#SVGID_5_);}
	.st13{fill:url(#SVGID_6_);}
	.st14{fill:url(#SVGID_7_);}
	.st15{fill:url(#SVGID_8_);}
	.st16{fill:#EEC9AA;}
	.st17{fill:url(#SVGID_9_);}
	.st18{fill:#331C13;}
	.st19{fill:url(#SVGID_10_);}
	.st20{fill:#875940;}
	.st21{fill:url(#SVGID_11_);}
	.st22{fill:#613F2C;}
	.st23{fill:#D3AF79;}
	.st24{fill:url(#SVGID_12_);}
	.st25{fill:url(#SVGID_13_);}
	.st26{fill:url(#SVGID_14_);}
	.st27{fill:#3D2E1F;}
	.st28{fill:url(#SVGID_15_);}
	.st29{fill:url(#SVGID_16_);}
	.st30{fill:#6F5436;}
	.st31{fill:#56413A;}
	.st32{fill:#8E6B57;}
	.st33{fill:url(#SVGID_17_);}
	.st34{fill:url(#SVGID_18_);}
	.st35{fill:url(#SVGID_19_);}
	.st36{fill:url(#SVGID_20_);}
	.st37{fill:url(#SVGID_21_);}
	.st38{fill:url(#SVGID_22_);}
	.st39{fill:url(#SVGID_23_);}
	.st40{fill:#EEC8AA;}
	.st41{fill:url(#SVGID_24_);}
	.st42{fill:url(#SVGID_25_);}
	.st43{fill:url(#SVGID_26_);}
	.st44{fill:#BC8769;}
	.st45{opacity:0.6;fill:#74522E;}
	.st46{fill:#212123;}
	.st47{fill:url(#SVGID_27_);}
	.st48{fill:url(#SVGID_28_);}
	.st49{fill:url(#SVGID_29_);}
	.st50{fill:url(#SVGID_30_);}
	.st51{fill:url(#SVGID_31_);}
	.st52{fill:url(#SVGID_32_);}
	.st53{fill:url(#SVGID_33_);}
	.st54{fill:url(#SVGID_34_);}
	.st55{fill:url(#SVGID_35_);}
	.st56{fill:url(#SVGID_36_);}
	.st57{fill:url(#SVGID_37_);}
	.st58{fill:url(#SVGID_38_);}
	.st59{fill:url(#SVGID_39_);}
	.st60{fill:url(#SVGID_40_);}
	.st61{fill:url(#SVGID_41_);}
	.st62{fill:url(#SVGID_42_);}
	.st63{fill:url(#SVGID_43_);}
	.st64{fill:url(#SVGID_44_);}
	.st65{fill:url(#SVGID_45_);}
	.st66{fill:url(#SVGID_46_);}
	.st67{fill:#2D221C;}
	.st68{fill:#D8A88F;}
	.st69{fill:url(#SVGID_47_);}
	.st70{fill:url(#SVGID_48_);}
	.st71{fill:#EEC3AA;}
	.st72{fill:url(#SVGID_49_);}
	.st73{opacity:0.1;}
	.st74{fill:url(#SVGID_50_);}
	.st75{fill:url(#SVGID_51_);}
	.st76{fill:url(#SVGID_52_);}
	.st77{fill:#C68973;}
	.st78{fill:url(#SVGID_53_);}
	.st79{fill:url(#SVGID_54_);}
	.st80{fill:#EEBBAA;}
	.st81{fill:url(#SVGID_55_);}
	.st82{fill:url(#SVGID_56_);}
	.st83{fill:#352923;}
	.st84{fill:url(#SVGID_57_);}
	.st85{fill:url(#SVGID_58_);}
	.st86{fill:url(#SVGID_59_);}
	.st87{fill:url(#SVGID_60_);}
	.st88{fill:url(#SVGID_61_);}
	.st89{fill:url(#SVGID_62_);}
	.st90{fill:url(#SVGID_63_);}
	.st91{fill:url(#SVGID_64_);}
	.st92{fill:url(#SVGID_65_);}
	.st93{fill:#807062;}
	.st94{fill:url(#SVGID_66_);}
	.st95{fill:url(#SVGID_67_);}
	.st96{fill:url(#SVGID_68_);}
	.st97{fill:none;stroke:#63493D;stroke-miterlimit:10;}
	.st98{fill:#7F5E4E;}
	.st99{fill:url(#SVGID_69_);}
	.st100{fill:#FFFFFF;stroke:#63493D;stroke-miterlimit:10;}
	.st101{fill:url(#SVGID_70_);}
	.st102{fill:url(#SVGID_71_);}
	.st103{fill:#1C1612;}
	.st104{fill:#34251E;}
	.st105{fill:url(#SVGID_72_);}
	.st106{fill:url(#SVGID_73_);}
	.st107{fill:#E8B3A6;}
	.st108{fill:none;stroke:#2E252C;stroke-miterlimit:10;}
	.st109{fill:#FFFFFF;stroke:#545454;stroke-miterlimit:10;}
	.st110{fill:url(#SVGID_74_);}
	.st111{fill:url(#SVGID_75_);}
	.st112{fill:#2D221B;}
	.st113{fill:url(#SVGID_76_);}
	.st114{clip-path:url(#SVGID_78_);}
	.st115{fill:url(#SVGID_79_);}
	.st116{fill:url(#SVGID_80_);}
	.st117{fill:#C99979;}
	.st118{fill:#D8A998;}
	.st119{fill:none;stroke:#884744;stroke-miterlimit:10;}
	.st120{fill:#D3A079;}
	.st121{fill:#2F2F30;}
	.st122{fill:#515151;}
	.st123{fill:#5E5E5E;}
	.st124{fill:#898989;}
	.st125{opacity:0.5;fill:#515151;}
	.st126{fill:url(#SVGID_81_);}
	.st127{opacity:0.75;}
	.st128{fill:#6B4D4B;}
	.st129{opacity:0.57;fill:url(#SVGID_82_);stroke:#63493D;stroke-miterlimit:10;}
	.st130{opacity:0.75;fill:url(#SVGID_83_);}
	.st131{fill:url(#SVGID_84_);}
	.st132{fill:url(#SVGID_85_);}
	.st133{fill:url(#SVGID_86_);}
	.st134{opacity:0.11;fill:#1C1612;}
	.st135{fill:url(#SVGID_87_);}
	.st136{opacity:0.57;fill:url(#SVGID_88_);stroke:#63493D;stroke-miterlimit:10;}
	.st137{opacity:0.75;fill:url(#SVGID_89_);}
	.st138{opacity:0.57;fill:url(#SVGID_90_);stroke:#63493D;stroke-miterlimit:10;}
	.st139{opacity:0.75;fill:url(#SVGID_91_);}
	.st140{fill:url(#SVGID_92_);}
	.st141{fill:url(#SVGID_93_);}
	.st142{fill:url(#SVGID_94_);}
	.st143{fill:url(#SVGID_95_);}
	.st144{fill:#592C18;}
	.st145{fill:url(#SVGID_96_);}
	.st146{fill:url(#SVGID_97_);}
	.st147{fill:url(#SVGID_98_);}
	.st148{opacity:0.1;fill:#7D7D7D;}
	.st149{fill:#4B2613;}
	.st150{fill:#7C3F27;}
	.st151{fill:#683523;}
	.st152{fill:none;}
	.st153{fill:url(#SVGID_99_);}
	.st154{opacity:0.33;fill:#683523;}
	.st155{fill:url(#SVGID_100_);}
	.st156{fill:url(#SVGID_101_);}
	.st157{fill:url(#SVGID_102_);}
	.st158{fill:#17120E;}
	.st159{fill:url(#SVGID_103_);}
	.st160{fill:url(#SVGID_104_);}
	.st161{fill:url(#SVGID_105_);}
	.st162{opacity:0.17;fill:#7D7D7D;}
	.st163{fill:#38322D;}
	.st164{fill:url(#SVGID_106_);}
	.st165{fill:url(#SVGID_107_);}
	.st166{fill:url(#SVGID_108_);}
	.st167{fill:url(#SVGID_109_);}
	.st168{fill:url(#SVGID_110_);}
	.st169{fill:url(#SVGID_111_);}
	.st170{opacity:0.57;fill:url(#SVGID_112_);stroke:#63493D;stroke-miterlimit:10;}
	.st171{fill:url(#SVGID_113_);}
	.st172{fill:url(#SVGID_114_);}
	.st173{fill:url(#SVGID_115_);}
	.st174{fill:url(#SVGID_116_);}
	.st175{fill:#0F0906;}
	.st176{opacity:0.57;fill:url(#SVGID_117_);stroke:#63493D;stroke-miterlimit:10;}
	.st177{opacity:0.75;fill:url(#SVGID_118_);}
	.st178{opacity:0.57;fill:url(#SVGID_119_);stroke:#63493D;stroke-miterlimit:10;}
	.st179{opacity:0.75;fill:url(#SVGID_120_);}
	.st180{opacity:0.78;fill:url(#SVGID_121_);}
	.st181{opacity:0.73;fill:url(#SVGID_122_);}
	.st182{fill:url(#SVGID_123_);}
	.st183{fill:url(#SVGID_124_);}
	.st184{fill:url(#SVGID_125_);}
	.st185{fill:url(#SVGID_126_);}
	.st186{opacity:0.57;fill:url(#SVGID_127_);stroke:#63493D;stroke-miterlimit:10;}
	.st187{fill:url(#SVGID_128_);}
	.st188{fill:url(#SVGID_129_);}
	.st189{fill:url(#SVGID_130_);}
	.st190{fill:url(#SVGID_131_);}
	.st191{opacity:0.24;}
	.st192{opacity:0.57;fill:url(#SVGID_132_);stroke:#63493D;stroke-miterlimit:10;}
	.st193{opacity:0.75;fill:url(#SVGID_133_);}
	.st194{opacity:0.57;fill:url(#SVGID_134_);stroke:#63493D;stroke-miterlimit:10;}
	.st195{opacity:0.75;fill:url(#SVGID_135_);}
	.st196{fill:url(#SVGID_136_);}
	.st197{fill:url(#SVGID_137_);}
	.st198{fill:url(#SVGID_138_);}
	.st199{fill:url(#SVGID_139_);}
	.st200{opacity:0.57;fill:url(#SVGID_140_);stroke:#63493D;stroke-miterlimit:10;}
	.st201{fill:url(#SVGID_141_);}
	.st202{fill:url(#SVGID_142_);}
	.st203{fill:url(#SVGID_143_);}
	.st204{fill:url(#SVGID_144_);}
	.st205{opacity:0.57;fill:url(#SVGID_145_);stroke:#63493D;stroke-miterlimit:10;}
	.st206{opacity:0.75;fill:url(#SVGID_146_);}
	.st207{opacity:0.57;fill:url(#SVGID_147_);stroke:#63493D;stroke-miterlimit:10;}
	.st208{opacity:0.75;fill:url(#SVGID_148_);}
	.st209{opacity:0.52;fill:#0F0906;}
	.st210{opacity:0.75;fill:#0F0906;}
	.st211{fill:#A30602;}
	.st212{fill:url(#SVGID_149_);}
	.st213{fill:url(#SVGID_150_);}
	.st214{fill:url(#SVGID_151_);}
	.st215{fill:url(#SVGID_152_);}
	.st216{opacity:0.57;fill:url(#SVGID_153_);stroke:#63493D;stroke-miterlimit:10;}
	.st217{opacity:0.75;fill:url(#SVGID_154_);}
	.st218{fill:url(#SVGID_155_);}
	.st219{fill:url(#SVGID_156_);}
	.st220{fill:url(#SVGID_157_);}
	.st221{fill:url(#SVGID_158_);}
	.st222{fill:url(#SVGID_159_);}
	.st223{opacity:0.98;}
	.st224{fill:url(#SVGID_160_);}
	.st225{opacity:0.44;}
	.st226{opacity:0.57;fill:url(#SVGID_161_);stroke:#63493D;stroke-miterlimit:10;}
	.st227{opacity:0.57;fill:url(#SVGID_162_);stroke:#63493D;stroke-miterlimit:10;}
	.st228{fill:url(#SVGID_163_);}
	.st229{fill:url(#SVGID_164_);}
	.st230{fill:url(#SVGID_165_);}
	.st231{fill:url(#SVGID_166_);}
	.st232{opacity:0.57;fill:url(#SVGID_167_);stroke:#63493D;stroke-miterlimit:10;}
	.st233{fill:url(#SVGID_168_);}
	.st234{fill:url(#SVGID_169_);}
	.st235{fill:url(#SVGID_170_);}
	.st236{fill:url(#SVGID_171_);}
	.st237{opacity:0.57;fill:url(#SVGID_172_);stroke:#63493D;stroke-miterlimit:10;}
	.st238{opacity:0.75;fill:url(#SVGID_173_);}
	.st239{opacity:0.57;fill:url(#SVGID_174_);stroke:#63493D;stroke-miterlimit:10;}
	.st240{opacity:0.75;fill:url(#SVGID_175_);}
	.st241{fill:url(#SVGID_176_);}
	.st242{opacity:0.73;fill:url(#SVGID_177_);}
	.st243{fill:url(#SVGID_178_);}
	.st244{fill:url(#SVGID_179_);}
	.st245{opacity:0.91;fill:url(#SVGID_180_);}
	.st246{fill:#443226;}
	.st247{fill:url(#SVGID_181_);}
	.st248{fill:url(#SVGID_182_);}
	.st249{fill:url(#SVGID_183_);}
	.st250{fill:url(#SVGID_184_);}
	.st251{opacity:0.46;fill:url(#SVGID_185_);}
	.st252{fill:#48372E;}
	.st253{fill:url(#SVGID_186_);}
	.st254{opacity:0.12;fill:url(#SVGID_187_);}
	.st255{fill:url(#SVGID_188_);}
	.st256{fill:url(#SVGID_189_);}
	.st257{opacity:0.57;fill:url(#SVGID_190_);stroke:#63493D;stroke-miterlimit:10;}
	.st258{opacity:0.75;fill:url(#SVGID_191_);}
	.st259{fill:url(#SVGID_192_);}
	.st260{fill:url(#SVGID_193_);}
	.st261{fill:url(#SVGID_194_);}
	.st262{opacity:0.61;fill:url(#SVGID_195_);}
	.st263{opacity:0.61;fill:url(#SVGID_196_);}
	.st264{opacity:0.42;}
	.st265{fill:url(#SVGID_197_);}
	.st266{opacity:0.57;fill:url(#SVGID_198_);stroke:#63493D;stroke-miterlimit:10;}
	.st267{opacity:0.75;fill:url(#SVGID_199_);}
	.st268{opacity:0.57;fill:url(#SVGID_200_);stroke:#63493D;stroke-miterlimit:10;}
	.st269{opacity:0.75;fill:url(#SVGID_201_);}
	.st270{fill:url(#SVGID_202_);}
	.st271{opacity:0.5;fill:#0F0906;}
	.st272{fill:url(#SVGID_203_);}
	.st273{fill:url(#SVGID_204_);}
	.st274{fill:url(#SVGID_205_);}
	.st275{opacity:0.57;fill:url(#SVGID_206_);stroke:#63493D;stroke-miterlimit:10;}
	.st276{fill:url(#SVGID_207_);}
	.st277{fill:url(#SVGID_208_);}
	.st278{fill:url(#SVGID_209_);}
	.st279{fill:url(#SVGID_210_);}
	.st280{opacity:0.78;fill:url(#SVGID_211_);}
	.st281{opacity:0.78;fill:url(#SVGID_212_);}
	.st282{opacity:0.57;fill:url(#SVGID_213_);stroke:#63493D;stroke-miterlimit:10;}
	.st283{opacity:0.75;fill:url(#SVGID_214_);}
	.st284{opacity:0.57;fill:url(#SVGID_215_);stroke:#63493D;stroke-miterlimit:10;}
	.st285{opacity:0.75;fill:url(#SVGID_216_);}
	.st286{opacity:0.58;fill:#1C1612;}
	.st287{fill:url(#SVGID_217_);}
	.st288{fill:url(#SVGID_218_);}
	.st289{fill:url(#SVGID_219_);}
	.st290{fill:url(#SVGID_220_);}
	.st291{opacity:0.57;fill:url(#SVGID_221_);stroke:#63493D;stroke-miterlimit:10;}
	.st292{opacity:0.75;fill:url(#SVGID_222_);}
	.st293{fill:url(#SVGID_223_);}
	.st294{fill:url(#SVGID_224_);}
	.st295{fill:url(#SVGID_225_);}
	.st296{opacity:0.32;fill:url(#SVGID_226_);}
	.st297{opacity:0.32;fill:url(#SVGID_227_);}
	.st298{opacity:0.38;}
	.st299{opacity:0.57;fill:url(#SVGID_228_);stroke:#63493D;stroke-miterlimit:10;}
	.st300{opacity:0.57;fill:url(#SVGID_229_);stroke:#63493D;stroke-miterlimit:10;}
	.st301{fill:url(#SVGID_230_);}
	.st302{fill:#BC8D2F;}
	.st303{fill:url(#SVGID_231_);}
	.st304{fill:url(#SVGID_232_);}
	.st305{opacity:0.57;fill:url(#SVGID_233_);stroke:#63493D;stroke-miterlimit:10;}
	.st306{opacity:0.75;fill:url(#SVGID_234_);}
	.st307{fill:url(#SVGID_235_);}
	.st308{fill:url(#SVGID_236_);}
	.st309{fill:url(#SVGID_237_);}
	.st310{fill:url(#SVGID_238_);}
	.st311{fill:url(#SVGID_239_);}
	.st312{opacity:0.88;}
	.st313{fill:url(#SVGID_240_);}
	.st314{opacity:0.57;fill:url(#SVGID_241_);stroke:#63493D;stroke-miterlimit:10;}
	.st315{opacity:0.75;fill:url(#SVGID_242_);}
	.st316{opacity:0.57;fill:url(#SVGID_243_);stroke:#63493D;stroke-miterlimit:10;}
	.st317{opacity:0.75;fill:url(#SVGID_244_);}
	.st318{opacity:0.75;fill:url(#SVGID_245_);}
	.st319{fill:url(#SVGID_246_);}
	.st320{fill:url(#SVGID_247_);}
	.st321{fill:url(#SVGID_248_);}
	.st322{fill:url(#SVGID_249_);}
	.st323{opacity:0.57;fill:url(#SVGID_250_);stroke:#63493D;stroke-miterlimit:10;}
	.st324{opacity:0.75;fill:url(#SVGID_251_);}
	.st325{fill:url(#SVGID_252_);}
	.st326{fill:url(#SVGID_253_);}
	.st327{fill:url(#SVGID_254_);}
	.st328{opacity:0.55;fill:url(#SVGID_255_);}
	.st329{opacity:0.55;fill:url(#SVGID_256_);}
	.st330{opacity:0.57;fill:url(#SVGID_257_);stroke:#63493D;stroke-miterlimit:10;}
	.st331{opacity:0.57;fill:url(#SVGID_258_);stroke:#63493D;stroke-miterlimit:10;}
	.st332{fill:url(#SVGID_259_);}
	.st333{fill:#F0F0F4;}
	.st334{opacity:0.37;fill:url(#SVGID_260_);}
	.st335{fill:url(#SVGID_261_);}
	.st336{fill:url(#SVGID_262_);}
	.st337{fill:url(#SVGID_263_);}
	.st338{fill:url(#SVGID_264_);}
	.st339{opacity:0.57;fill:url(#SVGID_265_);stroke:#63493D;stroke-miterlimit:10;}
	.st340{opacity:0.75;fill:url(#SVGID_266_);}
	.st341{fill:url(#SVGID_267_);}
	.st342{fill:url(#SVGID_268_);}
	.st343{fill:url(#SVGID_269_);}
	.st344{opacity:0.68;fill:url(#SVGID_270_);}
	.st345{opacity:0.68;fill:url(#SVGID_271_);}
	.st346{opacity:0.57;fill:url(#SVGID_272_);stroke:#63493D;stroke-miterlimit:10;}
	.st347{opacity:0.57;fill:url(#SVGID_273_);stroke:#63493D;stroke-miterlimit:10;}
	.st348{fill:url(#SVGID_274_);}
	.st349{fill:url(#SVGID_275_);}
	.st350{fill:url(#SVGID_276_);}
	.st351{fill:url(#SVGID_277_);}
	.st352{fill:url(#SVGID_278_);}
	.st353{fill:url(#SVGID_279_);}
	.st354{opacity:0.57;fill:url(#SVGID_280_);stroke:#63493D;stroke-miterlimit:10;}
	.st355{opacity:0.75;fill:url(#SVGID_281_);}
	.st356{fill:url(#SVGID_282_);}
	.st357{opacity:0.96;fill:url(#SVGID_283_);}
	.st358{opacity:0.96;fill:url(#SVGID_284_);}
	.st359{opacity:0.57;fill:url(#SVGID_285_);stroke:#63493D;stroke-miterlimit:10;}
	.st360{opacity:0.57;fill:url(#SVGID_286_);stroke:#63493D;stroke-miterlimit:10;}
	.st361{fill:url(#SVGID_287_);}
	.st362{fill:url(#SVGID_288_);}
	.st363{fill:#FCFCFC;stroke:#AFAEAC;stroke-miterlimit:10;}
	.st364{fill:url(#SVGID_289_);}
	.st365{fill:url(#SVGID_290_);}
	.st366{fill:#E57010;}
	.st367{clip-path:url(#SVGID_292_);}
	.st368{fill:url(#SVGID_293_);}
	.st369{clip-path:url(#SVGID_295_);}
	.st370{fill:url(#SVGID_296_);}
	.st371{fill:none;stroke:#0F0906;stroke-miterlimit:10;}
	.st372{fill:url(#SVGID_297_);}
	.st373{fill:url(#SVGID_298_);}
	.st374{fill:url(#SVGID_299_);}
	.st375{fill:url(#SVGID_300_);stroke:#6F5537;stroke-miterlimit:10;}
	.st376{fill:url(#SVGID_301_);}
	.st377{fill:url(#SVGID_302_);}
	.st378{fill:url(#SVGID_303_);}
	.st379{fill:#965A3E;}
	.st380{fill:url(#SVGID_304_);}
	.st381{fill:url(#SVGID_305_);}
	.st382{fill:url(#SVGID_306_);}
	.st383{fill:url(#SVGID_307_);}
	.st384{fill:url(#SVGID_308_);}
	.st385{fill:url(#SVGID_309_);}
	.st386{fill:url(#SVGID_310_);}
	.st387{fill:url(#SVGID_311_);}
	.st388{fill:url(#SVGID_312_);}
	.st389{fill:url(#SVGID_313_);}
	.st390{fill:url(#SVGID_314_);}
	.st391{fill:url(#SVGID_315_);}
	.st392{fill:url(#SVGID_316_);}
	.st393{fill:none;stroke:#000000;stroke-miterlimit:10;}
	.st394{fill:#D1691C;}
</style><g
     id="Layer_1"
     transform="matrix(0.17007376,0,0,0.15737722,-2.2519745,0.19534938)"><path
       class="st103"
       d="M 133.8,108.8"
       id="path4615"
       inkscape:connector-curvature="0"
       style="fill:#1c1612" /><path
       class="st103"
       d="M 102.7,113.8"
       id="path4617"
       inkscape:connector-curvature="0"
       style="fill:#1c1612" /><linearGradient
       id="SVGID_1_"
       gradientUnits="userSpaceOnUse"
       x1="160.26089"
       y1="180.83681"
       x2="160.26089"
       y2="180.83681"><stop
         offset="0"
         style="stop-color:#81473C"
         id="stop4620" /><stop
         offset="1"
         style="stop-color:#38291A"
         id="stop4622" /></linearGradient><path
       class="st0"
       d="M 160.3,180.8"
       id="path4624"
       style="fill:url(#SVGID_1_)"
       inkscape:connector-curvature="0" /><g
       id="g4626"><linearGradient
         id="SVGID_2_"
         gradientUnits="userSpaceOnUse"
         x1="21.1675"
         y1="223.4422"
         x2="263.2067"
         y2="223.4422"><stop
           offset="0"
           style="stop-color:#F29D4B"
           id="stop4629" /><stop
           offset="0.4549"
           style="stop-color:#EB6324"
           id="stop4631" /><stop
           offset="0.8138"
           style="stop-color:#E73B0A"
           id="stop4633" /><stop
           offset="1"
           style="stop-color:#E52C00"
           id="stop4635" /></linearGradient><path
         class="st3"
         d="m 21.3,159.1 c 0,0 -0.6,-7 1.2,27.5 1.6,31.5 4.8,39.7 4.8,39.7 0,0 5.1,-36.4 6.9,-52.5 0,0 -2,58.6 -1.2,68.8 0.6,8.3 1.3,3.4 1.2,-5.4 0,-5.1 6.1,-49.1 6.1,-49.1 0,0 3.5,38.6 3.8,44.3 0.3,6 4.5,-25 4.5,-25 l 4.5,25 6.1,-25.1 c 0,0 6.4,30.7 8.5,36 2.1,5.3 0,-28.8 4.4,-30.1 4.3,-1.4 31.9,9.3 31.9,9.3 0,0 79.9,0 89.5,10.7 9.6,10.7 12.2,22.4 12.2,22.4 0,0 0.9,-14.8 3,-21.9 2.2,-7.2 12.1,41.6 12.1,46.1 0,4.5 2.2,-43 3.5,-44.8 1.3,-1.8 4.3,29.5 23.6,51.9 19.3,22.4 14.9,13 14.9,13 0,0 -12.1,-20.1 -14.9,-33.1 -2.8,-13 -2.8,-15.7 -2.8,-15.7 0,0 3.9,17 9.5,22.4 0,0 -10.4,-25.3 -6.7,-37.9 0,0 0.4,19.6 -2.9,23 -7.3,7.7 6.7,36.4 6.7,36.4 -1.3,2.7 11.4,-30.5 7.4,-50.5 -2,-10 -0.3,-38.2 -22.8,-27.5 0,0 9.2,33.1 12.2,39.5 6.2,13.2 8.4,-31.6 7.1,-51.9 -0.5,-8.5 -11,-59.6 -11,-59.6"
         id="path4637"
         style="fill:url(#SVGID_2_)"
         inkscape:connector-curvature="0" /><radialGradient
         id="SVGID_3_"
         cx="66.090797"
         cy="105.0564"
         r="88.7034"
         gradientTransform="matrix(1.299,0,0,1.3432,56.2338,8.8552)"
         gradientUnits="userSpaceOnUse"><stop
           offset="0"
           style="stop-color:#FAEAE2"
           id="stop4640" /><stop
           offset="0.195"
           style="stop-color:#F9E7DE"
           id="stop4642" /><stop
           offset="0.3905"
           style="stop-color:#F4DED2"
           id="stop4644" /><stop
           offset="0.5863"
           style="stop-color:#EDCFBE"
           id="stop4646" /><stop
           offset="0.7824"
           style="stop-color:#E2BAA2"
           id="stop4648" /><stop
           offset="0.977"
           style="stop-color:#D59F7E"
           id="stop4650" /><stop
           offset="1"
           style="stop-color:#D39B79"
           id="stop4652" /></radialGradient><ellipse
         class="st4"
         cx="142.10001"
         cy="150"
         rx="108"
         ry="126.2"
         id="ellipse4654"
         style="fill:url(#SVGID_3_)" /><g
         id="g4656"><radialGradient
           id="SVGID_4_"
           cx="149.79761"
           cy="161.4628"
           r="12.7806"
           gradientTransform="matrix(1.0608,0,0,1.1354,-16.4235,-0.2188)"
           gradientUnits="userSpaceOnUse"><stop
             offset="0"
             style="stop-color:#FAEAE2"
             id="stop4659" /><stop
             offset="0.195"
             style="stop-color:#F9E7DE"
             id="stop4661" /><stop
             offset="0.3905"
             style="stop-color:#F4DED2"
             id="stop4663" /><stop
             offset="0.5863"
             style="stop-color:#EDCFBE"
             id="stop4665" /><stop
             offset="0.7824"
             style="stop-color:#E2BAA2"
             id="stop4667" /><stop
             offset="0.977"
             style="stop-color:#D59F7E"
             id="stop4669" /><stop
             offset="1"
             style="stop-color:#D39B79"
             id="stop4671" /></radialGradient><path
           class="st7"
           d="m 159.5,175.5 c -18.5,9.7 -34,0 -34,0 0,0 -6.4,15.5 17,15.3 23.4,0.2 17,-15.3 17,-15.3 z"
           id="path4673"
           style="fill:url(#SVGID_4_)"
           inkscape:connector-curvature="0" /><radialGradient
           id="SVGID_5_"
           cx="149.79761"
           cy="161.4628"
           r="12.7806"
           gradientTransform="matrix(1.0608,0,0,1.1354,-16.4235,-0.2188)"
           gradientUnits="userSpaceOnUse"><stop
             offset="0"
             style="stop-color:#FAEAE2"
             id="stop4676" /><stop
             offset="0.195"
             style="stop-color:#F9E7DE"
             id="stop4678" /><stop
             offset="0.3905"
             style="stop-color:#F4DED2"
             id="stop4680" /><stop
             offset="0.5863"
             style="stop-color:#EDCFBE"
             id="stop4682" /><stop
             offset="0.7824"
             style="stop-color:#E2BAA2"
             id="stop4684" /><stop
             offset="0.977"
             style="stop-color:#D59F7E"
             id="stop4686" /><stop
             offset="1"
             style="stop-color:#D39B79"
             id="stop4688" /></radialGradient><path
           style="fill:url(#SVGID_5_);stroke:#6f5537;stroke-miterlimit:10"
           d="m 159.5,175.5 c -18.5,9.7 -34,0 -34,0 0,0 -6.4,15.5 17,15.3 23.4,0.2 17,-15.3 17,-15.3 z"
           id="path4690"
           inkscape:connector-curvature="0" /><radialGradient
           id="SVGID_6_"
           cx="150.0882"
           cy="157.88361"
           r="13.2858"
           gradientTransform="matrix(1.0608,0,0,1.1354,-16.4235,-0.2188)"
           gradientUnits="userSpaceOnUse"><stop
             offset="0"
             style="stop-color:#FAEAE2"
             id="stop4693" /><stop
             offset="0.195"
             style="stop-color:#F9E7DE"
             id="stop4695" /><stop
             offset="0.3905"
             style="stop-color:#F4DED2"
             id="stop4697" /><stop
             offset="0.5863"
             style="stop-color:#EDCFBE"
             id="stop4699" /><stop
             offset="0.7824"
             style="stop-color:#E2BAA2"
             id="stop4701" /><stop
             offset="0.977"
             style="stop-color:#D59F7E"
             id="stop4703" /><stop
             offset="1"
             style="stop-color:#D39B79"
             id="stop4705" /></radialGradient><path
           class="st13"
           d="m 123.7,174.7 c 0,0 8.9,8.7 18.8,8.6 10,-0.1 19.8,-8.6 19.8,-8.6 l -39,0"
           id="path4707"
           style="fill:url(#SVGID_6_)"
           inkscape:connector-curvature="0" /></g><g
         id="g4709"><line
           class="st108"
           x1="166.7"
           y1="137.5"
           x2="163.89999"
           y2="133.5"
           id="line4711"
           style="fill:none;stroke:#2e252c;stroke-miterlimit:10" /><line
           class="st108"
           x1="171.10001"
           y1="135.5"
           x2="168.2"
           y2="131.2"
           id="line4713"
           style="fill:none;stroke:#2e252c;stroke-miterlimit:10" /><line
           class="st108"
           x1="175.39999"
           y1="133.3"
           x2="173.8"
           y2="128.8"
           id="line4715"
           style="fill:none;stroke:#2e252c;stroke-miterlimit:10" /><line
           class="st108"
           x1="181.39999"
           y1="131.2"
           x2="179.60001"
           y2="127"
           id="line4717"
           style="fill:none;stroke:#2e252c;stroke-miterlimit:10" /><line
           class="st108"
           x1="186.39999"
           y1="130.7"
           x2="185.3"
           y2="125.2"
           id="line4719"
           style="fill:none;stroke:#2e252c;stroke-miterlimit:10" /><line
           class="st108"
           x1="192.89999"
           y1="130.39999"
           x2="192.89999"
           y2="125.2"
           id="line4721"
           style="fill:none;stroke:#2e252c;stroke-miterlimit:10" /><line
           class="st108"
           x1="198"
           y1="130.89999"
           x2="198.7"
           y2="127"
           id="line4723"
           style="fill:none;stroke:#2e252c;stroke-miterlimit:10" /><line
           class="st108"
           x1="202.5"
           y1="131.8"
           x2="203.39999"
           y2="128.8"
           id="line4725"
           style="fill:none;stroke:#2e252c;stroke-miterlimit:10" /><line
           class="st108"
           x1="207.39999"
           y1="133.5"
           x2="208.89999"
           y2="130.3"
           id="line4727"
           style="fill:none;stroke:#2e252c;stroke-miterlimit:10" /><line
           class="st108"
           x1="211.2"
           y1="135.5"
           x2="213.39999"
           y2="132.5"
           id="line4729"
           style="fill:none;stroke:#2e252c;stroke-miterlimit:10" /><line
           class="st108"
           x1="215.39999"
           y1="137.5"
           x2="217.2"
           y2="135"
           id="line4731"
           style="fill:none;stroke:#2e252c;stroke-miterlimit:10" /><line
           class="st108"
           x1="219"
           y1="139.89999"
           x2="221"
           y2="137.5"
           id="line4733"
           style="fill:none;stroke:#2e252c;stroke-miterlimit:10" /><line
           class="st108"
           x1="223.3"
           y1="143.39999"
           x2="225.5"
           y2="140.39999"
           id="line4735"
           style="fill:none;stroke:#2e252c;stroke-miterlimit:10" /><line
           class="st108"
           x1="163.89999"
           y1="140.8"
           x2="160.8"
           y2="138.7"
           id="line4737"
           style="fill:none;stroke:#2e252c;stroke-miterlimit:10" /><g
           id="g4739"><path
             class="st109"
             d="m 158.9,151 c 0,0 3.6,-18.5 29,-20.5 25.4,-2.1 41.2,19 41.2,19 0,0 -16.5,4.4 -19.7,4.8 -3.1,0.3 -22.1,6.5 -50.5,-3.3 z"
             id="path4741"
             inkscape:connector-curvature="0"
             style="fill:#ffffff;stroke:#545454;stroke-miterlimit:10" /><g
             id="g4743"><radialGradient
               id="SVGID_7_"
               cx="1452.6672"
               cy="100.2015"
               r="9.1420002"
               gradientTransform="matrix(-1.299,0,0,1.3432,2078.573,8.8552)"
               gradientUnits="userSpaceOnUse"><stop
                 offset="4.370359e-02"
                 style="stop-color:#CCB86F"
                 id="stop4746" /><stop
                 offset="0.316"
                 style="stop-color:#CAB66D"
                 id="stop4748" /><stop
                 offset="0.4709"
                 style="stop-color:#C2AD68"
                 id="stop4750" /><stop
                 offset="0.5963"
                 style="stop-color:#B69F5F"
                 id="stop4752" /><stop
                 offset="0.7061"
                 style="stop-color:#A48C53"
                 id="stop4754" /><stop
                 offset="0.8055"
                 style="stop-color:#8D7243"
                 id="stop4756" /><stop
                 offset="0.8975"
                 style="stop-color:#70522F"
                 id="stop4758" /><stop
                 offset="0.9821"
                 style="stop-color:#4F2E18"
                 id="stop4760" /><stop
                 offset="1"
                 style="stop-color:#472512"
                 id="stop4762" /></radialGradient><ellipse
               class="st14"
               cx="191.5"
               cy="143.39999"
               rx="11.9"
               ry="12.3"
               id="ellipse4764"
               style="fill:url(#SVGID_7_)" /><ellipse
               cx="191.5"
               cy="143.39999"
               rx="4.0999999"
               ry="4.1999998"
               id="ellipse4766" /><ellipse
               class="st8"
               cx="191.5"
               cy="135"
               rx="2.4000001"
               ry="2.5"
               id="ellipse4768"
               style="fill:#ffffff" /></g></g></g><g
         id="g4770"><linearGradient
           id="SVGID_8_"
           gradientUnits="userSpaceOnUse"
           x1="142.629"
           y1="249.1301"
           x2="142.629"
           y2="202.73959"><stop
             offset="0"
             style="stop-color:#81473C"
             id="stop4773" /><stop
             offset="1"
             style="stop-color:#38291A"
             id="stop4775" /></linearGradient><path
           class="st15"
           d="m 142.6,209.1 c -24.8,0 -49.9,-6.4 -49.9,-6.4 4.1,47.4 49.9,46.4 49.9,46.4 0,0 45.8,1 49.9,-46.4 0,0 -25.1,6.4 -49.9,6.4 z"
           id="path4777"
           style="fill:url(#SVGID_8_)"
           inkscape:connector-curvature="0" /><path
           class="st8"
           d="m 142.6,212.1 c -30.3,0.2 -47.7,-7.7 -47.7,-7.7 1.1,11.7 4.6,14 4.6,14 17.4,6.3 43.1,6.7 43.1,6.7 0,0 25.7,-0.4 43.1,-6.7 0,0 3.4,-2.3 4.6,-14 0.1,0 -17.4,8 -47.7,7.7 z"
           id="path4779"
           inkscape:connector-curvature="0"
           style="fill:#ffffff" /></g><path
         class="st379"
         d="m 119.5,117.1 -4.6,-4.6 c -4,-3.2 -9.1,-4.8 -14.2,-4.5 -10.3,0.7 -27.8,2.8 -37.8,9 l -7,3.8 c 0,0 20.5,-6 37.8,-6.2 9,-0.1 22.9,4 27.3,7.1 l -1.5,-4.6 z"
         id="path4781"
         inkscape:connector-curvature="0"
         style="fill:#965a3e" /><path
         class="st379"
         d="m 165.5,117.1 5.7,-4.6 c 4,-3.2 9.1,-4.8 14.2,-4.5 10.3,0.7 27.8,2.8 37.8,9 l 7,3.8 c 0,0 -21.9,-8.8 -40,-8.4 -8,0.1 -22.5,7.6 -26.4,10.3 l 1.7,-5.6 z"
         id="path4783"
         inkscape:connector-curvature="0"
         style="fill:#965a3e" /><linearGradient
         id="SVGID_9_"
         gradientUnits="userSpaceOnUse"
         x1="21.982201"
         y1="125.2839"
         x2="129.15131"
         y2="125.2839"><stop
           offset="0"
           style="stop-color:#E52C00"
           id="stop4786" /><stop
           offset="3.162622e-03"
           style="stop-color:#E52D00"
           id="stop4788" /><stop
           offset="0.2184"
           style="stop-color:#EA551B"
           id="stop4790" /><stop
           offset="0.4299"
           style="stop-color:#ED7430"
           id="stop4792" /><stop
           offset="0.6341"
           style="stop-color:#F08B3F"
           id="stop4794" /><stop
           offset="0.8279"
           style="stop-color:#F19848"
           id="stop4796" /><stop
           offset="1"
           style="stop-color:#F29D4B"
           id="stop4798" /></linearGradient><path
         class="st17"
         d="m 126.8,42.4 c 0,0 -29.7,0.6 -50.5,18.3 -5.1,4.4 -9.7,9.8 -13.2,16.6 0,0 -13.4,107.6 -20,123.3 l -12.8,26.1 -8.4,-22 c 0,0 3.1,-47.8 4,-70.2 0.9,-22.4 20.5,-110.7 68.3,-110.7 47.8,0 32.6,18.6 32.6,18.6 z"
         id="path4800"
         style="fill:url(#SVGID_9_)"
         inkscape:connector-curvature="0" /><linearGradient
         id="SVGID_10_"
         gradientUnits="userSpaceOnUse"
         x1="110.8202"
         y1="117.7644"
         x2="257.5864"
         y2="117.7644"><stop
           offset="0"
           style="stop-color:#F29D4B"
           id="stop4803" /><stop
           offset="0.1605"
           style="stop-color:#F19847"
           id="stop4805" /><stop
           offset="0.3627"
           style="stop-color:#F0883D"
           id="stop4807" /><stop
           offset="0.5872"
           style="stop-color:#ED6E2C"
           id="stop4809" /><stop
           offset="0.8263"
           style="stop-color:#E94B14"
           id="stop4811" /><stop
           offset="1"
           style="stop-color:#E52C00"
           id="stop4813" /></linearGradient><path
         class="st19"
         d="m 126.8,42.4 c 0,0 48.4,-15.4 96.3,74.7 0,0 18.9,80.8 26.9,100.6 l 7.5,12.3 c -13.1,-6.1 5.4,-114.6 -27.4,-173.3 -30.4,-54.4 -93,-40.5 -92.5,-51 0.6,-1.4 -22.2,5 -26.9,19.1"
         id="path4815"
         style="fill:url(#SVGID_10_)"
         inkscape:connector-curvature="0" /><linearGradient
         id="SVGID_11_"
         gradientUnits="userSpaceOnUse"
         x1="22.5096"
         y1="160.83549"
         x2="33.063202"
         y2="160.83549"><stop
           offset="0"
           style="stop-color:#F29D4B"
           id="stop4818" /><stop
           offset="0.1605"
           style="stop-color:#F19847"
           id="stop4820" /><stop
           offset="0.3627"
           style="stop-color:#F0883D"
           id="stop4822" /><stop
           offset="0.5872"
           style="stop-color:#ED6E2C"
           id="stop4824" /><stop
           offset="0.8263"
           style="stop-color:#E94B14"
           id="stop4826" /><stop
           offset="1"
           style="stop-color:#E52C00"
           id="stop4828" /></linearGradient><path
         class="st21"
         d="m 22.6,201.3 c 0,0 -1.3,-63.9 7.7,-93.2 9,-29.3 -6.4,109.7 -6.4,109.7 l -1.3,-16.5 z"
         id="path4830"
         style="fill:url(#SVGID_11_)"
         inkscape:connector-curvature="0" /><g
         id="g4832"><line
           class="st108"
           x1="119"
           y1="137.5"
           x2="121.9"
           y2="133.5"
           id="line4834"
           style="fill:none;stroke:#2e252c;stroke-miterlimit:10" /><line
           class="st108"
           x1="114.7"
           y1="135.5"
           x2="117.6"
           y2="131.2"
           id="line4836"
           style="fill:none;stroke:#2e252c;stroke-miterlimit:10" /><line
           class="st108"
           x1="110.3"
           y1="133.39999"
           x2="111.9"
           y2="128.8"
           id="line4838"
           style="fill:none;stroke:#2e252c;stroke-miterlimit:10" /><line
           class="st108"
           x1="104.4"
           y1="131.2"
           x2="106.1"
           y2="127"
           id="line4840"
           style="fill:none;stroke:#2e252c;stroke-miterlimit:10" /><line
           class="st108"
           x1="99.400002"
           y1="130.7"
           x2="100.5"
           y2="125.3"
           id="line4842"
           style="fill:none;stroke:#2e252c;stroke-miterlimit:10" /><line
           class="st108"
           x1="92.900002"
           y1="130.39999"
           x2="92.900002"
           y2="125.3"
           id="line4844"
           style="fill:none;stroke:#2e252c;stroke-miterlimit:10" /><line
           class="st108"
           x1="87.800003"
           y1="130.89999"
           x2="87"
           y2="127"
           id="line4846"
           style="fill:none;stroke:#2e252c;stroke-miterlimit:10" /><line
           class="st108"
           x1="83.300003"
           y1="131.89999"
           x2="82.400002"
           y2="128.8"
           id="line4848"
           style="fill:none;stroke:#2e252c;stroke-miterlimit:10" /><line
           class="st108"
           x1="78.400002"
           y1="133.5"
           x2="76.900002"
           y2="130.3"
           id="line4850"
           style="fill:none;stroke:#2e252c;stroke-miterlimit:10" /><line
           class="st108"
           x1="74.599998"
           y1="135.5"
           x2="72.300003"
           y2="132.5"
           id="line4852"
           style="fill:none;stroke:#2e252c;stroke-miterlimit:10" /><line
           class="st108"
           x1="70.400002"
           y1="137.5"
           x2="68.5"
           y2="135"
           id="line4854"
           style="fill:none;stroke:#2e252c;stroke-miterlimit:10" /><line
           class="st108"
           x1="66.699997"
           y1="140"
           x2="64.699997"
           y2="137.5"
           id="line4856"
           style="fill:none;stroke:#2e252c;stroke-miterlimit:10" /><line
           class="st108"
           x1="62.400002"
           y1="143.5"
           x2="60.299999"
           y2="140.39999"
           id="line4858"
           style="fill:none;stroke:#2e252c;stroke-miterlimit:10" /><line
           class="st108"
           x1="121.9"
           y1="140.89999"
           x2="124.9"
           y2="138.8"
           id="line4860"
           style="fill:none;stroke:#2e252c;stroke-miterlimit:10" /><g
           id="g4862"><path
             class="st109"
             d="m 126.8,151.1 c 0,0 -3.6,-18.5 -29,-20.5 -25.4,-2.1 -41.2,19 -41.2,19 0,0 16.5,4.4 19.7,4.8 3.2,0.3 22.1,6.5 50.5,-3.3 z"
             id="path4864"
             inkscape:connector-curvature="0"
             style="fill:#ffffff;stroke:#545454;stroke-miterlimit:10" /><g
             id="g4866"><radialGradient
               id="SVGID_12_"
               cx="181.7715"
               cy="100.2324"
               r="9.1420002"
               gradientTransform="matrix(1.299,0,0,1.3432,-141.8915,8.8552)"
               gradientUnits="userSpaceOnUse"><stop
                 offset="4.370359e-02"
                 style="stop-color:#CCB86F"
                 id="stop4869" /><stop
                 offset="0.316"
                 style="stop-color:#CAB66D"
                 id="stop4871" /><stop
                 offset="0.4709"
                 style="stop-color:#C2AD68"
                 id="stop4873" /><stop
                 offset="0.5963"
                 style="stop-color:#B69F5F"
                 id="stop4875" /><stop
                 offset="0.7061"
                 style="stop-color:#A48C53"
                 id="stop4877" /><stop
                 offset="0.8055"
                 style="stop-color:#8D7243"
                 id="stop4879" /><stop
                 offset="0.8975"
                 style="stop-color:#70522F"
                 id="stop4881" /><stop
                 offset="0.9821"
                 style="stop-color:#4F2E18"
                 id="stop4883" /><stop
                 offset="1"
                 style="stop-color:#472512"
                 id="stop4885" /></radialGradient><ellipse
               class="st24"
               cx="94.199997"
               cy="143.5"
               rx="11.9"
               ry="12.3"
               id="ellipse4887"
               style="fill:url(#SVGID_12_)" /><ellipse
               cx="94.199997"
               cy="143.5"
               rx="4.0999999"
               ry="4.1999998"
               id="ellipse4889" /><ellipse
               class="st8"
               cx="94.199997"
               cy="135"
               rx="2.4000001"
               ry="2.5"
               id="ellipse4891"
               style="fill:#ffffff" /></g></g></g></g><path
       class="st152"
       d="m 289.3,52.8 c -1.8,-1.4 -4.1,-2 -6.3,-2.5 -4.9,-1 -9.9,-1.3 -14.9,-0.9 -0.6,11 -1.1,21.9 -1.7,32.9 4.4,-0.6 8.9,0.2 13.3,0.1 4.4,-0.1 9.3,-1.6 11.7,-5.4 1.7,-2.7 1.9,-6 2.1,-9.2 0.2,-5.4 0.1,-11.7 -4.2,-15 z"
       id="path4893"
       inkscape:connector-curvature="0"
       style="fill:none" /><g
       id="Layer_3"><linearGradient
         id="SVGID_13_"
         gradientUnits="userSpaceOnUse"
         x1="16.5385"
         y1="66.687302"
         x2="212.40469"
         y2="66.687302"
         gradientTransform="matrix(1.0127,-0.00583533,0.00641595,1.1135,-2.9902,0.504)"><stop
           offset="0.1165"
           style="stop-color:#E52C00"
           id="stop4897" /><stop
           offset="0.5042"
           style="stop-color:#E52E01"
           id="stop4899" /><stop
           offset="0.6439"
           style="stop-color:#E63506"
           id="stop4901" /><stop
           offset="0.7434"
           style="stop-color:#E7400E"
           id="stop4903" /><stop
           offset="0.8239"
           style="stop-color:#E95119"
           id="stop4905" /><stop
           offset="0.8929"
           style="stop-color:#EC6727"
           id="stop4907" /><stop
           offset="0.9528"
           style="stop-color:#EF8239"
           id="stop4909" /><stop
           offset="1"
           style="stop-color:#F29D4B"
           id="stop4911" /></linearGradient><path
         class="st25"
         d="m 31,35.9 c 2.7,-2.6 46,-25.5 49.2,-27.3 40.4,-22.8 126.3,3.9 127,33.5 0.1,3.2 7.2,20.3 4.8,17.8 -2.4,-2.5 -12.1,-13.2 -17,-13.1 -39.5,0.9 -134,-21 -130.2,-20.4 4.8,0.8 9.6,4 11.2,9.2 -6.6,3.8 -11,11.3 -13.9,19.1 -2.9,7.8 -4.3,16.1 -7,24 -3.9,11.9 -10.3,22.6 -16.5,33.1 -6.1,10.2 -7.8,26.6 -13.9,36.8 -6.6,-25.8 -13.6,-54.6 -8.9,-81 2,-11 6.7,-23.4 15.2,-31.7 z"
         id="path4913"
         style="fill:url(#SVGID_13_)"
         inkscape:connector-curvature="0" /></g><linearGradient
       id="SVGID_14_"
       gradientUnits="userSpaceOnUse"
       x1="40.496498"
       y1="63.751099"
       x2="227.8134"
       y2="63.751099"><stop
         offset="0.4959"
         style="stop-color:#E52C00"
         id="stop4916" /><stop
         offset="0.5835"
         style="stop-color:#E94B14"
         id="stop4918" /><stop
         offset="0.704"
         style="stop-color:#ED6E2C"
         id="stop4920" /><stop
         offset="0.8172"
         style="stop-color:#F0883D"
         id="stop4922" /><stop
         offset="0.9191"
         style="stop-color:#F19847"
         id="stop4924" /><stop
         offset="1"
         style="stop-color:#F29D4B"
         id="stop4926" /></linearGradient><path
       class="st26"
       d="M 103.5,105 C 87.5,90.8 78,67.6 78.8,44.4 100,65.5 120,88.2 138.7,112.3 125.6,91.7 112.3,70.8 103.9,47.2 c 9.9,12 19.8,24.1 29.7,36.1 -3.1,-8 -6.1,-15.9 -9.2,-23.9 11.7,16.6 23.8,32.7 36.4,48.4 0.4,-7.7 -1.3,-15.5 -4.8,-22.1 10,9.3 19.2,19.8 27.4,31.3 -2.8,-7.5 -5.6,-15.1 -8.5,-22.6 12.1,7.7 23.8,16 35.2,24.9 -1.1,-2.3 -2.3,-4.7 -3.4,-7 7.1,1.3 14.2,2.6 21.3,3.9 -6.6,-15 -13.1,-30 -19.7,-45 C 204,61.3 199.6,51.4 193.4,43 178.9,23.4 176.4,28.4 158.3,14.4 143.7,3.1 92.6,3.8 61.5,24.5 51.2,31.3 38.6,52.7 40.8,61.7 c 4,16.9 7.3,44.7 16.6,58.7 C 49,105.2 44.9,87.1 45.6,69.2 51,84.5 59,98.6 69,110.4 64.2,91.6 59.4,72.8 54.6,54 c 12.8,20.8 29.6,38.3 48.9,51 z"
       id="path4928"
       style="fill:url(#SVGID_14_)"
       inkscape:connector-curvature="0" /><linearGradient
       id="SVGID_15_"
       gradientUnits="userSpaceOnUse"
       x1="21.6434"
       y1="168.68179"
       x2="45.4753"
       y2="168.68179"><stop
         offset="0"
         style="stop-color:#FAEAE2"
         id="stop4931" /><stop
         offset="8.656281e-02"
         style="stop-color:#F2DBCD"
         id="stop4933" /><stop
         offset="0.2417"
         style="stop-color:#E7C4AF"
         id="stop4935" /><stop
         offset="0.4048"
         style="stop-color:#DEB297"
         id="stop4937" /><stop
         offset="0.5774"
         style="stop-color:#D8A586"
         id="stop4939" /><stop
         offset="0.7659"
         style="stop-color:#D49D7C"
         id="stop4941" /><stop
         offset="1"
         style="stop-color:#D39B79"
         id="stop4943" /></linearGradient><path
       class="st28"
       d="m 39.3,137 c 0,0 -20,5.1 -17.4,29.9 2.6,24.8 23.6,33.3 23.6,33.3 L 39.3,137 Z"
       id="path4945"
       style="fill:url(#SVGID_15_)"
       inkscape:connector-curvature="0" /><linearGradient
       id="SVGID_16_"
       gradientUnits="userSpaceOnUse"
       x1="36.883801"
       y1="195.11411"
       x2="44.300701"
       y2="195.11411"><stop
         offset="0"
         style="stop-color:#7573B8"
         id="stop4948" /><stop
         offset="1"
         style="stop-color:#182580"
         id="stop4950" /></linearGradient><path
       class="st29"
       d="m 38.1,193.3 c -0.4,-0.9 -0.8,-1.9 -1,-2.9 -0.2,-0.8 -0.3,-1.7 0,-2.4 0.3,-0.7 1,-1.2 1.7,-1.3 0.7,-0.1 1.5,0.2 2,0.7 0.3,0.3 0.5,0.8 0.7,1.2 0.8,1.7 1.6,3.4 2.4,5.1 0.2,0.4 0.4,0.9 0.4,1.4 -0.8,-1.4 -1.6,-2.8 -2.4,-4.2 -0.2,-0.3 -0.4,-0.7 -0.7,-0.7 -0.3,-0.1 -0.6,0.1 -0.9,0.2 -0.7,0.3 -1.6,0.3 -2.3,0.2 1.5,3.9 3,7.9 5.4,11.3 0.4,0.5 0.8,1.1 1,1.6 -0.5,0.3 -1.1,-0.3 -1.4,-0.9 -1.9,-3 -3.5,-6.1 -4.9,-9.3 z"
       id="path4952"
       style="fill:url(#SVGID_16_)"
       inkscape:connector-curvature="0" /><linearGradient
       id="SVGID_17_"
       gradientUnits="userSpaceOnUse"
       x1="32.919701"
       y1="183.407"
       x2="35.463699"
       y2="185.951"><stop
         offset="5.820699e-03"
         style="stop-color:#FCC4C2"
         id="stop4955" /><stop
         offset="1"
         style="stop-color:#5A181B"
         id="stop4957" /></linearGradient><ellipse
       class="st33"
       cx="34.200001"
       cy="184.7"
       rx="1.3"
       ry="2.2"
       id="ellipse4959"
       style="fill:url(#SVGID_17_)" /><linearGradient
       id="SVGID_18_"
       gradientUnits="userSpaceOnUse"
       x1="172.9783"
       y1="131.20081"
       x2="256.6701"
       y2="131.20081"><stop
         offset="0"
         style="stop-color:#F29D4B"
         id="stop4962" /><stop
         offset="0.4549"
         style="stop-color:#EB6324"
         id="stop4964" /><stop
         offset="0.8138"
         style="stop-color:#E73B0A"
         id="stop4966" /><stop
         offset="1"
         style="stop-color:#E52C00"
         id="stop4968" /></linearGradient><path
       class="st34"
       d="m 173.1,9.1 c 10.5,1.1 42.9,20.6 49.2,29.5 6.3,8.9 10.1,19.4 13.8,29.7 9.2,25.7 18.3,52 20.2,79.4 1,15.2 -0.2,30.5 -1.4,45.7 -1.6,20 -3.2,40 -4.8,59.9 C 239,190.6 238,125.4 217.2,65.5 c -3.1,-8.8 -6.6,-17.7 -12.5,-24.8 -3.8,-4.6 -8.5,-8.3 -13,-12.3 -0.8,-0.7 -1.6,-1.5 -1.9,-2.5 -0.3,-1.2 -30.8,-19.2 1,-3 1.6,0.9 -19.6,-14 -17.7,-13.8 z"
       id="path4970"
       style="fill:url(#SVGID_18_)"
       inkscape:connector-curvature="0" /><linearGradient
       id="SVGID_19_"
       gradientUnits="userSpaceOnUse"
       x1="17.2111"
       y1="147.0797"
       x2="54.5205"
       y2="147.0797"><stop
         offset="0"
         style="stop-color:#F29D4B"
         id="stop4973" /><stop
         offset="0.4549"
         style="stop-color:#EB6324"
         id="stop4975" /><stop
         offset="0.8138"
         style="stop-color:#E73B0A"
         id="stop4977" /><stop
         offset="1"
         style="stop-color:#E52C00"
         id="stop4979" /></linearGradient><path
       class="st35"
       d="m 20.6,187.7 c 9.9,17.5 7.7,19.5 17.7,37 -12.7,-19.4 -9.8,-24.4 -15.3,-45.4 -3.3,-12.6 -4.7,-27 6.6,-37 2.9,-2.6 6.9,-5.4 6,-8.7 -5.8,-21.7 20.2,-42.1 18.9,-64.2 -8.8,19.4 -20.8,38 -28.8,57.6 -8,19.6 -12,40.6 -4.3,60.3 0.2,0.5 -0.1,1.1 -0.8,1.2 -0.7,0 -0.6,-1.1 0,-0.8 z"
       id="path4981"
       style="fill:url(#SVGID_19_)"
       inkscape:connector-curvature="0" /><linearGradient
       id="SVGID_20_"
       gradientUnits="userSpaceOnUse"
       x1="15.1154"
       y1="96.270302"
       x2="51.457802"
       y2="96.270302"><stop
         offset="0"
         style="stop-color:#F29D4B"
         id="stop4984" /><stop
         offset="0.4549"
         style="stop-color:#EB6324"
         id="stop4986" /><stop
         offset="0.8138"
         style="stop-color:#E73B0A"
         id="stop4988" /><stop
         offset="1"
         style="stop-color:#E52C00"
         id="stop4990" /></linearGradient><path
       class="st36"
       d="m 29.9,130.6 c -4.4,-1.5 -7.5,-5.6 -10.3,-9.6 -2,-2.8 -4.1,-5.8 -4.4,-9.4 -0.2,-2.9 0.7,-5.7 1.8,-8.4 6.9,-18 16.3,-34.8 27.8,-49.8 -2.1,13 -10.2,23.7 -16.4,35.1 -4.3,7.9 -7.7,17.8 -4,26 2.9,6.4 9.3,9.9 15.5,12.3 2.8,1.1 5.8,2 8.2,4 2.4,2 4,5.3 3.2,8.4 0.4,-4.5 -4.4,-7.7 -8.6,-8.1 -4.3,-0.3 -8.8,0.8 -12.8,-0.5 z"
       id="path4992"
       style="fill:url(#SVGID_20_)"
       inkscape:connector-curvature="0" /><linearGradient
       id="SVGID_21_"
       gradientUnits="userSpaceOnUse"
       x1="163.5545"
       y1="130.7359"
       x2="274.02509"
       y2="130.7359"><stop
         offset="0"
         style="stop-color:#F29D4B"
         id="stop4995" /><stop
         offset="0.4549"
         style="stop-color:#EB6324"
         id="stop4997" /><stop
         offset="0.8138"
         style="stop-color:#E73B0A"
         id="stop4999" /><stop
         offset="1"
         style="stop-color:#E52C00"
         id="stop5001" /></linearGradient><path
       class="st37"
       d="m 252.8,75.3 c 2.5,16.1 4.5,39 8,55 2.4,11 -1.3,22.1 1.7,33 8.3,30 9.9,61.1 11.5,92 C 265.1,184.8 239.9,117.2 214.8,50.2 209.1,35.1 177.9,14.8 163.5,6.1 c 11.9,-0.6 39.8,1 49.5,7.4 9.9,6.5 20.5,12.1 25.1,22.3 3.8,8.3 10.8,14.7 14.7,39.5 z"
       id="path5003"
       style="fill:url(#SVGID_21_)"
       inkscape:connector-curvature="0" /></g><g
     id="Layer_4"
     transform="translate(0,-252.5)" /><g
     id="Layer_2"
     transform="translate(0,-252.5)" /></svg>