<?xml version="1.0" encoding="UTF-8" standalone="no"?>
<!-- Generator: Adobe Illustrator 16.0.0, SVG Export Plug-In . SVG Version: 6.00 Build 0)  -->

<svg
   xmlns:dc="http://purl.org/dc/elements/1.1/"
   xmlns:cc="http://creativecommons.org/ns#"
   xmlns:rdf="http://www.w3.org/1999/02/22-rdf-syntax-ns#"
   xmlns:svg="http://www.w3.org/2000/svg"
   xmlns="http://www.w3.org/2000/svg"
   xmlns:xlink="http://www.w3.org/1999/xlink"
   xmlns:sodipodi="http://sodipodi.sourceforge.net/DTD/sodipodi-0.dtd"
   xmlns:inkscape="http://www.inkscape.org/namespaces/inkscape"
   version="1.1"
   x="0px"
   y="0px"
   width="47.5"
   height="47.5"
   viewBox="0 0 47.5 47.5"
   enable-background="new 0 0 300 300"
   xml:space="preserve"
   id="svg2"
   inkscape:version="0.91 r13725"
   sodipodi:docname="NovakDjokovic.svg"><metadata
     id="metadata277"><rdf:RDF><cc:Work
         rdf:about=""><dc:format>image/svg+xml</dc:format><dc:type
           rdf:resource="http://purl.org/dc/dcmitype/StillImage" /><dc:title></dc:title></cc:Work></rdf:RDF></metadata><defs
     id="defs275" /><sodipodi:namedview
     pagecolor="#ffffff"
     bordercolor="#666666"
     borderopacity="1"
     objecttolerance="10"
     gridtolerance="10"
     guidetolerance="10"
     inkscape:pageopacity="0"
     inkscape:pageshadow="2"
     inkscape:window-width="1318"
     inkscape:window-height="648"
     id="namedview273"
     showgrid="false"
     inkscape:zoom="8.9001173"
     inkscape:cx="30.327794"
     inkscape:cy="22.110252"
     inkscape:window-x="42"
     inkscape:window-y="0"
     inkscape:window-maximized="0"
     inkscape:current-layer="svg2" /><g
     id="Layer_1"
     transform="translate(0,-252.5)" /><g
     id="Layer_4"
     transform="translate(0,-252.5)" /><g
     id="Layer_5"
     transform="translate(0,-252.5)" /><g
     id="Layer_3"
     transform="translate(0,-252.5)" /><g
     id="Layer_6"
     transform="translate(0,-252.5)" /><g
     id="Layer_7"
     transform="translate(0,-252.5)" /><g
     id="Layer_8"
     transform="matrix(0.17562846,0,0,0.17562846,-3.5677542,-2.5532056)"><g
       id="g11"><defs
         id="defs13"><rect
           id="SVGID_1_"
           x="16.667"
           y="-10"
           width="266.66699"
           height="300" /></defs><clipPath
         id="SVGID_2_"><use
           xlink:href="#SVGID_1_"
           overflow="visible"
           id="use17"
           style="overflow:visible"
           x="0"
           y="0"
           width="100%"
           height="100%" /></clipPath><g
         clip-path="url(#SVGID_2_)"
         id="g19"><defs
           id="defs21"><path
             id="SVGID_3_"
             d="M 107.983,50.275 96.758,49.339 67.216,86.652 69.841,99.554 c -7.656,18.146 -12.034,39.145 -12.034,61.527 0,68.707 41.226,124.405 92.082,124.405 50.856,0 92.083,-55.698 92.083,-124.405 0,-17.582 -2.704,-34.308 -7.575,-49.472 L 230.811,86.652 207.917,58.607 201.539,58.076 C 186.81,44.569 169.032,36.675 149.889,36.675 c -15.092,0 -29.336,4.905 -41.906,13.6"
             inkscape:connector-curvature="0" /></defs><clipPath
           id="SVGID_4_"><use
             xlink:href="#SVGID_3_"
             overflow="visible"
             id="use25"
             style="overflow:visible"
             x="0"
             y="0"
             width="100%"
             height="100%" /></clipPath><radialGradient
           id="SVGID_5_"
           cx="-0.14210001"
           cy="300.08591"
           r="0.99970001"
           gradientTransform="matrix(98.2714,0,0,-117.4483,163.8456,35405.559)"
           gradientUnits="userSpaceOnUse"><stop
             offset="0"
             style="stop-color:#F7D1B1"
             id="stop28" /><stop
             offset="1"
             style="stop-color:#D39B79"
             id="stop30" /></radialGradient><rect
           x="57.806999"
           y="36.674999"
           clip-path="url(#SVGID_4_)"
           width="184.16499"
           height="248.811"
           id="rect32"
           style="fill:url(#SVGID_5_)" /></g><g
         clip-path="url(#SVGID_2_)"
         id="g34"><defs
           id="defs36"><rect
             id="SVGID_6_"
             x="16.667"
             y="-10"
             width="266.66699"
             height="300" /></defs><clipPath
           id="SVGID_7_"><use
             xlink:href="#SVGID_6_"
             overflow="visible"
             id="use40"
             style="overflow:visible"
             x="0"
             y="0"
             width="100%"
             height="100%" /></clipPath><radialGradient
           id="SVGID_8_"
           cx="22.633801"
           cy="175.4902"
           r="19.923599"
           gradientTransform="matrix(0.8889,0,0,1,33.3337,0)"
           gradientUnits="userSpaceOnUse"><stop
             offset="0"
             style="stop-color:#F7D1B1"
             id="stop43" /><stop
             offset="1"
             style="stop-color:#D39B79"
             id="stop45" /></radialGradient><path
           clip-path="url(#SVGID_7_)"
           d="m 58.088,149.464 c 0,0 -16.112,4.183 -14.045,24.633 2.065,20.45 19.003,27.421 19.003,27.421 l -4.958,-52.054 z"
           id="path47"
           style="fill:url(#SVGID_8_)"
           inkscape:connector-curvature="0" /><radialGradient
           id="SVGID_9_"
           cx="239.8652"
           cy="175.4902"
           r="19.9235"
           gradientTransform="matrix(0.8889,0,0,1,33.3337,0)"
           gradientUnits="userSpaceOnUse"><stop
             offset="0"
             style="stop-color:#F7D1B1"
             id="stop50" /><stop
             offset="1"
             style="stop-color:#D39B79"
             id="stop52" /></radialGradient><path
           clip-path="url(#SVGID_7_)"
           d="m 241.911,149.464 c 0,0 16.111,4.183 14.046,24.633 -2.065,20.45 -19.003,27.421 -19.003,27.421 l 4.957,-52.054 z"
           id="path54"
           style="fill:url(#SVGID_9_)"
           inkscape:connector-curvature="0" /></g><g
         clip-path="url(#SVGID_2_)"
         id="g56"><defs
           id="defs58"><path
             id="SVGID_10_"
             d="m 132.494,185.622 c 0,0 -6.656,17.57 17.665,17.282 24.322,0.288 17.666,-17.282 17.666,-17.282 -19.2,10.943 -35.331,0 -35.331,0"
             inkscape:connector-curvature="0" /></defs><clipPath
           id="SVGID_11_"><use
             xlink:href="#SVGID_10_"
             overflow="visible"
             id="use62"
             style="overflow:visible"
             x="0"
             y="0"
             width="100%"
             height="100%" /></clipPath><linearGradient
           id="SVGID_12_"
           gradientUnits="userSpaceOnUse"
           x1="-0.57810003"
           y1="299.99899"
           x2="0.4224"
           y2="299.99899"
           gradientTransform="matrix(0,17.2851,17.2851,0,-5035.3408,195.6124)"><stop
             offset="0"
             style="stop-color:#F9A88D"
             id="stop65" /><stop
             offset="0.1599"
             style="stop-color:#F5A58A"
             id="stop67" /><stop
             offset="0.3321"
             style="stop-color:#E89D82"
             id="stop69" /><stop
             offset="0.51"
             style="stop-color:#D29075"
             id="stop71" /><stop
             offset="0.6919"
             style="stop-color:#B47E62"
             id="stop73" /><stop
             offset="0.8749"
             style="stop-color:#8E6749"
             id="stop75" /><stop
             offset="1"
             style="stop-color:#6F5436"
             id="stop77" /></linearGradient><rect
           x="125.838"
           y="185.62199"
           clip-path="url(#SVGID_11_)"
           width="48.644001"
           height="17.57"
           id="rect79"
           style="fill:url(#SVGID_12_)" /></g><g
         display="none"
         clip-path="url(#SVGID_2_)"
         id="g81"
         style="display:none"><defs
           id="defs83"><rect
             id="SVGID_13_"
             x="16.667"
             y="-10"
             width="266.66699"
             height="300" /></defs><clipPath
           id="SVGID_14_"
           display="inline"
           style="display:inline"><use
             xlink:href="#SVGID_13_"
             overflow="visible"
             id="use87"
             style="overflow:visible"
             x="0"
             y="0"
             width="100%"
             height="100%" /></clipPath><path
           display="inline"
           clip-path="url(#SVGID_14_)"
           stroke-miterlimit="10"
           d="m 167.826,185.623 c -19.201,10.94 -35.332,0 -35.332,0 0,0 -6.657,17.569 17.666,17.282 24.321,0.287 17.666,-17.282 17.666,-17.282 z"
           id="path89"
           inkscape:connector-curvature="0"
           style="display:inline;fill:none;stroke:#6f5537;stroke-miterlimit:10" /></g><g
         display="none"
         clip-path="url(#SVGID_2_)"
         id="g91"
         style="display:none"><defs
           id="defs93"><path
             id="SVGID_15_"
             d="m 130.189,184.792 0.425,0 -0.425,0 z m 0.425,0 c 0,0 9.211,9.883 19.581,9.753 10.366,-0.13 20.577,-9.753 20.577,-9.753 l -40.158,0 z"
             inkscape:connector-curvature="0" /></defs><clipPath
           id="SVGID_16_"
           display="inline"
           style="display:inline"><use
             xlink:href="#SVGID_15_"
             overflow="visible"
             id="use97"
             style="overflow:visible"
             x="0"
             y="0"
             width="100%"
             height="100%" /></clipPath><radialGradient
           id="SVGID_17_"
           cx="-1.1357"
           cy="300.6055"
           r="0.99980003"
           gradientTransform="matrix(14.6723,0,0,-16.5064,167.1407,5151.5845)"
           gradientUnits="userSpaceOnUse"><stop
             offset="0"
             style="stop-color:#F9A88D"
             id="stop100" /><stop
             offset="1"
             style="stop-color:#D39B79"
             id="stop102" /></radialGradient><rect
           x="130.189"
           y="184.79201"
           display="inline"
           clip-path="url(#SVGID_16_)"
           width="40.583"
           height="9.8830004"
           id="rect104"
           style="display:inline;fill:url(#SVGID_17_)" /></g><g
         clip-path="url(#SVGID_2_)"
         id="g106"><defs
           id="defs108"><rect
             id="SVGID_18_"
             x="16.667"
             y="-10"
             width="266.66699"
             height="300" /></defs><clipPath
           id="SVGID_19_"><use
             xlink:href="#SVGID_18_"
             overflow="visible"
             id="use112"
             style="overflow:visible"
             x="0"
             y="0"
             width="100%"
             height="100%" /></clipPath><path
           clip-path="url(#SVGID_19_)"
           d="m 127.745,136.494 1.237,9.303 -19.217,-7.457 -17.63,2.867 -12.145,0.218 c 0,0 15.001,-10.89 47.755,-4.931"
           id="path114"
           inkscape:connector-curvature="0"
           style="fill:#17120e" /><path
           clip-path="url(#SVGID_19_)"
           d="m 173.824,136.225 -3.063,8.751 12.77,-5.43 21.938,-1.441 20.175,1.916 c -7.981,-2.237 -12.795,-5.673 -16.15,-6.123 -5.131,-0.688 -10.92,-1.118 -16.098,-1.161 -7.584,-0.063 -12.073,2.233 -19.572,3.488"
           id="path116"
           inkscape:connector-curvature="0"
           style="fill:#17120e" /><path
           clip-path="url(#SVGID_19_)"
           d="m 139.059,164.396 c 0,0 -3.125,-17.688 -25.506,-19.657 -22.38,-1.97 -36.292,18.188 -36.292,18.188 0,0 14.677,5.597 17.332,4.571 2.793,-1.079 19.449,4.849 44.466,-3.102"
           id="path118"
           inkscape:connector-curvature="0"
           style="fill:#ffffff" /><path
           clip-path="url(#SVGID_19_)"
           stroke-miterlimit="10"
           d="m 139.059,164.396 c 0,0 -3.125,-17.688 -25.506,-19.657 -22.38,-1.97 -36.292,18.188 -36.292,18.188 0,0 14.677,5.597 17.332,4.571 2.793,-1.079 19.449,4.849 44.466,-3.102 z"
           id="path120"
           inkscape:connector-curvature="0"
           style="fill:none;stroke:#cca976;stroke-miterlimit:10" /></g><g
         clip-path="url(#SVGID_2_)"
         id="g122"><defs
           id="defs124"><path
             id="SVGID_20_"
             d="m 99.911,157.113 c 0,6.494 4.7,11.291 10.472,11.291 5.772,0 10.432,-4.797 10.432,-11.291 0,-6.493 -4.679,-11.757 -10.452,-11.757 -5.772,0 -10.452,5.264 -10.452,11.757"
             inkscape:connector-curvature="0" /></defs><clipPath
           id="SVGID_21_"><use
             xlink:href="#SVGID_20_"
             overflow="visible"
             id="use128"
             style="overflow:visible"
             x="0"
             y="0"
             width="100%"
             height="100%" /></clipPath><radialGradient
           id="SVGID_22_"
           cx="-1.6113"
           cy="300.8584"
           r="1.0003"
           gradientTransform="matrix(10.348,0,0,-11.6415,127.0307,3659.3396)"
           gradientUnits="userSpaceOnUse"><stop
             offset="0"
             style="stop-color:#CEA979"
             id="stop131" /><stop
             offset="0.3989"
             style="stop-color:#CCA778"
             id="stop133" /><stop
             offset="0.5502"
             style="stop-color:#C5A173"
             id="stop135" /><stop
             offset="0.6595"
             style="stop-color:#B9976C"
             id="stop137" /><stop
             offset="0.7484"
             style="stop-color:#A88961"
             id="stop139" /><stop
             offset="0.8251"
             style="stop-color:#927653"
             id="stop141" /><stop
             offset="0.8932"
             style="stop-color:#765E41"
             id="stop143" /><stop
             offset="0.9536"
             style="stop-color:#56432D"
             id="stop145" /><stop
             offset="1"
             style="stop-color:#38291A"
             id="stop147" /></radialGradient><rect
           x="99.911003"
           y="145.356"
           clip-path="url(#SVGID_21_)"
           width="20.903"
           height="23.048"
           id="rect149"
           style="fill:url(#SVGID_22_)" /></g><g
         clip-path="url(#SVGID_2_)"
         id="g151"><defs
           id="defs153"><rect
             id="SVGID_23_"
             x="16.667"
             y="-10"
             width="266.66699"
             height="300" /></defs><clipPath
           id="SVGID_24_"><use
             xlink:href="#SVGID_23_"
             overflow="visible"
             id="use157"
             style="overflow:visible"
             x="0"
             y="0"
             width="100%"
             height="100%" /></clipPath><path
           clip-path="url(#SVGID_24_)"
           d="m 113.963,157.113 c 0,2.236 -1.612,4.05 -3.601,4.05 -1.987,0 -3.6,-1.813 -3.6,-4.05 0,-2.237 1.612,-4.05 3.6,-4.05 1.989,0 3.601,1.813 3.601,4.05"
           id="path159"
           inkscape:connector-curvature="0" /><path
           clip-path="url(#SVGID_24_)"
           d="m 112.498,149.014 c 0,1.326 -0.957,2.401 -2.136,2.401 -1.179,0 -2.135,-1.075 -2.135,-2.401 0,-1.327 0.956,-2.402 2.135,-2.402 1.179,0 2.136,1.075 2.136,2.402"
           id="path161"
           inkscape:connector-curvature="0"
           style="fill:#ffffff" /><path
           clip-path="url(#SVGID_24_)"
           d="m 162.797,164.899 c 0,0 3.124,-17.687 25.505,-19.657 22.381,-1.97 36.293,18.188 36.293,18.188 0,0 -14.615,5.358 -17.332,4.572 -2.805,-0.812 -19.462,5.053 -44.466,-3.103"
           id="path163"
           inkscape:connector-curvature="0"
           style="fill:#ffffff" /><path
           clip-path="url(#SVGID_24_)"
           stroke-miterlimit="10"
           d="m 162.797,164.899 c 0,0 3.124,-17.687 25.505,-19.657 22.381,-1.97 36.293,18.188 36.293,18.188 0,0 -14.615,5.358 -17.332,4.572 -2.805,-0.812 -19.462,5.053 -44.466,-3.103 z"
           id="path165"
           inkscape:connector-curvature="0"
           style="fill:none;stroke:#cca976;stroke-miterlimit:10" /></g><g
         clip-path="url(#SVGID_2_)"
         id="g167"><defs
           id="defs169"><path
             id="SVGID_25_"
             d="m 181.041,157.617 c 0,6.494 4.679,11.758 10.452,11.758 5.771,0 10.45,-5.264 10.45,-11.758 0,-6.493 -4.679,-11.757 -10.45,-11.757 -5.773,0 -10.452,5.264 -10.452,11.757"
             inkscape:connector-curvature="0" /></defs><clipPath
           id="SVGID_26_"><use
             xlink:href="#SVGID_25_"
             overflow="visible"
             id="use173"
             style="overflow:visible"
             x="0"
             y="0"
             width="100%"
             height="100%" /></clipPath><radialGradient
           id="SVGID_27_"
           cx="-1.5942"
           cy="300.85059"
           r="1"
           gradientTransform="matrix(10.4512,0,0,-11.7576,208.1545,3694.884)"
           gradientUnits="userSpaceOnUse"><stop
             offset="0"
             style="stop-color:#CEA979"
             id="stop176" /><stop
             offset="0.3989"
             style="stop-color:#CCA778"
             id="stop178" /><stop
             offset="0.5502"
             style="stop-color:#C5A173"
             id="stop180" /><stop
             offset="0.6595"
             style="stop-color:#B9976C"
             id="stop182" /><stop
             offset="0.7484"
             style="stop-color:#A88961"
             id="stop184" /><stop
             offset="0.8251"
             style="stop-color:#927653"
             id="stop186" /><stop
             offset="0.8932"
             style="stop-color:#765E41"
             id="stop188" /><stop
             offset="0.9536"
             style="stop-color:#56432D"
             id="stop190" /><stop
             offset="1"
             style="stop-color:#38291A"
             id="stop192" /></radialGradient><rect
           x="181.041"
           y="145.86"
           clip-path="url(#SVGID_26_)"
           width="20.902"
           height="23.514999"
           id="rect194"
           style="fill:url(#SVGID_27_)" /></g><g
         clip-path="url(#SVGID_2_)"
         id="g196"><defs
           id="defs198"><rect
             id="SVGID_28_"
             x="16.667"
             y="-10"
             width="266.66699"
             height="300" /></defs><clipPath
           id="SVGID_29_"><use
             xlink:href="#SVGID_28_"
             overflow="visible"
             id="use202"
             style="overflow:visible"
             x="0"
             y="0"
             width="100%"
             height="100%" /></clipPath><path
           clip-path="url(#SVGID_29_)"
           d="m 187.894,157.617 c 0,2.237 1.61,4.051 3.6,4.051 1.987,0 3.599,-1.813 3.599,-4.051 0,-2.236 -1.611,-4.05 -3.599,-4.05 -1.99,0 -3.6,1.814 -3.6,4.05"
           id="path204"
           inkscape:connector-curvature="0" /><path
           clip-path="url(#SVGID_29_)"
           d="m 189.358,149.518 c 0,1.327 0.955,2.402 2.135,2.402 1.179,0 2.135,-1.075 2.135,-2.402 0,-1.327 -0.956,-2.401 -2.135,-2.401 -1.18,-10e-4 -2.135,1.073 -2.135,2.401"
           id="path206"
           inkscape:connector-curvature="0"
           style="fill:#ffffff" /><g
           clip-path="url(#SVGID_29_)"
           id="g208"><defs
             id="defs210"><rect
               id="SVGID_30_"
               x="55.132"
               y="164.646"
               width="190.07001"
               height="125.467" /></defs><clipPath
             id="SVGID_31_"><use
               xlink:href="#SVGID_30_"
               overflow="visible"
               id="use214"
               style="overflow:visible"
               x="0"
               y="0"
               width="100%"
               height="100%" /></clipPath></g></g><g
         clip-path="url(#SVGID_2_)"
         id="g216"><defs
           id="defs218"><polygon
             id="SVGID_32_"
             points="162.559,231.232 132.533,231.232 127.751,230.818 118.291,232.07 117.735,233.322 133.828,234.525 147.118,234.525 174.68,235.632 185.62,230.818 173.805,231.667 " /></defs><clipPath
           id="SVGID_33_"><use
             xlink:href="#SVGID_32_"
             overflow="visible"
             id="use222"
             style="overflow:visible"
             x="0"
             y="0"
             width="100%"
             height="100%" /></clipPath><linearGradient
           id="SVGID_34_"
           gradientUnits="userSpaceOnUse"
           x1="0.069300003"
           y1="300.4375"
           x2="0.95810002"
           y2="300.4375"
           gradientTransform="matrix(34.3049,0,0,-34.3049,128.6103,10539.702)"><stop
             offset="0"
             style="stop-color:#81473C"
             id="stop225" /><stop
             offset="1"
             style="stop-color:#38291A"
             id="stop227" /></linearGradient><rect
           x="117.735"
           y="230.81799"
           clip-path="url(#SVGID_33_)"
           width="67.885002"
           height="4.8130002"
           id="rect229"
           style="fill:url(#SVGID_34_)" /></g><g
         display="none"
         clip-path="url(#SVGID_2_)"
         id="g231"
         style="display:none"><defs
           id="defs233"><rect
             id="SVGID_35_"
             x="16.667"
             y="-10"
             width="266.66699"
             height="300" /></defs><clipPath
           id="SVGID_36_"
           display="inline"
           style="display:inline"><use
             xlink:href="#SVGID_35_"
             overflow="visible"
             id="use237"
             style="overflow:visible"
             x="0"
             y="0"
             width="100%"
             height="100%" /></clipPath><g
           display="inline"
           clip-path="url(#SVGID_36_)"
           id="g239"
           style="display:inline"><defs
             id="defs241"><path
               id="SVGID_37_"
               d="m 199.649,236.666 0,0 z"
               inkscape:connector-curvature="0" /></defs><clipPath
             id="SVGID_38_"><use
               xlink:href="#SVGID_37_"
               overflow="visible"
               id="use245"
               style="overflow:visible"
               x="0"
               y="0"
               width="100%"
               height="100%" /></clipPath></g><g
           display="inline"
           clip-path="url(#SVGID_36_)"
           id="g247"
           style="display:inline"><defs
             id="defs249"><path
               id="SVGID_39_"
               d="m 200.439,223.071 0,0 z"
               inkscape:connector-curvature="0" /></defs><clipPath
             id="SVGID_40_"><use
               xlink:href="#SVGID_39_"
               overflow="visible"
               id="use253"
               style="overflow:visible"
               x="0"
               y="0"
               width="100%"
               height="100%" /></clipPath></g></g></g><path
       stroke-miterlimit="10"
       d="m 159.334,157 c 0.888,7.646 5.729,19.377 7.11,24 1.381,4.623 7.999,22.192 -12.444,22.192 -20.444,0 -28.203,-10.036 -18.562,-20.882"
       id="path255"
       inkscape:connector-curvature="0"
       style="opacity:0.5;fill:none;stroke:#000000;stroke-miterlimit:10" /><path
       stroke-miterlimit="10"
       d="m 224.595,163.431 c 0,0 -20.838,-26.755 -45.827,-16.093"
       id="path257"
       inkscape:connector-curvature="0"
       style="fill:none;stroke:#000000;stroke-miterlimit:10" /><path
       stroke-miterlimit="10"
       d="m 77.261,162.926 c 0,0 18.201,-25.609 45.692,-16.143"
       id="path259"
       inkscape:connector-curvature="0"
       style="fill:none;stroke:#000000;stroke-miterlimit:10" /><path
       d="M 59.773,167.161"
       id="path261"
       inkscape:connector-curvature="0" /><g
       id="g263"><path
         d="m 235.807,51.661 c -18.5,-28.923 -74.959,-34.412 -74.959,-34.412 -5.479,-0.533 -9.961,-0.995 -9.961,-1.028 0,-0.033 -0.069,-0.056 -0.153,-0.052 -0.085,0.004 -0.914,0.035 -1.154,0.02 -0.239,-0.015 -0.435,-0.001 -0.435,0.032 0,0.033 -4.482,0.496 -9.961,1.028 0,0 -56.459,5.489 -74.959,34.412 -20.468,32 -14.807,50 -12.629,71 2.178,21 5.979,34.85 5.979,34.85 1.458,5.308 3.334,5.199 4.172,-0.241 0,0 2.478,-16.108 7.269,-27.608 4.791,-11.5 8.683,-28.738 8.683,-28.738 1.212,-5.369 6.433,-11.312 11.601,-13.206 0,0 11.071,-4.057 36.329,-8.557 17.056,-3.039 17.056,-3.039 17.056,-3.039 4.032,-0.718 10.631,-0.718 14.663,0 0,0 0,0 17.056,3.039 25.259,4.5 36.329,8.557 36.329,8.557 5.169,1.894 10.39,7.836 11.603,13.206 0,0 3.893,17.238 8.683,28.738 4.79,11.5 7.269,27.608 7.269,27.608 0.837,5.44 2.714,5.549 4.171,0.241 0,0 3.803,-13.85 5.979,-34.85 2.175,-21 7.836,-39 -12.631,-71 z"
         id="path265"
         inkscape:connector-curvature="0" /></g><path
       d="M 59.773,212.396"
       id="path267"
       inkscape:connector-curvature="0" /><path
       d="m 110.179,231.325 c 0,0 0.731,2.058 2.194,5.35 1.463,3.292 14.266,14.814 20.851,16.461 6.584,1.646 37.311,1.234 45.543,-5.35 8.231,-6.584 14.813,-16.461 14.813,-16.461 0,0 -29.265,-8.59 -43.566,-8.59 -14.3,0 -39.835,8.59 -39.835,8.59 z"
       id="path269"
       inkscape:connector-curvature="0"
       style="fill:none" /><path
       d="m 201.68,221.838 c -8.42,-2.667 -26.339,-11.852 -36.068,-13.746 -0.021,-0.004 -0.042,-0.007 -0.063,-0.011 -5.094,-1.447 -10.566,-2.243 -16.272,-2.243 -5.513,0 -10.806,0.745 -15.753,2.101 -1.382,0.091 -2.198,0.153 -2.198,0.153 0,0 -10.213,4.431 -19.844,8.255 -4.142,1.645 -10.886,3.321 -17.464,4.686 1.687,12.94 4.779,33.868 8.62,47.166 1.375,1.036 2.787,2.01 4.237,2.905 23.275,14.383 36.197,14.364 42.403,14.383 0.398,10e-4 0.888,-0.007 1.454,-0.029 7.271,-0.172 14.145,-1.616 20.293,-4.076 9.448,-3.225 20.771,-8.921 31.936,-18.936 2.911,-12.092 5.282,-27.736 6.774,-38.876 -3.032,-0.472 -5.882,-1.045 -8.055,-1.732 z m -22.912,25.948 c -8.232,6.584 -38.959,6.996 -45.543,5.35 -6.585,-1.646 -19.388,-13.169 -20.851,-16.461 -1.463,-3.292 -2.194,-5.35 -2.194,-5.35 0,0 25.535,-8.59 39.835,-8.59 14.302,0 43.566,8.59 43.566,8.59 0,0 -6.582,9.877 -14.813,16.461 z"
       id="path271"
       inkscape:connector-curvature="0"
       style="opacity:0.05" /></g></svg>