<?xml version="1.0" encoding="UTF-8" standalone="no"?><svg width="238" height="238" viewBox="0 0 238 238" xmlns="http://www.w3.org/2000/svg" xmlns:xlink="http://www.w3.org/1999/xlink"><svg width="47.5" height="47.5" viewBox="0 0 47.5 47.5" id="emoji-refugee-01_house" x="47.5"><title>house</title><desc>Created with Sketch.</desc><g fill="none" fill-rule="evenodd"><g transform="translate(-177 -132)"><g transform="translate(177 132)"><path d="M.87 23.424C.87 10.684 11.152.356 23.84.356s22.974 10.327 22.974 23.068c0 12.74-10.287 23.067-22.974 23.067S.87 36.165.87 23.425z" fill="#272EEE"/><path d="M46.342 23.806H45.3c0 5.98-2.412 11.38-6.312 15.3-3.904 3.917-9.285 6.338-15.238 6.338-5.954 0-11.335-2.42-15.237-6.338-3.903-3.92-6.314-9.32-6.314-15.3s2.41-11.383 6.313-15.3c3.902-3.92 9.283-6.34 15.237-6.34 5.953 0 11.334 2.42 15.238 6.34 3.9 3.917 6.31 9.32 6.31 15.3h2.087C47.383 10.696 36.802.073 23.75.073 10.696.073.116 10.697.114 23.806.116 36.914 10.696 47.538 23.75 47.538c13.052 0 23.633-10.624 23.635-23.732h-1.043" fill="#1A1918"/><path d="M15.598 17.897l2.87-2.483V13.64h-2.87v4.257" fill="#fff"/><path d="M11.935 22.68l1.25 1.21 10.655-9.343 10.67 9.344 1.235-1.34L23.91 12.1 11.936 22.68" fill="#fff"/><path d="M23.855 16.318l-8.243 7.353v11.076h5.725l5.056-.01 5.848.01V23.67l-8.385-7.352" fill="#fff"/></g></g></g></svg><svg width="47.5" height="47.5" viewBox="0 0 47.5 47.5" id="emoji-refugee-02_tent" x="142.5" y="47.5"><title>tent</title><desc>Created with Sketch.</desc><g fill="none" fill-rule="evenodd"><g transform="translate(-1068 -726)"><g transform="translate(1068 726)"><g><path d="M23.768 46.48c-12.493 0-22.62-10.133-22.62-22.63 0-12.5 10.127-22.634 22.62-22.634s22.62 10.134 22.62 22.633c0 12.497-10.127 22.63-22.62 22.63z" fill="#85554E"/><path d="M46.388 23.85h-1.05c0 5.96-2.412 11.35-6.318 15.257-3.906 3.908-9.29 6.32-15.252 6.32-5.96 0-11.346-2.412-15.252-6.32C4.61 35.2 2.198 29.81 2.198 23.85c0-5.965 2.412-11.352 6.318-15.262 3.906-3.906 9.29-6.32 15.252-6.32 5.96 0 11.346 2.414 15.252 6.32 3.906 3.91 6.318 9.297 6.318 15.26h2.1C47.44 10.77 36.842.17 23.77.166 10.695.167.098 10.768.098 23.85c0 13.077 10.597 23.68 23.67 23.68 13.073 0 23.67-10.603 23.67-23.68h-1.05" fill="#1A1918"/></g><path d="M27.88 36.49h-.135l-.052-.15c-.368-.64-.765-1.262-1.1-1.916-.493-.96-.95-1.938-1.405-2.92-.454-.988-.9-1.98-1.32-2.983-.722-1.707-1.426-3.425-2.128-5.142-.538-1.32-1.07-2.645-1.588-3.973-.563-1.44-1.116-2.886-1.656-4.334-.48-1.284-.935-2.574-1.4-3.863h.135l.014.03c1.737.693 3.56.973 5.412 1.036 1.782.06 3.568.06 5.34-.19.787-.11 1.577-.193 2.352-.348.645-.13 1.276-.35 1.912-.528h.135c.18.3.405.582.536.904.6 1.485 1.215 2.965 1.747 4.474 1.065 3.02 1.983 6.09 3.235 9.045.597 1.407 1.225 2.8 2.09 4.07.314.46.678.888 1.018 1.33v.2c-.868.74-1.845 1.315-2.866 1.802-.723.345-1.456.677-2.21.934-1.948.662-3.908 1.29-5.87 1.913-.72.228-1.463.408-2.194.61" fill="#fff"/><path d="M15.748 11.207h.067c.19.538.37 1.078.57 1.612.554 1.48 1.107 2.96 1.676 4.432.478 1.23.97 2.454 1.464 3.673.6 1.475 1.208 2.947 1.82 4.418.463 1.114.924 2.235 1.417 3.336.863 1.916 1.737 3.83 2.634 5.73.336.714.756 1.39 1.137 2.08h-.134l-.1-.067c-2.413-.81-4.827-1.614-7.237-2.428l-.455-.242c-.214-.315-.41-.658-.548-1.015-.782-2.018-1.36-4.1-1.904-6.19-.353-1.362-.693-2.73-1.048-4.127-.19.634-.36 1.233-.557 1.826-.56 1.686-1.11 3.374-1.708 5.047-.23.65-.567 1.26-.874 1.88-.116.23-.296.33-.58.205-.28-.124-.584-.187-.878-.277l-3.992-1.216v-.137c.806-.902 1.332-1.984 1.88-3.044.622-1.202 1.185-2.436 1.765-3.66.425-.893.846-1.79 1.255-2.69.837-1.84 1.643-3.693 2.503-5.524.576-1.225 1.218-2.416 1.83-3.623" fill="#fff"/></g></g></g></svg><svg width="47.5" height="47.5" viewBox="0 0 47.5 47.5" id="emoji-refugee-03_medicine" y="47.5"><title>medicine</title><desc>Created with Sketch.</desc><g fill="none" fill-rule="evenodd"><g transform="translate(-1367 -1012)"><g transform="translate(1367 1012)"><path d="M46.336 23.856c0 12.498-10.127 22.63-22.622 22.63-12.493 0-22.62-10.132-22.62-22.63 0-12.5 10.127-22.63 22.62-22.63 12.495 0 22.622 10.13 22.622 22.63" fill="#fff"/><path d="M46.336 23.856h-1.05c0 5.96-2.414 11.35-6.318 15.258-3.908 3.908-9.293 6.32-15.254 6.32-5.96 0-11.346-2.412-15.252-6.32-3.904-3.908-6.318-9.297-6.318-15.258 0-5.964 2.414-11.35 6.318-15.26 3.906-3.907 9.293-6.32 15.252-6.32 5.96 0 11.346 2.413 15.254 6.32 3.904 3.91 6.318 9.296 6.318 15.26h2.1C47.387 10.776 36.79.174 23.715.174 10.64.174.044 10.777.044 23.856c0 13.078 10.597 23.68 23.67 23.68 13.075 0 23.67-10.602 23.673-23.68h-1.05" fill="#1A1918"/><path d="M20.262 12.28h6.906v23.15h-6.906V12.28z" fill="#BC242A"/><path d="M12.145 20.4h23.14v6.91h-23.14V20.4z" fill="#BC242A"/></g></g></g></svg><svg width="47.5" height="47.5" viewBox="0 0 47.5 47.5" id="emoji-refugee-04_water" x="47.5" y="47.5"><title>water</title><desc>Created with Sketch.</desc><g fill="none" fill-rule="evenodd"><g transform="translate(-771 -133)"><g transform="translate(771 133)"><path d="M23.9 46.49C11.213 46.49.93 36.165.93 23.425.93 10.684 11.212.356 23.9.356s22.973 10.327 22.973 23.068c0 12.74-10.286 23.067-22.973 23.067" fill="#38A1CE"/><path d="M46.402 23.806H45.36c0 5.98-2.412 11.38-6.312 15.3-3.904 3.917-9.285 6.338-15.238 6.338-5.954 0-11.335-2.42-15.237-6.338-3.903-3.92-6.312-9.32-6.314-15.3 0-5.98 2.41-11.383 6.313-15.3 3.902-3.92 9.283-6.34 15.237-6.34 5.953 0 11.334 2.42 15.238 6.34 3.9 3.917 6.31 9.32 6.31 15.3h2.087c0-13.11-10.58-23.733-23.635-23.733C10.756.073.176 10.697.174 23.806.176 36.914 10.756 47.538 23.81 47.538c13.054 0 23.635-10.624 23.635-23.732h-1.043" fill="#1A1918"/><path d="M30.49 24.486c-1.372-4.78-4.112-8.865-6.67-13.246-.61 1.02-1.186 1.885-1.662 2.8-1.524 2.928-3.118 5.826-4.48 8.83-.936 2.066-1.34 4.312-1.01 6.63.483 3.4 3.19 5.887 6.683 6.092 3.535.208 6.515-1.883 7.414-5.183.546-2.007.283-3.972-.275-5.924" fill="#fff"/></g></g></g></svg><svg width="47.5" height="47.5" viewBox="0 0 47.5 47.5" id="emoji-refugee-05_food" x="95"><title>food</title><desc>Created with Sketch.</desc><g fill="none" fill-rule="evenodd"><g transform="translate(-177 -418)"><g transform="translate(177 418)"><path d="M23.838 46.593C11.102 46.593.78 36.228.78 23.44.78 10.655 11.102.288 23.838.288c12.734 0 23.056 10.367 23.056 23.154 0 12.788-10.322 23.153-23.056 23.153" fill="#2BA848"/><path d="M46.42 23.823h-1.046c0 6.002-2.417 11.425-6.334 15.358-3.917 3.932-9.318 6.362-15.294 6.362-5.977 0-11.377-2.43-15.294-6.36-3.917-3.934-6.334-9.357-6.334-15.36 0-6 2.417-11.423 6.334-15.356s9.317-6.36 15.294-6.36c5.976 0 11.377 2.427 15.294 6.36 3.917 3.933 6.334 9.356 6.334 15.357h2.094c0-13.156-10.62-23.82-23.722-23.82C10.644.003.024 10.667.024 23.823c0 13.157 10.62 23.82 23.722 23.82 13.102 0 23.722-10.663 23.722-23.82H46.42" fill="#1A1918"/><path d="M23.478 17.387l-.605-3.693-1.262-2.37-1.372-1.6.822-1.544.798-.605 1.124 2.535.768 2.756.605 3.937v.584h-.877" fill="#fff"/><path d="M20.847 8.584l-.61 1.14 1.374 1.6 1.263 2.37.2 1.22c.263.24.462.438.572.55l-.334-2.157-1.398-3.143-1.065-1.58" fill="#fff"/><path d="M28.724 12.48c-2.05 0-4.978 3.087-4.978 3.087s-2.93-3.086-4.978-3.086c0 0-8.05 1.838-7.538 12.348 0 0-.147 8.673 8.344 11.244 0 0 3.146 1.03 4.172-.513 1.026 1.542 4.172.512 4.172.512 8.49-2.57 8.344-11.244 8.344-11.244.513-10.51-7.538-12.347-7.538-12.347" fill="#fff"/><path d="M28.433 13.61c-1.93 0-4.687 2.79-4.687 2.79s-2.757-2.79-4.687-2.79c0 0-7.583 1.66-7.1 11.166 0 0-.215 7.842 7.78 10.167 0 0 3.04 1.016 4.006-.38.965 1.396 4.005.38 4.005.38 7.997-2.325 7.78-10.167 7.78-10.167.485-9.506-7.097-11.166-7.097-11.166" fill="#fff"/><path d="M25.38 22.77s1.498.482 1.678.96c.182.482.682 1.346.182 1.78 0 0-.773.53-1.135.193-.364-.337-.908-1.043-.908-1.41V23.01l.182-.24" fill="#2BA848"/><path d="M22.115 22.77s-1.5.482-1.68.96c-.183.482-.683 1.346-.183 1.78 0 0 .773.53 1.135.193.364-.337.908-1.043.908-1.41V23.01l-.18-.24" fill="#2BA848"/><path d="M23.622 13.59l-.006.013s2.657.156 4.132-2.266c1.36-2.234.415-4.616.26-4.97l.023-.04-.04.003-.005-.012-.008.014c-.386.026-2.925.288-4.267 2.533-1.45 2.428-.092 4.717-.088 4.726" fill="#fff"/><path d="M23.63 13.595l-.005.013.058.002 4.258-7.27c-.493.04-2.92.35-4.22 2.53-1.452 2.427-.093 4.717-.09 4.725" fill="#fff"/><path d="M11.23 24.862c-.002.494.11 8.728 8.344 11.22 0 0 1.028.337 2.1.337.803 0 1.632-.19 2.072-.85v-.01c-.44.66-1.27.848-2.072.848-1.072 0-2.1-.336-2.1-.336-8.18-2.478-8.344-10.622-8.344-11.21m-.023-.984c0 .31.006.63.023.96v-.01c-.017-.326-.023-.64-.023-.95" fill="#3CAB4F"/><path d="M18.768 12.49s-7.555 1.725-7.56 11.388c0 .31.005.624.022.95v.034c0 .588.163 8.732 8.344 11.21 0 0 1.028.336 2.1.336.803 0 1.632-.19 2.072-.85v-.995c-.394.57-1.13.738-1.867.738-1.07 0-2.14-.357-2.14-.357-7.995-2.325-7.78-10.167-7.78-10.167-.483-9.506 7.1-11.166 7.1-11.166 1.93 0 4.686 2.79 4.686 2.79v-.823s-2.93-3.086-4.978-3.086" fill="#fff"/><path d="M21.07 25.814c-.374 0-.818-.305-.818-.305-.5-.434 0-1.298.182-1.78.18-.478 1.68-.96 1.68-.96l.18.24v1.282c0 .368-.543 1.074-.907 1.41-.088.08-.2.112-.318.112M19.06 13.61s-7.583 1.66-7.1 11.166c0 0-.215 7.842 7.78 10.167 0 0 1.07.358 2.14.358.736 0 1.472-.168 1.866-.737V16.4s-2.757-2.79-4.687-2.79" fill="#fff"/><path d="M22.115 22.77s-1.5.482-1.68.96c-.183.482-.683 1.346-.183 1.78 0 0 .444.304.817.304.118 0 .23-.03.317-.11.364-.338.908-1.044.908-1.412V23.01l-.18-.24" fill="#3CAB4F"/></g></g></g></svg><svg width="47.5" height="47.5" viewBox="0 0 47.5 47.5" id="emoji-refugee-06_love" x="95" y="47.5"><title>love</title><desc>Created with Sketch.</desc><g fill="none" fill-rule="evenodd"><g transform="translate(-474 -134)"><g transform="translate(474 134)"><path d="M23.888 46.616C11.2 46.616.916 36.248.916 23.462.916 10.675 11.2.31 23.888.31c12.69 0 22.973 10.365 22.973 23.152 0 12.786-10.283 23.154-22.972 23.154" fill="#864389"/><path d="M46.39 23.846h-1.043c0 6-2.41 11.423-6.31 15.358-3.904 3.93-9.285 6.36-15.24 6.36-5.954 0-11.335-2.43-15.237-6.36-3.902-3.935-6.31-9.358-6.31-15.358S4.657 12.422 8.56 8.49c3.902-3.934 9.283-6.362 15.238-6.364 5.954.002 11.335 2.43 15.238 6.363 3.9 3.932 6.31 9.355 6.31 15.356h2.087c0-13.156-10.58-23.82-23.635-23.822C10.744.026.163 10.69.163 23.846c0 13.155 10.58 23.82 23.635 23.82 13.054 0 23.635-10.665 23.635-23.82H46.39" fill="#1A1918"/><path d="M36.41 25.42c-1.2 1.98-3.212 3.398-5.097 4.707-2.003 1.39-6.022 3.778-7.515 6.97-1.64-3.318-4.65-5.458-6.626-6.888-2.36-1.708-4.576-3.032-5.878-4.865-.75-1.055-1.2-2.28-1.2-3.842 0-4.284 3.447-7.757 7.697-7.757 2.43 0 6.008 2.247 6.008 5.81 0-3.584 3.577-5.81 6.007-5.81 4.248 0 7.694 3.473 7.694 7.757 0 1.534-.42 2.812-1.09 3.918" fill="#fff"/></g></g></g></svg><svg width="47.5" height="47.5" viewBox="0 0 47.5 47.5" id="emoji-refugee-07_charge" y="95"><title>charge</title><desc>Created with Sketch.</desc><g fill="none" fill-rule="evenodd"><g transform="translate(-1095 -1345)"><g transform="translate(1095 1345)"><g><path d="M23.83 46.49C11.14 46.49.854 36.163.854 23.424.855 10.684 11.142.354 23.83.354c12.686 0 22.97 10.33 22.97 23.07S36.516 46.49 23.83 46.49" fill="#DBC539"/><path d="M46.33 23.805H45.29c-.002 5.98-2.41 11.382-6.313 15.3-3.902 3.917-9.283 6.338-15.238 6.338-5.952 0-11.333-2.42-15.238-6.337-3.9-3.92-6.312-9.322-6.312-15.3 0-5.98 2.41-11.384 6.31-15.302 3.906-3.92 9.287-6.337 15.24-6.337 5.954 0 11.335 2.418 15.237 6.337 3.902 3.918 6.31 9.322 6.313 15.3h2.086C47.372 10.698 36.79.073 23.737.073S.102 10.697.102 23.805s10.58 23.733 23.635 23.733c13.054 0 23.635-10.625 23.637-23.733H46.33" fill="#1A1918"/></g><path d="M16.533 34.836V12.844c.2-.822.662-1.41 1.482-1.684h11.468c.82.275 1.286.86 1.484 1.684v21.992c-.198.824-.665 1.41-1.484 1.684H18.015c-.82-.273-1.282-.862-1.482-1.684zm1.48-20.512v16.304h11.465V14.324H18.013zm5.715-1.17c.806 0 1.614-.014 2.42.006.33.01.453-.155.453-.434 0-.282-.13-.445-.457-.443-1.596.01-3.193.01-4.79 0-.327-.002-.454.167-.452.447.003.28.122.442.458.432.79-.025 1.58-.01 2.37-.01zm-.002 21.508c.645.01 1.172-.494 1.182-1.132.01-.616-.54-1.172-1.158-1.172-.602 0-1.13.516-1.158 1.124-.025.626.496 1.17 1.134 1.18zM25.735 15.426l-5.303 6.594 2.41 1.498-2.223 6.075 5.3-6.632-2.45-1.503 2.265-6.03" fill="#fff"/></g></g></g></svg><svg width="47.5" height="47.5" viewBox="0 0 47.5 47.5" id="emoji-refugee-08_buyPhone" x="47.5" y="95"><title>buyPhone</title><desc>Created with Sketch.</desc><g fill="none" fill-rule="evenodd"><g><g><g><g><path d="M23.83 46.315C11.14 46.315.854 36.027.854 23.335.855 10.645 11.142.355 23.83.355c12.686 0 22.97 10.29 22.97 22.98 0 12.692-10.284 22.98-22.97 22.98" fill="#99E848"/><path d="M46.33 23.715H45.29c-.002 5.957-2.41 11.34-6.313 15.243-3.902 3.902-9.283 6.314-15.238 6.314-5.952 0-11.333-2.412-15.238-6.314-3.9-3.903-6.312-9.286-6.312-15.243 0-5.957 2.41-11.34 6.31-15.243 3.906-3.904 9.287-6.314 15.24-6.314 5.954 0 11.335 2.41 15.237 6.314 3.902 3.903 6.31 9.286 6.313 15.243h2.086C47.372 10.655 36.79.072 23.737.072S.102 10.656.102 23.715c0 13.06 10.58 23.643 23.635 23.643 13.054 0 23.635-10.584 23.637-23.643H46.33" fill="#1A1918"/></g><path d="M16.533 34.705v-21.91c.2-.818.662-1.404 1.482-1.677h11.468c.82.274 1.286.857 1.484 1.677v21.91c-.198.82-.665 1.404-1.484 1.677H18.015c-.82-.27-1.282-.86-1.482-1.677zm1.48-20.435v16.243h11.465V14.27H18.013zm5.715-1.166c.806 0 1.614-.014 2.42.007.33.01.453-.154.453-.432 0-.28-.13-.444-.457-.44-1.596.01-3.193.01-4.79 0-.327-.004-.454.165-.452.444.003.278.122.44.458.43.79-.024 1.58-.008 2.37-.008zm-.002 21.427c.645.012 1.172-.49 1.182-1.126.01-.614-.54-1.168-1.158-1.168-.602 0-1.13.514-1.158 1.12-.025.623.496 1.165 1.134 1.175z" fill="#fff"/></g><path d="M28.258 25.323v.416c-.002.206-.007.414-.005.622 0 .073-.02.12-.08.167-1 .764-2.13 1.098-3.376 1.008-2-.144-3.713-1.547-4.288-3.494l-.038-.12h-1.61c.113-.272.22-.535.336-.795.013-.028.073-.048.11-.048.336-.004.67-.002 1.014-.002v-.795H18.86c.112-.273.214-.53.325-.782.012-.027.073-.044.11-.044.39-.004.778-.003 1.16-.003.1-.266.18-.532.3-.78.75-1.574 1.985-2.533 3.697-2.8 1.572-.246 2.955.218 4.12 1.315.023.022.04.075.03.102-.1.266-.208.53-.314.798-1.356-1.4-2.934-1.833-4.747-1.072-1.087.457-1.794 1.304-2.19 2.437h6.344l-.208.53c-.114.293-.114.293-.428.293h-5.885v.796h5.84c-.05.132-.092.25-.136.368-.044.116-.097.23-.132.348-.026.088-.07.11-.16.11-.962-.002-1.926 0-2.89 0l-1.972.01c-.12 0-.24.01-.36.016.285 1.064 1.327 2.407 3.037 2.73 1.52.288 2.803-.196 3.858-1.335" fill="#fff"/></g></g></g></svg><svg width="47.5" height="47.5" viewBox="0 0 47.5 47.5" id="emoji-refugee-09_alert" x="95" y="95"><title>alert</title><desc>Created with Sketch.</desc><g fill="none" fill-rule="evenodd"><g transform="translate(-1068 -418)"><g transform="translate(1068 418)"><path d="M46.388 23.826c0 12.5-10.127 22.63-22.62 22.63s-22.62-10.13-22.62-22.63c0-12.5 10.127-22.63 22.62-22.63s22.62 10.13 22.62 22.63" fill="#DE465A"/><path d="M46.388 23.826h-1.05c0 5.96-2.412 11.35-6.318 15.26-3.906 3.906-9.29 6.32-15.252 6.32-5.96 0-11.346-2.414-15.252-6.32-3.906-3.91-6.318-9.3-6.318-15.26 0-5.963 2.412-11.35 6.318-15.26 3.906-3.906 9.29-6.32 15.252-6.32 5.96 0 11.346 2.414 15.252 6.32 3.906 3.91 6.318 9.297 6.318 15.26h2.1c0-13.08-10.597-23.68-23.67-23.68-13.073 0-23.67 10.6-23.67 23.68s10.597 23.682 23.67 23.682c13.073 0 23.67-10.603 23.67-23.682h-1.05" fill="#1A1918"/><path d="M26.915 27.69H20.62l-.972-18.05h8.24l-.973 18.05zm-7.19 6.678c0-1.16.343-2.058 1.03-2.7.687-.643 1.685-.964 2.994-.964 1.295 0 2.28.32 2.945.965.668.64 1.002 1.54 1.002 2.698 0 1.145-.347 2.04-1.04 2.68-.694.643-1.662.965-2.908.965-1.26 0-2.245-.322-2.957-.965-.713-.64-1.068-1.535-1.068-2.68z" fill="#fff"/></g></g></g></svg><svg width="47.5" height="47.5" viewBox="0 0 47.5 47.5" id="emoji-refugee-10_question" x="142.5"><title>question</title><desc>Created with Sketch.</desc><g fill="none" fill-rule="evenodd"><g transform="translate(-1367 -418)"><g transform="translate(1367 418)"><path d="M46.336 23.83c0 12.544-10.127 22.716-22.622 22.716-12.493 0-22.62-10.172-22.62-22.717 0-12.546 10.127-22.715 22.62-22.715 12.495 0 22.622 10.17 22.622 22.714" fill="#8EC572"/><path d="M46.336 23.83h-1.05c0 5.985-2.414 11.392-6.318 15.317-3.908 3.92-9.293 6.342-15.254 6.344-5.96 0-11.344-2.423-15.252-6.343-3.904-3.925-6.318-9.332-6.318-15.318 0-5.984 2.414-11.394 6.318-15.316C12.37 4.592 17.755 2.17 23.714 2.17c5.96 0 11.346 2.422 15.254 6.344 3.904 3.922 6.318 9.332 6.318 15.315h2.1C47.387 10.7 36.79.06 23.715.06 10.64.062.044 10.702.044 23.83c0 13.13 10.597 23.77 23.67 23.77 13.075 0 23.67-10.64 23.673-23.77h-1.05" fill="#1A1918"/><path d="M19.793 27.952v-1.665c0-1.263.258-2.33.77-3.202.516-.87 1.428-1.718 2.737-2.545 1.042-.656 1.79-1.25 2.246-1.778.456-.53.683-1.135.683-1.82 0-.54-.245-.972-.732-1.286-.488-.316-1.125-.475-1.908-.475-1.94 0-4.207.69-6.802 2.07l-2.678-5.26c3.197-1.832 6.538-2.748 10.02-2.748 2.864 0 5.112.63 6.744 1.895 1.63 1.266 2.446 2.987 2.446 5.167 0 1.56-.364 2.91-1.088 4.053-.725 1.14-1.885 2.22-3.478 3.24-1.35.878-2.193 1.52-2.534 1.927-.34.405-.51.886-.51 1.44v.988h-5.917zm-.828 6.773c0-1.188.343-2.104 1.032-2.75.687-.643 1.698-.966 3.034-.966 1.285 0 2.272.324 2.96.976.686.652 1.03 1.563 1.03 2.74 0 1.172-.356 2.08-1.07 2.727-.713.643-1.686.966-2.92.966-1.27 0-2.266-.32-2.987-.96-.72-.636-1.078-1.55-1.078-2.735z" fill="#fff"/></g></g></g></svg><svg width="47.5" height="47.5" viewBox="0 0 47.5 47.5" id="emoji-refugee-11_stop"><title>stop</title><desc>Created with Sketch.</desc><g fill="none" fill-rule="evenodd"><g transform="translate(-772 -418)"><g transform="translate(772 418)"><path d="M46.373 23.857c0 12.498-10.127 22.63-22.62 22.63-12.494 0-22.623-10.132-22.623-22.63 0-12.5 10.13-22.63 22.623-22.63s22.62 10.13 22.62 22.63" fill="#BC242A"/><path d="M46.373 23.857h-1.05c0 5.963-2.413 11.35-6.32 15.258-3.904 3.908-9.292 6.32-15.25 6.32-5.96 0-11.346-2.412-15.254-6.32-3.905-3.907-6.317-9.295-6.32-15.258.003-5.962 2.415-11.35 6.32-15.26 3.907-3.907 9.292-6.32 15.253-6.32 5.958 0 11.346 2.413 15.25 6.32 3.907 3.91 6.32 9.298 6.32 15.26h2.1c0-13.08-10.597-23.682-23.67-23.682C10.677.175.083 10.778.08 23.857c.002 13.08 10.597 23.68 23.673 23.68 13.073 0 23.67-10.6 23.67-23.68h-1.05" fill="#1A1918"/><path d="M13.22 31.382L31.275 13.32c.83-.83 2.178-.83 3.008 0h.002c.83.832.83 2.18 0 3.01L16.23 34.395c-.83.833-2.178.833-3.01 0-.832-.832-.832-2.18 0-3.012" fill="#fff"/><path d="M13.22 13.32c.832-.83 2.18-.83 3.01 0l18.053 18.062c.832.832.832 2.18 0 3.012-.83.83-2.18.83-3.008 0L13.22 16.33c-.83-.83-.83-2.178 0-3.01" fill="#fff"/></g></g></g></svg><svg width="47.5" height="47.5" viewBox="0 0 47.5 47.5" id="emoji-refugee-12_drone" x="142.5" y="95"><title>drone</title><desc>Created with Sketch.</desc><g fill="none" fill-rule="evenodd"><g transform="translate(-779 -1038)"><g transform="translate(779 1038)"><g><path d="M23.768 46.48c-12.493 0-22.62-10.133-22.62-22.63 0-12.5 10.127-22.634 22.62-22.634s22.62 10.134 22.62 22.633c0 12.497-10.127 22.63-22.62 22.63z" fill="#DB1717"/><path d="M46.388 23.85h-1.05c0 5.96-2.412 11.35-6.318 15.257-3.906 3.908-9.29 6.32-15.252 6.32-5.96 0-11.346-2.412-15.252-6.32C4.61 35.2 2.198 29.81 2.198 23.85c0-5.965 2.412-11.352 6.318-15.262 3.906-3.906 9.29-6.32 15.252-6.32 5.96 0 11.346 2.414 15.252 6.32 3.906 3.91 6.318 9.297 6.318 15.26h2.1C47.44 10.77 36.842.17 23.77.166 10.695.167.098 10.768.098 23.85c0 13.077 10.597 23.68 23.67 23.68 13.073 0 23.67-10.603 23.67-23.68h-1.05" fill="#1A1918"/></g><path d="M20.542 24.615c-.966-.108-1.854-.192-2.737-.31-2.05-.27-4.117-.274-6.178-.37-.023 0-.047 0-.07-.002-.408-.028-.408-.028-.658-.336-.1.14-.185.28-.286.408-.226.28-.493.477-.883.47-.637-.01-.93-.635-.757-1.105.026-.073.043-.15.068-.238-.666-.146-1.065-.667-1.525-1.102-.158-.15-.176-.443-.006-.614.234-.237.498-.457.782-.632.797-.492 1.63-.912 2.542-1.156.59-.16 1.19-.24 1.79-.083 1.114.29 2.227.582 3.333.9.928.265 1.844.57 2.766.856.626.195 1.247.412 1.882.574.57.146 1.153.233 1.73.34.564.107 1.127.213 1.692.305.108.016.246-.002.337-.058.874-.536 1.74-1.084 2.61-1.627 1.602-1.002 3.205-2.002 4.806-3.005 1.23-.77 2.456-1.545 3.687-2.313.79-.494 1.58-.99 2.384-1.465.465-.274.936-.137 1.38.08.504.245.515.348.083.69-2.112 1.667-4.227 3.33-6.34 4.995l-4.602 3.62c.06.033.098.07.143.08.847.183 1.69.39 2.546.534.592.1 1.2.115 1.802.167.586.05 1.126.248 1.657.492.202.093.44.12.663.164.188.037.38.065.572.075.2.01.272.122.273.298 0 .176.084.272.24.35.4.202.79.423 1.182.64.12.066.276.123.234.3-.045.188-.04.422-.272.5-.238.08-.485.135-.777.215l3.175 2.417c-.07.024-.104.048-.138.046-.68-.053-1.36-.1-2.038-.168-.42-.042-.68-.376-.985-.615-.485-.38-.952-.78-1.465-1.203-.014.126-.028.212-.033.3-.037.712-.083 1.425-.104 2.138-.006.222-.09.273-.28.235-.423-.085-.848-.166-1.27-.263-.162-.037-.264-.04-.35.142-.37.788-.76 1.568-1.142 2.35-.132.27-.263.54-.406.804-.028.052-.117.112-.167.104-.737-.133-1.473-.276-2.25-.426l3.036-6c-.086-.035-.144-.068-.207-.082-1.11-.243-2.222-.48-3.333-.724-.936-.204-1.873-.408-2.806-.624-.363-.083-.687-.016-1.024.132-1.313.577-2.632 1.144-3.955 1.7-1.244.523-2.49 1.043-3.747 1.535-1.092.428-2.202.808-3.3 1.22-.566.214-1.075 0-1.59-.174-.143-.048-.13-.24.03-.347.185-.125.383-.23.576-.345 1.786-1.052 3.58-2.093 5.356-3.16.713-.43 1.39-.917 2.08-1.382.077-.05.132-.133.242-.248" fill="#fff"/></g></g></g></svg><svg width="47.5" height="47.5" viewBox="0 0 47.5 47.5" id="emoji-refugee-13_baby" y="142.5"><title>baby</title><desc>Created with Sketch.</desc><g fill="none" fill-rule="evenodd"><g transform="translate(-1367 -132)"><g transform="translate(1367 132)"><path d="M46.327 23.82c0 12.544-10.128 22.716-22.62 22.716-12.494 0-22.623-10.172-22.623-22.717 0-12.546 10.13-22.715 22.622-22.715 12.493 0 22.62 10.17 22.62 22.714" fill="#93D1D2"/><path d="M46.327 23.82h-1.05c0 5.985-2.413 11.392-6.32 15.317-3.905 3.92-9.292 6.342-15.25 6.344-5.962 0-11.347-2.423-15.255-6.343-3.904-3.925-6.316-9.332-6.318-15.318.002-5.984 2.414-11.394 6.318-15.316C12.36 4.582 17.745 2.16 23.706 2.16c5.96 0 11.346 2.422 15.252 6.344 3.906 3.922 6.318 9.332 6.318 15.315h2.1C47.377 10.69 36.78.05 23.707.05 10.63.05.036 10.692.033 23.82.035 36.95 10.63 47.59 23.706 47.59c13.073 0 23.67-10.64 23.67-23.77h-1.05" fill="#1A1918"/><path d="M39.198 20.35l-.498.043-.862.13-.254-.84c-1.616-5.322-6.324-9.206-11.827-9.99-1.362-.05-2.776.05-4.06.5-1.19.42-3.105 1.942-1.617 3.284 1.18 1.06 3.406 1.418 4.914.98.81-.23 1.874-.96.717-1.6-.842-.466-1.642-.44-2.523-.09-1.214.484-1.735-1.48-.538-1.957 1.48-.59 3.288-.44 4.534.623.89.757 1.544 2.158.81 3.266-1.634 2.457-5.504 2.31-7.895 1.178-1.92-.907-3.073-3.232-2.224-5.116-3.797 1.656-6.818 4.87-8.05 8.922l-.254.838-.86-.13-.5-.04c-1.865 0-3.384 1.522-3.384 3.396 0 1.873 1.52 3.4 3.385 3.4.145 0 .304-.014.5-.044l.86-.126.253.835c1.816 5.975 7.522 10.146 13.878 10.146 6.358 0 12.065-4.172 13.88-10.147l.252-.835.86.126c.197.03.357.043.502.043 1.865 0 3.385-1.526 3.385-3.4 0-1.873-1.517-3.396-3.385-3.396zM17.25 23.82c-.946 0-1.713-.77-1.713-1.718 0-.95.767-1.717 1.713-1.717.943 0 1.71.768 1.71 1.717 0 .95-.767 1.717-1.71 1.717zm6.286 6.75c-1.305 0-1.305-2.03 0-2.03s1.305 2.03 0 2.03zm7.03-6.75c-.943 0-1.71-.77-1.71-1.718 0-.95.767-1.717 1.71-1.717.946 0 1.713.768 1.713 1.717 0 .95-.768 1.717-1.714 1.717z" fill="#fff"/></g></g></g></svg><svg width="47.5" height="47.5" viewBox="0 0 47.5 47.5" id="emoji-refugee-14_babyClothes" x="47.5" y="142.5"><title>babyClothes</title><desc>Created with Sketch.</desc><g fill="none" fill-rule="evenodd"><g transform="translate(-771 -726)"><g transform="translate(771 726)"><g><path d="M23.768 46.48c-12.493 0-22.62-10.133-22.62-22.63 0-12.5 10.127-22.634 22.62-22.634s22.62 10.134 22.62 22.633c0 12.497-10.127 22.63-22.62 22.63z" fill="#8387BD"/><path d="M46.388 23.85h-1.05c0 5.96-2.412 11.35-6.318 15.257-3.906 3.908-9.29 6.32-15.252 6.32-5.96 0-11.346-2.412-15.252-6.32C4.61 35.2 2.198 29.81 2.198 23.85c0-5.965 2.412-11.352 6.318-15.262 3.906-3.906 9.29-6.32 15.252-6.32 5.96 0 11.346 2.414 15.252 6.32 3.906 3.91 6.318 9.297 6.318 15.26h2.1C47.44 10.77 36.842.17 23.77.166 10.695.167.098 10.768.098 23.85c0 13.077 10.597 23.68 23.67 23.68 13.073 0 23.67-10.603 23.67-23.68h-1.05" fill="#1A1918"/></g><path d="M16.63 18.576c-.38.38-.6.424-1.03.102-.803-.602-1.605-1.205-2.406-1.81-.09-.068-.17-.147-.3-.262.58-.547 1.127-1.084 1.695-1.597 1.21-1.093 2.452-2.15 3.897-2.927.456-.245.96-.407 1.45-.578.26-.09.442 0 .568.293.447 1.04 1.11 1.9 2.134 2.45.885.475 1.735.434 2.45-.267.606-.596 1.12-1.286 1.666-1.944.136-.164.23-.363.365-.578 3.09 1.08 5.372 3.187 7.487 5.633l-3.19 2.02-2.678-1.832-.102.082c.107.787.217 1.573.32 2.36.434 3.317.757 6.644.837 9.992.006.248-.09.358-.274.517-.387.336-.828.696-1.03 1.144-.448 1.002-.792 2.054-1.12 3.105-.12.385-.285.68-.612.903-.9.614-1.918.804-2.98.834-1.41.04-2.783-.205-4.125-.608-.464-.14-.77-.466-.84-.997-.166-1.293-.49-2.54-1.19-3.66-.063-.1-.114-.218-.202-.285-.585-.443-.59-1.04-.54-1.703.27-3.522.45-7.053 1.045-10.543.063-.37.156-.736.236-1.104l-.077-.084c-.487.446-.99.876-1.454 1.342z" fill="#fff"/></g></g></g></svg><svg width="47.5" height="47.5" viewBox="0 0 47.5 47.5" id="emoji-refugee-15_shower" x="95" y="142.5"><title>shower</title><desc>Created with Sketch.</desc><g fill="none" fill-rule="evenodd"><g><path d="M23.776 46.31c-12.493 0-22.622-10.133-22.622-22.63 0-12.498 10.13-22.63 22.622-22.63 12.493 0 22.62 10.132 22.62 22.63 0 12.497-10.127 22.63-22.62 22.63z" fill="#38A0CE"/><path d="M46.396 23.68h-1.05c0 5.962-2.412 11.35-6.318 15.26-3.906 3.904-9.293 6.317-15.252 6.32-5.96-.003-11.346-2.416-15.254-6.32-3.904-3.91-6.316-9.298-6.318-15.26.002-5.96 2.414-11.35 6.318-15.258 3.908-3.907 9.293-6.32 15.254-6.32 5.96 0 11.346 2.413 15.252 6.32 3.906 3.907 6.318 9.297 6.318 15.257h2.1C47.447 10.6 36.85 0 23.777 0 10.7 0 .106 10.602.103 23.68.105 36.76 10.7 47.36 23.776 47.36c13.073 0 23.67-10.6 23.67-23.68h-1.05" fill="#1A1918"/><g transform="translate(12.825 11.674)" fill="#fff"><path d="M8.322 7.67c-.43-.228-.78-.15-.962.2-.158.3-.026.675.294.83.363.174.675-.004.908-.528.21.143.457.227.665.062.173-.136.285-.35.435-.545.493.192.724.073.953-.543.574.136.822-.02.936-.59.494.17.826.056.95-.326.11-.34-.064-.674-.405-.776-.397-.118-.674.092-.807.613-.605-.177-.836-.053-.983.472-.24.032-.485.003-.65.106-.165.102-.25.335-.378.522-.49-.193-.786-.055-.955.502zm1.474 10.106c-.318-.007-.618.28-.627.603-.01.32.27.62.592.634.327.014.64-.283.643-.613.004-.316-.29-.617-.61-.624zm3.988 1.312c-.004-.32-.297-.6-.63-.6-.316.002-.603.295-.608.624-.004.32.313.62.645.613.316-.007.597-.31.594-.637zm1.382-3.52c-.322-.004-.6.28-.607.618-.01.328.29.616.637.612.32-.003.595-.296.595-.63 0-.32-.288-.597-.626-.6zm-2.03-5.67c.334-.004.594-.28.59-.624 0-.338-.268-.59-.62-.592-.346 0-.614.28-.603.635.01.334.284.586.634.58zM15.98 17.1c-.32 0-.596.286-.6.624-.004.33.3.615.643.607.32-.007.59-.3.587-.637-.003-.323-.29-.592-.63-.592zm-4.606-3.508c-.32 0-.604.288-.61.62-.005.322.305.623.64.618.31-.005.598-.31.597-.636 0-.316-.296-.6-.626-.602zm10.458.29c.006-.34-.253-.61-.6-.62-.34-.01-.61.247-.62.593-.014.352.252.626.608.63.34.004.606-.26.612-.604zm-4.678-.68c0-.336-.267-.597-.614-.6-.336-.005-.597.26-.6.61-.006.35.267.617.624.613.335-.003.59-.273.59-.624zm-5.818-.608c.003-.32-.283-.602-.617-.61-.327-.006-.622.3-.618.637.004.318.3.596.632.595.32 0 .6-.286.602-.62zm4.068-1.315c-.335.002-.594.274-.593.62 0 .344.283.604.644.595.334-.01.59-.286.58-.633-.007-.335-.28-.587-.63-.583zm-2.762-3.362c0-.337-.263-.6-.61-.604-.343-.005-.61.274-.606.634.003.333.277.593.623.592.336-.002.59-.27.592-.622zm5.516 7.942c-.017.338.234.61.583.63.35.02.627-.24.64-.597.014-.333-.25-.607-.595-.62-.34-.013-.61.24-.627.587zm-8.116 3.637c-.32 0-.616.294-.62.613-.004.313.293.618.61.625.326.008.634-.3.63-.628-.005-.323-.297-.61-.62-.61zm9.147-7.884c0-.342-.26-.603-.608-.607-.342-.004-.606.255-.613.6-.008.354.262.624.62.62.343-.003.598-.263.6-.613zm1.342 1.107c.004-.342-.254-.604-.602-.612-.34-.007-.607.25-.618.597-.01.352.257.623.615.623.345 0 .6-.257.605-.608zm-11.754-.053c-.326.003-.612.288-.614.612 0 .322.285.61.61.614.335.004.636-.294.63-.624-.008-.322-.3-.605-.626-.603zm4.453-6.11c-.344.004-.598.265-.597.615 0 .353.275.615.633.604.344-.01.59-.275.584-.627-.007-.348-.267-.598-.62-.593zm4.004 4.546c.352.01.61-.23.627-.582.017-.35-.248-.625-.605-.63-.348-.004-.607.248-.615.598-.01.347.24.606.594.615zm-5.59-.29c.33.003.597-.27.604-.613.006-.328-.266-.6-.61-.608-.338-.01-.617.274-.618.625 0 .325.28.593.624.596zm-3.11 4.17c.003.323.294.615.614.617.32.002.613-.29.617-.612.004-.335-.292-.632-.625-.626-.323.006-.607.297-.605.622zm-.327-4.51c.32-.004.616-.3.618-.616 0-.326-.313-.632-.638-.622-.322.01-.606.308-.6.63.004.323.297.61.62.607zm7.065-1.053c-.006.348.242.608.592.617.35.01.61-.235.62-.586.013-.365-.234-.622-.6-.626-.353-.004-.606.243-.612.596zm-5.703.526c.318-.006.597-.302.595-.632-.003-.314-.303-.6-.63-.603-.324 0-.613.31-.604.65.01.32.307.592.64.586zm-.115 7.36c.323 0 .617-.287.623-.608.006-.318-.283-.616-.606-.623-.334-.008-.635.286-.633.618 0 .323.29.61.615.612zm4.822-6.095c.337-.006.588-.276.584-.628-.002-.335-.272-.593-.62-.59-.345 0-.61.283-.598.64.01.334.286.585.635.58zm-3.45-1.934c.33.004.6-.266.606-.61.007-.338-.276-.61-.63-.61-.33.002-.594.28-.595.624 0 .328.275.593.62.596zm3.71-.34c.348 0 .6-.25.607-.604.005-.35-.24-.604-.596-.61-.36-.008-.62.25-.62.61 0 .347.258.6.61.603zm.37 5.73c-.004-.327-.285-.594-.626-.594-.336 0-.604.29-.596.644.007.323.298.59.636.584.325-.006.588-.29.586-.635zm3.388-.155c0-.335-.267-.59-.62-.592-.34-.002-.595.257-.6.61-.004.347.27.61.63.606.336-.005.592-.274.59-.623zm-9.222-2.945c-.005-.32-.303-.613-.62-.61-.32.002-.617.3-.62.617 0 .326.31.63.637.62.32-.008.61-.308.603-.627zm1.64-.6c-.002-.322-.29-.598-.625-.6-.33 0-.617.302-.608.64.008.32.306.592.64.588.32-.004.594-.295.593-.63zm1.888 4.86c0-.32-.287-.6-.62-.603-.322-.003-.6.28-.607.616-.005.33.292.62.632.618.316-.003.596-.3.596-.63zm-.08-3.516c.333.003.598-.263.605-.61.007-.34-.272-.613-.627-.612-.327 0-.592.28-.594.623-.002.33.27.595.616.6zm.703 5.13c-.004-.324-.29-.594-.628-.593-.332 0-.61.298-.6.644.01.323.302.588.64.58.322-.005.592-.295.588-.63zm.82-4.273c.003-.33-.27-.596-.615-.6-.33-.006-.6.265-.608.61-.007.337.274.612.628.61.327 0 .593-.276.596-.62z"/><path d="M0 3.746c.04-.203.065-.41.12-.61C.593 1.462 1.745.47 3.394.11c1.69-.367 3.077.234 4.14 1.594.072.09.192.168.303.2 1.24.346 2.482.682 3.723 1.02.06.018.123.034.184.052.252.077.415.24.45.505.04.277-.08.484-.317.622-.636.37-1.274.736-1.91 1.103-1.4.808-2.796 1.62-4.2 2.42-.15.084-.35.145-.516.125-.375-.046-.565-.402-.457-.798.348-1.28.692-2.562 1.06-3.837.072-.256.032-.46-.16-.594-.237-.164-.502-.354-.773-.39-.444-.058-.914-.06-1.354.02-.95.17-1.43.763-1.49 1.73-.007.127-.005.255-.005.383 0 6.137-.006 12.274.01 18.41 0 .657-.195 1.116-.83 1.34H.863c-.446-.13-.727-.425-.864-.864V3.745"/><path d="M8.322 7.67c.17-.557.464-.695.955-.502.128-.187.213-.42.378-.522.165-.103.41-.074.65-.107.147-.526.378-.65.983-.473.133-.52.41-.73.807-.613.34.102.515.436.404.777-.124.383-.456.497-.95.326-.113.57-.36.727-.935.59-.23.617-.46.736-.953.543-.15.194-.262.408-.435.544-.208.165-.454.08-.665-.062-.233.524-.545.702-.908.527-.32-.155-.452-.53-.294-.83.183-.35.533-.428.962-.2"/><path d="M9.796 17.776c.32.007.613.308.61.625-.005.33-.317.628-.644.614C9.44 19 9.16 18.7 9.17 18.38c.008-.323.308-.61.626-.604"/><path d="M13.784 19.088c.003.328-.278.63-.593.637-.33.008-.648-.294-.644-.613.005-.33.292-.622.61-.623.33 0 .624.28.628.598"/><path d="M15.166 15.568c.338.003.627.28.626.6 0 .334-.276.627-.595.63-.346.004-.646-.284-.638-.612.007-.34.284-.622.606-.618"/><path d="M13.137 9.898c-.35.005-.624-.247-.634-.58-.01-.356.257-.637.602-.636.353 0 .62.254.622.592.003.345-.257.62-.59.624"/><path d="M15.98 17.1c.34 0 .627.27.63.593.004.337-.266.63-.587.638-.344.01-.647-.277-.643-.606.004-.338.28-.624.6-.623"/><path d="M11.374 13.592c.33.002.626.286.627.602.002.325-.285.63-.597.636-.334.005-.644-.296-.638-.62.005-.33.29-.62.61-.618"/><path d="M21.832 13.88c-.006.346-.272.61-.612.605-.356-.004-.622-.278-.61-.63.013-.346.283-.602.623-.592.346.01.605.278.6.618"/><path d="M17.154 13.2c0 .352-.255.622-.59.625-.357.004-.63-.263-.625-.612.003-.35.264-.616.6-.612.347.005.615.266.614.6"/><path d="M11.336 12.594c-.003.335-.28.62-.602.62-.333.002-.628-.276-.632-.593-.004-.337.29-.642.617-.635.333.007.62.29.616.61"/><path d="M15.404 11.28c.35-.005.623.247.63.582.01.347-.246.624-.58.633-.36.01-.643-.25-.643-.595 0-.346.26-.618.594-.62"/><path d="M12.642 7.918c-.002.353-.256.62-.593.622-.347 0-.62-.26-.624-.592-.004-.36.263-.64.606-.634.347.005.61.267.61.604"/><path d="M18.158 15.86c.018-.347.288-.6.627-.587.346.013.61.287.596.62-.013.358-.29.617-.64.597-.348-.02-.6-.292-.582-.63"/><path d="M10.042 19.497c.323 0 .615.287.62.61.004.33-.304.636-.63.628-.317-.007-.614-.312-.61-.625.004-.32.3-.612.62-.613"/><path d="M19.19 11.613c-.002.35-.257.61-.6.614-.358.003-.628-.267-.62-.62.006-.346.27-.605.612-.6.348.003.61.264.607.606"/><path d="M20.532 12.72c-.004.35-.26.61-.605.608-.358 0-.625-.27-.615-.623.01-.347.277-.604.618-.597.348.008.606.27.602.612"/><path d="M8.778 12.667c.325-.002.618.28.625.603.007.33-.294.628-.628.624-.326-.004-.612-.292-.61-.615 0-.325.287-.61.613-.613"/><path d="M13.23 6.557c.353-.005.613.245.62.592.006.35-.24.617-.584.626-.358.01-.632-.25-.633-.604 0-.35.253-.61.598-.615"/><path d="M17.234 11.103c-.353-.01-.603-.268-.594-.615.008-.35.267-.602.615-.597.357.005.622.28.606.63-.015.352-.274.593-.626.583"/><path d="M11.644 10.813c-.344-.003-.624-.27-.624-.596 0-.35.28-.634.618-.625.344.008.616.28.61.608-.007.343-.275.616-.604.613"/><path d="M8.535 14.984c-.002-.325.282-.616.605-.622.333-.006.63.29.625.626-.004.323-.297.614-.617.612-.32-.002-.61-.294-.613-.616"/><path d="M8.207 10.472c-.323.002-.616-.284-.62-.608-.006-.32.278-.62.6-.63.325-.01.64.297.638.623-.002.317-.298.612-.618.615"/><path d="M15.272 9.42c.006-.353.26-.6.61-.596.368.004.615.26.603.627-.012.352-.27.597-.62.587-.35-.01-.6-.27-.593-.617"/><path d="M9.57 9.946c-.333.006-.63-.267-.64-.586-.008-.34.28-.65.605-.65.327.003.627.29.63.604.002.33-.277.626-.596.632"/><path d="M9.455 17.305c-.325-.002-.614-.29-.616-.612-.003-.332.298-.626.632-.618.323.007.612.305.606.623-.006.32-.3.608-.623.607"/><path d="M14.277 11.21c-.35.007-.625-.244-.635-.578-.01-.357.253-.64.598-.64.348-.003.618.255.62.59.005.352-.246.622-.583.63"/><path d="M10.828 9.276c-.345-.003-.62-.268-.62-.596 0-.343.266-.622.594-.624.355 0 .638.272.63.61-.006.344-.274.614-.604.61"/><path d="M14.537 8.935c-.35-.002-.608-.256-.61-.602 0-.362.26-.62.62-.612.356.008.602.26.597.612-.006.353-.26.605-.607.603"/><path d="M14.906 14.665c.002.344-.26.63-.586.635-.338.006-.63-.26-.636-.584-.008-.354.26-.644.597-.644.342 0 .623.267.626.593"/><path d="M18.295 14.51c.002.35-.254.62-.59.624-.36.005-.634-.26-.63-.606.005-.353.26-.612.6-.61.353 0 .62.257.62.593"/><path d="M9.073 11.565c.006.32-.282.62-.603.628-.326.01-.638-.295-.636-.62.002-.32.3-.616.618-.618.318-.003.616.29.62.61"/><path d="M10.713 10.964c0 .334-.273.625-.594.63-.334.003-.632-.27-.64-.588-.01-.34.278-.642.608-.64.335 0 .623.277.625.598"/><path d="M12.6 15.825c0 .332-.28.628-.595.63-.34.004-.637-.286-.632-.617.006-.336.285-.62.607-.616.333.003.62.283.62.603"/><path d="M12.52 12.31c-.345-.005-.618-.27-.616-.6.002-.343.267-.62.594-.622.355 0 .634.272.627.612-.007.347-.272.613-.605.61"/><path d="M13.223 17.44c.004.335-.266.625-.588.63-.338.008-.63-.257-.64-.58-.01-.345.268-.643.6-.643.338 0 .624.27.628.592"/><path d="M14.044 13.167c-.003.344-.27.62-.596.62-.354.002-.635-.273-.628-.61.008-.345.278-.616.608-.61.345.004.618.27.616.6"/></g></g></g></svg><svg width="47.5" height="47.5" viewBox="0 0 47.5 47.5" id="emoji-refugee-16_book" x="142.5" y="142.5"><title>book</title><desc>Created with Sketch.</desc><g fill="none" fill-rule="evenodd"><g transform="translate(-474 -726)"><g transform="translate(474 726)"><g><path d="M23.768 46.48c-12.493 0-22.62-10.133-22.62-22.63 0-12.5 10.127-22.634 22.62-22.634s22.62 10.134 22.62 22.633c0 12.497-10.127 22.63-22.62 22.63z" id="apFill-1" fill="#D385D8"/><path d="M46.388 23.85h-1.05c0 5.96-2.412 11.35-6.318 15.257-3.906 3.908-9.29 6.32-15.252 6.32-5.96 0-11.346-2.412-15.252-6.32C4.61 35.2 2.198 29.81 2.198 23.85c0-5.965 2.412-11.352 6.318-15.262 3.906-3.906 9.29-6.32 15.252-6.32 5.96 0 11.346 2.414 15.252 6.32 3.906 3.91 6.318 9.297 6.318 15.26h2.1C47.44 10.77 36.842.17 23.77.166 10.695.167.098 10.768.098 23.85c0 13.077 10.597 23.68 23.67 23.68 13.073 0 23.67-10.603 23.67-23.68h-1.05" id="apFill-2" fill="#1A1918"/></g><g transform="translate(12.667 10.556)" fill="#fff"><path d="M8.446.048C7.49 4.648 4.98 7.63.273 8.6c.405.49.703.855 1.004 1.217 2.95 3.564 5.908 7.122 8.845 10.697.29.352.54.43.93.22 1.026-.552 2.1-1.03 3.082-1.65 2.07-1.307 3.533-3.148 4.53-5.37.207-.46.195-.788-.156-1.213-1.888-2.28-3.73-4.6-5.59-6.905L8.446.048zm1.637 24.96l.136-.033c0-1.22.01-2.44-.013-3.66-.003-.144-.165-.296-.273-.428C6.83 17.137 3.724 13.39.616 9.645c-.13-.156-.277-.298-.514-.55 0 1.11-.037 2.078.018 3.04.02.376.163.808.395 1.098 2.01 2.518 4.055 5.01 6.09 7.51 1.158 1.422 2.32 2.842 3.478 4.264zm.595-22.844c.077.104.138.193.205.276 2.702 3.35 5.4 6.702 8.114 10.04.263.325.328.594.183.993-.52 1.423-1.344 2.65-2.322 3.79-1.563 1.824-3.6 2.942-5.765 3.872-.327.14-.612.252-.37.713 4.713-1.47 8.296-4.407 11.155-8.333L11.292 1.417l-.614.747zM21.83 19.368c-.1.013-.148.005-.18.024-3.178 1.903-6.68 3.03-10.174 4.16-.685.22-.974.512-.85 1.2l.064.397c.22-.073.404-.127.584-.192 3.03-1.085 6.058-2.17 9.087-3.258 1.58-.567 1.578-.57 1.47-2.332zm-.842-4.15c-.645.676-1.24 1.333-1.87 1.955-1.607 1.59-3.334 3.022-5.442 3.92-.874.372-1.766.702-2.642 1.068-.16.068-.29.212-.432.32.038.05.076.1.115.148 4.34-1.165 8.36-2.944 11.74-6.076l-1.47-1.335zM10.66 23.23c4.013-.904 7.794-2.343 11.258-4.692l-.52-.576c-3.222 2.616-6.937 4.027-10.738 5.268z"/><path d="M8.446.048l4.472 5.547c1.86 2.306 3.702 4.624 5.59 6.906.35.426.363.753.156 1.213-.997 2.223-2.46 4.064-4.53 5.37-.982.62-2.056 1.1-3.082 1.652-.39.21-.64.13-.93-.22-2.937-3.576-5.894-7.134-8.845-10.698-.3-.362-.6-.726-1.004-1.217C4.98 7.63 7.49 4.648 8.446.048"/><path d="M10.083 25.007c-1.16-1.422-2.32-2.842-3.478-4.265-2.035-2.5-4.08-4.99-6.09-7.51-.232-.29-.374-.72-.395-1.096-.055-.963-.018-1.93-.018-3.042.237.253.384.395.514.55 3.107 3.747 6.214 7.494 9.318 11.243.108.132.27.284.273.43.022 1.218.012 2.44.012 3.658l-.137.032"/><path d="M10.678 2.164c.218-.265.396-.48.614-.747 3.518 4.02 7.028 8.03 10.586 12.098-2.86 3.926-6.442 6.863-11.155 8.333-.242-.46.043-.572.37-.713 2.165-.93 4.202-2.048 5.765-3.872.978-1.14 1.803-2.367 2.322-3.79.145-.4.08-.668-.183-.992-2.715-3.338-5.412-6.69-8.114-10.04-.067-.083-.128-.172-.205-.276"/><path d="M21.83 19.368c.108 1.763.11 1.765-1.47 2.332-3.028 1.087-6.057 2.173-9.086 3.258-.18.065-.364.12-.584.19-.025-.154-.043-.275-.065-.395-.123-.69.166-.98.85-1.202 3.495-1.13 6.997-2.255 10.175-4.158.032-.02.08-.01.18-.024"/><path d="M20.988 15.217l1.468 1.335c-3.38 3.132-7.398 4.91-11.74 6.076l-.114-.147c.143-.108.27-.252.432-.32.876-.365 1.768-.695 2.642-1.067 2.108-.898 3.835-2.33 5.442-3.92.63-.622 1.225-1.28 1.87-1.956"/><path d="M10.66 23.232c3.8-1.24 7.516-2.652 10.74-5.268.173.194.324.362.518.576-3.464 2.35-7.245 3.788-11.258 4.692"/></g></g></g></g></svg><svg width="47.5" height="47.5" viewBox="0 0 47.5 47.5" id="emoji-refugee-17_train" x="190"><title>train</title><desc>Created with Sketch.</desc><g fill="none" fill-rule="evenodd"><g transform="translate(-481 -1038)"><g transform="translate(481 1038)"><g id="aqtrain"><path d="M23.768 46.48c-12.493 0-22.62-10.133-22.62-22.63 0-12.5 10.127-22.634 22.62-22.634s22.62 10.134 22.62 22.633c0 12.497-10.127 22.63-22.62 22.63z" fill="#B76F2F"/><path d="M46.388 23.85h-1.05c0 5.96-2.412 11.35-6.318 15.257-3.906 3.908-9.29 6.32-15.252 6.32-5.96 0-11.346-2.412-15.252-6.32C4.61 35.2 2.198 29.81 2.198 23.85c0-5.965 2.412-11.352 6.318-15.262 3.906-3.906 9.29-6.32 15.252-6.32 5.96 0 11.346 2.414 15.252 6.32 3.906 3.91 6.318 9.297 6.318 15.26h2.1C47.44 10.77 36.842.17 23.77.166 10.695.167.098 10.768.098 23.85c0 13.077 10.597 23.68 23.67 23.68 13.073 0 23.67-10.603 23.67-23.68h-1.05" fill="#1A1918"/></g><g transform="translate(14.778 11.788)" fill="#fff"><path d="M14.04 18.087c.777-.122 1.424-.48 1.938-1.073.514-.59.774-1.29.774-2.1V3.168c0-.87-.312-1.614-.934-2.236C15.19.312 14.426 0 13.524 0H4.596C3.69 0 2.93.31 2.308.932c-.623.622-.935 1.365-.935 2.236v11.75c0 .81.264 1.517.798 2.124.53.608 1.166.956 1.917 1.05L.02 24.104h2.288l.39-.58h12.728l.387.58H18.1l-4.06-6.017zm.414-1.958c-.28.277-.637.418-1.07.418-.407 0-.752-.14-1.03-.42-.278-.282-.42-.635-.42-1.072 0-.405.142-.754.42-1.05.278-.297.623-.443 1.03-.443.433 0 .796.15 1.07.443.278.296.42.645.42 1.05.005.437-.137.795-.42 1.073zM3.336 3.464c0-.433.142-.79.42-1.073.28-.278.637-.42 1.07-.42h8.462c.44 0 .802.142 1.1.42.297.282.448.64.448 1.073v3.76c0 .44-.146.797-.448 1.075-.298.278-.66.42-1.1.42h-8.46c-.44 0-.798-.138-1.072-.42-.278-.278-.42-.636-.42-1.074v-3.76zm.326 12.664c-.283-.284-.42-.637-.42-1.074 0-.405.137-.754.42-1.05.283-.297.637-.443 1.076-.443.4 0 .745.15 1.028.443.28.296.42.645.42 1.05 0 .437-.14.79-.42 1.073-.283.277-.627.418-1.028.418-.44.005-.793-.137-1.076-.42zm.344 5.45L5.068 20h7.99l1.06 1.58H4.007z"/></g></g></g></g></svg><svg width="47.5" height="47.5" viewBox="0 0 47.5 47.5" id="emoji-refugee-18_boat" x="190" y="47.5"><title>boat</title><desc>Created with Sketch.</desc><g fill="none" fill-rule="evenodd"><g transform="translate(-474 -418)"><g transform="translate(474 418)"><path d="M23.798 46.623C11.11 46.623.825 36.258.825 23.473.825 10.684 11.11.317 23.798.317s22.97 10.367 22.97 23.154c0 12.786-10.283 23.15-22.97 23.15L20.083 7.918" fill="#45A8A8"/><path d="M46.3 23.854h-1.043c-.002 6-2.41 11.425-6.313 15.358-3.902 3.933-9.283 6.36-15.238 6.36-5.952 0-11.333-2.427-15.238-6.36-3.9-3.933-6.31-9.357-6.31-15.358 0-6 2.41-11.422 6.31-15.357 3.905-3.93 9.286-6.36 15.238-6.36 5.955 0 11.336 2.43 15.238 6.36 3.902 3.935 6.31 9.356 6.313 15.357h2.086C47.34 10.698 36.76.034 23.706.034S.072 10.698.072 23.854c0 13.157 10.58 23.82 23.634 23.82S47.34 37.01 47.343 23.854H46.3" fill="#1A1918"/><path d="M35.46 25.2c0 6.49-5.222 11.754-11.662 11.754S12.135 31.69 12.135 25.2" fill="#fff"/><path d="M18.65 7.883l.866.52c.36.218.653.736.65 1.154l-.075 17.183h-1.44V7.883z" fill="#fff"/><path d="M18.65 15.117V7.883l12.435 7.234-12.436 7.24v-7.24" fill="#fff"/></g></g></g></svg><svg width="47.5" height="47.5" viewBox="0 0 47.5 47.5" id="emoji-refugee-19_van" x="190" y="95"><title>van</title><desc>Created with Sketch.</desc><g fill="none" fill-rule="evenodd"><g transform="translate(-181 -1038)"><g transform="translate(181 1038)"><path d="M23.768 46.48c-12.493 0-22.62-10.133-22.62-22.63 0-12.5 10.127-22.634 22.62-22.634s22.62 10.134 22.62 22.633c0 12.497-10.127 22.63-22.62 22.63z" id="asFill-1" fill="#8387BD"/><path d="M46.388 23.85h-1.05c0 5.96-2.412 11.35-6.318 15.257-3.906 3.908-9.29 6.32-15.252 6.32-5.96 0-11.346-2.412-15.252-6.32C4.61 35.2 2.198 29.81 2.198 23.85c0-5.965 2.412-11.352 6.318-15.262 3.906-3.906 9.29-6.32 15.252-6.32 5.96 0 11.346 2.414 15.252 6.32 3.906 3.91 6.318 9.297 6.318 15.26h2.1C47.44 10.77 36.842.17 23.77.166 10.695.167.098 10.768.098 23.85c0 13.077 10.597 23.68 23.67 23.68 13.073 0 23.67-10.603 23.67-23.68h-1.05" fill="#1A1918"/><g transform="translate(10.204 14.427)" fill="#FFFFFE"><path d="M.092 15.018V2.115C.778.45 2.075-.015 3.784.01 8.35.07 12.92.023 17.487.033c1.455.003 2.91.02 4.364.08 1.294.055 2.308.64 2.81 1.87.665 1.64 1.228 3.322 1.894 4.96.42 1.036.57 2.084.533 3.19-.042 1.27-.01 2.54-.01 3.808 0 1.125-.308 1.482-1.404 1.743-.494.118-.688.006-.826-.518-.708-2.674-4.056-3.572-5.966-1.578-.543.567-.868 1.346-1.343 2.11h-8.09c-.54-2.225-2.024-3.194-3.567-3.178-2.045.02-3.267 1.213-3.723 3.187-.805.036-1.603.176-2.065-.692zM13.6 8.383c.614 0 1.228.018 1.842-.004.782-.03 1.208-.44 1.222-1.22.024-1.248.024-2.498 0-3.747-.014-.78-.44-1.2-1.225-1.214-1.228-.024-2.456-.023-3.684-.003-.81.013-1.236.435-1.25 1.245-.02 1.23-.022 2.463 0 3.695.014.81.44 1.22 1.253 1.244.612.02 1.226.004 1.84.003zM8.345 5.32c0-.652.007-1.303-.002-1.954-.008-.668-.39-1.13-1.045-1.145-1.35-.03-2.7-.027-4.048.004-.6.014-1.04.503-1.046 1.107-.015 1.303-.015 2.605 0 3.906.006.607.44 1.1 1.038 1.116 1.348.032 2.7.035 4.047.004.66-.015 1.043-.472 1.053-1.138.01-.633.002-1.266.002-1.9zm10.482-.06c0 .617-.003 1.233 0 1.85.004.81.402 1.252 1.21 1.267 1.228.022 2.457.026 3.685 0 1.02-.023 1.437-.646 1.106-1.618-.4-1.177-.804-2.352-1.238-3.516-.225-.604-.68-.992-1.342-1.02-.787-.03-1.578-.04-2.366-.005-.66.028-1.044.472-1.053 1.14-.01.633-.003 1.267-.003 1.9z"/><ellipse cx="5.745" cy="16.129" rx="2.688" ry="2.697"/><ellipse cx="21.453" cy="16.129" rx="2.688" ry="2.697"/></g></g></g></g></svg><svg width="47.5" height="47.5" viewBox="0 0 47.5 47.5" id="emoji-refugee-20_tools" x="190" y="142.5"><title>tools</title><desc>Created with Sketch.</desc><g fill="none" fill-rule="evenodd"><g transform="translate(-177 -726)"><g transform="translate(177 726)"><path d="M23.768 46.48c-12.493 0-22.62-10.133-22.62-22.63 0-12.5 10.127-22.634 22.62-22.634s22.62 10.134 22.62 22.633c0 12.497-10.127 22.63-22.62 22.63z" id="atFill-1" fill="#E6A233"/><path d="M46.388 23.85h-1.05c0 5.96-2.412 11.35-6.318 15.257-3.906 3.908-9.29 6.32-15.252 6.32-5.96 0-11.346-2.412-15.252-6.32C4.61 35.2 2.198 29.81 2.198 23.85c0-5.965 2.412-11.352 6.318-15.262 3.906-3.906 9.29-6.32 15.252-6.32 5.96 0 11.346 2.414 15.252 6.32 3.906 3.91 6.318 9.297 6.318 15.26h2.1C47.44 10.77 36.842.17 23.77.166 10.695.167.098 10.768.098 23.85c0 13.077 10.597 23.68 23.67 23.68 13.073 0 23.67-10.603 23.67-23.68h-1.05" id="atFill-2" fill="#1A1918"/><g transform="translate(10.731 9.501)" fill="#fff"><path d="M9.706 2.036v4.322h2.637s-.208-2.162 4.096-2.162l-.347 7.046-.625.42-.348 16.176h4.444l-.523-16.223-.57-.34-.182-6.982s3.98.21 5.594 3.453c0 0-.78-8.29-10.982-4.996 0 0-.59-.103-.608-.774H9.706v.06"/><path d="M6.393 1.976l-4.06 16.152H1.97c-.417.653-.6 3.688-.6 3.688.782.73.39.94.39.94-.676.235-.105.812-.105.812l.08.757c-.182.29-.6.76-.6.76v1.62c0 .132.886.496.886.496l.21-1.252c.573.026 1.942 1.124 1.942 1.124.21.28 2.22.21 2.22.21l.557.556h.52V26.79c-1.217-1.46 0-2.508 0-2.508h1.075V1.976H6.393zm-.366 23.37s-1.352.837-2.965-.68c0 0-.548-1.23.39-1.204 0 0 .47 1.65 2.575 1.44v.444z"/></g></g></g></g></svg><svg width="47.5" height="47.5" viewBox="0 0 47.5 47.5" id="emoji-refugee-21_handicap" y="190"><title>handicap</title><desc>Created with Sketch.</desc><g fill="none" fill-rule="evenodd"><g><path d="M46.37 23.68c0 12.497-10.126 22.63-22.62 22.63-12.492 0-22.62-10.133-22.62-22.63 0-12.498 10.128-22.63 22.62-22.63 12.494 0 22.62 10.132 22.62 22.63l-22.884.334" fill="#4D89EF"/><path d="M46.37 23.68h-1.05c0 5.962-2.41 11.35-6.317 15.26-3.906 3.904-9.293 6.317-15.252 6.32-5.96-.003-11.345-2.416-15.253-6.32C4.593 35.03 2.18 29.64 2.18 23.68c0-5.96 2.413-11.35 6.317-15.258 3.908-3.907 9.293-6.32 15.254-6.32 5.96 0 11.347 2.413 15.253 6.32C42.91 12.33 45.32 17.72 45.32 23.68h2.102C47.422 10.6 36.824 0 23.752 0 10.675 0 .08 10.602.077 23.68.08 36.76 10.676 47.36 23.75 47.36c13.074 0 23.672-10.6 23.672-23.68h-1.05" fill="#1A1918"/><g transform="translate(15.13 12.245)" fill="#fff"><path d="M8.503 8.43h3.755c.085 0 .17-.003.255.005.375.035.634.335.62.712-.015.36-.296.636-.67.637-1.215.004-2.43.002-3.647.002H8.52v1.33h.31c1.594 0 3.19.01 4.785-.003.634-.004 1.092.245 1.413.8.905 1.567 1.823 3.126 2.736 4.69l.097.155c.424-.235.838-.475 1.26-.697.54-.28 1.14.018 1.236.62.055.346-.068.646-.37.82-.776.452-1.56.892-2.352 1.315-.417.223-.897.034-1.164-.422-.844-1.442-1.688-2.883-2.524-4.33-.09-.154-.182-.21-.362-.21-2.207.007-4.415-.02-6.622.017-.862.015-1.705-.686-1.706-1.6 0-2.078-.015-4.157.02-6.234.013-.872.79-1.508 1.682-1.483.84.024 1.534.735 1.544 1.59.007.678 0 1.355 0 2.032v.256"/><path d="M13.52 15.468l.19.317c.396.677.797 1.352 1.184 2.034.043.075.052.21.014.287-1.18 2.292-3.02 3.75-5.54 4.23-2.677.513-5.045-.21-7-2.117-1.575-1.535-2.375-3.446-2.34-5.656.047-3.013 1.413-5.286 3.97-6.842.066-.04.135-.07.23-.12.005.092.014.157.014.222 0 .717-.004 1.433.003 2.15.002.146-.045.24-.153.338-1.25 1.134-1.895 2.558-1.923 4.246-.047 2.82 2.083 5.303 4.863 5.7 2.975.425 5.715-1.452 6.403-4.385.028-.117.05-.236.085-.405"/><path d="M6.876 3.89c-1.056 0-1.91-.857-1.906-1.91C4.974.893 5.828.036 6.9.047 7.95.058 8.802.92 8.797 1.97 8.792 3.04 7.94 3.893 6.876 3.89"/></g></g></g></svg></svg>