<?xml version="1.0" encoding="UTF-8" standalone="no"?><svg width="333" height="285" viewBox="0 0 333 285" xmlns="http://www.w3.org/2000/svg" xmlns:xlink="http://www.w3.org/1999/xlink"><svg viewBox="0 0 47.5 47.5" enable-background="new 0 0 47.5 47.5" width="47.5" height="47.5" id="emoji-celebration-1f37a" x="47.5"><defs><clipPath id="aaa"><path d="M0 38h38V0H0v38z"/></clipPath><clipPath id="aab"><path d="M7 35c-1.104 0-2-.895-2-2V3c0-1.105.896-2 2-2h18c1.105 0 2 .895 2 2v30c0 1.105-.895 2-2 2H7z"/></clipPath><clipPath id="aac"><path d="M0 38h38V0H0v38z"/></clipPath></defs><g transform="matrix(1.25 0 0 -1.25 0 47.5)"><g><g clip-path="url(#aaa)"><g transform="translate(24 27)"><path d="M0 0v-16h6s2 0 2 2v12c0 2-2 2-2 2H0zm8-20H0c-2.205 0-4 1.794-4 4V0c0 2.206 1.795 4 4 4h8c2.206 0 4-1.794 4-4v-16c0-2.206-1.794-4-4-4" fill="#ffac33"/></g><g transform="translate(27 29)"><path d="M0 0c0 2.21-1.79 4-4 4h-14c-2.21 0-4-1.79-4-4v-24c0-2.21 1.79-4 4-4h14c2.21 0 4 1.79 4 4V0z" fill="#ffcc4d"/></g><g transform="translate(10 4)"><path d="M0 0c-.552 0-1 .447-1 1v16c0 .552.448 1 1 1s1-.448 1-1V1C1 .447.552 0 0 0" fill="#f4900c"/></g><g transform="translate(16 4)"><path d="M0 0c-.552 0-1 .447-1 1v16c0 .552.448 1 1 1s1-.448 1-1V1C1 .447.552 0 0 0" fill="#f4900c"/></g><g transform="translate(22 4)"><path d="M0 0c-.553 0-1 .447-1 1v16c0 .552.447 1 1 1 .553 0 1-.448 1-1V1C1 .447.553 0 0 0" fill="#f4900c"/></g></g></g><g><g clip-path="url(#aab)"><g transform="translate(26 31)"><path d="M0 0c-1.34 0-2.462-.885-2.847-2.097-.21.057-.425.097-.653.097-.587 0-1.12-.21-1.546-.55C-5.272-.554-6.946 1-9 1c-1.974 0-3.604-1.434-3.93-3.315-.31.197-.676.315-1.07.315-.5 0-.95-.19-1.3-.49C-15.895-1.03-17.325 0-19 0c-2.21 0-4 5-4-4 0-2.21 1.79-4 4-4 1.674 0 3.104 1.03 3.7 2.49.35-.3.8-.49 1.3-.49.677 0 1.273.338 1.635.853C-11.655-6.257-10.417-7-9-7c1.3 0 2.445.63 3.176 1.593C-5.46-6.337-4.56-7-3.5-7c.95 0 1.765.535 2.188 1.314C-.914-5.88-.472-6 0-6c1.657 0 3 1.343 3 3 0 5-1.343 3-3 3" fill="#ffac33"/></g></g></g><g><g clip-path="url(#aac)"><g transform="translate(29 33)"><path d="M0 0c0 2-2 4-4 4h-18c-2 0-4-2-4-4v-2c0-.096.015-.188.028-.28C-25.99-2.787-26-3.353-26-4c0-2.21 1.79-4 4-4 1.674 0 3.104 1.03 3.7 2.49.35-.3.8-.49 1.3-.49.677 0 1.273.338 1.635.853C-14.655-6.257-13.417-7-12-7c1.3 0 2.445.63 3.176 1.593C-8.46-6.337-7.56-7-6.5-7c.95 0 1.765.535 2.188 1.314C-3.914-5.88-3.472-6-3-6c1.657 0 3 1.343 3 3 0 .31-.005.59-.016.848.004.05.016.1.016.152v2z" fill="#e1e8ed"/></g></g></g></g></svg><svg viewBox="0 0 47.5 47.5" enable-background="new 0 0 47.5 47.5" width="47.5" height="47.5" id="emoji-celebration-1f37b" x="190" y="142.5"><defs><clipPath id="aba"><path d="M0 38h38V0H0v38z"/></clipPath><clipPath id="abb"><path d="M4.523 33C3.683 33 3 32.318 3 31.477V9c0-.84 1.16-2 2-2h13.478C19.318 7 20 7.682 20 8.522v22.955c0 .84-.682 1.523-1.522 1.523H4.523z"/></clipPath><clipPath id="abc"><path d="M0 38h38V0H0v38z"/></clipPath><clipPath id="abd"><path d="M15.522 27c-.84 0-1.522-.68-1.522-1.523V2.523C14 1.68 14.682 1 15.522 1h13.956C30.318 1 31 1.68 31 2.523v22.954C31 26.32 30.318 27 29.478 27H15.522z"/></clipPath><clipPath id="abe"><path d="M0 38h38V0H0v38z"/></clipPath></defs><g transform="matrix(1.25 0 0 -1.25 0 47.5)"><g><g clip-path="url(#aba)"><g transform="translate(20 8.523)"><path d="M0 0c0-.84-.682-1.522-1.522-1.522H-15c-1 0-2 .68-2 1.855v22.955c0 .508.682 1.19 1.522 1.19h13.956c.84 0 1.522-.682 1.522-1.523V0z" fill="#ffcc4d"/></g></g></g><g><g clip-path="url(#abb)"><g transform="translate(18.512 30.432)"><path d="M0 0c-1.02 0-1.875-.673-2.168-1.597-.158.044-.324.075-.497.075-.446 0-.853-.16-1.177-.418C-4.015-.422-5.288.762-6.852.762-8.356.762-9.6-.33-9.847-1.762c-.236.15-.513.24-.814.24-.38 0-.722-.145-.99-.374C-12.102-.786-13.19 0-14.465 0c-1.682 0-3.046 3.807-3.046-3.045 0-1.682 1.364-3.046 3.046-3.046 1.275 0 2.363.784 2.817 1.896.268-.23.61-.374.99-.374.515 0 .97.257 1.245.65.54-.847 1.483-1.412 2.562-1.412.99 0 1.863.48 2.418 1.213.278-.708.963-1.213 1.77-1.213.723 0 1.343.408 1.666 1 .304-.148.64-.238 1-.238 1.262 0 2.284 1.023 2.284 2.284C2.284 1.523 1.262 0 0 0" fill="#ffac33"/></g></g></g><g><g clip-path="url(#abc)"><g transform="translate(12 10)"><path d="M0 0c-.552 0-1 .447-1 1v11c0 .552.448 1 1 1s1-.448 1-1V1C1 .447.552 0 0 0" fill="#ffac33"/></g><g transform="translate(7 10)"><path d="M0 0c-.552 0-1 .447-1 1v11c0 .552.448 1 1 1s1-.448 1-1V1C1 .447.552 0 0 0" fill="#ffac33"/></g><g transform="translate(21 32)"><path d="M0 0c0 2-1 3-3 3h-14c-2 0-3-1-3-3v-1.568c0-.073.012-.143.02-.213-.012-.388-.02-.82-.02-1.31 0-1.683 1.364-3.046 3.045-3.046 1.275 0 2.364.785 2.818 1.896.266-.23.61-.374.99-.374.514 0 .968.258 1.244.65.54-.846 1.483-1.41 2.562-1.41.99 0 1.86.48 2.417 1.212.277-.71.963-1.213 1.77-1.213.722 0 1.342.407 1.666 1 .302-.148.638-.24 1-.24C-1.228-4.614 0-3.26 0-2c0 .235.01-.196 0 0 .004.04 0 .392 0 .432V0z" fill="#ccd6dd"/></g><g transform="translate(28 21)"><path d="M0 0v-12h4.557S6-11.796 6-10.273V-2c0 1 0 2-2 2H0zm9-11.955C9-13.637 7.637-15 5.954-15H.046C-1.637-15-3-13.637-3-11.955v11.91C-3 1.637-1.637 3 .046 3h5.908C7.637 3 9 1.637 9-.045v-11.91z" fill="#ffac33"/></g><g transform="translate(31 3)"><path d="M0 0c0-1-1-2-2-2h-13c-1 0-2 1-2 2v22.478c0 .84.682 1.522 1.522 1.522h13.956C-.682 24 0 23.318 0 22.478V0z" fill="#ffcc4d"/></g></g></g><g><g clip-path="url(#abd)"><g transform="translate(29.512 24.432)"><path d="M0 0c-1.02 0-1.875-.673-2.168-1.597-.158.044-.324.075-.497.075-.446 0-.853-.16-1.177-.418C-4.015-.422-5.288.762-6.852.762-8.356.762-9.6-.33-9.847-1.762c-.236.15-.513.24-.814.24-.38 0-.722-.145-.99-.374C-12.102-.786-13.19 0-14.465 0c-1.682 0-3.046 3.807-3.046-3.045 0-1.682 1.364-3.046 3.046-3.046 1.275 0 2.363.784 2.817 1.896.268-.23.61-.374.99-.374.515 0 .97.257 1.245.65.54-.847 1.483-1.412 2.562-1.412.99 0 1.863.48 2.418 1.213.278-.708.963-1.213 1.77-1.213.723 0 1.343.408 1.666 1 .304-.148.64-.238 1-.238 1.262 0 2.284 1.023 2.284 2.284C2.284 1.523 1.262 0 0 0" fill="#ffac33"/></g></g></g><g><g clip-path="url(#abe)"><g transform="translate(32 26)"><path d="M0 0c0 2-1 3-3 3h-14c-2 0-3-1-3-3v-1.568c0-.073.012-.143.02-.213-.012-.388-.02-.82-.02-1.31 0-1.683 1.364-3.046 3.045-3.046 1.275 0 2.364.785 2.818 1.896.266-.23.61-.374.99-.374.514 0 .968.258 1.244.65.54-.846 1.483-1.41 2.562-1.41.99 0 1.86.48 2.417 1.212.277-.71.963-1.213 1.77-1.213.722 0 1.342.407 1.666 1 .302-.148.638-.24 1-.24C-1.228-4.614 0-3.26 0-2c0 .235.01-.196 0 0 .004.04 0 .392 0 .432V0z" fill="#e1e8ed"/></g><g transform="translate(17 4)"><path d="M0 0c-.552 0-1 .447-1 1v11c0 .553.448 1 1 1s1-.447 1-1V1C1 .447.552 0 0 0" fill="#ffac33"/></g><g transform="translate(27 4)"><path d="M0 0c-.553 0-1 .447-1 1v11c0 .553.447 1 1 1 .553 0 1-.447 1-1V1C1 .447.553 0 0 0" fill="#ffac33"/></g><g transform="translate(22 4)"><path d="M0 0c-.553 0-1 .447-1 1v11c0 .553.447 1 1 1 .553 0 1-.447 1-1V1C1 .447.553 0 0 0" fill="#ffac33"/></g><g transform="translate(23 31)"><path d="M0 0c-.553 0-1 .448-1 1v3c0 .552.447 1 1 1 .553 0 1-.448 1-1V1C1 .448.553 0 0 0" fill="#f4900c"/></g><g transform="translate(26 30)"><path d="M0 0c-.256 0-.512.098-.707.293-.39.39-.39 1.023 0 1.414l4 4c.39.39 1.023.39 1.414 0 .39-.39.39-1.023 0-1.414l-4-4C.512.098.257 0 0 0" fill="#f4900c"/></g></g></g></g></svg><svg viewBox="0 0 47.5 47.5" enable-background="new 0 0 47.5 47.5" width="47.5" height="47.5" id="emoji-celebration-1f380" y="47.5"><defs><clipPath id="aca"><path d="M0 38h38V0H0v38z"/></clipPath><clipPath id="acb"><path d="M3 33.308V19.81c0-4.5 11.375.9 14.974 4.5 3.6 3.6-.063 5.398-.063 6.298 0 .646-7.69 5.47-12.026 5.47-1.7 0-2.884-.74-2.884-2.77"/></clipPath><clipPath id="acc"><path d="M0 38h38V0H0v38z"/></clipPath><clipPath id="acd"><path d="M20.257 30.608c0-.9-3.495-2.7.105-6.3C23.962 20.71 35 15.312 35 19.81v13.498c0 2.03-1.17 2.77-2.852 2.77-4.286 0-11.89-4.824-11.89-5.47"/></clipPath><clipPath id="ace"><path d="M0 38h38V0H0v38z"/></clipPath></defs><g transform="matrix(1.25 0 0 -1.25 0 47.5)"><g><g clip-path="url(#aca)"><g transform="translate(24 1)"><path d="M0 0c-.263 0-.52.104-.707.293C-3.05 2.635-7 20.103-7 22c0 .282.1 1.687 2.094 1.687 2.113 0 5.878-1.587 6.3-1.768C1.762 21.76 2 21.4 2 21c0-1.49 4.406-10.733 7.857-16.485.23-.382.18-.87-.124-1.195-.3-.326-.783-.413-1.18-.215l-5.258 2.63c-.44-.726-.93-1.87-1.376-2.907C1.585 2.05 1.24 1.246.894.553.75.266.478.063.16.013.106.003.053 0 0 0" fill="#dd2e44"/></g><g transform="translate(13 1)"><path d="M0 0c-.053 0-.107.004-.16.013-.318.05-.59.253-.735.54-.346.693-.69 1.497-1.024 2.275-.444 1.038-.934 2.18-1.375 2.906l-5.258-2.63c-.398-.2-.878-.11-1.18.216-.303.326-.353.813-.124 1.195C-6.407 10.267-2 19.51-2 21c0 .4.238.762.606.92.422.18 4.187 1.767 6.3 1.767C6.9 23.687 7 22.282 7 22 7 20.104 3.05 2.635.707.293.517.103.263 0 0 0" fill="#dd2e44"/></g><g transform="translate(3 33.308)"><path d="M0 0v-13.5c0-4.498 11.375.9 14.974 4.5 3.6 3.6-.063 5.4-.063 6.3C14.91-1.8 0 7.2 0 0" fill="#dd2e44"/></g></g></g><g><g clip-path="url(#acb)"><g transform="translate(19.9 25.209)"><path d="M0 0c-13.5 0-17.098-5.4-17.098-7.2 0-1.8 9.9-5.4 12.598-2.698C-1.8-7.198 0 0 0 0" fill="#a0041e"/></g></g></g><g><g clip-path="url(#acc)"><g transform="translate(35 33.308)"><path d="M0 0v-13.5c0-4.498-10.99.9-14.59 4.5-3.6 3.6-.13 5.4-.13 6.3C-14.72-1.8 0 7.2 0 0" fill="#dd2e44"/></g></g></g><g><g clip-path="url(#acd)"><g transform="translate(18.77 25.209)"><path d="M0 0c13.5 0 17.1-5.4 17.1-7.2 0-1.8-9.9-5.4-12.6-2.698C1.8-7.198 0 0 0 0" fill="#a0041e"/></g></g></g><g><g clip-path="url(#ace)"><g transform="translate(23 25.6)"><path d="M0 0c0-1.988-1.61-3.6-3.6-3.6h-1.8C-7.39-3.6-9-1.988-9 0v3.8c0 1.99 1.61 3.6 3.6 3.6h1.8C-1.61 7.4 0 5.79 0 3.8V0z" fill="#ea596e"/></g></g></g></g></svg><svg viewBox="0 0 47.5 47.5" enable-background="new 0 0 47.5 47.5" width="47.5" height="47.5" id="emoji-celebration-1f381" x="47.5" y="47.5"><defs><clipPath id="ada"><path d="M0 38h38V0H0v38z"/></clipPath></defs><g transform="matrix(1.25 0 0 -1.25 0 47.5)"><g><g clip-path="url(#ada)"><g transform="translate(34 6)"><path d="M0 0c0-2.2-1.8-4-4-4h-22c-2.2 0-4 1.8-4 4v17c0 2.2 1.8 4 4 4h22c2.2 0 4-1.8 4-4V0z" fill="#fdd888"/></g><g transform="translate(37 26)"><path d="M0 0c0-2.2-1.8-4-4-4h-28c-2.2 0-4 1.8-4 4s1.8 4 4 4h28c2.2 0 4-1.8 4-4" fill="#fdd888"/></g><path d="M34 20H4v2h30v-2z" fill="#fcab40"/><g transform="translate(20 33.999)"><path d="M0 0h-2c-1.656 0-3-1.343-3-3v-29h8v29c0 1.657-1.343 3-3 3" fill="#da2f47"/></g><g transform="translate(17 30)"><path d="M0 0c1.1 0 1.263.516.36 1.147l-6.72 4.706c-.903.63-2.086.366-2.632-.59l-2.016-3.527C-11.554.78-11.1 0-10 0H0z" fill="#da2f47"/></g><g transform="translate(21 30)"><path d="M0 0c-1.1 0-1.263.516-.36 1.147l6.72 4.706c.903.63 2.086.366 2.632-.59l2.016-3.527C11.554.78 11.1 0 10 0H0z" fill="#da2f47"/></g></g></g></g></svg><svg viewBox="0 0 47.5 47.5" enable-background="new 0 0 47.5 47.5" width="47.5" height="47.5" id="emoji-celebration-1f383" x="95"><defs><clipPath id="aea"><path d="M0 38h38V0H0v38z"/></clipPath></defs><g transform="matrix(1.25 0 0 -1.25 0 47.5)"><g><g clip-path="url(#aea)"><g transform="translate(19 32.001)"><path d="M0 0h6c7 0 11-7.887 11-16 0-15-9-15-17-15s-17 0-17 15c0 9.958 6 16 11 16h6" fill="#f18f26"/></g><g transform="translate(27.972 12.629)"><path d="M0 0c-.035-.67-.352-1.405-.972-2.13-1.605-1.872-3.386-1.48-4.04.82-1.223-.193-2.548-.32-3.96-.32-7 0-12 3-12 3 0-2.672 1.015-4.437 2.465-5.623.148.32.345.634.635.924 1.485 1.486 3.105.676 3.6-1.8.078-.388.1-.732.097-1.056 2.052-.44 4.062-.443 5.203-.443 3 0 12 0 12 8 0 0-1.12-.666-3.028-1.37" fill="#642116"/></g><g transform="translate(21.873 31.764)"><path d="M0 0c.07-.42-.222-.764-.647-.764H-5.1c-.424 0-.716.344-.646.764L-5 4.472c.07.42.476.764.9.764h2.453c.425 0 .832-.344.9-.764L0 0z" fill="#3f7123"/></g><g transform="translate(17 31)"><path d="M0 0s2 5 8 5c5 0 7-5 7-5H0z" fill="#5c913b"/></g><g transform="translate(9.691 25.891)"><path d="M0 0c.793 1.48 2.093 1.48 2.887 0L5.05-4.035c.795-1.48-.306-2.69-2.446-2.69H.28c-2.14 0-3.24 1.21-2.446 2.69L0 0z" fill="#642116"/></g><g transform="translate(25.423 25.891)"><path d="M0 0c.794 1.48 2.093 1.48 2.887 0L5.05-4.035c.795-1.48-.306-2.69-2.446-2.69H.28c-2.138 0-3.24 1.21-2.445 2.69L0 0z" fill="#642116"/></g><g transform="translate(20.198 14.038)"><path d="M0 0c-.586-1.09-1.544-1.09-2.13 0L-3.73 2.977c-.586 1.092.226 1.985 1.805 1.985h1.715c1.58 0 2.393-.893 1.806-1.985L0 0z" fill="#642116"/></g></g></g></g></svg><svg viewBox="0 0 47.5 47.5" enable-background="new 0 0 47.5 47.5" width="47.5" height="47.5" id="emoji-celebration-1f384" x="95" y="47.5"><defs><clipPath id="afa"><path d="M0 38h38V0H0v38z"/></clipPath></defs><g transform="matrix(1.25 0 0 -1.25 0 47.5)"><g><g clip-path="url(#afa)"><g transform="translate(23.088 4.17)"><path d="M0 0c0-1.997-1.62-2.712-3.616-2.712-1.997 0-3.616.715-3.616 2.712l.904 8.136c0 1.996.715 1.807 2.712 1.807 1.997 0 2.712.19 2.712-1.807L0 0z" fill="#662113"/></g><g transform="translate(31.59 9.325)"><path d="M0 0c-6.294 5.392-8.843 13.112-12.118 13.112-3.276 0-5.824-7.72-12.118-13.112-2.644-2.266-1.385-3.577 2.24-3.314 3.233.232 6.256.965 9.878.965s6.645-.732 9.876-.964C1.385-3.577 2.645-2.266 0 0" fill="#5c913b"/></g><g transform="translate(29.546 11.462)"><path d="M0 0c-4.837 4.435-7.555 10.787-10.074 10.787-2.517 0-5.237-6.352-10.073-10.787-3.844-3.524 5.037-4.315 10.073 0C-5.04-4.315 3.843-3.524 0 0" fill="#3e721d"/></g><g transform="translate(29.546 15.055)"><path d="M0 0c-4.837 4.144-7.555 10.077-10.074 10.077-2.517 0-5.237-5.933-10.073-10.077-3.844-3.292 5.037-4.03 10.073 0C-5.04-4.03 3.843-3.292 0 0" fill="#5c913b"/></g><g transform="translate(27.336 17.997)"><path d="M0 0c-3.775 3.235-5.897 7.868-7.864 7.868-1.966 0-4.09-4.633-7.865-7.868-3-2.57 3.934-3.146 7.866 0C-3.934-3.146 3-2.57 0 0" fill="#3e721d"/></g><g transform="translate(27.336 20.689)"><path d="M0 0c-3.775 3.235-5.897 7.867-7.864 7.867-1.966 0-4.09-4.632-7.865-7.867-3-2.57 3.934-3.147 7.866 0C-3.934-3.147 3-2.57 0 0" fill="#5c913b"/></g><g transform="translate(25.818 23.08)"><path d="M0 0c-3.047 2.61-4.76 6.35-6.347 6.35-1.586 0-3.3-3.74-6.347-6.35-2.422-2.075 3.174-2.54 6.347 0C-3.174-2.54 2.423-2.075 0 0" fill="#3e721d"/></g><g transform="translate(25.818 25.106)"><path d="M0 0c-3.047 2.61-4.76 6.35-6.347 6.35-1.586 0-3.3-3.74-6.347-6.35-2.422-2.075 3.174-2.54 6.347 0C-3.174-2.54 2.423-2.075 0 0" fill="#5c913b"/></g><g transform="translate(24.301 28.089)"><path d="M0 0c-2.317 1.986-3.62 4.83-4.83 4.83-1.206 0-2.51-2.844-4.83-4.83-1.84-1.58 2.416-1.933 4.83 0C-2.414-1.933 1.845-1.58 0 0" fill="#3e721d"/></g><g transform="translate(24.301 29.169)"><path d="M0 0c-2.317 1.986-3.62 4.832-4.83 4.832-1.206 0-2.51-2.846-4.83-4.832-1.84-1.58 2.416-1.933 4.83 0C-2.414-1.933 1.845-1.58 0 0" fill="#5c913b"/></g><g transform="translate(19 24.958)"><path d="M0 0c0-.83-.67-1.5-1.5-1.5S-3-.83-3 0s.67 1.5 1.5 1.5S0 .83 0 0" fill="#ffcc4d"/></g><g transform="translate(23 12)"><path d="M0 0c0-1.104-.896-2-2-2s-2 .896-2 2 .896 2 2 2 2-.896 2-2" fill="#ffcc4d"/></g><g transform="translate(26 21.5)"><path d="M0 0c0-1.38-1.12-2.5-2.5-2.5S-5-1.38-5 0s1.12 2.5 2.5 2.5S0 1.38 0 0" fill="#dd2e44"/></g><g transform="translate(13 11)"><path d="M0 0c0-1.104-.896-2-2-2s-2 .896-2 2 .896 2 2 2 2-.896 2-2" fill="#dd2e44"/></g><g transform="translate(17 18)"><path d="M0 0c0-1.104-.896-2-2-2s-2 .896-2 2 .896 2 2 2 2-.896 2-2" fill="#a6d388"/></g><g transform="translate(29 14)"><path d="M0 0c0-1.104-.896-2-2-2s-2 .896-2 2 .896 2 2 2 2-.896 2-2" fill="#a6d388"/></g><g transform="translate(20.379 35.321)"><path d="M0 0c.143-.275.512-.55.817-.61l1.38-.268c.304-.06.376-.29.158-.512l-.983-1.005c-.217-.222-.365-.656-.326-.965l.17-1.394c.038-.308-.16-.448-.44-.31l-1.255.625c-.28.14-.738.145-1.02.013l-1.273-.594c-.283-.13-.476.013-.43.32L-3-3.31c.047.308-.09.746-.3.974l-.96 1.028c-.21.227-.134.457.173.51l1.385.233c.307.05.68.316.832.588l.682 1.23c.15.27.393.268.537-.007L0 0z" fill="#ffac33"/></g></g></g></g></svg><svg viewBox="0 0 47.5 47.5" enable-background="new 0 0 47.5 47.5" width="47.5" height="47.5" id="emoji-celebration-1f386" y="95"><defs><clipPath id="aga"><path d="M0 38h38V0H0v38z"/></clipPath></defs><g transform="matrix(1.25 0 0 -1.25 0 47.5)"><g><g clip-path="url(#aga)"><g transform="translate(37 5)"><path d="M0 0c0-2.21-1.79-4-4-4h-28c-2.21 0-4 1.79-4 4v28c0 2.21 1.79 4 4 4h28c2.21 0 4-1.79 4-4V0z" fill="#269"/></g><g transform="translate(19 34.751)"><path d="M0 0l3.75-3.75H9V-9l3.75-3.75L9-16.503v-5.25H3.75L0-25.5l-3.75 3.75H-9v5.25l-3.75 3.75L-9-9v5.25h5.25L0 0z" fill="#55acee"/></g><g transform="translate(16 22)"><path d="M0 0z" fill="#ffd983"/></g><g transform="translate(19 32.406)"><path d="M0 0l2.234-5.07L7.086-3.65l-1.418-4.85 6.486-2.236-6.486-2.235 1.418-4.85-4.852 1.417L0-28.56l-2.235 12.154-4.85-1.417 1.417 4.85-6.487 2.235 6.487 2.235-1.417 4.85 4.85-1.416L0 0z" fill="#ffd983"/></g><g transform="translate(22 22)"><path d="M0 0c0-1.657-1.343-3-3-3s-3 1.343-3 3 1.343 3 3 3 3-1.343 3-3" fill="#f5f8fa"/></g><g transform="translate(10.999 24)"><path d="M0 0c-.19 0-.383.054-.554.168l-6 4c-.46.306-.583.927-.277 1.387.305.46.926.584 1.386.277l6-4c.46-.306.583-.927.277-1.387C.64.155.323 0 0 0" fill="#ffcc4d"/></g><g transform="translate(27.001 24)"><path d="M0 0c-.323 0-.64.156-.833.445-.307.46-.183 1.08.277 1.387l6 4c.46.307 1.08.183 1.387-.277.308-.46.184-1.08-.276-1.387l-6-4C.384.054.19 0 0 0" fill="#ffcc4d"/></g><g transform="translate(5.001 13)"><path d="M0 0c-.323 0-.64.156-.833.445-.306.46-.182 1.08.277 1.387l6 4c.46.308 1.08.183 1.387-.277.307-.46.183-1.08-.276-1.387l-6-4C.384.055.19 0 0 0" fill="#ffcc4d"/></g><g transform="translate(33.999 13)"><path d="M0 0c-.168 0-.34.042-.495.132l-7 4c-.48.274-.647.885-.372 1.364.273.48.884.647 1.364.372l7-4c.48-.274.647-.885.372-1.364C.684.18.347 0 0 0" fill="#ffcc4d"/></g><g transform="translate(10.999 3)"><path d="M0 0c-.136 0-.273.027-.406.086C-.91.31-1.138.9-.913 1.406l4 9c.224.504.814.733 1.32.508.504-.225.732-.815.507-1.32l-4-9C.75.222.384 0 0 0" fill="#ffcc4d"/></g><g transform="translate(27.001 3)"><path d="M0 0c-.384 0-.75.22-.915.594l-4 9c-.224.505.003 1.095.508 1.32.506.224 1.095-.004 1.32-.508l4-9C1.137.9.91.31.405.086.273.026.135 0 0 0" fill="#ffcc4d"/></g><g transform="translate(16.001 29)"><path d="M0 0c-.367 0-.72.202-.896.553l-2 4c-.247.494-.046 1.094.448 1.342.494.247 1.094.046 1.342-.448l2-4C1.14.953.94.353.446.105.303.035.15 0 0 0" fill="#ffcc4d"/></g><g transform="translate(21.999 29)"><path d="M0 0c-.15 0-.303.034-.446.105-.494.248-.695.848-.448 1.342l2 4c.248.495.847.695 1.342.448.494-.248.695-.848.448-1.342l-2-4C.72.203.366 0 0 0" fill="#ffcc4d"/></g></g></g></g></svg><svg viewBox="0 0 47.5 47.5" enable-background="new 0 0 47.5 47.5" width="47.5" height="47.5" id="emoji-celebration-1f387" x="47.5" y="95"><defs><clipPath id="aha"><path d="M0 38h38V0H0v38z"/></clipPath></defs><g transform="matrix(1.25 0 0 -1.25 0 47.5)"><g><g clip-path="url(#aha)"><g transform="translate(37 33)"><path d="M0 0c0 2.21-1.79 4-4 4h-28c-2.21 0-4-1.79-4-4v-28c0-2.21 1.79-4 4-4h28c2.21 0 4 1.79 4 4V0z" fill="#269"/></g><g transform="translate(18 16)"><path d="M0 0z" fill="#ffd983"/></g><g transform="translate(19 17)"><path d="M0 0c-.42 0-.81-.265-.95-.684l-3-9c-.174-.524.11-1.09.634-1.265.525-.176 1.09.11 1.265.633l3 9C1.122-.793.84-.227.315-.052.21-.017.106 0 0 0" fill="#ffcc4d"/></g><g transform="translate(19 17)"><path d="M0 0c-.087 0-.175-.012-.263-.036C-.796-.18-1.11-.73-.965-1.263L2.26-13.12c.147-.532.698-.845 1.23-.702.532.145.846.695.7 1.228L.965-.738C.844-.293.44 0 0 0" fill="#ffcc4d"/></g><g transform="translate(19 17)"><path d="M0 0c-.218 0-.437-.07-.62-.216l-13.25-10.5c-.433-.343-.506-.972-.163-1.405.343-.434.972-.505 1.405-.164l13.25 10.5c.432.343.506.972.162 1.405C.587-.13.294 0 0 0" fill="#ffcc4d"/></g><g transform="translate(19.002 17)"><path d="M0 0c-.04 0-.077-.002-.116-.006L-12.45-1.423c-.547-.063-.94-.56-.878-1.108.063-.55.565-.945 1.108-.88L.113-1.994c.548.063.942.56.88 1.108C.932-.376.5 0 0 0" fill="#ffcc4d"/></g><g transform="translate(4.5 23.917)"><path d="M0 0c-.373 0-.73-.21-.903-.57C-1.14-1.067-.93-1.664-.43-1.9l14.5-6.917c.496-.24 1.094-.026 1.332.472.238.5.027 1.096-.472 1.333L.43-.098C.29-.03.145 0 0 0" fill="#ffcc4d"/></g><g transform="translate(8.332 32.167)"><path d="M0 0c-.2 0-.4-.06-.574-.182-.452-.318-.56-.94-.243-1.393L9.85-16.742c.317-.452.94-.56 1.393-.243.452.317.56.94.242 1.393L.82-.425C.624-.148.313 0 0 0" fill="#ffcc4d"/></g><g transform="translate(19 17)"><path d="M0 0c-.276 0-.55-.114-.75-.337-.365-.413-.327-1.045.086-1.412l11.708-10.374c.414-.365 1.045-.328 1.412.086.366.413.328 1.045-.085 1.412L.664-.25C.473-.084.236 0 0 0" fill="#ffcc4d"/></g><g transform="translate(19 17)"><path d="M0 0c-.42 0-.81-.266-.95-.686-.173-.525.112-1.09.636-1.264L12.02-6.033c.527-.175 1.09.112 1.262.635.174.524-.11 1.09-.634 1.264L.314-.05C.21-.018.104 0 0 0" fill="#ffcc4d"/></g><g transform="translate(32.835 18.5)"><path d="M0 0c-.036 0-.072-.002-.108-.006l-13.835-1.5c-.55-.06-.946-.553-.886-1.102.06-.55.56-.944 1.103-.886l13.833 1.5c.55.06.947.553.887 1.102C.937-.38.503 0 0 0" fill="#ffcc4d"/></g><g transform="translate(19 16)"><path d="M0 0l8.917 6.5" fill="none" stroke="#ffcc4d" stroke-width="2" stroke-linecap="round" stroke-miterlimit="10"/></g><g transform="translate(19 16)"><path d="M0 0l7.834 13" fill="none" stroke="#ffcc4d" stroke-width="2" stroke-linecap="round" stroke-miterlimit="10"/></g><g transform="translate(21 37)"><path d="M0 0h-4v-19c0-1.104.896-2 2-2 1.105 0 2 .896 2 2V0z" fill="#55acee"/></g><g transform="translate(22 16)"><path d="M0 0c0 1.657-1.343 3-3 3s-3-1.343-3-3 1.343-3 3-3 3 1.343 3 3" fill="#f5f8fa"/></g><g transform="translate(7.963 5.306)"><path d="M0 0c0 1.303-1.057 2.36-2.36 2.36S-4.72 1.302-4.72 0s1.057-2.36 2.36-2.36S0-1.302 0 0" fill="#f5f8fa"/></g><g transform="translate(33.666 5.625)"><path d="M0 0c0 1.634-1.324 2.958-2.958 2.958-1.634 0-2.958-1.324-2.958-2.958 0-1.634 1.324-2.958 2.958-2.958C-1.324-2.958 0-1.634 0 0" fill="#f5f8fa"/></g><g transform="translate(23.833 4.144)"><path d="M0 0c0 .887-.72 1.606-1.606 1.606-.887 0-1.606-.72-1.606-1.606 0-.887.72-1.606 1.606-1.606C-.72-1.606 0-.886 0 0" fill="#f5f8fa"/></g><g transform="translate(5.827 23.083)"><path d="M0 0c0 .967-.784 1.75-1.75 1.75S-3.5.967-3.5 0s.784-1.75 1.75-1.75S0-.967 0 0" fill="#f5f8fa"/></g><g transform="translate(10.75 31.833)"><path d="M0 0c0 1.565-1.27 2.833-2.833 2.833-1.565 0-2.834-1.268-2.834-2.833 0-1.564 1.27-2.833 2.834-2.833S0-1.563 0 0" fill="#f5f8fa"/></g><g transform="translate(35.334 17.584)"><path d="M0 0c0 1.22-.99 2.21-2.21 2.21-1.218 0-2.207-.99-2.207-2.21s.99-2.208 2.208-2.208C-.99-2.208 0-1.22 0 0" fill="#f5f8fa"/></g><g transform="translate(28.667 29)"><path d="M0 0c0 .967-.783 1.75-1.75 1.75S-3.5.967-3.5 0s.783-1.75 1.75-1.75S0-.967 0 0" fill="#f5f8fa"/></g></g></g></g></svg><svg viewBox="0 0 47.5 47.5" enable-background="new 0 0 47.5 47.5" width="47.5" height="47.5" id="emoji-celebration-1f388" x="95" y="95"><defs><clipPath id="aia"><path d="M0 38h38V0H0v38z"/></clipPath></defs><g transform="matrix(1.25 0 0 -1.25 0 47.5)"><g><g clip-path="url(#aia)"><g transform="translate(28.999 1)"><path d="M0 0c-.448 0-.855.303-.97.758-.035.136-.925 3.435-4.27 4.272C-9.946 6.206-10 12.723-10 13c0 .552.448.998 1 1 .553-.035 1-.446 1-.998 0-.053.055-5.234 3.243-6.032C-.227 5.838.925 1.43.97 1.242 1.106.707.78.164.244.03.163.01.08 0 0 0" fill="#fcab40"/></g><g transform="translate(19 12)"><path d="M0 0c-1.1 0-1.598.805-1.105 1.79l1.21 2.42c.493.985 1.297.985 1.79 0l1.21-2.42C3.598.804 3.1 0 2 0H0z" fill="#bb1a34"/></g><g transform="translate(29 28)"><path d="M0 0c0-6-7-12-9-12s-9 6-9 12c0 5.8 4.582 9 9 9s9-3.2 9-9" fill="#bb1a34"/></g><g transform="translate(21 15)"><path d="M0 0h-2c-.552 0-1 .447-1 1 0 .553.448 1 1 1h2c.553 0 1-.447 1-1C1 .447.553 0 0 0" fill="#fcab40"/></g></g></g></g></svg><svg viewBox="0 0 47.5 47.5" enable-background="new 0 0 47.5 47.5" width="47.5" height="47.5" id="emoji-celebration-1f3a9" x="142.5"><defs><clipPath id="aja"><path d="M0 38h38V0H0v38z"/></clipPath><clipPath id="ajb"><path d="M5 33.666c0-.034.018-.067.022-.1-.014-.11-.022-.23-.022-.366L6.802 9.616C3.3 8.706 1 7.424 1 6c0-2.762 8.61-5 18-5s18 2.238 18 5c0 1.424-2.298 2.705-5.8 3.616L33 33.184c0 .135-.008.263-.02.373.002.034.02.075.02.11 0 1.804-6.268 3.266-14 3.266S5 35.47 5 33.666"/></clipPath></defs><g transform="matrix(1.25 0 0 -1.25 0 47.5)"><g><g clip-path="url(#aja)"><g transform="translate(31.198 9.615)"><path d="M0 0l1.802 23.568c0 .136-.008.264-.022.373.004.035.022.077.022.11 0 1.805-6.27 3.268-14 3.268-7.732 0-14-1.463-14-3.267 0-.033.017-.067.022-.1-.014-.11-.022-.23-.022-.365L-24.396 0c-3.504-.91-5.802-2.19-5.802-3.615 0-2.762 8.61-5 18-5 9.388 0 18 2.238 18 5C5.802-2.19 3.504-.91 0 0" fill="#292f33"/></g><g transform="translate(18.536 30.405)"><path d="M0 0c-4.89 0-8.602.896-10.852 1.646-.524.175-.807.742-.632 1.266.174.523.738.807 1.265.632C-7.33 2.58.544.654 11.203 3.56c.53.142 1.082-.168 1.227-.702.145-.532-.17-1.082-.703-1.228C7.32.43 3.38 0 0 0" fill="#66757f"/></g></g></g><g><g clip-path="url(#ajb)"><g transform="translate(9.604 6.208)"><path d="M0 0c4.458-1.708 13.958-1.646 18.807-.15 1.466.454 2.776 1.734 2.776 3.192 0 3.256 3.742 7.25 2.27 6.75-8.27-2.813-19.77-3-28.25.208-9.994 3.782.126-2.625.793-3.875.4-.75.833-1.347.833-2.73C-2.77 1.646-1.483.568 0 0" fill="#744eaa"/></g></g></g></g></svg><svg viewBox="0 0 47.5 47.5" enable-background="new 0 0 47.5 47.5" width="47.5" height="47.5" id="emoji-celebration-1f48e" x="142.5" y="47.5"><g transform="matrix(1.25 0 0 -1.25 0 47.5)"><g transform="translate(14 34)"><path d="M0 0h-6l-7-9h10l3 9z" fill="#bdddf4"/></g><g transform="translate(37 25)"><path d="M0 0l-7 9h-6l3-9H0z" fill="#5dadec"/></g><g transform="translate(27 25)"><path d="M0 0h10L-8-21 0 0z" fill="#4289c1"/></g><g transform="translate(11 25)"><path d="M0 0h-10L8-21 0 0z" fill="#8ccaf7"/></g><g transform="translate(14 34)"><path d="M0 0l-3-9h16l-3 9H0z" fill="#8ccaf7"/></g><g transform="translate(19 4)"><path d="M0 0l-8 21H8L0 0z" fill="#5dadec"/></g></g></svg><svg viewBox="0 0 47.5 47.5" enable-background="new 0 0 47.5 47.5" width="47.5" height="47.5" id="emoji-celebration-1f492" x="142.5" y="95"><defs><clipPath id="ala"><path d="M0 38h38V0H0v38z"/></clipPath></defs><g transform="matrix(1.25 0 0 -1.25 0 47.5)"><g><g clip-path="url(#ala)"><g transform="translate(21 35)"><path d="M0 0h-1v1c0 .552-.447 1-1 1-.553 0-1-.448-1-1V0h-1c-.553 0-1-.448-1-1s.447-1 1-1h1v-6c0-.552.447-1 1-1 .553 0 1 .448 1 1v6h1c.553 0 1 .448 1 1S.553 0 0 0" fill="#bcbec0"/></g><g transform="translate(19 28)"><path d="M0 0l-5.143-4H-5v-9H5v9h.143L0 0z" fill="#f4abba"/></g><g transform="translate(20.999 22)"><path d="M0 0c0 1.104-.896 2-2 2s-2-.896-2-2v-7h4v7z" fill="#662113"/></g><g transform="translate(18.999 19)"><path d="M0 0l-14-8v-9c0-.553.45-1 1-1h26c.554 0 1 .447 1 1v9L0 0z" fill="#f4abba"/></g><g transform="translate(32.998 10)"><path d="M0 0c-.168 0-.34.042-.495.132L-14 7.85-27.502.13c-.478-.277-1.09-.108-1.364.372s-.108 1.09.372 1.364l14 8c.307.176.684.176.992 0l14-8c.48-.274.647-.885.372-1.364C.684.18.347 0 0 0" fill="#dd2e44"/></g><g transform="translate(23.999 23)"><path d="M0 0c-.22 0-.44.072-.624.22L-5 3.72-9.374.22c-.432-.344-1.062-.276-1.406.155-.345.432-.275 1.06.156 1.406l5 4c.364.293.883.293 1.25 0l5-4c.43-.344.5-.973.156-1.405C.584.128.294 0 0 0" fill="#dd2e44"/></g><g transform="translate(13.999 6)"><path d="M0 0c0 1.104-.896 2-2 2s-2-.896-2-2v-5h4v5z" fill="#662113"/></g><g transform="translate(20.999 8)"><path d="M0 0c0 1.104-.896 2-2 2s-2-.896-2-2v-7h4v7z" fill="#662113"/></g><g transform="translate(27.999 6)"><path d="M0 0c0 1.104-.896 2-2 2s-2-.896-2-2v-5h4v5z" fill="#662113"/></g><g transform="translate(2 31)"><path d="M0 0c0 2.76 3.963 4 5 0 1.12 4 5 2.76 5 0 0-3-5-6-5-6S0-3 0 0" fill="#ea596e"/></g><g transform="translate(26 31)"><path d="M0 0c0 2.76 3.963 4 5 0 1.12 4 5 2.76 5 0 0-3-5-6-5-6S0-3 0 0" fill="#ea596e"/></g></g></g></g></svg><svg viewBox="0 0 47.5 47.5" enable-background="new 0 0 47.5 47.5" width="47.5" height="47.5" id="emoji-celebration-1f493" y="142.5"><defs><clipPath id="ama"><path d="M0 38h38V0H0v38z"/></clipPath></defs><g transform="matrix(1.25 0 0 -1.25 0 47.5)"><g><g clip-path="url(#ama)"><g transform="translate(34.885 21.236)"><path d="M0 0c0 4.84-3.924 8.764-8.764 8.764-2.937 0-5.53-1.45-7.12-3.667-1.59 2.217-4.184 3.667-7.12 3.667-4.842 0-8.766-3.923-8.766-8.764 0-.686.087-1.35.236-1.99 1.218-7.56 9.624-15.538 15.65-17.728C-9.86-17.528-1.455-9.55-.238-1.99-.087-1.35 0-.687 0 0" fill="#e75a70"/></g><g transform="translate(2.499 25.959)"><path d="M0 0c-.15 0-.303.034-.446.105-.494.248-.695.848-.448 1.342C.122 3.477 2.9 6.643 6.39 7.035c.548.06 1.042-.332 1.105-.882.062-.55-.333-1.044-.882-1.105C3.933 4.746 1.685 2.13.896.553.72.203.366 0 0 0" fill="#fdcb58"/></g><g transform="translate(2.041 31.375)"><path d="M0 0c-.193 0-.388.056-.56.172-.457.31-.577.932-.267 1.39.935 1.38 2.894 2.908 4.682 3.02.553.043 1.026-.385 1.06-.936.035-.55-.384-1.026-.935-1.06C3.02 2.525 1.576 1.54.83.438.635.153.32 0 0 0" fill="#fdcb58"/></g><g transform="translate(35.792 25.959)"><path d="M0 0c-.367 0-.72.202-.896.553-.79 1.578-3.04 4.193-5.717 4.495-.55.06-.944.556-.882 1.105.06.55.55.946 1.106.882C-2.9 6.643-.12 3.478.895 1.447 1.14.953.94.353.446.105.303.035.15 0 0 0" fill="#fdcb58"/></g><g transform="translate(36.251 31.375)"><path d="M0 0c-.32 0-.636.154-.83.44-.746 1.102-2.19 2.085-3.15 2.145-.55.035-.97.51-.936 1.06.034.553.51.982 1.06.937 1.79-.112 3.748-1.64 4.683-3.02.31-.458.19-1.08-.267-1.39C.388.056.193 0 0 0" fill="#fdcb58"/></g></g></g></g></svg><svg viewBox="0 0 47.5 47.5" enable-background="new 0 0 47.5 47.5" width="47.5" height="47.5" id="emoji-celebration-1f49d" x="47.5" y="142.5"><defs><clipPath id="ana"><path d="M0 38h38V0H0v38z"/></clipPath></defs><g transform="matrix(1.25 0 0 -1.25 0 47.5)"><g><g clip-path="url(#ana)"><g transform="translate(36.885 25.166)"><path d="M0 0c0 5.45-4.418 9.868-9.867 9.868-3.308 0-6.227-1.633-8.018-4.13-1.79 2.497-4.71 4.13-8.017 4.13-5.45 0-9.868-4.418-9.868-9.868 0-.772.098-1.52.266-2.24 1.37-8.513 10.835-17.495 17.62-19.96C-11.103-19.736-1.637-10.754-.27-2.24-.098-1.52 0-.773 0 0" fill="#e75a70"/></g><g transform="translate(37 22)"><path d="M0 0c-1-5-4-8-4-8h-28s-3 3-4 8H0z" fill="#fdd888"/></g><g transform="translate(15 19)"><path d="M0 0v-18l-5 5-5-5V0H0z" fill="#fdd888"/></g><g transform="translate(17.802 27.806)"><path d="M0 0l-7.88-5.515L-15.756 0c-.576.402-1.045.158-1.045-.544v-14.66c0-.702.48-.963 1.07-.58l7.853 5.105 7.856-5.105c.587-.382 1.068-.12 1.068.582v14.66C1.044.156.574.4 0 0" fill="#fdcb58"/></g><g transform="translate(14 20)"><path d="M0 0c0-2.21-1.79-4-4-4s-4 1.79-4 4 1.79 4 4 4 4-1.79 4-4" fill="#fdd888"/></g></g></g></g></svg><svg viewBox="0 0 47.5 47.5" enable-background="new 0 0 47.5 47.5" width="47.5" height="47.5" id="emoji-celebration-1f4a5" x="95" y="142.5"><g transform="matrix(1.25 0 0 -1.25 0 47.5)"><g transform="translate(23 37)"><path d="M0 0l-4-8.028-5 5.018v-7.025l-10 2.007 8-8.028-11-6.02h12l-6-12.042 12 8.028L7-36.125l-3 14.05h10l-8 6.02 8 9.03-12-3.01L0 0z" fill="#bb1a34"/></g><g transform="translate(23.914 24.076)"><path d="M0 0l1.86.467 5.226 1.31-3.38-3.815-1.32-1.49 1.59-1.195L6.9-6.925H.984l.472-2.22 1.55-7.258-5.844 5.332-1.057.963-1.187-.795-5.24-3.506 2.405 4.828 1.323 2.655h-6.758l3.76 2.06 2.146 1.17-1.727 1.736-3.044 3.054 3.22-.646 2.187-.44v4.23l1.45-1.455 1.794-1.8 1.133 2.277 1.273 2.556" fill="#fcab40"/></g><g transform="translate(22.512 22.699)"><path d="M0 0l.768.192 2.157.54L1.53-.84l-.546-.615.657-.493 1.21-.91H.404L.6-3.774l.64-2.997-2.412 2.2-.436.4-.49-.33-2.164-1.447.993 1.994.547 1.097h-2.79l1.554.85.886.485-.713.716L-5.043.453l1.328-.267.903-.182V1.75l.6-.6.74-.744.467.94L-.48 2.4" fill="#f5f8fa"/></g></g></svg><svg viewBox="0 0 47.5 47.5" enable-background="new 0 0 47.5 47.5" width="47.5" height="47.5" id="emoji-celebration-1f4ab" x="142.5" y="142.5"><defs><clipPath id="apa"><path d="M0 38h38V0H0v38z"/></clipPath></defs><g transform="matrix(1.25 0 0 -1.25 0 47.5)"><g><g clip-path="url(#apa)"><g transform="translate(29.865 29.866)"><path d="M0 0c7.36-7.36 9.35-17.304 4.443-22.21-4.907-4.906-14.85-2.917-22.21 4.442-.25.25-.478.51-.715.766l4.417 4.417C-8.34-18.31-1.05-20.3 2.22-17.027 5.493-13.757 3.504-6.464-2.22-.74l.022-.02c-.008.006-.015.014-.02.02-6.543 6.543-15.493 8.2-19.99 3.702-2.175-2.174-2.897-5.392-2.338-8.872-.858 4.082-.15 7.866 2.338 10.352C-17.302 9.35-7.358 7.36 0 0" fill="#fdd888"/></g><g transform="translate(20.403 3.701)"><path d="M0 0c-.252 0-.503.077-.72.23l-5.075 3.642-5.076-3.64c-.434-.31-1.014-.31-1.444.004-.43.312-.61.865-.45 1.37l1.893 5.954-5.03 3.7c-.43.316-.607.87-.443 1.376.164.504.634.846 1.164.85l6.248.04 1.967 5.93c.168.503.64.843 1.17.843.53 0 1.003-.34 1.17-.845l1.967-5.93 6.246-.04c.532-.003 1.002-.345 1.165-.85.164-.505-.014-1.06-.44-1.374L-.72 7.56l1.894-5.955C1.336 1.1 1.154.548.724.235.51.08.255 0 0 0" fill="#fcab40"/></g></g></g></g></svg><svg viewBox="0 0 47.5 47.5" enable-background="new 0 0 47.5 47.5" width="47.5" height="47.5" id="emoji-celebration-1f4af" x="190"><defs><clipPath id="aqa"><path d="M0 38h38V0H0v38z"/></clipPath></defs><g transform="matrix(1.25 0 0 -1.25 0 47.5)"><g><g clip-path="url(#aqa)"><g transform="translate(2.728 16)"><path d="M0 0c-.617 0-.953.256-1.127.47-.17.212-.348.586-.225 1.166l2.728 12.706-1.714-.097H-.35c-.517 0-.893.167-1.128.458-.22.272-.298.62-.22.98.15.702.882 1.286 1.667 1.33l4.007.227c.077.005.15.008.216.008.147 0 .536 0 .784-.307.252-.31.166-.708.138-.838L1.99 1.546C1.805.662 1.073.056.126.004L0 0z" fill="#bb1a34"/></g><g transform="translate(16.885 31.746)"><path d="M0 0l-.137-.004c-1.94-.11-3.555-2.304-4.32-5.866-.477-2.228-.38-3.9.273-4.707.297-.368.717-.554 1.25-.554l.14.003c1.94.11 3.553 2.3 4.317 5.863.48 2.23.383 3.9-.27 4.708C.956-.186.533 0 0 0m-3.414-13.746c-1.44 0-2.635.54-3.46 1.56-1.162 1.437-1.466 3.65-.877 6.395C-6.72-.98-3.544 2.395.15 2.603c1.59.09 2.907-.452 3.794-1.55 1.163-1.438 1.467-3.65.878-6.396-1.032-4.81-4.21-8.184-7.904-8.394-.112-.007-.223-.01-.332-.01" fill="#bb1a34"/></g><g transform="translate(31.887 33.386)"><path d="M0 0l-.136-.004c-1.94-.11-3.555-2.304-4.32-5.865-.478-2.227-.38-3.9.272-4.707.297-.368.72-.555 1.25-.555l.14.004c1.94.11 3.555 2.3 4.32 5.864.48 2.227.382 3.9-.27 4.707C.956-.187.536 0 0 0m-3.41-13.748c-1.44 0-2.638.54-3.463 1.56-1.163 1.44-1.467 3.652-.878 6.397C-6.72-.98-3.543 2.395.15 2.603c1.603.09 2.904-.453 3.79-1.55 1.163-1.44 1.467-3.65.878-6.396-1.03-4.81-4.206-8.183-7.902-8.396-.11-.008-.22-.01-.33-.01" fill="#bb1a34"/></g><g transform="translate(12.001 1.999)"><path d="M0 0c-.81 0-1.572.496-1.873 1.3-.388 1.033.136 2.185 1.17 2.574.338.126 8.4 3.108 20.536 4.12 1.102.096 2.068-.726 2.16-1.827.09-1.1-.727-2.067-1.827-2.16C8.576 3.043.78.158.702.128.472.043.232 0 0 0" fill="#bb1a34"/></g><g transform="translate(3.002 8)"><path d="M0 0c-.804 0-1.562.488-1.868 1.283-.396 1.03.118 2.188 1.15 2.583.54.21 13.514 5.126 32.61 6.13 1.114.07 2.046-.788 2.104-1.89.058-1.104-.79-2.045-1.892-2.103C13.68 5.033.844.183.714.133.48.043.24 0 0 0" fill="#bb1a34"/></g></g></g></g></svg><svg viewBox="0 0 47.5 47.5" enable-background="new 0 0 47.5 47.5" width="47.5" height="47.5" id="emoji-celebration-1f4b0" x="190" y="47.5"><defs><clipPath id="ara"><path d="M0 38h38V0H0v38z"/></clipPath></defs><g transform="matrix(1.25 0 0 -1.25 0 47.5)"><g><g clip-path="url(#ara)"><g transform="translate(32.898 13.062)"><path d="M0 0c-.6 6.618-3.898 9.938-3.898 9.938l-6 8h-8l-6-8s-1.42-1.432-2.568-4.275c-1.988-.66-3.432-2.514-3.432-4.725 0-1.448.625-2.742 1.61-3.655-.377-.702-.61-1.492-.61-2.345 0-1.958 1.136-3.635 2.775-4.456 1.283-1.92 2.997-2.544 4.225-2.544h16c1.378 0 3.373.78 4.677 3.31 1.93.69 3.322 2.52 3.322 4.69C2.102-2.384 1.268-.907 0 0" fill="#fdd888"/></g><g transform="translate(19 31)"><path d="M0 0c.55 0 1.058.158 1.5.416C1.943.158 2.45 0 3 0c1.657 0 4 2.344 4 4 0 0 0 2-2 2-.788 0-1-1-2-1S2 6 0 6s-2-1-3-1-1.21 1-2 1c-2 0-2-2-2-2 0-1.656 2.344-4 4-4 .55 0 1.057.158 1.5.416C-1.057.158-.55 0 0 0" fill="#fdd888"/></g><g transform="translate(25 31)"><path d="M0 0c0-.552-.447-1-1-1h-10c-.552 0-1 .448-1 1s.448 1 1 1h10c.553 0 1-.448 1-1" fill="#bf6952"/></g><g transform="translate(24.901 12.458)"><path d="M0 0c0 4.477-8.58 4.185-8.58 6.886 0 1.308 1.3 1.947 2.81 1.947 2.54 0 2.99-1.568 4.14-1.568.814 0 1.205.493 1.205 1.046 0 1.284-2.024 2.256-3.965 2.593v1.24c0 .772-.65 1.4-1.454 1.4-.805 0-1.456-.628-1.456-1.4v-1.285c-2.117-.463-3.937-1.875-3.937-4.176 0-4.3 8.58-4.124 8.58-7.145 0-1.047-1.18-2.093-3.112-2.093-2.9 0-3.866 1.89-5.044 1.89-.574 0-1.087-.465-1.087-1.165 0-1.114 1.936-2.452 4.6-2.825v-1.408c0-.773.652-1.4 1.456-1.4.804 0 1.455.627 1.455 1.4v1.398c0 .017-.006.03-.007.045C-2-4.19 0-2.687 0 0" fill="#67757f"/></g></g></g></g></svg><svg viewBox="0 0 47.5 47.5" enable-background="new 0 0 47.5 47.5" width="47.5" height="47.5" id="emoji-celebration-1f4b2" x="190" y="95"><defs><clipPath id="asa"><path d="M0 38h38V0H0v38z"/></clipPath></defs><g transform="matrix(1.25 0 0 -1.25 0 47.5)"><g><g clip-path="url(#asa)"><g transform="translate(29.81 13.791)"><path d="M0 0c0 7.672-14.144 7.17-14.144 11.803 0 2.242 2.145 3.338 4.633 3.338 4.183 0 4.928-2.688 6.823-2.688 1.342 0 1.99.845 1.99 1.792 0 2.2-3.338 3.867-6.538 4.444v2.124c0 1.325-1.073 2.4-2.4 2.4-1.325 0-2.4-1.075-2.4-2.4v-2.2c-3.488-.794-6.49-3.214-6.49-7.158 0-7.37 14.143-7.07 14.143-12.248 0-1.793-1.94-3.586-5.13-3.586-4.78 0-6.373 3.236-8.315 3.236-.946 0-1.792-.795-1.792-1.996 0-1.906 3.196-4.2 7.59-4.84 0-.004-.004-.01-.004-.015v-2.398c0-1.326 1.075-2.4 2.4-2.4 1.326 0 2.4 1.074 2.4 2.4v2.398c0 .028-.013.05-.015.075C-3.296-7.182 0-4.605 0 0" fill="#67757f"/></g></g></g></g></svg><svg viewBox="0 0 47.5 47.5" enable-background="new 0 0 47.5 47.5" width="47.5" height="47.5" id="emoji-celebration-1f52f"><defs><clipPath id="ata"><path d="M0 38h38V0H0v38z"/></clipPath></defs><g transform="matrix(1.25 0 0 -1.25 0 47.5)"><g><g clip-path="url(#ata)"><g transform="translate(37 5)"><path d="M0 0c0-2.21-1.79-4-4-4h-28c-2.21 0-4 1.79-4 4v28c0 2.21 1.79 4 4 4h28c2.21 0 4-1.79 4-4V0z" fill="#fcab40"/></g><g transform="translate(7.524 26.13)"><path d="M0 0l11.485-20.044L23.85-.007 0 0zm11.476-23.287c-1.01 0-1.928.588-2.516 1.615L-2.713-1.298c-.602 1.05-.66 2.15-.16 3.013C-2.398 2.532-1.508 3-.43 3h24.815c1.09 0 1.98-.473 2.44-1.296.484-.87.395-1.962-.243-2.997L13.952-21.76c-.598-.97-1.5-1.527-2.476-1.527" fill="#f5f8fa"/></g><g transform="translate(7.528 12.507)"><path d="M0 0l23.85-.007-12.37 20.044L0 0zm24.38-3.007H-.434c-1.08 0-1.968.47-2.44 1.285-.502.866-.445 1.963.157 3.013L8.956 21.666c.588 1.026 1.505 1.614 2.515 1.614.977 0 1.88-.557 2.477-1.528l12.63-20.466c.64-1.035.728-2.127.242-2.996-.46-.824-1.35-1.297-2.44-1.297" fill="#f5f8fa"/></g><g transform="translate(23 19)"><path d="M0 0c0-2.21-1.79-4-4-4s-4 1.79-4 4 1.79 4 4 4 4-1.79 4-4" fill="#f5f8fa"/></g></g></g></g></svg><svg viewBox="0 0 47.5 47.5" enable-background="new 0 0 47.5 47.5" width="47.5" height="47.5" id="emoji-celebration-2663" y="190"><defs><clipPath id="aua"><path d="M0 38h38V0H0v38z"/></clipPath></defs><g transform="matrix(1.25 0 0 -1.25 0 47.5)"><g><g clip-path="url(#aua)"><g transform="translate(26.5 9)"><path d="M0 0c4.143 0 7.5 3.358 7.5 7.5C7.5 11.642 4.143 15 0 15c-1.36 0-2.63-.367-3.73-1h-.21c2.047 1.217 3.423 3.445 3.423 6 0 3.857-3.126 6.984-6.983 6.984-3.857 0-6.984-3.127-6.984-6.984 0-2.555 1.376-4.783 3.423-6h-.21c-1.1.633-2.37 1-3.73 1-4.142 0-7.5-3.358-7.5-7.5 0-4.142 3.358-7.5 7.5-7.5 2.155 0 4.09.914 5.46 2.368C-9.95-1.752-14.296-5-18.5-5h.5c-.83 0-1.5-.672-1.5-1.5S-18.83-8-18-8H3c.828 0 1.5.672 1.5 1.5S3.828-5 3-5h.5C-.705-5-5.05-1.752-5.46 2.37-4.09.913-2.153 0 0 0"/></g></g></g></g></svg><svg viewBox="0 0 47.5 47.5" enable-background="new 0 0 47.5 47.5" width="47.5" height="47.5" id="emoji-celebration-2665" x="47.5" y="190"><defs><clipPath id="ava"><path d="M0 38h38V0H0v38z"/></clipPath></defs><g transform="matrix(1.25 0 0 -1.25 0 47.5)"><g><g clip-path="url(#ava)"><g transform="translate(3.067 25.681)"><path d="M0 0c0 8.8 12.184 12.06 15.933 1.874C19.683 12.06 31.866 8.8 31.866 0c0-9.56-15.933-21.68-15.933-21.68S0-9.56 0 0" fill="#dd2e44"/></g></g></g></g></svg><svg viewBox="0 0 47.5 47.5" enable-background="new 0 0 47.5 47.5" width="47.5" height="47.5" id="emoji-celebration-2666" x="95" y="190"><defs><clipPath id="awa"><path d="M0 38h38V0H0v38z"/></clipPath></defs><g transform="matrix(1.25 0 0 -1.25 0 47.5)"><g><g clip-path="url(#awa)"><g transform="translate(19.437 1.253)"><path d="M0 0c-.242-.337-.632-.337-.874 0l-12.25 17.135c-.24.338-.24.886 0 1.224l12.25 17.134c.242.338.632.338.874 0L12.25 18.36c.24-.34.24-.887 0-1.225L0 0z" fill="#dd2e44"/></g></g></g></g></svg><svg viewBox="0 0 47.5 47.5" enable-background="new 0 0 47.5 47.5" width="47.5" height="47.5" id="emoji-celebration-2728" x="142.5" y="190"><defs><clipPath id="axa"><path d="M0 38h38V0H0v38z"/></clipPath></defs><g transform="matrix(1.25 0 0 -1.25 0 47.5)"><g><g clip-path="url(#axa)"><g transform="translate(35.347 20.107)"><path d="M0 0l-8.9 3.294-3.322 10.89c-.128.42-.516.71-.956.71-.44 0-.828-.29-.956-.71l-3.322-10.89-8.9-3.294c-.393-.146-.653-.52-.653-.938 0-.418.26-.793.654-.937l8.896-3.293 3.323-11.223c.126-.426.516-.717.96-.717.442 0 .832.29.958.716L-8.894-5.17 0-1.875c.393.144.653.52.653.937C.653-.52.393-.146 0 0" fill="#aa8ed6"/></g><g transform="translate(15.347 9.106)"><path d="M0 0l-2.313.856-.9 3.3c-.12.436-.514.738-.965.738-.45 0-.846-.302-.965-.738l-.9-3.3L-8.356 0c-.393-.145-.653-.52-.653-.937 0-.418.26-.793.654-.938l2.3-.853.908-3.622c.11-.444.51-.756.97-.756.458 0 .858.312.97.756l.907 3.622 2.3.853c.393.145.653.52.653.938C.653-.52.393-.145 0 0" fill="#fcab40"/></g><g transform="translate(11.009 30.769)"><path d="M0 0l-2.365.875-.875 2.365c-.146.393-.52.653-.938.653-.42 0-.793-.26-.938-.653L-5.992.875-8.356 0c-.393-.146-.653-.52-.653-.938 0-.418.26-.792.654-.938l2.364-.875.876-2.366c.145-.393.52-.653.938-.653.418 0 .792.26.938.654l.875 2.365L0-1.877c.393.146.653.52.653.938C.653-.52.393-.146 0 0" fill="#5dadec"/></g></g></g></g></svg><svg viewBox="0 0 47.5 47.5" enable-background="new 0 0 47.5 47.5" width="47.5" height="47.5" id="emoji-celebration-2733" x="190" y="190"><defs><clipPath id="aya"><path d="M0 38h38V0H0v38z"/></clipPath></defs><g transform="matrix(1.25 0 0 -1.25 0 47.5)"><g><g clip-path="url(#aya)"><g transform="translate(34.999 21)"><path d="M0 0h-11.17l7.9 7.9c.78.78.78 2.046 0 2.828-.783.78-2.048.78-2.83 0l-7.9-7.9V14c0 1.104-.895 2-2 2-1.104 0-2-.896-2-2V2.83l-7.898 7.898c-.782.78-2.048.78-2.83 0-.78-.78-.78-2.047 0-2.828l7.9-7.9h-11.17C-33.105 0-34-.896-34-2c0-1.104.894-2 1.998-2h11.174l-7.9-7.9c-.782-.78-.782-2.047 0-2.83.78-.78 2.046-.78 2.827 0l7.9 7.902V-18c0-1.104.896-2 2-2 1.105 0 2 .896 2 2v11.172l7.9-7.9c.782-.78 2.047-.782 2.83 0 .78.78.78 2.047 0 2.83L-11.17-4H0c1.105 0 2 .895 2 2 0 1.104-.895 2-2 2" fill="#aa8dd8"/></g></g></g></g></svg><svg viewBox="0 0 47.5 47.5" enable-background="new 0 0 47.5 47.5" width="47.5" height="47.5" id="emoji-celebration-2734" x="237.5"><defs><clipPath id="aza"><path d="M0 38h38V0H0v38z"/></clipPath></defs><g transform="matrix(1.25 0 0 -1.25 0 47.5)"><g><g clip-path="url(#aza)"><g transform="translate(14.574 25.765)"><path d="M0 0c1.334-.97 2.63-.43 2.882 1.2L3.97 8.27c.25 1.63.66 1.63.912 0L5.97 1.2C6.22-.43 7.518-.97 8.852 0L15 4.47c1.334.97 1.632.674.662-.66l-4.47-6.148c-.972-1.335-.432-2.632 1.2-2.883l7.07-1.09c1.63-.25 1.63-.66 0-.91l-7.07-1.09c-1.632-.25-2.172-1.546-1.2-2.88l4.47-6.15c.97-1.333.672-1.63-.662-.66l-6.148 4.47c-1.334.97-2.63.43-2.882-1.2L4.882-21.8c-.25-1.63-.66-1.63-.912 0l-1.088 7.07c-.25 1.63-1.548 2.17-2.882 1.2L-6.147-18c-1.335-.97-1.58-.713-.547.573l5.085 6.324c1.035 1.287.543 2.523-1.09 2.75l-8.058 1.11c-1.634.227-1.638.62-.008.877l7.228 1.136c1.63.256 2.17 1.557 1.2 2.892l-4.47 6.147c-.972 1.334-.674 1.63.66.66L0 0z" fill="#414042"/></g></g></g></g></svg><svg viewBox="0 0 47.5 47.5" enable-background="new 0 0 47.5 47.5" width="47.5" height="47.5" id="emoji-celebration-2747" x="237.5" y="47.5"><defs><clipPath id="baa"><path d="M0 38h38V0H0v38z"/></clipPath></defs><g transform="matrix(1.25 0 0 -1.25 0 47.5)"><g><g clip-path="url(#baa)"><g transform="translate(16 19)"><path d="M0 0c0 1.657 1.343 3 3 3 1.656 0 3-1.343 3-3 0-1.656-1.344-3-3-3-1.657 0-3 1.344-3 3" fill="#ffac33"/></g><g transform="translate(21 35)"><path d="M0 0c0 1.104-.896 2-2 2s-2-.896-2-2v-10c0-1.104.896-2 2-2s2 .896 2 2V0z" fill="#ffac33"/></g><g transform="translate(21 13)"><path d="M0 0c0 1.104-.896 2-2 2s-2-.896-2-2v-10c0-1.104.896-2 2-2s2 .896 2 2V0z" fill="#ffac33"/></g><g transform="translate(3 21)"><path d="M0 0c-1.104 0-2-.896-2-2s.896-2 2-2h10c1.104 0 2 .896 2 2s-.896 2-2 2H0z" fill="#ffac33"/></g><g transform="translate(25 21)"><path d="M0 0c-1.104 0-2-.896-2-2s.896-2 2-2h10c1.104 0 2 .896 2 2s-.896 2-2 2H0z" fill="#ffac33"/></g><g transform="translate(16.171 23.243)"><path d="M0 0c.39-.39.39-1.024 0-1.414-.39-.39-1.023-.39-1.414 0L-9.9 7.07c-.39.39-.39 1.025 0 1.415.39.39 1.025.39 1.415 0L0 0z" fill="#ffac33"/></g><g transform="translate(31.727 7.686)"><path d="M0 0c.392-.39.39-1.024 0-1.414-.39-.39-1.023-.392-1.414 0L-9.9 7.07c-.39.392-.39 1.025 0 1.415.39.39 1.024.39 1.415 0L0 0z" fill="#ffac33"/></g><g transform="translate(14.757 16.172)"><path d="M0 0c.39.39 1.024.39 1.414 0 .39-.39.39-1.023 0-1.414L-7.07-9.9c-.39-.39-1.025-.39-1.415 0-.39.39-.39 1.024 0 1.415L0 0z" fill="#ffac33"/></g><g transform="translate(30.314 31.727)"><path d="M0 0c.39.392 1.024.39 1.414 0 .39-.39.392-1.023 0-1.414L-7.07-9.9c-.392-.39-1.025-.39-1.415 0-.39.39-.39 1.024 0 1.415L0 0z" fill="#ffac33"/></g></g></g></g></svg><svg viewBox="0 0 47.5 47.5" enable-background="new 0 0 47.5 47.5" width="47.5" height="47.5" id="emoji-celebration-2b50" x="237.5" y="95"><defs><clipPath id="bba"><path d="M0 38h38V0H0v38z"/></clipPath></defs><g transform="matrix(1.25 0 0 -1.25 0 47.5)"><g><g clip-path="url(#bba)"><g transform="translate(29.045 5.002)"><path d="M0 0l-.037.116-3.154 9.74 7.145 5.247h.002l2.06 1.513c.696.7.878 1.382-1.062 1.382H-5.81L-9.268 28.64c-.14.195-.375.36-.777.36-.404 0-.638-.167-.78-.36l-.207-.64v-.002l-3.25-10h-10.763c-1.94 0-1.76-.68-1.062-1.38l2.057-1.51v-.002l7.15-5.245S-19.045 3-20.085 0s2.04-1.005 2.04-1.005l8 5.82 8-5.798S.956-3.002 0 0" fill="#ffac33"/></g></g></g></g></svg><svg viewBox="0 0 47.5 47.5" enable-background="new 0 0 47.5 47.5" width="47.5" height="47.5" id="emoji-celebration-blueHeart" x="237.5" y="142.5"><defs><clipPath id="bca"><path d="M0 38h38V0H0v38z"/></clipPath></defs><g transform="matrix(1.25 0 0 -1.25 0 47.5)"><g><g clip-path="url(#bca)"><g transform="translate(36.885 25.166)"><path d="M0 0c0 5.45-4.418 9.868-9.867 9.868-3.308 0-6.227-1.633-8.018-4.13-1.79 2.497-4.71 4.13-8.017 4.13-5.45 0-9.868-4.418-9.868-9.868 0-.772.098-1.52.266-2.24 1.37-8.513 10.835-17.495 17.62-19.96C-11.103-19.736-1.637-10.754-.27-2.24-.098-1.52 0-.773 0 0" fill="#5dadec"/></g></g></g></g></svg><svg viewBox="0 0 47.5 47.5" enable-background="new 0 0 47.5 47.5" width="47.5" height="47.5" id="emoji-celebration-cake" x="237.5" y="190"><defs><clipPath id="bda"><path d="M0 38h38V0H0v38z"/></clipPath></defs><g transform="matrix(1.25 0 0 -1.25 0 47.5)"><g><g clip-path="url(#bda)"><g transform="translate(37 12)"><path d="M0 0c0-5.522-8.06-10-18-10S-36-5.522-36 0s8.06 10 18 10S0 5.522 0 0" fill="#939598"/></g><g transform="translate(37 14)"><path d="M0 0c0-5.522-8.06-10-18-10S-36-5.522-36 0s8.06 10 18 10S0 5.522 0 0" fill="#f1f2f2"/></g><g transform="translate(33.8 15)"><path d="M0 0c0-4.54-6.626-8.223-14.8-8.223S-29.6-4.54-29.6 0c0 4.54 6.626 8.222 14.8 8.222S0 4.542 0 0" fill="#ccd6dd"/></g><g transform="translate(30 15)"><path d="M0 0c0-3.068-4.926-5.556-11-5.556-6.075 0-11 2.488-11 5.556s4.925 5.556 11 5.556C-4.926 5.556 0 3.068 0 0" fill="#8a4b38"/></g><g transform="translate(32.403 14.957)"><path d="M0 0c0-3.89-6-7.044-13.403-7.044-7.403 0-13.404 3.153-13.404 7.044 0 3.89 6 7.043 13.404 7.043C-6 7.043 0 3.89 0 0" fill="#ad5540"/></g><g transform="translate(32 16)"><path d="M0 0c0-9-26-9-26 0v8H0V0z" fill="#662113"/></g><g transform="translate(32.403 24.956)"><path d="M0 0c0-3.89-6-7.043-13.403-7.043-7.403 0-13.404 3.153-13.404 7.043s6 7.043 13.404 7.043C-6 7.043 0 3.89 0 0" fill="#ad5540"/></g><g transform="translate(12 24)"><path d="M0 0c-.552 0-1 .448-1 1v7c0 .552.448 1 1 1s1-.448 1-1V1C1 .448.552 0 0 0" fill="#88c9f9"/></g><g transform="translate(19 21)"><path d="M0 0c-.552 0-1 .448-1 1v7c0 .552.448 1 1 1s1-.448 1-1V1C1 .448.552 0 0 0" fill="#88c9f9"/></g><g transform="translate(26 24)"><path d="M0 0c-.553 0-1 .448-1 1v7c0 .552.447 1 1 1 .553 0 1-.448 1-1V1C1 .448.553 0 0 0" fill="#88c9f9"/></g><g transform="translate(26 30.5)"><path d="M0 0c-1.062 0-1.896.486-2.233 1.3-.292.705-.438 2.237 1.88 4.554.195.195.51.195.707 0 2.317-2.317 2.17-3.85 1.88-4.555C1.895.485 1.06 0 0 0" fill="#ffac33"/></g><g transform="translate(19 27.5)"><path d="M0 0c-1.062 0-1.896.486-2.233 1.3-.293.705-.437 2.237 1.88 4.554.195.195.51.195.707 0 2.317-2.317 2.17-3.85 1.88-4.555C1.895.485 1.06 0 0 0" fill="#ffac33"/></g><g transform="translate(12 30.5)"><path d="M0 0c-1.062 0-1.896.486-2.233 1.3-.293.705-.437 2.237 1.88 4.554.195.195.51.195.707 0C2.67 3.537 2.526 2.004 2.234 1.3 1.895.485 1.06 0 0 0" fill="#ffac33"/></g></g></g></g></svg><svg viewBox="0 0 47.5 47.5" enable-background="new 0 0 47.5 47.5" width="47.5" height="47.5" id="emoji-celebration-celebration" y="237.5"><defs><clipPath id="bea"><path d="M0 38h38V0H0v38z"/></clipPath></defs><g transform="matrix(1.25 0 0 -1.25 0 47.5)"><g><g clip-path="url(#bea)"><g transform="translate(12.626 29.512)"><path d="M0 0c-.112-.112-.197-.247-.268-.395l-.008.008-11.216-25.265.01-.01c-.207-.404.14-1.224.854-1.938.712-.712 1.532-1.06 1.935-.852l.01-.01 25.267 11.215-.008.01c.148.07.282.154.395.267 1.563 1.562-.97 6.627-5.656 11.313C6.628-.97 1.562 1.563 0 0" fill="#dd2e44"/></g><g transform="translate(14 25)"><path d="M0 0l-12.584-20.506-.282-.635.01-.01c-.207-.405.14-1.224.854-1.938.232-.232.472-.408.71-.557L4-5 0 0z" fill="#ea596e"/></g><g transform="translate(24.012 23.934)"><path d="M0 0c4.67-4.672 7.263-9.652 5.79-11.125-1.474-1.473-6.454 1.12-11.127 5.79-4.67 4.67-7.263 9.652-5.79 11.126C-9.653 7.265-4.673 4.67 0 0" fill="#a0041e"/></g><g transform="translate(19.59 23.391)"><path d="M0 0c-.2-.16-.46-.245-.734-.215-.868.094-1.598.396-2.11.873-.54.505-.807 1.182-.734 1.862.128 1.192 1.324 2.286 3.363 2.065.793-.085 1.147.17 1.158.292.014.12-.277.446-1.07.532-.868.093-1.597.395-2.11.872-.54.505-.808 1.183-.734 1.862.13 1.192 1.324 2.286 3.36 2.065.58-.063.883.057 1.012.134.104.063.145.123.15.157.01.122-.277.447-1.072.533-.548.06-.946.552-.886 1.102.06.55.55.946 1.1.886 2.038-.218 2.974-1.54 2.845-2.734C3.41 9.094 2.214 8 .175 8.22c-.578.064-.88-.056-1.01-.133-.103-.063-.145-.124-.15-.157-.012-.122.277-.447 1.072-.533 2.037-.22 2.973-1.542 2.844-2.735C2.802 3.47 1.607 2.376-.43 2.597c-.578.062-.882-.057-1.012-.134-.103-.063-.143-.124-.147-.158-.012-.12.277-.446 1.07-.532.55-.06.948-.552.887-1.1C.337.396.2.16 0 0" fill="#aa8dd8"/></g><g transform="translate(31.661 14.143)"><path d="M0 0c1.973.557 3.334-.323 3.658-1.478.324-1.154-.378-2.615-2.35-3.17-.77-.215-1-.583-.97-.7.035-.12.426-.313 1.194-.095 1.972.554 3.333-.326 3.657-1.48.326-1.155-.378-2.614-2.35-3.17-.77-.216-1.002-.585-.968-.702.033-.117.423-.31 1.192-.095.53.15 1.084-.16 1.234-.69.148-.533-.16-1.085-.694-1.235-1.97-.555-3.333.323-3.66 1.48-.323 1.153.38 2.612 2.354 3.168.77.217 1 .584.967.702-.033.117-.422.312-1.19.096-1.974-.555-3.335.323-3.66 1.48-.325 1.154.378 2.613 2.352 3.17.767.214 1 .584.966.7-.034.12-.422.313-1.192.096-.53-.15-1.082.16-1.232.692C-.842-.702-.532-.15 0 0" fill="#77b255"/></g><g transform="translate(24.001 16.84)"><path d="M0 0c-.294 0-.584.13-.782.375-.345.432-.275 1.06.156 1.406.218.176 5.418 4.26 12.767 3.21.548-.08.927-.585.85-1.132-.08-.546-.58-.93-1.133-.848C5.364 3.932.67.256.624.22.44.07.22 0 0 0" fill="#aa8dd8"/></g><g transform="translate(6.754 21)"><path d="M0 0c-.095 0-.192.014-.288.042-.53.16-.83.717-.67 1.246C.175 5.06 1.202 11.082-.06 12.65c-.142.18-.354.354-.842.317-.94-.07-.85-2.05-.848-2.07.042-.552-.372-1.032-.922-1.073-.56-.034-1.032.372-1.072.923-.104 1.38.326 4.035 2.69 4.214 1.057.08 1.934-.286 2.554-1.056C3.87 10.954 1.464 2.397.957.712.827.28.43 0 0 0" fill="#77b255"/></g><g transform="translate(28 27.5)"><path d="M0 0c0-.828-.672-1.5-1.5-1.5S-3-.828-3 0s.672 1.5 1.5 1.5S0 .828 0 0" fill="#5c913b"/></g><g transform="translate(5 19)"><path d="M0 0c0-1.104-.896-2-2-2s-2 .896-2 2 .896 2 2 2 2-.896 2-2" fill="#9266cc"/></g><g transform="translate(35 17.5)"><path d="M0 0c0-.828-.672-1.5-1.5-1.5S-3-.828-3 0s.672 1.5 1.5 1.5S0 .828 0 0" fill="#5c913b"/></g><g transform="translate(26 5.5)"><path d="M0 0c0-.828-.672-1.5-1.5-1.5S-3-.828-3 0s.672 1.5 1.5 1.5S0 .828 0 0" fill="#5c913b"/></g><g transform="translate(31 33)"><path d="M0 0c0-1.104-.896-2-2-2s-2 .896-2 2 .896 2 2 2 2-.896 2-2" fill="#ffcc4d"/></g><g transform="translate(35 28.5)"><path d="M0 0c0-.828-.672-1.5-1.5-1.5S-3-.828-3 0s.672 1.5 1.5 1.5S0 .828 0 0" fill="#ffcc4d"/></g><g transform="translate(32 24.5)"><path d="M0 0c0-.828-.672-1.5-1.5-1.5S-3-.828-3 0s.672 1.5 1.5 1.5S0 .828 0 0" fill="#ffcc4d"/></g><g transform="translate(10 13.5)"><path d="M0 0c0-.828-.672-1.5-1.5-1.5S-3-.828-3 0s.672 1.5 1.5 1.5S0 .828 0 0" fill="#ffcc4d"/></g></g></g></g></svg><svg viewBox="0 0 47.5 47.5" enable-background="new 0 0 47.5 47.5" width="47.5" height="47.5" id="emoji-celebration-cool" x="47.5" y="237.5"><defs><clipPath id="bfa"><path d="M0 38h38V0H0v38z"/></clipPath></defs><g transform="matrix(1.25 0 0 -1.25 0 47.5)"><g><g clip-path="url(#bfa)"><g transform="translate(37 5)"><path d="M0 0c0-2.21-1.79-4-4-4h-28c-2.21 0-4 1.79-4 4v28c0 2.21 1.79 4 4 4h28c2.21 0 4-1.79 4-4V0z" fill="#3b88c3"/></g><g transform="translate(6.97 24.142)"><path d="M0 0c1.022 0 3.012-.336 3.012-1.57 0-.503-.35-.938-.87-.938-.573 0-.965.49-2.142.49-1.737 0-2.633-1.47-2.633-3.18 0-1.666.91-3.095 2.633-3.095 1.177 0 1.653.59 2.227.59.63 0 .925-.632.925-.954 0-1.345-2.115-1.653-3.152-1.653-2.843 0-4.818 2.255-4.818 5.155C-4.818-2.24-2.858 0 0 0" fill="#fff"/></g><g transform="translate(17.317 18.986)"><path d="M0 0c0 1.695-.882 3.222-2.633 3.222-1.75 0-2.634-1.527-2.634-3.222 0-1.71.855-3.222 2.634-3.222C-.853-3.222 0-1.71 0 0m-7.452 0c0 2.914 1.96 5.155 4.82 5.155C.18 5.155 2.185 2.845 2.185 0c0-2.9-1.948-5.154-4.82-5.154C-5.476-5.154-7.45-2.9-7.45 0" fill="#fff"/></g><g transform="translate(27.426 18.986)"><path d="M0 0c0 1.695-.883 3.222-2.635 3.222-1.75 0-2.633-1.527-2.633-3.222 0-1.71.855-3.222 2.633-3.222C-.855-3.222 0-1.71 0 0m-7.453 0c0 2.914 1.96 5.155 4.818 5.155 2.817 0 4.82-2.31 4.82-5.155 0-2.9-1.947-5.154-4.82-5.154C-5.478-5.154-7.453-2.9-7.453 0" fill="#fff"/></g><g transform="translate(30.193 22.965)"><path d="M0 0c0 .7.447 1.093 1.05 1.093C1.653 1.093 2.103.7 2.103 0v-7.032h2.492c.715 0 1.023-.532 1.01-1.008-.03-.463-.393-.925-1.01-.925H1.092C.406-8.965 0-8.517 0-7.815V0z" fill="#fff"/></g></g></g></g></svg><svg viewBox="0 0 47.5 47.5" enable-background="new 0 0 47.5 47.5" width="47.5" height="47.5" id="emoji-celebration-graduation" x="95" y="237.5"><defs><clipPath id="bga"><path d="M0 38h38V0H0v38z"/></clipPath><clipPath id="bgb"><path d="M1.963 36.248h34.074V9.64H1.963V36.25z"/></clipPath></defs><g transform="matrix(1.25 0 0 -1.25 0 47.5)"><g><g clip-path="url(#bga)"><g transform="translate(25 23)"><path d="M0 0h-12s-5-6-5-10S-6-21-6-21 5-14 5-10 0 0 0 0" fill="#292f33"/></g><g transform="translate(20.64 35.72)"><path d="M0 0c-.9.704-2.377.704-3.278 0L-18-11.497c-.902-.703-.902-1.856 0-2.56L-3.28-25.55c.903-.705 2.378-.705 3.28 0L14.72-14.057c.9.703.9 1.856 0 2.56L0 0z" fill="#292f33"/></g><g><g><g clip-path="url(#bgb)" opacity=".25"><g transform="translate(20.64 35.72)"><path d="M0 0c-.9.704-2.377.704-3.278 0L-18-11.497c-.902-.703-.902-1.856 0-2.56L-3.28-25.55c.903-.705 2.378-.705 3.28 0L14.72-14.057c.9.703.9 1.856 0 2.56L0 0z" fill="#67757f"/></g></g></g></g><g transform="translate(9 12)"><path d="M0 0s-2-2-2-3v-6s0-2 2-2 2 2 2 2v6c0 1-2 3-2 3" fill="#fcab40"/></g><g transform="translate(12.001 11)"><path d="M0 0c0-1.658-1.343-3-3-3s-3 1.342-3 3 1.343 3 3 3 3-1.342 3-3" fill="#fdd888"/></g><g transform="translate(9.002 10)"><path d="M0 0c-.552 0-1 .447-1 1v3.958c-.042.634.187 2.036 1.317 2.884l9.022 7.91c.415.365 1.047.323 1.41-.093.365-.416.323-1.048-.092-1.412L1.576 6.29C.973 5.834 1 5.018 1 5.01V1C1 .447.552 0 0 0" fill="#fcab40"/></g><g transform="translate(22 24)"><path d="M0 0c0-1.657-1.343-3-3-3s-3 1.343-3 3 1.343 3 3 3 3-1.343 3-3" fill="#292f33"/></g></g></g></g></svg><svg viewBox="0 0 47.5 47.5" enable-background="new 0 0 47.5 47.5" width="47.5" height="47.5" id="emoji-celebration-greenHeart" x="142.5" y="237.5"><defs><clipPath id="bha"><path d="M0 38h38V0H0v38z"/></clipPath></defs><g transform="matrix(1.25 0 0 -1.25 0 47.5)"><g><g clip-path="url(#bha)"><g transform="translate(36.885 25.166)"><path d="M0 0c0 5.45-4.418 9.868-9.867 9.868-3.308 0-6.227-1.633-8.018-4.13-1.79 2.497-4.71 4.13-8.017 4.13-5.45 0-9.868-4.418-9.868-9.868 0-.772.098-1.52.266-2.24 1.37-8.513 10.835-17.495 17.62-19.96C-11.103-19.736-1.637-10.754-.27-2.24-.098-1.52 0-.773 0 0" fill="#78b159"/></g></g></g></g></svg><svg viewBox="0 0 47.5 47.5" enable-background="new 0 0 47.5 47.5" width="47.5" height="47.5" id="emoji-celebration-heart" x="190" y="237.5"><defs><clipPath id="bia"><path d="M0 38h38V0H0v38z"/></clipPath></defs><g transform="matrix(1.25 0 0 -1.25 0 47.5)"><g><g clip-path="url(#bia)"><g transform="translate(36.885 25.166)"><path d="M0 0c0 5.45-4.418 9.868-9.867 9.868-3.308 0-6.227-1.633-8.018-4.13-1.79 2.497-4.71 4.13-8.017 4.13-5.45 0-9.868-4.418-9.868-9.868 0-.772.098-1.52.266-2.24 1.37-8.513 10.835-17.495 17.62-19.96C-11.103-19.736-1.637-10.754-.27-2.24-.098-1.52 0-.773 0 0" fill="#be1931"/></g></g></g></g></svg><svg viewBox="0 0 47.5 47.5" enable-background="new 0 0 47.5 47.5" width="47.5" height="47.5" id="emoji-celebration-pill" x="237.5" y="237.5"><defs><clipPath id="bja"><path d="M0 38h38V0H0v38z"/></clipPath></defs><g transform="matrix(1.25 0 0 -1.25 0 47.5)"><g><g clip-path="url(#bja)"><g transform="translate(34.207 17.227)"><path d="M0 0l-8.868 8.855-13.234-13.622 8.684-8.684c1.72-1.716 4.092-2.777 6.71-2.777 5.247 0 9.5 4.254 9.5 9.5C2.793-4.1 1.726-1.72 0 0" fill="#bb1a34"/></g><g transform="translate(16.921 34.487)"><path d="M0 0c-1.692 1.556-3.942 2.513-6.42 2.513-5.248 0-9.5-4.253-9.5-9.5 0-2.48.957-4.73 2.512-6.42l-.013-.015 8.604-8.605L8.417-8.405 0 0z" fill="#fdcb58"/></g></g></g></g></svg><svg viewBox="0 0 47.5 47.5" enable-background="new 0 0 47.5 47.5" width="47.5" height="47.5" id="emoji-celebration-purpleHearts" x="285"><defs><clipPath id="bka"><path d="M0 38h38V0H0v38z"/></clipPath></defs><g transform="matrix(1.25 0 0 -1.25 0 47.5)"><g><g clip-path="url(#bka)"><g transform="translate(36.885 25.166)"><path d="M0 0c0 5.45-4.418 9.868-9.867 9.868-3.308 0-6.227-1.633-8.018-4.13-1.79 2.497-4.71 4.13-8.017 4.13-5.45 0-9.868-4.418-9.868-9.868 0-.772.098-1.52.266-2.24 1.37-8.513 10.835-17.495 17.62-19.96C-11.103-19.736-1.637-10.754-.27-2.24-.098-1.52 0-.773 0 0" fill="#aa8ed6"/></g></g></g></g></svg><svg viewBox="0 0 47.5 47.5" enable-background="new 0 0 47.5 47.5" width="47.5" height="47.5" id="emoji-celebration-spade" x="285" y="47.5"><defs><clipPath id="bla"><path d="M0 38h38V0H0v38z"/></clipPath></defs><g transform="matrix(1.25 0 0 -1.25 0 47.5)"><g><g clip-path="url(#bla)"><g transform="translate(33.799 16.664)"><path d="M0 0c0 8.88-14.8 20.138-14.8 20.138S-29.597 8.88-29.597 0c0-6.946 8.175-10.172 12.766-5.173-.335-4.18-4.72-7.49-8.967-7.49h.5c-.827 0-1.5-.673-1.5-1.5 0-.83.673-1.5 1.5-1.5h21c.83 0 1.5.67 1.5 1.5 0 .827-.67 1.5-1.5 1.5h.5c-4.245 0-8.63 3.31-8.966 7.49C-8.176-10.173 0-6.946 0 0"/></g></g></g></g></svg></svg>